<svg width="386" height="76" viewBox="0 0 386 76" fill="none" xmlns="http://www.w3.org/2000/svg">
<path d="M70.2371 37.0834C70.2914 37.2481 70.3073 37.4225 70.284 37.594C70.284 42.1899 70.3205 46.7856 70.284 51.4072C70.2371 55.7015 68.3447 59.0056 64.5025 61.1504C56.8706 65.4143 49.2177 69.6373 41.5959 73.9165C40.1167 74.8277 38.4838 75.4745 36.7737 75.8263C34.3748 76.2664 31.8946 75.813 29.8193 74.5549C26.1283 72.3539 22.3644 70.2654 18.637 68.1207C18.479 68.0603 18.3378 67.9641 18.2251 67.8399C18.0635 67.7327 18.0635 67.564 18.0427 67.4006C17.6464 64.2447 17.219 61.0941 16.828 57.9382C16.7766 57.7699 16.7877 57.589 16.8593 57.4275C17.0782 57.2899 17.245 57.4275 17.3806 57.535C19.9663 58.9543 22.5556 60.3638 25.1482 61.7629C27.8226 63.2081 30.4866 64.6688 33.1609 66.1139L35.0116 67.135C35.1144 67.1992 35.2338 67.233 35.3557 67.233C35.4776 67.233 35.5969 67.1992 35.6998 67.135L46.1262 61.4464C49.5304 59.5927 52.9031 57.7239 56.3442 55.8805C57.5794 55.2113 58.8099 54.5372 60.035 53.8376C60.6666 53.4766 61.1275 52.8857 61.3176 52.1934C61.4727 51.6975 61.5484 51.1807 61.5414 50.6616C61.5414 48.4964 61.5728 46.3311 61.5414 44.1663C61.6093 43.8547 61.8855 43.7118 62.0993 43.5381C64.6538 41.4493 67.2239 39.3862 69.768 37.2877C69.893 37.1906 70.0287 37.0527 70.2371 37.0834Z" fill="black"/>
<path d="M16.9845 57.4275C16.8594 57.4632 16.8959 57.5654 16.9063 57.6471C17.3442 61.0516 17.7838 64.456 18.2252 67.8604C18.0584 68.0238 17.9437 67.8604 17.829 67.7836C13.5542 65.363 9.16992 63.0089 4.9368 60.461C3.70059 59.7048 2.64102 58.7016 1.82719 57.5176C1.01336 56.3331 0.463555 54.994 0.21364 53.5876C-0.13043 51.9483 0.0416051 50.2888 0.0572448 48.6392C0.104163 42.6546 0.182362 36.6697 0.24492 30.6798C0.270986 28.53 0.24492 26.3802 0.307478 24.2303C0.416955 20.0021 2.15295 16.7187 6.07327 14.6607C9.76421 12.7254 13.4186 10.7287 17.0887 8.75763C17.2347 8.68102 17.3703 8.5891 17.5162 8.50231C17.6622 8.41548 17.8707 8.31337 18.0375 8.17547C18.1885 8.14872 18.3442 8.18178 18.4702 8.26739C21.2697 9.61552 24.0796 10.9381 26.8948 12.2607C27.0772 12.3475 27.3118 12.3935 27.3587 12.6488C27.3534 12.6848 27.3405 12.7192 27.3207 12.75C27.3009 12.7808 27.2748 12.8072 27.244 12.8275L16.1608 19.0779C14.3362 20.0991 12.5116 21.1562 10.687 22.1418C10.0855 22.43 9.58424 22.8855 9.2458 23.4514C8.90736 24.0173 8.74676 24.6683 8.78412 25.3231C8.81193 33.8339 8.81193 42.3347 8.78412 50.825C8.75234 51.3737 8.88808 51.9194 9.17403 52.3921C9.45998 52.8652 9.88323 53.2441 10.3898 53.4804C12.4751 54.6345 14.5603 55.8292 16.6456 57.0038C16.802 57.0958 16.9897 57.1569 17.0627 57.3458C17.0835 57.4226 17.047 57.4431 16.9845 57.4275Z" fill="black"/>
<path d="M27.317 12.6284C26.0659 12.0258 24.8147 11.4182 23.5583 10.8207L18.5432 8.44105C18.3712 8.36445 18.2201 8.21636 18.0219 8.25212C18.0111 8.24509 18.0027 8.2349 17.9981 8.22301C17.9934 8.21111 17.9926 8.19808 17.9959 8.18573C17.9959 8.1602 17.9959 8.14997 17.9959 8.14997L27.9009 2.58901C28.7767 2.07836 29.663 1.61878 30.5075 1.10813C32.1483 0.189594 34.0483 -0.184772 35.924 0.0408711C37.9139 0.229023 39.8355 0.850113 41.549 1.85878C49.1969 6.15334 56.8238 10.499 64.5186 14.6914C67.6097 16.3766 69.2518 18.8787 69.9714 22.1316C70.2993 23.9082 70.4199 25.7156 70.3311 27.5189C70.2965 30.7054 70.2651 33.8935 70.2372 37.0834L61.5989 44.11C61.5543 44.0853 61.521 44.0454 61.505 43.9975C61.4531 43.7631 61.4372 43.5218 61.4581 43.2828C61.4581 37.3115 61.4581 31.342 61.4581 25.3742C61.5074 24.4522 61.2614 23.5381 60.7544 22.7597C60.4142 22.3501 59.9801 22.0247 59.4878 21.8099L44.1451 13.1901L35.8823 8.5432C35.7542 8.46207 35.6048 8.4189 35.4523 8.4189C35.2996 8.4189 35.1503 8.46207 35.0221 8.5432C32.6241 9.85557 30.2364 11.1832 27.828 12.4752C27.6663 12.562 27.5256 12.6999 27.317 12.6284Z" fill="black"/>
<path d="M181.826 29.776V30.6798C181.826 34.8723 181.826 39.0648 181.826 43.2573C181.826 43.7676 181.706 43.931 181.153 43.9212C179.282 43.8801 177.41 43.8953 175.538 43.9212C175.127 43.9212 175.017 43.8087 175.017 43.4104C175.017 34.8825 175.017 26.3546 175.017 17.8268C175.017 17.4336 175.111 17.3161 175.538 17.3161C177.103 17.3161 178.703 17.3519 180.282 17.3161C180.746 17.3161 180.924 17.5612 181.137 17.8268L190.985 30.7615L191.506 31.4509V30.6032C191.506 26.3904 191.506 22.1724 191.506 17.9596C191.506 17.4182 191.637 17.2906 192.179 17.3008C194.024 17.3365 195.875 17.3315 197.721 17.3008C198.205 17.3008 198.315 17.4285 198.315 17.888C198.315 26.3717 198.315 34.8519 198.315 43.3287C198.315 43.7984 198.19 43.9212 197.715 43.9109C196.209 43.8801 194.702 43.9109 193.195 43.9109C193.008 43.9253 192.819 43.89 192.65 43.8083C192.482 43.7262 192.338 43.6012 192.236 43.4462C188.99 39.143 185.732 34.8501 182.462 30.5675C182.295 30.3632 182.128 30.159 181.826 29.776Z" fill="black"/>
<path d="M111.922 44.4877C108.695 44.3958 105.468 43.7882 102.538 42.0675C101.975 41.7403 101.783 41.4595 102.085 40.8059C102.737 39.4018 103.299 37.9566 103.857 36.5166C104.029 36.0825 104.165 36.0774 104.551 36.3225C107.029 37.9563 109.981 38.7608 112.965 38.6152C113.621 38.5947 114.268 38.4564 114.873 38.2067C115.208 38.0958 115.503 37.892 115.722 37.6201C115.941 37.3482 116.075 37.0199 116.108 36.6749C116.144 36.3169 116.068 35.9567 115.891 35.642C115.713 35.3273 115.442 35.0731 115.113 34.9131C114.06 34.3693 112.93 33.9821 111.76 33.7642C110.248 33.4285 108.759 32.9969 107.303 32.4722C104.326 31.3028 102.413 29.3113 102.247 26.0482C102.069 22.5861 103.419 19.8847 106.573 18.1638C108.077 17.3755 109.739 16.9188 111.442 16.8259C114.862 16.4974 118.305 17.1559 121.348 18.7204C121.78 18.9451 121.931 19.129 121.723 19.6345C121.113 21.1052 120.56 22.6014 120.018 24.1027C119.851 24.5623 119.721 24.6695 119.236 24.3938C117.162 23.1265 114.745 22.5034 112.303 22.6065C111.595 22.634 110.903 22.8081 110.27 23.1172C109.904 23.2852 109.596 23.5537 109.383 23.8901C109.17 24.2264 109.061 24.616 109.07 25.0116C109.076 25.3723 109.191 25.7232 109.401 26.0196C109.611 26.3161 109.906 26.5447 110.249 26.6763C111.505 27.33 112.902 27.5547 114.263 27.9019C115.562 28.1979 116.839 28.5819 118.084 29.0509C120.805 30.1488 122.604 31.9871 122.88 34.9642C123.156 37.9413 122.187 40.5813 119.637 42.4095C117.401 44.0283 114.784 44.4266 111.922 44.4877Z" fill="black"/>
<path d="M124.397 30.542C124.397 26.3495 124.397 22.1571 124.397 17.9697C124.397 17.4591 124.491 17.2855 125.054 17.3008C126.903 17.3416 128.75 17.3416 130.595 17.3008C131.19 17.3008 131.357 17.4132 131.357 18.0259C131.357 24.4039 131.357 30.7922 131.32 37.1651C131.32 37.8493 131.529 37.977 132.17 37.9719C135.553 37.9413 138.947 37.9719 142.31 37.9412C142.93 37.9412 143.071 38.125 143.06 38.7022C143.018 40.234 143.029 41.7966 143.06 43.3439C143.06 43.773 142.966 43.9109 142.503 43.9109C136.643 43.9109 130.783 43.9109 124.923 43.9109C124.402 43.9109 124.402 43.7015 124.402 43.3234C124.406 39.0648 124.404 34.8042 124.397 30.542Z" fill="black"/>
<path d="M100.39 30.6084C100.39 34.8263 100.39 39.0393 100.39 43.2573C100.39 43.7676 100.276 43.931 99.723 43.9212C97.8256 43.8801 95.9278 43.8904 94.0304 43.9212C93.5559 43.9212 93.436 43.8034 93.436 43.339C93.436 34.8587 93.436 26.3785 93.436 17.8983C93.436 17.4387 93.5404 17.3008 94.0249 17.311C95.9227 17.311 97.8201 17.3417 99.7179 17.311C100.239 17.311 100.396 17.4285 100.396 17.9697C100.38 22.1775 100.39 26.3904 100.39 30.6084Z" fill="black"/>
<path d="M324.652 30.6084C324.652 26.3955 324.652 22.1775 324.652 17.9596C324.652 17.4183 324.792 17.2957 325.334 17.2957C330.492 17.3229 335.648 17.3229 340.802 17.2957C341.323 17.2957 341.558 17.3927 341.48 17.9442C341.402 18.4957 341.74 19.3076 341.339 19.6396C340.938 19.9715 340.229 19.7366 339.65 19.7366C335.735 19.7366 331.83 19.7366 327.904 19.7366C327.383 19.7366 327.253 19.8285 327.258 20.3443C327.283 23.1052 327.283 25.8695 327.258 28.6373C327.258 29.1121 327.394 29.2194 327.863 29.2143C331.658 29.2143 335.448 29.2143 339.243 29.1888C339.817 29.1888 339.978 29.3317 339.968 29.8934C339.931 31.6092 339.968 31.6092 338.19 31.6092C334.76 31.6092 331.33 31.6092 327.899 31.6092C327.378 31.6092 327.253 31.7113 327.258 32.222C327.283 35.1089 327.283 37.9923 327.258 40.8724C327.258 41.3831 327.368 41.5006 327.884 41.5006C332.362 41.5006 336.835 41.5006 341.313 41.4698C341.871 41.4698 342.084 41.5925 342.022 42.1591C341.96 42.7261 342.189 43.4716 341.897 43.8087C341.605 44.1457 340.802 43.9109 340.223 43.9109C335.266 43.9109 330.318 43.9109 325.34 43.9109C324.818 43.9109 324.652 43.8087 324.652 43.2573C324.662 39.0442 324.652 34.8263 324.652 30.6084Z" fill="black"/>
<path d="M368.599 38.5848C369.781 39.7157 371.198 40.5848 372.753 41.1331C374.308 41.6811 375.965 41.895 377.612 41.7609C378.683 41.7248 379.734 41.4709 380.698 41.0153C381.47 40.676 382.121 40.1196 382.569 39.4166C383.016 38.7136 383.24 37.896 383.211 37.0681C383.211 35.3318 382.341 34.1471 380.829 33.3607C379.16 32.4926 377.32 32.125 375.532 31.6194C374.43 31.3344 373.353 30.9639 372.31 30.5113C369.422 29.1887 368.088 27.1308 368.192 24.1486C368.296 21.1664 369.917 18.751 372.806 17.7655C374.686 17.0921 376.7 16.8546 378.69 17.0716C380.68 17.2887 382.591 17.9544 384.275 19.0166C384.692 19.2617 384.796 19.4966 384.582 19.9204C384.322 20.4311 384.108 21.003 383.879 21.5443C383.357 21.2737 382.883 20.9877 382.377 20.7272C379.967 19.4227 377.137 19.0771 374.474 19.7621C371.711 20.477 370.267 22.775 370.882 25.3333C371.041 25.923 371.333 26.4704 371.736 26.9352C372.14 27.4 372.644 27.7704 373.212 28.0193C374.73 28.7178 376.321 29.2537 377.956 29.6177C379.247 29.9476 380.51 30.3709 381.736 30.8841C384.421 32.0739 385.839 34.0654 385.786 37.0119C385.734 39.9581 384.369 42.047 381.658 43.2877C377.628 45.1364 371.309 44.1967 368.14 41.3318C367.723 40.9541 367.572 40.6425 367.89 40.1269C368.155 39.626 368.392 39.1115 368.599 38.5848Z" fill="black"/>
<path d="M95.3597 60.6548C100.757 60.5017 106.144 60.3535 111.521 60.2106C123.723 59.8701 135.925 59.5502 148.128 59.2507C152.215 59.1436 156.297 59.0463 160.378 58.9186C160.9 58.9186 161.046 59.0159 161.02 59.5262C160.976 60.3771 160.976 61.229 161.02 62.0798C161.02 62.5241 160.91 62.6362 160.457 62.621C158.345 62.5393 156.229 62.5035 154.112 62.4473L100.156 61.0022L95.7768 60.8745C95.641 60.7825 95.4742 60.8745 95.3333 60.7878C95.3217 60.7662 95.3178 60.7411 95.3225 60.7168C95.3271 60.6925 95.3403 60.6708 95.3597 60.6548Z" fill="black"/>
<path d="M382.705 60.895L354.195 61.6508C342.256 61.9708 330.322 62.301 318.39 62.6415C317.629 62.6415 317.389 62.4883 317.462 61.7375C317.52 60.9778 317.52 60.2148 317.462 59.4548C317.436 59.0003 317.582 58.9034 318.025 58.9186C324.031 59.0923 330.035 59.2523 336.037 59.3989L355.581 59.9093L383.169 60.6548C383.184 60.6674 383.194 60.6837 383.2 60.7016C383.205 60.7198 383.206 60.7388 383.201 60.7571C383.201 60.7928 383.201 60.808 383.201 60.808C383.008 60.8745 382.841 60.803 382.705 60.895Z" fill="black"/>
<path d="M237.477 31.8697C237.477 35.6331 237.477 39.3965 237.477 43.16C237.477 43.7167 237.399 43.9926 236.747 43.9158C236.095 43.8395 235.334 44.11 234.99 43.8087C234.646 43.5073 234.865 42.6493 234.865 42.0367C234.865 34.8467 234.865 27.6534 234.865 20.4566C234.865 19.8541 234.714 19.7213 234.114 19.7315C231.685 19.7673 229.25 19.7315 226.816 19.7315C226.331 19.7315 226.185 19.6038 226.221 19.1442C226.274 18.5519 226.023 17.7604 226.326 17.4183C226.628 17.0761 227.509 17.2906 228.129 17.2906C233.864 17.2906 239.598 17.2906 245.333 17.2906C245.891 17.2906 246.125 17.4029 246.047 17.98C245.969 18.557 246.287 19.277 245.927 19.6294C245.567 19.9817 244.822 19.7264 244.243 19.7315C242.158 19.7315 240.109 19.757 238.045 19.7315C237.523 19.7315 237.414 19.8796 237.419 20.3647C237.487 24.1997 237.477 28.0347 237.477 31.8697Z" fill="black"/>
<path d="M187.612 60.6602C187.612 58.3722 187.612 56.0641 187.612 53.8019C187.612 53.3832 187.654 53.1688 188.181 53.1791C188.707 53.1894 188.78 53.3117 188.775 53.7715C188.749 55.6761 188.775 57.581 188.775 59.4856C188.775 59.9093 188.827 60.0985 189.348 60.0985C192.382 60.0677 195.42 60.0677 198.461 60.0985C198.941 60.0985 199.014 59.9553 199.008 59.5365C199.008 57.6065 199.008 55.6761 199.008 53.751C199.008 53.3322 199.076 53.1688 199.556 53.184C200.035 53.1996 200.182 53.2608 200.176 53.7613C200.156 58.3843 200.156 63.004 200.176 67.6202C200.176 68.0698 200.093 68.2279 199.592 68.2332C199.092 68.2381 199.014 68.0542 199.014 67.6252C199.014 65.6492 199.014 63.6728 199.014 61.6968C199.014 61.2267 198.951 61.0432 198.404 61.0535C195.39 61.0804 192.375 61.0804 189.359 61.0535C188.863 61.0535 188.775 61.2066 188.78 61.6508C188.78 63.6473 188.78 65.6492 188.78 67.651C188.78 68.039 188.78 68.2636 188.259 68.2279C187.847 68.1971 187.612 68.1971 187.618 67.6662C187.633 65.3273 187.612 62.9937 187.612 60.6602Z" fill="black"/>
<path d="M283.16 60.7365C283.16 62.9987 283.16 65.2612 283.16 67.5233C283.16 67.998 283.128 68.2332 282.524 68.2332C281.835 68.2332 282.002 67.8399 282.002 67.4975C282.002 65.542 282.002 63.5911 282.002 61.6406C282.002 61.1861 281.903 61.0432 281.413 61.0481C278.4 61.0755 275.387 61.0755 272.374 61.0481C271.821 61.0481 271.758 61.237 271.764 61.6968C271.764 63.6728 271.764 65.6541 271.764 67.6305C271.764 68.0698 271.685 68.2332 271.185 68.2332C270.684 68.2332 270.601 68.0542 270.601 67.6153C270.601 62.9987 270.601 58.379 270.601 53.7559C270.601 53.2456 270.794 53.2046 271.227 53.184C271.659 53.1639 271.748 53.3474 271.748 53.7559C271.748 55.6814 271.748 57.6114 271.748 59.5418C271.748 59.9708 271.832 60.1035 272.269 60.0985C275.309 60.0985 278.348 60.0727 281.387 60.0985C281.909 60.0985 281.955 59.8994 281.955 59.4806C281.955 57.6217 281.955 55.768 281.955 53.9095C281.955 53.5059 281.862 53.1586 282.545 53.1688C283.227 53.1791 283.097 53.5724 283.097 53.9501C283.142 56.2107 283.163 58.4729 283.16 60.7365Z" fill="black"/>
<path d="M262.27 68.3609C260.462 68.3631 258.702 67.7859 257.261 66.7162C257.021 66.5274 256.739 66.3742 257.015 65.9657C257.292 65.5572 257.365 65.542 257.75 65.8278C258.711 66.5642 259.839 67.0616 261.038 67.2779C262.237 67.4937 263.472 67.4223 264.637 67.0689C265.107 66.9442 265.541 66.717 265.909 66.405C266.221 66.1553 266.468 65.8373 266.63 65.4763C266.793 65.1153 266.866 64.722 266.844 64.3283C266.821 63.9342 266.704 63.5512 266.502 63.2103C266.3 62.8691 266.018 62.5799 265.68 62.3656C264.669 61.7071 263.485 61.5026 262.338 61.2115C261.296 60.9889 260.279 60.6636 259.304 60.2414C258.678 59.9895 258.144 59.5585 257.772 59.0045C257.4 58.4505 257.207 57.7995 257.219 57.1364C257.169 56.4509 257.333 55.7669 257.687 55.1737C258.041 54.5805 258.571 54.1059 259.205 53.8122C261.811 52.5817 264.418 52.8523 266.957 54.1698C267.478 54.4354 267.145 54.6805 267.035 54.9868C266.858 55.4515 266.613 55.1144 266.425 54.9868C264.784 54.0702 262.855 53.7791 261.009 54.1698C260.579 54.253 260.167 54.4065 259.789 54.6242C259.335 54.861 258.959 55.2189 258.705 55.6563C258.45 56.0937 258.327 56.5926 258.35 57.0958C258.357 57.5639 258.503 58.0203 258.769 58.409C259.036 58.7978 259.412 59.1025 259.852 59.2865C261.066 59.9093 262.422 60.1137 263.73 60.461C264.532 60.6476 265.309 60.9273 266.045 61.2932C266.59 61.5729 267.052 61.9856 267.387 62.4914C267.721 62.9972 267.916 63.5793 267.953 64.1809C267.991 64.7824 267.868 65.3832 267.599 65.9251C267.329 66.4666 266.921 66.9309 266.415 67.2729C265.242 68.1412 263.855 68.335 262.27 68.3609Z" fill="black"/>
<path d="M179.334 68.3609C177.505 68.3814 175.721 67.8064 174.261 66.7265C174.079 66.5889 173.74 66.4662 173.923 66.1189C174.105 65.7715 174.204 65.4246 174.772 65.8532C176.81 67.3854 179.125 67.7122 181.596 67.0738C182.042 66.9571 182.457 66.75 182.816 66.4662C183.145 66.2196 183.409 65.8985 183.584 65.5302C183.758 65.162 183.84 64.7581 183.82 64.3522C183.801 63.9468 183.681 63.552 183.472 63.2012C183.263 62.8509 182.969 62.5552 182.618 62.3401C181.622 61.7071 180.465 61.5026 179.344 61.2169C178.268 60.9957 177.219 60.6617 176.216 60.2209C175.619 59.9689 175.11 59.5525 174.751 59.022C174.392 58.4915 174.198 57.8702 174.193 57.2337C174.149 56.5755 174.29 55.9181 174.603 55.3341C174.916 54.75 175.388 54.2625 175.966 53.9247C178.025 52.6532 182.008 52.8063 183.979 54.185C184.448 54.5171 184.083 54.7569 183.979 55.0225C183.806 55.4564 183.577 55.1042 183.421 55.0225C181.783 54.0983 179.852 53.8034 178.004 54.1952C177.549 54.2792 177.113 54.4418 176.717 54.6752C176.277 54.913 175.914 55.2661 175.668 55.6943C175.421 56.1226 175.3 56.6094 175.32 57.1007C175.322 57.5681 175.462 58.0249 175.724 58.4155C175.986 58.8061 176.358 59.1139 176.795 59.3017C178.015 59.9298 179.37 60.1342 180.673 60.4812C181.502 60.6716 182.304 60.9596 183.061 61.3392C183.591 61.6208 184.04 62.0289 184.366 62.526C184.691 63.0234 184.883 63.593 184.923 64.1824C184.963 64.7718 184.85 65.3615 184.595 65.8966C184.34 66.4316 183.95 66.8944 183.462 67.2425C182.269 68.1256 180.861 68.3248 179.334 68.3609Z" fill="black"/>
<path d="M288.581 60.7365C288.581 63.0245 288.581 65.3326 288.581 67.5948C288.581 67.993 288.581 68.2586 288.029 68.2279C287.575 68.2024 287.419 68.1256 287.419 67.6408C287.44 63.0143 287.44 58.3912 287.419 53.7715C287.419 53.3015 287.554 53.1943 288.023 53.1738C288.493 53.1536 288.587 53.3934 288.581 53.8019C288.576 56.11 288.581 58.4235 288.581 60.7365Z" fill="black"/>
<path d="M17.9907 8.17042V8.27256C17.8575 8.40062 17.689 8.4876 17.5059 8.52275C17.5788 8.25721 17.8239 8.25212 17.9907 8.17042Z" fill="#D9641F"/>
<path d="M384.16 60.6548C383.845 60.773 383.504 60.8118 383.169 60.7673C383.167 60.7267 383.167 60.6856 383.169 60.6446L384.16 60.6548Z" fill="black"/>
<path d="M226.67 29.5309C226.487 26.5895 225.601 23.878 223.589 21.6158C220.94 18.6438 217.468 17.4233 213.553 17.3416C209.737 17.2651 205.921 17.3416 202.084 17.3059C201.516 17.3059 201.417 17.4591 201.422 17.9749C201.422 22.1673 201.422 26.3546 201.422 30.5471C201.422 34.7395 201.422 39.0237 201.422 43.2622C201.422 43.8087 201.568 43.9466 202.105 43.9109C202.876 43.8649 203.669 43.9109 204.435 43.9109C208.006 43.8444 211.593 44.1404 215.149 43.7574C219.512 43.2877 222.968 41.3064 225.09 37.4204C226.369 34.9904 226.917 32.2542 226.67 29.5309ZM219.235 33.5599C218.863 34.7667 218.117 35.8304 217.101 36.6043C216.085 37.3781 214.849 37.8239 213.563 37.88C212 37.9617 210.404 37.88 208.825 37.9259C208.303 37.9259 208.387 37.6298 208.387 37.3285V30.5368C208.387 28.3257 208.387 26.1095 208.387 23.8984C208.387 23.449 208.481 23.2805 208.981 23.2958C210.394 23.3367 211.801 23.2958 213.214 23.3265C214.611 23.3138 215.972 23.7595 217.08 24.5923C218.188 25.4252 218.98 26.5975 219.329 27.9223C219.885 29.767 219.852 31.7339 219.235 33.5599Z" fill="black"/>
<path d="M173.286 43.5328C169.78 34.9369 166.275 26.3393 162.771 17.74C162.731 17.5955 162.637 17.471 162.508 17.3907C162.379 17.3105 162.224 17.2802 162.073 17.3059C160.181 17.3059 158.278 17.3365 156.385 17.3059C156.187 17.2778 155.986 17.3237 155.821 17.4343C155.655 17.545 155.539 17.7124 155.494 17.9034C152.053 26.4142 148.605 34.908 145.151 43.385C145.088 43.5328 144.906 43.6913 145.062 43.8953C147.22 43.8953 149.389 43.8953 151.552 43.8953C151.954 43.8953 152.074 43.7319 152.204 43.385C152.726 42.001 153.247 40.622 153.737 39.2331C153.862 38.8911 153.993 38.7224 154.436 38.7224C157.564 38.7463 160.678 38.7463 163.778 38.7224C163.941 38.7003 164.107 38.741 164.24 38.8364C164.373 38.9318 164.464 39.0739 164.492 39.2331C165.013 40.622 165.535 42.001 166.025 43.385C166.118 43.64 166.165 43.8953 166.587 43.8953C168.845 43.8953 171.102 43.8953 173.412 43.8953C173.359 43.7475 173.328 43.64 173.286 43.5328ZM161.609 33.2229C159.909 33.182 158.21 33.2229 156.516 33.2229C156.187 33.2229 155.937 33.2535 156.114 32.7786C157.1 30.1641 158.064 27.5445 159.034 24.9197C159.32 25.0167 159.3 25.2771 159.367 25.461C160.259 27.8355 161.129 30.2254 162.021 32.6101C162.208 33.0339 162.245 33.2331 161.609 33.2229Z" fill="black"/>
<path d="M320.564 29.3624C320.153 22.3103 314.913 17.3876 307.698 17.3212C304.534 17.2906 301.375 17.3212 298.21 17.2957C297.647 17.2957 297.491 17.4234 297.491 17.9953C297.522 22.1877 297.491 26.3802 297.491 30.5726C297.491 34.765 297.491 39.0545 297.491 43.293C297.491 43.7065 297.522 43.9212 298.054 43.9212C301.411 43.8904 304.774 44.0127 308.12 43.8752C313.334 43.6605 317.238 41.322 319.417 36.5523C320.39 34.2824 320.784 31.8147 320.564 29.3624ZM314.778 38.7737C312.882 40.5259 310.367 41.4888 307.761 41.4595C305.404 41.5108 303.043 41.4595 300.687 41.4595C300.191 41.4595 300.097 41.3166 300.103 40.8675C300.103 37.4357 300.103 34.0093 300.103 30.5777C300.103 27.1461 300.103 23.7707 300.103 20.3647C300.103 19.8541 300.233 19.6957 300.775 19.706C302.939 19.7417 305.102 19.706 307.266 19.706C313.438 19.706 317.692 23.6329 318.036 29.6841C318.224 33.1616 317.405 36.3021 314.778 38.7737Z" fill="black"/>
<path d="M267.609 43.2113L262.369 35.2348C262.208 34.9897 262.02 34.811 262.484 34.6221C265.873 33.2586 267.437 30.639 267.65 27.1717C267.828 24.3325 267.197 21.7128 264.96 19.7009C263.032 17.9647 260.654 17.3672 258.116 17.3263C255.149 17.2804 252.183 17.3263 249.217 17.2957C248.627 17.2957 248.455 17.4132 248.455 18.0259C248.481 26.0023 248.455 33.9787 248.455 41.955C248.455 42.5881 248.169 43.4564 248.586 43.7935C249.003 44.1302 249.837 43.8547 250.483 43.9158C251.005 43.9618 251.067 43.7475 251.062 43.3132C251.062 40.9336 251.062 38.554 251.036 36.1642C251.036 35.5412 251.218 35.4493 251.797 35.4442C254.299 35.4442 256.807 35.5719 259.304 35.3625C259.679 35.3319 259.752 35.5923 259.888 35.7965C261.217 37.8136 262.531 39.8358 263.871 41.8479C264.33 42.5372 264.595 43.5328 265.325 43.8189C266.055 44.1047 267.046 43.8752 268.02 43.8699L267.609 43.2113ZM258.746 32.9982C256.322 33.1207 253.887 33.0288 251.448 33.0646C250.927 33.0646 251.062 32.7633 251.062 32.5028C251.062 30.4603 251.062 28.4177 251.062 26.375C251.062 24.3733 251.062 22.3767 251.062 20.3749C251.062 19.9103 251.124 19.7162 251.672 19.7315C254.174 19.8183 256.682 19.5834 259.174 19.8592C263.913 20.3698 265.508 23.7912 264.992 27.5751C264.538 30.8943 262.312 32.8348 258.751 33.0084L258.746 32.9982Z" fill="black"/>
<path d="M365.387 43.2113L360.153 35.2348C359.992 34.9897 359.799 34.8059 360.263 34.6221C363.657 33.2586 365.21 30.6288 365.429 27.1768C365.611 24.3325 364.976 21.7179 362.739 19.706C360.815 17.9697 358.433 17.3723 355.894 17.3315C352.928 17.2855 349.961 17.3315 347 17.3008C346.406 17.3008 346.234 17.4182 346.234 18.031C346.26 26.0329 346.234 34.0297 346.234 42.0314C346.234 42.6444 345.958 43.4511 346.365 43.8034C346.771 44.156 347.522 43.8493 348.121 43.9212C348.721 43.9926 348.856 43.7422 348.846 43.1756C348.814 40.8416 348.846 38.5081 348.846 36.1744C348.846 35.6638 348.914 35.4595 349.529 35.4595C352.052 35.4595 354.58 35.5872 357.109 35.3778C357.479 35.3472 357.552 35.6076 357.687 35.8118C359.017 37.8289 360.336 39.851 361.67 41.8631C362.129 42.5524 362.395 43.5484 363.13 43.8341C363.865 44.1203 364.845 43.8904 365.82 43.8851C365.643 43.6042 365.517 43.4051 365.387 43.2113ZM356.478 32.9982C354.08 33.1054 351.672 33.0288 349.263 33.0595C348.788 33.0595 348.851 32.8041 348.851 32.5182C348.851 30.4756 348.851 28.433 348.851 26.3904C348.851 24.3478 348.851 22.3052 348.851 20.2626C348.851 20.0226 348.752 19.7519 349.205 19.7519C351.812 19.8234 354.419 19.5834 356.999 19.8796C361.639 20.3902 363.255 23.7094 362.781 27.4934C362.364 30.8739 360.091 32.8552 356.478 33.0135V32.9982Z" fill="black"/>
<path d="M294.879 43.2725C291.47 35.1906 288.056 27.0951 284.64 18.9859C283.931 17.3161 283.931 17.3468 282.102 17.2957C281.497 17.2957 281.283 17.5 281.059 18.0055C278.233 24.7733 275.397 31.5377 272.551 38.2987C271.769 40.1576 270.987 42.0215 270.195 43.9158C270.977 43.9158 271.68 43.8851 272.384 43.9158C272.812 43.9158 272.968 43.773 273.109 43.4051C273.932 41.3626 274.787 39.3201 275.606 37.2774C275.651 37.1111 275.758 36.967 275.905 36.8728C276.052 36.7785 276.23 36.7408 276.404 36.7668C280.574 36.7668 284.755 36.7668 288.946 36.7668C289.112 36.7453 289.28 36.786 289.416 36.8807C289.553 36.9754 289.647 37.1171 289.682 37.2774C290.276 38.7839 290.896 40.28 291.517 41.7711C291.819 42.4962 291.955 43.5024 292.512 43.8136C293.07 44.1252 294.113 43.9056 294.936 43.9109C294.997 43.9025 295.056 43.8889 295.113 43.8699C295.036 43.6605 294.963 43.4667 294.879 43.2725ZM276.789 34.4535L282.654 20.2524L288.514 34.4535H276.789Z" fill="black"/>
<path d="M251.578 67.0635C251.099 66.6653 250.713 66.1648 250.265 65.7309C250.206 65.6906 250.156 65.6389 250.119 65.5789C250.082 65.5192 250.058 65.4523 250.048 65.3828C250.038 65.3133 250.043 65.2426 250.062 65.1753C250.082 65.1077 250.115 65.0446 250.16 64.9903C250.609 64.1482 250.949 63.2544 251.172 62.3299C251.302 61.8651 251.015 61.8499 250.713 61.7169C250.254 61.5231 250.285 61.8754 250.239 62.0897C250.035 62.9831 249.701 63.843 249.248 64.6433C247.804 63.1522 246.391 61.6763 244.963 60.2209C244.697 59.945 244.838 59.8584 245.082 59.7102C246.055 59.2082 246.919 58.5268 247.627 57.7034C247.922 57.353 248.126 56.9373 248.221 56.4923C248.316 56.0477 248.299 55.5868 248.171 55.1498C248.043 54.7128 247.808 54.3126 247.488 53.9847C247.166 53.6564 246.769 53.4098 246.328 53.2657C245.212 52.8892 243.992 52.9424 242.914 53.4139C242.395 53.6199 241.951 53.9729 241.639 54.4278C241.327 54.883 241.161 55.4188 241.162 55.9672C241.089 57.3766 241.871 58.403 242.778 59.353C243.086 59.6744 243.138 59.8173 242.695 60.0628C241.822 60.5386 241.029 61.1431 240.344 61.8549C238.368 63.9639 239.025 66.9207 241.772 67.8653C244.415 68.7694 246.902 68.422 249.013 66.4867C249.331 66.1956 249.467 66.226 249.728 66.5171C250.317 67.176 250.942 67.8042 251.531 68.4167C252.277 67.9725 252.172 67.5537 251.578 67.0635ZM242.195 56.4627C242.195 55.1502 242.716 54.3841 243.716 54.0573C244.32 53.8601 244.967 53.8262 245.588 53.9604C245.94 54.0238 246.269 54.1747 246.544 54.3989C246.819 54.6227 247.03 54.9123 247.158 55.2395C247.286 55.5666 247.325 55.9204 247.274 56.267C247.221 56.6135 247.079 56.9411 246.86 57.2181C246.203 58.1069 245.218 58.6123 244.29 59.174C244.18 59.2405 244.05 59.2811 243.957 59.174C243.123 58.3061 242.221 57.4788 242.179 56.4627H242.195ZM248.383 65.8434C247.843 66.3735 247.198 66.7903 246.488 67.0689C245.778 67.347 245.018 67.4808 244.254 67.4618C243.425 67.4625 242.607 67.279 241.861 66.9256C241.483 66.744 241.152 66.4821 240.89 66.1595C240.629 65.8365 240.445 65.4607 240.35 65.059C240.256 64.6574 240.254 64.2405 240.345 63.8381C240.436 63.4357 240.617 63.0583 240.876 62.7334C241.631 61.8617 242.547 61.1378 243.576 60.599C243.805 60.4557 243.915 60.5579 244.061 60.7061C245.51 62.2075 246.959 63.7138 248.424 65.1996C248.669 65.4706 248.575 65.6237 248.367 65.8434H248.383Z" fill="black"/>
<path d="M210.941 53.0514C206.375 53.0514 202.96 56.3042 202.939 60.6704C202.918 65.0362 206.349 68.3301 210.947 68.3301C215.545 68.3301 218.918 65.0925 218.944 60.7164C218.97 56.3399 215.545 53.0514 210.941 53.0514ZM210.915 67.3497C210.014 67.3732 209.117 67.2174 208.279 66.8914C207.441 66.5654 206.679 66.0755 206.04 65.4527C205.401 64.8295 204.898 64.0855 204.561 63.2662C204.224 62.4465 204.061 61.5687 204.081 60.6856C204.081 56.8609 207.037 54.047 211.004 54.047C211.896 54.0527 212.778 54.2306 213.599 54.5699C214.421 54.9096 215.166 55.4044 215.792 56.0261C216.419 56.6477 216.914 57.3842 217.25 58.1932C217.586 59.0022 217.756 59.8682 217.75 60.7419C217.744 61.6151 217.563 62.4788 217.216 63.2837C216.87 64.0885 216.364 64.8185 215.73 65.4322C215.095 66.0459 214.343 66.5308 213.517 66.8599C212.691 67.1889 211.807 67.3554 210.915 67.3497Z" fill="black"/>
<path d="M228.828 53.3425C226.56 53.0104 224.266 53.2657 221.988 53.1894C221.467 53.1894 221.623 53.5264 221.623 53.7765C221.623 56.0846 221.623 58.3726 221.623 60.7008C221.623 63.0295 221.623 65.2969 221.623 67.6305C221.623 68.0952 221.748 68.2127 222.223 68.2279C222.697 68.2431 222.791 68.0185 222.786 67.605C222.786 66.3947 222.786 65.1795 222.786 63.9639C222.786 63.4532 222.885 63.3357 223.406 63.3308C225.226 63.3308 227.055 63.5045 228.864 63.1929C230.798 62.8661 232.342 61.9826 233.035 60.0575C234.104 56.8404 232.263 53.8532 228.828 53.3425ZM231.872 59.8276C231.19 61.6303 229.631 62.1919 227.884 62.3044C226.32 62.4066 224.725 62.3044 223.146 62.3553C222.713 62.3553 222.76 62.1308 222.76 61.8446C222.76 60.6294 222.76 59.4191 222.76 58.2038C222.76 56.9886 222.76 55.819 222.76 54.6292C222.76 54.3894 222.713 54.1546 223.109 54.1747C224.949 54.2461 226.805 54.0166 228.64 54.318C231.466 54.7926 232.863 57.1927 231.872 59.8276Z" fill="black"/>
<path d="M300.52 53.4345C299.101 53.0822 297.668 53.2353 296.427 53.1943C295.186 53.1536 294.295 53.1943 293.299 53.1943C292.919 53.1943 292.778 53.2863 292.804 53.6693C292.804 58.3604 292.804 63.05 292.804 67.7377C292.804 68.2792 293.091 68.2024 293.435 68.2484C293.779 68.2944 293.982 68.1769 293.956 67.7377C293.925 66.5939 293.956 65.4501 293.956 64.3112C293.956 63.3616 293.956 63.3768 294.884 63.3563C296.61 63.3205 298.335 63.4893 300.05 63.2134C302.657 62.7946 304.346 61.0535 304.455 58.6481C304.602 55.9109 303.225 54.1287 300.52 53.4345ZM303.126 59.7409C302.459 61.6151 300.858 62.1973 299.049 62.2942C297.486 62.3911 295.921 62.2942 294.384 62.3401C293.982 62.3401 293.967 62.1665 293.972 61.8705C293.972 60.6548 293.972 59.4396 293.972 58.2244C293.972 57.0091 293.972 55.8448 293.972 54.6497C293.972 54.4354 293.867 54.139 294.29 54.1747C296.135 54.2465 297.991 54.0166 299.826 54.3126C302.62 54.7774 304.054 57.1212 303.131 59.7459L303.126 59.7409Z" fill="black"/>
<path d="M34.4904 56.6819L33.3643 56.5136C31.3468 55.5229 29.4388 54.3434 27.463 53.2813L27.2545 53.184C26.8346 53.1058 26.4397 52.9306 26.1024 52.6737C24.3611 51.6982 22.6095 50.7433 20.8891 49.7576C20.6021 49.62 20.3411 49.4353 20.1176 49.2111C19.0851 48.5002 18.3268 47.4696 17.9645 46.2851C17.8726 45.9074 17.8271 45.5198 17.829 45.1311C17.829 40.5354 17.829 35.9395 17.829 31.3794C17.7562 30.4608 17.9885 29.5437 18.4911 28.7649C18.5581 28.6846 18.6295 28.608 18.7048 28.5351C18.8977 28.6781 18.8352 28.8874 18.856 29.0764C18.8747 29.5081 19.0002 29.9289 19.2218 30.3025C19.4434 30.6761 19.7544 30.9914 20.128 31.2211C23.1204 32.9318 26.0659 34.7242 29.1416 36.3123C30.4003 36.9866 31.8006 37.3675 33.234 37.4255C33.8821 37.4362 34.5252 37.3126 35.1212 37.063C37.9519 35.9855 40.7828 34.8927 43.6187 33.8254C43.8115 33.754 44.0931 33.565 44.2025 33.7642C44.3119 33.9633 43.9942 34.1063 43.8219 34.2237C41.7368 35.674 39.6202 37.16 37.4619 38.5388C36.6536 39.0378 35.9938 39.7366 35.549 40.565C35.1042 41.3934 34.8901 42.3221 34.9283 43.2573C34.897 47.5008 34.9283 51.7442 34.9283 55.9824C34.9283 56.2176 34.9908 56.4931 34.7928 56.6721L34.4904 56.6819Z" fill="#6B7280"/>
<path fill-rule="evenodd" clip-rule="evenodd" d="M34.7563 43.2011V56.6819C35.8633 56.8871 37.0084 56.7294 38.0145 56.2328C38.1067 56.1826 38.2051 56.1545 38.3043 56.1264C38.4071 56.0971 38.5107 56.0679 38.6088 56.0131C42.432 53.8312 46.2547 51.6709 50.0779 49.533C50.7118 49.1864 51.2588 48.7054 51.6781 48.1247C52.0979 47.5441 52.3791 46.8791 52.5021 46.178C52.5762 45.9333 52.6045 45.6771 52.5855 45.4222V35.9651V31.502C52.6127 30.7525 52.532 30.003 52.3454 29.2755C52.3101 29.1829 52.2756 29.0899 52.2407 28.9969C52.1227 28.6803 52.0048 28.3642 51.8554 28.0602C51.3395 26.998 50.3801 26.4874 49.4002 25.9768C47.9632 25.2201 46.5379 24.4433 45.113 23.6666C44.0571 23.0908 43.0007 22.5151 41.9401 21.9477C41.4462 21.6784 40.9524 21.4061 40.4585 21.1337C39.3882 20.5436 38.3183 19.9535 37.2482 19.3945C36.6149 19.1058 35.9239 18.9593 35.2255 18.9655H34.7667C34.6119 18.9598 34.4579 18.9914 34.3184 19.0575C34.1265 19.1256 33.928 19.1689 33.7294 19.2122C33.4965 19.2629 33.2635 19.3137 33.0411 19.4047C32.0721 19.8529 31.1351 20.3647 30.2364 20.9366C29.5982 21.2926 28.9713 21.6649 28.3462 22.0362C27.5723 22.4958 26.801 22.9539 26.0138 23.3776C25.9603 23.3683 25.9054 23.3708 25.8531 23.385C25.8009 23.3991 25.7524 23.4245 25.7114 23.4593C25.0902 23.8286 24.4639 24.1893 23.8376 24.5499C22.6717 25.2213 21.5058 25.8927 20.3731 26.6202C19.7658 26.9727 19.2724 27.486 18.9499 28.1011L18.7257 28.5198C18.6785 29.1289 18.8143 29.7382 19.1162 30.2726C19.4182 30.8071 19.8733 31.2433 20.4252 31.5275C21.7566 32.269 23.069 33.0313 24.3853 33.7958C25.1357 34.2316 25.8874 34.6682 26.6445 35.1021C28.0072 35.9728 29.4768 36.6711 31.0184 37.1804C32.3217 37.543 33.6146 37.7881 34.9283 37.2774L42.2268 34.4791L44.161 33.7437C44.1405 33.8289 44.0885 33.9035 44.0148 33.9531C41.7003 35.5191 39.3855 37.0919 37.0709 38.6715C36.7746 38.8577 36.5002 39.075 36.2525 39.3201C35.271 40.3818 34.7364 41.7685 34.7563 43.2011ZM34.4748 28.0296L26.0346 32.9012C26.2342 32.9952 26.4259 33.1044 26.608 33.228C26.7017 33.3044 26.8198 33.3463 26.9417 33.3463C27.0636 33.3463 27.1816 33.3044 27.2753 33.228L33.7241 29.5002L40.2196 25.7725C40.8826 25.3915 41.5432 25.0062 42.2019 24.6221C42.5585 24.4143 42.9142 24.2068 43.2695 24.0005C43.1714 23.8782 43.048 23.7778 42.9076 23.706C42.7668 23.6341 42.6124 23.5924 42.4541 23.5837C42.2954 23.575 42.1371 23.5995 41.9893 23.6555C41.8412 23.7115 41.7073 23.7978 41.596 23.9086C41.3461 24.0815 41.0827 24.2351 40.8088 24.3682C38.6992 25.5938 36.5878 26.8142 34.4748 28.0296Z" fill="black"/>
<path d="M34.7666 19.037C34.828 18.9784 34.9103 18.9455 34.996 18.9455C35.0817 18.9455 35.164 18.9784 35.2254 19.037H34.7666Z" fill="#EF7500"/>
</svg>
