<?xml version="1.0" encoding="utf-8"?>
<!-- Generator: Adobe Illustrator 27.3.1, SVG Export Plug-In . SVG Version: 6.00 Build 0)  -->
<svg version="1.1" id="Layer_1" xmlns="http://www.w3.org/2000/svg" xmlns:xlink="http://www.w3.org/1999/xlink" x="0px" y="0px"
	 viewBox="0 0 500 131.2" style="enable-background:new 0 0 500 131.2;" xml:space="preserve">
<g>
	<path d="M0,33.4c0,0.4,0.1,0.8,0.1,1.2c0,17.9,0,35.8,0,53.6C0.1,89.1,0,90,0,90.9C0,71.7,0,52.5,0,33.4z"/>
	<path d="M0,31.7c0.3,0.5,0.2,1,0,1.5C0,32.7,0,32.2,0,31.7z"/>
	<path d="M3.4,99.5c7.5-4,14.9-8,22.3-11.9c1.1,0.6,2.1,1.2,3.2,1.8c9.4,5.5,18.9,10.9,28.3,16.4c0.1,0.1,0.3,0.1,0.4,0.2
		c0.5,0.4,0.9,0.4,1.4,0c1.1-0.7,2.2-1.3,3.3-1.9C71.1,99,79.8,94,88.6,88.9c0.7-0.4,1.4-0.8,2.2-1.3c7.4,3.9,14.8,7.9,22.4,11.9
		c-18.3,10.6-36.6,21.2-54.8,31.7C40.1,120.7,21.8,110.1,3.4,99.5z"/>
	<path d="M254.1,51.9c3.7,6.1,7.5,12.1,11.2,18.3c-0.3,0-0.6,0-0.8,0c-5.6,0-11.3,0-16.9,0c-0.8,0-1.2-0.2-1.5-0.9
		c-2.1-4.4-4.3-8.8-6.4-13.2c-0.2-0.3-0.3-0.7-0.5-1c-3,0-5.9,0-8.8,0c0,5,0,10,0,14.9c-0.8,0.2-15.3,0.3-16.5,0.1
		c0-18.7,0-37.4,0-56.2c0.4,0,0.7-0.1,1.1-0.1c8.5,0,17,0,25.5,0c4,0,8,0.6,11.7,2.2c6.9,3,10.5,8.3,11.2,15.6
		c0.3,3.3,0,6.7-1.1,9.9c-1.4,4.2-3.9,7.5-7.6,9.8c-0.2,0.1-0.3,0.2-0.5,0.4C254.2,51.7,254.2,51.8,254.1,51.9z M230.4,42
		c0.3,0,0.4,0.1,0.6,0.1c3.2,0,6.3,0,9.5,0c0.7,0,1.5-0.1,2.2-0.3c2.4-0.6,3.9-2.1,4.7-4.5c0.5-1.7,0.5-3.4,0.1-5.2
		c-0.6-3-2.4-4.7-5.4-5.3c-0.6-0.1-1.2-0.2-1.9-0.2c-2.9,0-5.8,0-8.7,0c-0.3,0-0.7,0-1.1,0.1C230.4,31.9,230.4,36.9,230.4,42z"/>
	<path d="M0.5,91.7c0-20.3,0-40.4,0-60.7C18.3,20.8,36.2,10.4,54.2,0c0,0.6,0,1,0,1.5c0,7.4,0,14.9,0,22.3c0,0.7-0.2,1.2-0.9,1.6
		c-10.1,5.8-20.1,11.6-30.1,17.4c-0.9,0.5-1.3,1.1-1.2,2.2c0.1,2.5,0,4.9,0,7.4c0,9,0,18,0,27c0,0.8-0.3,1.2-0.9,1.5
		c-6.5,3.5-13.1,6.9-19.6,10.4C1.3,91.4,0.9,91.5,0.5,91.7z"/>
	<path d="M116.1,91.9c-1.1-0.6-2-1.1-2.9-1.5c-5.3-2.8-10.6-5.6-15.9-8.5c-0.7-0.4-1.5-0.8-2.2-1.1c-0.4-0.2-0.5-0.4-0.5-0.9
		c0-11.4,0-22.9,0-34.3c0-0.2,0-0.4,0-0.5c0.3-1.2-0.4-1.8-1.4-2.4C84.1,37.4,75.1,32.2,66,26.9c-1.2-0.7-2.4-1.4-3.7-2.1
		c0-8.2,0-16.4,0-24.8c0.3,0.2,0.6,0.3,0.9,0.4c9.5,5.5,18.9,10.9,28.4,16.4c7.5,4.4,15.1,8.7,22.6,13.1c0.3,0.2,0.6,0.4,0.9,0.5
		c0.7,0.3,0.9,0.7,0.9,1.5c0,19.7,0,39.5,0,59.2C116.1,91.4,116.1,91.5,116.1,91.9z"/>
	<path d="M400.2,48.4c0,3,0,5.9,0,8.9c3.3,0,6.6,0,9.9,0c3.3,0,6.6,0,9.9,0c3.3,0,6.6,0,10,0c0,4.3,0,8.5,0,12.8
		c-15.4,0-30.9,0-46.4,0c0-18.8,0-37.5,0-56.3c15.2,0,30.4,0,45.6,0c0,4.3,0,8.5,0,12.8c-9.6,0-19.3,0-29,0c0,3,0,5.8,0,8.7
		c0.3,0.3,0.8,0.1,1.2,0.1c7.2,0,14.3,0,21.5,0c0.9,0,1.7,0,2.6,0c0.3,0,0.7,0,1.1,0.1c0,4.3,0,8.5,0,12.8
		C417.8,48.4,409,48.4,400.2,48.4z"/>
	<path d="M490.3,50c3.3,3.6,6.5,6.9,9.7,10.4c-1.1,1.3-2.3,2.4-3.5,3.4c-4.2,3.3-9,5.7-14.2,6.9c-3.6,0.8-7.2,0.9-10.8,0.3
		c-5.4-0.8-10.2-2.9-14.4-6.4c-3.5-2.9-6.1-6.5-7.8-10.6c-3-7.2-3.3-14.5-0.9-21.9c2.1-6.3,6-11.2,11.7-14.7
		c6-3.7,12.5-5.1,19.4-4.5c6.3,0.6,11.9,3,16.9,6.7c1.3,0.9,2.5,2,3.6,3.3c-3.2,3.8-6.3,7.7-9.5,11.6c-0.2-0.3-0.4-0.5-0.6-0.7
		c-2.4-2.9-5.2-5.2-8.8-6.3c-4.8-1.5-11.1-0.3-14.7,5.4c-2.1,3.4-2.8,7.1-2.4,11.1c0.3,3.1,1.4,5.9,3.4,8.3
		c3.7,4.3,9.2,5.7,14.6,3.7c2.9-1.1,5.5-2.8,7.7-5C490,50.6,490.1,50.3,490.3,50z"/>
	<path d="M196.7,13.9c0,4.4,0,8.7,0,13.2c-0.4,0-0.8,0.1-1.2,0.1c-4.6,0-9.2,0-13.9,0c-0.4,0-0.7,0-1.2,0c0,14.3,0,28.6,0,42.9
		c-1.4,0.1-2.8,0.1-4.2,0.1c-1.4,0-2.8,0-4.2,0c-1.4,0-2.8,0-4.2,0c-1.4,0-2.8,0-4.2,0c0-14.4,0-28.6,0-43c-2.7-0.1-5.4,0-8.1,0
		c-2.7,0-5.3,0-8.1,0c0-4.4,0-8.8,0-13.2C148.4,13.7,195.1,13.7,196.7,13.9z"/>
	<path d="M350.2,70c-0.9,0.2-15.6,0.3-16.7,0c0-14.2,0-28.5,0-42.9c-5.4,0-10.7,0-16.1,0c0-4.4,0-8.8,0-13.2c0,0,0,0,0.1-0.1
		c0,0,0.1-0.1,0.1-0.1c15.7,0,31.5,0,47.2-0.1c0.5,0,0.9,0,1.4,0c0.1,0,0.2,0.1,0.3,0.1c0,4.3,0,8.7,0,13.2c-5.4,0-10.7,0-16.2,0
		C350.2,41.5,350.2,55.8,350.2,70z"/>
	<path d="M300.2,70c-0.7,0.2-14.8,0.3-16.4,0.1c0,0,0,0-0.1-0.1c0,0-0.1-0.1-0.1-0.1c0-18.6,0-37.2-0.1-55.7c0-0.1,0.1-0.2,0.1-0.4
		c5.5,0,10.9,0,16.5,0C300.2,32.6,300.2,51.3,300.2,70z"/>
	<path d="M433.5,95.8c0,7.3,0,14.6,0,22c-2.1,0-4.2,0-6.4,0c0-11.1,0-22.2,0-33.4c0.6,0,1.2,0,1.8,0c0.9,0,1.8-0.2,2.6,0.2
		c0.7,0.3,1.2,1.1,1.7,1.7c3.9,4.5,7.7,8.9,11.6,13.4c1.9,2.2,3.8,4.4,5.7,6.6c0.1,0.1,0.2,0.2,0.5,0.4c0.1-1.2-0.1-2.2-0.1-3.2
		c0-1.1,0-2.2,0-3.2c0-1,0-2.1,0-3.1c0-1,0-2.1,0-3.1c0-1,0-2.1,0-3.1c0-1.1,0-2.2-0.1-3.2c0-1,0-2.1,0-3.1c0.8-0.3,5.2-0.3,6.5-0.1
		c0,11,0,22.1,0,33.3c-0.7,0-1.5-0.1-2.2,0c-1.5,0.2-2.6-0.3-3.6-1.6c-5.7-6.7-11.5-13.4-17.3-20c-0.2-0.2-0.3-0.5-0.5-0.7
		C433.6,95.6,433.6,95.7,433.5,95.8z"/>
	<path d="M209.3,83.7c4.9-0.1,13.6,5.3,14.9,15.5c0.8,6-2,13.1-8.5,16.8c-3.5,2-7.2,3-11.1,2.4c-7.5-1-12.7-5-15-12.4
		c-1.8-5.8-0.6-11.2,3.3-15.9C196.5,85.9,201.1,83.8,209.3,83.7z M195.6,103.1c0,2.1,1.7,5.2,5,7.4c3.3,2.2,7,2.4,10.6,0.7
		c6.6-3,7.3-10.5,5.2-15c-3-6.4-10.3-7.8-15.3-4.8C197.4,93.5,195.6,96.9,195.6,103.1z"/>
	<path d="M392.2,83.8c8-0.1,15.7,5.2,17.5,14.2c1.5,7.6-2.6,15.5-9.8,18.8c-6.8,3.1-13.3,2.2-19.2-2.4c-3-2.3-4.8-5.6-5.7-9.2
		c-2-7.9,2.2-15.2,7.7-18.5C385.7,84.8,388.9,83.6,392.2,83.8z M392.3,112.3c1-0.2,2.1-0.2,3.1-0.5c6.1-1.9,9-7.7,7.4-13.9
		c-1.1-4.5-4.8-7.5-9.5-7.9c-3.3-0.3-6.3,0.6-8.6,3c-2.7,2.8-3.8,6-3.2,9.9C382.2,108.2,386.9,112.4,392.3,112.3z"/>
	<path d="M272.7,84.4c2.3,0,4.5,0,6.7,0c0,0.3,0.1,0.6,0.1,0.9c0,6.5,0,12.9,0,19.4c0,1.2,0.1,2.4,0.4,3.5c0.5,2.1,1.9,3.3,3.9,3.9
		c1.3,0.4,2.7,0.4,4,0c2.2-0.6,3.6-2,4-4.2c0.2-1.2,0.3-2.3,0.3-3.5c0-6.6,0-13.1,0-19.7c0,0,0-0.1,0-0.1c0.8-0.2,5.6-0.3,6.6,0
		c0,0.2,0,0.4,0,0.6c0,6.6,0,13.3,0,19.9c0,1.8-0.2,3.5-0.7,5.1c-1.1,3.5-3.4,5.9-6.8,7.3c-4,1.6-8,1.4-11.9-0.4
		c-3.9-1.8-5.9-5-6.6-9.2c-0.1-0.8-0.2-1.5-0.2-2.3c0-6.7,0-13.5,0-20.2C272.7,85.1,272.7,84.8,272.7,84.4z"/>
	<path d="M473.4,111.3c1.5-1.2,3-2.2,4.5-3.4c0.2,0.3,0.3,0.5,0.5,0.7c0.6,0.7,1.1,1.6,1.7,2.2c1.8,1.7,4,2.2,6.4,1.7
		c2.9-0.6,4-4.4,1.9-6.8c-0.8-0.9-1.8-1.5-2.8-2.1c-1.2-0.7-2.5-1.2-3.8-1.8c-1.4-0.7-2.7-1.4-3.9-2.4c-4.1-3.5-3.8-9.6,0.1-13
		c1.9-1.7,4.1-2.6,6.6-2.7c1.6-0.1,3.2,0,4.7,0.5c2.4,0.7,4.9,2.6,6.1,4.7c-1.4,1.2-2.7,2.5-4.1,3.8c-0.4-0.4-0.6-0.8-1-1.2
		c-1.6-1.8-3.6-2.3-5.9-1.9c-0.8,0.1-1.4,0.5-2,1.1c-1.1,1.1-1.2,2.7-0.1,3.9c0.6,0.6,1.3,1.2,2,1.6c1.2,0.7,2.6,1.2,3.8,1.9
		c1.2,0.6,2.5,1.3,3.6,2c5.3,3.4,5.5,11.2,1.5,15.3c-1.1,1.1-2.4,1.9-3.9,2.3c-5.2,1.6-9.9,0.7-13.9-3.1
		C474.7,113.7,474,112.5,473.4,111.3z"/>
	<path d="M150.8,111.2c1.5-1.1,2.9-2.2,4.4-3.3c0.5,0.7,0.9,1.4,1.4,2c1.6,2.1,3.8,3,6.4,2.7c1.6-0.1,2.8-0.8,3.4-2.4
		c0.6-1.6,0.5-3.2-0.7-4.5c-0.7-0.8-1.6-1.4-2.5-2c-0.9-0.6-2-1-3-1.4c-1.2-0.6-2.4-1.2-3.6-1.9c-2.6-1.6-4.2-3.9-4.3-7.1
		c-0.1-2.7,0.8-5,2.8-6.8c1.9-1.8,4.2-2.7,6.8-2.8c2.7-0.1,5.3,0.3,7.6,1.8c1.3,0.8,2.6,2.2,3.3,3.4c-1.3,1.2-2.7,2.5-4.1,3.8
		c-0.2-0.3-0.5-0.6-0.7-0.9c-1.6-2-3.7-2.7-6.2-2.2c-1.6,0.3-2.7,1.6-2.7,3.1c0,0.8,0.3,1.5,0.8,2c0.5,0.5,1.1,1,1.7,1.3
		c1.2,0.6,2.4,1.1,3.6,1.7c1.4,0.7,2.7,1.4,4,2.2c2.7,1.8,4.1,4.4,4.3,7.6c0.3,5.3-2.7,9.3-7.8,10.5c-4,0.9-7.8,0.2-11.2-2.2
		C152.8,114.7,151.4,113,150.8,111.2z"/>
	<path d="M335.5,84.6c0,1.9,0,3.8,0,5.9c-2.4,0.1-4.9,0-7.4,0.1c0,9.1,0,18.1,0,27.2c-2.2,0-4.4,0-6.7,0c0-1.2,0-2.5,0-3.8
		c0-1.3,0-2.6,0-4c0-1.3,0-2.6,0-3.9c0-1.3,0-2.6,0-3.9c0-1.3,0-2.6,0-3.9c0-1.3,0-2.6,0-4c0-1.3,0-2.6,0-4c-2.5,0-5,0-7.5,0
		c0-2.1,0-4,0-6C314.9,84.3,334.6,84.3,335.5,84.6z"/>
	<path d="M241.3,84.4c2.2,0,4.3,0,6.6,0c0.1,9.1,0,18.1,0,27.2c3.3,0,6.5,0,9.8,0c0.2,1.1,0.1,2.1,0.1,3.1c0,1,0,2,0,3
		c-0.8,0.2-14.9,0.3-16.5,0.1C241.3,106.7,241.3,95.6,241.3,84.4z"/>
	<path d="M357.5,84.5c0,11.1,0,22.1,0,33.2c-0.7,0.2-4.8,0.3-6.5,0.1c0-11,0-22.1,0-33.2C351.6,84.3,355.8,84.2,357.5,84.5z"/>
</g>
</svg>
