<svg width="375" height="78" viewBox="0 0 375 78" fill="none" xmlns="http://www.w3.org/2000/svg">
<g clip-path="url(#clip0_1_449)">
<path d="M39.9149 0.5625L42.2212 0.838639C46.2612 1.32623 50.1907 2.48415 53.8462 4.26426C59.9377 7.19304 65.1204 11.7057 68.8462 17.3249C68.9324 17.4518 69.0112 17.5861 69.1387 17.7876C68.6137 17.8361 68.1487 17.8846 67.6837 17.922C65.6836 18.0812 63.6837 18.2354 61.6837 18.3847C61.5091 18.3885 61.3353 18.362 61.1699 18.3063C58.6499 17.6085 56.1299 16.9144 53.6174 16.1905C53.3394 16.1038 53.0956 15.9329 52.9199 15.7017C49.6902 11.1207 45.4162 7.36622 40.4474 4.74564C37.4099 3.11966 34.1313 1.98595 30.7349 1.38719C30.6112 1.3648 30.4874 1.32375 30.2324 1.25658C30.6074 1.17448 30.8699 1.11105 31.1324 1.06254C31.3949 1.01403 31.6649 0.969246 31.9312 0.939394C32.9024 0.842372 33.8624 0.745349 34.8262 0.640864C34.9329 0.622237 35.0382 0.59605 35.1412 0.5625H39.9149Z" fill="black"/>
<path d="M0 35.5314C0.0975 34.7031 0.18375 33.8747 0.3 33.0499C0.320867 32.8335 0.401314 32.6269 0.5325 32.4529C5.29642 26.9121 10.9444 22.1893 17.25 18.4742C17.2976 18.4599 17.3466 18.4511 17.3962 18.4481C17.3897 18.5808 17.3747 18.7129 17.3512 18.8437C16.6986 21.3482 16.3498 23.9214 16.3125 26.5084C16.3125 27.7547 16.3462 29.0049 16.4137 30.24C16.4362 30.6131 16.215 30.6953 15.9788 30.8147C13.1802 32.2478 10.4983 33.8959 7.9575 35.7442C5.05125 37.8786 2.3625 40.2296 0.375 43.476L0 40.1848V35.5314Z" fill="black"/>
<path d="M53.1187 22.8178C53.3962 24.1687 53.6662 25.4784 53.9437 26.8331C52.8187 27.1689 51.6937 27.4972 50.5687 27.8331C42.375 30.2886 34.3387 33.1768 26.6962 37.0539C22.3687 39.2481 18.18 41.6775 14.4675 44.8232C13.2487 45.8531 12.2175 47.0621 11.0925 48.2152C10.9522 48.3401 10.862 48.5113 10.8386 48.6971C10.8151 48.8829 10.86 49.071 10.965 49.2264C15.2962 58.1824 22.275 63.9253 32.07 65.7688C42.8662 67.8024 52.1587 64.6492 59.5687 56.4846C63.2512 52.4282 65.4337 47.592 66.3187 42.1776C66.7097 39.6105 66.8015 37.0072 66.5925 34.4194C66.57 34.1284 66.4425 34.0462 66.1762 34.0462C65.0025 34.0052 63.825 33.9268 62.6512 33.912C60.33 33.8784 58.005 33.7926 55.6875 33.882C52.785 33.9977 49.8787 34.1917 46.9912 34.4904C44.6962 34.7291 42.42 35.1769 40.095 35.5352C41.3887 34.9307 42.6487 34.3001 43.9387 33.7402C49.6149 31.3279 55.5073 29.4538 61.5375 28.1428C64.1625 27.5496 66.7875 27.0234 69.4125 26.5682C70.5787 26.3629 71.7825 26.3704 73.0275 26.277C73.47 28.0198 73.9237 29.7101 74.325 31.4117C74.8633 33.7571 75.1063 36.1601 75.0487 38.5652C74.865 48.2265 71.5312 56.6636 64.9237 63.7611C59.6889 69.4541 52.7914 73.3695 45.2025 74.9559C41.7174 75.7057 38.141 75.9457 34.5862 75.6686C27.974 75.2205 21.6092 72.9902 16.1737 69.2167C9.59724 64.7477 4.64872 58.2827 2.06623 50.7862C1.36873 48.8122 1.79623 46.9539 2.74498 45.1888C3.79873 43.2111 5.33248 41.6252 7.00498 40.1773C10.6387 37.0279 14.7337 34.5799 19.0537 32.5014C27.2812 28.5309 35.9475 25.8816 44.9025 24.1425C47.5012 23.6389 50.1262 23.2656 52.74 22.8328C52.8658 22.8202 52.9924 22.8154 53.1187 22.8178Z" fill="black"/>
<path d="M305.801 52.3796C297.499 52.4357 289.399 45.8158 289.519 36.0353C289.62 28.0086 296.07 19.9894 305.794 19.9894C307.95 19.9866 310.084 20.4103 312.075 21.2357C314.065 22.0611 315.87 23.2717 317.385 24.7974C318.9 26.3229 320.096 28.1331 320.903 30.1224C321.711 32.1118 322.112 34.2409 322.084 36.3861C321.99 45.0546 314.903 52.4543 305.801 52.3796ZM305.824 26.3443C303.865 26.3333 301.946 26.9006 300.311 27.9746C298.676 29.0486 297.398 30.5811 296.638 32.3779C295.879 34.1749 295.673 36.1556 296.044 38.0698C296.415 39.9838 297.349 41.7452 298.727 43.1308C300.105 44.5166 301.866 45.4646 303.786 45.855C305.704 46.2452 307.697 46.0603 309.51 45.3234C311.325 44.5868 312.878 43.3311 313.975 41.7158C315.071 40.1003 315.662 38.1973 315.671 36.2479C315.671 30.837 311.201 26.3443 305.824 26.3443Z" fill="black"/>
<path d="M326.07 20.34H339.09C341.43 20.3831 343.68 21.2473 345.442 22.7799C347.205 24.3128 348.367 26.4156 348.724 28.7175C349.039 30.7581 348.697 32.8455 347.749 34.6807C346.798 36.5162 345.289 38.0053 343.436 38.9347L343.249 39.0429L352.594 52.0476C352.414 52.0476 352.294 52.0736 352.177 52.0736C349.856 52.0736 347.531 52.0736 345.21 52.0736C345.079 52.0826 344.947 52.0551 344.831 51.9937C344.713 51.9324 344.617 51.8398 344.55 51.7267C341.857 47.9452 339.163 44.1653 336.469 40.3864C336.392 40.2527 336.279 40.1436 336.142 40.0716C336.005 39.9996 335.85 39.9677 335.696 39.9795C334.616 40.0093 333.536 39.9795 332.4 39.9795V52.0252H326.07V20.34ZM332.411 33.6396C334.556 33.6396 336.656 33.6954 338.749 33.6097C339.491 33.5469 340.207 33.3144 340.845 32.9304C341.338 32.6464 341.747 32.2369 342.028 31.7439C342.311 31.2512 342.455 30.6926 342.45 30.1256C342.444 29.5584 342.287 29.0033 341.994 28.5165C341.702 28.0297 341.284 27.6291 340.785 27.3555C339.934 26.8894 338.974 26.6574 338.002 26.6839C336.285 26.6839 334.567 26.6839 332.85 26.6839C332.711 26.6839 332.572 26.6839 332.411 26.7099V33.6396Z" fill="black"/>
<path d="M130.301 39.0392L139.642 52.0363C139.459 52.0363 139.342 52.0626 139.222 52.0626C136.901 52.0626 134.576 52.0626 132.255 52.0626C132.123 52.0708 131.992 52.0425 131.876 51.9804C131.76 51.9184 131.664 51.8254 131.599 51.7118C128.921 47.9627 126.245 44.2136 123.57 40.4648C123.477 40.3048 123.341 40.1745 123.177 40.0886C123.013 40.0028 122.828 39.9649 122.644 39.9795C121.597 40.0131 120.547 39.9795 119.445 39.9795V52.0588H113.119V20.34H126.289C130.736 20.34 135.007 23.9634 135.686 28.3519C136.339 32.55 134.966 35.9346 131.434 38.3936C131.096 38.625 130.721 38.7966 130.301 39.0392ZM119.464 33.6396C121.507 33.6396 123.499 33.6806 125.486 33.6171C126.165 33.5805 126.832 33.4226 127.455 33.1507C128.064 32.9263 128.586 32.5176 128.95 31.9821C129.313 31.4466 129.498 30.8111 129.48 30.1654C129.514 29.5224 129.341 28.8855 128.984 28.3481C128.628 27.8106 128.108 27.4012 127.5 27.1802C126.862 26.9016 126.178 26.7398 125.482 26.7024C123.544 26.6353 121.601 26.6726 119.659 26.6689C119.593 26.6762 119.528 26.6886 119.464 26.7062V33.6396Z" fill="black"/>
<path d="M40.545 9.76839C33.795 9.74973 27.3788 11.1901 21.075 13.8508C21.4088 13.0037 21.6788 12.2723 21.9825 11.5558C23.4178 8.226 25.2523 5.08106 27.4463 2.18948C27.6904 1.9391 27.9938 1.75386 28.3286 1.65082C28.6635 1.54779 29.019 1.53027 29.3625 1.59989C35.7744 3.59705 41.6141 7.08978 46.395 11.7872C48.7693 14.1333 50.8391 16.7659 52.5563 19.6236C52.605 19.7019 52.65 19.7841 52.7363 19.9371C40.9725 21.5154 29.625 24.4447 18.7838 29.4339C18.7838 28.113 18.7463 26.8667 18.7838 25.6239C18.8916 22.7959 19.3104 19.9879 20.0325 17.2503C20.0616 17.115 20.1221 16.9885 20.2093 16.8808C20.2967 16.7732 20.4083 16.6876 20.535 16.6308C26.3852 13.645 32.6179 11.468 39.06 10.1602C39.54 10.0595 40.0163 9.95124 40.4963 9.84675C40.5 9.84302 40.5188 9.82063 40.545 9.76839Z" fill="black"/>
<path d="M209.438 20.34H215.79V20.9372C215.79 26.8753 215.79 32.8136 215.79 38.7519C215.739 40.0511 215.981 41.3452 216.499 42.5394C217.556 44.7784 219.784 46.1889 222.079 46.0472C223.311 45.9763 224.488 45.5252 225.45 44.7568C226.412 43.9882 227.109 42.9407 227.445 41.7596C227.691 40.9434 227.816 40.0963 227.82 39.2445C227.854 33.147 227.839 27.0495 227.839 20.9595V20.3587H234.214V20.8027C234.214 27.3107 234.27 33.8224 234.214 40.3303C234.154 46.0547 230.723 50.7079 225.158 51.9842C220.808 52.9806 216.739 52.3237 213.3 49.2787C211.159 47.3869 210.004 44.9351 209.618 42.1327C209.486 41.0657 209.426 39.9911 209.438 38.916C209.423 32.9306 209.423 26.9451 209.438 20.9595V20.34Z" fill="black"/>
<path d="M272.055 39.9907V52.0363H265.714V20.34H278.805C283.286 20.34 287.468 23.8104 288.285 28.2101C288.808 30.7461 288.302 33.3847 286.879 35.5513C285.454 37.7181 283.228 39.2372 280.684 39.7781C279.954 39.9319 279.21 40.0093 278.464 40.0095C276.521 40.0431 274.583 40.0095 272.64 40.0095L272.055 39.9907ZM272.089 26.6839V33.6246C272.158 33.6375 272.228 33.6461 272.299 33.6508C274.208 33.6508 276.116 33.6508 278.025 33.6508C278.985 33.6499 279.923 33.357 280.71 32.8112C281.363 32.3589 281.826 31.6849 282.011 30.9163C282.199 30.1476 282.096 29.3376 281.723 28.6391C281.438 28.1226 281.029 27.6849 280.53 27.3662C280.033 27.0474 279.463 26.8579 278.873 26.8144C277.781 26.7143 276.686 26.6719 275.591 26.6876C274.433 26.6576 273.274 26.6839 272.089 26.6839Z" fill="black"/>
<path d="M160.185 39.9907V52.029H153.844V20.34H166.875C169.35 20.3783 171.72 21.3397 173.516 23.0344C175.312 24.729 176.403 27.033 176.572 29.4902C176.742 31.9472 175.978 34.3781 174.433 36.3015C172.887 38.2247 170.671 39.5002 168.225 39.8751C167.676 39.9609 167.12 40.0022 166.564 39.9982C164.621 39.9982 162.682 39.9982 160.74 39.9982L160.185 39.9907ZM160.185 33.6171C160.27 33.6338 160.357 33.645 160.444 33.6508C162.319 33.6508 164.194 33.6508 166.069 33.6508C167.022 33.6542 167.955 33.3763 168.75 32.8523C169.133 32.6016 169.458 32.2729 169.704 31.8881C169.95 31.5034 170.111 31.0712 170.177 30.6199C170.243 30.1686 170.212 29.7084 170.086 29.2701C169.96 28.8315 169.743 28.4244 169.447 28.0757C169.048 27.6309 168.556 27.2779 168.005 27.0407C167.455 26.8037 166.859 26.6882 166.26 26.7024C164.351 26.6428 162.442 26.6764 160.534 26.6726C160.423 26.6797 160.313 26.6936 160.204 26.7137L160.185 33.6171Z" fill="black"/>
<path d="M239.775 52.0363V20.34H252.81C255.287 20.3762 257.661 21.3377 259.459 23.0342C261.257 24.7307 262.348 27.0379 262.517 29.4979C262.686 31.9579 261.917 34.3909 260.366 36.3139C258.816 38.2369 256.596 39.5094 254.145 39.8788C253.532 39.9671 252.913 40.0071 252.292 39.9982C250.256 39.9982 248.22 39.9982 246.112 39.9982V52.0438L239.775 52.0363ZM246.15 26.6614V33.6208C246.274 33.6208 246.364 33.6508 246.457 33.6508C248.272 33.6508 250.084 33.6508 251.899 33.6508C252.422 33.6398 252.943 33.5646 253.447 33.4267C255.461 32.8783 256.541 31.1207 256.012 29.2326C255.849 28.6294 255.512 28.0877 255.039 27.6759C254.567 27.2642 253.984 27.0007 253.361 26.9188C252.232 26.7555 251.092 26.6781 249.952 26.6876C248.696 26.6466 247.44 26.6839 246.146 26.6839L246.15 26.6614Z" fill="black"/>
<path d="M205.181 23.6537L201.323 28.4713C200.198 27.9114 199.178 27.3219 198.09 26.8517C196.708 26.2483 195.154 26.1594 193.71 26.6018C192.323 27.0084 191.603 27.9638 191.629 29.2997C191.629 29.6359 191.721 29.9659 191.891 30.2558C192.064 30.5456 192.31 30.7849 192.604 30.9491C193.667 31.5709 194.773 32.1171 195.915 32.5836C198.041 33.4268 200.171 34.2516 202.076 35.5352C203.82 36.7106 205.234 38.1698 205.77 40.2594C206.861 44.5022 205.178 48.7899 201.038 50.9803C197.239 52.9879 193.335 52.7828 189.454 51.1483C187.339 50.2564 185.61 48.8348 184.035 47.1107L188.786 42.7298C190.048 44.025 191.586 45.0212 193.286 45.6441C194.012 45.9291 194.788 46.0644 195.568 46.0421C196.348 46.0196 197.115 45.8398 197.824 45.5136C198.328 45.3084 198.765 44.9709 199.091 44.5371C199.418 44.1032 199.618 43.5894 199.673 43.0508C199.72 42.7763 199.693 42.4946 199.6 42.2329C199.504 41.9713 199.341 41.7388 199.129 41.5581C198.51 40.9928 197.824 40.5052 197.085 40.1064C195.416 39.3041 193.684 38.6138 191.989 37.8675C190.208 37.0764 188.528 36.1284 187.2 34.662C185.58 32.8671 185.029 30.7438 185.235 28.3817C185.378 26.433 186.176 24.5887 187.5 23.1463C189.008 21.5057 191.05 20.4484 193.264 20.1609C197.636 19.5154 201.45 20.9595 204.953 23.4411C205.033 23.5067 205.11 23.5777 205.181 23.6537Z" fill="black"/>
<path d="M366.199 26.6466V52.0215H359.798V26.6839H350.97V20.34H374.869V26.6466H366.199Z" fill="black"/>
<path d="M100.875 52.0588H94.4998V26.6839H85.6948V20.34H109.59V26.6539H100.875V52.0588Z" fill="black"/>
<path d="M15.5327 48.4987C16.8183 47.2635 18.2412 46.1781 19.774 45.2634C23.3485 43.0721 27.3417 41.6439 31.5002 41.0692C33.8078 40.8011 36.1352 40.7475 38.4527 40.9087C41.7677 41.0655 45.0865 41.2819 48.4052 41.3079C51.349 41.3304 54.259 40.8416 57.1352 40.2334C58.8752 39.8601 60.5927 39.4273 62.3215 39.0242C62.4981 38.9749 62.6848 38.9749 62.8615 39.0242C62.4865 39.5317 62.134 40.0616 61.7365 40.5429C57.7465 45.2261 52.6465 48.0547 46.6727 49.3982C44.0453 49.9806 41.341 50.1405 38.6627 49.872C36.6302 49.6817 34.6952 49.0624 32.7377 48.5212C30.9175 47.9672 29.0637 47.5284 27.1877 47.2076C25.7202 47.0496 24.2404 47.0372 22.7702 47.1703C20.3168 47.3533 17.8903 47.7986 15.5327 48.4987Z" fill="black"/>
<path d="M142.125 52.0363V20.3625H148.387V52.0363H142.125Z" fill="black"/>
<path d="M1.07227 29.1169C3.67102 17.2354 13.6273 5.72332 27.2023 2.09246C26.6248 2.63355 26.051 3.1485 25.4998 3.7157C22.5378 6.85869 20.2263 10.551 18.6973 14.5822C18.6438 14.7357 18.5598 14.877 18.4503 14.9976C18.3408 15.1181 18.2079 15.2154 18.0598 15.2837C13.1733 17.7512 8.72067 20.9899 4.87477 24.8739C3.68602 26.0794 2.62477 27.3891 1.47352 28.6541C1.34977 28.7921 1.22977 28.9228 1.07227 29.1169Z" fill="black"/>
<path d="M60.2511 46.8756C60.0505 48.4001 59.5028 49.8589 58.6499 51.1408C56.7149 54.1671 53.9774 56.2344 50.6961 57.6189C48.4038 58.5581 45.9734 59.1216 43.4999 59.2869C38.5874 59.6826 33.9561 58.5891 29.4374 56.7868C27.1874 55.8911 24.9036 55.074 22.6349 54.2269C21.5123 53.7802 20.3058 53.5817 19.0986 53.6447C20.1233 53.0831 21.2288 52.6815 22.3761 52.4542C25.4586 51.7939 28.4549 52.2604 31.4511 53.0552C33.7274 53.6634 36.0299 54.2044 38.3511 54.6373C40.9218 55.0875 43.5449 55.158 46.1361 54.8464C48.8429 54.5902 51.4759 53.8239 53.8949 52.5887C56.4423 51.3257 58.5908 49.3892 60.1049 46.9912C60.1199 46.9614 60.1536 46.9464 60.2511 46.8756Z" fill="black"/>
<path d="M247.999 75.3478C246.919 70.8139 245.839 66.2949 244.748 61.7274C244.916 61.7274 245.051 61.6864 245.183 61.6864C246.011 61.6864 246.84 61.6864 247.665 61.6864C248.003 61.6864 248.13 61.776 248.19 62.1156C248.749 65.3321 249.315 68.5489 249.908 71.7617C249.909 71.772 249.911 71.7819 249.917 71.7907C249.923 71.7997 249.93 71.8076 249.938 71.814C250.56 68.7503 251.194 65.6604 251.813 62.5708C251.989 61.6939 251.981 61.6939 252.866 61.6939H255.338C255.941 64.9851 256.545 68.2689 257.168 71.6685C257.273 71.0826 257.351 70.5863 257.445 70.0937C257.946 67.3971 258.463 64.7003 258.998 62.0036C259.022 61.9311 259.063 61.866 259.119 61.8144C259.178 61.7629 259.245 61.7265 259.32 61.7087C260.269 61.6826 261.221 61.7087 262.245 61.7087C262.031 62.5671 261.833 63.3731 261.626 64.1753C260.704 67.7353 259.774 71.2916 258.866 74.8515C258.761 75.2619 258.596 75.4001 258.161 75.3814C257.228 75.3403 256.286 75.3814 255.293 75.3814C254.681 72.1423 254.074 68.9258 253.5 65.877C252.859 68.8211 252.184 71.9184 251.516 75.0158C251.468 75.2321 251.426 75.3889 251.141 75.3889C250.125 75.3366 249.079 75.3478 247.999 75.3478Z" fill="black"/>
<path d="M226.624 61.7087H229.523V75.3441C228.484 75.3441 227.441 75.3441 226.399 75.3441C226.29 75.3441 226.159 75.1688 226.091 75.0418C224.432 71.9171 222.774 68.7902 221.119 65.6604C221.089 65.6098 221.055 65.5613 221.017 65.5149V75.3068H218.25V61.6864H219.6C220.204 61.6864 220.807 61.6864 221.411 61.6864C221.55 61.6688 221.691 61.6982 221.813 61.77C221.933 61.8416 222.024 61.9515 222.075 62.082C223.718 65.0672 225.555 67.9144 226.815 71.0676C226.74 67.9629 226.684 64.8656 226.624 61.7087Z" fill="black"/>
<path d="M162.341 61.8579C164.617 61.623 166.867 61.3468 169.091 61.8842C169.841 62.0767 170.535 62.4396 171.12 62.9439C171.432 63.2329 171.677 63.5863 171.837 63.9797C171.996 64.3731 172.067 64.7964 172.044 65.2202C172.021 65.6437 171.905 66.0572 171.704 66.4312C171.503 66.8051 171.222 67.1306 170.88 67.3845C170.568 67.6007 170.245 67.8013 169.912 67.9852C170.268 68.1412 170.615 68.3169 170.951 68.5116C173.152 69.9219 172.987 73.1722 170.651 74.5567C169.682 75.1117 168.585 75.4074 167.467 75.4149C165.885 75.4597 164.299 75.3701 162.712 75.3516C162.409 75.3516 162.304 75.2509 162.304 74.9374C162.304 70.6834 162.304 66.4267 162.304 62.1677C162.311 62.0931 162.326 62.0147 162.341 61.8579ZM165.45 73.2656C166.309 73.1989 167.162 73.083 168.007 72.9186C168.365 72.8216 168.68 72.6069 168.899 72.3094C169.118 72.0118 169.23 71.649 169.215 71.2804C169.226 70.914 169.118 70.554 168.906 70.254C168.694 69.954 168.391 69.7303 168.041 69.6161C167.209 69.2728 166.342 69.3474 165.45 69.3735V73.2656ZM165.45 67.0747C166.324 67.0747 167.167 67.1829 167.962 66.7987C168.253 66.6849 168.499 66.4787 168.66 66.2122C168.821 65.9458 168.89 65.6338 168.855 65.3246C168.862 65.0184 168.756 64.7203 168.557 64.4865C168.358 64.2529 168.08 64.0997 167.775 64.056C167.004 63.9523 166.228 63.8912 165.45 63.873V67.0747Z" fill="black"/>
<path d="M186.833 68.4778C186.693 69.4418 186.495 70.3961 186.24 71.3362C185.393 73.8924 183.285 75.4001 180.495 75.5567C176.715 75.7695 174.041 73.4895 173.599 69.687C173.355 67.5786 173.715 65.6083 175.031 63.903C176.531 61.9663 178.605 61.2907 180.986 61.5184C184.718 61.8692 186.754 64.8546 186.716 68.4555L186.833 68.4778ZM176.839 68.601C176.8 69.7354 177.109 70.8546 177.724 71.8102C177.989 72.2087 178.349 72.5349 178.772 72.7596C179.196 72.9842 179.669 73.0999 180.149 73.0961C180.629 73.0924 181.1 72.9694 181.52 72.7384C181.94 72.5072 182.296 72.1753 182.554 71.7729C183.679 70.0937 183.701 67.0599 182.58 65.3582C182.324 64.926 181.957 64.569 181.517 64.3234C181.078 64.0777 180.58 63.9523 180.076 63.96C179.572 63.9675 179.078 64.1078 178.646 64.3665C178.214 64.6253 177.858 64.9931 177.615 65.4328C177.067 66.3999 176.799 67.4991 176.839 68.6085V68.601Z" fill="black"/>
<path d="M200.858 68.0526C200.858 70.4333 200.374 72.2655 198.934 73.7357C197.871 74.8033 196.451 75.4448 194.944 75.5381C193.71 75.6917 192.456 75.5085 191.318 75.0083C190.455 74.613 189.701 74.0199 189.115 73.2778C188.528 72.5357 188.126 71.6657 187.943 70.7393C187.391 68.4405 187.601 66.2278 188.951 64.2388C190.429 62.0595 192.596 61.2983 195.158 61.5296C198.791 61.8579 200.921 64.8546 200.858 68.0526ZM197.591 68.0526C197.443 67.3103 197.241 66.5794 196.988 65.8658C196.785 65.3153 196.421 64.8392 195.94 64.5008C195.46 64.1623 194.886 63.9778 194.297 63.9716C193.708 63.9656 193.133 64.1383 192.645 64.4666C192.158 64.7951 191.783 65.2637 191.569 65.8099C191.29 66.4613 191.108 67.1503 191.029 67.8548C190.875 69.366 191.055 70.8399 192.071 72.0639C192.343 72.3906 192.685 72.6525 193.073 72.8304C193.459 73.0084 193.881 73.0976 194.308 73.092C194.734 73.0862 195.154 72.9855 195.535 72.7973C195.917 72.6092 196.253 72.3381 196.515 72.0043C197.34 70.9781 197.509 69.7504 197.591 68.0711V68.0526Z" fill="black"/>
<path d="M236.876 75.594C233.651 75.5381 231.701 72.8775 231.285 70.0824C230.959 67.8921 231.229 65.8134 232.598 63.9999C234.098 61.9924 236.209 61.2908 238.65 61.5296C242.4 61.9028 244.508 64.9628 244.346 68.8249C244.256 71.0303 243.559 72.9857 241.695 74.3589C240.488 75.2507 239.093 75.5679 236.876 75.594ZM241.035 68.4778C241.075 67.3592 240.769 66.2552 240.161 65.3136C239.901 64.9003 239.535 64.5611 239.104 64.3292C238.673 64.0972 238.187 63.9804 237.698 63.9898C237.206 63.9992 236.726 64.1346 236.305 64.3828C235.883 64.6311 235.532 64.9837 235.286 65.4067C234.763 66.279 234.488 67.2758 234.488 68.2913C234.398 69.4183 234.638 70.5469 235.178 71.5416C235.425 72.0249 235.804 72.4282 236.273 72.7044C236.741 72.9808 237.281 73.1184 237.825 73.1014C238.363 73.0988 238.888 72.9431 239.34 72.6529C239.792 72.3626 240.152 71.9498 240.375 71.4632C240.846 70.5396 241.073 69.5124 241.035 68.4778Z" fill="black"/>
<path d="M213.495 61.6864C211.924 63.6977 210.431 65.6083 208.935 67.53L213.701 75.3441C212.468 75.3441 211.313 75.3441 210.161 75.3441C210.045 75.3441 209.906 75.1425 209.828 75.0045C208.864 73.3328 207.911 71.646 206.955 69.978L206.7 69.5378C206.325 69.9705 205.995 70.3586 205.691 70.7803C205.603 70.9451 205.564 71.1315 205.579 71.3177C205.579 72.6424 205.579 73.9708 205.579 75.3291H202.481V61.6901C203.438 61.6901 204.405 61.6901 205.369 61.7087C205.44 61.7087 205.568 61.9886 205.568 62.1379C205.568 63.7836 205.568 65.4293 205.568 67.0748V67.6419C206.381 66.4329 207.131 65.3246 207.881 64.2201C208.388 63.4738 208.886 62.7276 209.423 61.9811C209.565 61.8111 209.768 61.7038 209.989 61.6826C211.125 61.6714 212.25 61.6864 213.495 61.6864Z" fill="black"/>
<path d="M79.3127 21.5304L56.9439 26.0867C56.5202 23.9522 56.1152 21.8888 55.6914 19.743C56.7077 20.0229 57.6564 20.2766 58.6052 20.5416C59.3364 20.7469 60.0602 20.9818 60.7989 21.1536C61.1514 21.2271 61.5127 21.2484 61.8714 21.2169C63.2964 21.1238 64.7214 21.0081 66.1427 20.8961C67.5639 20.7842 68.9889 20.6497 70.4139 20.5566C72.2514 20.4334 74.0889 20.3064 75.9302 20.2431C76.9952 20.2095 78.7014 20.9072 79.3127 21.5304Z" fill="black"/>
<path d="M374.902 61.8804C374.902 60.7609 374.902 59.6415 374.902 58.5219V58.0667H265.684V76.9189C265.684 77.0904 265.684 77.2659 265.661 77.4375H369.461C370.318 77.2459 371.16 76.9965 371.981 76.6913C372.735 76.3929 373.401 75.9103 373.918 75.2882C374.436 74.6659 374.786 73.9241 374.94 73.1312C374.94 73.1051 374.981 73.0864 375 73.0641V62.4251C374.951 62.2468 374.919 62.0646 374.902 61.8804ZM281.557 68.9704C280.389 69.4344 279.129 69.6296 277.875 69.5413H277.32V74.4486H274.189V73.9335C274.189 69.7243 274.189 65.5149 274.189 61.3095C274.189 60.8618 274.32 60.6975 274.77 60.6825C276.244 60.6414 277.717 60.5109 279.191 60.5258C279.967 60.5439 280.736 60.6799 281.471 60.9289C282.234 61.1681 282.905 61.635 283.395 62.2663C283.882 62.8976 284.164 63.6632 284.201 64.4589C284.269 66.6793 283.384 68.1981 281.557 68.9816V68.9704ZM293.227 74.4671C293.143 74.4478 293.066 74.4084 293 74.3526C292.935 74.2967 292.884 74.226 292.852 74.1463C292.541 73.1873 292.267 72.2132 291.956 71.2543C291.911 71.1124 291.731 70.911 291.611 70.9073C290.355 70.881 289.099 70.9073 287.809 70.9073C287.471 72.105 287.141 73.2842 286.804 74.4784H283.59C283.856 73.6052 284.107 72.7506 284.37 71.8999C285.48 68.2802 286.59 64.6592 287.7 61.0371C287.709 60.9696 287.73 60.9047 287.766 60.846C287.799 60.7875 287.846 60.7367 287.902 60.6964C287.957 60.6563 288.019 60.6278 288.086 60.6126C288.152 60.5972 288.221 60.5957 288.289 60.6079C289.496 60.6304 290.707 60.6079 291.96 60.6079C293.396 65.2164 294.832 69.8175 296.287 74.4894C295.23 74.4932 294.225 74.5044 293.227 74.4784V74.4671ZM305.977 62.0184C304.8 64.0933 303.615 66.168 302.449 68.2539C302.308 68.5146 302.229 68.805 302.224 69.1011C302.201 70.6982 302.224 72.2991 302.224 73.8962V74.4486H299.096V73.9523C299.096 72.3849 299.096 70.8176 299.096 69.2503C299.094 68.94 299.017 68.6344 298.875 68.3586C297.592 65.9404 296.291 63.5334 294.994 61.1229C294.915 60.9737 294.844 60.8207 294.739 60.6041C295.89 60.6041 296.989 60.6041 298.069 60.6229C298.192 60.6229 298.357 60.8355 298.421 60.996C299.171 62.7375 299.906 64.4788 300.626 66.2203L300.806 66.6458C301.147 65.8134 301.455 65.0486 301.774 64.2836C302.235 63.1641 302.707 62.0708 303.157 60.9587C303.189 60.8378 303.264 60.7326 303.367 60.6636C303.472 60.5948 303.6 60.5668 303.724 60.5856C304.717 60.5856 305.715 60.5856 306.795 60.5856L305.977 62.0184ZM320.411 74.4486H311.737V60.6414H314.827V71.8774H320.411V74.4486ZM330.656 74.4486C330.536 74.4486 330.356 74.2545 330.311 74.1201C330.006 73.1921 329.721 72.2567 329.456 71.3139C329.366 70.9929 329.239 70.8549 328.875 70.8624C327.825 70.8923 326.775 70.8848 325.725 70.8624C325.657 70.8484 325.586 70.8489 325.519 70.8643C325.451 70.8795 325.387 70.9089 325.331 70.9506C325.277 70.9922 325.232 71.0453 325.198 71.106C325.164 71.1668 325.146 71.2339 325.14 71.3027C324.874 72.3514 324.566 73.3924 324.27 74.4448H321.052C321.446 73.1499 321.836 71.8736 322.226 70.5975C323.201 67.4181 324.184 64.2536 325.147 61.0521C325.256 60.6788 325.402 60.5558 325.796 60.5668C326.989 60.5968 328.181 60.5668 329.426 60.5668C330.862 65.1829 332.302 69.7952 333.75 74.4486C332.689 74.4932 331.672 74.5044 330.656 74.4784V74.4486ZM343.166 63.1455H339.375V74.4486H336.229V63.1791H332.501V60.6414H343.159L343.166 63.1455ZM353.355 74.4373H344.546V60.6414H353.081V63.0857C352.897 63.0857 352.729 63.1082 352.56 63.1082C351.06 63.1082 349.56 63.1082 348.06 63.1082C347.715 63.1082 347.58 63.1866 347.591 63.5559C347.617 64.3731 347.591 65.1904 347.591 66.0636H352.714V68.5935H347.651V71.9184H353.355V74.4373ZM362.647 74.4373C362.542 74.4373 362.389 74.2209 362.347 74.0642C362.062 73.1126 361.77 72.1648 361.541 71.1983C361.076 69.2503 360.397 68.7615 358.312 68.9891V74.4486H355.166V74.0044C355.166 69.7616 355.166 65.5187 355.166 61.2797C355.166 60.8728 355.279 60.7123 355.687 60.6975C357.187 60.6452 358.687 60.5072 360.187 60.537C361.072 60.5634 361.95 60.7206 362.79 61.0035C364.271 61.4886 365.04 62.6119 365.141 64.1417C365.242 65.6717 364.545 66.8807 363.176 67.6569C363.094 67.7055 363.007 67.7466 362.925 67.7876L362.629 67.9442C363.754 68.4743 364.215 69.4108 364.504 70.4593C364.879 71.7767 365.254 73.0976 365.629 74.4821C364.631 74.4894 363.637 74.5007 362.647 74.4746V74.4373Z" fill="black"/>
<path d="M360.814 62.9514C359.994 62.7529 359.143 62.7276 358.312 62.8768V66.9069C359.181 66.8263 360.041 66.6917 360.892 66.5038C361.252 66.3594 361.558 66.1097 361.772 65.7876C361.986 65.4654 362.094 65.0863 362.087 64.7006C362.078 64.3149 361.952 63.9409 361.725 63.6285C361.496 63.3159 361.179 63.0799 360.814 62.9514Z" fill="black"/>
<path d="M325.751 68.5599H328.845C328.312 66.6756 327.787 64.8283 327.24 62.9029C326.733 64.8358 326.25 66.6904 325.751 68.5599Z" fill="black"/>
<path d="M288.304 68.5674H291.397C290.865 66.6718 290.34 64.8173 289.796 62.8954C289.29 64.8173 288.802 66.6681 288.304 68.5674Z" fill="black"/>
<path d="M279.394 62.9141C278.7 62.8764 278.006 62.8764 277.312 62.9141C277.312 64.2947 277.312 65.5896 277.312 66.8844C277.312 66.9816 277.448 67.1569 277.53 67.1606C278.351 67.2054 279.18 67.2726 279.953 66.8771C280.361 66.6598 280.689 66.3199 280.892 65.9055C281.093 65.4913 281.158 65.0242 281.078 64.5709C281.031 64.1441 280.838 63.7463 280.532 63.4446C280.224 63.1427 279.823 62.9554 279.394 62.9141Z" fill="black"/>
</g>
<defs>
<clipPath id="clip0_1_449">
<rect width="375" height="76.875" fill="white" transform="translate(0 0.5625)"/>
</clipPath>
</defs>
</svg>
