<svg width="513" height="105" viewBox="0 0 513 105" fill="none" xmlns="http://www.w3.org/2000/svg">
<path d="M54.6037 0L57.7587 0.377166C63.2855 1.04315 68.661 2.62469 73.6617 5.05607C81.9948 9.05636 89.0848 15.22 94.1817 22.895C94.2997 23.0683 94.4074 23.2518 94.5818 23.527C93.8636 23.5933 93.2275 23.6595 92.5914 23.7105C89.8554 23.928 87.1194 24.1386 84.3834 24.3425C84.1446 24.3477 83.9068 24.3115 83.6806 24.2355C80.2332 23.2824 76.7858 22.3344 73.3487 21.3456C72.9685 21.2272 72.6349 20.9937 72.3946 20.6779C67.9764 14.421 62.1293 9.29287 55.3322 5.71356C51.1768 3.49271 46.6916 1.94422 42.0455 1.1264C41.8762 1.09582 41.7069 1.03976 41.3581 0.948012C41.8711 0.835882 42.2302 0.749236 42.5893 0.682977C42.9484 0.616718 43.3177 0.555556 43.6819 0.514781C45.0106 0.382263 46.3239 0.249745 47.6423 0.107034C47.7883 0.0815927 47.9323 0.0458239 48.0732 0H54.6037Z" fill="#232F67"/>
<path d="M0 47.7625C0.13338 46.631 0.25137 45.4995 0.4104 44.3731C0.438946 44.0774 0.548998 43.7952 0.72846 43.5576C7.24551 35.9897 14.972 29.5392 23.598 24.4648C23.6631 24.4452 23.7302 24.4332 23.7981 24.4292C23.7891 24.6104 23.7686 24.7908 23.7365 24.9694C22.8437 28.3901 22.3666 31.9048 22.3155 35.4383C22.3155 37.1407 22.3617 38.8481 22.454 40.5352C22.4848 41.0449 22.1821 41.157 21.8589 41.3201C18.0305 43.2774 14.3617 45.5285 10.8859 48.053C6.91011 50.9684 3.2319 54.1794 0.513 58.6137L0 54.1182V47.7625Z" fill="#232F67"/>
<path d="M72.6664 30.3976C73.0461 32.2426 73.4154 34.0316 73.7951 35.8818C72.2561 36.3405 70.717 36.789 69.178 37.2477C57.969 40.6014 46.9754 44.5464 36.5205 49.842C30.6005 52.8389 24.8702 56.157 19.7915 60.4536C18.1243 61.8603 16.7135 63.5117 15.1745 65.0866C14.9826 65.2572 14.8592 65.491 14.8272 65.7448C14.7951 65.9987 14.8565 66.2555 15.0001 66.4679C20.9253 78.7003 30.4722 86.5443 43.8718 89.0622C58.641 91.84 71.3532 87.5331 81.4901 76.3812C86.5277 70.841 89.5134 64.2355 90.7241 56.84C91.2589 53.3339 91.3846 49.7783 91.0985 46.2436C91.0678 45.8461 90.8933 45.7339 90.5291 45.7339C88.9234 45.6779 87.3126 45.5708 85.7069 45.5505C82.5314 45.5046 79.3508 45.3874 76.1805 45.5097C72.2099 45.6677 68.2341 45.9327 64.284 46.3405C61.1445 46.6667 58.0306 47.2783 54.85 47.7676C56.6198 46.9419 58.3435 46.0805 60.1082 45.316C67.8733 42.0209 75.9341 39.4612 84.1833 37.6707C87.7743 36.8603 91.3653 36.1417 94.9563 35.5199C96.5517 35.2396 98.1985 35.2497 99.9016 35.1223C100.507 37.5025 101.128 39.8114 101.677 42.1356C102.413 45.3391 102.746 48.6212 102.667 51.9062C102.415 65.1019 97.8548 76.6259 88.8157 86.3201C81.6545 94.0959 72.2186 99.4438 61.837 101.611C57.0694 102.635 52.1769 102.963 47.314 102.584C38.2686 101.972 29.5614 98.9256 22.1257 93.7717C13.1291 87.6675 6.35949 78.8374 2.82663 68.5984C1.87245 65.9021 2.45727 63.3639 3.75516 60.9531C5.19669 58.2518 7.29486 56.0856 9.58284 54.1081C14.5538 49.8063 20.1558 46.4628 26.0655 43.6239C37.3207 38.2008 49.1762 34.5821 61.4266 32.2069C64.9817 31.5189 68.5727 31.0092 72.1483 30.4179C72.3205 30.4009 72.4935 30.394 72.6664 30.3976Z" fill="#ED1E24"/>
<path d="M418.336 70.7747C406.978 70.8512 395.897 61.8094 396.062 48.4506C396.2 37.4873 405.024 26.5342 418.326 26.5342C421.275 26.5305 424.195 27.1092 426.918 28.2366C429.64 29.364 432.109 31.0175 434.183 33.1013C436.256 35.185 437.892 37.6573 438.995 40.3745C440.099 43.0918 440.648 45.9998 440.611 48.9297C440.482 60.7696 430.787 70.8767 418.336 70.7747ZM418.367 35.2141C415.687 35.199 413.063 35.9739 410.826 37.4409C408.589 38.9078 406.841 41.0009 405.802 43.4553C404.763 45.9097 404.479 48.6151 404.988 51.2294C405.497 53.8437 406.774 56.2494 408.659 58.1422C410.544 60.035 412.952 61.3298 415.578 61.8628C418.204 62.3959 420.929 62.1433 423.411 61.1369C425.892 60.1306 428.017 58.4157 429.517 56.2092C431.017 54.0027 431.825 51.4038 431.838 48.7411C431.838 41.3507 425.723 35.2141 418.367 35.2141Z" fill="#232F67"/>
<path d="M446.064 27.0133H463.875C467.077 27.0722 470.154 28.2525 472.565 30.3459C474.977 32.4393 476.566 35.3114 477.054 38.4557C477.486 41.2426 477.018 44.0938 475.719 46.6006C474.42 49.1075 472.355 51.1414 469.821 52.4108L469.564 52.5586L482.348 70.3211C482.102 70.3211 481.938 70.3568 481.779 70.3568C478.603 70.3568 475.423 70.3568 472.247 70.3568C472.067 70.369 471.887 70.3312 471.728 70.2474C471.568 70.1637 471.436 70.0374 471.344 69.8828C467.661 64.718 463.976 59.5549 460.289 54.3935C460.184 54.211 460.029 54.062 459.842 53.9636C459.655 53.8653 459.443 53.8217 459.232 53.8379C457.755 53.8787 456.278 53.8379 454.723 53.8379V70.2905H446.064V27.0133ZM454.739 45.1784C457.673 45.1784 460.546 45.2548 463.408 45.1376C464.423 45.0518 465.405 44.7344 466.276 44.21C466.951 43.8218 467.509 43.2625 467.895 42.5894C468.281 41.9163 468.48 41.1534 468.471 40.3789C468.463 39.6043 468.248 38.8459 467.848 38.1811C467.447 37.5163 466.877 36.9691 466.194 36.5953C465.03 35.9585 463.716 35.6418 462.387 35.6779C460.038 35.6779 457.688 35.6779 455.339 35.6779C455.149 35.6779 454.959 35.6779 454.739 35.7136V45.1784Z" fill="#232F67"/>
<path d="M178.252 52.5535L191.031 70.3058C190.78 70.3058 190.621 70.3415 190.456 70.3415C187.281 70.3415 184.1 70.3415 180.925 70.3415C180.745 70.3529 180.566 70.314 180.407 70.2294C180.248 70.1447 180.117 70.0176 180.027 69.8624C176.364 64.7418 172.703 59.6211 169.044 54.5005C168.917 54.2822 168.731 54.1041 168.507 53.9868C168.283 53.8695 168.029 53.8179 167.777 53.8379C166.345 53.8838 164.909 53.8379 163.401 53.8379V70.3364H154.746V27.0133H172.763C178.847 27.0133 184.69 31.9623 185.619 37.9562C186.511 43.6901 184.634 48.3129 179.801 51.6718C179.34 51.9878 178.827 52.2222 178.252 52.5535ZM163.426 45.1784C166.222 45.1784 168.946 45.2345 171.665 45.1478C172.594 45.0978 173.506 44.882 174.358 44.5107C175.191 44.2041 175.906 43.6459 176.403 42.9145C176.9 42.1831 177.154 41.3153 177.129 40.4332C177.176 39.555 176.938 38.685 176.451 37.951C175.963 37.217 175.251 36.6578 174.42 36.3558C173.547 35.9753 172.612 35.7543 171.66 35.7034C169.008 35.6116 166.35 35.6626 163.693 35.6575C163.603 35.6674 163.514 35.6844 163.426 35.7085V45.1784Z" fill="#ED1E24"/>
<path d="M55.4656 12.5739C46.2316 12.5484 37.4541 14.5158 28.8306 18.1498C29.2872 16.9929 29.6565 15.9939 30.0721 15.0153C32.0354 10.4672 34.5451 6.17168 37.5465 2.22222C37.8803 1.88024 38.2954 1.62723 38.7535 1.48649C39.2116 1.34576 39.698 1.32184 40.1679 1.41692C48.9394 4.14477 56.928 8.91533 63.4684 15.3313C66.7164 18.5357 69.5479 22.1314 71.8969 26.0347C71.9636 26.1417 72.0252 26.2538 72.1432 26.4628C56.0504 28.6188 40.527 32.6198 25.6962 39.4343C25.6962 37.63 25.6449 35.9276 25.6962 34.2304C25.8437 30.3674 26.4166 26.5321 27.4045 22.7931C27.4441 22.6083 27.527 22.4354 27.6465 22.2885C27.7659 22.1415 27.9185 22.0245 28.0919 21.947C36.095 17.8687 44.6212 14.8953 53.4341 13.1091C54.0907 12.9715 54.7422 12.8236 55.3989 12.6809C55.404 12.6758 55.4296 12.6453 55.4656 12.5739Z" fill="#232F67"/>
<path d="M286.51 27.0133H295.201V27.8287C295.201 35.9395 295.201 44.0503 295.201 52.1611C295.132 53.9357 295.463 55.7033 296.17 57.3344C297.617 60.3925 300.664 62.3191 303.804 62.1254C305.488 62.0286 307.101 61.4125 308.416 60.3629C309.732 59.3133 310.686 57.8823 311.145 56.2691C311.481 55.1545 311.654 53.9975 311.658 52.8338C311.704 44.5056 311.683 36.1774 311.683 27.8593V27.0387H320.404V27.6453C320.404 36.5341 320.481 45.4281 320.404 54.317C320.322 62.1356 315.628 68.4913 308.015 70.2345C302.065 71.5953 296.499 70.6983 291.794 66.5392C288.865 63.9552 287.285 60.6065 286.757 56.7788C286.577 55.3213 286.495 53.8536 286.51 52.3853C286.49 44.21 286.49 36.0347 286.51 27.8593V27.0133Z" fill="#232F67"/>
<path d="M372.171 53.8532V70.3058H363.496V27.0133H381.405C387.536 27.0133 393.256 31.7533 394.374 37.7625C395.088 41.2263 394.397 44.8303 392.449 47.7897C390.501 50.749 387.456 52.824 383.975 53.5627C382.977 53.7727 381.959 53.8786 380.938 53.8787C378.281 53.9246 375.629 53.8787 372.971 53.8787L372.171 53.8532ZM372.217 35.6779V45.158C372.312 45.1756 372.408 45.1875 372.505 45.1937C375.116 45.1937 377.727 45.1937 380.338 45.1937C381.652 45.1926 382.933 44.7924 384.011 44.0469C384.903 43.4294 385.537 42.5087 385.792 41.4588C386.047 40.4089 385.906 39.3025 385.396 38.3486C385.007 37.643 384.447 37.0453 383.766 36.61C383.085 36.1747 382.305 35.9156 381.498 35.8563C380.005 35.7194 378.507 35.6615 377.009 35.683C375.424 35.6422 373.839 35.6779 372.217 35.6779Z" fill="#232F67"/>
<path d="M219.133 53.8532V70.2956H210.458V27.0133H228.285C231.67 27.0654 234.913 28.3788 237.37 30.6934C239.826 33.008 241.319 36.1549 241.551 39.5109C241.783 42.8669 240.739 46.1872 238.624 48.8142C236.509 51.4411 233.478 53.1831 230.132 53.6952C229.38 53.8126 228.62 53.8688 227.859 53.8634C225.202 53.8634 222.55 53.8634 219.892 53.8634L219.133 53.8532ZM219.133 45.1478C219.25 45.1705 219.368 45.1859 219.487 45.1937C222.052 45.1937 224.617 45.1937 227.182 45.1937C228.486 45.1983 229.763 44.8188 230.85 44.103C231.374 43.7606 231.818 43.3118 232.155 42.7863C232.491 42.2608 232.712 41.6703 232.802 41.0539C232.892 40.4375 232.85 39.8092 232.678 39.2102C232.506 38.6113 232.208 38.0553 231.804 37.579C231.257 36.9715 230.584 36.4892 229.831 36.1653C229.078 35.8415 228.264 35.6839 227.444 35.7034C224.832 35.6218 222.221 35.6677 219.61 35.6626C219.459 35.6725 219.308 35.6912 219.159 35.7187L219.133 45.1478Z" fill="#ED1E24"/>
<path d="M328.012 70.3058V27.0133H345.844C349.233 27.0625 352.48 28.376 354.94 30.6931C357.4 33.0102 358.893 36.1615 359.123 39.5215C359.353 42.8815 358.303 46.2045 356.181 48.8311C354.06 51.4577 351.022 53.1957 347.67 53.7003C346.831 53.8211 345.984 53.8756 345.136 53.8634C342.351 53.8634 339.565 53.8634 336.682 53.8634V70.316L328.012 70.3058ZM336.733 35.6473V45.1529C336.902 45.1529 337.026 45.1937 337.154 45.1937C339.637 45.1937 342.115 45.1937 344.597 45.1937C345.314 45.1786 346.025 45.0759 346.716 44.8879C349.471 44.1386 350.948 41.738 350.225 39.159C350.002 38.3352 349.539 37.5954 348.894 37.033C348.248 36.4706 347.449 36.1108 346.598 35.999C345.054 35.7757 343.495 35.6701 341.935 35.683C340.216 35.6269 338.498 35.6779 336.728 35.6779L336.733 35.6473Z" fill="#232F67"/>
<path d="M280.688 31.5392L275.409 38.1193C273.87 37.3547 272.475 36.5494 270.987 35.9072C269.096 35.0829 266.969 34.9617 264.995 35.5657C263.097 36.1213 262.112 37.4261 262.148 39.2508C262.149 39.7101 262.274 40.1608 262.508 40.5566C262.742 40.9525 263.078 41.2793 263.482 41.5036C264.937 42.353 266.451 43.099 268.012 43.736C270.92 44.8879 273.834 46.0143 276.44 47.7676C278.826 49.3731 280.76 51.366 281.493 54.2202C282.986 60.0153 280.683 65.8716 275.019 68.8634C269.823 71.6055 264.482 71.3252 259.173 69.0928C256.279 67.8746 253.914 65.9327 251.76 63.578L258.26 57.5943C259.985 59.3635 262.089 60.724 264.416 61.5749C265.409 61.9642 266.471 62.1491 267.538 62.1184C268.605 62.0878 269.654 61.8422 270.623 61.3965C271.312 61.1164 271.911 60.6554 272.357 60.0629C272.802 59.4703 273.077 58.7685 273.152 58.0326C273.216 57.6579 273.181 57.2731 273.051 56.9157C272.921 56.5584 272.699 56.2407 272.408 55.9939C271.561 55.2219 270.622 54.5561 269.612 54.0112C267.329 52.9154 264.959 51.9725 262.641 50.9531C260.204 49.8726 257.906 48.578 256.09 46.5749C253.873 44.1233 253.119 41.2232 253.401 37.9969C253.597 35.3352 254.688 32.8163 256.5 30.8461C258.562 28.6054 261.355 27.1612 264.385 26.7686C270.366 25.8868 275.584 27.8593 280.375 31.2487C280.486 31.3383 280.59 31.4354 280.688 31.5392Z" fill="#232F67"/>
<path d="M500.96 35.6269V70.2854H492.203V35.6779H480.127V27.0133H512.82V35.6269H500.96Z" fill="#232F67"/>
<path d="M137.997 70.3364H129.276V35.6779H117.231V27.0133H149.919V35.6371H137.997V70.3364Z" fill="#ED1E24"/>
<path d="M21.2485 65.474C23.0071 63.7867 24.9537 62.3041 27.0505 61.055C31.9405 58.062 37.4031 56.1111 43.092 55.3262C46.2486 54.9602 49.4327 54.8868 52.603 55.107C57.1379 55.3211 61.678 55.6167 66.218 55.6524C70.2451 55.683 74.226 55.0153 78.1607 54.1845C80.541 53.6748 82.8905 53.0836 85.2555 52.5331C85.497 52.4656 85.7526 52.4656 85.9942 52.5331C85.4812 53.2263 84.999 53.95 84.4552 54.6075C78.9969 61.0041 72.0201 64.8675 63.848 66.7023C60.2536 67.4978 56.5542 67.7164 52.8903 67.3496C50.1098 67.0897 47.4628 66.2436 44.7849 65.5046C42.2948 64.7479 39.7589 64.1487 37.1925 63.7105C35.1848 63.4946 33.1605 63.4776 31.1494 63.6595C27.7931 63.9094 24.4736 64.5177 21.2485 65.474Z" fill="#232F67"/>
<path d="M194.427 70.3058V27.0438H202.994V70.3058H194.427Z" fill="#ED1E24"/>
<path d="M1.46718 39.001C5.02227 22.7727 18.6424 7.04893 37.213 2.0897C36.423 2.82875 35.6381 3.53211 34.884 4.30683C30.832 8.59968 27.67 13.6428 25.5782 19.1488C25.5051 19.3586 25.3902 19.5515 25.2404 19.7162C25.0905 19.8808 24.9088 20.0137 24.7061 20.107C18.0214 23.4773 11.9302 27.9008 6.669 33.2059C5.04279 34.8522 3.591 36.6412 2.01609 38.369C1.8468 38.5576 1.68264 38.736 1.46718 39.001Z" fill="#232F67"/>
<path d="M82.4237 63.2569C82.1493 65.3391 81.4001 67.3316 80.2332 69.0826C77.5861 73.2161 73.8412 76.0397 69.3525 77.9307C66.2165 79.2137 62.8918 79.9831 59.508 80.209C52.7877 80.7492 46.4521 79.2559 40.2705 76.7941C37.1925 75.5708 34.0683 74.4546 30.9647 73.2977C29.4291 72.6877 27.7785 72.4164 26.1271 72.5025C27.5289 71.7354 29.0411 71.187 30.6107 70.8767C34.8276 69.9745 38.9264 70.6116 43.0253 71.6973C46.1392 72.528 49.289 73.2671 52.4645 73.8583C55.981 74.4732 59.5696 74.5694 63.1144 74.1437C66.8172 73.7939 70.4192 72.7474 73.7284 71.0601C77.213 69.3352 80.1523 66.6901 82.2236 63.4149C82.2442 63.3741 82.2903 63.3537 82.4237 63.2569Z" fill="#232F67"/>
<path d="M339.262 102.146C337.785 95.9531 336.307 89.7808 334.815 83.5423C335.045 83.5423 335.23 83.4862 335.41 83.4862C336.543 83.4862 337.677 83.4862 338.806 83.4862C339.267 83.4862 339.442 83.6086 339.524 84.0724C340.288 88.4659 341.063 92.8593 341.873 97.2477C341.875 97.2617 341.88 97.2752 341.887 97.2875C341.894 97.2997 341.903 97.3104 341.914 97.3191C342.766 93.1346 343.633 88.9144 344.479 84.6942C344.721 83.4964 344.71 83.4964 345.921 83.4964H349.302C350.128 87.9919 350.954 92.4771 351.805 97.1203C351.949 96.3201 352.057 95.6422 352.185 94.9694C352.869 91.2861 353.577 87.6028 354.309 83.9195C354.341 83.8206 354.399 83.7317 354.477 83.6612C354.554 83.5908 354.648 83.5411 354.75 83.5168C356.048 83.4811 357.351 83.5168 358.751 83.5168C358.459 84.6891 358.187 85.79 357.905 86.8858C356.643 91.7482 355.37 96.6055 354.129 101.468C353.985 102.029 353.76 102.217 353.165 102.192C351.887 102.136 350.6 102.192 349.24 102.192C348.404 97.7676 347.573 93.3741 346.788 89.21C345.911 93.2314 344.987 97.4618 344.074 101.692C344.008 101.988 343.951 102.202 343.561 102.202C342.171 102.13 340.74 102.146 339.262 102.146Z" fill="#232F67"/>
<path d="M310.021 83.5168H313.987V102.141C312.566 102.141 311.14 102.141 309.713 102.141C309.565 102.141 309.385 101.901 309.293 101.728C307.022 97.4601 304.754 93.1889 302.49 88.9144C302.449 88.8452 302.402 88.7788 302.352 88.7156V102.09H298.566V83.4862H300.413C301.239 83.4862 302.065 83.4862 302.891 83.4862C303.081 83.4622 303.274 83.5024 303.439 83.6004C303.603 83.6984 303.73 83.8484 303.799 84.0265C306.046 88.104 308.559 91.9929 310.283 96.2997C310.18 92.0591 310.103 87.8288 310.021 83.5168Z" fill="#232F67"/>
<path d="M222.083 83.7207C225.197 83.3996 228.275 83.0224 231.317 83.7564C232.342 84.0196 233.292 84.515 234.092 85.2039C234.519 85.5984 234.854 86.0814 235.072 86.6186C235.291 87.1559 235.388 87.7342 235.357 88.3128C235.325 88.8914 235.166 89.4561 234.891 89.967C234.616 90.4778 234.231 90.9224 233.764 91.2691C233.337 91.5645 232.895 91.8383 232.44 92.0897C232.927 92.3027 233.402 92.5426 233.861 92.8083C236.873 94.735 236.647 99.1743 233.451 101.065C232.125 101.823 230.625 102.227 229.096 102.238C226.931 102.299 224.761 102.176 222.591 102.151C222.175 102.151 222.032 102.013 222.032 101.585C222.032 95.7747 222.032 89.9609 222.032 84.1437C222.042 84.0418 222.062 83.9348 222.083 83.7207ZM226.336 99.3017C227.51 99.2108 228.678 99.0525 229.834 98.8277C230.324 98.6955 230.754 98.4022 231.054 97.9958C231.354 97.5894 231.506 97.0938 231.486 96.5902C231.501 96.0899 231.353 95.5981 231.064 95.1884C230.774 94.7787 230.359 94.473 229.88 94.317C228.742 93.8481 227.557 93.9501 226.336 93.9857V99.3017ZM226.336 90.8461C227.531 90.8461 228.685 90.9939 229.773 90.4689C230.171 90.3135 230.506 90.032 230.727 89.668C230.948 89.304 231.041 88.8779 230.994 88.4557C231.003 88.0374 230.858 87.6301 230.586 87.3109C230.313 86.9916 229.933 86.7824 229.516 86.7227C228.461 86.5812 227.4 86.4978 226.336 86.473V90.8461Z" fill="#232F67"/>
<path d="M255.587 92.7625C255.396 94.0789 255.125 95.3826 254.776 96.6667C253.617 100.158 250.734 102.217 246.917 102.431C241.746 102.722 238.088 99.6075 237.483 94.4139C237.15 91.5341 237.642 88.843 239.443 86.5138C241.495 83.8685 244.332 82.946 247.589 83.2569C252.694 83.736 255.479 87.8135 255.428 92.7319L255.587 92.7625ZM241.915 92.9307C241.862 94.4799 242.285 96.0086 243.126 97.314C243.488 97.8582 243.981 98.3039 244.56 98.6106C245.14 98.9173 245.787 99.0753 246.444 99.0703C247.1 99.0652 247.745 98.8972 248.32 98.5816C248.894 98.266 249.38 97.8127 249.734 97.263C251.273 94.9694 251.303 90.8257 249.769 88.5015C249.419 87.9111 248.917 87.4234 248.316 87.0879C247.714 86.7525 247.033 86.5812 246.344 86.5916C245.654 86.6019 244.979 86.7935 244.388 87.1469C243.796 87.5003 243.31 88.0028 242.977 88.6035C242.228 89.9244 241.86 91.4255 241.915 92.9409V92.9307Z" fill="#232F67"/>
<path d="M274.773 92.1814C274.773 95.4332 274.111 97.9358 272.141 99.9439C270.688 101.402 268.745 102.278 266.683 102.406C264.994 102.615 263.279 102.365 261.722 101.682C260.544 101.142 259.51 100.332 258.708 99.3184C257.905 98.3048 257.356 97.1165 257.105 95.8512C256.351 92.7115 256.638 89.6891 258.485 86.9725C260.507 83.9959 263.472 82.9562 266.975 83.2722C271.946 83.7207 274.86 87.8135 274.773 92.1814ZM270.305 92.1814C270.102 91.1676 269.826 90.1694 269.479 89.1947C269.203 88.4429 268.703 87.7925 268.046 87.3302C267.388 86.868 266.604 86.6159 265.799 86.6076C264.994 86.5993 264.205 86.8352 263.538 87.2837C262.871 87.7323 262.358 88.3723 262.066 89.1182C261.683 90.0081 261.434 90.9492 261.327 91.9113C261.117 93.9755 261.363 95.9888 262.753 97.6606C263.125 98.1067 263.593 98.4644 264.123 98.7074C264.652 98.9504 265.23 99.0724 265.813 99.0646C266.396 99.0568 266.97 98.9193 267.492 98.6622C268.015 98.4051 268.473 98.035 268.832 97.579C269.961 96.1774 270.192 94.5005 270.305 92.2069V92.1814Z" fill="#232F67"/>
<path d="M324.047 102.482C319.635 102.406 316.967 98.7717 316.398 94.9541C315.952 91.9623 316.321 89.1233 318.193 86.6463C320.245 83.9042 323.134 82.946 326.473 83.2722C331.603 83.7819 334.486 87.9613 334.266 93.2365C334.143 96.2487 333.188 98.9195 330.639 100.795C328.987 102.013 327.079 102.446 324.047 102.482ZM329.736 92.7625C329.79 91.2345 329.373 89.7265 328.541 88.4404C328.183 87.8759 327.685 87.4128 327.094 87.096C326.504 86.7792 325.841 86.6195 325.17 86.6323C324.499 86.6451 323.842 86.8301 323.265 87.1692C322.687 87.5083 322.207 87.9901 321.872 88.5678C321.157 89.7592 320.779 91.1205 320.779 92.5076C320.656 94.0469 320.984 95.5885 321.723 96.947C322.061 97.6072 322.581 98.1581 323.222 98.5354C323.863 98.9127 324.6 99.1007 325.345 99.0775C326.08 99.0738 326.8 98.8612 327.418 98.4648C328.036 98.0683 328.527 97.5046 328.833 96.84C329.476 95.5783 329.786 94.1756 329.736 92.7625Z" fill="#232F67"/>
<path d="M292.061 83.4862C289.912 86.2334 287.87 88.843 285.823 91.4679L292.343 102.141C290.656 102.141 289.076 102.141 287.501 102.141C287.342 102.141 287.152 101.865 287.044 101.677C285.726 99.3935 284.423 97.0897 283.114 94.8114L282.766 94.21C282.253 94.8012 281.801 95.3313 281.386 95.9072C281.265 96.1324 281.212 96.387 281.232 96.6412C281.232 98.4506 281.232 100.265 281.232 102.12H276.994V83.4913C278.302 83.4913 279.626 83.4913 280.944 83.5168C281.042 83.5168 281.216 83.8991 281.216 84.103C281.216 86.3507 281.216 88.5984 281.216 90.8461V91.6208C282.33 89.9694 283.356 88.4557 284.382 86.947C285.074 85.9276 285.756 84.9083 286.49 83.8889C286.684 83.6566 286.962 83.51 287.265 83.4811C288.819 83.4658 290.358 83.4862 292.061 83.4862Z" fill="#232F67"/>
<path d="M108.499 28.6391L77.8991 34.8624C77.3194 31.947 76.7653 29.1284 76.1856 26.1978C77.5759 26.58 78.8737 26.9266 80.1716 27.2885C81.172 27.5688 82.1621 27.8899 83.1727 28.1244C83.6548 28.2248 84.1492 28.254 84.6399 28.211C86.5893 28.0836 88.5387 27.9256 90.4829 27.7727C92.4272 27.6198 94.3766 27.4363 96.326 27.3089C98.8397 27.1407 101.353 26.9674 103.872 26.8807C105.329 26.8349 107.663 27.788 108.499 28.6391Z" fill="#ED1E24"/>
<path d="M512.867 83.7513C512.867 82.2222 512.867 80.6932 512.867 79.1641V78.5423H363.455V104.292C363.455 104.526 363.455 104.766 363.425 105H505.423C506.594 104.738 507.746 104.398 508.87 103.981C509.902 103.573 510.813 102.914 511.521 102.064C512.228 101.214 512.709 100.201 512.918 99.1182C512.918 99.0826 512.974 99.0571 513 99.0265V84.4954C512.934 84.2517 512.889 84.0027 512.867 83.7513ZM385.171 93.4353C383.572 94.0691 381.85 94.3357 380.133 94.2151H379.374V100.917H375.09V100.214C375.09 94.4648 375.09 88.7156 375.09 82.9715C375.09 82.3598 375.27 82.1356 375.885 82.1152C377.901 82.0591 379.918 81.8807 381.934 81.9011C382.995 81.926 384.047 82.1116 385.053 82.4516C386.097 82.7783 387.016 83.416 387.684 84.2784C388.352 85.1408 388.737 86.1862 388.787 87.2732C388.88 90.3058 387.669 92.3802 385.171 93.4506V93.4353ZM401.135 100.943C401.02 100.917 400.914 100.863 400.824 100.787C400.735 100.71 400.666 100.613 400.622 100.505C400.196 99.1947 399.822 97.8644 399.396 96.5545C399.335 96.3609 399.088 96.0856 398.924 96.0805C397.206 96.0449 395.487 96.0805 393.722 96.0805C393.261 97.7166 392.809 99.3272 392.348 100.958H387.951C388.315 99.7655 388.659 98.5984 389.018 97.4363C390.537 92.4923 392.055 87.5467 393.574 82.5994C393.585 82.5073 393.616 82.4185 393.663 82.3385C393.711 82.2586 393.774 82.189 393.849 82.1341C393.925 82.0793 394.011 82.0403 394.102 82.0195C394.193 81.9987 394.287 81.9966 394.379 82.0133C396.031 82.0438 397.688 82.0133 399.401 82.0133C401.366 88.3078 403.331 94.5923 405.321 100.973C403.875 100.979 402.5 100.994 401.135 100.958V100.943ZM418.577 83.9399C416.966 86.7737 415.345 89.6075 413.75 92.4567C413.556 92.8126 413.451 93.2092 413.442 93.6137C413.411 95.7951 413.442 97.9817 413.442 100.163V100.917H409.164V100.24C409.164 98.0989 409.164 95.9582 409.164 93.8175C409.16 93.3935 409.056 92.9763 408.861 92.5994C407.107 89.2966 405.326 86.0092 403.551 82.7166C403.444 82.5127 403.346 82.3038 403.203 82.0081C404.777 82.0081 406.281 82.0081 407.758 82.0336C407.927 82.0336 408.153 82.3242 408.24 82.5433C409.266 84.9218 410.272 87.3004 411.257 89.6789L411.503 90.2599C411.97 89.1233 412.39 88.0785 412.826 87.0336C413.457 85.5046 414.104 84.0112 414.719 82.4923C414.762 82.3271 414.865 82.1835 415.008 82.0893C415.151 81.9951 415.324 81.9571 415.494 81.9827C416.853 81.9827 418.218 81.9827 419.696 81.9827L418.577 83.9399ZM438.323 100.917H426.457V82.0591H430.684V97.4057H438.323V100.917ZM452.338 100.917C452.174 100.917 451.927 100.652 451.866 100.469C451.449 99.2015 451.059 97.9239 450.696 96.6361C450.573 96.1978 450.399 96.0092 449.901 96.0194C448.465 96.0601 447.028 96.0499 445.592 96.0194C445.499 96.0002 445.403 96.0011 445.31 96.0219C445.217 96.0426 445.13 96.0828 445.054 96.1398C444.979 96.1967 444.916 96.2691 444.871 96.3521C444.825 96.435 444.798 96.5266 444.792 96.6208C444.427 98.053 444.007 99.475 443.601 100.912H439.2C439.738 99.1437 440.272 97.4006 440.806 95.6575C442.139 91.315 443.483 86.9929 444.802 82.6198C444.951 82.1101 445.151 81.9419 445.689 81.9572C447.321 81.998 448.952 81.9572 450.655 81.9572C452.62 88.262 454.59 94.5617 456.57 100.917C455.118 100.979 453.728 100.994 452.338 100.958V100.917ZM469.451 85.4791H464.265V100.917H459.961V85.525H454.862V82.0591H469.441L469.451 85.4791ZM483.39 100.902H471.339V82.0591H483.015V85.3976C482.764 85.3976 482.533 85.4281 482.302 85.4281C480.25 85.4281 478.198 85.4281 476.146 85.4281C475.674 85.4281 475.489 85.5352 475.505 86.0398C475.541 87.156 475.505 88.2722 475.505 89.4648H482.512V92.9205H475.587V97.4618H483.39V100.902ZM496.102 100.902C495.958 100.902 495.748 100.607 495.691 100.392C495.301 99.0928 494.901 97.7982 494.588 96.4781C493.952 93.8175 493.024 93.1498 490.171 93.4607V100.917H485.867V100.311C485.867 94.5158 485.867 88.7207 485.867 82.9307C485.867 82.3751 486.021 82.156 486.58 82.1356C488.632 82.0642 490.684 81.8756 492.736 81.9164C493.948 81.9524 495.148 82.1671 496.297 82.5535C498.323 83.2161 499.375 84.7503 499.513 86.84C499.652 88.9297 498.698 90.581 496.825 91.6412C496.712 91.7074 496.594 91.7635 496.481 91.8196L496.076 92.0336C497.615 92.7574 498.246 94.0367 498.641 95.4689C499.154 97.2681 499.667 99.0724 500.18 100.963C498.816 100.973 497.456 100.989 496.102 100.953V100.902Z" fill="#ED1E24"/>
<path d="M493.593 85.2141C492.472 84.943 491.307 84.9083 490.171 85.1121V90.6167C491.358 90.5066 492.537 90.3227 493.701 90.0663C494.193 89.8691 494.613 89.5278 494.904 89.0878C495.196 88.6478 495.346 88.13 495.334 87.6032C495.323 87.0764 495.15 86.5656 494.839 86.1388C494.528 85.712 494.093 85.3895 493.593 85.2141Z" fill="#ED1E24"/>
<path d="M445.628 92.8746H449.86C449.132 90.3007 448.413 87.7778 447.664 85.1478C446.972 87.788 446.31 90.3211 445.628 92.8746Z" fill="#ED1E24"/>
<path d="M394.4 92.8848H398.632C397.903 90.2956 397.185 87.7625 396.441 85.1376C395.749 87.7625 395.082 90.2905 394.4 92.8848Z" fill="#ED1E24"/>
<path d="M382.211 85.1631C381.262 85.1117 380.312 85.1117 379.363 85.1631C379.363 87.0489 379.363 88.8175 379.363 90.5861C379.363 90.7187 379.548 90.9582 379.661 90.9633C380.785 91.0245 381.918 91.1162 382.975 90.5759C383.533 90.2792 383.982 89.8148 384.259 89.2491C384.535 88.6834 384.625 88.0453 384.514 87.4261C384.451 86.8432 384.187 86.2999 383.767 85.8876C383.348 85.4754 382.798 85.2195 382.211 85.1631Z" fill="#ED1E24"/>
</svg>
