<svg width="300" height="112" viewBox="0 0 300 112" fill="none" xmlns="http://www.w3.org/2000/svg">
<g clip-path="url(#clip0_1_422)">
<path fill-rule="evenodd" clip-rule="evenodd" d="M88.7495 71.3824C88.7495 64.11 92.2879 56.5606 99.3646 48.7339C106.441 40.9072 110.335 33.8205 111.045 27.474C112.486 42.8576 109.461 53.401 101.971 59.104C94.4811 64.8069 90.0739 68.8996 88.7495 71.3824Z" fill="black"/>
<path fill-rule="evenodd" clip-rule="evenodd" d="M107.139 16.7438C106.204 19.7141 103.605 22.3428 99.3423 24.63C94.8887 26.9985 89.9922 28.417 84.9624 28.7958C90.0598 26.2448 94.0719 21.9482 96.2681 16.6881C98.3547 11.5767 97.8598 6.11635 94.7829 0.306931C92.6146 9.03218 87.2421 12.9641 78.6653 12.1027C65.804 10.8106 38.6295 5.29703 22.7495 12.1027C6.86952 18.9084 -0.333464 32.0149 0.0118333 33.0953C1.52668 37.2277 13.0069 56.2822 13.8571 55.7141C17.0032 53.6769 20.9859 50.802 25.8052 47.0891L13.8571 57.1139L16.6418 64.5767L15.9958 76.7475C15.8625 77.5254 15.9688 78.3251 16.3002 79.0413C16.6318 79.7572 17.173 80.3557 17.8522 80.7574C19.2631 81.6708 21.7532 82.0792 25.3225 81.9827C27.06 82.39 28.7168 83.0869 30.2235 84.0433C31.4925 84.9084 32.5477 86.0512 33.3089 87.3849L33.5651 89.7574C34.3868 90.9214 35.4044 91.9339 36.5725 92.75C37.9686 96.0556 38.6677 99.6136 38.6257 103.202C38.4464 106.159 37.6656 109.048 36.3312 111.693C49.9303 109.859 60.9301 105.578 69.3312 98.8503C77.7323 92.1225 83.2147 81.552 85.7792 67.1386C86.9822 63.2056 87.9067 60.4369 88.5527 58.8329C89.3759 56.9141 90.3282 55.0532 91.4042 53.2636C89.0736 53.9215 86.7951 54.7517 84.5874 55.7475C82.7963 56.7363 81.1125 57.9084 79.5639 59.2451C78.8213 58.3985 80.7631 55.9814 85.3894 51.9938C92.2953 45.9753 98.5775 43.6733 103.386 35.9505C106.608 30.7525 107.86 24.3503 107.139 16.7438ZM17.1542 58.328C17.2767 56.1374 20.4326 54.5149 22.9128 53.3304C24.5838 52.5511 26.3241 51.9296 28.1109 51.474L23.7668 54.8156L28.1109 54.0359C26.7742 55.9072 25.7235 57.3404 24.9586 58.3354C24.2161 59.3267 23.4735 60.229 22.7309 61.0309C19.0032 60.6485 17.1542 59.7574 17.1542 58.3317V58.328ZM60.3312 80.3787C57.9921 85.703 50.4524 89.0446 37.7124 90.4035C36.0638 88.0087 35.7297 86.5384 36.5985 86.0483C37.4673 85.5582 41.3881 85.677 44.8188 85.224C46.6567 84.9456 49.9834 83.8317 50.9748 80.3787C51.6431 78.0619 51.1207 74.349 49.4079 69.2401L36.4425 78.6485C36.2467 78.7484 36.0361 78.816 35.8188 78.849C35.5452 78.8895 35.2664 78.8757 34.9982 78.8085C34.7299 78.7413 34.4776 78.6218 34.2555 78.4569C34.0335 78.2921 33.8461 78.0853 33.7041 77.848C33.562 77.6108 33.4681 77.3479 33.4277 77.0743L37.3374 72.1399V67.5619C38.1925 67.11 39.1437 66.8694 40.1109 66.8602C41.475 66.9262 42.8257 67.162 44.1319 67.5619C42.6572 66.1722 40.7673 65.3048 38.752 65.0928C36.7184 65.0011 34.7097 65.5703 33.0267 66.7154C33.4795 67.2816 33.8541 67.9057 34.1406 68.5718C34.4044 69.1428 34.5557 69.7592 34.5861 70.3874C34.364 71.0498 33.9813 71.6468 33.4722 72.125C32.4547 72.95 31.3747 73.6948 30.242 74.3527C29.9851 75.1076 29.5494 75.7889 28.9722 76.3391C28.2247 76.941 27.3761 77.4047 26.4661 77.7092C25.2143 77.5681 23.9737 77.3412 22.7532 77.0297C21.5391 76.7178 20.8596 76.4728 20.8596 76.2871C21.0783 72.8891 21.5061 69.5078 22.1406 66.1621C22.7643 62.8625 24.5155 62.8625 27.3943 66.1621V63.6597C28.2558 63.6585 29.108 63.48 29.8975 63.135C30.687 62.7897 31.3971 62.2859 31.9834 61.6547C32.4351 61.1468 32.6847 60.4911 32.6847 59.8113C32.6847 59.1314 32.4351 58.4757 31.9834 57.9678C32.1617 58.5333 32.1617 59.14 31.9834 59.7054C31.8274 60.0173 31.4153 60.2512 30.7693 60.2512C30.1985 60.0727 29.7068 59.7029 29.3769 59.2042C29.2429 59.026 29.1704 58.8092 29.1704 58.586C29.1704 58.3629 29.2429 58.146 29.3769 57.9678C30.6467 56.5532 31.8497 55.9517 32.9636 56.1411C34.0774 56.3305 35.299 57.3552 36.6059 59.2042C39.3683 58.599 41.2248 56.0594 42.1233 51.5446C43.0144 47.0891 45.3163 44.3453 49.0292 43.3131C48.108 47.5451 47.9083 51.9021 48.4389 56.2005C48.825 59.9278 50.0458 63.5208 52.0106 66.7116C52.2583 58.8281 52.8041 55.5582 53.648 56.9022C54.7619 58.8441 63.8287 72.3849 60.3312 80.3824V80.3787ZM49.8386 77.4827C49.8386 78.4072 47.9822 80.3787 44.8968 81.3255C42.3553 81.9604 39.6969 81.9604 37.1554 81.3255L47.6035 73.651L49.1406 75.0545L44.8968 78.2772C48.1938 77.1337 49.8412 76.8701 49.8386 77.4864V77.4827ZM62.6369 56.4344C64.4265 50.7415 64.872 46.9135 63.9735 44.9505C63.075 42.9875 60.7767 42.813 57.0787 44.427C57.5243 40.9889 58.6938 38.9962 60.5874 38.4493C63.4389 37.6361 68.3844 41.0186 68.3844 46.8998C68.3844 50.8231 66.4686 54.0025 62.6369 56.4381V56.4344Z" fill="black"/>
<path d="M129.958 23.0024V14.1421H165.162V23.0024H152.979V54.6463H142.141V23.0024H129.958Z" fill="black"/>
<path d="M180.297 14.1421V54.6463H169.3V14.1421H180.297Z" fill="black"/>
<path d="M184.4 23.0024V14.1421H219.604V23.0024H207.421V54.6463H196.583V23.0024H184.4Z" fill="black"/>
<path d="M229.152 54.6463H217.285L230.655 14.1421H245.686L259.055 54.6463H247.189L238.328 25.2966H238.012L229.152 54.6463Z" fill="black"/>
<path d="M298.001 14.1421V54.6463H288.825L274.19 33.3657H273.952V54.6463H262.956V14.1421H272.291L286.689 35.3435H287.005V14.1421H298.001Z" fill="black"/>
<path d="M152.716 74.046C152.568 73.4449 152.336 72.9177 152.019 72.464C151.701 71.9991 151.304 71.6082 150.828 71.2907C150.363 70.9618 149.819 70.7178 149.195 70.5593C148.583 70.3892 147.908 70.3042 147.171 70.3042C145.583 70.3042 144.229 70.684 143.106 71.4437C141.995 72.2033 141.144 73.2975 140.555 74.7262C139.977 76.155 139.687 77.8785 139.687 79.8968C139.687 81.9378 139.965 83.6843 140.52 85.1357C141.076 86.587 141.904 87.6983 143.004 88.4691C144.104 89.2402 145.47 89.6256 147.103 89.6256C148.543 89.6256 149.739 89.4158 150.692 88.9963C151.655 88.5767 152.376 87.9816 152.852 87.2104C153.328 86.4396 153.566 85.5326 153.566 84.4892L155.199 84.6593H147.239V77.9238H162.683V82.7542C162.683 85.9291 162.008 88.6451 160.659 90.9014C159.321 93.1465 157.472 94.8701 155.114 96.0719C152.767 97.2626 150.074 97.8578 147.035 97.8578C143.645 97.8578 140.668 97.1379 138.105 95.6977C135.543 94.2578 133.541 92.2053 132.102 89.5406C130.673 86.8762 129.958 83.7069 129.958 80.0331C129.958 77.153 130.395 74.6015 131.268 72.379C132.152 70.1568 133.377 68.28 134.942 66.7491C136.507 65.2072 138.315 64.0451 140.368 63.2624C142.42 62.4689 144.62 62.072 146.967 62.072C149.031 62.072 150.947 62.3668 152.716 62.9564C154.496 63.5345 156.066 64.3625 157.427 65.4396C158.799 66.5056 159.905 67.7698 160.744 69.2327C161.583 70.6952 162.093 72.2999 162.275 74.046H152.716Z" fill="black"/>
<path d="M167.092 97.3818V62.548H182.128C184.713 62.548 186.975 63.0188 188.914 63.96C190.853 64.9009 192.361 66.2561 193.438 68.0249C194.516 69.7937 195.054 71.9141 195.054 74.3861C195.054 76.8808 194.498 78.9842 193.387 80.6962C192.287 82.4085 190.74 83.701 188.744 84.5743C186.76 85.4475 184.441 85.8838 181.787 85.8838H172.807V78.5364H179.882C180.994 78.5364 181.94 78.4001 182.723 78.128C183.517 77.8447 184.123 77.3965 184.543 76.7843C184.974 76.172 185.189 75.3727 185.189 74.3861C185.189 73.3881 184.974 72.5776 184.543 71.9538C184.123 71.3189 183.517 70.8541 182.723 70.5593C181.94 70.253 180.994 70.1 179.882 70.1H176.549V97.3818H167.092ZM187.502 81.3938L196.211 97.3818H185.938L177.433 81.3938H187.502Z" fill="black"/>
<path d="M232.83 79.9651C232.83 83.8428 232.076 87.1142 230.568 89.779C229.06 92.4322 227.025 94.4449 224.462 95.8168C221.9 97.1776 219.042 97.8578 215.89 97.8578C212.715 97.8578 209.846 97.172 207.284 95.7998C204.732 94.4163 202.703 92.398 201.194 89.7448C199.698 87.0801 198.949 83.8202 198.949 79.9651C198.949 76.087 199.698 72.8212 201.194 70.1679C202.703 67.5032 204.732 65.4908 207.284 64.1301C209.846 62.7578 212.715 62.072 215.89 62.072C219.042 62.072 221.9 62.7578 224.462 64.1301C227.025 65.4908 229.06 67.5032 230.568 70.1679C232.076 72.8212 232.83 76.087 232.83 79.9651ZM223.101 79.9651C223.101 77.8785 222.824 76.1212 222.268 74.6925C221.724 73.2522 220.913 72.1636 219.836 71.4266C218.77 70.6781 217.455 70.3042 215.89 70.3042C214.325 70.3042 213.004 70.6781 211.927 71.4266C210.861 72.1636 210.05 73.2522 209.495 74.6925C208.95 76.1212 208.678 77.8785 208.678 79.9651C208.678 82.0514 208.95 83.8146 209.495 85.2545C210.05 86.6832 210.861 87.7718 211.927 88.5203C213.004 89.2573 214.325 89.6256 215.89 89.6256C217.455 89.6256 218.77 89.2573 219.836 88.5203C220.913 87.7718 221.724 86.6832 222.268 85.2545C222.824 83.8146 223.101 82.0514 223.101 79.9651Z" fill="black"/>
<path d="M257.82 62.548H267.276V84.8635C267.276 87.5167 266.641 89.8128 265.371 91.752C264.113 93.6793 262.355 95.1704 260.099 96.2253C257.842 97.2682 255.223 97.7899 252.241 97.7899C249.236 97.7899 246.605 97.2682 244.349 96.2253C242.092 95.1704 240.335 93.6793 239.076 91.752C237.829 89.8128 237.205 87.5167 237.205 84.8635V62.548H246.662V84.047C246.662 85.1241 246.9 86.088 247.376 86.9382C247.852 87.7774 248.51 88.4353 249.35 88.9113C250.2 89.3876 251.164 89.6256 252.241 89.6256C253.329 89.6256 254.293 89.3876 255.132 88.9113C255.971 88.4353 256.629 87.7774 257.105 86.9382C257.581 86.088 257.82 85.1241 257.82 84.047V62.548Z" fill="black"/>
<path d="M271.771 97.3818V62.548H286.807C289.392 62.548 291.654 63.0585 293.593 64.0788C295.532 65.0995 297.04 66.5338 298.117 68.3821C299.195 70.2303 299.733 72.3905 299.733 74.8625C299.733 77.3568 299.178 79.517 298.066 81.3426C296.966 83.1682 295.419 84.5743 293.423 85.5608C291.438 86.5473 289.12 87.0404 286.467 87.0404H277.486V79.693H284.561C285.673 79.693 286.62 79.4999 287.402 79.1145C288.196 78.7176 288.802 78.1562 289.222 77.4307C289.653 76.7048 289.868 75.849 289.868 74.8625C289.868 73.8645 289.653 73.0142 289.222 72.311C288.802 71.5967 288.196 71.0524 287.402 70.6781C286.62 70.2927 285.673 70.1 284.561 70.1H281.228V97.3818H271.771Z" fill="black"/>
</g>
<defs>
<clipPath id="clip0_1_422">
<rect width="300" height="111.386" fill="white" transform="translate(0 0.306931)"/>
</clipPath>
</defs>
</svg>
