<svg width="170" height="32" viewBox="0 0 170 32" fill="none" xmlns="http://www.w3.org/2000/svg">
<path d="M91.3 26.9V25C90.1 26.4 88.4 27.3 86.5 27.2C83.6 27.2 81.3 25.4 81.3 22.3C81.3 18.5 84.8 17.1 88.3 16.8L89.6 16.6C90.9 16.5 91.4 15.8 91.4 14.9C91.4 13.8 90.4 13 88.8 13C87.1 13.1 85.6 13.9 84.6 15.3L82.6 12.9C84.2 11 86.5 9.99998 89 10.1C92.8 10.1 94.9 12 94.9 15.3V26.9H91.3ZM91.3 19.1L88.8 19.4C86.7 19.7 84.8 20.4 84.8 22.2C84.9 23.5 85.9 24.4 87.2 24.4H87.3C88.9 24.3 90.4 23.5 91.3 22.2V19.1Z" fill="#231F20"/>
<path d="M101.7 26.9H98.1001V10.6H101.7V12.4C103.1 11 105 10.2 107 10.2C108.9 10.2 111.6 11.3 111.6 15.3V26.9H108V16.2C108 14.6 107.3 13.2 105.7 13.2C104.2 13.4 102.8 14.1 101.7 15.1V26.9Z" fill="#231F20"/>
<path d="M124.3 10.6H127.9V26.9H124.2V25.1C123 26.4 121.3 27.2 119.5 27.2C117.4 27.2 114.5 26.1 114.5 22V10.6H118.1V20.9C118.1 22.8 118.9 24.1 120.6 24.1C122.1 24 123.4 23.3 124.4 22.1L124.3 10.6Z" fill="#231F20"/>
<path d="M135.5 26.9H131.9V5.39999L135.5 1.79999V26.9Z" fill="#231F20"/>
<path d="M141.3 3.20001C142.6 3.20001 143.6 4.20001 143.6 5.50001C143.6 6.80001 142.6 7.80001 141.3 7.80001C140 7.80001 139 6.80001 139 5.50001C139 4.30001 140.1 3.30001 141.3 3.20001C141.4 3.20001 141.3 3.20001 141.3 3.20001ZM143.2 26.9H139.4V10.6H143.2V26.9Z" fill="#231F20"/>
<path d="M154.6 13.6H151.2V26.9H147.6V13.6H145.4V10.6H147.6V7.19998C147.5 4.49998 149.5 2.19998 152.2 2.09998C152.4 2.09998 152.6 2.09998 152.7 2.09998C154 2.09998 155.2 2.39998 156.4 2.99998L155.3 5.79998C154.7 5.39998 154 5.19998 153.3 5.19998C152.2 5.19998 151.2 6.09998 151.2 7.29998C151.2 7.39998 151.2 7.39998 151.2 7.49998V10.7H155.5L154.6 13.6Z" fill="#231F20"/>
<path d="M158.9 19.7C158.8 22.1 160.6 24.1 163 24.2C163 24.2 163 24.2 163.1 24.2C164.8 24.1 166.4 23.2 167.3 21.7L169.5 23.8C167.9 26 165.4 27.3 162.7 27.3C158 27.3 155.1 23.8 155.1 18.8C155.1 13.9 158.2 10.3 162.8 10.3C167.1 10.3 170.2 13.1 170 19.8H158.9V19.7ZM166.3 17C166.5 15 165 13.3 163 13.1C162.9 13.1 162.9 13.1 162.8 13.1C160.7 13.2 159.1 14.9 159 17H166.3Z" fill="#231F20"/>
<path d="M60.7 26.9H56.7V4.29999H60.9L67.6999 15.5L74.4 4.29999H78.5999V27H74.5999V10.9H74.5L67.6999 22.3L60.7999 10.9V26.9H60.7Z" fill="#231F20"/>
<path d="M22.7 5.7V31.2L28.2999 25.5V0L22.7 5.7Z" fill="#231F20"/>
<path d="M11.3 31.2L17 25.5V0L11.3 5.7V31.2Z" fill="#231F20"/>
<path d="M0 31.2L5.7 25.5V0L0 5.7V31.2Z" fill="#231F20"/>
</svg>
