<svg width="273" height="136" viewBox="0 0 273 136" fill="none" xmlns="http://www.w3.org/2000/svg">
<g clip-path="url(#clip0_1_129)">
<path fill-rule="evenodd" clip-rule="evenodd" d="M0 16.7237H6.66745V49.7067H6.81922C7.88014 47.8126 9.5466 46.0702 11.5925 45.0077C13.6463 43.7569 16.0071 43.1012 18.4118 43.1136C23.3352 43.1136 31.2153 46.1446 31.2153 58.7964V80.617H24.5464V59.557C24.5464 53.5709 22.3519 48.6475 16.0622 48.6475C11.7427 48.6475 8.4098 51.6783 7.12121 55.3133C6.74176 56.2224 6.66745 57.2074 6.66745 58.4961V80.6186H0V16.7237ZM43.4894 43.95L51.4454 65.6204C52.3581 68.0845 53.1667 70.5859 53.8691 73.118H54.0209C54.704 70.9218 55.4629 68.1185 56.3705 65.4655L63.6435 43.95H70.6904L60.6884 70.0886C55.9151 82.6661 48.2026 103.125 48.2026 103.125L40.2529 103.132C40.2529 103.132 50.2343 79.9404 50.2343 79.4834C50.2343 79.1039 50.0841 78.5726 49.7062 77.8185L36.2196 43.95H43.4894ZM107.661 16.7237V71.1495C107.661 74.4049 107.738 78.1158 107.964 80.617H101.98L101.676 74.2531H101.525C99.4788 78.345 95.0834 81.4518 89.1006 81.4518C80.2355 81.4518 73.3418 73.9512 73.3418 62.814C73.2659 50.54 80.9169 43.1153 89.782 43.1153C95.4645 43.1153 99.2527 45.7666 100.843 48.6475H100.995V16.7253L107.661 16.7237ZM100.994 58.8739C100.994 57.9663 100.918 56.9038 100.691 55.9947C99.7065 51.8286 96.07 48.3439 91.069 48.3439C84.1739 48.3439 80.0837 54.4042 80.0837 62.4361C80.0837 69.9368 83.7961 76.073 90.9187 76.073C95.3886 76.073 99.4804 73.0436 100.693 68.1185C100.921 67.2109 100.995 66.3003 100.995 65.241L100.994 58.8739ZM118.798 55.3907C118.798 51.0728 118.724 47.3589 118.496 43.95H124.329L124.632 51.1472H124.86C126.526 46.222 130.618 43.1153 135.088 43.1153C135.771 43.1153 136.302 43.1911 136.907 43.3429V49.5549C136.149 49.479 135.466 49.4048 134.557 49.4048C129.859 49.4048 126.526 52.9654 125.619 57.8889C125.462 58.9424 125.385 60.0064 125.39 61.0716V80.6186H118.724L118.798 55.3907ZM157.97 81.4518C148.119 81.4518 140.393 74.1788 140.393 62.5847C140.393 50.3124 148.498 43.1153 158.575 43.1153C169.108 43.1153 176.23 50.7677 176.23 61.9049C176.23 75.5449 166.759 81.4518 158.044 81.4518H157.97ZM158.199 76.4524C164.559 76.4524 169.335 70.4681 169.335 62.1309C169.335 55.9205 166.228 48.1146 158.348 48.1146C150.543 48.1146 147.137 55.3892 147.137 62.3586C147.137 70.3905 151.68 76.4524 158.121 76.4524H158.199Z" fill="black"/>
<path fill-rule="evenodd" clip-rule="evenodd" d="M171.335 134.744C160.303 134.744 151.821 127.496 151.821 115.311C151.821 103.125 159.843 95.3369 172.026 95.3369C183.52 95.3369 191.23 103.279 191.23 114.693C191.23 128.423 181.434 134.744 171.41 134.744H171.335ZM171.567 126.337C176.193 126.337 179.046 121.789 179.046 115.001C179.046 109.448 176.884 103.742 171.567 103.742C166.011 103.742 163.853 109.448 163.853 115.078C163.853 121.48 166.552 126.337 171.489 126.337H171.567ZM195.394 108.213C195.394 103.51 195.243 99.5758 195.089 96.186H205.267L205.809 101.429H206.04C207.581 98.9592 211.359 95.3353 217.685 95.3353C225.396 95.3353 231.179 100.502 231.179 111.606V133.897H219.457V112.998C219.457 108.137 217.761 104.82 213.522 104.82C210.281 104.82 208.351 107.059 207.505 109.217C207.193 109.989 207.12 111.067 207.12 112.149V133.898H195.394V108.213ZM246.526 118.704C246.912 123.638 251.694 125.952 257.17 125.952C261.178 125.952 264.418 125.414 267.58 124.334L269.122 132.276C265.267 133.896 260.562 134.666 255.472 134.666C242.668 134.666 235.345 127.264 235.345 115.388C235.345 105.824 241.361 95.261 254.392 95.261C266.578 95.261 271.208 104.744 271.208 114.076C271.208 116.084 270.976 117.856 270.822 118.783L246.526 118.704ZM260.329 110.681C260.329 107.905 259.098 103.048 253.775 103.048C248.763 103.048 246.758 107.6 246.447 110.681H260.329Z" fill="black"/>
<path fill-rule="evenodd" clip-rule="evenodd" d="M260.352 35.6177C260.834 44.7343 257.682 53.7654 250.804 60.289C237.831 72.593 216.644 71.3171 203.484 57.4398C190.326 43.5642 190.172 22.3397 203.15 10.0341C209.187 4.30903 217.008 1.56268 224.968 1.62276C212.604 -1.34178 199.884 1.18638 190.891 9.71476C175.67 24.1438 176.904 50.1527 193.646 67.8055C210.389 85.4567 236.292 88.072 251.509 73.6413C261.567 64.1042 264.393 49.514 260.352 35.6177Z" fill="black"/>
<path fill-rule="evenodd" clip-rule="evenodd" d="M203.896 24.5881L241.443 0.54129L254.447 6.67591L214.938 31.9496L203.896 24.5881ZM222.444 45.2228L259.993 21.1729L273 27.3091L233.489 52.5859L222.444 45.2228Z" fill="black"/>
</g>
<defs>
<clipPath id="clip0_1_129">
<rect width="273" height="135.135" fill="white" transform="translate(0 0.432526)"/>
</clipPath>
</defs>
</svg>
