<?xml version="1.0" encoding="UTF-8"?>
<svg id="Capa_1" data-name="Capa 1" xmlns="http://www.w3.org/2000/svg" viewBox="0 0 200 200">
  <defs>
    <style>
      .cls-1 {
        fill: none;
      }

      .cls-2 {
        fill: #ff3a97;
      }

      .cls-3 {
        fill: #2f0013;
      }
    </style>
  </defs>
  <rect class="cls-1" width="200" height="200"/>
  <circle class="cls-3" cx="100" cy="100" r="100"/>
  <g>
    <path class="cls-2" d="M45.54,16.12c-2.35-.55-4.92-.82-7.49-.82-8.93,0-17.86,3.21-17.86,10.77V160.26c6.44,8.51,14.21,15.97,23,22.05,6.93-1.14,12.73-4.67,12.73-10.58V26.07c0-5.38-4.54-8.56-10.38-9.94h0Z"/>
    <path class="cls-2" d="M162.41,11.41c-4.48,0-8.55,.86-11.7,2.38-3.92,1.9-6.4,4.82-6.4,8.38V89.74c-4.81-8.93-15.11-17.4-29.09-17.4-22.45,0-40.54,21.75-40.54,48.1v16.03c0,25.42,18.55,48.55,39.86,48.55,14.66,0,27.48-8.93,32.06-18.32v5.04c0,4.34,4.43,8.68,10.58,10.31,8.64-6.03,16.28-13.39,22.62-21.78V22.18c0-6.42-7.33-10.76-17.41-10.76h0Zm-18.1,128.02c0,3.9-7.78,14.66-17.64,14.66-9.16,0-16.49-8.7-16.49-17.63v-16.03c0-8.7,7.33-17.18,16.72-17.18,8.25,0,17.41,6.42,17.41,17.18v19.01h0Z"/>
  </g>
</svg>