<?xml version="1.0" encoding="UTF-8"?>
<svg id="Capa_1" data-name="Capa 1" xmlns="http://www.w3.org/2000/svg" viewBox="0 0 250 250">
  <defs>
    <style>
      .cls-1 {
        fill: #ff1ac4;
      }

      .cls-2 {
        fill: #2f001e;
      }
    </style>
  </defs>
  <circle class="cls-2" cx="125" cy="125" r="125"/>
  <g>
    <path class="cls-1" d="M137.56,182.2l-41.92-64.7,40.23-64.46c1.69-2.66,2.42-5.09,2.42-7.51,0-10.18-13.82-17.93-24.48-17.93-5.33,0-8.96,1.94-11.39,6.3l-32.23,56.22-31.71-55.33-.52-.89c-2.42-4.36-6.06-6.3-11.39-6.3-10.66,0-24.47,7.75-24.47,17.93,0,2.42,.73,4.85,2.42,7.51l9.27,14.84,30.96,49.62L9.26,172.28c5.2,12.73,12.45,24.42,21.33,34.64,1.8-.63,3.28-1.66,4.22-3.15l35.38-60.1,35.38,60.1c1.45,2.66,5.09,3.88,8.97,3.88,10.42,0,25.2-8.24,25.2-18.66,0-2.18-.73-4.36-2.18-6.79Z"/>
    <path class="cls-1" d="M230.94,24.93c-10.03,0-18.13,4.07-19.06,10.2-.06,.39-.09,.78-.09,1.18V107.81c-5.09-9.45-16-18.42-30.78-18.42-23.75,0-42.89,23.02-42.89,50.89v16.96c0,26.9,19.63,51.38,42.16,51.38,15.51,0,29.08-9.45,33.93-19.39v5.33c0,3.68,3.01,7.36,7.55,9.57,15.11-18.44,25.04-41.28,27.59-66.3V36.32c0-6.79-7.75-11.39-18.42-11.39Zm-19.14,135.46c0,4.12-8.24,15.5-18.66,15.5-9.69,0-17.45-9.2-17.45-18.66v-16.96c0-9.21,7.75-18.17,17.69-18.17,8.72,0,18.42,6.79,18.42,18.17v20.12Z"/>
  </g>
</svg>