<?xml version="1.0" encoding="UTF-8"?>
<svg id="Layer_1" data-name="Layer 1" xmlns="http://www.w3.org/2000/svg" viewBox="0 0 249.99 250">
  <defs>
    <style>
      .cls-1 {
        fill: #fff;
      }

      .cls-2 {
        fill: #ff0065;
      }

      .cls-3 {
        fill: #ff5ba0;
      }

      .cls-4 {
        fill: #b0044b;
      }
    </style>
  </defs>
  <path class="cls-2" d="M249.99,7.49c-.03-4.12-3.36-7.46-7.49-7.49H7.49C3.36,.03,.03,3.36,0,7.49V242.5c.03,4.12,3.36,7.46,7.49,7.49H182.65l67.34-67.34V7.49Z"/>
  <path class="cls-4" d="M184.51,184.87h63.24l-65.1,65.1h-62.89l64.75-65.1Z"/>
  <path class="cls-3" d="M249.99,182.63h-59.88c-4.12,.03-7.46,3.36-7.49,7.49v59.88l67.37-67.37Z"/>
  <path class="cls-1" d="M174.03,87.96v75.22c.03,1.41-1.09,2.58-2.5,2.61-.04,0-.07,0-.11,0h-19.47c-1.41,.03-2.58-1.09-2.61-2.5,0-.04,0-.07,0-.11v-37.44l-23.95,33.31-24.7-34.8v39.29c.03,1.41-1.09,2.58-2.5,2.61-.04,0-.07,0-.11,0h-19.46c-1.41,.03-2.58-1.09-2.61-2.5,0-.04,0-.07,0-.11V87.96c-.03-1.41,1.09-2.58,2.5-2.61,.04,0,.07,0,.11,0h17.21c.75,0,1.48,.38,2.25,1.12l26.57,36.67,26.94-36.67c.38-.75,1.48-1.12,2.25-1.12h17.59c1.4,.1,2.51,1.21,2.61,2.61"/>
</svg>