<?xml version="1.0" encoding="UTF-8"?>
<svg id="Capa_1" data-name="Capa 1" xmlns="http://www.w3.org/2000/svg" viewBox="0 0 200 200">
  <defs>
    <style>
      .cls-1 {
        fill: #00cf7f;
      }

      .cls-2 {
        fill: #00bcff;
      }

      .cls-3 {
        fill: #ff4d12;
      }

      .cls-4 {
        fill: #fff;
      }

      .cls-5 {
        fill: #ff7361;
      }

      .cls-6 {
        fill: #b659ff;
      }
    </style>
  </defs>
  <rect class="cls-4" width="200" height="200"/>
  <path class="cls-2" d="M100.23,100c0-18.41,14.92-33.34,33.34-33.34s33.34,14.93,33.34,33.34-14.93,33.34-33.34,33.34-33.34-14.92-33.34-33.34Z"/>
  <path class="cls-1" d="M33.56,166.66c0-18.41,14.92-33.34,33.34-33.34l17.76-9.38,15.57,9.38v33.34c0,18.41-14.92,33.34-33.34,33.34s-33.33-14.92-33.33-33.34h0Z"/>
  <path class="cls-5" d="M100.23,0l-18.14,31.51,18.14,35.15h32.86c18.41,0,33.34-14.92,33.34-33.34S151.5,0,133.1,0h-32.86Z"/>
  <path class="cls-3" d="M33.1,33.34c0,18.41,14.92,33.33,33.34,33.33l17.68,6.83,16.12-6.83V0h-33.8c-18.42,0-33.34,14.92-33.34,33.34h0Z"/>
  <path class="cls-6" d="M33.56,100c0,18.41,14.92,33.34,33.34,33.34h33.34V66.66h-33.34c-18.41,0-33.34,14.93-33.34,33.34h0Z"/>
</svg>