<?xml version="1.0" encoding="UTF-8"?>
<svg id="Capa_1" data-name="Capa 1" xmlns="http://www.w3.org/2000/svg" viewBox="0 0 200 200">
  <defs>
    <style>
      .cls-1 {
        fill: none;
      }

      .cls-2 {
        fill: #eda2ff;
      }

      .cls-3 {
        fill: #0d002a;
      }
    </style>
  </defs>
  <rect class="cls-1" width="200" height="200"/>
  <circle class="cls-3" cx="100" cy="100" r="100"/>
  <g>
    <path class="cls-2" d="M107.9,151.1L68.12,21.35c-1.7-5.43-7.26-8.82-13.94-10.26-2.48-.54-5.1-.8-7.75-.8-9.78,0-19.35,3.62-21.7,11.06l-6.37,20.89L.03,102.35c.47,20.32,7,39.15,17.86,54.74l6.2-22.79h44.89l7.23,26.59c1.28,4.46,5.53,6.17,10.85,6.17,9.14,0,21.27-5.74,21.27-13.62,0-.64-.22-1.49-.43-2.34h0ZM30.9,108.78l15.53-57.01,15.53,57.01H30.9Z"/>
    <path class="cls-2" d="M179.09,124.73c9.78,0,20.63-.85,20.63-19.78,0-24.04-21.27-40.42-45.73-40.42-27.23,0-48.93,20.21-48.93,44.03v15.53c0,27.02,22.34,45.1,53.82,45.1,5.35,0,10.29-.55,14.72-1.5,7.97-8.65,14.42-18.71,18.95-29.76-1.74-1.43-3.83-2.35-6.23-2.35-7.02,0-13.4,7.87-26.58,7.87s-21.7-7.02-21.7-17.44v-1.28h41.05Zm-41.06-23.62c0-8.51,7.66-12.76,15.31-12.76s15.53,4.26,15.53,12.76c0,4.04-1.49,5.1-4.47,5.1h-26.38v-5.1h0Z"/>
  </g>
</svg>