<?xml version="1.0" encoding="UTF-8"?>
<svg id="Capa_1" data-name="Capa 1" xmlns="http://www.w3.org/2000/svg" viewBox="0 0 250 250">
  <defs>
    <style>
      .cls-1 {
        fill: #0d0a22;
      }

      .cls-2 {
        fill: #2bbbfa;
      }
    </style>
  </defs>
  <circle class="cls-1" cx="125" cy="125" r="125"/>
  <g>
    <path class="cls-2" d="M78.95,15.11H21.86c-9.65,0-15.99,6.07-15.99,12.96V162.96c6.37,20.01,17.64,37.84,32.41,52.07,6.1-2.01,10.6-5.87,10.6-11.58v-59.56h27.3c38.06,0,67.84-17.65,67.84-63.97v-1.38c0-46.33-28.68-63.42-65.08-63.42Zm22.06,68.11c0,18.75-9.37,27.57-24.82,27.57h-27.3V52.62h27.3c15.44,0,24.82,8.82,24.82,27.57v3.04Z"/>
    <path class="cls-2" d="M179.05,124.31c0-4.14,4.69-8.83,15.71-8.83,14.89,0,23.44,8.28,30.89,8.28,9.92,0,15.44-14.62,15.44-20.13,0-11.58-22.89-19.85-46.88-19.85-39.15,0-51.84,22.06-51.84,42.46,0,46.33,64.52,33.36,64.52,52.39,0,3.86-2.48,9.1-17.09,9.1-22.06,0-28.4-12.41-37.23-12.41s-14.06,12.13-14.06,18.75c0,13.51,23.44,25.37,52.39,25.37,6.56,0,12.56-.6,17.96-1.75,15.28-13.82,27.11-31.37,34.09-51.21-8.78-36.4-63.9-27.95-63.9-42.16Z"/>
  </g>
</svg>