<?xml version="1.0" encoding="UTF-8"?>
<svg id="Capa_1" data-name="Capa 1" xmlns="http://www.w3.org/2000/svg" viewBox="0 0 200 200">
  <defs>
    <style>
      .cls-1 {
        fill: none;
      }

      .cls-2 {
        fill: #ff7c00;
      }

      .cls-3 {
        fill: #261300;
      }
    </style>
  </defs>
  <rect class="cls-1" width="200" height="200"/>
  <circle class="cls-3" cx="100" cy="100" r="100"/>
  <g>
    <path class="cls-2" d="M136.7,158L95.48,23.55c-2.42-7.71-12.34-11.46-22.48-11.46s-20.06,3.74-22.48,11.46L12.46,148.37c5.43,9.82,12.47,18.63,20.77,26.07,4.5-.42,7.98-2.28,9.14-6.3l7.5-27.55h46.5l7.5,27.55c1.32,4.63,5.73,6.39,11.24,6.39,9.48,0,22.04-5.95,22.04-14.1,0-.66-.22-1.54-.44-2.42h0ZM56.91,114.14l16.09-59.07,16.09,59.07H56.91Z"/>
    <path class="cls-2" d="M164.9,17.82c-2.28,0-4.46,.37-6.45,1.04-6.86,2.3-11.63,8.12-11.63,14.62,0,8.38,7.94,15.87,18.07,15.87,6.83,0,12.72-3.55,15.73-8.5,1.36-2.24,2.13-4.76,2.13-7.37,0-8.38-7.94-15.65-17.86-15.65h0Zm0,51.79c-9.92,0-16.97,4.18-16.97,10.36v83.98c0,5.29,7.06,10.58,16.97,10.58,.62,0,1.24-.02,1.85-.07,5.76-5.16,10.91-10.98,15.34-17.34V79.98c0-6.17-7.71-10.36-17.19-10.36h0Z"/>
  </g>
</svg>