<?xml version="1.0" encoding="UTF-8"?>
<svg id="Layer_1" data-name="Layer 1" xmlns="http://www.w3.org/2000/svg" viewBox="0 0 200 200.25">
  <defs>
    <style>
      .cls-1 {
        fill: none;
      }

      .cls-2 {
        fill: #eb2084;
      }

      .cls-3 {
        fill: #009cd9;
      }

      .cls-4 {
        fill: #74bb11;
      }
    </style>
  </defs>
  <rect class="cls-1" width="200" height="200"/>
  <path class="cls-3" d="M50.18,.25c2.26,2.03,4.98,3.73,6.74,6.14,21.08,29.15,42.02,58.36,63.23,87.93l-57.59,79.4c-4.73,6.52-9.5,13.01-14.12,19.58-3.1,4.42-6.96,6.86-12.58,6.34-3.54-.32-7.11-.32-10.66,0-4.81,.7-9.56-1.6-12.02-5.79v-7.12L79.78,94.2c-.82-1.24-1.31-2.03-1.85-2.85C60.51,67.19,43.08,42.99,25.64,18.75,19.46,10.22,19.91,6.34,27.4,.25c0,0,22.78,0,22.78,0Z"/>
  <path class="cls-2" d="M186.83,193.84c-8.9,9.35-27.78,8.29-35.58-2.05-9.11-12.07-18.08-24.2-27.29-36.24-2.61-3.38-3.46-5.88-.31-9.71,5.7-6.89,10.62-14.38,16.5-22.48l46.69,63.36v7.12h0Z"/>
  <path class="cls-4" d="M172.6,.25c7.33,6.12,7.8,9.35,2.26,17.3-11.19,16.09-22.42,32.16-34.17,48.93-6.42-8.77-12.51-16.82-18.29-25.11-.74-1.58-.66-3.42,.18-4.95,8.47-12.14,17.17-24.13,25.81-36.16h24.2Z"/>
</svg>