<?xml version="1.0" encoding="UTF-8"?>
<svg id="Capa_1" data-name="Capa 1" xmlns="http://www.w3.org/2000/svg" viewBox="0 0 250 250">
  <defs>
    <style>
      .cls-1 {
        fill: #f36;
      }
    </style>
  </defs>
  <path class="cls-1" d="M250,22.66c0-12.52-10.15-22.66-22.66-22.66H22.66C10.15,0,0,10.15,0,22.66V227.34c0,12.52,10.15,22.66,22.66,22.66H227.34c12.52,0,22.66-10.15,22.66-22.66V22.66ZM83.3,48.8c8.31,0,15.27,6.51,15.27,15.04s-6.96,15.05-15.27,15.05-15.27-6.51-15.27-15.05,6.96-15.04,15.27-15.04Zm102.17,143.96c-15.5,0-22.91-9.2-22.91-21.78,0-3.59,.45-7.41,1.57-11.23l7.41-26.5c.9-2.92,1.12-5.61,1.12-8.09,0-8.53-5.17-13.7-13.48-13.7-10.56,0-17.52,7.58-21.11,22.18l-14.38,57.65h-25.15l4.51-18.12c-7.39,12.15-17.66,19.67-30.33,19.67-15.27,0-22.46-8.8-22.46-22.05,0-3.36,.45-7.49,1.35-11.31l11.45-46.79h-17.74l5.39-19.89h42.67l-16.85,66.82c-1.12,4.27-1.57,7.81-1.57,10.28,0,4.27,2.1,5.52,5.39,6.26,2,.45,17.96,.14,26.65-19.18l11.06-44.3h-17.97l5.39-19.89h38.4l-4.94,22.58c6.74-12.58,20.21-24.53,33.46-24.53,14.15,0,25.83,10.08,25.83,29.39,0,4.94-.67,10.32-2.47,16.38l-7.19,25.82c-.67,2.7-1.12,4.94-1.12,6.96,0,4.49,1.8,6.73,5.17,6.73s7.64-2.48,12.58-16.17l9.88,3.81c-5.84,20.44-16.39,28.97-29.65,28.97h0Z"/>
</svg>