<?xml version="1.0" encoding="UTF-8"?>
<svg id="svg63308" xmlns="http://www.w3.org/2000/svg" viewBox="0 0 499.34 95.04">
  <defs>
    <style>
      .cls-1 {
        fill: #0f172a;
      }
    </style>
  </defs>
  <path id="path63335" class="cls-1" d="M289.54,73.71h-31.57v-17.72h31.59c5.18,.08,9.39,3.96,9.39,8.81s-4.21,8.91-9.4,8.91m-31.57-51.96h31.01c4.26,.05,7.85,3.33,7.85,7.61s-3.77,7.69-8.03,7.65h-30.83v-15.26Zm49.4,24.78c5.83-4.11,8.04-10.92,8.04-18.41,0-14.09-11.85-25.37-26.41-25.37h-52.68V92.7h54.76v.04c15.36,0,28.17-11.87,28.17-26.39,0-9.48-5.7-16.48-11.88-19.81M388.63,2.55V53.13c0,15.45-9.02,21.95-20.13,21.95s-20.08-6.46-20.08-21.93V2.55h-22.42V53.28c0,32.34,19,41.77,42.5,41.77s42.54-9.42,42.54-41.77V2.55h-22.42Zm78.67,35.06c-18.14-3.94-24.27-5.69-24.27-11.45,0-5.08,6.57-7.63,16.94-7.63,9.79,0,21.62,4.17,28.57,8.33l7.07-18.3c-10.53-4.37-23.18-8.56-39.92-8.56-21.94,0-35.65,12.83-35.65,28.51s11.29,22.61,33.67,27.34c17.36,3.68,22.06,5.87,22.06,11.26s-6.97,7.39-16.37,7.39c-12.17,0-23.88-4.05-34.92-8.8l-6.68,17.85c13.2,6.12,26.9,11.02,43.22,11.02,27.22,0,38.31-13.01,38.31-28.16,0-13.48-9.34-23.88-32.03-28.81M45.44,2.76L0,92.7H26.98l6.79-14.46h31l-9.63-19.7h-12.25l11.52-24.6,29.04,58.76h27.06L63.3,2.75h-17.86Zm182.57,29.92c0-16.39-11.22-29.68-34.33-29.68h-46.67V92.94h21.64V21.99s26.52,0,26.52,0c7.84,0,11.1,4.85,11.1,10.64s-3.42,10.42-11.27,10.42h-18.56l28.08,49.89h22.2s-19.21-32.6-19.11-32.63c13.88-4.31,20.4-14.83,20.4-27.64m-112.87,60.08h22.37V2.81h-22.37V92.75Z"/>
</svg>