<svg width="408" height="57" viewBox="0 0 408 57" fill="none" xmlns="http://www.w3.org/2000/svg">
<path d="M14.3952 45.0325H18.2304C20.7872 45.0325 23.1237 42.7885 23.1237 38.4765C23.1237 34.3845 20.6991 32.0525 18.2304 32.0525H14.3952V45.0325ZM14.3952 22.6805H17.7896C20.6109 22.6805 22.1979 20.1285 22.1979 17.3125C22.1979 14.3645 20.655 11.7685 17.7896 11.7685H14.3952V22.6805ZM0.508911 1.82446H21.4485C31.4113 1.82446 35.996 7.10447 35.996 15.1125C35.996 20.7445 33.5273 25.8485 27.6642 27.0365V27.2125C34.6735 27.8725 37.5389 33.8565 37.5389 39.3125C37.5389 48.5525 33.0424 55.0205 21.4926 55.0205H0.508911V1.82446ZM60.5063 46.6605C64.7824 46.6605 65.2673 42.8325 65.2673 28.4005C65.2673 14.0565 64.7824 10.1405 60.5063 10.1405C56.2303 10.1405 55.8335 13.9685 55.8335 28.4005C55.8335 42.8325 56.2303 46.6605 60.5063 46.6605ZM60.5063 0.768463C74.7453 0.768463 79.5503 8.55646 79.5503 28.4445C79.5503 48.3325 74.7453 56.1205 60.5063 56.1205C46.3556 56.0325 41.4623 48.3325 41.4623 28.4445C41.4623 8.55646 46.3556 0.768463 60.5063 0.768463ZM110.232 33.3285H110.409L115.963 1.82446H135.801V54.9765H122.84V15.3765H122.664L115.258 54.9765H105.207L97.889 15.3765H97.7127V54.9765H84.7081V1.82446H104.546L110.232 33.3285ZM155.77 45.0325H159.606C162.163 45.0325 164.499 42.7885 164.499 38.4765C164.499 34.3845 162.074 32.0525 159.606 32.0525H155.77V45.0325ZM155.77 22.6805H159.165C161.986 22.6805 163.573 20.1285 163.573 17.3125C163.573 14.3645 161.986 11.7685 159.165 11.7685H155.77V22.6805ZM141.884 1.82446H162.868C172.742 1.82446 177.415 7.10447 177.415 15.1125C177.415 20.7445 174.947 25.8485 169.084 27.0365V27.2125C176.093 27.8725 178.958 33.8565 178.958 39.3125C178.958 48.5525 174.462 55.0205 162.912 55.0205H141.928V1.82446H141.884ZM201.485 12.7365H201.309L197.473 35.2645H205.276L201.485 12.7365ZM192.624 1.82446H210.037L223.042 54.9765H208.274L206.819 45.6925H195.798L194.343 54.9765H179.575L192.624 1.82446ZM240.763 24.3525H243.584C247.508 24.3525 249.359 21.8005 249.359 18.0165C249.359 13.7045 247.684 11.8565 243.496 11.8565H240.851V24.3525H240.763ZM226.833 1.82446H248.61C259.234 1.82446 263.246 7.76446 263.246 16.0365C263.246 23.0765 260.424 27.7405 254.164 28.7085V28.8845C260.909 29.4565 262.849 33.6805 262.849 40.8085V45.2965C262.849 48.0245 262.849 51.6325 263.554 52.6885C263.951 53.2605 264.215 53.8765 265.097 54.2725V54.9765H250.329C248.963 52.1605 248.963 47.1005 248.963 44.8565V41.2485C248.963 35.2205 247.772 33.6365 244.378 33.6365H240.675V54.9765H226.789V1.82446H226.833ZM283.171 45.0325H285.904C291.283 45.0325 291.944 42.7885 291.944 28.4445C291.944 14.1005 291.283 11.8565 285.904 11.8565H283.171V45.0325ZM269.241 1.82446H289.387C305.433 1.82446 306.271 14.4965 306.271 28.4445C306.271 42.3925 305.477 55.0645 289.387 55.0645H269.241V1.82446ZM311.825 1.82446H325.712V54.9765H311.825V1.82446ZM363.491 13.1325H345.814V22.2845H362.345V33.1085H345.814V43.7125H364.108V55.0205H331.883V1.82446H363.447L363.491 13.1325ZM383.064 24.3525H385.797C389.721 24.3525 391.66 21.8005 391.66 18.0165C391.66 13.7045 389.985 11.8565 385.797 11.8565H383.152V24.3525H383.064ZM369.266 1.82446H390.955C401.579 1.82446 405.591 7.76446 405.591 16.0365C405.591 23.0765 402.858 27.7405 396.51 28.7085V28.8845C403.254 29.4565 405.282 33.6805 405.282 40.8085V45.2965C405.282 48.0245 405.282 51.6325 405.943 52.6885C406.252 53.2605 406.649 53.8765 407.486 54.2725V54.9765H392.63C391.264 52.1605 391.264 47.1005 391.264 44.8565V41.2485C391.264 35.2205 390.073 33.6365 386.679 33.6365H383.064V54.9765H369.178V1.82446H369.266Z" fill="#231F20"/>
</svg>
