<svg width="300" height="300" viewBox="0 0 300 300" fill="none" xmlns="http://www.w3.org/2000/svg">
<path d="M133.956 212.406H147.339C156.496 212.406 164.597 204.135 164.597 187.594C164.597 172.18 156.144 163.534 147.339 163.534H133.956V212.406V212.406ZM133.956 128.571H145.93C155.792 128.571 161.427 118.797 161.427 108.271C161.427 97.3684 156.144 87.594 145.93 87.594H133.956V128.571V128.571ZM85 50H158.61C193.829 50 209.678 69.9248 209.678 100C209.678 121.053 200.873 140.226 180.446 144.737V145.489C205.452 147.744 215.314 170.301 215.314 190.977C215.314 225.564 199.465 250 158.962 250H85V50Z" fill="#231F20"/>
</svg>
