<svg xmlns="http://www.w3.org/2000/svg" id="Layer_1" data-name="Layer 1" viewBox="0 0 305.95 175.93"><path d="M305.81,83.79c-18.35-4.1-35.88-8-53.39-11.94-32-7.21-63.9-14.53-95.89-21.61-3.74-.82-5.2-2.06-5.13-6.09.26-14.47.1-28.95.1-44.15,7.06,1.91,13.56,3.63,20,5.44,42.93,12,85.85,24,128.82,35.81,4.28,1.18,5.73,2.9,5.57,7.43C305.55,60.14,305.81,71.62,305.81,83.79Z"></path><path d="M243.11,120.73l-12.25-1.11V82.56l-26.11-2.07v36.6l-52.86-5.16v-60L300.08,86l-.12.76-56.85-3.6Z"></path><path d="M145.6.15v48.9L72,69.51c0-11-.11-21.22,0-31.46.17-11.77-2.08-8.52,8.77-12.83,19.91-7.9,39.91-15.56,59.88-23.3C142.21,1.33,143.75.81,145.6.15Z"></path><path d="M151.81,114.79v61.1H305.55V129.73Zm82.79,57.09H222.86V125.76l11.74,1.18Zm16.21.11H239.14V127l11.67,1.3Z"></path><path d="M142.33,52.9c-40,11.35-79.92,22.83-120,33.92-5.17,1.43-6.67,3.48-6.54,8.74.38,15.79.14,31.6.14,47.71l-16,3v29.63H145.51V52.14C144.22,52.45,143.27,52.64,142.33,52.9Zm-3.57,118.94H23.14V146.08l115.62-10.91ZM23.08,142.06V116l48.61-9.45V138ZM138.82,85.37c0,1-2.33,2.46-3.78,2.79q-44.46,10.13-89,20c-7.59,1.7-15.2,3.37-23.28,5.16,0-6.43-.27-12.42.2-18.35.1-1.27,2.69-2.92,4.41-3.4C51.24,85,75.14,78.58,99,72.13l34.64-9.31c1.56-.42,3.14-.77,5.33-1.3C139,69.82,139.14,77.61,138.82,85.37Z"></path></svg>