<?xml version="1.0" encoding="utf-8"?>
<!-- Generator: Adobe Illustrator 27.0.0, SVG Export Plug-In . SVG Version: 6.00 Build 0)  -->
<svg version="1.1" id="Layer_1" xmlns="http://www.w3.org/2000/svg" xmlns:xlink="http://www.w3.org/1999/xlink" x="0px" y="0px"
	 viewBox="0 0 300 225.8" style="enable-background:new 0 0 300 225.8;" xml:space="preserve">
<path d="M248.2,128.2c17.3,1.5,28.2,1.4,28.2,1.4c-7.9-5.7-62.9-6-62.9-6C214,125.9,230.9,126.8,248.2,128.2"/>
<path d="M135.1,115.9l-0.9,2.2c10.9,0.3,18.4,0.6,18.4,0.6C150,117.7,143.6,116.7,135.1,115.9"/>
<path d="M128.3,117.9l3.9,0.1l0.6-2.3l-3.7-0.3C128.9,116.2,128.6,117.1,128.3,117.9"/>
<path d="M23.8,111.2c0.3,0.8,4.6,1.6,11.4,2.3l-0.3-2.1L23.8,111.2"/>
<path d="M79.8,116.4c12.3,0.5,34.1,1,44.8,1.4c0.3-0.8,0.6-1.8,1-2.6c-13.8-1-32.3-1.9-49.8-2.5L79.8,116.4z"/>
<path d="M70.3,113c-1.5-1.7-14.4-10.3-15.1-10.7c-0.2-0.1-0.2-0.1-0.4,0s-0.2,0.1-0.2,0.3l0.7,5.3c-2.3-0.8-4.8-1.7-7.2-2.6
	c-2.7-1-5.4-2.1-8-2.9c-0.1,0-0.3,0-0.4,0c-0.5,0.2-0.8,0.7-0.9,1.2c-0.1,0.6,1.4,8.1,2.3,12.6c0,0.2,0.2,0.4,0.4,0.4
	c6.3,1.3,13,2.6,18.8,4.1l1.1,0.2l0.9,0.2h0.1c0.1,0,0.3,0,0.5,0s1.1,0.2,1,0c-0.2-1-1.6-2.7-2.1-3.7c-0.3-0.7-0.6-1.4-0.9-2.1
	c15.3,4.6,15.3,4.6,15.6,4.1c0-0.1,0-0.3,0.1-0.2c-0.4-0.6-0.9-1.1-1.4-1.6C74.9,117.1,70.8,113.6,70.3,113"/>
<path d="M133.1,41c0.1-0.2,0.2-0.4,0.3-0.5c0.6-0.5,1.1-1.3,1.3-2.1c0.6-0.9,0.5-2.2-0.3-3c-0.5-0.9-1.4-1.7-2.4-2
	c-0.5-0.2-1-0.2-1.5-0.2c-0.4,0-0.7,0-1.1,0.1c-0.9-0.1-1.4,0.2-2.2,1.1c-1.2,1.2-2.3,2.5-2.2,3.9l3.7,0.4l-1.5,2.4l0.4,0.2
	C129.6,42.1,132.6,42,133.1,41"/>
<path d="M197.5,178.8l2.4,0.4c0,0-4.8-12.1-3.8-21.2c32.7-2.1,65.3-6.2,97.5-12.2c0.4-0.1,0.7-0.2,1-0.4c1.8-1,3-2.8,3.3-4.8
	c0.1-1.3-0.1-3.4-2.4-5.5c-0.6-0.6-1.3-1.2-1.9-1.8c-2.7-2.5-4-3.8-3.8-5.1c0-0.1,0-0.3,0-0.4c0-1.2,1.5-2.3,4.4-4.4
	c0.8-0.6,1.7-1.2,2.6-1.9c2.6-2,3.2-4,3.2-5.4c-0.1-1.9-1-3.7-2.6-4.9c-0.3-0.2-0.6-0.4-1-0.5c-26.3-7.3-57.5-14.8-90.2-20.6
	c-3.8-6.9-9.3-14.2-13.7-17.1c-3.3-2.5-7.2-4.1-11.2-4.8c-0.5-10-13.5-20.1-13.6-20.2l-0.9-0.7l0.4-1c0.4-1,0.6-2.1,0.5-3.2l0.7,0.7
	c3.1-1.1,5.2-4.9,5.2-4.9c0.8,0.2,0.3,3.4,0.3,3.4c6.7-3.9,5.6-13,5.6-13c1.8,0.4,2.8,5.4,2.8,5.4c4.1-9.5-2.6-18.1-2.6-18.1
	c1.5,0.1,5.4,3.9,5.4,3.9c-2.6-13.5-11.3-13-11.7-13.2c2.5-1,6.3-0.6,6.6-0.7c-5.2-6.4-15.4-3.9-15.4-3.9c0.6-0.9,1.2-1.7,1.9-2.5
	c-16-1-15.1,10.4-15.1,10.4c-1.5-1.2-1.8-5-1.8-5c-1.6,1.6-2.5,3.8-2.3,6.1c-4.7-1.4-9.5-2-14.4-1.8c-3-2.6-10.3-7.8-18.1-5.5
	c0,0-4.4-3.3-5.3-2.4s-2.4,12.1,2,17c-0.2,0.2-0.4,0.4-0.7,0.6c-3.2,0.8-11.3,3.7-13.2,10.3C90,33.9,90,48.5,91.6,50
	c0.6,0.5,2,0.6,3.7,0.5c-0.4,5.6,1.7,15.5,12.4,16.8c0.1,0,10.3,1.1,16.4,5.7c-2.4,2.2-4.6,4.8-6.3,7.6c-15.4-0.4-30.9,0.1-46.2,1.7
	C23.3,87.5,3.8,102,0.4,107.2c-0.5,0.7-0.6,1.7-0.2,2.5c2.8,5.7,20.9,24.8,65.2,37.4c12,3.4,24.2,6,36.5,7.7
	c-0.7,3.4-0.5,6.9,0.6,10.2c0,0-0.5,0.2,2-0.3c-2.1,9.2-0.3,18.9,5,26.8c0,0,11.4,14.9,12.2,19c0.2,1-17.9-1.4-19.6,8.6
	c-1.6,0-3.4,0-5.3,0.1c-2.1,0.1-3.6,0.2-4.7,0.3c-3.3,0.2-6.6,0.2-9.9,0c-5.6-0.1-11.2,0.2-16.8,1c-0.1,0-0.2,0.1-0.3,0.1
	c0,0.1,0,0.2,0,0.2c0.2,0.3,1.6,1.8,15,1.8c5.4,0,10.2,0.1,14.1,0.3c2.9,0.1,5.3,0.2,7.2,0.2h1.5c1,1.4,3.2,2.9,8,2.7
	c0,0-2.1-1.6,0.8-3.1s15,0.7,25.2,0c1.2-0.1,2.4-0.2,3.5-0.4c1.7,0,5.6,0.2,6,0.1c2.5-0.4,9.7-0.4,15.8-0.3c0.5,1.1,1.4,2.8,3.3,2.8
	c0,0,1.9-5.2,7.4-1.6c0,0,1.2,2.8,9.6-0.8c4.4-0.1,8.4-0.2,9.4-0.4c0.4-0.1,0.6-0.1,0.9-0.1c1.5,0.6,2.8,1,4.4,0.1
	c1.2,0,2.8,0.1,5,0.1c3.5,0,6.6,0.2,9.6,0.4c3.9,0.4,7.8,0.5,11.7,0.2c2.3-0.3,4.7-0.4,7-0.5c1.7,0,3.5-0.1,5.9-0.2s3.4-0.5,3.6-1.1
	c0.3-0.8-1.1-1.6-1.3-1.7c-0.1,0-0.2-0.1-0.2-0.1c-4.8,0.4-9.6,0.4-14.5,0c-1-0.1-1.6-0.1-2-0.2c0-0.1,0-0.2-0.5-0.2l0,0
	c-0.6-0.1-2-0.1-5-0.2c-5.2-0.1-7.1-0.1-9.2,0c-1.6,0.1-3.4,0.1-6.8,0.1C208.9,210.2,190.9,184.6,197.5,178.8 M93,48.3
	c-1.1,0.5-0.7-1.7-0.2-2.9c0.2-0.5,0.7-0.1,0.7-0.1C94.3,46.8,94.6,47.5,93,48.3 M107.9,221.7c0,0-6.4-4.2-0.4-6.6s8.7-1.2,8.7,0.5
	C116.2,215.6,108.7,217.5,107.9,221.7 M179.1,71.7c3.2,0,5.4,0.6,6.5,1.7l0,0c0.5,0.4,0.8,1.1,0.8,1.7c-1.4-0.6-6.1-2.5-9.7-1.2
	c-2.4,0.8-3.9,2.8-4.5,5.9c-0.3,0.1-0.7,0.1-1,0c-0.1,0-0.1-0.1-0.1-0.4c0-0.3,0-0.6,0-0.8C170.8,76.7,170.4,72.6,179.1,71.7
	 M176.2,97.5c0.7,0.3,1.3,0.8,1.9,1.3c-1.6-0.6-4-1.3-5.4-1c-0.2,0-0.4,0.2-0.5,0.4c-0.1,0.2,0,0.5,0.1,0.6c1.7,1.7,3.5,3.3,5.4,4.7
	c-1.3,0.1-2.7,0-4-0.4c-0.3-0.1-0.7,0-0.8,0.3c-0.1,0.3,0,0.6,0.2,0.8c1.7,1,3,2.4,4,4.1c-0.9-0.3-1.9-0.4-2.8-0.2
	c-0.3,0.1-0.5,0.4-0.4,0.8c0,0,0,0,0,0c0,0.1,1.8,6.4-0.2,9.6c-0.4-0.9-1.2-1.6-2.2-1.8c-0.2-0.1-0.4,0-0.6,0.1
	c-0.2,0.1-0.3,0.3-0.2,0.6c0,0.1,0.9,6.2-1.1,9.2c0-3-0.1-10.1,0.2-16.9c0.1-2.5-0.9-6-2-9.6c-2-6.8-4.2-14.4-1-19.5
	C166,84.9,166,93.5,176.2,97.5 M164,14.5c0,0-2.6,1.4-3.1,3.2c0,0,5-2.2,9.2-0.7c0,0-5.5,2.9-5.3,4.3c0,0,5.3-1.8,7.9,2
	c-2.2,0-4.5,0.3-6.6,0.7c0,0,6.1,0.7,7.3,3.6c0,0-5.4-1.5-7.3-0.9c1.7,0.9,3,2.5,3.6,4.4c0,0-4.4-2.4-7-2.7c1.8,1.3,2.9,3.2,3.1,5.4
	c-0.8-0.6-1.7-1.1-2.6-1.6c-2.1-2.8-4.5-5.4-7.1-7.8l-2.4-2.4l-1,0.6c-0.5-0.2-0.9-0.2-1.4-0.1C151.4,22.5,155.2,14.7,164,14.5
	 M146.1,20.8L146.1,20.8L146.1,20.8z M112.8,9.8c0.8,1.3,2.2,2.2,3.8,2.2c0,0-2.6-4,1.3-5c0.9,1.6,2.4,2.9,4.1,3.6
	c0,0-5.2,2.4-6.1,4.6l-0.3,0.2C114.8,15.2,112.5,14,112.8,9.8 M97.9,48.3c-0.2,0.1-0.3,0.1-0.5,0.1c-0.2,0-0.4-0.1-0.6-0.2
	c-0.2-0.2-0.7-0.6,0.4-2.9c0.1-0.2,0.3-0.4,0.6-0.4l0,0c0.2,0,0.5,0.1,0.6,0.3C98.8,46,99.6,47.5,97.9,48.3 M121.8,67.9
	c2.1-0.6,4.1-1.4,5.9-2.4c-3.5,1-11.3,0-16-0.7c-2.1-0.4-3.5-0.6-3.6-0.6c-3.2-0.2-6.1-2-7.7-4.8c3.2,0.2,6.4,0,9.6-0.4
	c2.1-0.2,4.2-0.9,6.1-1.8c0.1-0.1,0.3-0.1,0.4-0.2v0.2l2.1-1.6c-0.2-0.5-0.4-0.9-0.4-0.9c-0.9-1.6-2.4-2.7-4.1-3.2
	c-0.1,0-0.3-0.1-0.4-0.1c-0.4,0-0.8,0.3-1,0.7c-0.1,0.4,0,0.8,0.4,1c0.2,0.1,0.4,0.2,0.6,0.3c0.7,0.2,1.3,0.6,1.8,1.2
	c-0.9,0.4-1.8,0.8-2.8,1.1c-4.4,1.4-9,1.6-13.4,0.5L99.1,56c-0.5-1.9-0.6-3.9-0.5-5.9l0,0c2-0.3,3.7-0.7,3.7-0.7
	c-1.4-9.6,4.8-13.1,4.8-13.1c-0.8-3.1-3.2-5.6-6.3-6.4c0.2-0.7,0.6-1.4,1-2.1c2.6,0.7,7.4,2.5,8.4,7.1c0,0,1.4,0.9,0.9-2
	c-0.3-2.2-3.8-6-6.7-7.8c2.2-1.5,4.7-2.4,7.4-2.8l0.6-0.1l0.4-0.4c2-2.1,4.2-3.8,6.7-5.3C118.1,21.2,119,27,119,27
	c1.4-5.8,6.4-9.9,10.2-12.3c4.5-1.8,14.1-0.9,14.1-0.9c-10.3,0.3-12.4,5.1-12.4,5.1c8.5-1.9,12.4-0.6,14.3,1
	c-7.9,0.9-13.3,5-16.6,7.7l0.3,0.5c1.1-0.1,2.3-0.1,3.6-0.1c4.6,0,7.9,1.2,9.9,3.6c1.5,2,2.1,4.6,1.6,7.1c0.1,0.4,0.4,1.1,1,1.1
	c0.1-0.1,0.4-1,0.6-1.4c0.5-1.2,1.2-2.9,3-2.9c0.2,0,0.4,0,0.6,0c1.5-0.3,3,0,4.2,0.9c1,1,1.5,2.4,1.4,3.8c0,6.8-3.2,7.9-5.1,7.9
	c-1.6-0.2-3.1-0.9-4.2-2c-0.5-0.4-1.1-0.8-1.7-1.1V45c0.1,0.6,0,1.1-0.1,1.7l5.3,6.9c-2.1,1.2-4.4,2-6.8,2.4
	c4.6,2.2,9.6,3.4,14.7,3.6c1.8-0.3,3.7-0.2,5.4,0.3c0,0,7.7,2.7,7.9,8.6c-2.4-2-5.5-3-8.7-2.8c0,0,2.5,3.4-0.4,4.3
	c-4.9-0.2-11.7-1-13-4c-0.6,2.8,0.1,5.8,1.9,8c-5.5-0.5-12.7-2-15.8-6c0,1.5,0.5,3,1.4,4.3c-1.4,1.2-3.3,1.8-5.1,1.7l-4.8-3.5
	c-1.2-0.9-2.6-1.7-3.9-2.4 M143.2,79c-1.3,0.6,2.9,1.1,8,3.6l-23.9-1.2l-0.1-0.4c0,0,11.2-2.1,13.2-3.4c0,0-0.6,2.4-1.6,2.9
	L143.2,79z M114,165.3c-2.6,1.9-0.6,11.3-0.6,11.3c-5.3-3.8-1.5-16.2-1.5-16.2c-1.7,0.2-2.6,2.8-2.6,2.8c-1.4-1.9-0.7-5,0.2-7.3
	c2.3,0.3,4.7,0.6,7.1,0.8c0.1,4.3,0.5,8.6,1.4,12.9C115.2,170.2,114,165.3,114,165.3 M118.9,190c0,0,3.6,10.6,6.2,13.9
	C125,203.9,114.2,198.5,118.9,190 M72.7,145c-36.3-8.6-59-27.3-65.1-34.2h0.1c-0.9-1.6,0.2-2.3,1.2-3.4c7.2-5.4,26.1-14.9,61.3-19.1
	c6-0.5,20-1.6,31.9-2.1c19.4-0.3,38.8,0.6,58.1,2.6c0.6,3.4,1.5,6.6,2.8,9.8c5,13.3-2.4,36.7-4.8,39.3s-9,2.1-11.9,8.6
	c-1,2.3-1.4,4.9-1.2,7.4c-24.4-0.5-48.7-3.5-72.4-9 M152.9,155.6c0.4,0.6,1.9,2.6,2.9,3.8c0.2,0.2,0.2,0.3,0.2,0.4s-0.1,0.1-0.4,0.1
	c-0.7,0-1.4-0.3-1.9-0.9c-0.2-0.3-0.4-0.5-0.7-0.8c-1.2-1.3-3.8-4.1-3.3-7c0.3-1.7,1.5-3.2,3.6-4.6
	C152.3,148.4,150.7,152.1,152.9,155.6 M135.3,219.6c3.8-1.9,3-10.8,3-10.8C145.5,217,135.3,219.6,135.3,219.6 M172.4,217.4l-8.4,1.8
	c1.9-4.9,9.1-4.2,9.1-4.2c2.5,1.6,1.5,2.1-0.9,2.6 M149.1,173.3l3.9,2.8c0,0,10.5,4.5,14.3,12.7s1.7,11.4,9.2,20.5
	c3,2.2-12.8-0.2-14.3,10.2h-1.5h-15c0.8-1.4,0.6-3,0.6-4.6c0-3.3-3-3.3-0.4-5.9C124.2,172.7,149.1,173.3,149.1,173.3 M170.2,166.5
	c1.2,1.8,6.7,3.1,6.7,3.1c-3.5,4.5-17-2.3-17-2.3c-3.3,1,0.7,4.8,0.7,4.8c-3-0.7-5.9-1.8-8.5-3.5v0.1l-1.8-1.4v-0.1
	c-2.3-1.8-4.1-4.3-5-7.1l1.7-0.1c2.5,4,7.8,7.1,17.5,6.4c-1.8-1-2.1-3.9-2.1-3.9s7.2,4.4,16.4,0c0,0-4.4-0.9-6.3-2.5
	c-0.3-0.2-0.4-0.5-0.4-0.8l10.7,1.4C179.5,166.3,170.1,166.5,170.2,166.5 M183.7,180.5c-0.6-2.8,3.6-0.5,3.6-0.5
	c1.5-1.2,2-3.2,1.3-4.9c2.3,0.5,4,11.8,3.4,12.5s-4-2.8-4-2.8c-1.1,1.6,4.2,11.1,4.2,11.1C185.4,193,184.3,183.4,183.7,180.5
	 M289.6,141.4c-40.8,5.8-78.4,10.9-114.7,12.2c0-0.3,0.1-0.5,0.1-0.8c0-4.1,0.7-11.1,7.9-11.2c0,0,2.7,0.4,3.3,2.6
	c0,0,12.1-14,14-23.9c0,0,2.7,1.4,3.1,4c0,0,3.4-6.5,1.7-12.7c0,0,3.1,2.2,3.6,5.6c0,0,3-7.8,2.4-15c-0.3-2.3-1-4.5-1.9-6.6
	c24.6,4.4,52.3,10.6,83.3,19.1c0.2,0.2,1.8,0.7,1.8,0.9c0.1,0.7-0.1,1.4-0.7,1.9c-0.9,0.7-1.7,1.3-2.5,1.8c-3.4,2.5-7.6,4.1-7.8,7.8
	c-0.6,3.9,1.4,6.9,4.6,9.9c0.6,0.5,2.8,1.2,3.4,1.8c0.4,0.5,0.6,1.1,0.7,1.7C292.3,141.4,289.9,141.2,289.6,141.4"/>
</svg>
