<?xml version="1.0" encoding="UTF-8"?>
<svg id="Layer_1" data-name="Layer 1" xmlns="http://www.w3.org/2000/svg" viewBox="0 0 300.03 306.22">
  <defs>
    <style>
      .cls-1 {
        fill: #18181b;
      }
    </style>
  </defs>
  <path class="cls-1" d="M169.4,0c2.06,.19,4.1,.5,6.12,.91,5.51,1.4,11,3,16.47,4.48,1.35,.37,2.68,.8,4.11,1.22l.49-1.61,3.67,.5-1.5,2.62,6.76,1.32-1.42-2.64c1.57,.1,3.12,.32,4.65,.67,4.68,1.49,9.1,3.69,13.1,6.53,4.84,3.38,9.72,6.72,14.52,10.16,.96,.77,1.79,1.69,2.46,2.73,.74,1,1.3,2,2.9,1.73,1.39-.22,2.55,.64,3.53,1.59,4.12,3.94,8.11,8,12.37,11.8,5.65,5,9.56,11.26,13.08,17.81,4.77,8.85,9.52,17.72,14.23,26.61,.34,.78,.63,1.58,.86,2.4l-.33,.15c-.21-.36-.43-.71-.65-1.07-4.45-7.46-8.77-15-13.39-22.36-3.11-4.81-6.84-9.18-11.1-13-.38-.27-.79-.5-1.22-.68l-.27,.37c.57,1.04,1.2,2.04,1.88,3,9.29,11.89,16.32,25.06,22,39,3.92,9.62,7.83,19.25,11.72,28.88,1.99,4.78,2.96,9.92,2.84,15.1-.08,2.38-.89,4.72-1.18,7.1-.57,4.58-1,9.18-1.5,13.77-.22,2.07-.44,4.13-.65,6.2-.07,.7-.11,1.39-.16,2.08,1.38,.15,1.88-.22,2.06-1.58,.36-2.77,.67-5.53,1-8.3,.43-3.8,.85-7.6,1.33-11.4,.89,6.46,.31,12.9-.49,19.62l1.94-1.54,.4,.11c-.18,3.63-.21,7.27-.58,10.89-.72,7.06-3.76,13.4-6.5,19.82-1,2.44-2.1,4.86-3.19,7.4l1.82,.19c-.66,2.11-1.27,4.13-1.92,6.13-.75,2.33-1.56,4.64-2.3,7-1,3.24-3.05,5.89-5.07,8.54-.16,.25-.38,.44-.65,.56-1.61,.55-2.14,1.88-2.67,3.33-1.33,4.12-4,7.67-7.58,10.09-1.19,.83-2.28,1.81-3.24,2.91-.44,.52-.72,1.16-.79,1.84,0,1.39-.6,2.7-1.64,3.62-.66,.58-1.15,1.31-1.45,2.13-.77,2.13-2.19,3.95-4.06,5.23-1.67,1.17-3.4,2.26-5.15,3.3-.47,.24-1.01,.31-1.52,.2-1.07-.35-2.23,.13-2.74,1.13-.43,.75-1,1.41-1.51,2.14-1.42,2.3-3.49,4.12-5.95,5.23-2.01,1.08-3.81,2.5-5.33,4.2-.94,1.12-2.27,1.83-3.72,2-1.75,.07-3.25,1.3-3.66,3l2,1.2-4.68,4.18,2.5,.8c-.17,.29-.29,.53-.45,.75-1.06,1.52-2.2,3-3.17,4.55-.94,1.34-2.56,2.03-4.18,1.78-1.08-.22-2.2-.18-3.27,.11-5.05,1.64-10,3.45-15.07,5.15-3.66,1.24-7.36,2.37-11,3.62-.8,.34-1.52,.83-2.13,1.45,2.83,.84,5.57,.38,8.31-.13s5.54-1.08,8.39-1.36c-.23,.1-.45,.22-.68,.3-14.61,5.19-29.93,8.09-45.42,8.6-42.27,1.05-79.62-12-111.57-39.85C25,244.51,8.83,217.08,.46,184.91c-.13-.43-.28-.85-.46-1.26v-.5c1.78,1.4,2.95,3.45,3.25,5.7,.12,.76,.37,1.48,.75,2.15,.8,1.64,1.71,3.23,2.5,4.88,3,6.25,6,12.54,9,18.78,.53,.81,1.16,1.56,1.87,2.22l.25-.23-.24-3.36,.35-.08,19.43,27.77c-3-.86-4.51-3.1-6-5.23-.23-.35-.34-.77-.3-1.19,.14-1.44-.81-1.68-2.25-2,.14,.82,.36,1.62,.68,2.39,1.42,2.44,3.05,4.77,4.39,7.25,1.12,2.04,2.5,3.92,4.11,5.6,.84,1.16,1.55,2.4,2.13,3.71,.26,.54,.6,1.03,1,1.47,1.43,1.32,3,2.54,4.36,3.88,2,1.94,3.76,4.22,6.56,5.38,.03-.41-.09-.81-.32-1.14-2-2.22-4-4.42-6-6.63-.3-.28-.53-.62-.69-1-.37-1.15-.65-2.32-1-3.71,.6,.12,1.18,.31,1.74,.57,.53,.4,1.03,.84,1.48,1.33,1.09,1,1.72,1,3.13,0-1-1-2-1.9-2.86-2.94-3.22-3.92-6.37-7.9-9.58-11.84-6.12-7.47-11.14-15.78-14.91-24.68-.82-1.95-1.76-3.85-2.67-5.77-1.19-2.51-2.61-4.93-3.56-7.54-2.94-8.13-5.79-16.31-7.32-24.85-2.43-13.57-3.46-27.23-1.54-41,.83-6,1.32-12,2.76-17.86,2.13-8.69,5.32-17.08,9.5-24.98,6.11-11.68,12.15-23.38,21-33.35,3.15-3.54,5.84-7.49,9.73-10.33s7.9-5.52,11.68-8.52c6.79-5.23,13.91-10.03,21.3-14.37,.36-.13,.75-.2,1.13-.18l.13,.45c-12.33,8.62-24.79,17.1-34.15,29.3,.21,.62,.63,.78,1.27,.31s1.31-.87,1.91-1.37c5.09-4.29,10-8.75,15.28-12.85,8.09-6.29,17.11-11.2,25.99-16.29,5.34-3.05,10.54-6.36,16.28-8.68,3.02-1.27,5.98-2.7,8.85-4.29,3.9-2.19,8.3-3.34,12.77-3.33,2.28,0,4.56,.29,6.85,.3h17.85c2.09,0,4.18-.19,6.27-.3v-.5c-6.59-1.56-13.37-2.21-20.14-1.95,4.63-1.4,9.39-1.24,14.15-1.15l.19-.42-2-1.32-.1-.36c.9-.33,1.82-.58,2.76-.76,1.11-.13,2.25,0,3.37,0s2.21-.13,3.32-.2l3.71-.04Zm115.6,152.91c0-73.91-60.14-133.74-132.68-134.79C78,17.05,15.8,76.45,15.06,151.86c-.72,73.73,58.42,136.27,135.11,136.28,74.47,0,134.63-60.28,134.83-135.23ZM23.74,228.91c-1.17-2.74-2.21-5.28-3.35-7.78-.28-.63-.77-.43-1.08,.17-.72,1.41,.07,2.54,.64,3.72,.68,1.74,2.03,3.14,3.74,3.88h.05Z"/>
  <path class="cls-1" d="M150,283.35c-72.35,0-131.24-59.6-130.17-132.26C20.83,80.71,79.09,21.88,152.07,22.92c69.86,1,128.73,58.34,128.16,131.35-.54,71.26-58.7,129.04-130.23,129.08Zm0-8.25c67.38,0,122-54.63,121.99-122.01,0-67.38-54.63-122-122.01-121.99-66.86,0-121.26,53.82-121.99,120.67-.8,67.31,53.13,122.53,120.44,123.32,.54,0,1.07,0,1.61,0h-.05Z"/>
  <path class="cls-1" d="M269.13,153c.2,65.84-53.75,119.86-120.26,119.27-64.87-.6-119.11-54.21-117.87-121.41,1.14-64.49,54.24-117.86,120.66-116.78,65.56,1.09,117.65,54.12,117.47,118.92Zm-193.85,6.81c-1.09,1.88-2.13,3.69-3.2,5.48-.15,.18-.35,.31-.58,.36-4.25,1.06-8.33,2.72-12.11,4.93-6.14,3.6-11.51,8-15.18,14.24-2.25,3.78-2.73,7.8-.31,11.66,2.1,3.37,5.67,4.34,9.33,4.34,2.96-.05,5.9-.43,8.77-1.13,5.88-1.47,11.54-3.75,16.79-6.78,9.97-5.54,18.79-12.93,26-21.76,4.69-5.59,8.54-11.84,11.42-18.54,2.3-5.47,4.06-11.08,4-17.1-.09-6.87-4.42-10.64-10.67-11.28-3.99-.35-8.01,.06-11.85,1.2-4.62,1.24-9.11,2.95-13.38,5.11-4.14,2.05-7.98,4.65-11.41,7.75-3.61,3.34-6.8,6.94-8.21,11.79-1.29,4.42,.69,8.2,5.14,9.28,1.8,.29,3.62,.44,5.45,.45Zm179.9-34.4c.21-.47,.34-.85,.53-1.2l4.27-8c1.34-2.54,1.1-3.5-1.27-5.19-.51-.35-1.04-.67-1.59-.94-1.91-1-2.28-.81-3.26,1.06-2.63,5-5.24,10-7.94,15-.4,.51-.97,.86-1.6,1-1,.29-2.09,.34-3.13,.57-.28,.12-.49,.36-.55,.66-.12,.83-.12,1.66,0,2.49,.19,.95,.32,2.15,1.92,1.82-1.5,3.11-2.94,6.11-4.42,9.08-.34,.79-.82,1.51-1.43,2.12-3.27,2.78-6.56,5.56-9.95,8.2-2.39,1.88-5.16,3.25-8.11,4-2.56,.64-3.26,0-2.78-2.52,.1-.48,.25-.96,.42-1.42,1.68-4.43,4.04-8.56,7-12.26,1.2-1.47,2.49-2.85,3.88-4.14,.23-.22,.74-.15,1.11-.22,0,.36,.2,.81,.05,1.08-1.08,1.87-2.18,3.73-3.37,5.53-.72,.88-.8,2.12-.19,3.08,.77,1,1.6,.24,2.3-.07,2.55-1.27,4.86-3,6.8-5.09,1.6-1.31,2.27-3.43,1.72-5.42-1.08-4.18-3.47-6.44-7.37-6.15-3.21,.25-6.27,1.52-8.72,3.61-2.68,2.33-4.94,5.11-6.68,8.2-2.35,3.93-4.36,8.08-8,11.07-2.42,2-4.56,4.34-7.67,5.3-.3,.06-.6,.09-.9,.09,.01-.34,.09-.68,.22-1,.61-.84,1.39-1.55,1.92-2.42,3.1-5.18,6.15-10.4,9.21-15.6,.5-.6,.41-1.49-.19-1.98-.04-.03-.08-.07-.13-.1-1.41-.95-2.91-1.77-4.47-2.46-1.87-.77-2.49-.43-3.45,1.33-3.97,7.17-7.42,14.62-10.31,22.29-.67,1.83-.79,3.43,1,4.63,1.42,.97,2.89,1.86,4.4,2.68,1.14,.57,2.52,.4,3.49-.43,1.56-1.15,3.13-2.3,4.56-3.59s2.54-2.61,3.74-3.86c.56,.73,1.18,1.41,1.85,2.05,1.99,1.52,4.3,2.57,6.75,3.09,1.04,.37,2.15,.52,3.25,.44,1.56-.31,3.06-.82,4.49-1.51,3.95-1.93,7.63-4.39,10.92-7.31,1.12,1.26,2.33,2.45,3.62,3.54,1.59,1.18,3.32,2.45,5.51,1.17,.53-.31,1.06-.62,1.57-1,4.26-3.1,8.12-6.71,11.5-10.75,1.46-1.69,1-4.18-.37-6.1-.25,.45-.55,.88-.88,1.28-2.87,3.09-6.11,5.82-9.63,8.14-1.05,.55-2.15,1.02-3.28,1.39l-.32-.47c.32-.49,.64-1,1-1.47,.85-1.11,1.64-2.26,2.37-3.46,2.31-4.27,4.57-8.56,6.77-12.87,.36-.74,1.11-1.21,1.94-1.21,2-.23,4.07-.47,6.09-.78,.43-.07,1.13-.42,1.16-.71,.33-1.67,.21-3.39-.34-5l-5.03,.71ZM91.48,190.6c.31,.02,.62,.02,.93,0l9.42-1.56c3.35-.56,6.69-1.14,10-1.67,2.87-.46,5.75-.85,8.62-1.29,3-.47,6-1,9.07-1.47,2.43-.38,4.86-.72,7.29-1.09s5.09-.78,7.64-1.15,5.11-.72,7.66-1.09c3.25-.47,6.49-.95,9.74-1.41,2.63-.38,5.28-.71,7.91-1.09s5.35-.79,8-1.16,5.36-.71,8-1.08,5.43-.79,8.14-1.17,5.36-.71,8-1.08,5.5-.79,8.26-1.17c2.15-.29,4.31-.54,6.47-.82s4.54-.65,6.81-.92c2.45-.3,4.9-.51,7.34-.79,2.61-.3,5.2-.76,7.81-.94,2.88-.2,5.49-.85,7.56-3,1.59-1.66,3.33-3.2,4.44-5.56-2.33,.3-4.47,.56-6.6,.86-2.71,.37-5.42,.79-8.13,1.17s-5.19,.7-7.78,1.08-5.17,.8-7.76,1.17c-3.16,.45-6.33,.86-9.5,1.31l-8.26,1.19c-2.59,.37-5.19,.71-7.78,1.08s-5.43,.78-8.14,1.17-5.19,.7-7.79,1.07-5.42,.8-8.14,1.17-5.19,.69-7.78,1c-2.8,.39-5.59,.81-8.39,1.21l-7.54,1.15c-2.76,.39-5.51,.8-8.27,1.18s-5.28,.68-7.92,1c-3.28,.47-6.55,1-9.83,1.45-2.76,.37-5.53,.66-8.3,1-3,.4-6,.73-9,1.27-1.57,.17-3.09,.68-4.45,1.49-2.35,1.84-4.6,3.8-6.74,5.89-.4,.49-.74,1.03-1.01,1.6Zm64.65-45.7c-.19,.39-.29,.62-.39,.84-2.46,5.37-5,10.71-7.33,16.12-1.35,3.11-1.82,3,1.41,6.09l.09,.09c4,2.89,4.57,3.11,8.24,.5,1.59-1.13,3.11-2.38,4.65-3.56,2.92,2.73,4.2,3.48,5.76,3.34,.12-.38,.21-.77,.35-1.15,1.49-4,2.88-8,4.51-11.86,1-2.3,2.36-4.41,3.45-6.66,.41-1.03,1.28-1.81,2.35-2.11,1.05-.3,2.05-.81,3.11-1.09,.78-.21,1.2,.27,1,1.06s-.41,1.41-.62,2.11c-.32,1.07,0,2.11,.88,2.26,1.48,.26,4.74-.14,5.72-1.84,1.87-3.23,3.73-6.47,5.52-9.75,.16-.46,.1-.97-.17-1.38-1.07-1.44-2.7-2-4.3-2.75-1.1-.49-2.4-.25-3.24,.62-.63,.53-1.25,1.09-1.88,1.62l-3.89,3.25c.98-2.36,2.1-4.67,3.36-6.9,.45-.54,.37-1.34-.17-1.79-.05-.04-.1-.08-.16-.11-1.16-.84-2.36-1.62-3.55-2.42-.53-.4-1.28-.3-1.68,.23-.02,.03-.04,.05-.06,.08-2.82,3.19-5.21,6.75-7.09,10.57-.48,.94-1,2.1-.21,3,1.07,1.26,.47,2.26-.12,3.38-1,1.94-1.7,4.14-3.07,5.77-2.1,2.4-4.42,4.6-6.91,6.59-1.71,1.26-3.53,2.38-5.42,3.35-.51,.14-1.04,.2-1.57,.17l1.12-1.7c.88-1.34,1.84-2.63,2.61-4,2.21-4.04,4.37-8.11,6.48-12.2,.44-.85,.85-1.39,1.93-1.28,.7,.04,1.39-.05,2.06-.25,.62-.14,1.11-.45,1-1.27s.08-1.85,0-2.75c-.2-.8-.48-1.59-.82-2.34,1.57-2.93,3.31-6.23,5.15-9.48,.44-.65,.44-1.5,0-2.15-.96-1.45-2.36-2.57-4-3.17-1.39-.62-1.85-.43-2.57,.92-2.55,4.83-5.13,9.64-7.59,14.51-.47,1.22-1.63,2.03-2.93,2.06-3,.24-3.41,.72-2.93,3.25,.17,.91-.05,2.5,1.92,2.18h0Zm-28.51,24.75c.21,.73,.48,1.45,.82,2.13,1.67,2.76,4.21,3.19,7.26,2.37,2.11-.65,4.08-1.7,5.81-3.08,2.17-1.62,4.21-3.55,4.75-6.41,.26-1.54,.38-3.11,.38-4.67,.06-3.25,.08-6.5,0-9.74-.05-1.03,.36-2.03,1.12-2.73,1.27-1.31,2.47-2.69,3.76-4,.72-.53,.87-1.53,.34-2.25-.04-.05-.08-.1-.12-.15-.65-.85-1.37-1.66-2.13-2.41-1.35-1.28-1.83-1.34-3.21-.11-1.61,1.36-3.1,2.86-4.45,4.47-2,2.53-4,5.14-4.6,8.46-.1,.43-.31,.83-.61,1.16-3.51,3.79-6.94,7.68-10.63,11.3-1.58,1.54-3.71,2.52-5.62,3.71-.2,.13-.58,0-.87,0,0-.26,0-.58,.09-.78,.47-.72,1.06-1.36,1.5-2.1,3.09-5.22,6.17-10.46,9.24-15.71,.75-1.29,.64-2.09-.6-2.82-1.44-.84-2.96-1.54-4.54-2.08-1.43-.48-2.07-.11-2.75,1.23-2.34,4.65-4.77,9.26-7,14-1.46,3.14-2.57,6.45-3.81,9.69-.47,.86-.27,1.93,.48,2.56,1.41,1.11,2.83,2.22,4.33,3.21,1.55,1.09,3.65,.92,5-.4l6.06-4.85Zm88.82-48.73c-.06-.39-.16-.77-.29-1.14-1.13-2.4-5-3.54-7.17-2.08-2.26,1.57-3.81,3.96-4.32,6.67-.27,1.12-.38,2.46,.64,3.31,1.22,1.2,2.96,1.69,4.63,1.31,1.47-.41,2.78-1.29,3.72-2.49,1.43-1.56,2.4-3.5,2.79-5.58h0Zm-84.23,19.34c.61-.09,1.2-.25,1.77-.48,2.86-1.45,4.4-4,5.38-6.9,.2-.76,.11-1.57-.27-2.26-1.3-2.15-5.46-3.6-7.85-1.2-1.43,1.32-2.52,2.97-3.18,4.8-1,3.13-.58,4.83,2.56,5.82,.52,.11,1.06,.19,1.59,.22h0Zm9,64.32v-3.32l-1.21,1.06c-.55-.52-.9-1.09-.12-1.81,.19-.15,.32-.38,.35-.62,.08-.64,0-1.29-.23-1.89-.22-.32-1.1-.38-1.62-.26-.81,.19-.89,1-.68,1.64,.38,1.13,.27,2.37-.3,3.42-.05,.11-.1,.23-.12,.35-.07,.89,.59,1.66,1.47,1.74,.13,.01,.27,0,.4-.02,.67-.13,1.34-.23,2.02-.29h.04Zm76.06-6.9h-1.7c-.33,.76-.67,1.51-1,2.26l-.22-.06v-2.18h-1.38v6.86h1.54v-2.88h.25c.35,1,.69,2,1,2.92h1.36c-.92-2.28-2.4-4.48,.11-6.92h.04Zm-15.85,3.49v-1.61c.11-1.07-.66-2.02-1.73-2.13-.06,0-.11,0-.17-.01-1.1,.04-2,.9-2.09,2-.06,1.16-.06,2.32,0,3.48,0,1.1,.89,2,2,2,.02,0,.05,0,.07,0,1.07-.01,1.93-.89,1.92-1.96,0-.05,0-.09,0-.14-.02-.55-.03-1.09-.03-1.63h.04Zm-42.73,.31q1.86,3.12,2.51,3l-1-3.13c.82-.58,1.18-1.61,.9-2.57-.43-1-1.82-1.36-3.64-1v6.75h1.19v-3.09l.04,.04Zm-36.43,3.18c-.22-.7-.36-1.21-.55-1.69-.5-.79-.41-1.82,.2-2.52,.55-.82,.34-1.93-.48-2.48-.28-.19-.6-.29-.94-.31-.67-.04-1.33-.04-2,0v7l1.3-.12v-3.13c1.21,.9-.12,3.25,2.43,3.25h.04Zm85.65-2.72c.06,.36,.06,.73,0,1.09-.19,.31-.42,.59-.69,.84-.18-.28-.49-.55-.51-.84-.08-.87-.08-1.75,0-2.62,.07-.66-.47-1.63,.58-1.83,.2,0,.62,1,1,1.75h.88v-1.28c-.11-.91-.89-1.58-1.8-1.56-.85-.18-1.69,.36-1.88,1.21-.17,1.58-.17,3.17,0,4.75,.13,.92,.98,1.56,1.9,1.43,.03,0,.07-.01,.1-.02,.95-.05,1.69-.85,1.68-1.8,.03-.37,.03-.75,0-1.12h-1.26Zm-14.29-1.6v-.57c0-1.37-.6-2.23-1.69-2.35-1-.1-1.89,.63-1.99,1.63,0,.07,0,.14,0,.21-.19,1.37-.17,2.76,.05,4.12,.29,.72,.92,1.25,1.68,1.41,.55,.07,1.33-.59,1.77-1.13,.3-.36,.19-1.07,.27-1.66h-1.3c.05,.28,.05,.56,0,.84-.19,.35-.4,.68-.63,1-.2-.34-.56-.68-.58-1-.07-1.16-.07-2.33,0-3.49,0-.3,.41-.57,.63-.85,.23,.25,.42,.53,.56,.83,.05,.33,.05,.67,0,1h1.24Zm-25,4.19c-.42-2.06-.82-4.09-1.25-6.12-.17-.8-.7-.91-1.41-.64-.49,2.26-.98,4.53-1.47,6.81h1.34c.09-.77-.05-1.7,1.28-1.33,.01,.94,.25,1.76,1.52,1.28h-.01Zm-69.42-6.74l-1.44,6.77c1.29,.39,1.52-.33,1.45-1.34h1.18c0,1.06,.31,1.74,1.49,1.3-.41-2-.81-3.89-1.21-5.8-.15-.71-.38-1.37-1.46-.93h-.01Zm130.08-.06c-1-.23-1.3,.11-1.45,.94-.35,2-.82,3.93-1.23,5.86,1.47,.48,1.34-.65,1.58-1.29,1.42-.41,1,.82,1.29,1.36h1.24c-.48-2.34-.94-4.59-1.42-6.87h0Zm-76.47,2.6h.78c.27-.94-.09-1.96-.9-2.51-.65-.46-1.52-.44-2.15,.05-1.3,.92-1.38,5.74,0,6.58,.62,.32,1.34,.37,2,.14,1.07-.45,1.23-1.5,1.06-2.62h-1l-.56,2-.49,.05c-.25-.45-.45-.93-.59-1.42-.11-.7-.11-1.42,0-2.12,.17-.67,.39-1.32,.67-1.95l1.18,1.8Zm95.53-.7l1-.4c.03-.9-.68-1.66-1.58-1.7-.68,0-1.33,.27-1.81,.75-.58,.65-.52,1.65,.12,2.24,.55,.49,1.06,1.02,1.53,1.58,.24,.46,.38,.96,.42,1.48,0,.06-.29,.19-.45,.3l-.8-1.25-1.17,.17c.11,.4,.15,.64,.24,.87,.36,.96,1.41,1.48,2.39,1.16,.93-.33,1.41-1.35,1.07-2.28-.02-.06-.05-.12-.07-.17-.45-.73-.99-1.4-1.6-2-.5-.58-1-1.13-.09-2l.8,1.25Zm-74.73,2l1-.55-.9-.7v-1.59c.49-.38,1.82,.34,1.27-1.08h-2.77v6.85h1.4v-2.93Zm-66.2,3v-5.91c.77,.05,1.38-.08,.82-1h-3.23l-.21,.28,1.15,1.11v5.49l1.47,.03Zm18.12-6.88c.48,2.3,1,4.56,1.45,6.92h.64c.54-2.38,1-4.61,1.57-7-1.95,.2-1,2.11-1.93,2.81l-.7-2.78-1.03,.05Zm95.65,1.46v5.42h1.4v-5.35l1.28-1.53h-3.65l-.21,.26,1.18,1.2Zm-107.91,1.4v-1.78c.57-.32,1.71,.27,1.29-1h-2.56v6.83h2.63l.11-.41-1.5-.42v-2.11l1.26-.58-.1-.3-1.13-.23Zm-21.51-2.89v6.9h2.64l.11-.42-1.51-.4v-2.12l.93-.64-.92-.55v-1.66c.48-.37,1.8,.34,1.28-1.11h-2.53Zm87.65,1.09v5.91l1.25-.13v-5.81l.25,.14,1-1.18h-3.63c-.52,1.2,.59,.79,1.14,1.03v.04Zm60.22,5.81h2.65l.11-.41-1.55-.44v-6h-1.21v6.85Zm-4.12,0v-7l-1.11,.12v6.85l1.11,.03Z"/>
  <path class="cls-1" d="M99,139.69c-3.6,0-6.85-.47-9.49,1.71-1.58,1.34-3.02,2.83-4.31,4.45-2,2.52-3.93,5.18-5.9,7.76-.21,.29-.54,.48-.9,.53-1.18-.06-2.35-.24-3.49-.54-.74-.22-1.16-.99-.94-1.72,.03-.1,.07-.19,.11-.28,1.02-2.61,2.74-4.89,4.97-6.6,5.8-4.95,12.7-8.45,20.12-10.2,3.13-.91,6.46-.97,9.62-.16,2,.7,3.18,2.76,2.76,4.84-1,6.64-4.49,12.1-8.13,17.46-4.07,5.91-8.76,11.37-14,16.27-5.6,5.51-12.01,10.13-19,13.7-3.87,1.9-7.89,3.43-12.3,3.42-1.03-.02-2.05-.24-3-.64-2-.79-2.67-3-1.74-5.13,1.12-2.23,2.72-4.19,4.69-5.72,2.78-2.39,5.95-4.3,9.37-5.63,.14-.03,.28-.05,.42-.05-.26,1.08-.5,2.1-.75,3.11-.39,2.07-.31,4.2,.23,6.23,.48,2.43,1.6,2.57,3.48,1.91,2.07-.87,4.03-1.98,5.84-3.31,.41-.5,.55-1.16,.39-1.78-.64-2.63-.29-5.41,1-7.8,.24-.35,.64-.56,1.06-.56,1.72,.31,3.41,.79,5.13,1.1,.48,.07,.96-.06,1.33-.37,.94-.93,1.8-1.93,2.58-3,.87-1.19,.56-2-.84-2.56-.84-.31-1.71-.55-2.58-.79s-1.73-.41-2.77-.66c2.44-4.37,5.12-8.61,8.04-12.68,2.79-4.11,6.42-7.64,9-12.31Z"/>
  <path class="cls-1" d="M129.4,167.47l7-7.83,.42,.13c-.13,2.7-.2,5.4-.4,8.09-.1,.8-.82,1.36-1.61,1.27-.04,0-.07-.01-.11-.02-1.75-.26-3.46-.74-5.18-1.12l-.12-.52Z"/>
  <path class="cls-1" d="M159.09,198.48c.27,.37,.73,.72,.76,1.1,.05,.62-.22,1.23-1.14,1v-1.8l.38-.3Z"/>
</svg>