<?xml version="1.0" encoding="UTF-8"?>
<svg id="Layer_1" data-name="Layer 1" xmlns="http://www.w3.org/2000/svg" viewBox="0 0 100.11 113.84">
  <defs>
    <style>
      .cls-1 {
        fill: #18181b;
      }
    </style>
  </defs>
  <path class="cls-1" d="M46.54,112c-3.69-2.19-7.26-4.58-10.68-7.17-1.09-.67-1.85-1.75-2.12-3-.72-2.81-3.93-8.81-7.07-13.2-1.63-2.31-4.09-5.79-5.43-7.77-.8-1.28-1.71-2.48-2.73-3.59-.32,0-.08,8.3,.26,10.37l.22,1.17-1.79-1.81c-3.19-3.4-5.71-8.7-7.15-15-.49-2.53-.69-5.11-.57-7.68,0-5.73,.57-8.65,2.41-12.56l.94-2,.4,1.5c1.61,6.09,4.21,11.88,7.69,17.14,2.92,4.27,5.27,7.02,12.17,14.17,2.22,2.19,4.32,4.51,6.27,6.94,.69,1.09,.83,1.18,1.12,.67,.26-1.44,.32-2.91,.19-4.37-.16-4.25,0-4.39,1.69-1.34,2.39,4.68,3.2,10,2.3,15.18-.27,1.16-.38,2.09-.22,2.09,.67,0,5.15-4.9,6.81-7.47,2.84-4.27,3.91-7.39,4.15-11.43l.19-3.35,.94,1.51c2.11,3.56,2.41,4.9,2.41,11.94,0,4.07,.13,6.43,.34,6.43,.73,0,3.38-1.42,5.36-2.84,2.58-1.77,4.64-4.18,6-7,2.6-5.33,2.25-10.23-1.17-16-1.66-2.76-2-3-1.64-1.21,.78,4,.14,10.39-1.28,13.07l-.56,1.07-.43-3c-.83-5.78-4-10.42-9.53-14.14-1.34-.91-4.18-2.62-6.3-3.8-1.92-1.05-3.74-2.28-5.43-3.67-1.64-1.55-2.12-2.59-1-2.17,2.87,1.1,10.58,.75,14.75-.69,.27-.08-.61-.86-2.11-1.82-4.61-3-7.18-6.21-7.2-9v-1.07l1,1.31c2.3,3.18,6,5.09,11.33,5.84,4.23,.58,7.76-.57,7.81-2.52,0-.64,0-.62,.49,.13,1.23,2.17,.42,3.19-5.23,6.75-2.38,1.5-4.31,2.78-4.31,2.84,.93-.33,1.82-.73,2.68-1.21,.92-.57,1.94-.96,3-1.15,.72,.43,.16,1-2.12,2.41-4,2.41-4.31,2.89-.64,1.07,3.13-1.52,4.44-1.85,4.39-1.1-.88,.79-1.86,1.46-2.92,2-4.63,2.81-5,3.32-.69,1.12l3.9-2h5.47c5,.08,5.59,0,7.06-.64,.94-.28,1.72-.95,2.13-1.84,.73-1.74,.62-2.06-.77-2.49-1.92-.66-3.64-1.79-5-3.29l-.69-1,2.46,.17c1.29,.08,2.58-.01,3.85-.27l1.34-.4-1.29-1.37c-.7-.75-3.48-3.08-6.13-5.19-6.51-5.14-7-5.68-7-6.88,0-.75-.38-1.34-1.42-2.33-1.86-1.64-3.82-3.17-5.87-4.56-.42-.24-.4-.72,.08-4,.23-1.3,.36-2.61,.38-3.93-.3-.33-1.77,.8-3.91,3-1.66,1.69-2,1.93-1.87,1.26,1-4.28,.4-7.76-1.64-10-1.31-1.47-4.63-3.29-7.92-4.37-.78-.21-1.54-.52-2.25-.91,0-.29,5.67,.25,7.95,.75,2.21,.45,4.27,1.44,6,2.87,.89,1.1,1.48,2.43,1.7,3.83,0,.62,.25,.57,3.11-.64,1.69-.69,3.11-1.23,3.16-1.2s-.37,2.25-.91,4.92c-.43,1.88-.77,3.79-1,5.71,0,.69,.45,1.26,2.09,2.54,3.45,2.76,4.82,4.23,5.06,5.57,.21,1.1,.85,1.71,5.83,5.68,8.57,6.85,10,8.72,8.3,10.89-.31,1.03-.44,2.11-.37,3.19,0,2.25-.13,2.94-.83,4.12-.39,.74-.91,1.39-1.55,1.93-.67,.43-.73,.62-.4,1.74,.19,.95,.24,1.93,.13,2.89-.51,3.53-2.69,6.6-5.86,8.25-1.88,1-2.07,1.26-1.91,2,.11,.45,.3,1.92,.43,3.26,0,.83,.15,1.66,.43,2.44,.43,0,4.9-6.45,7-10.07,8.22-14.48,11.9-31.09,10.57-47.69l-.22-2.73-1.87-.21c-14.78-1.66-27-5.84-37.67-12.91l-3.52-2.35-2.43,1.52c-1.6,.99-3.27,1.86-5,2.6l-2.57,1.07,1.74,.94c2.35,1.41,4.37,3.33,5.89,5.62l.72,1.31-1.95-1.18c-2.9-1.61-6.1-2.59-9.4-2.89-1.99-.38-4.04-.31-6,.19-5.84,1.19-11.38,3.53-16.3,6.88-2.65,1.82-5.31,4.34-4.13,3.91,2.56-.44,5.15-.57,7.74-.4,.43,.16-.19,.61-2.33,1.69-3.46,1.76-6.61,4.07-9.32,6.85-2.04,2.4-3.77,5.06-5.14,7.9-.32,.83-.69,1.5-.83,1.5-1.15,0-1-23.59,.22-27.82,.13-.43,.83-.59,3.58-.78,16.55-1.12,30.13-5.89,42-14.78,1.14-.9,2.33-1.72,3.57-2.46,.79,.43,1.53,.95,2.2,1.55,1,.89,3.35,2.52,5.09,3.67,10.44,6.86,22.09,10.63,36.49,11.89,1.71,.06,3.4,.31,5.06,.72,.59,.89,1.13,8.76,1.1,16,.1,4.2-.15,8.4-.75,12.56-1.28,9.08-4.01,17.89-8.09,26.1-2.2,4.73-4.9,9.2-8.06,13.35-6.78,9-15.05,16.78-24.44,23-4.45,2.92-8,5-8.73,5-1.22-.49-2.39-1.11-3.48-1.84Zm30.92-39.52c1.74-1.5,2.74-4.71,2.09-6.64l-.37-1.15-5.44-.19c-5.7-.16-6.1-.08-5.7,1.26,.32,1.1,1.34,2,3.83,3.37,2.7,1.5,3.64,2.49,3.64,3.91,0,1.1,.08,1.07,2-.56h-.05Zm-29.37,8.22c-2.62-3.97-6.03-7.38-10-10-.81-.53-1.67-.97-2.57-1.33,.05,.72,.21,1.44,.48,2.11,1.26,4,1.23,6,0,4.1-.27-.43-2.28-2.63-4.42-4.9-4.49-4.68-6.49-7.33-7.96-10.14-2.7-5.33-2.86-12.59-.43-17.46,.43-.86,.67-1.58,.54-1.58-1.8,.95-3.48,2.11-5,3.45-1.44,1.37-1.36,.7,.35-2.57,1.02-1.95,2.34-3.73,3.91-5.27,2.38-2.41,2.47-2.54,1.34-2.14-.64,.24-2.11,.91-3.27,1.47s-2.06,.94-2.06,.78c.53-.9,1.15-1.75,1.85-2.52,6.2-7.5,16.36-10.44,25.6-7.39l2.83,1-3,.19c-1.64,.1-3.26,.37-4.85,.8l-1.84,.65,2.3,.43c2.81,.59,5.47,1.73,7.84,3.34l1.1,.83-2.3,1.64c-4.13,2.89-5.89,5.89-5.89,10-.09,4.02,2.15,7.74,5.75,9.53,1.74,.88,1.42,1-1.25,.51-4.24-.73-7.88-3.4-9.84-7.23-1-2.25-1.07-6.48-.1-8.11,.8-1.53,2.35-2.52,4.07-2.63,1.52-.16,3.45-1.36,3.45-2.16,0-.54-3.13-2.25-4.55-2.47-1.61-.22-3.24-.04-4.77,.51-.35,.21-.37,.43-.08,1s.19,1-.56,2.44c-1.36,3.22-1.44,6.84-.21,10.12,.37,1-1.21,.19-2.87-1.5l-1.59-1.7-.69,1.66c-1.47,3.37-1.74,7.31-.73,9.91l.41,1,.56-1.34c.48-1.39,1.22-2.68,2.17-3.8,.4-.35,.53-.08,.83,1.66,.75,4.17,1.82,5.78,8.32,12.45,4.82,4.92,6.16,6.5,7,8.27,1.16,2.36,1.75,4.95,1.71,7.58l-.1,1.39-1.48-2.58Zm19.25-34c-2.31-1.28-3-1.49-4.61-1.49-1.64-.03-3.25-.5-4.64-1.38-.95-.4-1.84-.9-2.68-1.5,0-.51,2.36-1.23,4.18-1.26,2.46,0,2.49-.24,.32-2.06-.86-.7-1.45-1.34-1.37-1.42,.9,.11,1.78,.36,2.6,.75,2.33,.88,4.66,2.57,5.38,3.94,.3,.53,0,.45-1.53-.43-.56-.39-1.19-.68-1.85-.85,0,.83,1.37,2.44,3.75,4.39q3.43,2.81,3.24,2.81c-.19,0-1.34-.69-2.81-1.5h.02Z"/>
</svg>