<svg xmlns="http://www.w3.org/2000/svg" id="Layer_1" data-name="Layer 1" viewBox="0 0 100 113.79"><defs><style>.cls-1{fill:#07162d;}</style></defs><path class="cls-1" d="M46.45,112a114.06,114.06,0,0,1-10.68-7.17,4.66,4.66,0,0,1-2.12-3c-.72-2.81-3.93-8.81-7.07-13.2-1.63-2.31-4.09-5.79-5.43-7.77a24.19,24.19,0,0,0-2.73-3.59c-.32,0-.08,8.3.26,10.37l.22,1.17L17.11,87c-3.19-3.4-5.71-8.7-7.15-15a32.4,32.4,0,0,1-.57-7.68c0-5.73.57-8.65,2.41-12.56l.94-2,.4,1.5a57.73,57.73,0,0,0,7.69,17.14C23.75,72.67,26.1,75.42,33,82.57a80.53,80.53,0,0,1,6.27,6.94c.69,1.09.83,1.18,1.12.67a16.61,16.61,0,0,0,.19-4.37c-.16-4.25,0-4.39,1.69-1.34a24.19,24.19,0,0,1,2.3,15.18c-.27,1.16-.38,2.09-.22,2.09.67,0,5.15-4.9,6.81-7.47C54,90,55.07,86.88,55.31,82.84l.19-3.35L56.44,81c2.11,3.56,2.41,4.9,2.41,11.94,0,4.07.13,6.43.34,6.43.73,0,3.38-1.42,5.36-2.84a17.93,17.93,0,0,0,6-7c2.6-5.33,2.25-10.23-1.17-16-1.66-2.76-2-3-1.64-1.21.78,4,.14,10.39-1.28,13.07l-.56,1.07-.43-3c-.83-5.78-4-10.42-9.53-14.14-1.34-.91-4.18-2.62-6.3-3.8a35.29,35.29,0,0,1-5.43-3.67c-1.64-1.55-2.12-2.59-1-2.17,2.87,1.1,10.58.75,14.75-.69.27-.08-.61-.86-2.11-1.82-4.61-3-7.18-6.21-7.2-9V47.1l1,1.31c2.3,3.18,6,5.09,11.33,5.84,4.23.58,7.76-.57,7.81-2.52,0-.64,0-.62.49.13,1.23,2.17.42,3.19-5.23,6.75-2.38,1.5-4.31,2.78-4.31,2.84a17.71,17.71,0,0,0,2.68-1.21,8.43,8.43,0,0,1,3-1.15c.72.43.16,1-2.12,2.41-4,2.41-4.31,2.89-.64,1.07,3.13-1.52,4.44-1.85,4.39-1.1a13.72,13.72,0,0,1-2.92,2c-4.63,2.81-5,3.32-.69,1.12l3.9-2,5.47,0c5,.08,5.59,0,7.06-.64A3.43,3.43,0,0,0,82,60.11c.73-1.74.62-2.06-.77-2.49a12,12,0,0,1-5-3.29l-.69-1L78,53.5a14.6,14.6,0,0,0,3.85-.27l1.34-.4L81.9,51.46c-.7-.75-3.48-3.08-6.13-5.19-6.51-5.14-7-5.68-7-6.88,0-.75-.38-1.34-1.42-2.33a57.91,57.91,0,0,0-5.87-4.56c-.42-.24-.4-.72.08-4a24,24,0,0,0,.38-3.93c-.3-.33-1.77.8-3.91,3-1.66,1.69-2,1.93-1.87,1.26,1-4.28.4-7.76-1.64-10-1.31-1.47-4.63-3.29-7.92-4.37a10.17,10.17,0,0,1-2.25-.91c0-.29,5.67.25,7.95.75a13.7,13.7,0,0,1,6,2.87A8.07,8.07,0,0,1,60,21c0,.62.25.57,3.11-.64,1.69-.69,3.11-1.23,3.16-1.2s-.37,2.25-.91,4.92a56.22,56.22,0,0,0-1,5.71c0,.69.45,1.26,2.09,2.54,3.45,2.76,4.82,4.23,5.06,5.57.21,1.1.85,1.71,5.83,5.68,8.57,6.85,10,8.72,8.3,10.89a9.12,9.12,0,0,0-.37,3.19c0,2.25-.13,2.94-.83,4.12a6.44,6.44,0,0,1-1.55,1.93c-.67.43-.73.62-.4,1.74a9.31,9.31,0,0,1,.13,2.89,11.11,11.11,0,0,1-5.86,8.25c-1.88,1-2.07,1.26-1.91,2,.11.45.3,1.92.43,3.26a7.45,7.45,0,0,0,.43,2.44c.43,0,4.9-6.45,7-10.07A83.15,83.15,0,0,0,93.28,26.53l-.22-2.73-1.87-.21c-14.78-1.66-27-5.84-37.67-12.91L50,8.33,47.57,9.85a38.84,38.84,0,0,1-5,2.6L40,13.52l1.74.94a18.58,18.58,0,0,1,5.89,5.62l.72,1.31L46.4,20.21A23.7,23.7,0,0,0,37,17.32a13.88,13.88,0,0,0-6,.19,44.86,44.86,0,0,0-16.3,6.88c-2.65,1.82-5.31,4.34-4.13,3.91a33.17,33.17,0,0,1,7.74-.4c.43.16-.19.61-2.33,1.69a35.63,35.63,0,0,0-9.32,6.85,37,37,0,0,0-5.14,7.9c-.32.83-.69,1.5-.83,1.5-1.15,0-1-23.59.22-27.82.13-.43.83-.59,3.58-.78,16.55-1.12,30.13-5.89,42-14.78A33.19,33.19,0,0,1,50.06,0a12.12,12.12,0,0,1,2.2,1.55c1,.89,3.35,2.52,5.09,3.67,10.44,6.86,22.09,10.63,36.49,11.89a24.74,24.74,0,0,1,5.06.72c.59.89,1.13,8.76,1.1,16a76,76,0,0,1-.75,12.56,85.4,85.4,0,0,1-8.09,26.1A72.49,72.49,0,0,1,83.1,85.84a99.16,99.16,0,0,1-24.44,23c-4.45,2.92-8,5-8.73,5A19.47,19.47,0,0,1,46.45,112ZM77.37,72.48c1.74-1.5,2.74-4.71,2.09-6.64l-.37-1.15-5.44-.19c-5.7-.16-6.1-.08-5.7,1.26.32,1.1,1.34,2,3.83,3.37,2.7,1.5,3.64,2.49,3.64,3.91,0,1.1.08,1.07,2-.56ZM48,80.7a35.31,35.31,0,0,0-10-10,14.88,14.88,0,0,0-2.57-1.33,7,7,0,0,0,.48,2.11c1.26,4,1.23,6,0,4.1-.27-.43-2.28-2.63-4.42-4.9C27,66,25,63.35,23.53,60.54c-2.7-5.33-2.86-12.59-.43-17.46.43-.86.67-1.58.54-1.58a25.63,25.63,0,0,0-5,3.45c-1.44,1.37-1.36.7.35-2.57a20.84,20.84,0,0,1,3.91-5.27c2.38-2.41,2.47-2.54,1.34-2.14-.64.24-2.11.91-3.27,1.47s-2.06.94-2.06.78a15.15,15.15,0,0,1,1.85-2.52,23.61,23.61,0,0,1,25.6-7.39l2.83,1-3,.19a24.19,24.19,0,0,0-4.85.8l-1.84.65,2.3.43a22,22,0,0,1,7.84,3.34l1.1.83-2.3,1.64c-4.13,2.89-5.89,5.89-5.89,10a10.38,10.38,0,0,0,5.75,9.53c1.74.88,1.42,1-1.25.51A13.64,13.64,0,0,1,37.21,49c-1-2.25-1.07-6.48-.1-8.11a4.94,4.94,0,0,1,4.07-2.63c1.52-.16,3.45-1.36,3.45-2.16,0-.54-3.13-2.25-4.55-2.47a10,10,0,0,0-4.77.51c-.35.21-.37.43-.08,1s.19,1-.56,2.44a13.65,13.65,0,0,0-.21,10.12c.37,1-1.21.19-2.87-1.5L30,44.5l-.69,1.66c-1.47,3.37-1.74,7.31-.73,9.91l.41,1,.56-1.34a11.91,11.91,0,0,1,2.17-3.8c.4-.35.53-.08.83,1.66.75,4.17,1.82,5.78,8.32,12.45,4.82,4.92,6.16,6.5,7,8.27a16.59,16.59,0,0,1,1.71,7.58l-.1,1.39Zm19.25-34c-2.31-1.28-3-1.49-4.61-1.49A9,9,0,0,1,58,43.83a14.06,14.06,0,0,1-2.68-1.5c0-.51,2.36-1.23,4.18-1.26,2.46,0,2.49-.24.32-2.06-.86-.7-1.45-1.34-1.37-1.42a8.29,8.29,0,0,1,2.6.75c2.33.88,4.66,2.57,5.38,3.94.3.53,0,.45-1.53-.43A5.64,5.64,0,0,0,63.05,41c0,.83,1.37,2.44,3.75,4.39,3.43,2.81,3.43,2.81,3.24,2.81s-1.34-.69-2.81-1.5Z"></path></svg>