<svg width="300" height="300" viewBox="0 0 300 300" fill="none" xmlns="http://www.w3.org/2000/svg">
<g clip-path="url(#clip0_1_2)">
<path d="M138.115 127.572C121.366 137.832 104.353 127.572 91.6555 115.418C95.4433 116.488 101.389 114.331 105.16 111.893L182.4 59.7523C199.149 49.4921 216.161 59.7523 228.859 71.9064C225.071 70.8359 219.126 72.9934 215.354 75.4308L138.115 127.572ZM189.959 179.169C173.227 189.429 156.198 179.169 143.516 167.015C147.288 168.086 153.233 165.928 157.021 163.507L234.524 111.35C251.273 101.09 268.286 111.35 280.967 123.52C277.196 122.433 271.25 124.591 267.479 127.028L189.959 179.169ZM222.634 244.551C185.084 281.837 117.298 274.541 71.1186 228.346C24.6759 181.87 17.6436 114.051 54.913 76.7648C78.4143 53.2635 114.333 47.5981 149.165 58.1218C124.33 55.1574 100.022 62.4532 82.4657 80.0092C49.2477 113.244 53.0356 170.523 90.832 208.352C128.645 246.165 185.908 249.953 219.126 216.719C236.665 199.163 243.698 174.574 240.997 149.986C251.8 184.835 246.119 220.77 222.634 244.551V244.551Z" fill="#005B66"/>
</g>
<defs>
<clipPath id="clip0_1_2">
<rect width="250" height="215.415" fill="white" transform="translate(31 53)"/>
</clipPath>
</defs>
</svg>
