<svg width="143" height="71" viewBox="0 0 143 71" fill="none" xmlns="http://www.w3.org/2000/svg">
<path fill-rule="evenodd" clip-rule="evenodd" d="M0 8.99057H3.47492V26.1806H3.55402C4.10695 25.1934 4.97547 24.2853 6.04176 23.7316C7.11213 23.0797 8.34254 22.7379 9.59578 22.7444C12.1618 22.7444 16.2687 24.324 16.2687 30.9179V42.2903H12.793V31.3143C12.793 28.1945 11.6493 25.6285 8.37128 25.6285C6.12004 25.6285 4.38299 27.2081 3.71141 29.1026C3.51365 29.5764 3.47492 30.0898 3.47492 30.7613V42.2911H0V8.99057ZM22.6657 23.1803L26.8122 34.4744C27.2878 35.7586 27.7093 37.0623 28.0754 38.3819H28.1545C28.5105 37.2374 28.906 35.7764 29.379 34.3936L33.1695 23.1803H36.8422L31.6294 36.8031C29.1417 43.3582 25.1221 54.0211 25.1221 54.0211L20.9789 54.0244C20.9789 54.0244 26.181 41.9376 26.181 41.6995C26.181 41.5017 26.1027 41.2248 25.9057 40.8318L18.8768 23.1803H22.6657ZM56.1104 8.99057V37.356C56.1104 39.0527 56.1508 40.9867 56.2686 42.2903H53.1497L52.9915 38.9736H52.9124C51.8461 41.1062 49.5553 42.7254 46.4372 42.7254C41.8168 42.7254 38.2241 38.8162 38.2241 33.0118C38.1845 26.6148 42.172 22.7452 46.7923 22.7452C49.7539 22.7452 51.7282 24.1271 52.5572 25.6285H52.6363V8.99139L56.1104 8.99057ZM52.6355 30.9583C52.6355 30.4853 52.5959 29.9315 52.4781 29.4577C51.9647 27.2864 50.0695 25.4703 47.4631 25.4703C43.8695 25.4703 41.7377 28.6288 41.7377 32.8148C41.7377 36.724 43.6726 39.922 47.3848 39.922C49.7143 39.922 51.8469 38.3432 52.4789 35.7764C52.5976 35.3034 52.6363 34.8287 52.6363 34.2766L52.6355 30.9583ZM61.9148 29.143C61.9148 26.8925 61.8761 24.9569 61.7574 23.1803H64.7973L64.9555 26.9313H65.0742C65.9427 24.3644 68.0753 22.7452 70.4048 22.7452C70.7608 22.7452 71.0376 22.7848 71.3524 22.8639V26.1015C70.9577 26.0619 70.6017 26.0232 70.1279 26.0232C67.6797 26.0232 65.9427 27.8789 65.4697 30.4449C65.3877 30.994 65.3477 31.5485 65.3502 32.1037V42.2911H61.8761L61.9148 29.143ZM82.3301 42.7254C77.1964 42.7254 73.1694 38.9348 73.1694 32.8923C73.1694 26.4962 77.3942 22.7452 82.6457 22.7452C88.1353 22.7452 91.8468 26.7335 91.8468 32.5379C91.8468 39.6468 86.9108 42.7254 82.3688 42.7254H82.3301ZM82.4496 40.1198C85.7646 40.1198 88.2532 37.0009 88.2532 32.6558C88.2532 29.419 86.634 25.3508 82.527 25.3508C78.4596 25.3508 76.6847 29.1421 76.6847 32.7744C76.6847 36.9605 79.0521 40.1198 82.4092 40.1198H82.4496Z" fill="#005B66"/>
<path fill-rule="evenodd" clip-rule="evenodd" d="M89.2956 70.5C83.5463 70.5 79.1254 66.7227 79.1254 60.3719C79.1254 54.0211 83.3065 49.962 89.6557 49.962C95.6463 49.962 99.6643 54.1011 99.6643 60.0497C99.6643 67.2056 94.5594 70.5 89.3351 70.5H89.2956ZM89.4167 66.1187C91.8278 66.1187 93.3143 63.748 93.3143 60.2104C93.3143 57.3164 92.1879 54.3425 89.4167 54.3425C86.5211 54.3425 85.3963 57.3164 85.3963 60.2508C85.3963 63.5873 86.8029 66.1187 89.3763 66.1187H89.4167ZM101.835 56.6729C101.835 54.2214 101.756 52.1712 101.676 50.4045H106.981L107.263 53.137H107.383C108.186 51.8498 110.156 49.9612 113.452 49.9612C117.471 49.9612 120.485 52.6541 120.485 58.4412V70.0583H114.376V59.1664C114.376 56.6333 113.492 54.9045 111.282 54.9045C109.594 54.9045 108.588 56.0713 108.147 57.1961C107.984 57.5982 107.946 58.1602 107.946 58.7239V70.0592H101.835V56.6729ZM128.484 62.1403C128.685 64.7121 131.177 65.9176 134.031 65.9176C136.12 65.9176 137.808 65.6374 139.457 65.0746L140.26 69.2137C138.251 70.0583 135.799 70.4596 133.146 70.4596C126.473 70.4596 122.656 66.6015 122.656 60.4123C122.656 55.4278 125.792 49.9224 132.583 49.9224C138.934 49.9224 141.347 54.8649 141.347 59.7283C141.347 60.7749 141.227 61.6986 141.146 62.1815L128.484 62.1403ZM135.678 57.9592C135.678 56.5122 135.036 53.9808 132.262 53.9808C129.65 53.9808 128.604 56.3531 128.443 57.9592H135.678Z" fill="#005B66"/>
<path fill-rule="evenodd" clip-rule="evenodd" d="M135.689 18.8377C135.94 23.589 134.298 28.2959 130.713 31.6958C123.952 38.1084 112.91 37.4434 106.051 30.2109C99.1937 22.9793 99.113 11.9175 105.877 5.50414C109.024 2.52034 113.099 1.08901 117.248 1.12032C110.804 -0.424728 104.175 0.89289 99.4879 5.33769C91.555 12.8577 92.1986 26.413 100.923 35.6132C109.65 44.8126 123.15 46.1756 131.081 38.6547C136.323 33.6842 137.796 26.0801 135.689 18.8377Z" fill="#005B66"/>
<path fill-rule="evenodd" clip-rule="evenodd" d="M106.266 13.0893L125.834 0.556686L132.612 3.75391L112.021 16.926L106.266 13.0893ZM115.933 23.8437L135.502 11.3094L142.281 14.5074L121.689 27.6811L115.933 23.8437Z" fill="#005B66"/>
</svg>
