<?xml version="1.0" encoding="UTF-8"?>
<svg id="Layer_1" data-name="Layer 1" xmlns="http://www.w3.org/2000/svg" viewBox="0 0 142.28 70">
  <defs>
    <style>
      .cls-1 {
        fill: #18181b;
        fill-rule: evenodd;
      }
    </style>
  </defs>
  <path class="cls-1" d="M0,8.49H3.47V25.68h.08c.55-.99,1.42-1.9,2.49-2.45,1.07-.65,2.3-.99,3.55-.99,2.57,0,6.67,1.58,6.67,8.17v11.37h-3.48v-10.98c0-3.12-1.14-5.69-4.42-5.69-2.25,0-3.99,1.58-4.66,3.47-.2,.47-.24,.99-.24,1.66v11.53H0V8.49Zm22.67,14.19l4.15,11.29c.48,1.28,.9,2.59,1.26,3.91h.08c.36-1.14,.75-2.61,1.22-3.99l3.79-11.21h3.67l-5.21,13.62c-2.49,6.56-6.51,17.22-6.51,17.22h-4.14s5.2-12.08,5.2-12.32c0-.2-.08-.47-.28-.87l-7.03-17.65h3.79ZM56.11,8.49v28.37c0,1.7,.04,3.63,.16,4.93h-3.12l-.16-3.32h-.08c-1.07,2.13-3.36,3.75-6.48,3.75-4.62,0-8.21-3.91-8.21-9.71-.04-6.4,3.95-10.27,8.57-10.27,2.96,0,4.94,1.38,5.76,2.88h.08V8.49h3.47Zm-3.47,21.97c0-.47-.04-1.03-.16-1.5-.51-2.17-2.41-3.99-5.01-3.99-3.59,0-5.73,3.16-5.73,7.34,0,3.91,1.93,7.11,5.65,7.11,2.33,0,4.46-1.58,5.09-4.15,.12-.47,.16-.95,.16-1.5v-3.32Zm9.28-1.82c0-2.25-.04-4.19-.16-5.96h3.04l.16,3.75h.12c.87-2.57,3-4.19,5.33-4.19,.36,0,.63,.04,.95,.12v3.24c-.39-.04-.75-.08-1.22-.08-2.45,0-4.19,1.86-4.66,4.42-.08,.55-.12,1.1-.12,1.66v10.19h-3.47l.04-13.15Zm20.42,13.58c-5.13,0-9.16-3.79-9.16-9.83,0-6.4,4.22-10.15,9.48-10.15s9.2,3.99,9.2,9.79c0,7.11-4.94,10.19-9.48,10.19h-.04Zm.12-2.61c3.32,0,5.8-3.12,5.8-7.46,0-3.24-1.62-7.31-5.73-7.31s-5.84,3.79-5.84,7.42c0,4.19,2.37,7.35,5.72,7.35h.04Z"/>
  <path class="cls-1" d="M89.3,70c-5.75,0-10.17-3.78-10.17-10.13s4.18-10.41,10.53-10.41c5.99,0,10.01,4.14,10.01,10.09,0,7.16-5.1,10.45-10.33,10.45h-.04Zm.12-4.38c2.41,0,3.9-2.37,3.9-5.91,0-2.89-1.13-5.87-3.9-5.87s-4.02,2.97-4.02,5.91c0,3.34,1.41,5.87,3.98,5.87h.04Zm12.42-9.45c0-2.45-.08-4.5-.16-6.27h5.31l.28,2.73h.12c.8-1.29,2.77-3.18,6.07-3.18,4.02,0,7.03,2.69,7.03,8.48v11.62h-6.11v-10.89c0-2.53-.88-4.26-3.09-4.26-1.69,0-2.69,1.17-3.13,2.29-.16,.4-.2,.96-.2,1.53v11.34h-6.11v-13.39Zm26.65,5.47c.2,2.57,2.69,3.78,5.55,3.78,2.09,0,3.78-.28,5.43-.84l.8,4.14c-2.01,.84-4.46,1.25-7.11,1.25-6.67,0-10.49-3.86-10.49-10.05,0-4.98,3.14-10.49,9.93-10.49,6.35,0,8.76,4.94,8.76,9.81,0,1.05-.12,1.97-.2,2.45l-12.66-.04Zm7.19-4.18c0-1.45-.64-3.98-3.42-3.98-2.61,0-3.66,2.37-3.82,3.98h7.24Z"/>
  <path class="cls-1" d="M135.69,18.34c.25,4.75-1.39,9.46-4.98,12.86-6.76,6.41-17.8,5.75-24.66-1.48-6.86-7.23-6.94-18.29-.17-24.71,3.15-2.98,7.22-4.42,11.37-4.38-6.44-1.55-13.07-.23-17.76,4.22-7.93,7.52-7.29,21.08,1.44,30.28,8.73,9.2,22.23,10.56,30.16,3.04,5.24-4.97,6.72-12.57,4.61-19.82Z"/>
  <path class="cls-1" d="M106.27,12.59L125.83,.06l6.78,3.2-20.59,13.17-5.76-3.84Zm9.67,10.75l19.57-12.53,6.78,3.2-20.59,13.17-5.76-3.84Z"/>
</svg>