<?xml version="1.0" encoding="utf-8"?>
<!-- Generator: Adobe Illustrator 27.0.0, SVG Export Plug-In . SVG Version: 6.00 Build 0)  -->
<svg version="1.1" id="Layer_1" xmlns="http://www.w3.org/2000/svg" xmlns:xlink="http://www.w3.org/1999/xlink" x="0px" y="0px"
	 viewBox="0 0 300 300" style="enable-background:new 0 0 300 300;" xml:space="preserve">
<style type="text/css">
	.st0{clip-path:url(#SVGID_00000132068164670431501610000000013495466773399973_);}
	.st1{fill:#18181B;}
</style>
<g>
	<defs>
		<rect id="SVGID_1_" x="31" y="53" width="250" height="215.4"/>
	</defs>
	<clipPath id="SVGID_00000056391800557609326120000005281636751447064714_">
		<use xlink:href="#SVGID_1_"  style="overflow:visible;"/>
	</clipPath>
	<g style="clip-path:url(#SVGID_00000056391800557609326120000005281636751447064714_);">
		<path class="st1" d="M138.1,127.6c-16.7,10.3-33.8,0-46.5-12.2c3.8,1.1,9.7-1.1,13.5-3.5l77.2-52.1c16.7-10.3,33.8,0,46.5,12.2
			c-3.8-1.1-9.7,1.1-13.5,3.5L138.1,127.6z M190,179.2c-16.7,10.3-33.8,0-46.4-12.2c3.8,1.1,9.7-1.1,13.5-3.5l77.5-52.2
			c16.7-10.3,33.8,0,46.4,12.2c-3.8-1.1-9.7,1.1-13.5,3.5L190,179.2z M222.6,244.6c-37.6,37.3-105.3,30-151.5-16.2
			C24.7,181.9,17.6,114.1,54.9,76.8c23.5-23.5,59.4-29.2,94.3-18.6c-24.8-3-49.1,4.3-66.7,21.9c-33.2,33.2-29.4,90.5,8.4,128.3
			c37.8,37.8,95.1,41.6,128.3,8.4c17.5-17.6,24.6-42.1,21.9-66.7C251.8,184.8,246.1,220.8,222.6,244.6L222.6,244.6z"/>
	</g>
</g>
</svg>
