<svg xmlns="http://www.w3.org/2000/svg" id="Layer_1" data-name="Layer 1" viewBox="0 0 300 336.67"><path d="M145.63,0h3.11a2.26,2.26,0,0,0,.43.17A21.87,21.87,0,0,1,158.07,3q10.58,5.86,21.16,11.67Q229,42.09,278.76,69.51a38.14,38.14,0,0,1,10.11,7.39,31.24,31.24,0,0,1,8.41,19.26c.26,3.52.22,7.06.29,10.58l.66,31.85c.1,5,.15,10.24.25,15.35l.66,31.86.3,15.82c.2,10.67.57,21.37.55,32a30.48,30.48,0,0,1-13.25,25.74c-4.07,3-8.55,5.37-12.86,8q-53.65,32.4-107.32,64.77a53.92,53.92,0,0,1-6.55,3.36,30,30,0,0,1-4.65,1.21H150.5a2.32,2.32,0,0,0-.44-.16,21.18,21.18,0,0,1-7.88-2.6l-17.43-9.58Q83.64,301.67,42.5,278.88c-8-4.43-16.2-8.69-24.11-13.37A30.47,30.47,0,0,1,2.77,240.26c-.51-7.51-.43-15.15-.58-22.61-.13-6.08-.22-12.17-.33-18.25-.17-10.3-.44-20.68-.64-31.05C1.1,162.71,1,157,.9,151.38Q.59,136,.31,120.51C.21,115.22.09,110,0,104.68-.16,92.24,4.89,82.49,15.46,75.93,29.65,67.14,44.08,58.62,58.32,50L133.63,4.55A27.23,27.23,0,0,1,142,.69C143.24.42,144.44.22,145.63,0ZM267.69,166.67l-.56-28.17c-.15-7.28-.2-14.57-.47-21.88-.44-12.17-6-21.52-16.58-27.41Q204.62,64,158.9,38.87a21.33,21.33,0,0,0-22.61.44Q103.62,59,71.12,78.69c-8.42,5-16.84,9.91-25.07,15.15a30.3,30.3,0,0,0-14.48,25.69c-.24,6.74.17,13.47.3,20.2q.27,15.06.58,30.12.19,9.79.38,19.62c.21,10.1.36,20.06.61,30.1a31.4,31.4,0,0,0,16.83,28.1c7.08,4.05,14.26,7.89,21.4,11.78l70,38.54a21.52,21.52,0,0,0,15.81,2.08,31.82,31.82,0,0,0,9-4.29C195.29,278.34,224.2,261,253,243.46A30.69,30.69,0,0,0,268.5,216c0-10.56-.36-21.11-.54-31.67Z"></path><path d="M60.8,169.21c-.19-6.39-.19-12.81-.36-19.22-.1-4.2-.38-8.42-.43-12.61a32.35,32.35,0,0,1,7.66-21.49,42.73,42.73,0,0,1,11.46-9.17q25.8-15.42,51.53-31c2.09-1.25,4.09-2.61,6.18-3.84a21.92,21.92,0,0,1,21.74-.81c4.76,2.31,9.31,5,13.95,7.65l40.81,22.45c3.62,2,7.46,3.69,10.86,6a31.39,31.39,0,0,1,14.35,24.4c.38,5,.33,10.22.43,15.34q.36,15.78.66,31.55c.13,6.86.4,13.72.42,20.59a33,33,0,0,1-7.15,21.38,40.37,40.37,0,0,1-11,9.09l-57,34.33a27.31,27.31,0,0,1-9.71,4,22.33,22.33,0,0,1-14.11-2.5c-5.45-2.89-10.81-6-16.23-8.95q-22-12.08-44-24.11a39.11,39.11,0,0,1-11.78-9,31.51,31.51,0,0,1-7.37-17.66c-.46-5.05-.36-10.27-.48-15.42-.16-7-.28-14-.43-21.08Zm14.09-50.5a23,23,0,0,0-4.63,8.67A89.64,89.64,0,0,0,67,151.1c-.1,4.61.17,9.26.25,13.87.15,6.94.2,13.86.44,20.79a59.88,59.88,0,0,0,.89,9.83A52.87,52.87,0,0,0,95.53,232.8c12.59,7.1,25.25,14,38,21a36.26,36.26,0,0,0,26.68,3.36c1.42-.33,1.43-.35,1.38-1.8-.16-5-.35-9.9-.52-14.85-.13-4.31-.25-8.62-.39-12.91q-.3-9.95-.58-19.9c-.11-3.69-.11-7.39-.29-11.08a25.32,25.32,0,0,1,2.79-13.23c4.82-9.21,9.73-18.37,14.6-27.56.69-1.29,1.38-2.59,2-3.89a1,1,0,0,0-.7.24c-4.41,3.74-8.86,7.47-13.24,11.24a71.74,71.74,0,0,1-11.65,8.54,12.39,12.39,0,0,1-10.1,1.18,78.67,78.67,0,0,1-16.31-7.22q-24.17-13.74-48.39-27.68a17.47,17.47,0,0,1-4.07-2.91c-2.63-2.78-3-6.3-2.51-9.92a17.37,17.37,0,0,1,2.63-6.72Zm37.91,27.46a14.83,14.83,0,0,0,1.82-.93l24.53-16.63L178.46,102c1.35-.91,2.69-1.8,4-2.74s1.09-1.69,0-2.41c-.64-.37-1.33-.67-1.94-1.09a3.53,3.53,0,0,0-4.46,0c-6.92,4.61-13.91,9.14-20.88,13.7L116.47,134.8l-8.84,5.81c-1.38.91-1.34,1.78,0,2.63s2.48,1.51,3.74,2.23A14.55,14.55,0,0,0,112.8,146.17Z"></path></svg>