<svg xmlns="http://www.w3.org/2000/svg" id="Layer_1" data-name="Layer 1" viewBox="0 0 300 143.79"><path d="M272,70c-.7.86-1.4,1.73-2.11,2.59C259.3,85.51,247.42,96.91,233,105.41c-7.46,4.4-15.4,7.67-24,8.83-12.7,1.71-24.19-1.46-34.43-9.17-9.54-7.2-16.58-16.51-22.59-26.7a182,182,0,0,1-11.38-23.26c-.23-.56-.49-1.11-.89-2-.25.69-.41,1-.52,1.4a79.83,79.83,0,0,1-19.32,33.31,65.22,65.22,0,0,1-33.38,18.52c-3,.64-6,1.08-9,1.49,3.11-1,6.28-2,9.32-3.17,11.31-4.56,20.58-11.89,28.3-21.25A97.66,97.66,0,0,0,132,53c2.5-7.19,4.47-14.57,6.6-21.61,1.09,2.81,2.29,6.05,3.59,9.24a185.92,185.92,0,0,0,18.44,35.28c6,8.79,12.88,16.83,22,22.66,6.78,4.34,14.13,6.73,22.25,6.17A40.88,40.88,0,0,0,223,98.68a83.85,83.85,0,0,0,17-14A413.08,413.08,0,0,0,270.52,49.1c9.45-12.22,18.63-24.63,26.38-38A54.09,54.09,0,0,1,300,5.92q-18.58,68.94-37.18,137.87l-.23,0,9.72-73.51Z"></path><path d="M25.66,62.54q3.11,29.61,6.23,59.22l-.15,0L0,2.45l.16,0C2.25,6.15,4.27,9.9,6.43,13.58A333.78,333.78,0,0,0,27.6,45.34c6.09,8.08,12.34,16,18.89,23.75,7.08,8.32,15.11,15.67,24.88,20.84,4.88,2.59,10,4.28,15.63,4.08a33.89,33.89,0,0,1-11.58.45c-13.19-1.62-24-8.27-33.95-16.52A109.68,109.68,0,0,1,27,63.46c-.29-.36-.62-.68-.94-1Z"></path><path d="M191.82,41.56c-6.61,8.13-12.37,16.74-22.91,19.72,14.3-14.3,24.17-30.85,27-51.24,0,1.6,0,3.2,0,4.79s0,3.23.12,4.85c.67,13.15,2.14,26.19,6.36,38.75,2.92,8.7,7,16.73,14.16,22.92-3.13-.87-9.2-5.46-12.8-9.67a46.91,46.91,0,0,1-8.31-14A65,65,0,0,1,191.82,41.56Z"></path><path d="M100.34,56.94c-7.94-2.54-12.45-9-17.53-15.38-.25,1.61-.45,2.93-.67,4.24-1.62,9.45-5.62,17.58-13.22,23.67-1.5,1.2-3.18,2.19-4.78,3.27l-.41-.46a21.62,21.62,0,0,0,1.89-1.55c5.08-5.26,8-11.68,10.13-18.57a96.24,96.24,0,0,0,3.74-22c.16-2.65.27-5.3.49-8C82.1,36.53,89.16,47.93,100.34,56.94Z"></path><path d="M222,39.29c10.62-4.74,16.19-13.72,21.17-23.16,1.94-3.69,3.54-7.55,5.15-11-.26,2.39-.76,5.14-.81,7.9a51.43,51.43,0,0,0,.54,8.5,60.32,60.32,0,0,0,1.9,8.29c.8,2.7,1.89,5.31,2.94,8.19a16,16,0,0,1-5.4-7.25c-1.16-2.72-2.09-5.55-3.24-8.65C239.46,31.29,232.72,37.69,222,39.29Z"></path><path d="M152.27,34a21,21,0,0,1-9.62-7.1,31,31,0,0,1-5.17-11.11c-2.78,4.64-5.1,9.27-10,11.72,5.91-8.2,9.68-17.13,9.65-27.51,1.35,7.92,3.07,15.62,6.54,22.82A29.44,29.44,0,0,0,152.27,34Z"></path><path d="M61.05,22.12c-2.81-1.42-4.32-4-6.25-6.74-1.14,5.22-3.35,9.38-8.33,12,5.78-6,6.8-13.41,7.78-20.15a63.46,63.46,0,0,0,2.46,7.47A75.5,75.5,0,0,0,61.05,22.12Z"></path></svg>