<?xml version="1.0" encoding="utf-8"?>
<!-- Generator: Adobe Illustrator 27.0.0, SVG Export Plug-In . SVG Version: 6.00 Build 0)  -->
<svg version="1.1" id="Layer_1" xmlns="http://www.w3.org/2000/svg" xmlns:xlink="http://www.w3.org/1999/xlink" x="0px" y="0px"
	 viewBox="0 0 300 148.4" style="enable-background:new 0 0 300 148.4;" xml:space="preserve">
<style type="text/css">
	.st0{fill:#18181B;}
	.st1{fill:#FFFFFF;}
	.st2{fill-rule:evenodd;clip-rule:evenodd;fill:#18181B;}
	.st3{font-family:'Roboto-Bold';}
	.st4{font-size:18.88px;}
</style>
<g>
	<path class="st0" d="M104.6,60.5c0,10.4-3.6,13.9-11.3,13.9s-11.4-3.5-11.4-13.9V17.2c0-10.4,3.7-13.9,11.4-13.9
		s11.3,3.5,11.3,13.9v14.4h-8.2V16.2c0-3.9-0.9-5.2-3-5.2s-3.1,1.3-3.1,5.2v45.3c0,3.9,1,5.2,3.1,5.2s3-1.3,3-5.2V47h8.2
		C104.6,47,104.6,60.5,104.6,60.5z"/>
	<path class="st0" d="M132.1,17.2v43.3c0,10.4-3.7,13.9-11.3,13.9s-11.4-3.5-11.4-13.9V17.2c0-10.4,3.7-13.9,11.4-13.9
		S132.1,6.8,132.1,17.2 M123.9,16.2c0-3.9-0.9-5.2-3-5.2s-3.1,1.3-3.1,5.2v45.3c0,3.9,0.8,5.2,3.1,5.2c2.1,0,3-1.3,3-5.2V16.2z"/>
	<path class="st0" d="M159.8,3.8v56.7c0,10.4-3.7,13.9-11.3,13.9s-11.4-3.5-11.4-13.9V3.8h8.2v57.7c0,3.9,0.8,5.2,3.1,5.2
		c2.1,0,3-1.3,3-5.2V3.8H159.8L159.8,3.8z"/>
	<path class="st0" d="M173,50.3v23.5h-8.2v-70h10.1c8.2,0,12.6,4.1,12.6,16V35c0,8-2.4,12.5-6.6,14.2c1.8,1.1,2.8,3.3,3.5,7.2
		c0.6,2.5,3.5,17.5,3.5,17.5h-8.7l-3.9-23.5L173,50.3L173,50.3z M173,11.7v31.4h1.9c3.1,0,4.3-2.3,4.3-7.5V19.6c0-5.2-1-7.9-4.3-7.9
		L173,11.7L173,11.7z"/>
	<polygon class="st0" points="205,11.7 205,73.9 196.8,73.9 196.8,11.7 189.5,11.7 189.5,3.8 212.2,3.8 212.2,11.7 	"/>
	<path class="st0" d="M237.1,60.5c0,10.1-4.6,13.9-11.2,13.9c-7.6,0-11.5-3.9-11.5-13.5v-10h8.2v10.8c0,3.8,1.1,5,3.1,5
		c2.4,0,3-2.1,3-5.7v-3c0-5.2-1-7.2-6.8-15.7c-4.7-7.2-7.4-12.9-7.4-20.5v-3.7c0-10.2,4.1-14.8,11.4-14.8c6.6,0,11.1,2.4,11.1,14.8
		v9.3h-8V17.2c0-4.2-0.7-6.2-3-6.2s-3.2,1.7-3.2,6.2v3c0,6.4,1.6,9.6,6.3,16.7c5.4,8,7.9,12.2,7.9,20.1L237.1,60.5L237.1,60.5z"/>
	<rect x="241.8" y="3.8" class="st0" width="8.2" height="70"/>
	<polygon class="st0" points="300,73.9 282.6,73.9 282.6,3.8 300,3.8 300,11.6 290.9,11.6 290.9,34.5 298.8,34.5 298.8,41.5 
		290.9,41.5 290.9,66.1 300,66.1 	"/>
	<path class="st0" d="M263.8,3.8H255v70h8.3l0-16c0,0,1.9-4.6,0-7c-1.8-2.4-3.5-1.8-3.5-5.7c0-0.2,0-0.3,0-0.5
		c0.1-4.4,1.4-23.6,1.5-24.9c0.1-1.3,0.6-1.3,0.6,0s0,20.3,0,21.6c0,1.1,1.4,1.1,1.5,0c0-1.1,0.6-20.3,0.6-21.6c0-1.3,0.6-1.3,0.6,0
		c0,1.3,0.4,20.4,0.4,21.6c0,1.1,1.6,1.1,1.6,0c0-1.7,0.3-20.3,0.3-21.6c0-1.3,0.6-1.3,0.6,0c0,1.3,0.5,20.3,0.6,21.5
		c0,1.2,1.5,1.2,1.5,0c0-1.5,0-20.3,0-21.6s0.6-1.3,0.7-0.1s1.2,20.5,1.4,25c0,0.1,0,0.2,0,0.3v0.2c0,4-2.8,3.6-3.9,5.8
		c-1.1,2.3-0.3,5.1,0,6l0.3,0.8v15.6c5.9-1.3,9.6-6.1,9.6-16.6V21C277.6,8.6,273.2,3.9,263.8,3.8"/>
	<path class="st1" d="M15.1,0h34.5c8.4,0,15.1,6.8,15.1,15.1v116.8c0,8.4-6.8,15.1-15.1,15.1H15.1c-8.4,0-15.1-6.8-15.1-15.1V15.1
		C0,6.8,6.8,0,15.1,0"/>
	<path class="st0" d="M41.1,27l0,0.5c1,0.6,1.6,1.1,2.7,1.8C46.6,31,50,34.2,49.6,45c0.8,2.4,1.2,7,1.9,8.5c1.5,2.9,2.4,4.8,2.9,7.5
		c0,0,0.4,4.3,1,4.6c2.9,0.7,2.1,0.9,2.5,1.5c0.5,0.6,2.1,0.5,2.1,2.1c0.6,0.8,1,1.6,1.3,2.4V15.3c0-6.4-5.2-11.6-11.6-11.6H38.5
		c1.8,0.6,2.8,1.4,3.4,2.6c1.4,0.1,3.1,3.3,0.5,8.1c1.2,0.8,0.3,2-0.6,3.3c-0.3,0.4-0.5,1.2-1.3,1.2c-1,2.2-2.2,4.2-3.2,4.3
		c-0.3,0.3-0.5,1.3,0,1.7C38.6,25.4,40.3,26.2,41.1,27"/>
	<path class="st0" d="M51.5,143.3l-0.1,0c5.1-3.1,1.9-9,1-12.4l0.2-0.6c0.3-0.5-0.3-1.6-0.3-1.6c-0.6-0.5-0.8-3.4-1.1-4.7
		c-0.5-2.2,1-5.9,1-7.2s-1-3-2.7-5.3c-0.4-0.5-1.7-11.4-2.8-14.2c-1.6-3.8-2.1-3.2-4-7.8c-1.4-3.2-0.3-7.9-3.6-18.9l0.7-0.7
		c0,0-2.6-9.5-3.5-12.1c-0.8-2.6-2.4-2.8-2.4-2.8l0.1-1.3c0.1-0.4,3.2-8.3,3.4-8.6c0-0.2,4.4-3.2,4.5-2.7c0.3,1.9,2.1,11.8,2.8,13.4
		c0.7,1.6,3.3,6.4,4.4,9.4c-4.5,1.1-7.9,5.2-7.9,10.1c0,5.7,4.6,10.4,10.4,10.4c4.4,0,8.2-2.7,9.7-6.6l0,52.7
		C61.3,137.7,57.1,142.5,51.5,143.3"/>
	<path class="st0" d="M34.9,3.6c-3.8,1.5-4.3,3.1-4.5,8.4c-0.6,0.1-2-0.6-1.5,2.6c0,0,0.2,2.1,1.1,1.8c-0.7,4.6-0.1,5.8-3.2,6.1
		c-0.7,0.1-1.5,0.1-2.5,0.2L24,23.1c-4.2,0.4-6.3,0.1-9,3.7c-1,1.4-2.2,3.3-3.5,6.1c0,0-1.3,3.1-1.6,4.4c-1.2,2.5-4.2,8.2-5,11.8
		c-0.3,1.2-0.8,1.6-0.1,3.4c1.2,2.6-0.8,3.2,5.8,3V57c0,0-1.8,1.5-2.1,2.4C8,60.3,7,64.9,7.1,67c0.1,5.6,4.7,10.3,6,15.9l3.1,0.4
		c1.7,3.8,8.9,14.1,10.6,15.8c0,0,0,0.1,0.1,0.1c0.4,1,2.2,2.2,3.3,3.4c0.7,0.6,3.7,4,7.8,7.1c1.5,1.2,3.1,2.3,4.8,3.3
		c0,0,1,2.1,1.5,3.8c-2.1,1.7,2,4.8,3.2,9.9c0.1,0.7-1.2,1.4,0.7,3.1c-0.1,7.7-2.5,11.7,1.5,13.9H15c-6.3-0.1-11.4-5.3-11.4-11.6
		V15.3C3.6,8.9,8.7,3.7,15,3.6H34.9z"/>
	<path class="st2" d="M12.1,114.7v20.6h2.2c0-5.3,0.1-10.6-0.2-15.8l2.6,15.8h3.2v-20.6h-2.2c0,5.4,0.1,10.8,0.5,16.2l-2.7-16.2
		C15.5,114.7,12.1,114.7,12.1,114.7z"/>
	<path class="st2" d="M31.3,114.7l-2.2,20.6h2.7l0.4-4.2H34l0.4,4.2h2.7l-2.1-20.6H31.3L31.3,114.7z M33.1,120.5l0.7,8.2h-1.4
		L33.1,120.5L33.1,120.5z"/>
	<path class="st0" d="M21.5,114.7v20.6h4c0.6,0,2.9-0.6,2.9-3.4v-4.1c0-0.4,0-1.8-1.2-2.6c0.7,0,1.2-1.4,1.2-2.7V118
		c0-1.7-1.1-3.3-3.2-3.3C25.2,114.7,21.5,114.7,21.5,114.7z M24,117.4h1.2c0.5,0,0.7,0.6,0.7,1.1v4.8c0,0.8-0.3,0.9-0.8,0.9H24
		C24,124.1,24,117.4,24,117.4z M24,126.3h1.2c0.5,0,0.7,0.6,0.7,1.1v4.3c0,0.6-0.3,1-0.8,1H24C24,132.7,24,126.4,24,126.3z"/>
	<path class="st0" d="M87.4,108.7v15h-5.2V79.1h6.4c5.2,0,8,2.6,8,10.2v9.7c0,5.1-1.5,7.9-4.2,9c1.1,0.7,1.8,2.1,2.2,4.6
		c0.4,1.6,2.2,11.1,2.2,11.1h-5.6l-2.5-15H87.4z M87.4,84.1v20h1.2c2,0,2.7-1.4,2.7-4.8V89.1c0-3.3-0.6-5.1-2.7-5.1L87.4,84.1
		L87.4,84.1z"/>
	<polygon class="st0" points="116.9,123.6 105.9,123.6 105.9,79.1 116.9,79.1 116.9,84 111.1,84 111.1,98.6 116.2,98.6 116.2,103 
		111.1,103 111.1,118.7 116.9,118.7 	"/>
	<path class="st0" d="M139.3,115.1c0,6.4-2.9,8.9-7.1,8.9c-4.9,0-7.3-2.5-7.3-8.6V109h5.2v6.9c0,2.4,0.7,3.2,2,3.2
		c1.5,0,1.9-1.3,1.9-3.6v-1.9c0-3.3-0.6-4.6-4.3-10c-3-4.6-4.7-8.2-4.7-13v-2.4c0-6.5,2.6-9.4,7.2-9.4c4.2,0,7.1,1.6,7.1,9.4v5.9
		h-5.1v-6.5c0-2.7-0.4-3.9-1.9-3.9s-2.1,1.1-2.1,3.9v1.9c0,4.1,1,6.1,4,10.6c3.4,5.1,5.1,7.7,5.1,12.8L139.3,115.1L139.3,115.1z"/>
	<polygon class="st0" points="157.2,84.1 157.2,123.6 151.9,123.6 151.9,84.1 147.3,84.1 147.3,79.1 161.8,79.1 161.8,84.1 	"/>
	<path class="st0" d="M177.1,114.3H173l-0.7,9.4h-5.2l4.4-44.5h7.5l4.2,44.5h-5.5L177.1,114.3z M173.4,109.3h3.4l-0.5-7.1
		c-0.3-3.3-0.9-13.8-1.2-19.7c-0.4,5.8-0.9,16.2-1.1,19.7L173.4,109.3z"/>
	<path class="st0" d="M205.6,79.1v36.1c0,6.6-2.4,8.9-7.2,8.9s-7.2-2.2-7.2-8.9V79.1h5.2v36.7c0,2.5,0.5,3.3,2,3.3
		c1.3,0,1.9-0.8,1.9-3.3V79.1H205.6L205.6,79.1z"/>
	<path class="st0" d="M220.3,108.7v15H215V79.1h6.4c5.2,0,8,2.6,8,10.2v9.7c0,5.1-1.5,7.9-4.2,9c1.1,0.7,1.8,2.1,2.2,4.6
		c0.4,1.6,2.2,11.1,2.2,11.1h-5.6l-2.5-15H220.3z M220.3,84.1v20h1.2c2,0,2.7-1.4,2.7-4.8V89.1c0-3.3-0.6-5.1-2.7-5.1L220.3,84.1
		L220.3,84.1z"/>
	<path class="st0" d="M247.2,114.3h-4.1l-0.7,9.4h-5.2l4.4-44.5h7.5l4.2,44.5h-5.5L247.2,114.3z M243.5,109.3h3.4l-0.5-7.1
		c-0.3-3.3-0.9-13.8-1.2-19.7c-0.4,5.8-0.9,16.2-1.1,19.7L243.5,109.3z"/>
	<path class="st0" d="M266,123.6h-4.7V79.1h7.2l5.5,38.3c-0.7-8-1.6-21.4-1.6-27.8V79.1h4.7v44.5h-6.7l-5.1-36.8
		c0.4,7.6,0.8,16.9,0.8,21.6L266,123.6L266,123.6z"/>
	<polygon class="st0" points="295.2,84.1 295.2,123.6 290,123.6 290,84.1 285.3,84.1 285.3,79.1 299.8,79.1 299.8,84.1 	"/>
</g>
<text transform="matrix(1 0 0 1 148.29 143.33)" class="st0 st3 st4">T</text>
<text transform="matrix(1 0 0 1 158.88 143.33)" class="st0 st3 st4">ORO</text>
<text transform="matrix(1 0 0 1 196.88 143.33)" class="st0 st3 st4">N</text>
<text transform="matrix(1 0 0 1 209.94 143.33)" class="st0 st3 st4">T</text>
<text transform="matrix(1 0 0 1 220.53 143.33)" class="st0 st3 st4">O</text>
<rect x="239.3" y="135.4" class="st0" width="60.5" height="2.6"/>
<rect x="82.1" y="135.4" class="st0" width="60.5" height="2.6"/>
</svg>
