<?xml version="1.0" encoding="UTF-8"?>
<svg id="Layer_1" data-name="Layer 1" xmlns="http://www.w3.org/2000/svg" viewBox="0 0 1165.07 294.95">
  <path d="M1165.07,145.12c-.26,23.5-2.02,44.39-8.14,64.7-5.51,18.31-14.17,34.83-27.73,48.55-14.18,14.35-31.45,23.3-50.61,28.93-14.61,4.29-29.59,6.46-44.75,7.2-19.94,.98-39.84,.5-59.57-3.06-11.72-2.11-23.14-5.24-34.09-9.95-29.68-12.78-49.32-34.84-59.98-65.12-5.15-14.63-7.89-29.76-9.16-45.19-1.32-16.09-1.32-32.18,.07-48.26,1.39-16.1,4.39-31.88,10.1-47.06,12.43-33.05,35.63-54.91,68.97-66.19,15.49-5.24,31.47-7.82,47.72-8.98,16.11-1.15,32.19-.88,48.25,.81,15.81,1.67,31.25,4.92,46.03,10.9,31.57,12.77,52.28,35.69,63.15,67.78,5.16,15.22,7.76,30.93,8.91,46.9,.49,6.8,.64,13.63,.83,18.04Zm-104.72,16.28c16.05-7.78,29.03-18.79,38.92-33.32,9.94-14.6,15.59-30.69,16.81-48.53-34.53-14.78-67.27-12.34-98.59,7.67-36.62-24.7-78.18-18.56-98.77-6.78,4.28,36.79,22.74,63.91,55.73,81.12-1.41,37.37,12.61,67.12,43.08,89.36,30.19-22.44,44.48-51.98,42.82-89.52Z"/>
  <path d="M82.63,245.71c-11.9,.15-22.95-1.27-33.66-4.91-23.46-7.99-38.7-23.91-45.31-47.78-4.87-17.6-4.88-35.38-.03-52.98,6.72-24.36,22.29-40.66,46.32-48.33,21.24-6.78,42.79-6.8,64.08-.15,23.95,7.48,39.55,23.54,46.39,47.71,5.06,17.86,5.11,35.92,.03,53.76-7.8,27.36-26.34,43.53-53.67,50.09-8.13,1.95-16.4,2.77-24.15,2.6Zm-47.41-79.48c.4,3.93,.55,7.9,1.25,11.77,3.31,18.13,13.27,30.51,31.48,35.35,7.74,2.06,15.65,2.31,23.56,1.02,17.12-2.8,29.02-12.01,34.38-28.77,4.1-12.84,4.07-25.83-.11-38.64-4.78-14.63-14.76-23.91-29.74-27.64-9.43-2.35-18.93-2.34-28.35,.05-14.48,3.67-24.16,12.65-29.1,26.72-2.28,6.5-3.21,13.23-3.36,20.14Z"/>
  <path d="M748.27,246.24c-9-.39-17.75-1.56-26.2-4.52-17.9-6.25-29.64-18.46-34.8-36.71-3.87-13.69-3.84-27.51,.06-41.19,5.49-19.24,18.12-31.73,37.13-37.5,16.05-4.87,32.35-4.88,48.38,.08,21.74,6.73,34.3,21.86,38.31,44.08,1.96,10.84,1.77,21.77-1.03,32.47-5.9,22.55-20.79,35.88-43.25,40.85-6.08,1.35-12.39,1.65-18.6,2.43Zm-30.75-62.03c.43,3.37,.56,6.82,1.34,10.11,2.84,12,10.08,19.83,22.47,22.03,3.98,.71,8.18,.79,12.21,.41,12.06-1.15,20.84-8.67,24.04-20.27,2.18-7.93,2.26-15.95,0-23.86-3.02-10.57-9.82-17.45-20.63-20.04-6.07-1.46-12.17-1.36-18.23,.24-9.14,2.4-15.27,8.08-18.57,16.9-1.74,4.66-2.44,9.49-2.63,14.49Z"/>
  <path d="M480.96,174.2c1.04-9.87-3.44-17.52-12.07-21.01-5.42-2.19-11.12-2.6-16.9-2.32-8.78,.42-17.31,2.13-25.63,4.96-1.41,.48-2.83,.95-4.76,1.59-2.85-7.86-5.18-15.74-7.78-23.74,5.77-2.93,11.55-4.9,17.49-6.35,15.17-3.68,30.5-4.63,45.85-1.41,20.91,4.38,31.78,18.28,34.29,38.61,.55,4.45,.69,8.98,.71,13.48,.07,20.07,.03,40.13,.03,60.2,0,1.48,0,2.95,0,4.34-3.3,.85-26.57,1.03-31.58,.25v-10.65c-1.44,.98-2.31,1.51-3.1,2.12-15.96,12.3-33.65,14.47-52.2,7.78-15.49-5.58-22.75-18.77-21.59-35.26,1.21-17.22,10.24-28.37,26.84-33.14,4.94-1.42,10.14-2.25,15.27-2.59,11.76-.79,23.44,.15,35.14,3.14Zm.04,20.65c-11.11-3.68-22-4.99-33.17-2.11-1.17,.3-2.31,.82-3.4,1.37-6.21,3.1-9.02,8.29-8.35,15.37,.52,5.48,4.32,9.87,10.62,11.52,8.65,2.26,17.04,1.33,24.77-3.35,5.71-3.46,8.95-8.64,9.5-15.35,.19-2.29,.03-4.6,.03-7.44Z"/>
  <path d="M295.23,243.02h-33.43c0-1.71,0-3.17,0-4.64,0-20.88-.02-41.75,.01-62.63,0-4.26-.29-8.45-1.79-12.48-2.76-7.41-8.12-11.46-15.99-11.95-2.56-.16-5.23-.11-7.73,.39-7.89,1.58-13.26,7.51-14.67,16.18-.53,3.21-.73,6.51-.74,9.77-.06,20.19-.03,40.39-.03,60.58,0,1.48,0,2.96,0,4.73h-33.36V125.61h33.17c.49,4.92-.04,10.03,.36,16.11,1.56-1.78,2.5-2.84,3.44-3.91,6.11-6.93,13.33-12.15,22.6-13.81,8.9-1.6,17.69-1.04,26.08,2.61,12.36,5.39,18.63,15.48,21.16,28.23,.69,3.46,1.01,7.04,1.02,10.56,.09,24.83,.05,49.67,.05,74.5,0,.94-.09,1.87-.16,3.1Z"/>
  <path d="M388.37,212.02c.1,.99,.21,1.64,.21,2.28,.01,7.1-.07,14.19,.06,21.29,.04,2.24-.75,3.43-2.72,4.42-8.79,4.41-18.12,5.9-27.81,5.15-3.78-.29-7.6-.95-11.23-2.02-8.14-2.39-13.55-7.86-16.43-15.83-1.88-5.19-2.56-10.58-2.56-16.08,0-17.74-.02-35.48-.02-53.22,0-1.48,0-2.96,0-4.98h-13.8v-27.62h13.71c.17-5.33,.07-10.32,.09-15.3,.02-4.88,0-9.76,0-14.87h31.74v29.89h28.63v27.64h-28c-.17,1.26-.39,2.16-.39,3.06-.02,16.1-.02,32.2,0,48.3,0,1.23,.03,2.47,.23,3.67,.71,4.31,3.1,6.79,7.43,7.6,5.81,1.09,11.39-.13,16.87-1.95,1.26-.42,2.49-.9,3.98-1.44Z"/>
  <path d="M571.44,243.05h-32.53V125.98c2.96-.85,27.58-1.01,32.38-.17v21.06c.22,.08,.44,.16,.67,.24,.54-.82,1.16-1.59,1.6-2.45,2.47-4.92,5.48-9.44,9.59-13.15,7.2-6.49,15.71-8.8,25.46-8.19v29.61c-2.39,.23-4.55,.4-6.7,.65-16.04,1.89-25.8,10.71-28.88,26.61-1,5.19-1.43,10.55-1.5,15.84-.2,14.32-.07,28.65-.07,42.97,0,1.21,0,2.42,0,4.03Z"/>
  <path d="M661.29,243.06h-33.1V125.38c10.97-.15,21.91-.04,33.1-.07v117.76Z"/>
  <path d="M662.05,111.99h-34.63v-29.04h34.63v29.04Z"/>
  <path d="M1017.83,142.05c-.82,7.24-1.18,14.06,3.1,20.05,4.5,6.3,11.26,7.06,18.25,6.62,2.32,15.51-7.04,41.63-21.75,54.8-.74-.68-1.58-1.32-2.26-2.1-16.97-19.28-23.22-41.64-18.65-66.86,1.68-9.27,6.66-16.35,16.67-19.79-6.05-4.63-11.88-8.33-19.23-7.67-7.81,.7-12,6.29-15.18,12.73-15.17-6.22-32.13-27.72-36.4-46.23,.92-.34,1.85-.84,2.85-1.05,24.36-4.95,46.3,.37,65.7,15.85,2.73,2.18,5.09,4.95,7.17,7.79,2.98,4.08,4.25,8.81,3.81,13.92-.09,1.06-.13,2.13-.25,3.93,6.98-2.94,13.06-6.14,16.09-12.95,3.15-7.06,.49-13.31-3.52-19.16,14.51-10.91,42.81-14.27,58.6-8.17-1.08,3.05-1.99,6.18-3.28,9.16-8.92,20.61-23.98,34.83-44.96,42.75-6.17,2.33-12.51,3.01-18.81,.69-2.62-.97-4.98-2.66-7.95-4.3Z"/>
</svg>