<?xml version="1.0" encoding="UTF-8"?>
<svg id="Layer_1" data-name="Layer 1" xmlns="http://www.w3.org/2000/svg" viewBox="0 0 211.83 200">
  <path id="Path_1" data-name="Path 1" d="M0,0V199.99H31.83v-9.04H9.05V9.05H202.78V190.95h-23.01v9.04h32.05V0H0Z"/>
  <path id="Path_2" data-name="Path 2" d="M84.84,143.01c-6.57,.12-13.02-1.73-18.52-5.33-5.27-3.46-9.69-8.05-12.96-13.43v51.03h-10.82V58.6h9.7v16.08c3.37-5.16,7.89-9.48,13.2-12.62,5.32-3.21,11.43-4.89,17.65-4.85,5.46-.06,10.85,1.17,15.75,3.58,4.71,2.34,8.92,5.58,12.4,9.53,3.54,4.05,6.31,8.71,8.18,13.75,1.94,5.13,2.93,10.57,2.91,16.05,.03,5.61-.88,11.19-2.7,16.5-1.69,5-4.3,9.63-7.71,13.67-3.29,3.89-7.35,7.05-11.93,9.3-4.72,2.3-9.91,3.47-15.16,3.41Zm-3.03-9.54c4.23,.05,8.4-.94,12.16-2.88,3.6-1.86,6.79-4.43,9.38-7.55,2.62-3.17,4.65-6.78,5.97-10.68,1.37-3.96,2.06-8.13,2.06-12.32,.02-4.35-.79-8.67-2.38-12.72-1.52-3.92-3.74-7.54-6.54-10.68-2.74-3.06-6.06-5.55-9.77-7.32-3.8-1.81-7.96-2.73-12.16-2.7-2.96,.04-5.89,.6-8.66,1.67-3,1.09-5.83,2.59-8.43,4.44-2.56,1.81-4.81,4.02-6.68,6.54-1.77,2.3-2.95,5-3.42,7.86v25.43c1.26,2.95,2.89,5.73,4.85,8.27,1.91,2.5,4.16,4.72,6.68,6.6,2.45,1.83,5.16,3.3,8.03,4.37,2.84,1.08,5.86,1.63,8.9,1.65h0Z"/>
  <path id="Path_3" data-name="Path 3" d="M169.03,137.15c-.68,.34-1.68,.78-2.99,1.37s-2.82,1.13-4.52,1.71c-1.91,.62-3.86,1.13-5.82,1.53-2.24,.46-4.51,.69-6.8,.68-2.42,.01-4.84-.33-7.16-1.02-2.19-.64-4.22-1.71-5.98-3.16-1.74-1.47-3.14-3.3-4.1-5.37-1.06-2.36-1.59-4.93-1.53-7.51V61.71h-12.26v-9.21h12.34V22.45h11.65v30.09h20.39v9.21h-20.48v60.43c-.02,2.83,1.27,5.5,3.5,7.25,2.11,1.54,4.65,2.35,7.26,2.31,2.99,.07,5.97-.49,8.74-1.63,1.65-.66,3.25-1.42,4.79-2.3l3,9.34Z"/>
  <path id="Path_4" data-name="Path 4" d="M40.9,199.75v-16.83h6.97c.7,0,1.38,.15,2.01,.46,.59,.3,1.13,.71,1.57,1.21,.47,.5,.84,1.08,1.1,1.72,.25,.62,.38,1.28,.38,1.94-.01,.66-.14,1.32-.38,1.94-.22,.62-.55,1.2-.97,1.7-.44,.5-.98,.92-1.58,1.21-.6,.3-1.27,.45-1.94,.45h-5.49v6.21h-1.66Zm1.66-7.69h5.4c.47,0,.93-.1,1.34-.32,.4-.21,.75-.5,1.03-.85,.29-.37,.51-.79,.66-1.23,.16-.47,.25-.96,.24-1.46,0-.51-.09-1.01-.26-1.48-.17-.45-.42-.86-.74-1.22-.3-.34-.67-.62-1.09-.82-.41-.2-.85-.3-1.31-.3h-5.28v7.69Z"/>
  <path id="Path_5" data-name="Path 5" d="M60.44,200c-.85,0-1.7-.17-2.48-.52-.73-.33-1.39-.81-1.94-1.4-.56-.6-1.01-1.3-1.31-2.07-.31-.79-.47-1.64-.45-2.49,0-.84,.15-1.67,.45-2.45,.3-.74,.73-1.43,1.28-2.01,2.27-2.44,6.09-2.57,8.53-.3,.1,.1,.21,.2,.3,.3,.55,.59,.97,1.27,1.26,2.02,.3,.77,.45,1.59,.45,2.42v.38c0,.09,0,.17,0,.26h-10.61c.05,.65,.21,1.29,.49,1.88,.24,.54,.56,1.03,.97,1.46,.4,.41,.89,.74,1.42,.97,.54,.24,1.11,.35,1.7,.35,.4,0,.8-.06,1.18-.16,.38-.11,.74-.26,1.09-.45,.33-.19,.64-.42,.9-.7,.26-.26,.47-.57,.61-.91l1.41,.38c-.2,.46-.47,.88-.81,1.24-.36,.38-.77,.7-1.21,.97-.47,.28-.98,.49-1.51,.64-.57,.14-1.15,.21-1.74,.2h0Zm4.55-7.05c-.07-1.22-.59-2.37-1.46-3.23-.4-.41-.88-.74-1.4-.97-.54-.22-1.12-.33-1.7-.33-.59,0-1.17,.11-1.71,.33-1.09,.46-1.95,1.34-2.38,2.44-.26,.57-.4,1.18-.44,1.81l9.08-.04Z"/>
  <path id="Path_6" data-name="Path 6" d="M75.2,188.83c-1.02,0-2.01,.32-2.84,.9-.81,.58-1.41,1.4-1.71,2.35v7.68h-1.59v-12.35h1.51v2.96c.41-.89,1.05-1.66,1.84-2.23,.73-.52,1.6-.8,2.49-.81,.1-.01,.21-.01,.31,0l-.02,1.48Z"/>
  <path id="Path_7" data-name="Path 7" d="M77.94,199.76v-11.08h-1.71v-1.27h1.71v-.34c-.07-1.26,.27-2.51,.97-3.56,.61-.85,1.61-1.34,2.66-1.31,.48,0,.96,.08,1.43,.21,.42,.13,.82,.32,1.18,.57l-.5,1.17c-.24-.19-.52-.33-.82-.41-.32-.09-.64-.13-.97-.14-.69-.04-1.36,.29-1.74,.87-.44,.77-.65,1.65-.59,2.53v.39h3.42v1.27h-3.42v11.08h-1.62Z"/>
  <path id="Path_8" data-name="Path 8" d="M89.89,200c-.85,0-1.7-.17-2.48-.52-.73-.33-1.39-.81-1.94-1.4-.56-.59-1-1.29-1.31-2.05-.31-.8-.46-1.64-.46-2.49,0-.84,.15-1.67,.46-2.45,.3-.74,.73-1.43,1.28-2.01,.55-.58,1.21-1.05,1.94-1.38,1.58-.67,3.36-.67,4.94,0,.74,.32,1.4,.8,1.94,1.39,.55,.59,.97,1.27,1.26,2.02,.3,.77,.45,1.59,.45,2.42v.38c.01,.09,.01,.17,0,.26h-10.58c.04,.63,.2,1.25,.47,1.83,.23,.54,.56,1.03,.97,1.46,.82,.83,1.94,1.3,3.11,1.31,.4,0,.8-.06,1.18-.16,.38-.11,.75-.26,1.09-.46,.33-.18,.64-.42,.9-.7,.26-.26,.47-.57,.62-.91l1.4,.38c-.19,.46-.46,.88-.81,1.24-.36,.38-.77,.7-1.21,.97-.47,.28-.98,.49-1.51,.64-.56,.16-1.14,.24-1.71,.25Zm4.56-7.06c-.08-1.22-.6-2.37-1.47-3.23-.4-.41-.87-.74-1.4-.97-.54-.22-1.12-.34-1.7-.33-.58,0-1.16,.11-1.7,.33-.53,.23-1.01,.56-1.42,.97-.41,.41-.74,.9-.97,1.43-.25,.57-.4,1.18-.44,1.81h9.09Z"/>
  <path id="Path_9" data-name="Path 9" d="M97.63,193.54c0-.84,.15-1.68,.45-2.47,.29-.75,.72-1.44,1.27-2.03,.55-.58,1.21-1.04,1.94-1.36,.79-.34,1.65-.51,2.51-.49,1.07-.03,2.13,.25,3.06,.78,.84,.52,1.51,1.26,1.94,2.15l-1.57,.5c-.34-.62-.84-1.13-1.46-1.48-.63-.36-1.35-.54-2.08-.52-.61,0-1.21,.12-1.77,.38-.53,.25-1.02,.6-1.42,1.03-.43,.45-.76,.99-.97,1.57-.24,.62-.36,1.28-.35,1.94,0,.66,.12,1.32,.36,1.94,.22,.59,.55,1.13,.97,1.6,.41,.44,.9,.8,1.44,1.07,.54,.26,1.14,.39,1.75,.39,.79,0,1.57-.22,2.25-.63,.31-.18,.6-.41,.85-.67,.22-.23,.39-.51,.49-.81l1.59,.48c-.18,.45-.44,.86-.77,1.21-.34,.38-.73,.71-1.17,.97-.47,.28-.97,.49-1.5,.64-.55,.15-1.13,.22-1.7,.22-1.69,0-3.3-.7-4.44-1.94-.56-.59-1-1.29-1.29-2.05-.29-.78-.43-1.6-.41-2.43Z"/>
  <path id="Path_10" data-name="Path 10" d="M111.03,194.08v-1.5h6.93v1.5h-6.93Z"/>
  <path id="Path_11" data-name="Path 11" d="M131.88,184.37h-6v15.37h-1.66v-15.37h-6v-1.47h13.66v1.47Z"/>
  <path id="Path_12" data-name="Path 12" d="M136.61,200c-.85,0-1.69-.17-2.47-.52-.73-.33-1.39-.8-1.94-1.39-.55-.59-.98-1.28-1.27-2.04-.3-.78-.45-1.6-.45-2.44,0-.84,.15-1.68,.47-2.47,.29-.76,.73-1.45,1.28-2.05,.55-.59,1.21-1.06,1.94-1.4,.76-.35,1.6-.53,2.44-.52,.85,0,1.68,.17,2.45,.52,1.48,.68,2.64,1.92,3.22,3.45,.31,.78,.47,1.62,.47,2.47,0,.83-.15,1.66-.45,2.44-.29,.76-.72,1.45-1.27,2.04-.55,.59-1.21,1.06-1.94,1.39-.78,.35-1.63,.53-2.49,.52h0Zm-4.47-6.36c0,.66,.11,1.32,.35,1.94,.23,.57,.56,1.1,.97,1.57,.4,.44,.88,.8,1.43,1.05,.54,.25,1.14,.38,1.74,.38,.6,0,1.2-.13,1.75-.39,.54-.26,1.03-.62,1.44-1.07,.41-.46,.74-.99,.97-1.57,.47-1.25,.47-2.63,0-3.88-.23-.58-.55-1.12-.97-1.59-.41-.44-.9-.8-1.44-1.07-.55-.26-1.14-.39-1.75-.39-.6,0-1.19,.13-1.73,.39-.54,.27-1.03,.64-1.43,1.09-.86,.98-1.33,2.25-1.31,3.55h-.02Z"/>
  <path id="Path_13" data-name="Path 13" d="M155.85,199.75h-1.62v-6.9c.08-1.1-.14-2.21-.65-3.19-.44-.66-1.21-1.03-2-.97-.49,0-.97,.09-1.43,.26-.47,.17-.91,.42-1.31,.74-.41,.32-.78,.7-1.08,1.13-.32,.42-.55,.9-.69,1.41v7.56h-1.61v-12.38h1.47v2.79c.52-.91,1.27-1.66,2.18-2.18,.93-.55,1.99-.84,3.07-.83,.6-.02,1.19,.11,1.73,.38,.47,.24,.87,.61,1.15,1.07,.3,.52,.51,1.09,.61,1.68,.13,.73,.2,1.46,.19,2.2v7.24Z"/>
  <path id="Path_14" data-name="Path 14" d="M164.63,200c-.86,0-1.7-.17-2.49-.52-.73-.33-1.39-.81-1.94-1.4-.56-.59-1-1.29-1.31-2.05-.31-.8-.46-1.64-.46-2.49,0-.84,.15-1.67,.46-2.45,.3-.74,.73-1.43,1.28-2.01,.55-.58,1.21-1.05,1.94-1.38,1.58-.67,3.36-.67,4.94,0,.74,.32,1.4,.8,1.94,1.39,.55,.59,.97,1.27,1.26,2.02,.3,.77,.45,1.59,.45,2.42v.38c.01,.09,.01,.17,0,.26h-10.58c.04,.63,.2,1.25,.47,1.83,.23,.54,.56,1.03,.97,1.46,.4,.41,.88,.74,1.41,.97,.54,.23,1.11,.35,1.7,.35,.4,0,.8-.06,1.18-.16,.38-.11,.75-.26,1.09-.45,.33-.18,.64-.42,.9-.7,.26-.26,.47-.57,.62-.91l1.4,.38c-.19,.46-.46,.88-.81,1.24-.36,.38-.77,.7-1.21,.97-.47,.28-.98,.49-1.51,.64-.56,.15-1.13,.22-1.71,.22h0Zm4.55-7.05c-.08-1.22-.6-2.37-1.47-3.23-.4-.41-.87-.74-1.4-.97-.53-.22-1.11-.33-1.69-.33-.59,0-1.17,.11-1.71,.33-.53,.23-1.01,.56-1.42,.97-.41,.41-.74,.9-.97,1.43-.25,.57-.4,1.18-.44,1.81h9.09Z"/>
</svg>