<?xml version="1.0" encoding="UTF-8"?>
<svg id="Layer_1" data-name="Layer 1" xmlns="http://www.w3.org/2000/svg" viewBox="0 0 164.78 152.09">
  <defs>
    <style>
      .cls-1 {
        fill: #18181b;
      }
    </style>
  </defs>
  <path class="cls-1" d="M163.85,8.22c-26.56-12.8-56.96-10.53-81.53,6-1.59-1.07-3.05-2-4.65-2.93h-.13C65.06,4.08,50.99,.22,36.51,.22,24.3,.22,11.95,3.02,.8,8.48l-.8,.4,.13,.93c2.26,29.47,19.39,54.8,45.81,67.87-.13,1.87-.27,3.73-.27,5.47v.13c0,14.4,3.72,28.67,10.89,41.33,6.11,10.67,14.74,20,24.96,26.93l.8,.53,.8-.53c24.3-16.67,37.58-44.27,35.58-73.87,1.73-.8,3.32-1.73,4.91-2.53h.13c12.48-7.2,22.84-17.6,30.14-30.13,6.11-10.67,9.83-22.8,10.76-35.2l.13-.93-.93-.67Zm-28.02,28c-5.71,9.73-13.54,17.2-22.71,22.53-3.19,1.87-6.37,3.33-9.82,4.53-6.64,2.4-15,2.27-20.85-4.13-1.59,7.07-1.59,13.6,1.06,18.27,.53,1.07,1.33,2,2.12,2.8,1.86,1.73,4.51,3.33,6.9,3.73,2.39,.4,4.12,.67,6.24,.4-.4,15.6-5.98,29.87-16.46,41.33-3.45-3.6-6.77-7.87-9.29-12.4-5.58-9.73-8.1-20.4-8.1-30.93,0-3.6,.4-7.2,1.06-10.8,1.33-6.93,5.58-14.27,13.94-16.13-5.31-4.93-11.02-8.13-16.2-8.13-1.19,0-2.26,.13-3.45,.4-2.52,.67-5.05,2.27-6.64,4.13-1.59,1.87-2.66,3.33-3.45,5.2-13.28-8.13-22.7-20.13-27.35-34.93,4.91-1.2,10.09-1.87,15.4-1.87,11.15,.13,21.64,3.2,30.8,8.4,3.05,1.87,6.11,3.87,8.76,6.27,5.31,4.67,9.56,12,6.9,20.27,6.9-2.13,12.48-5.47,15.14-10,.53-1.07,1.06-2.13,1.33-3.2,.66-2.53,.53-5.6-.26-7.87-.8-2.27-1.59-4-2.79-5.6,13.68-7.47,28.81-9.73,43.82-6.27-1.46,4.53-3.45,9.33-6.11,14Z"/>
</svg>