<svg width="239" height="240" viewBox="0 0 239 240" fill="none" xmlns="http://www.w3.org/2000/svg">
<path d="M201.026 62.7989C174.47 49.9988 144.064 52.2655 119.5 68.7989C117.907 67.7322 116.446 66.7988 114.853 65.8655H114.72C102.239 58.6655 88.1644 54.7988 73.6917 54.7988C61.4761 54.7988 49.1277 57.5988 37.9744 63.0655L37.1778 63.4655L37.3105 64.3988C39.5677 93.8655 56.6961 119.199 83.1189 132.266C82.9861 134.132 82.8534 135.999 82.8534 137.732V137.866C82.8534 152.266 86.5711 166.532 93.7411 179.199C99.8489 189.866 108.479 199.199 118.703 206.132L119.5 206.666L120.297 206.132C144.595 189.466 157.873 161.866 155.881 132.266C157.607 131.466 159.201 130.532 160.794 129.732H160.927C173.408 122.532 183.764 112.132 191.067 99.5988C197.175 88.9322 200.893 76.7989 201.822 64.3988L201.955 63.4655L201.026 62.7989ZM173.009 90.7989C167.3 100.532 159.466 107.999 150.304 113.332C147.118 115.199 143.931 116.666 140.479 117.866C133.84 120.266 125.475 120.132 119.633 113.732C118.039 120.799 118.039 127.332 120.695 131.999C121.226 133.066 122.023 133.999 122.819 134.799C124.678 136.532 127.334 138.132 129.724 138.532C132.114 138.932 133.84 139.199 135.964 138.932C135.566 154.532 129.989 168.799 119.5 180.266C116.048 176.666 112.728 172.399 110.206 167.866C104.629 158.132 102.106 147.466 102.106 136.932C102.106 133.332 102.504 129.732 103.168 126.132C104.496 119.199 108.745 111.866 117.11 109.999C111.799 105.066 106.089 101.866 100.911 101.866C99.7161 101.866 98.6539 101.999 97.4589 102.266C94.9361 102.932 92.4134 104.532 90.82 106.399C89.2267 108.266 88.1644 109.732 87.3678 111.599C74.09 103.466 64.6628 91.4655 60.0156 76.6655C64.9283 75.4655 70.1066 74.7989 75.4178 74.7989C86.5711 74.9322 97.0606 77.9988 106.222 83.1988C109.276 85.0655 112.33 87.0655 114.986 89.4655C120.297 94.1322 124.546 101.466 121.89 109.732C128.794 107.599 134.371 104.266 137.027 99.7322C137.558 98.6655 138.089 97.5988 138.354 96.5322C139.018 93.9988 138.886 90.9322 138.089 88.6655C137.292 86.3988 136.496 84.6655 135.301 83.0655C148.977 75.5989 164.113 73.3322 179.117 76.7989C177.657 81.3322 175.665 86.1322 173.009 90.7989Z" fill="#0B713D"/>
</svg>
