<svg xmlns="http://www.w3.org/2000/svg" id="Layer_1" data-name="Layer 1" viewBox="0 0 300 299.96"><defs><style>.cls-1{fill:#222;fill-rule:evenodd;}</style></defs><g id="Page-1"><g id="Icon"><path id="Path-2" class="cls-1" d="M239,191.43q0-29.38,28.59-61t31.46-57.26q5.82,62.15-24.44,85.19T239,191.43Z"></path><path class="cls-1" d="M288.53,44.27q-3.78,12-21,21.24a98.18,98.18,0,0,1-38.73,11.22,64.07,64.07,0,0,0,30.45-32.61q8.43-20.65-4-44.12-8.76,35.25-43.41,31.77c-34.64-3.48-107.83-18.33-150.6,0S-.93,85.4,0,88.31C4.08,99.44,35,150.76,37.29,149.23Q50,141,69.47,126L37.29,153l7.5,20.1-1.74,32.78a10.49,10.49,0,0,0,5,10.8q5.7,3.69,20.12,3.3a42.9,42.9,0,0,1,13.2,5.55,27.22,27.22,0,0,1,8.31,9l.69,6.39a33.16,33.16,0,0,0,8.1,8.06A70.24,70.24,0,0,1,104,277.13,58.66,58.66,0,0,1,97.82,300q54.94-7.41,88.88-34.59T231,180q4.86-15.89,7.47-22.37a123.92,123.92,0,0,1,7.68-15,131.67,131.67,0,0,0-18.36,6.69,79.49,79.49,0,0,0-13.53,9.42q-3-3.42,15.69-19.53C248.55,123,265.47,116.8,278.42,96Q291.44,75,288.53,44.27Zm-242.36,112C46.5,150.37,55,146,61.68,142.81a79.67,79.67,0,0,1,14-5l-11.7,9,11.7-2.1q-5.4,7.56-8.49,11.58c-2,2.67-4,5.1-6,7.26C51.15,162.52,46.17,160.12,46.17,156.28Zm116.29,59.39q-9.45,21.51-60.92,27c-4.44-6.45-5.34-10.41-3-11.73s12.9-1,22.14-2.22c4.95-.75,13.91-3.75,16.58-13.05q2.7-9.36-4.22-30L98.12,211a5.51,5.51,0,0,1-1.68.54A5.67,5.67,0,0,1,90,206.76l10.53-13.29V181.14a16.32,16.32,0,0,1,7.47-1.89,44.33,44.33,0,0,1,10.83,1.89,24.93,24.93,0,0,0-14.49-6.65,25.38,25.38,0,0,0-15.42,4.37,21.78,21.78,0,0,1,3,5,13.17,13.17,0,0,1,1.2,4.89,11.39,11.39,0,0,1-3,4.68,68.23,68.23,0,0,1-8.7,6A13.32,13.32,0,0,1,78,204.78a21.78,21.78,0,0,1-6.75,3.69,74,74,0,0,1-10-1.83c-3.27-.84-5.1-1.5-5.1-2a223.34,223.34,0,0,1,3.45-27.27q2.52-13.33,14.15,0v-6.74a16.9,16.9,0,0,0,12.36-5.4,7.47,7.47,0,0,0,0-9.93,7.78,7.78,0,0,1,0,4.68c-.42.84-1.53,1.47-3.27,1.47a7,7,0,0,1-3.75-2.82,2.77,2.77,0,0,1,0-3.33c3.42-3.81,6.66-5.43,9.66-4.92s6.29,3.27,9.81,8.25C106,157,111,150.16,113.42,138q3.6-18,18.6-22.17a103.55,103.55,0,0,0-1.59,34.71,67.2,67.2,0,0,0,9.62,28.31q1-31.85,4.41-26.42C147.46,157.66,171.88,194.13,162.46,215.67Zm-28.26-7.8c0,2.49-5,7.8-13.31,10.35a43,43,0,0,1-20.85,0l28.14-20.67,4.14,3.78L120.89,210Q134.21,205.38,134.2,207.87Zm34.47-56.69q7.23-23,3.6-30.93t-18.57-1.41q1.8-13.89,9.45-16.1c7.68-2.19,21,6.92,21,22.76Q184.15,141.34,168.67,151.18Z"></path></g></g></svg>