<svg width="368" height="76" viewBox="0 0 368 76" fill="none" xmlns="http://www.w3.org/2000/svg">
<path d="M39.1699 0.5L41.4331 0.769404C45.3978 1.24511 49.2539 2.37478 52.8411 4.11148C58.8189 6.96883 63.9049 11.3714 67.5611 16.8536C67.6458 16.9774 67.723 17.1084 67.8482 17.305C67.333 17.3523 66.8766 17.3997 66.4203 17.4361C64.4577 17.5914 62.495 17.7419 60.5323 17.8875C60.3611 17.8912 60.1904 17.8654 60.0282 17.8111C57.5552 17.1303 55.0822 16.4531 52.6166 15.7468C52.3438 15.6623 52.1045 15.4955 51.9322 15.2699C48.7628 10.8007 44.5684 7.13777 39.6925 4.58111C36.7116 2.99479 33.4942 1.88873 30.1613 1.30457C30.0398 1.28273 29.9184 1.24268 29.6682 1.17715C30.0362 1.09706 30.2938 1.03517 30.5514 0.98784C30.809 0.940513 31.0739 0.896825 31.3352 0.867701C32.2883 0.773045 33.2304 0.678389 34.1762 0.576453C34.2809 0.558281 34.3842 0.532731 34.4853 0.5H39.1699Z" fill="#232F67"/>
<path d="M0 34.6161C0.09568 33.8078 0.18032 32.9996 0.2944 32.1951C0.314877 31.9838 0.393823 31.7823 0.52256 31.6126C5.19756 26.2069 10.7401 21.5994 16.928 17.9749C16.9747 17.9608 17.0228 17.9523 17.0715 17.9494C17.0651 18.0788 17.0504 18.2077 17.0274 18.3353C16.3869 20.7787 16.0446 23.2892 16.008 25.8131C16.008 27.0291 16.0411 28.2487 16.1074 29.4537C16.1294 29.8178 15.9123 29.8978 15.6805 30.0143C12.9342 31.4124 10.3023 33.0204 7.80896 34.8236C4.95696 36.906 2.3184 39.1996 0.368 42.3669L0 39.1559V34.6161Z" fill="#232F67"/>
<path d="M52.1272 22.2125C52.3995 23.5304 52.6645 24.8083 52.9368 26.1298C51.8328 26.4575 50.7288 26.7779 49.6248 27.1055C41.584 29.501 33.6978 32.3188 26.1979 36.1014C21.9512 38.2421 17.8406 40.6121 14.1974 43.6812C13.0014 44.686 11.9894 45.8655 10.8854 46.9905C10.7478 47.1123 10.6593 47.2793 10.6363 47.4606C10.6133 47.6419 10.6573 47.8254 10.7603 47.9771C15.0107 56.7145 21.8592 62.3174 31.4714 64.1158C42.0661 66.1 51.1851 63.0237 58.4568 55.058C62.0706 51.1007 64.2123 46.3825 65.0808 41.1C65.4645 38.5957 65.5546 36.0559 65.3494 33.5312C65.3274 33.2472 65.2022 33.1671 64.941 33.1671C63.7891 33.1271 62.6336 33.0506 61.4818 33.036C59.2038 33.0033 56.9222 32.9195 54.648 33.0069C51.7997 33.1198 48.9477 33.3091 46.1141 33.6003C43.8619 33.8333 41.6282 34.2702 39.3466 34.6197C40.6162 34.0299 41.8526 33.4147 43.1186 32.8686C48.6889 30.515 54.4713 28.6866 60.3888 27.4077C62.9648 26.8288 65.5408 26.3155 68.1168 25.8713C69.2613 25.6711 70.4426 25.6784 71.6643 25.5874C72.0986 27.2875 72.5438 28.9367 72.9376 30.5968C73.4658 32.8851 73.7044 35.2294 73.6478 37.5759C73.4675 47.0014 70.196 55.2328 63.7118 62.1572C58.5748 67.7113 51.806 71.5313 44.3587 73.079C40.9386 73.8104 37.429 74.0447 33.9406 73.7744C27.4519 73.3371 21.2058 71.1612 15.8718 67.4798C9.41811 63.1196 4.56197 56.8124 2.02768 49.4988C1.3432 47.573 1.76272 45.7599 2.69376 44.0379C3.72784 42.1084 5.23296 40.5612 6.87424 39.1486C10.4402 36.0759 14.4587 33.6877 18.6981 31.6599C26.772 27.7863 35.2765 25.2015 44.0643 23.505C46.6146 23.0135 49.1906 22.6494 51.7555 22.2271C51.879 22.2149 52.0031 22.21 52.1272 22.2125Z" fill="#ED1E24"/>
<path d="M300.093 51.0534C291.945 51.108 283.997 44.6496 284.114 35.1075C284.214 27.2766 290.543 19.453 300.086 19.453C302.201 19.4504 304.296 19.8637 306.249 20.669C308.202 21.4743 309.973 22.6554 311.46 24.1438C312.948 25.6321 314.121 27.3981 314.913 29.3389C315.705 31.2798 316.098 33.357 316.071 35.4498C315.979 43.9069 309.024 51.1262 300.093 51.0534ZM300.115 25.6529C298.193 25.6421 296.31 26.1957 294.706 27.2435C293.101 28.2913 291.847 29.7863 291.101 31.5395C290.356 33.2926 290.153 35.2251 290.518 37.0924C290.883 38.9598 291.799 40.6782 293.151 42.0301C294.504 43.3821 296.231 44.307 298.114 44.6877C299.998 45.0685 301.953 44.8881 303.733 44.1692C305.513 43.4504 307.038 42.2255 308.114 40.6494C309.19 39.0734 309.769 37.217 309.779 35.3151C309.779 30.0362 305.392 25.6529 300.115 25.6529Z" fill="#232F67"/>
<path d="M319.983 19.7952H332.76C335.057 19.8373 337.265 20.6803 338.994 22.1756C340.724 23.6709 341.864 25.7224 342.214 27.9683C342.524 29.959 342.189 31.9956 341.257 33.7862C340.324 35.5768 338.843 37.0295 337.025 37.9363L336.841 38.0419L346.012 50.7294C345.835 50.7294 345.718 50.7548 345.604 50.7548C343.326 50.7548 341.044 50.7548 338.766 50.7548C338.637 50.7636 338.508 50.7366 338.394 50.6767C338.279 50.6169 338.184 50.5267 338.118 50.4163C335.476 46.7271 332.833 43.0392 330.188 39.3525C330.113 39.2222 330.001 39.1157 329.867 39.0454C329.733 38.9752 329.581 38.9441 329.43 38.9557C328.37 38.9848 327.31 38.9557 326.195 38.9557V50.7075H319.983V19.7952ZM326.206 32.7703C328.311 32.7703 330.372 32.8249 332.425 32.7412C333.154 32.6799 333.858 32.4531 334.483 32.0786C334.967 31.8013 335.367 31.4018 335.644 30.921C335.921 30.4402 336.063 29.8953 336.057 29.342C336.051 28.7888 335.897 28.247 335.61 27.7722C335.323 27.2974 334.914 26.9065 334.424 26.6395C333.589 26.1847 332.646 25.9584 331.693 25.9842C330.008 25.9842 328.322 25.9842 326.637 25.9842C326.501 25.9842 326.364 25.9842 326.206 26.0097V32.7703Z" fill="#232F67"/>
<path d="M127.869 38.0382L137.036 50.7184C136.856 50.7184 136.741 50.7439 136.624 50.7439C134.346 50.7439 132.064 50.7439 129.786 50.7439C129.657 50.7521 129.529 50.7243 129.415 50.6638C129.301 50.6033 129.207 50.5125 129.142 50.4017C126.515 46.7441 123.888 43.0865 121.263 39.4289C121.173 39.273 121.039 39.1458 120.878 39.062C120.717 38.9782 120.536 38.9413 120.354 38.9557C119.328 38.9884 118.297 38.9557 117.215 38.9557V50.7403H111.007V19.7952H123.931C128.296 19.7952 132.487 23.3302 133.153 27.6115C133.794 31.7072 132.447 35.0092 128.98 37.4084C128.649 37.6341 128.281 37.8016 127.869 38.0382ZM117.234 32.7703C119.239 32.7703 121.193 32.8103 123.144 32.7484C123.81 32.7127 124.465 32.5586 125.076 32.2934C125.673 32.0744 126.186 31.6756 126.543 31.1532C126.899 30.6308 127.081 30.0109 127.063 29.3809C127.097 28.7536 126.926 28.1321 126.577 27.6078C126.227 27.0836 125.716 26.6842 125.12 26.4684C124.494 26.1966 123.823 26.0388 123.14 26.0024C121.238 25.9369 119.331 25.9733 117.425 25.9696C117.36 25.9767 117.296 25.9889 117.234 26.006V32.7703Z" fill="#ED1E24"/>
<path d="M39.7882 9.48136C33.1642 9.46316 26.8677 10.8684 20.6816 13.4642C21.0091 12.6378 21.2741 11.9242 21.5722 11.2252C22.9806 7.97658 24.7809 4.90835 26.9339 2.0873C27.1734 1.84303 27.4712 1.6623 27.7998 1.56178C28.1284 1.46126 28.4773 1.44417 28.8144 1.51209C35.1066 3.46055 40.8373 6.86809 45.529 11.4509C47.8589 13.7398 49.8901 16.3082 51.5752 19.0962C51.623 19.1726 51.6672 19.2527 51.7518 19.402C40.2077 20.942 29.072 23.7998 18.4331 28.6673C18.4331 27.3786 18.3963 26.1626 18.4331 24.9503C18.539 22.191 18.9499 19.4515 19.6586 16.7808C19.687 16.6488 19.7465 16.5253 19.8322 16.4203C19.9178 16.3153 20.0273 16.2318 20.1517 16.1764C25.8927 13.2634 32.0089 11.1395 38.3309 9.86362C38.8019 9.76533 39.2693 9.65975 39.7403 9.55781C39.744 9.55417 39.7624 9.53233 39.7882 9.48136Z" fill="#232F67"/>
<path d="M205.528 19.7952H211.762V20.3777C211.762 26.1711 211.762 31.9645 211.762 37.7579C211.712 39.0255 211.95 40.2881 212.457 41.4531C213.495 43.6375 215.681 45.0136 217.933 44.8753C219.142 44.8061 220.298 44.3661 221.242 43.6164C222.186 42.8667 222.87 41.8445 223.199 40.6922C223.441 39.896 223.565 39.0696 223.567 38.2385C223.6 32.2897 223.586 26.341 223.586 20.3995V19.8134H229.842V20.2466C229.842 26.5958 229.897 32.9487 229.842 39.2979C229.783 44.8826 226.416 49.4224 220.955 50.6675C216.686 51.6395 212.693 50.9988 209.318 48.028C207.217 46.1823 206.084 43.7904 205.705 41.0563C205.576 40.0152 205.517 38.9669 205.528 37.9181C205.513 32.0786 205.513 26.239 205.528 20.3995V19.7952Z" fill="#232F67"/>
<path d="M266.977 38.9666V50.7184H260.754V19.7952H273.601C277.998 19.7952 282.101 23.1809 282.904 27.4732C283.416 29.9474 282.92 32.5217 281.523 34.6355C280.126 36.7493 277.941 38.2314 275.444 38.7591C274.728 38.9091 273.998 38.9847 273.266 38.9848C271.36 39.0176 269.457 38.9848 267.551 38.9848L266.977 38.9666ZM267.01 25.9842V32.7557C267.078 32.7683 267.147 32.7768 267.216 32.7812C269.089 32.7812 270.962 32.7812 272.835 32.7812C273.777 32.7804 274.697 32.4946 275.47 31.9621C276.11 31.521 276.564 30.8633 276.747 30.1134C276.93 29.3635 276.829 28.5732 276.464 27.8919C276.185 27.3879 275.783 26.9609 275.294 26.65C274.806 26.339 274.246 26.154 273.667 26.1116C272.597 26.0138 271.522 25.9725 270.447 25.9878C269.31 25.9587 268.173 25.9842 267.01 25.9842Z" fill="#232F67"/>
<path d="M157.195 38.9666V50.7112H150.972V19.7952H163.76C166.189 19.8324 168.514 20.7706 170.277 22.4239C172.039 24.0771 173.11 26.325 173.276 28.7221C173.443 31.1192 172.694 33.4909 171.177 35.3673C169.659 37.2437 167.485 38.488 165.085 38.8537C164.546 38.9375 164 38.9777 163.455 38.9739C161.548 38.9739 159.646 38.9739 157.74 38.9739L157.195 38.9666ZM157.195 32.7484C157.279 32.7647 157.364 32.7756 157.449 32.7812C159.289 32.7812 161.129 32.7812 162.969 32.7812C163.904 32.7845 164.82 32.5134 165.6 32.0021C165.976 31.7576 166.295 31.437 166.536 31.0616C166.777 30.6863 166.936 30.2645 167 29.8242C167.065 29.384 167.035 28.9351 166.911 28.5073C166.788 28.0795 166.574 27.6824 166.284 27.3421C165.892 26.9082 165.409 26.5637 164.869 26.3324C164.329 26.1011 163.745 25.9885 163.156 26.0024C161.283 25.9442 159.41 25.9769 157.537 25.9733C157.428 25.9803 157.32 25.9937 157.213 26.0133L157.195 32.7484Z" fill="#ED1E24"/>
<path d="M235.299 50.7184V19.7952H248.091C250.522 19.8303 252.851 20.7686 254.616 22.4236C256.38 24.0787 257.451 26.3296 257.616 28.7296C257.781 31.1296 257.028 33.5032 255.506 35.3794C253.984 37.2555 251.805 38.497 249.401 38.8574C248.799 38.9436 248.191 38.9826 247.583 38.9739C245.585 38.9739 243.587 38.9739 241.518 38.9739V50.7257L235.299 50.7184ZM241.555 25.9624V32.7521C241.677 32.7521 241.765 32.7812 241.857 32.7812C243.638 32.7812 245.416 32.7812 247.197 32.7812C247.71 32.7704 248.221 32.6971 248.716 32.5628C250.693 32.0276 251.752 30.3129 251.234 28.4707C251.074 27.8823 250.741 27.3539 250.278 26.9521C249.815 26.5504 249.242 26.2934 248.632 26.2136C247.524 26.0541 246.406 25.9786 245.287 25.9878C244.054 25.9478 242.821 25.9842 241.552 25.9842L241.555 25.9624Z" fill="#232F67"/>
<path d="M201.351 23.028L197.564 27.728C196.46 27.182 195.46 26.6067 194.392 26.148C193.036 25.5592 191.51 25.4727 190.094 25.9041C188.732 26.3009 188.026 27.2329 188.052 28.5363C188.053 28.8643 188.142 29.1863 188.31 29.469C188.478 29.7518 188.719 29.9852 189.008 30.1454C190.052 30.7521 191.138 31.285 192.258 31.74C194.344 32.5628 196.435 33.3673 198.304 34.6197C200.015 35.7665 201.403 37.19 201.929 39.2287C203 43.3681 201.348 47.5511 197.285 49.6881C193.557 51.6468 189.726 51.4466 185.917 49.852C183.842 48.9819 182.145 47.5948 180.6 45.9128L185.262 41.6388C186.5 42.9025 188.009 43.8743 189.678 44.4821C190.391 44.7601 191.152 44.8922 191.918 44.8703C192.683 44.8484 193.436 44.673 194.131 44.3547C194.625 44.1546 195.055 43.8253 195.375 43.402C195.694 42.9788 195.892 42.4775 195.945 41.9519C195.991 41.6842 195.966 41.4093 195.873 41.1541C195.779 40.8988 195.62 40.672 195.412 40.4956C194.804 39.9442 194.131 39.4686 193.406 39.0794C191.768 38.2967 190.068 37.6232 188.405 36.8951C186.657 36.1233 185.008 35.1986 183.706 33.7678C182.116 32.0167 181.575 29.9452 181.777 27.6407C181.917 25.7394 182.7 23.9402 184 22.5329C185.479 20.9325 187.483 19.9009 189.656 19.6204C193.947 18.9906 197.69 20.3995 201.127 22.8205C201.206 22.8845 201.281 22.9538 201.351 23.028Z" fill="#232F67"/>
<path d="M359.363 25.9478V50.7039H353.081V25.9842H344.419V19.7952H367.871V25.9478H359.363Z" fill="#232F67"/>
<path d="M98.992 50.7403H92.736V25.9842H84.0954V19.7952H107.544V25.9551H98.992V50.7403Z" fill="#ED1E24"/>
<path d="M15.2426 47.2671C16.5041 46.0619 17.9005 45.0029 19.4046 44.1107C22.9125 41.9729 26.8311 40.5794 30.912 40.0187C33.1764 39.7573 35.4605 39.7049 37.7347 39.8622C40.9878 40.0151 44.2446 40.2262 47.5014 40.2517C50.3902 40.2736 53.2459 39.7966 56.0685 39.2032C57.776 38.8392 59.4614 38.4168 61.1579 38.0237C61.3312 37.9755 61.5146 37.9755 61.6878 38.0237C61.3198 38.5188 60.9739 39.0357 60.5838 39.5054C56.6683 44.0743 51.6635 46.8339 45.8013 48.1445C43.2229 48.7127 40.5691 48.8688 37.9408 48.6069C35.9462 48.4212 34.0474 47.8169 32.1264 47.289C30.3401 46.7485 28.521 46.3205 26.68 46.0075C25.2398 45.8533 23.7876 45.8411 22.345 45.9711C19.9373 46.1495 17.5561 46.5841 15.2426 47.2671Z" fill="#232F67"/>
<path d="M139.472 50.7184V19.817H145.618V50.7184H139.472Z" fill="#ED1E24"/>
<path d="M1.05248 28.3579C3.60272 16.7662 13.3731 5.53495 26.6947 1.99265C26.128 2.52053 25.565 3.02294 25.024 3.57631C22.1173 6.64263 19.8491 10.2449 18.3485 14.1777C18.2961 14.3276 18.2136 14.4654 18.1061 14.583C17.9987 14.7006 17.8683 14.7955 17.7229 14.8622C12.9276 17.2695 8.55812 20.4292 4.784 24.2185C3.61744 25.3944 2.576 26.6723 1.44624 27.9064C1.3248 28.0411 1.20704 28.1686 1.05248 28.3579Z" fill="#232F67"/>
<path d="M59.1266 45.6835C58.9297 47.1708 58.3923 48.594 57.5552 49.8447C55.6563 52.7972 52.9699 54.8141 49.7499 56.1648C47.5003 57.0812 45.1154 57.6308 42.688 57.7921C37.8672 58.178 33.3224 57.1113 28.888 55.3529C26.68 54.4792 24.4389 53.6819 22.2125 52.8555C21.1109 52.4198 19.9269 52.226 18.7422 52.2875C19.7478 51.7396 20.8326 51.3479 21.9586 51.1262C24.9835 50.4818 27.9238 50.9369 30.8642 51.7123C33.0979 52.3057 35.3574 52.8336 37.6354 53.2559C40.1579 53.6951 42.7322 53.7638 45.275 53.4598C47.9312 53.2099 50.5151 52.4624 52.889 51.2572C55.3887 50.0251 57.4972 48.1358 58.983 45.7963C58.9978 45.7672 59.0309 45.7527 59.1266 45.6835Z" fill="#232F67"/>
<path d="M243.369 73.4613C242.31 69.0379 241.25 64.6292 240.179 60.1731C240.344 60.1731 240.477 60.133 240.606 60.133C241.419 60.133 242.232 60.133 243.042 60.133C243.373 60.133 243.498 60.2204 243.557 60.5517C244.105 63.6899 244.661 66.8281 245.243 69.9627C245.244 69.9726 245.247 69.9823 245.252 69.991C245.257 69.9998 245.264 70.0075 245.272 70.0136C245.883 67.0247 246.505 64.0103 247.112 60.9959C247.285 60.1403 247.278 60.1403 248.146 60.1403H250.571C251.164 63.3513 251.756 66.555 252.367 69.8716C252.47 69.3001 252.547 68.8159 252.639 68.3353C253.13 65.7044 253.638 63.0734 254.163 60.4425C254.187 60.3718 254.228 60.3084 254.283 60.258C254.339 60.2077 254.406 60.1722 254.479 60.1549C255.41 60.1294 256.345 60.1549 257.35 60.1549C257.14 60.9922 256.945 61.7786 256.743 62.5613C255.837 66.0344 254.925 69.5039 254.034 72.9771C253.931 73.3775 253.769 73.5122 253.342 73.494C252.426 73.454 251.502 73.494 250.527 73.494C249.927 70.334 249.331 67.1958 248.768 64.2214C248.139 67.0939 247.476 70.1156 246.821 73.1373C246.773 73.3484 246.733 73.5013 246.453 73.5013C245.456 73.4503 244.429 73.4613 243.369 73.4613Z" fill="#232F67"/>
<path d="M222.393 60.1549H225.238V73.4576C224.219 73.4576 223.196 73.4576 222.173 73.4576C222.066 73.4576 221.937 73.2865 221.871 73.1627C220.242 70.1143 218.615 67.0635 216.991 64.0103C216.961 63.9608 216.928 63.9134 216.892 63.8683V73.4212H214.176V60.133H215.501C216.093 60.133 216.686 60.133 217.278 60.133C217.415 60.1159 217.553 60.1446 217.671 60.2146C217.789 60.2845 217.88 60.3917 217.93 60.5189C219.541 63.4314 221.345 66.2092 222.581 69.2855C222.508 66.2565 222.452 63.2348 222.393 60.1549Z" fill="#232F67"/>
<path d="M159.311 60.3005C161.545 60.0711 163.753 59.8017 165.935 60.326C166.67 60.514 167.352 60.8679 167.926 61.3599C168.232 61.6417 168.472 61.9867 168.629 62.3704C168.786 62.7542 168.855 63.1673 168.833 63.5806C168.81 63.9939 168.696 64.3972 168.499 64.7621C168.301 65.127 168.025 65.4445 167.69 65.6922C167.384 65.9032 167.067 66.0988 166.741 66.2784C167.09 66.4305 167.43 66.6019 167.76 66.7917C169.92 68.1678 169.758 71.3388 167.466 72.6895C166.515 73.231 165.439 73.5195 164.341 73.5268C162.788 73.5705 161.232 73.4831 159.675 73.4649C159.377 73.4649 159.274 73.3666 159.274 73.0608C159.274 68.9105 159.274 64.7578 159.274 60.6027C159.281 60.5299 159.296 60.4534 159.311 60.3005ZM162.362 71.4298C163.204 71.3648 164.042 71.2518 164.871 71.0912C165.223 70.9968 165.531 70.7873 165.746 70.497C165.961 70.2067 166.071 69.8527 166.056 69.493C166.067 69.1356 165.961 68.7844 165.753 68.4917C165.546 68.1991 165.248 67.9807 164.904 67.8693C164.088 67.5344 163.237 67.6072 162.362 67.6327V71.4298ZM162.362 65.3901C163.219 65.3901 164.047 65.4956 164.827 65.1206C165.113 65.0096 165.353 64.8086 165.512 64.5486C165.67 64.2886 165.737 63.9842 165.703 63.6826C165.71 63.3838 165.606 63.093 165.41 62.8649C165.215 62.6369 164.942 62.4874 164.643 62.4448C163.887 62.3437 163.125 62.2842 162.362 62.2664V65.3901Z" fill="#232F67"/>
<path d="M183.345 66.7589C183.208 67.6992 183.014 68.6304 182.764 69.5476C181.932 72.0414 179.864 73.5122 177.126 73.6651C173.416 73.8727 170.792 71.6482 170.358 67.9385C170.119 65.8815 170.472 63.9593 171.764 62.2955C173.236 60.4061 175.271 59.7471 177.608 59.9692C181.269 60.3114 183.268 63.2239 183.231 66.7371L183.345 66.7589ZM173.538 66.8791C173.5 67.9857 173.803 69.0776 174.406 70.01C174.666 70.3987 175.02 70.7171 175.435 70.9361C175.851 71.1552 176.315 71.2681 176.786 71.2645C177.257 71.2609 177.72 71.1409 178.132 70.9154C178.544 70.69 178.893 70.3662 179.146 69.9736C180.25 68.3353 180.272 65.3755 179.172 63.7154C178.92 63.2936 178.561 62.9453 178.129 62.7057C177.697 62.4661 177.209 62.3437 176.714 62.3511C176.219 62.3585 175.735 62.4954 175.311 62.7478C174.887 63.0002 174.538 63.3591 174.3 63.7882C173.762 64.7317 173.498 65.8039 173.538 66.8863V66.8791Z" fill="#232F67"/>
<path d="M197.108 66.3439C197.108 68.6666 196.633 70.4541 195.22 71.8885C194.177 72.9301 192.784 73.5559 191.305 73.6469C190.093 73.7968 188.863 73.6181 187.746 73.13C186.901 72.7443 186.16 72.1657 185.584 71.4417C185.008 70.7177 184.614 69.869 184.434 68.9651C183.893 66.7225 184.099 64.5636 185.424 62.6232C186.874 60.4971 189.001 59.7544 191.515 59.9801C195.08 60.3005 197.171 63.2239 197.108 66.3439ZM193.903 66.3439C193.757 65.6197 193.559 64.9067 193.31 64.2105C193.113 63.6735 192.754 63.2089 192.282 62.8787C191.811 62.5486 191.248 62.3685 190.671 62.3626C190.093 62.3566 189.527 62.5251 189.049 62.8455C188.57 63.1659 188.202 63.623 187.993 64.1559C187.718 64.7915 187.539 65.4637 187.463 66.1509C187.312 67.6254 187.489 69.0634 188.486 70.2575C188.753 70.5762 189.088 70.8317 189.468 71.0053C189.848 71.1788 190.262 71.266 190.68 71.2604C191.099 71.2549 191.51 71.1566 191.885 70.973C192.26 70.7894 192.589 70.525 192.847 70.1993C193.656 69.1981 193.822 68.0004 193.903 66.3621V66.3439Z" fill="#232F67"/>
<path d="M232.455 73.7015C229.29 73.6469 227.376 71.0512 226.968 68.3244C226.648 66.1873 226.912 64.1595 228.256 62.3902C229.728 60.4316 231.8 59.7471 234.195 59.9801C237.875 60.3442 239.943 63.3295 239.785 67.0975C239.697 69.2491 239.012 71.1568 237.183 72.4965C235.998 73.3666 234.629 73.6761 232.455 73.7015ZM236.536 66.7589C236.574 65.6675 236.275 64.5904 235.678 63.6717C235.422 63.2685 235.065 62.9377 234.641 62.7115C234.217 62.4852 233.742 62.3711 233.26 62.3802C232.779 62.3894 232.308 62.5215 231.893 62.7637C231.479 63.0059 231.135 63.3501 230.894 63.7627C230.381 64.6137 230.111 65.5861 230.11 66.5769C230.023 67.6763 230.258 68.7775 230.788 69.7479C231.03 70.2194 231.403 70.613 231.863 70.8825C232.323 71.1519 232.851 71.2862 233.386 71.2696C233.913 71.267 234.429 71.1152 234.873 70.832C235.316 70.5488 235.668 70.1461 235.888 69.6714C236.349 68.7702 236.572 67.7683 236.536 66.7589Z" fill="#232F67"/>
<path d="M209.51 60.133C207.968 62.0953 206.503 63.9593 205.035 65.8342L209.712 73.4576C208.501 73.4576 207.368 73.4576 206.238 73.4576C206.124 73.4576 205.988 73.261 205.911 73.1263C204.965 71.4953 204.03 69.8498 203.092 68.2224L202.842 67.7928C202.474 68.2152 202.15 68.5938 201.852 69.0052C201.765 69.166 201.727 69.3478 201.741 69.5294C201.741 70.8218 201.741 72.1179 201.741 73.4431H198.702V60.1367C199.64 60.1367 200.589 60.1367 201.535 60.1549C201.605 60.1549 201.73 60.4279 201.73 60.5735C201.73 62.179 201.73 63.7846 201.73 65.3901V65.9434C202.529 64.7639 203.265 63.6826 204.001 62.605C204.498 61.8769 204.987 61.1488 205.513 60.4206C205.652 60.2547 205.852 60.15 206.069 60.1294C207.184 60.1185 208.288 60.133 209.51 60.133Z" fill="#232F67"/>
<path d="M77.832 20.9565L55.8808 25.4017C55.465 23.3193 55.0675 21.306 54.6517 19.2127C55.649 19.4857 56.58 19.7333 57.511 19.9918C58.2286 20.192 58.9389 20.4214 59.6638 20.5888C60.0097 20.6606 60.3643 20.6814 60.7163 20.6507C62.1147 20.5597 63.5131 20.4468 64.9078 20.3376C66.3026 20.2284 67.701 20.0974 69.0994 20.0063C70.9026 19.8862 72.7058 19.7624 74.5126 19.7005C75.5578 19.6678 77.2322 20.3486 77.832 20.9565Z" fill="#ED1E24"/>
<path d="M367.904 60.3223C367.904 59.2302 367.904 58.138 367.904 57.0458V56.6016H260.724V74.994C260.724 75.1614 260.724 75.3325 260.702 75.5H362.565C363.405 75.3131 364.231 75.0698 365.038 74.7719C365.778 74.4808 366.431 74.0101 366.939 73.4031C367.446 72.796 367.791 72.0723 367.941 71.2987C367.941 71.2733 367.982 71.2551 368 71.2332V60.8539C367.952 60.6798 367.92 60.5019 367.904 60.3223ZM276.302 67.2395C275.155 67.6922 273.92 67.8826 272.688 67.7965H272.143V72.5839H269.071V72.0815C269.071 67.9749 269.071 63.8683 269.071 59.7653C269.071 59.3285 269.199 59.1683 269.641 59.1537C271.087 59.1137 272.533 58.9862 273.98 59.0008C274.741 59.0186 275.496 59.1511 276.217 59.394C276.967 59.6274 277.625 60.0829 278.105 60.6989C278.584 61.3148 278.86 62.0616 278.896 62.838C278.962 65.0042 278.094 66.4859 276.302 67.2504V67.2395ZM287.754 72.6021C287.672 72.5832 287.595 72.5449 287.531 72.4904C287.467 72.4358 287.417 72.3667 287.386 72.289C287.08 71.3534 286.812 70.4032 286.506 69.4675C286.462 69.3292 286.286 69.1326 286.168 69.129C284.935 69.1035 283.702 69.129 282.436 69.129C282.105 70.2976 281.781 71.448 281.45 72.613H278.296C278.558 71.7611 278.804 70.9274 279.062 70.0973C280.151 66.566 281.24 63.0334 282.33 59.4996C282.338 59.4338 282.36 59.3704 282.394 59.3132C282.428 59.2561 282.473 59.2064 282.527 59.1672C282.581 59.1281 282.643 59.1002 282.708 59.0854C282.774 59.0705 282.841 59.069 282.907 59.0809C284.092 59.1027 285.281 59.0809 286.51 59.0809C287.92 63.577 289.329 68.0659 290.757 72.6239C289.719 72.6276 288.733 72.6385 287.754 72.613V72.6021ZM300.266 60.457C299.11 62.4812 297.948 64.5054 296.803 66.5405C296.664 66.7947 296.588 67.078 296.582 67.3669C296.56 68.9251 296.582 70.4869 296.582 72.0451V72.5839H293.513V72.0997C293.513 70.5706 293.513 69.0416 293.513 67.5125C293.511 67.2097 293.436 66.9116 293.296 66.6424C292.037 64.2833 290.76 61.9351 289.487 59.5833C289.41 59.4377 289.34 59.2884 289.237 59.0773C290.367 59.0773 291.445 59.0773 292.505 59.0955C292.626 59.0955 292.788 59.303 292.851 59.4595C293.587 61.1585 294.308 62.8574 295.015 64.5564L295.191 64.9714C295.526 64.1595 295.828 63.4132 296.141 62.6669C296.593 61.5747 297.057 60.508 297.499 59.4231C297.529 59.3051 297.603 59.2025 297.706 59.1352C297.808 59.068 297.932 59.0408 298.054 59.0591C299.029 59.0591 300.008 59.0591 301.068 59.0591L300.266 60.457ZM314.43 72.5839H305.918V59.1137H308.951V70.0755H314.43V72.5839ZM324.484 72.5839C324.366 72.5839 324.19 72.3946 324.145 72.2635C323.846 71.3582 323.566 70.4456 323.306 69.5258C323.218 69.2127 323.093 69.078 322.736 69.0853C321.706 69.1144 320.675 69.1071 319.645 69.0853C319.578 69.0716 319.509 69.0722 319.443 69.087C319.376 69.1019 319.314 69.1306 319.259 69.1713C319.205 69.212 319.16 69.2636 319.127 69.3229C319.095 69.3822 319.076 69.4476 319.071 69.5149C318.809 70.5379 318.508 71.5536 318.217 72.5802H315.06C315.446 71.317 315.829 70.0719 316.211 68.8268C317.168 65.725 318.132 62.6378 319.078 59.5141C319.185 59.1501 319.328 59.0299 319.715 59.0409C320.885 59.07 322.055 59.0409 323.277 59.0409C324.686 63.5443 326.1 68.0441 327.52 72.5839C326.479 72.6276 325.481 72.6385 324.484 72.613V72.5839ZM336.76 61.5565H333.04V72.5839H329.952V61.5893H326.295V59.1137H336.753L336.76 61.5565ZM346.759 72.573H338.115V59.1137H346.49V61.4983C346.31 61.4983 346.144 61.5201 345.979 61.5201C344.507 61.5201 343.035 61.5201 341.563 61.5201C341.224 61.5201 341.092 61.5966 341.103 61.957C341.129 62.7543 341.103 63.5516 341.103 64.4035H346.13V66.8718H341.162V70.1156H346.759V72.573ZM355.878 72.573C355.775 72.573 355.624 72.3618 355.584 72.2089C355.304 71.2805 355.017 70.3558 354.792 69.4129C354.336 67.5125 353.67 67.0356 351.624 67.2577V72.5839H348.536V72.1506C348.536 68.0113 348.536 63.8719 348.536 59.7362C348.536 59.3394 348.647 59.1828 349.048 59.1683C350.52 59.1173 351.992 58.9826 353.464 59.0117C354.333 59.0374 355.194 59.1908 356.018 59.4668C357.472 59.9401 358.226 61.0359 358.325 62.5285C358.425 64.0212 357.74 65.2007 356.397 65.958C356.316 66.0053 356.231 66.0454 356.15 66.0854L355.86 66.2383C356.964 66.7553 357.416 67.6691 357.7 68.6921C358.068 69.9772 358.436 71.266 358.804 72.6166C357.825 72.6239 356.85 72.6348 355.878 72.6094V72.573Z" fill="#ED1E24"/>
<path d="M354.079 61.3672C353.274 61.1736 352.438 61.1488 351.624 61.2944V65.2262C352.475 65.1476 353.321 65.0162 354.156 64.833C354.509 64.6922 354.81 64.4484 355.019 64.1342C355.228 63.8199 355.336 63.45 355.328 63.0737C355.319 62.6974 355.195 62.3326 354.972 62.0277C354.749 61.7229 354.437 61.4925 354.079 61.3672Z" fill="#ED1E24"/>
<path d="M319.671 66.839H322.707C322.184 65.0005 321.669 63.1984 321.132 61.3199C320.635 63.2057 320.16 65.0151 319.671 66.839Z" fill="#ED1E24"/>
<path d="M282.922 66.8463H285.958C285.436 64.9969 284.92 63.1875 284.387 61.3126C283.89 63.1875 283.412 64.9932 282.922 66.8463Z" fill="#ED1E24"/>
<path d="M274.178 61.3308C273.498 61.2941 272.816 61.2941 272.136 61.3308C272.136 62.6778 272.136 63.9411 272.136 65.2044C272.136 65.299 272.268 65.4701 272.349 65.4738C273.155 65.5175 273.969 65.583 274.727 65.1971C275.127 64.9852 275.449 64.6534 275.648 64.2494C275.846 63.8453 275.91 63.3895 275.831 62.9472C275.785 62.5309 275.596 62.1428 275.295 61.8483C274.994 61.5539 274.6 61.3711 274.178 61.3308Z" fill="#ED1E24"/>
</svg>
