<svg width="137" height="137" viewBox="0 0 137 137" fill="none" xmlns="http://www.w3.org/2000/svg">
<path d="M71.8589 17L75.0574 17.3855C80.6607 18.0661 86.1105 19.6825 91.1804 22.1675C99.6288 26.2559 106.817 32.5554 111.984 40.3995C112.104 40.5766 112.213 40.7641 112.39 41.0454C111.662 41.1131 111.017 41.1808 110.372 41.2329C107.598 41.4552 104.824 41.6705 102.05 41.8789C101.808 41.8842 101.567 41.8472 101.338 41.7695C97.8428 40.7954 94.3478 39.8265 90.8631 38.8159C90.4776 38.6949 90.1394 38.4563 89.8957 38.1335C85.4165 31.7387 79.4885 26.4976 72.5974 22.8394C68.3845 20.5697 63.8373 18.9871 59.127 18.1512C58.9553 18.12 58.7837 18.0627 58.43 17.9689C58.9501 17.8543 59.3142 17.7657 59.6782 17.698C60.0423 17.6303 60.4168 17.5678 60.7861 17.5261C62.1331 17.3907 63.4645 17.2552 64.8012 17.1094C64.9492 17.0834 65.0952 17.0468 65.2381 17H71.8589Z" fill="#232F67"/>
<path d="M16.5 65.8149C16.6352 64.6584 16.7548 63.502 16.9161 62.3508C16.945 62.0486 17.0566 61.7602 17.2385 61.5173C23.8457 53.7826 31.679 47.19 40.4244 42.0039C40.4903 41.9838 40.5584 41.9716 40.6272 41.9674C40.6181 42.1526 40.5973 42.337 40.5648 42.5196C39.6596 46.0157 39.1759 49.6078 39.1241 53.2192C39.1241 54.959 39.1709 56.7041 39.2645 58.4283C39.2957 58.9492 38.9889 59.0638 38.6612 59.2305C34.7799 61.2309 31.0603 63.5317 27.5364 66.1118C23.5057 69.0914 19.7766 72.3732 17.0201 76.9051L16.5 72.3107V65.8149Z" fill="#232F67"/>
<path d="M90.1714 48.0673C90.5563 49.953 90.9307 51.7814 91.3156 53.6724C89.7553 54.1412 88.195 54.5996 86.6348 55.0684C75.2707 58.496 64.1251 62.5279 53.5255 67.9402C47.5236 71.0032 41.7142 74.3943 36.5652 78.7856C34.8749 80.2233 33.4447 81.9111 31.8844 83.5207C31.6898 83.6951 31.5647 83.934 31.5322 84.1934C31.4997 84.4529 31.562 84.7153 31.7076 84.9324C37.7147 97.4344 47.3936 105.451 60.9785 108.025C75.952 110.864 88.84 106.462 99.117 95.0642C104.224 89.4019 107.251 82.6508 108.479 75.0923C109.021 71.5091 109.148 67.8751 108.858 64.2625C108.827 63.8562 108.65 63.7416 108.281 63.7416C106.653 63.6843 105.02 63.5749 103.392 63.5541C100.173 63.5072 96.9482 63.3874 93.734 63.5124C89.7085 63.6739 85.6778 63.9448 81.673 64.3615C78.4901 64.6949 75.3331 65.32 72.1085 65.8201C73.9028 64.9762 75.6504 64.0958 77.4395 63.3145C85.312 59.9468 93.4842 57.3306 101.848 55.5008C105.488 54.6725 109.129 53.938 112.77 53.3025C114.387 53.016 116.057 53.0264 117.783 52.8962C118.397 55.3289 119.026 57.6886 119.583 60.064C120.329 63.3381 120.666 66.6924 120.587 70.0499C120.332 83.5364 115.708 95.3142 106.544 105.222C99.2838 113.169 89.7174 118.635 79.1922 120.849C74.3586 121.896 69.3985 122.231 64.4683 121.844C55.2978 121.219 46.4702 118.105 38.9317 112.838C29.8106 106.599 22.9474 97.5744 19.3657 87.1098C18.3983 84.3542 18.9913 81.76 20.3071 79.2961C21.7686 76.5353 23.8957 74.3214 26.2154 72.3002C31.2551 67.9037 36.9345 64.4865 42.926 61.585C54.3369 56.0425 66.3563 52.344 78.7761 49.9166C82.3804 49.2133 86.021 48.6924 89.6461 48.0882C89.8206 48.0707 89.996 48.0637 90.1714 48.0673Z" fill="#ED1E24"/>
<path d="M72.7326 29.851C63.3709 29.8249 54.4721 31.8356 45.7293 35.5498C46.1922 34.3673 46.5667 33.3463 46.9879 32.3461C48.9785 27.6978 51.5229 23.3077 54.5657 19.2712C54.9042 18.9217 55.325 18.6631 55.7895 18.5192C56.2539 18.3754 56.747 18.351 57.2234 18.4481C66.1162 21.2361 74.2153 26.1118 80.8461 32.6691C84.1391 35.9441 87.0098 39.6191 89.3913 43.6083C89.4589 43.7177 89.5213 43.8323 89.6409 44.0459C73.3255 46.2493 57.5875 50.3385 42.5515 57.3031C42.5515 55.4591 42.4995 53.7192 42.5515 51.9846C42.7011 48.0365 43.2819 44.1167 44.2835 40.2953C44.3237 40.1065 44.4077 39.9298 44.5288 39.7795C44.6499 39.6293 44.8046 39.5098 44.9804 39.4306C53.0942 35.2624 61.7383 32.2235 70.6731 30.3979C71.3388 30.2573 71.9993 30.1062 72.665 29.9603C72.6702 29.9551 72.6962 29.9239 72.7326 29.851Z" fill="#232F67"/>
<path d="M38.0423 83.9166C39.8253 82.1921 41.7988 80.6769 43.9246 79.4003C48.8822 76.3413 54.4204 74.3475 60.1879 73.5452C63.3882 73.1711 66.6163 73.0961 69.8305 73.3212C74.4281 73.54 79.031 73.8422 83.6338 73.8786C87.7166 73.9099 91.7525 73.2275 95.7416 72.3784C98.1548 71.8575 100.537 71.2532 102.935 70.6906C103.179 70.6217 103.439 70.6217 103.683 70.6906C103.163 71.3991 102.674 72.1388 102.123 72.8107C96.5894 79.3482 89.5161 83.2967 81.231 85.172C77.5869 85.9851 73.8363 86.2084 70.1217 85.8336C67.3028 85.5679 64.6192 84.7032 61.9043 83.9479C59.3797 83.1745 56.8087 82.5621 54.2069 82.1143C52.1714 81.8936 50.1191 81.8762 48.0801 82.0622C44.6774 82.3175 41.3121 82.9392 38.0423 83.9166Z" fill="#232F67"/>
<path d="M17.9875 56.8603C21.5917 40.2744 35.4002 24.2042 54.2277 19.1357C53.4267 19.8911 52.631 20.6099 51.8664 21.4017C47.7584 25.7892 44.5527 30.9434 42.4319 36.5707C42.3578 36.7851 42.2413 36.9823 42.0894 37.1506C41.9375 37.3189 41.7533 37.4547 41.5478 37.5501C34.7706 40.9946 28.5952 45.5156 23.2612 50.9376C21.6125 52.6201 20.1407 54.4485 18.544 56.2144C18.3723 56.4072 18.2059 56.5895 17.9875 56.8603Z" fill="#232F67"/>
<path d="M100.064 81.6507C99.7854 83.7787 99.0258 85.8152 97.8428 87.6047C95.1591 91.8293 91.3624 94.7152 86.8116 96.6478C83.6322 97.959 80.2616 98.7454 76.831 98.9763C70.0177 99.5284 63.5946 98.0021 57.3274 95.4861C54.2069 94.2359 51.0395 93.0951 47.8929 91.9127C46.3361 91.2893 44.6627 91.012 42.9884 91.1C44.4096 90.316 45.9427 89.7555 47.534 89.4383C51.8092 88.5163 55.9648 89.1674 60.1203 90.277C63.2773 91.1261 66.4707 91.8814 69.6901 92.4857C73.2552 93.1141 76.8934 93.2124 80.4872 92.7774C84.2412 92.4198 87.8931 91.3503 91.248 89.6258C94.7809 87.8629 97.7607 85.1595 99.8608 81.8121C99.8816 81.7705 99.9284 81.7496 100.064 81.6507Z" fill="#232F67"/>
<path d="M126.5 46.2702L95.4764 52.6305C94.8887 49.6509 94.3269 46.7702 93.7392 43.775C95.1487 44.1657 96.4645 44.5199 97.7804 44.8897C98.7946 45.1762 99.7983 45.5044 100.823 45.744C101.312 45.8467 101.813 45.8765 102.31 45.8326C104.287 45.7024 106.263 45.5409 108.234 45.3846C110.205 45.2283 112.182 45.0408 114.158 44.9106C116.707 44.7387 119.255 44.5616 121.809 44.473C123.286 44.4261 125.652 45.4002 126.5 46.2702Z" fill="#ED1E24"/>
</svg>
