<?xml version="1.0" encoding="UTF-8"?>
<svg id="Layer_1" data-name="Layer 1" xmlns="http://www.w3.org/2000/svg" viewBox="0 0 638.3 272.62">
  <defs>
    <style>
      .cls-1 {
        fill: #fff;
      }
    </style>
  </defs>
  <path class="cls-1" d="M305.68,24.16c.42,.11,.83,.23,1.25,.34,0,1.15,.17,2.32-.02,3.44-4.37,25.07-8.78,50.14-13.19,75.21-1.48,8.4-3.07,16.78-4.36,25.22-.19,1.24,1.02,2.7,1.58,4.06,1.52-.83,3.27-1.43,4.49-2.58,.75-.71,.73-2.27,.98-3.46,6.6-32.5,13.17-65,19.81-97.49,.34-1.65,1.21-3.19,1.83-4.78l1.22,.34c0,1.4,.19,2.84-.03,4.21-2.78,17.79-5.64,35.57-8.44,53.36-2.4,15.25-4.76,30.5-7.11,45.76-.52,3.4,1.04,5.62,3.48,4.59,1.66-.7,3.31-2.73,3.84-4.5,1.21-4,1.73-8.2,2.52-12.32,5.45-28.73,10.88-57.46,16.39-86.18,.36-1.87,1.28-3.62,1.94-5.43,.43,.14,.86,.27,1.3,.41,0,1.46,.19,2.95-.03,4.37-3.85,25.85-7.75,51.69-11.64,77.53-1.09,7.23-2.34,14.44-3.15,21.7-.16,1.42,1.34,3.02,2.07,4.54,1.48-1.11,3.04-2.14,4.4-3.38,.39-.35,.22-1.29,.34-1.96,2.11-12,4.2-24,6.34-35.99,3.73-20.92,7.46-41.85,11.27-62.76,.3-1.63,1.16-3.16,1.76-4.73,.45,.11,.9,.22,1.34,.33,.09,1.54,.38,3.1,.23,4.62-.48,4.85-1.12,9.69-1.7,14.53-3.73,30.93-7.81,61.82-11.05,92.81-1.45,13.91-5.26,25.5-18.68,32.33-5.39,2.74-8.49,8.14-9.73,13.97-1.14,5.37-1.23,10.96-1.78,16.46-.28,2.8,.94,4,3.79,3.67,6.86-.79,13.75-1.31,20.58-2.3,34.79-5.04,59.27-24.55,73.99-55.66,12.12-25.62,16.76-53.21,14.3-81.54-1.9-21.92-10.88-40.18-31.16-51.17-10.73-5.81-22.49-8.09-34.47-8.23-32.94-.39-65.89-.26-98.84-.43-2.54-.01-3.44,.81-3.87,3.34-2.2,13.22-4.64,26.4-6.97,39.59-7.48,42.4-14.96,84.8-22.43,127.19-1.69,9.56-3.33,19.13-5,28.7,.77,.22,1.15,.43,1.53,.43,22.24,.02,44.47,.05,66.71-.03,.99,0,2.51-.73,2.87-1.53,6.93-15.27,8.76-26.18-3.7-36.31-4.15-3.37-5.54-7.9-5.06-13.07,.21-2.29,.48-4.59,1.01-6.83,9.09-38.6,18.22-77.19,27.39-115.77,.38-1.6,1.21-3.09,1.84-4.63Zm332.61,31.87c-.36-2.55-.6-4.56-.92-6.56-4.17-26.03-19.78-42.82-45.86-46.87C577.16,.37,562.41,.03,547.84,0c-24.62-.05-48.13,5.23-68.15,20.3-42.34,31.87-57.25,75.48-49.82,126.55,4.47,30.72,24.15,49.43,54.82,55.8,23.57,4.89,47.15,3.98,70.64-.59,22.43-4.36,42.2-15.05,61.72-26.33,2.53-1.46,3.54-3.32,4-6,3.7-21.34,7.48-42.67,11.23-64.01,.97-5.52,1.87-11.05,2.84-16.77h-95.06c-2.4,13.7-4.78,27.24-7.26,41.36h41.16c-1.03,5.73-1.85,10.94-2.96,16.1-.27,1.27-1.16,2.85-2.23,3.44-14.21,7.77-29.05,13.1-45.66,12.26-18.74-.95-31.28-11.89-33.01-30.45-2-21.52,1.86-42.26,12-61.34,9.58-18.02,25.13-27.28,45.77-26.88,15.04,.29,26.01,6.61,29.06,22.32,.04,.23,.33,.41,.67,.79,20.04-3.47,40.14-6.95,60.68-10.51ZM24.46,3.35c-.17,.69-.32,1.19-.41,1.69C18.37,37.18,12.72,69.31,7.01,101.44c-2.96,16.67-6.09,33.2-4.31,50.39,2.42,23.28,17.86,43.48,40.69,48.86,13.07,3.08,26.74,4.2,40.21,4.9,18.65,.97,37.33-.59,54.53-8.49,31.26-14.36,49.29-39.53,55.71-72.87,6.43-33.37,11.96-66.9,17.88-100.37,1.19-6.74,2.31-13.49,3.47-20.24-.83-.24-1.21-.45-1.59-.45-18.98-.03-37.97,0-56.95-.1-2.66-.01-2.97,1.43-3.33,3.51-6.74,38.54-13.6,77.07-20.33,115.62-4.28,24.5-19.17,37.73-42.05,37.12-14.42-.39-23.89-6.84-26.43-18.83-.96-4.54-1.15-9.53-.39-14.1,4.14-24.97,8.69-49.88,13.09-74.81,2.82-15.97,5.63-31.95,8.5-48.22H24.46ZM537.6,240.41c-2.1,10.25-4.23,20.64-6.36,31.03,2.94,1.12,4.28,.35,4.54-2.38,.11-1.2,.49-2.38,.74-3.57,1.34-6.42,2.69-12.83,4.22-20.17,3.73,8.78,6.96,16.64,10.47,24.37,.49,1.08,2.31,1.89,3.64,2.11,.54,.09,1.81-1.62,2.05-2.67,1.48-6.59,2.77-13.23,4.1-19.86,.6-2.97,1.15-5.95,1.71-8.84-2.89-1.05-3.92-.27-4.37,2.22-1.44,7.83-3.11,15.61-4.78,23.88-3.62-8.25-7.1-15.97-10.36-23.78-1.12-2.68-2.66-3.49-5.59-2.34Zm55.52,21.35c-2.53-1.36-3.84-.69-4.97,1.63-1.8,3.69-5.04,5.66-9.14,5.69-3.3,.02-6.01-1.35-7.68-4.42-3.58-6.57-.02-17.5,6.76-20.74,5.29-2.52,9.49-1.01,12.47,4.1,.52,.89,2.41,.98,4.23,1.64-1.73-8.08-7.63-11.58-15.05-9.99-9.1,1.95-15.2,11.84-13.56,21.95,1.33,8.16,8.03,12.51,16.07,10.45,5.42-1.4,8.83-4.94,10.89-10.3Zm-63.46-21.44c-3.01-.83-4.09-.22-4.55,2.36-1.25,7.03-2.86,14-4.3,20.99-.53,2.58-.99,5.18-1.48,7.77,.3,.29,.6,.57,.89,.86,1.08-.6,2.94-1.01,3.12-1.81,2.24-9.96,4.23-19.98,6.32-30.17Zm68.18,31.29c3.59,1.19,4.17-.75,4.2-3.44-2.9-.79-4.84-.45-4.2,3.44Z"/>
  <path d="M305.68,24.16c-.62,1.54-1.46,3.03-1.84,4.63-9.17,38.58-18.29,77.17-27.39,115.77-.53,2.23-.79,4.54-1.01,6.83-.48,5.17,.91,9.69,5.06,13.07,12.46,10.12,10.62,21.04,3.7,36.31-.36,.8-1.89,1.53-2.87,1.53-22.24,.08-44.47,.05-66.71,.03-.38,0-.76-.21-1.53-.43,1.67-9.57,3.32-19.14,5-28.7,7.47-42.4,14.95-84.8,22.43-127.19,2.33-13.2,4.76-26.38,6.97-39.59,.42-2.53,1.32-3.35,3.87-3.34,32.95,.16,65.89,.04,98.84,.43,11.98,.14,23.74,2.42,34.47,8.23,20.28,10.99,29.26,29.25,31.16,51.17,2.46,28.33-2.19,55.92-14.3,81.54-14.72,31.12-39.2,50.62-73.99,55.66-6.83,.99-13.72,1.5-20.58,2.3-2.84,.33-4.06-.87-3.79-3.67,.54-5.5,.63-11.09,1.78-16.46,1.24-5.83,4.34-11.23,9.73-13.97,13.42-6.83,17.23-18.41,18.68-32.33,3.24-30.98,7.32-61.88,11.05-92.81,.58-4.84,1.22-9.68,1.7-14.53,.15-1.52-.14-3.08-.23-4.62-.45-.11-.9-.22-1.34-.33-.6,1.58-1.47,3.1-1.76,4.73-3.81,20.91-7.54,41.83-11.27,62.76-2.14,11.99-4.23,24-6.34,35.99-.12,.67,.05,1.61-.34,1.96-1.37,1.24-2.92,2.27-4.4,3.38-.73-1.52-2.23-3.12-2.07-4.54,.82-7.26,2.07-14.47,3.15-21.7,3.89-25.84,7.79-51.68,11.64-77.53,.21-1.43,.03-2.91,.03-4.37-.43-.14-.86-.27-1.3-.41-.66,1.81-1.59,3.56-1.94,5.43-5.51,28.72-10.94,57.45-16.39,86.18-.78,4.12-1.31,8.33-2.52,12.32-.54,1.77-2.19,3.8-3.84,4.5-2.45,1.03-4.01-1.19-3.48-4.59,2.35-15.26,4.71-30.51,7.11-45.76,2.8-17.79,5.66-35.57,8.44-53.36,.21-1.37,.03-2.8,.03-4.21l-1.22-.34c-.62,1.59-1.49,3.13-1.83,4.78-6.64,32.49-13.21,64.99-19.81,97.49-.24,1.19-.23,2.75-.98,3.46-1.22,1.15-2.97,1.75-4.49,2.58-.56-1.36-1.77-2.82-1.58-4.06,1.29-8.43,2.88-16.81,4.36-25.22,4.41-25.07,8.82-50.14,13.19-75.21,.19-1.11,.02-2.29,.02-3.44-.42-.11-.83-.23-1.25-.34Z"/>
  <path d="M638.3,56.03c-20.54,3.56-40.65,7.04-60.68,10.51-.34-.39-.63-.57-.67-.79-3.06-15.7-14.02-22.03-29.06-22.32-20.64-.39-36.19,8.86-45.77,26.88-10.14,19.08-14,39.82-12,61.34,1.72,18.56,14.26,29.5,33.01,30.45,16.61,.84,31.45-4.49,45.66-12.26,1.07-.59,1.96-2.17,2.23-3.44,1.1-5.15,1.93-10.37,2.96-16.1h-41.16c2.48-14.13,4.85-27.66,7.26-41.36h95.06c-.97,5.73-1.88,11.26-2.84,16.77-3.74,21.34-7.53,42.67-11.23,64.01-.46,2.68-1.47,4.54-4,6-19.52,11.28-39.29,21.97-61.72,26.33-23.49,4.56-47.07,5.48-70.64,.59-30.67-6.37-50.35-25.08-54.82-55.8-7.43-51.06,7.48-94.68,49.82-126.55C499.71,5.23,523.22-.05,547.84,0c14.57,.03,29.32,.37,43.68,2.6,26.07,4.05,41.68,20.84,45.86,46.87,.32,2,.57,4.01,.92,6.56Z"/>
  <path d="M24.46,3.35h61.25c-2.87,16.27-5.68,32.24-8.5,48.22-4.4,24.93-8.95,49.84-13.09,74.81-.76,4.57-.57,9.56,.39,14.1,2.54,11.99,12,18.44,26.43,18.83,22.88,.62,37.78-12.62,42.05-37.12,6.73-38.55,13.59-77.07,20.33-115.62,.36-2.08,.67-3.53,3.33-3.51,18.98,.09,37.97,.07,56.95,.1,.38,0,.76,.21,1.59,.45-1.15,6.75-2.28,13.5-3.47,20.24-5.91,33.47-11.45,67-17.88,100.37-6.42,33.34-24.45,58.51-55.71,72.87-17.2,7.9-35.88,9.46-54.53,8.49-13.47-.7-27.14-1.82-40.21-4.9-22.83-5.38-38.27-25.58-40.69-48.86-1.79-17.19,1.34-33.73,4.31-50.39C12.72,69.31,18.37,37.18,24.05,5.05c.09-.51,.24-1,.41-1.69Z"/>
  <path d="M63.53,271.99c1.68-8.31,3.17-15.98,4.79-23.62,1.8-8.51,1.85-8.5,10.66-8.5,.81,0,1.63-.01,2.44,0,3.78,.1,7.45,.52,9.06,4.69,1.45,3.77,.04,7.09-4.45,10.55,3.89,2.46,5.53,5.87,3.64,10.22-1.91,4.39-5.44,6.61-10.26,6.64-5.11,.03-10.22,0-15.88,0Zm4.71-3.02c4.97-.38,9.44-.38,13.75-1.18,3.14-.58,4.59-3.32,4.29-6.5-.33-3.49-3.01-4.16-5.92-4.21-3.22-.06-6.44-.01-9.74-.01-.8,4-1.51,7.55-2.38,11.9Zm3.16-15.06c4.27-.28,7.77-.29,11.2-.8,3.17-.47,4.79-2.85,4.14-5.87-.31-1.47-2.13-3.59-3.39-3.69-3.3-.25-6.67,.45-10.01,.81-.11,.01-.2,.48-.25,.74-.51,2.62-1.01,5.25-1.68,8.8Z"/>
  <path d="M58.55,271.4c-3.17,1.07-4.61,.46-5.52-1.99-1.08-2.9-2.32-5.8-3.98-8.39-.9-1.41-2.71-2.79-4.32-3.1-6.28-1.2-6.89-.63-8.23,5.71-.39,1.85-.89,3.69-1.11,5.56-.34,2.82-1.77,3.32-4.52,2.23,2.11-10.31,4.22-20.6,6.36-31.06,6.47,0,12.94-.43,19.28,.27,1.78,.2,3.95,3.5,4.6,5.76,.98,3.45-.56,6.74-3.73,8.71-1.8,1.12-3.93,1.7-5.87,2.51,2.24,4.38,4.58,8.96,7.05,13.81Zm-20.07-16.83c5.29-.49,10.1-.58,14.75-1.5,2.83-.56,4.43-3.18,3.99-6.21-.47-3.21-2.99-3.73-5.79-3.65-2.82,.08-5.66-.12-8.47,.11-.92,.07-2.3,.96-2.53,1.75-.81,2.79-1.21,5.7-1.96,9.51Z"/>
  <path d="M376.66,271.4c2.11-10.31,4.22-20.6,6.36-31.06,6.47,0,12.94-.43,19.29,.27,1.78,.2,3.95,3.5,4.59,5.76,.98,3.45-.57,6.74-3.74,8.71-1.8,1.12-3.93,1.7-5.86,2.5,2.24,4.38,4.57,8.97,6.96,13.65-3.24,1.55-4.62,.41-5.61-2.21-1.05-2.77-2.2-5.56-3.81-8.02-.92-1.41-2.71-2.79-4.32-3.09-6.29-1.19-6.88-.64-8.23,5.72-.39,1.85-.89,3.69-1.11,5.56-.34,2.82-1.78,3.31-4.51,2.21Zm7.61-16.83c5.3-.5,10.12-.59,14.77-1.51,2.83-.56,4.43-3.19,3.98-6.22-.48-3.21-3.01-3.72-5.81-3.64-2.82,.08-5.66-.12-8.47,.11-.91,.07-2.29,.97-2.52,1.76-.81,2.79-1.21,5.7-1.95,9.5Z"/>
  <path d="M237.24,266.54c1.69-8.3,3.37-15.93,4.73-23.63,.47-2.67,1.48-3.55,4.55-2.57-2.09,10.41-4.17,20.8-6.24,31.09-3.38,1.41-4.88,.03-6.03-2.83-3.01-7.51-6.24-14.93-9.78-23.31-1.81,8.55-3.53,16.19-5,23.88-.47,2.48-1.5,3.23-4.42,2.35,.62-3.24,1.2-6.49,1.87-9.72,1.27-6.23,2.52-12.46,3.96-18.65,.28-1.18,1.41-2.16,2.15-3.24,1.26,.92,3.11,1.57,3.69,2.81,3.54,7.58,6.8,15.29,10.52,23.82Z"/>
  <path d="M282.62,266.53c1.68-8.32,3.35-16.11,4.79-23.94,.47-2.53,1.55-3.2,4.4-2.15-1.14,5.83-2.28,11.73-3.46,17.63-.74,3.71-1.44,7.44-2.4,11.1-.27,1.04-1.54,2.72-2.08,2.62-1.32-.24-3.12-1.07-3.61-2.16-3.23-7.14-6.16-14.41-9.2-21.64-.25-.6-.58-1.18-1.27-2.55-1.49,7.07-2.82,13.38-4.15,19.68-.28,1.32-.68,2.64-.8,3.97-.25,2.83-1.75,3.28-4.56,2.44,2.16-10.53,4.3-20.93,6.39-31.14,3-1.19,4.5-.25,5.6,2.38,3.23,7.71,6.67,15.34,10.35,23.75Z"/>
  <path d="M537.6,240.41c2.93-1.15,4.47-.35,5.59,2.34,3.26,7.81,6.75,15.53,10.36,23.78,1.67-8.27,3.34-16.05,4.78-23.88,.46-2.49,1.48-3.27,4.37-2.22-.56,2.89-1.11,5.87-1.71,8.84-1.33,6.63-2.62,13.26-4.1,19.86-.24,1.05-1.51,2.76-2.05,2.67-1.33-.22-3.15-1.03-3.64-2.11-3.51-7.73-6.74-15.59-10.47-24.37-1.54,7.34-2.88,13.76-4.22,20.17-.25,1.19-.63,2.37-.74,3.57-.26,2.73-1.59,3.5-4.54,2.38,2.13-10.38,4.26-20.77,6.36-31.03Z"/>
  <path d="M133.45,245.41c-1.69,8.29-3.19,15.66-4.71,23.02-.45,2.17-.8,4.53-4.63,3.01,.44-2.29,.89-4.73,1.39-7.17,1.43-7.03,2.82-14.07,4.4-21.06,.27-1.2,1.42-2.2,2.17-3.3,1.28,.91,3.17,1.54,3.74,2.77,3.24,6.99,6.15,14.13,9.19,21.22,.23,.55,.51,1.08,1.32,2.82,1.73-8.7,3.22-16.19,4.72-23.68,.65-3.22,.66-3.22,4.57-2.62-1.98,9.79-3.9,19.57-6,29.32-.19,.86-1.56,2.17-2.22,2.08-1.21-.17-2.9-.95-3.35-1.95-3.01-6.65-5.75-13.43-8.59-20.16-.5-1.19-1.09-2.35-2-4.3Z"/>
  <path d="M373,248.82c-1.26,.34-2.27,.61-3.19,.85-.33-.28-.65-.41-.71-.62-2.23-8.04-12.55-7.86-17.62-2.46-4.3,4.57-5.42,10.2-4.1,16.24,.73,3.36,3.06,5.25,6.44,5.98,7.48,1.62,12.31-1.64,12.94-9.29h-8.67c-.27-.39-.55-.79-.82-1.18,.81-.84,1.58-2.35,2.45-2.41,3.75-.27,7.53-.12,12.06-.12-.84,4.36-1.56,8.26-2.37,12.15-.09,.46-.61,.87-1.02,1.2-4.35,3.55-14.36,4.38-19.42,1.64-4.64-2.51-6.76-7.87-5.88-14.87,1.25-10,8.96-16.97,18.3-16.57,6.08,.26,9.57,2.99,11.61,9.46Z"/>
  <path d="M324.11,255.81c-.86,4.2-1.54,7.9-2.41,11.55-.19,.78-.94,1.65-1.67,2.04-4.65,2.45-9.54,3.78-14.85,2.77-5.19-.98-8.55-4-9.62-9.19-1.5-7.29,.41-13.79,5.66-18.99,4.47-4.43,10.05-5.63,16.15-3.94,4.31,1.19,6.94,3.93,7.86,9.72-1.89-.75-3.7-.89-4.29-1.81-4.17-6.52-12.52-7.09-17.75-.89-3.4,4.02-4.62,8.86-3.99,14.05,.43,3.6,2.19,6.42,5.93,7.46,4.46,1.24,8.82,.4,12.26-2.38,1.42-1.14,1.34-4.14,2.08-6.8h-9.38c-.25-.39-.5-.77-.75-1.16,.9-.81,1.75-2.26,2.7-2.32,3.87-.27,7.77-.11,12.09-.11Z"/>
  <path d="M169.27,271.99c2.01-9.52,4.16-18.31,5.61-27.21,.69-4.24,2.55-5.47,6.4-4.93,1.06,.15,2.16,.02,3.25,.02,12.17,.02,17.56,7.4,14.05,19.23-2.41,8.13-8.19,12.64-16.69,12.87-4.02,.11-8.04,.02-12.61,.02Zm4.89-3.89c12.57,2.41,19.76-2.24,21.16-13.38,.98-7.76-2.28-11.47-10.12-11.5-1.87,0-3.75,0-5.78,0-1.8,8.52-3.53,16.7-5.27,24.88Z"/>
  <path d="M441.4,253.61c.05,9.13-5.25,16.39-13.47,18.44-8.44,2.11-15.91-3.17-16.73-11.83-.89-9.35,3.92-17.55,11.74-20.05,10.01-3.19,18.4,2.92,18.47,13.43Zm-3.97-.14c-.02-7.85-6.19-12.53-13.23-10.04-7.37,2.61-11.64,13.96-7.85,20.81,1.9,3.43,5.99,5.35,9.97,4.67,6.43-1.1,11.12-7.62,11.11-15.44Z"/>
  <path d="M119.28,271.34c-3.07,1.34-3.95,.3-4.4-2.31-1.09-6.3-1.26-5.8-7.62-6.42-5.52-.54-8.43,1.48-10.37,6.38-1.28,3.22-1.61,3.08-5.77,2.52,2.24-4,4.39-7.84,6.54-11.67,3.04-5.42,6.08-10.83,9.12-16.25q2.22-3.96,7.45-3.34c1.65,10.2,3.33,20.54,5.03,31.08Zm-16.89-11.94h10.85c-.76-5.12-1.47-9.9-2.34-15.76-3.13,5.8-5.67,10.5-8.51,15.76Z"/>
  <path d="M455.36,240.6c-1.32,6.05-2.63,12.09-3.95,18.14-1.34,6.15-.37,8.68,3.79,9.93,5.02,1.5,10.1-.79,11.64-5.97,1.92-6.46,3.31-13.08,4.66-19.69,.58-2.82,1.73-3.72,4.73-2.59-1.66,7.38-2.99,14.81-5.04,22.04-2.42,8.53-10.3,12.15-18.61,9.09-4.19-1.54-6.62-5.19-5.81-9.51,1.24-6.64,2.7-13.24,4.33-19.79,.28-1.11,1.91-1.88,2.92-2.8,.44,.39,.89,.77,1.33,1.16Z"/>
  <path d="M29.57,240.36c-1.65,7.35-2.98,14.65-4.95,21.78-2.39,8.65-9.97,12.37-18.4,9.51-4.59-1.56-6.94-5.25-6.02-10.09,1.21-6.37,2.77-12.67,4.01-19.03,.49-2.5,1.67-3.14,4.45-2.07-1.23,5.82-2.44,11.71-3.71,17.58-1.51,6.98-.71,9.38,3.66,10.64,5.32,1.54,10.31-1.06,11.92-6.81,1.75-6.23,3.08-12.59,4.31-18.96,.57-2.95,1.91-3.5,4.73-2.56Z"/>
  <path d="M477.3,271.54c2.01-9.87,3.9-19.53,6.07-29.13,.23-1.04,2.05-2.32,3.23-2.42,3.49-.32,7.02-.15,10.54-.11,6.28,.07,8.89,1.9,9.44,6.55,.64,5.35-2.35,10.32-7.49,11.42-3.52,.76-7.25,1.03-10.84,.82-3.5-.21-4.91,1.07-5.23,4.35-.2,2.01-.8,3.97-1.09,5.97-.37,2.54-1.6,3.55-4.63,2.54Zm9.84-28.32c-.81,4.26-1.53,8.03-2.3,12.07,3.99,0,7.38,.3,10.68-.12,1.86-.23,4.24-1.2,5.18-2.63,1.19-1.81,1.93-4.65,1.38-6.63-.36-1.28-3.3-2.32-5.21-2.58-3.04-.42-6.17-.11-9.72-.11Z"/>
  <path d="M593.12,261.76c-2.06,5.37-5.47,8.91-10.89,10.3-8.04,2.07-14.74-2.29-16.07-10.45-1.64-10.11,4.46-20,13.56-21.95,7.42-1.59,13.32,1.91,15.05,9.99-1.81-.66-3.71-.75-4.23-1.64-2.98-5.11-7.18-6.63-12.47-4.1-6.79,3.24-10.34,14.17-6.76,20.74,1.67,3.06,4.38,4.44,7.68,4.42,4.11-.03,7.34-2,9.14-5.69,1.13-2.32,2.44-2.99,4.97-1.63Z"/>
  <path d="M213.35,240.47c-1.99,9.67-4.01,19.31-5.93,28.97-.5,2.53-1.76,3.06-4.45,1.95,1.48-7.32,2.96-14.69,4.45-22.06,.43-2.12,1.05-4.22,1.32-6.36,.36-2.9,1.7-3.73,4.6-2.51Z"/>
  <path d="M529.66,240.32c-2.09,10.19-4.08,20.21-6.32,30.17-.18,.8-2.04,1.22-3.12,1.81-.3-.29-.6-.57-.89-.86,.49-2.59,.95-5.19,1.48-7.77,1.44-7,3.05-13.96,4.3-20.99,.46-2.58,1.54-3.19,4.55-2.36Z"/>
  <path d="M258.72,240.38c-2.08,10.11-4.06,20.02-6.26,29.87-.2,.89-1.87,1.46-2.86,2.17-.4-.27-.8-.54-1.19-.81,.47-2.57,.88-5.14,1.41-7.69,1.46-7.13,3.09-14.23,4.39-21.39,.48-2.67,1.73-3,4.52-2.15Z"/>
  <path d="M597.84,271.6c-.64-3.89,1.3-4.23,4.2-3.44-.03,2.69-.61,4.63-4.2,3.44Z"/>
</svg>