<svg id="Capa_1" enable-background="new 0 0 512 512" height="512" viewBox="0 0 512 512" width="512" xmlns="http://www.w3.org/2000/svg"><g><path d="m490 267c0 135.31-109.69 245-245 245-55.71 0-107.078-18.594-148.235-49.916-1.633-1.243-1.654-9.291-3.255-10.574-14.115-11.311-22.906-20.945-34.213-35.064-1.266-1.581-8.155.4-9.382-1.212-31.321-41.156-49.915-92.524-49.915-148.234 0-135.31 109.69-245 245-245s245 109.69 245 245z" fill="#00c1fb"/><path d="m445 267c0 110.457-89.543 200-200 200s-200-89.543-200-200 89.543-200 200-200 200 89.543 200 200z" fill="#00d1fc"/><path d="m497.008 178.822c0 93.158-75.52 168.678-168.678 168.678s-168.678-75.52-168.678-168.678 75.52-168.677 168.678-168.677 168.678 75.519 168.678 168.677z" fill="#00d1fc"/><path d="m497.008 178.822c0 83.5-60.673 152.829-140.337 166.306-79.665-13.478-140.338-82.806-140.338-166.306s60.673-152.829 140.337-166.306c79.665 13.477 140.338 82.806 140.338 166.306z" fill="#64dcfc"/><path d="m350 240c0 5.523-4.477 10-10 10h-90c-5.523 0-10-4.477-10-10s4.477-10 10-10h90c5.523 0 10 4.477 10 10zm-10-110h70c5.523 0 10-4.477 10-10s-4.477-10-10-10h-70c-5.523 0-10 4.477-10 10s4.477 10 10 10zm70 20h-70c-5.523 0-10 4.477-10 10s4.477 10 10 10h70c5.523 0 10-4.477 10-10s-4.477-10-10-10zm0 40h-160c-5.523 0-10 4.477-10 10s4.477 10 10 10h160c5.523 0 10-4.477 10-10s-4.477-10-10-10z" fill="#c9f0ff"/><path d="m222.326 309.278-114.552 114.551-19.603-19.603 114.551-114.551z" fill="#172a7d"/><path d="m460.012 51.988c-33.526-33.525-78.1-51.988-125.512-51.988s-91.986 18.463-125.512 51.988-51.988 78.1-51.988 125.512 18.463 91.986 51.988 125.512 78.1 51.988 125.512 51.988 91.986-18.463 125.512-51.988c33.521-33.525 51.988-78.103 51.988-125.512 0-47.412-18.463-91.986-51.988-125.512zm-125.512 288.012c-43.405 0-84.213-16.902-114.904-47.596-30.694-30.691-47.596-71.499-47.596-114.904s16.902-84.213 47.596-114.904c30.691-30.694 71.499-47.596 114.904-47.596s84.213 16.902 114.904 47.596c30.694 30.691 47.596 71.499 47.596 114.904s-16.902 84.213-47.596 114.904c-30.691 30.694-71.499 47.596-114.904 47.596z" fill="#1f3597"/><path d="m170.098 388.752-73.332 73.332c-8.677-6.604-16.901-13.773-24.616-21.453-.881-.877-.876-2.31.004-3.189l73.317-73.317c8.916-8.916 21.651-11.687 32.94-8.313 3.374 11.289.603 24.023-8.313 32.94z" fill="#ffc143"/><path d="m178.794 357.206c-10.932-2.753-22.995.146-31.546 8.697l-74.913 74.913c-8.046-7.993-15.539-16.541-22.419-25.581l73.332-73.332c12.937-12.937 33.912-12.937 46.85 0 4.386 4.385 7.284 9.695 8.696 15.303z" fill="#ffb509"/><path d="m189.897 368.953c-3.905 3.905-10.237 3.905-14.142 0l-32.707-32.708c-3.905-3.905-3.905-10.237 0-14.142s10.237-3.905 14.142 0l32.708 32.708c3.904 3.905 3.904 10.237-.001 14.142z" fill="#ff9500"/><path d="m280 115v50c0 2.761-2.239 5-5 5h-20c-2.761 0-5-2.239-5-5v-50c0-2.761 2.239-5 5-5h20c2.761 0 5 2.239 5 5z" fill="#ff4fb8"/><path d="m310 115v50c0 2.761-2.239 5-5 5h-30c-2.761 0-5-2.239-5-5v-50c0-2.761 2.239-5 5-5h30c2.761 0 5 2.239 5 5z" fill="#ff73c6"/></g></svg>