<svg id="Layer_1" height="512" viewBox="0 0 64 64" width="512" xmlns="http://www.w3.org/2000/svg" data-name="Layer 1"><path d="m55 24h-.013c-.275-12.706-3.987-23-24.048-21.947-.326.022-.644.075-.966.111l2.37 2.962a3 3 0 0 1 -1.343 4.703v53.171h15v-12h6a3 3 0 0 0 3-3v-12h7z" fill="#ffc173"/><circle cx="10" cy="10" fill="#5ab360" r="8"/><circle cx="10" cy="54" fill="#ff6668" r="8"/><circle cx="10" cy="32" fill="#ffc44d" r="8"/><g fill="#8ea0b3"><path d="m24 52h4v10h-4z"/><path d="m24 30h4v16h-4z"/><path d="m26 2-4 5h2v17h4v-17h2z"/></g><path d="m7 6h2v2h-2z"/><path d="m11 6h2v2h-2z"/><path d="m10 13a3 3 0 0 1 -3-3h-2a5 5 0 0 0 10 0h-2a3 3 0 0 1 -3 3z"/><path d="m7 50h2v2h-2z"/><path d="m11 50h2v2h-2z"/><path d="m10 54a4 4 0 0 0 -4 4h2a2 2 0 0 1 4 0h2a4 4 0 0 0 -4-4z"/><path d="m7 28h2v2h-2z"/><path d="m11 28h2v2h-2z"/><path d="m6 33h8v2h-8z"/><path d="m10 1a9 9 0 1 0 9 9 9.011 9.011 0 0 0 -9-9zm0 16a7 7 0 1 1 7-7 7.008 7.008 0 0 1 -7 7z"/><path d="m10 45a9 9 0 1 0 9 9 9.011 9.011 0 0 0 -9-9zm0 16a7 7 0 1 1 7-7 7.008 7.008 0 0 1 -7 7z"/><path d="m10 23a9 9 0 1 0 9 9 9.011 9.011 0 0 0 -9-9zm0 16a7 7 0 1 1 7-7 7.008 7.008 0 0 1 -7 7z"/><path d="m28 51h-4a1 1 0 0 0 -1 1v10a1 1 0 0 0 1 1h4a1 1 0 0 0 1-1v-10a1 1 0 0 0 -1-1zm-1 10h-2v-8h2z"/><path d="m28 29h-4a1 1 0 0 0 -1 1v16a1 1 0 0 0 1 1h4a1 1 0 0 0 1-1v-16a1 1 0 0 0 -1-1zm-1 16h-2v-14h2z"/><path d="m26.781 1.375a1.036 1.036 0 0 0 -1.562 0l-4 5a1 1 0 0 0 .781 1.625h1v16a1 1 0 0 0 1 1h4a1 1 0 0 0 1-1v-16h1a1 1 0 0 0 .781-1.625zm.219 5.625v16h-2v-16a1 1 0 0 0 -.922-1l1.922-2.4 1.922 2.4a1 1 0 0 0 -.922 1z"/><path d="m49 15h-2a4 4 0 0 1 -8 0h-2a6 6 0 0 0 12 0z"/><path d="m62.864 35.5-6.884-11.8c-.147-5.841-1-13.045-6-17.691-4.083-3.791-10.327-5.414-19.1-4.95-.553.037-1.095.112-1.636.187l1.473 1.842c.095-.008.187-.026.282-.033 8.2-.429 13.958 1.016 17.623 4.42 3.539 3.286 5.2 8.392 5.373 16.555a.991.991 0 0 0 .214.589l6.05 10.381h-5.259a1 1 0 0 0 -1 1v6.754l-7.783-1.73-.434 1.952 8.217 1.824v3.2a2 2 0 0 1 -2 2h-11v2h4v11h2v-11h5a4 4 0 0 0 4-4v-11h6a1 1 0 0 0 .864-1.5z"/></svg>