<svg height="512" viewBox="0 0 88 88" width="512" xmlns="http://www.w3.org/2000/svg"><g id="Pentool"><path d="m32 70-9-18 19-38v32.41a5 5 0 1 0 4 0v-32.41l19 38-9 18z" fill="#ffba00"/><path d="m30 76h28v10h-28z" fill="#ffba00"/><path d="m27 70h34v6h-34z" fill="#ff8e00"/><g fill="#6499f3"><path d="m41 2h6v6h-6z"/><path d="m9 37h6v6h-6z"/><path d="m73 37h6v6h-6z"/><circle cx="76" cy="5" r="3"/><circle cx="12" cy="5" r="3"/></g><path d="m46.8945 13.5527a1 1 0 0 0 -1.8945.4473v32.41a1 1 0 0 0 .5947.914 4 4 0 1 1 -3.1894 0 1 1 0 0 0 .5947-.914v-32.41a1 1 0 0 0 -1.8945-.4473l-19 38a1.0008 1.0008 0 0 0 0 .8946l8.2763 16.5527h-3.3818a1 1 0 0 0 -1 1v6a1 1 0 0 0 1 1h2v9a1 1 0 0 0 2 0v-9h26v9a1 1 0 0 0 2 0v-9h2a1 1 0 0 0 1-1v-6a1 1 0 0 0 -1-1h-3.3818l8.2763-16.5527a1.0008 1.0008 0 0 0 0-.8946zm13.1055 61.4473h-32v-4h32zm-4.6182-6h-22.7636l-8.5-17 16.8818-33.7642v27.5642a6 6 0 1 0 6 0v-27.5642l16.8818 33.7642z" fill="#32233f"/><path d="m79 36h-2.0234a32.8015 32.8015 0 0 0 -21.6-30h16.7654a4 4 0 1 0 0-2h-24.142v-2a1 1 0 0 0 -1-1h-6a1 1 0 0 0 -1 1v2h-24.142a4 4 0 1 0 0 2h16.7652a32.8015 32.8015 0 0 0 -21.6 30h-2.0232a1 1 0 0 0 -1 1v6a1 1 0 0 0 1 1h6a1 1 0 0 0 1-1v-6a1 1 0 0 0 -1-1h-1.9766a30.815 30.815 0 0 1 26.9766-29.7369v1.7369a1 1 0 0 0 1 1h6a1 1 0 0 0 1-1v-1.7369a30.815 30.815 0 0 1 26.9766 29.7369h-1.9766a1 1 0 0 0 -1 1v6a1 1 0 0 0 1 1h6a1 1 0 0 0 1-1v-6a1 1 0 0 0 -1-1zm-65 6h-4v-4h4zm62-39a2 2 0 1 1 -2 2 2.002 2.002 0 0 1 2-2zm-64 4a2 2 0 1 1 2-2 2.002 2.002 0 0 1 -2 2zm34 0h-4v-4h4zm32 35h-4v-4h4z" fill="#32233f"/></g></svg>