<svg enable-background="new 0 0 58 59" height="512" viewBox="0 0 58 59" width="512" xmlns="http://www.w3.org/2000/svg"><path d="m54 3.17v-.17h-22v.17h-6v-.17h-22v.17h-2v1.83 24.5 24.5 2h2 22 6 22 2v-2-24.5-24.5-1.83z" fill="#fff"/><path d="m55.912 56.83h-53.912c-.552 0-1-.447-1-1v-52.66c0-.553.448-1 1-1h53.912c.552 0 1 .447 1 1v52.66c0 .553-.448 1-1 1zm-52.912-2h51.912v-50.66h-51.912z" fill="#0a2542"/><path d="m47.365 47.29c-1.41 1.45-2.99 2.73-4.72 3.81-.22.14-.44.28-.67.41-3.07 1.79-6.49 2.9-9.98 3.31-4.33.52-8.79-.04-12.88-1.68-10.11-4.06-17.04-14.81-16.08-25.74.07-.85.19-1.7.36-2.53 2.36-11.94 13.32-20.68 25.43-20.68 1.1 0 2.2.07 3.29.22 12.31 1.61 22.15 11.95 22.51 24.47.2 6.9-2.54 13.56-7.26 18.41z" fill="#b4bfd1"/><g fill="#e22b4a"><path d="m56.639 53.113v3.837h-3.837v-1.918-1.919h1.918z"/><path d="m4 56v2h-4v-4h2 2z"/><path d="m4 3v2h-2-2v-4h4z"/><path d="m58 1v4h-2-2v-2-2z"/></g><path d="m32 56v3h-6v-3-.17-2.83h1.5 4.5v2.83z" fill="#f4bc1c"/><path d="m32 3.17v2.83h-6v-2.83-.17-3h6v3z" fill="#f4bc1c"/><path d="m42.645 51.1c-.22.14-.44.28-.67.41-3.07 1.79-6.49 2.9-9.98 3.31v-1.82h-4.5l-1.33-3.66 13.81-5.05.16-.06z" fill="#e22b4a"/><path d="m31.39 34.57c.5 1.36-.2 2.87-1.57 3.37-1.36.5-2.87-.2-3.36-1.56-.5-1.36.2-2.87 1.56-3.37s2.87.2 3.37 1.56z" fill="#dfdfdf"/><path d="m22.97 19.2 17.34 13.78c-1.75 1.92-2.62 4.53-1.67 7.14l1.5 4.11-.16.06-13.81 5.05-1.51-4.11c-.97-2.65-3.42-4.03-6.05-4.31z" fill="#0a2542"/><path d="m27.986 35.622-5.883-16.078c-.049-.133-1.17-3.285.709-5.676 1.564-1.987 4.631-2.741 9.123-2.229 2.943.329 5.06-.031 5.955-1.024.652-.726.488-1.63.486-1.639l1.952-.434c.156.701.13 2.207-.952 3.409-1.377 1.532-3.954 2.1-7.667 1.674-3.698-.416-6.234.092-7.325 1.479-1.179 1.5-.412 3.73-.404 3.752l5.883 16.078z" fill="#0a2542"/><path d="m28.095 33.01c-1.36.5-2.06 2.01-1.56 3.37.49 1.36 2 2.06 3.36 1.56 1.37-.5 2.07-2.01 1.57-3.37s-2.01-2.06-3.37-1.56z" fill="#fff"/></svg>