<?xml version="1.0" encoding="utf-8"?>
<!-- Generator: Adobe Illustrator 27.3.1, SVG Export Plug-In . SVG Version: 6.00 Build 0)  -->
<svg version="1.1" id="Layer_1" xmlns="http://www.w3.org/2000/svg" xmlns:xlink="http://www.w3.org/1999/xlink" x="0px" y="0px"
	 viewBox="0 0 1196.9 287.7" style="enable-background:new 0 0 1196.9 287.7;" xml:space="preserve">
<g>
	<path d="M689.7,287.7c-20.5,0-40.4,0-60.4,0c0-81.2,0-162.1,0-243.3c0.9-0.1,1.6-0.2,2.3-0.2c38,0,76-0.1,114,0
		c7.3,0,14.6,0.2,21.8,2.1c6.5,1.8,12.6,4.5,18,8.5c8.3,6.1,15.1,13.6,20.2,22.6c4.5,7.8,6.6,16.2,6.6,25.3
		c-0.1,20.6-0.2,41.2,0,61.7c0.1,8.6-1.4,16.9-4.5,24.9c-2.3,5.8-5.5,11-9.4,15.8c-4.9,6.1-10.8,11.1-17.7,14.8
		c-6.3,3.3-12.9,5.4-20,6.5c-6.4,1-12.8,0.5-19.2,0.6c-16.2,0.2-32.3,0.1-48.5,0.2c-0.8,0-1.6,0.1-2.6,0.2
		C689.6,247.6,690.3,267.6,689.7,287.7z M751.4,105.2c-6.4-0.5-59.1-0.3-61,0.3c0,1.5,0,3,0,4.4c0,6.9,0,13.8,0,20.7
		c-0.1,10.9-0.2,21.8-0.4,32.7c0,0.4,0,0.8,0,1.2c0,1.2,0.6,1.8,1.8,1.8c0.5,0,1,0,1.5,0c18.4,0,36.8,0,55.2,0
		c0.9,0,1.8-0.1,2.6-0.1C751.7,164.3,751.9,107,751.4,105.2z"/>
	<path d="M1035.4,44.5c0,1.2,0,2,0,2.8c0,19.7,0,39.3,0,59c0,1.6-0.3,3.1-0.4,4.7c-0.5,9.8-4.2,18.6-9.4,26.8
		c-4.3,6.6-9.7,12.3-16,17.1c-7.2,5.5-15.2,9.2-24.2,10.5c-1.2,0.2-2.4,0.4-3.6,0.6c0,0,0,0.2,0,0.6c17.8,0,35.5,0,53.2,0
		c0.6,2.1,0.8,57.4,0.2,60.6c-0.8,0-1.6,0.1-2.4,0.1c-40.7,0-81.5,0.1-122.2-0.1c-6.9,0-13.7-1.8-20.1-4.6
		c-13.4-5.7-24.1-14.5-31.2-27.3c-2.1-3.8-3.8-7.8-5.2-11.9c-1.7-5.1-1.8-10.5-1.8-15.8c0-19.7-0.1-39.3,0-59c0-5.5,0.1-11,1.6-16.4
		c0.9-3.4,1.8-6.8,3.1-10c7.2-17.7,20-29.3,38.2-35c3.2-1,6.6-1.7,9.9-2.5c0.4-0.1,0.8-0.1,1.2-0.1c5.2-0.1,10.5-0.4,15.7-0.4
		c34.2,0,68.3,0,102.5,0C1028,44.1,1031.5,44.4,1035.4,44.5z M912.7,166.3c3.9,0.5,60.2,0.3,62.1-0.3c0-20.3,0-40.7,0-61.2
		c-0.9,0-1.6,0-2.3,0c-19-0.1-38-0.2-57-0.3c-0.5,0-1,0-1.5,0c-0.9,0.1-1.4,0.6-1.4,1.4c0,0.5,0,1,0,1.5c0,18.7,0,37.3,0,56
		C912.5,164.4,912.6,165.3,912.7,166.3z"/>
	<path d="M162.3,134.8c0-9.7,0-19.5,0-29.2c0-1.4-0.1-2.8-0.2-4.2c-0.5-5.3,0.5-10.4,2.4-15.4c1.6-4.3,3.3-8.6,6.1-12.3
		c2.7-3.5,5.4-7,8.4-10.2c3-3.2,6.2-6.3,9.7-8.9c3.1-2.3,6.6-4.2,10.1-5.8c4.9-2.2,10.1-3.4,15.3-4.2c1.8-0.3,3.7-0.1,5.5-0.1
		c23.3,0,46.7,0,70,0.1c2.5,0,5,0.3,7.4,0.8c6.6,1.6,13,3.6,18.6,7.7c3.8,2.8,7.7,5.5,10.7,9.3c2.3,2.8,5,5.3,7.3,8.2
		c6.2,7.6,9.7,16.3,11,26.1c0.7,5.4,0.8,10.8,0.8,16.2c0,16.9,0.1,33.8-0.1,50.7c-0.1,5.5-0.6,11-1.8,16.3
		c-2.4,11.1-7.5,20.9-15.9,28.9c-4.9,4.6-10.1,8.7-16,11.9c-3.1,1.7-6.2,3.6-9.8,4.1c-3,0.5-6,1.6-9,2.4c-0.9,0.2-1.8,0.1-2.7,0.1
		c-23.4,0-46.8-0.1-70.2-0.1c-2.2,0-4.4,0-6.7-0.7c-1.7-0.5-3.6-0.3-5.3-1c-2.5-0.9-5.2-1.3-7.6-2.3c-10.6-4.5-19.5-11.3-26.7-20.5
		c-4.5-5.8-7.8-12.2-9.9-19.2c-1.1-3.8-1.9-7.7-1.8-11.8c0.1-3.5,0.2-7,0.2-10.5c0-8.8,0-17.7,0-26.5
		C162.3,134.8,162.3,134.8,162.3,134.8z M222.8,165.8c6.8,1.1,13.5,0,20.2,0.2c6.8,0.2,13.7,0,20.5,0c6.7,0,13.4,0,20.2,0
		c0.6-2.4,0.6-59.1-0.1-61.1c-0.8,0-1.7-0.1-2.6-0.1c-15.6,0-31.2,0.1-46.7,0.1c-3,0-6-0.1-9-0.1c-2.4,0-2.6,0.3-2.6,2.6
		c0,18.9,0,37.8,0,56.7C222.6,164.7,222.7,165.2,222.8,165.8z"/>
	<path d="M532,165c0,20.3,0,40.2,0,60.2c-0.6,0.1-1.1,0.2-1.7,0.2c-29.4,0-58.8,0.1-88.2,0.1c-1.8,0-3.7,0-5.5,0
		c-0.2,0-0.5,0.1-0.7,0c-3-1.4-6.4-0.9-9.4-2.1c-2.9-1.2-5.9-2.2-8.8-3.6c-6.2-3.1-11.9-6.9-17.2-11.4c-5.5-4.7-10.2-10.1-13.9-16.2
		c-3.1-5.1-5.7-10.5-7.5-16.3c-1.9-6.2-2.3-12.5-2.3-18.9c0-29,0-58,0-87c0-2.7-0.1-5.4,0.2-8c0.3-3,0.9-6.1,1.7-9.1
		c1.9-7.3,4.9-14.1,9.2-20.4c4.1-6.1,9.1-11.2,14.7-15.9c4.1-3.5,8.6-6.5,13.2-9.3c4.8-2.9,10.2-4.5,15.6-6c1.8-0.5,3.8-0.1,5.8-0.1
		c0,1.2,0,2.2,0,3.3c0,52,0,104,0,156c0,4.6,0,4.6,4.6,4.6c29.4,0,58.8,0,88.2-0.1C530.5,165,531.1,165,532,165z"/>
	<path d="M541.7,60.9c-31.8,0-63.1,0-94.7,0c0-20.4,0-40.5,0-60.9c1.1,0,1.9,0,2.7,0c27.8,0,55.7,0,83.5,0c5.9,0,11.6,1.1,17.1,3
		c2.1,0.7,4.3,1.4,6.3,2.3c18.7,8.1,32.5,21.2,40.8,39.8c2.1,4.7,3.4,9.7,4,14.9c0.3,2.6,0.5,5.3,0.5,8c0,29.6,0,59.2,0.1,88.7
		c0,11.8-3.2,22.7-9.3,32.7c-8,13.2-18.7,23.8-32.8,30.6c-5.2,2.5-10.7,4.5-16.7,4.4c-0.3,0-0.6-0.1-1.2-0.1
		c-0.1-3.8-0.4-7.6-0.4-11.4c0-31.7,0-63.3,0-95c0-18.1,0-36.2,0-54.2C541.7,62.9,541.7,62.1,541.7,60.9z"/>
	<path d="M122,105c-20.4,0-40.3,0-60.4,0c0,20.5,0,40.7,0,61.2c20.3,0,40.5,0,60.9,0c0,20.4,0,40.5,0,60.8c-0.5,0.1-1,0.1-1.4,0.1
		c-21.2,0-42.3,0.1-63.5,0c-1.5,0-3.1-0.4-4.6-0.7c-0.6-0.1-1.1-0.2-1.7-0.3c-8.6-0.6-18.2-4.6-24.8-9.5c-5.8-4.2-10.6-9.3-14.9-15
		c-3.7-4.9-7-10.2-8.9-16.1c-1.2-3.7-2.1-7.6-2.1-11.5c-0.3-23.8-0.2-47.7-0.4-71.5c-0.1-11.9,3.7-22.4,10.6-31.9
		c7.4-10.2,16.9-18.2,28.7-23c3-1.2,6-2.2,9.2-2.8c3-0.6,5.9-0.6,8.8-0.6c10.2-0.1,20.3,0,30.5,0c10.9,0,21.8-0.1,32.7-0.1
		c0.6,0,1.1,0.1,2,0.1C122.8,64.4,121.1,84.4,122,105z"/>
	<path d="M1196.5,44.3c0.5,20.1,0.5,40.1,0,60.3c-20.2,0.5-40.2,0.3-60.4,0.1c0,40.9,0,81.5,0,122.1c-2.2,0.6-57,0.7-60.5,0.1
		c0-0.7-0.1-1.4-0.1-2.1c0-40.3,0-80.6,0-121c0-8.7,1.8-17.1,5.7-24.8c4.7-9.3,11.3-17.1,19.7-23.2c1.8-1.3,3.6-2.4,5.4-3.6
		c4.6-3.1,9.9-4.9,15.2-6c4-0.9,8.2-1.1,12.3-1.6c1.3-0.2,2.6-0.3,4-0.3c2.9-0.2,5.8-0.4,8.7-0.4c12.2-0.1,24.3-0.2,36.5-0.1
		C1187.3,43.6,1191.7,44,1196.5,44.3z"/>
</g>
</svg>
