
<svg viewBox="0 0 180 24" >
<style>
        path {
            fill: black;
        }
        @media (prefers-color-scheme: dark) {
            path { fill: white; }
        }
    </style>
<path d="m0 0h9.4387c4.4762 0 6.5559 2.3051 6.5559 5.7609 0 2.4521-1.1132 4.654-3.771 5.1749v0.0642c3.1634 0.291 4.4423 2.8761 4.4423 5.2672 0 4.0114-2.0107 6.8231-7.2272 6.8231h-9.4387v-23.09zm6.2488 9.0592h1.5164c1.2704 0 1.9768-1.0955 1.9768-2.3259 0-1.2967-0.70546-2.3957-1.9768-2.3957h-1.5164v4.7216zm0 9.7026h1.7499c1.1414 0 2.2151-0.9751 2.2151-2.8498 0-1.7813-1.0737-2.779-2.2151-2.779h-1.7499v5.6288z"/>
<path d="m26.916 0c6.3891 0 8.5703 3.3616 8.5703 11.994 0 8.6425-2.1812 12.006-8.5703 12.006-6.3881 0-8.5684-3.3634-8.5684-12.006-9e-4 -8.6325 2.1803-11.994 8.5684-11.994zm0 19.924c1.9147 0 2.1229-1.687 2.1229-7.9302 0-6.2323-0.2082-7.9203-2.1229-7.9203-1.9211 0-2.1106 1.688-2.1106 7.9203 0 6.2432 0.1883 7.9302 2.1106 7.9302z"/>
<path d="m37.168 0h8.9338l2.5259 13.68h0.0658l2.5288-13.68h8.9331v23.09h-5.844v-17.202h-0.078l-3.3199 17.202h-4.5055l-3.3229-17.202h-0.0724v17.202h-5.8447v-23.09z"/>
<path d="m61.837 0h9.4518c4.4633 0 6.5532 2.3051 6.5532 5.7609 0 2.4521-1.1077 4.654-3.7664 5.1749v0.0642c3.1542 0.291 4.4425 2.8761 4.4425 5.2672 0 4.0114-2.0268 6.8231-7.2293 6.8231h-9.4518v-23.09zm6.261 9.0592h1.5127c1.2722 0 1.9834-1.0955 1.9834-2.3259 0-1.2967-0.7112-2.3957-1.9834-2.3957h-1.5127v4.7216zm0 9.7026h1.7434c1.1424 0 2.2235-0.9751 2.2235-2.8498 0-1.7813-1.0821-2.779-2.2235-2.779h-1.7434v5.6288z"/>
<path d="m86.048 0h7.8575l5.8505 23.09h-6.6577l-0.6404-4.0476h-4.9726l-0.6358 4.0476h-6.6489l5.8474-23.09zm3.9642 4.7289h-0.0669l-1.7188 9.7922h3.5082l-1.7225-9.7922z"/>
<path d="m111.22 0c4.766 0 6.588 2.5888 6.588 6.1488 0 3.0699-1.254 5.0688-4.103 5.4965v0.0608c3.02 0.2571 3.923 2.0966 3.923 5.1792v1.968c0 1.1942 0 2.7446 0.309 3.2068 0.174 0.2492 0.306 0.5154 0.706 0.6985v0.3289h-6.661c-0.599-1.226-0.599-3.4278-0.599-4.391v-1.5612c0-2.6167-0.546-3.2992-2.05-3.2992h-1.652v9.2524h-6.249v-23.088h9.788zm-3.537 9.7705h1.25c1.774 0 2.611-1.0974 2.611-2.7527 0-1.8738-0.769-2.6812-2.657-2.6812h-1.204v5.4338z"/>
<path d="m120.33 0h9.066c7.23 0 7.601 5.4983 7.601 11.545 0 6.0546-0.371 11.545-7.601 11.545h-9.066v-23.089zm6.252 18.762h1.249c2.418 0 2.722-0.9751 2.722-7.2162 0-6.2331-0.304-7.208-2.722-7.208h-1.249v14.424z"/>
<path d="m144.92 0h-6.245v23.09h6.245v-23.09z"/>
<path d="m146.6 0h14.208v4.9157h-7.971v3.9479h7.468v4.7216h-7.468v4.5914h8.273v4.9138h-14.51v-23.09z"/>
<path d="m162.8 0h9.778c4.78 0 6.582 2.5888 6.582 6.1488 0 3.0699-1.231 5.0688-4.092 5.4965v0.0608c3.033 0.2571 3.932 2.0966 3.932 5.1792v1.968c0 1.1942 0 2.7446 0.306 3.2068 0.163 0.2492 0.307 0.5154 0.697 0.6985v0.3289h-6.649c-0.601-1.226-0.601-3.4278-0.601-4.391v-1.5612c0-2.6167-0.546-3.2992-2.059-3.2992h-1.643v9.2524h-6.251v-23.088zm6.251 9.7705h1.239c1.79 0 2.628-1.0974 2.628-2.7527 0-1.8738-0.776-2.6812-2.655-2.6812h-1.212v5.4338z"/>
</svg>
