<svg width="180" height="24" viewBox="0 0 180 24" fill="none" xmlns="http://www.w3.org/2000/svg">
<path d="M0 0H9.43869C13.9149 0 15.9946 2.30514 15.9946 5.76092C15.9946 8.21303 14.8814 10.4149 12.2236 10.9358V11C15.387 11.291 16.6659 13.8761 16.6659 16.2672C16.6659 20.2786 14.6552 23.0903 9.43869 23.0903H0V0ZM6.24877 9.0592H7.76515C9.03554 9.0592 9.74192 7.96366 9.74192 6.73326C9.74192 5.43657 9.03646 4.3376 7.76515 4.3376H6.24877V9.0592ZM6.24877 18.7618H7.99869C9.14008 18.7618 10.2138 17.7867 10.2138 15.912C10.2138 14.1307 9.14008 13.133 7.99869 13.133H6.24877V18.7618Z" fill="#231F20"/>
<path d="M26.9162 0C33.3053 0 35.4865 3.3616 35.4865 11.9941C35.4865 20.6366 33.3053 24 26.9162 24C20.5281 24 18.3478 20.6366 18.3478 11.9941C18.3469 3.3616 20.5281 0 26.9162 0ZM26.9162 19.9243C28.8309 19.9243 29.0391 18.2373 29.0391 11.9941C29.0391 5.76183 28.8309 4.07383 26.9162 4.07383C24.9951 4.07383 24.8056 5.76183 24.8056 11.9941C24.8056 18.2373 24.9939 19.9243 26.9162 19.9243Z" fill="#231F20"/>
<path d="M37.1684 0H46.1022L48.6281 13.6795H48.6939L51.2227 0H60.1558V23.0903H54.3118V5.88869H54.2338L50.9139 23.0903H46.4084L43.0855 5.88869H43.0131V23.0903H37.1684V0Z" fill="#231F20"/>
<path d="M61.8374 0H71.2892C75.7525 0 77.8424 2.30514 77.8424 5.76092C77.8424 8.21303 76.7347 10.4149 74.076 10.9358V11C77.2302 11.291 78.5185 13.8761 78.5185 16.2672C78.5185 20.2786 76.4917 23.0903 71.2892 23.0903H61.8374V0ZM68.0984 9.0592H69.6111C70.8833 9.0592 71.5945 7.96366 71.5945 6.73326C71.5945 5.43657 70.8833 4.3376 69.6111 4.3376H68.0984V9.0592ZM68.0984 18.7618H69.8418C70.9842 18.7618 72.0653 17.7867 72.0653 15.912C72.0653 14.1307 70.9832 13.133 69.8418 13.133H68.0984V18.7618Z" fill="#231F20"/>
<path d="M86.0478 0H93.9053L99.7558 23.0903H93.0981L92.4577 19.0427H87.4851L86.8493 23.0903H80.2004L86.0478 0ZM90.012 4.72891H89.9451L88.2263 14.5211H91.7345L90.012 4.72891Z" fill="#231F20"/>
<path d="M111.225 0C115.991 0 117.813 2.5888 117.813 6.1488C117.813 9.21874 116.559 11.2176 113.71 11.6453V11.7061C116.73 11.9632 117.633 13.8027 117.633 16.8853V18.8533C117.633 20.0475 117.633 21.5979 117.942 22.0601C118.116 22.3093 118.248 22.5755 118.648 22.7586V23.0875H111.987C111.388 21.8615 111.388 19.6597 111.388 18.6965V17.1353C111.388 14.5186 110.842 13.8361 109.338 13.8361H107.686V23.0885H101.437V0H111.225ZM107.688 9.77051H108.938C110.712 9.77051 111.549 8.67314 111.549 7.01783C111.549 5.144 110.78 4.33668 108.892 4.33668H107.688V9.77051Z" fill="#231F20"/>
<path d="M120.33 0H129.396C136.626 0 136.997 5.49828 136.997 11.5447C136.997 17.5993 136.626 23.0894 129.396 23.0894H120.33V0ZM126.582 18.7618H127.831C130.249 18.7618 130.553 17.7867 130.553 11.5456C130.553 5.31246 130.249 4.3376 127.831 4.3376H126.582V18.7618Z" fill="#231F20"/>
<path d="M144.923 0H138.678V23.0903H144.923V0Z" fill="#231F20"/>
<path d="M146.605 0H160.813V4.91566H152.842V8.86355H160.31V13.5851H152.842V18.1765H161.115V23.0903H146.605V0Z" fill="#231F20"/>
<path d="M162.797 0H172.575C177.355 0 179.157 2.5888 179.157 6.1488C179.157 9.21874 177.926 11.2176 175.065 11.6453V11.7061C178.098 11.9632 178.997 13.8027 178.997 16.8853V18.8533C178.997 20.0475 178.997 21.5979 179.303 22.0601C179.466 22.3093 179.61 22.5755 180 22.7586V23.0875H173.351C172.75 21.8615 172.75 19.6597 172.75 18.6965V17.1353C172.75 14.5186 172.204 13.8361 170.691 13.8361H169.048V23.0885H162.797V0ZM169.048 9.77051H170.287C172.077 9.77051 172.915 8.67314 172.915 7.01783C172.915 5.144 172.139 4.33668 170.26 4.33668H169.048V9.77051Z" fill="#231F20"/>
</svg>
