<svg width="348" height="200" viewBox="0 0 348 200" fill="none" xmlns="http://www.w3.org/2000/svg">
<g clip-path="url(#clip0_2_299)">
<path d="M347.65 95.2538C326.789 90.5929 306.861 86.1593 286.955 81.6802C250.577 73.4838 214.313 65.1623 177.946 57.1136C173.694 56.1814 172.034 54.7718 172.114 50.1904C172.409 33.7407 172.228 17.2796 172.228 0C180.254 2.17132 187.643 4.12664 194.964 6.18428C243.767 19.8261 292.56 33.4679 341.409 46.8937C346.274 48.2351 347.922 50.1904 347.741 55.3402C347.354 68.3681 347.65 81.4187 347.65 95.2538Z" fill="#F3F4F6"/>
<path d="M276.371 137.248L262.445 135.986V93.8555L232.763 91.5023V133.11L172.671 127.244V59.0349L341.136 97.7662L340.999 98.6301L276.371 94.5376V137.248Z" fill="#F3F4F6"/>
<path d="M165.52 0.170532V55.7608L81.8507 79.0201C81.8507 66.5151 81.7257 54.8968 81.8507 43.2559C82.044 29.8755 79.4862 33.5702 91.8206 28.6705C114.455 19.6897 137.191 10.9817 159.893 2.1827C161.667 1.51198 163.417 0.920831 165.52 0.170532Z" fill="#F3F4F6"/>
<path d="M172.58 130.495V199.955H347.354V147.479L172.58 130.495ZM266.697 195.396H253.351V142.966L266.697 144.307V195.396ZM285.125 195.521H271.858V144.376L285.125 145.853V195.521Z" fill="#F3F4F6"/>
<path d="M161.803 60.1375C116.33 73.0404 70.9487 86.091 25.3851 98.6983C19.5077 100.324 17.8025 102.654 17.9503 108.634C18.3823 126.584 18.1095 144.557 18.1095 162.872L-0.0795898 166.282V199.966H165.418V59.2736C163.952 59.626 162.872 59.842 161.803 60.1375ZM157.745 195.35H26.3059V166.066L157.745 153.663V195.35ZM26.2377 161.496V131.871L81.4983 121.128V156.881L26.2377 161.496ZM157.813 97.05C157.813 98.1868 155.164 99.8465 153.516 100.222C119.82 107.899 86.0948 115.478 52.339 122.958C43.7106 124.891 35.0594 126.789 25.8739 128.824C25.8739 121.514 25.567 114.705 26.1013 107.963C26.215 106.52 29.1593 104.644 31.1146 104.098C58.2504 96.6293 85.4203 89.331 112.545 81.9985L151.924 71.4148C153.697 70.9373 155.494 70.5394 157.983 69.9369C158.017 79.3725 158.177 88.2283 157.813 97.05Z" fill="#F3F4F6"/>
</g>
<defs>
<clipPath id="clip0_2_299">
<rect width="347.809" height="200" fill="white"/>
</clipPath>
</defs>
</svg>
