<svg width="266" height="200" viewBox="0 0 266 200" fill="none" xmlns="http://www.w3.org/2000/svg">
<g clip-path="url(#clip0_2_431)">
<path d="M219.841 113.552C235.164 114.88 244.818 114.792 244.818 114.792C237.821 109.743 189.105 109.477 189.105 109.477C189.548 111.515 204.517 112.312 219.841 113.552Z" fill="#F3F4F6"/>
<path d="M119.663 102.657L118.866 104.606C128.521 104.872 135.164 105.137 135.164 105.137C132.861 104.252 127.192 103.366 119.663 102.657Z" fill="#F3F4F6"/>
<path d="M113.64 104.429L117.095 104.517L117.626 102.48L114.349 102.214C114.172 102.923 113.906 103.72 113.64 104.429Z" fill="#F3F4F6"/>
<path d="M21.0806 98.4942C21.3463 99.2028 25.155 99.9114 31.178 100.531L30.9123 98.6714L21.0806 98.4942Z" fill="#F3F4F6"/>
<path d="M70.682 103.1C81.5766 103.543 100.886 103.986 110.363 104.34C110.629 103.632 110.895 102.746 111.249 102.037C99.0257 101.151 82.6395 100.354 67.1391 99.8228L70.682 103.1Z" fill="#F3F4F6"/>
<path d="M62.2675 100.089C60.9389 98.5828 49.5128 90.9655 48.8928 90.6112C48.7157 90.5226 48.7157 90.5226 48.5385 90.6112C48.3614 90.6997 48.3614 90.6997 48.3614 90.8769L48.9814 95.5713C46.9442 94.8627 44.7298 94.0655 42.6041 93.2684C40.2126 92.3826 37.8211 91.4083 35.5182 90.6997C35.4296 90.6997 35.2524 90.6997 35.1639 90.6997C34.721 90.8769 34.4553 91.3197 34.3667 91.7626C34.2781 92.2941 35.6067 98.9371 36.4039 102.923C36.4039 103.1 36.581 103.277 36.7582 103.277C42.3384 104.429 48.2728 105.58 53.4101 106.909L54.3844 107.086L55.1816 107.263H55.2701C55.3587 107.263 55.5359 107.263 55.713 107.263C55.8902 107.263 56.6873 107.44 56.5988 107.263C56.4216 106.377 55.1816 104.872 54.7387 103.986C54.473 103.366 54.2073 102.746 53.9415 102.126C67.4934 106.2 67.4934 106.2 67.7591 105.757C67.7591 105.669 67.7591 105.492 67.8476 105.58C67.4934 105.049 67.0505 104.606 66.6076 104.163C66.3419 103.72 62.7104 100.62 62.2675 100.089Z" fill="#F3F4F6"/>
<path d="M117.892 36.3153C117.981 36.1382 118.069 35.961 118.158 35.8725C118.689 35.4296 119.132 34.721 119.309 34.0124C119.841 33.2152 119.752 32.0638 119.043 31.3552C118.601 30.558 117.803 29.8494 116.918 29.5837C116.475 29.4066 116.032 29.4066 115.589 29.4066C115.235 29.4066 114.969 29.4066 114.615 29.4951C113.818 29.4066 113.375 29.6723 112.666 30.4694C111.603 31.5323 110.629 32.6838 110.717 33.9238L113.995 34.2781L112.666 36.4039L113.02 36.581C114.792 37.2896 117.449 37.2011 117.892 36.3153Z" fill="#F3F4F6"/>
<path d="M174.934 158.37L177.059 158.725C177.059 158.725 172.808 148.007 173.694 139.947C202.657 138.087 231.532 134.455 260.053 129.141C260.407 129.052 260.673 128.964 260.939 128.787C262.533 127.901 263.596 126.306 263.862 124.535C263.95 123.384 263.773 121.523 261.736 119.663C261.205 119.132 260.585 118.601 260.053 118.069C257.662 115.855 256.51 114.703 256.687 113.552C256.687 113.463 256.687 113.286 256.687 113.198C256.687 112.135 258.016 111.16 260.585 109.3C261.293 108.769 262.09 108.237 262.887 107.617C265.19 105.846 265.722 104.074 265.722 102.834C265.633 101.151 264.836 99.5571 263.419 98.4942C263.153 98.3171 262.887 98.1399 262.533 98.0514C239.238 91.5855 211.603 84.9424 182.639 79.8051C179.274 73.6935 174.402 67.2276 170.505 64.659C167.582 62.4446 164.128 61.0275 160.585 60.4074C160.142 51.55 148.627 42.6041 148.539 42.5155L147.741 41.8955L148.096 41.0097C148.45 40.124 148.627 39.1497 148.539 38.1754L149.159 38.7954C151.904 37.8211 153.764 34.4553 153.764 34.4553C154.473 34.6324 154.03 37.4668 154.03 37.4668C159.965 34.0124 158.99 25.9522 158.99 25.9522C160.585 26.3065 161.47 30.7352 161.47 30.7352C165.102 22.3206 159.167 14.7033 159.167 14.7033C160.496 14.7918 163.95 18.1577 163.95 18.1577C161.647 6.20017 153.942 6.64304 153.587 6.46589C155.802 5.58015 159.167 5.93445 159.433 5.84588C154.827 0.177143 145.793 2.39149 145.793 2.39149C146.324 1.59433 146.856 0.885735 147.476 0.177143C133.304 -0.708597 134.101 9.38883 134.101 9.38883C132.772 8.32595 132.507 4.96014 132.507 4.96014C131.089 6.37732 130.292 8.32595 130.469 10.3631C126.306 9.12311 122.055 8.59167 117.715 8.76882C115.058 6.46589 108.592 1.86005 101.683 3.89725C101.683 3.89725 97.7857 0.974308 96.9885 1.77147C96.1913 2.56864 94.8627 12.4889 98.76 16.829C98.5828 17.0062 98.4057 17.1833 98.14 17.3605C95.3056 18.0691 88.1311 20.6377 86.4482 26.4836C79.7166 30.0266 79.7166 42.9584 81.1337 44.287C81.6652 44.7298 82.9052 44.8184 84.411 44.7298C84.0567 49.69 85.9167 58.4588 95.3942 59.6103C95.4827 59.6103 104.517 60.5846 109.92 64.659C107.795 66.6076 105.846 68.9105 104.34 71.3906C90.6997 71.0363 76.9708 71.4792 63.419 72.8964C20.6377 77.5022 3.36581 90.3454 0.354299 94.9513C-0.0885712 95.5713 -0.177145 96.457 0.177151 97.1656C2.65722 102.214 18.6891 119.132 57.9274 130.292C68.5562 133.304 79.3623 135.607 90.2569 137.112C89.6369 140.124 89.814 143.224 90.7883 146.147C90.7883 146.147 90.3454 146.324 92.5598 145.881C90.6997 154.03 92.2941 162.622 96.9885 169.619C96.9885 169.619 107.086 182.817 107.795 186.448C107.972 187.334 91.9398 185.208 90.434 194.066C89.0168 194.066 87.4225 194.066 85.7396 194.154C83.8795 194.243 82.5509 194.331 81.5766 194.42C78.6537 194.597 75.7307 194.597 72.8078 194.42C67.8477 194.331 62.8875 194.597 57.9274 195.306C57.8388 195.306 57.7502 195.394 57.6617 195.394C57.6617 195.483 57.6617 195.571 57.6617 195.571C57.8388 195.837 59.0788 197.166 70.9477 197.166C75.7307 197.166 79.9823 197.254 83.4367 197.431C86.0053 197.52 88.1311 197.608 89.814 197.608H91.1426C92.0283 198.849 93.977 200.177 98.2285 200C98.2285 200 96.3685 198.583 98.9371 197.254C101.506 195.926 112.223 197.874 121.258 197.254C122.321 197.166 123.384 197.077 124.358 196.9C125.864 196.9 129.318 197.077 129.672 196.988C131.887 196.634 138.264 196.634 143.667 196.723C144.11 197.697 144.907 199.203 146.59 199.203C146.59 199.203 148.273 194.597 153.144 197.786C153.144 197.786 154.207 200.266 161.647 197.077C165.545 196.988 169.088 196.9 169.973 196.723C170.328 196.634 170.505 196.634 170.771 196.634C172.099 197.166 173.251 197.52 174.668 196.723C175.731 196.723 177.148 196.811 179.097 196.811C182.197 196.811 184.942 196.988 187.6 197.166C191.054 197.52 194.508 197.608 197.963 197.343C200 197.077 202.126 196.988 204.163 196.9C205.669 196.9 207.263 196.811 209.389 196.723C211.515 196.634 212.4 196.28 212.577 195.748C212.843 195.04 211.603 194.331 211.426 194.243C211.337 194.243 211.249 194.154 211.249 194.154C206.997 194.508 202.746 194.508 198.406 194.154C197.52 194.066 196.988 194.066 196.634 193.977C196.634 193.888 196.634 193.8 196.191 193.8C195.66 193.711 194.42 193.711 191.763 193.623C187.157 193.534 185.474 193.534 183.614 193.623C182.197 193.711 180.602 193.711 177.591 193.711C185.031 186.182 169.088 163.508 174.934 158.37ZM82.3738 42.7812C81.3995 43.2241 81.7538 41.2755 82.1966 40.2126C82.3738 39.7697 82.8167 40.124 82.8167 40.124C83.5252 41.4526 83.791 42.0726 82.3738 42.7812ZM95.5713 196.368C95.5713 196.368 89.9026 192.648 95.217 190.523C100.531 188.397 102.923 189.46 102.923 190.965C102.923 190.965 96.2799 192.648 95.5713 196.368ZM158.636 63.5075C161.47 63.5075 163.419 64.039 164.393 65.0133C164.836 65.3676 165.102 65.9876 165.102 66.519C163.862 65.9876 159.699 64.3047 156.51 65.4562C154.384 66.1647 153.056 67.9362 152.524 70.682C152.259 70.7706 151.904 70.7706 151.639 70.682C151.55 70.682 151.55 70.5934 151.55 70.3277C151.55 70.062 151.55 69.7963 151.55 69.6191C151.284 67.9362 150.93 64.3047 158.636 63.5075ZM156.067 86.3596C156.687 86.6253 157.219 87.0682 157.75 87.5111C156.333 86.9796 154.207 86.3596 152.967 86.6253C152.79 86.6253 152.613 86.8025 152.524 86.9796C152.436 87.1568 152.524 87.4225 152.613 87.5111C154.119 89.0168 155.713 90.434 157.396 91.674C156.244 91.7626 155.004 91.674 153.853 91.3197C153.587 91.2312 153.233 91.3197 153.144 91.5855C153.056 91.8512 153.144 92.1169 153.322 92.2941C154.827 93.1798 155.979 94.4198 156.864 95.9256C156.067 95.6599 155.182 95.5713 154.384 95.7484C154.119 95.837 153.942 96.1027 154.03 96.457C154.03 96.5456 155.624 102.126 153.853 104.96C153.499 104.163 152.79 103.543 151.904 103.366C151.727 103.277 151.55 103.366 151.373 103.454C151.196 103.543 151.107 103.72 151.196 103.986C151.196 104.074 151.993 109.477 150.221 112.135C150.221 109.477 150.133 103.189 150.399 97.1656C150.487 94.9513 149.601 91.8512 148.627 88.6625C146.856 82.6395 144.907 75.9079 147.741 71.3906C147.033 75.1993 147.033 82.8166 156.067 86.3596ZM145.261 12.8432C145.261 12.8432 142.958 14.0833 142.515 15.6776C142.515 15.6776 146.944 13.729 150.664 15.0576C150.664 15.0576 145.793 17.6262 145.97 18.8662C145.97 18.8662 150.664 17.2719 152.967 20.6377C151.019 20.6377 148.981 20.9034 147.121 21.2577C147.121 21.2577 152.524 21.8778 153.587 24.4464C153.587 24.4464 148.804 23.1178 147.121 23.6492C148.627 24.4464 149.779 25.8636 150.31 27.5465C150.31 27.5465 146.413 25.4207 144.11 25.155C145.704 26.3065 146.678 27.9894 146.856 29.938C146.147 29.4065 145.35 28.9637 144.553 28.5208C142.693 26.0407 140.567 23.7378 138.264 21.612L136.138 19.4863L135.252 20.0177C134.81 19.8406 134.455 19.8406 134.012 19.9291C134.101 19.9291 137.467 13.0204 145.261 12.8432ZM99.9114 8.68024C100.62 9.8317 101.86 10.6289 103.277 10.6289C103.277 10.6289 100.974 7.08591 104.429 6.20017C105.226 7.61736 106.554 8.76882 108.06 9.38883C108.06 9.38883 103.454 11.5146 102.657 13.4632L102.391 13.6404C101.683 13.4632 99.6457 12.4003 99.9114 8.68024ZM86.7139 42.7812C86.5368 42.8698 86.4482 42.8698 86.271 42.8698C86.0939 42.8698 85.9167 42.7812 85.7396 42.6926C85.5625 42.5155 85.1196 42.1612 86.0939 40.124C86.1825 39.9468 86.3596 39.7697 86.6253 39.7697C86.8025 39.7697 87.0682 39.8583 87.1568 40.0354C87.5111 40.744 88.2197 42.0726 86.7139 42.7812ZM107.883 60.1417C109.743 59.6103 111.515 58.9017 113.109 58.0159C110.009 58.9017 103.1 58.0159 98.9371 57.3959C97.0771 57.0416 95.837 56.8645 95.7485 56.8645C92.9141 56.6873 90.3454 55.093 88.9283 52.6129C91.7626 52.7901 94.597 52.6129 97.4314 52.2586C99.2914 52.0815 101.151 51.4615 102.834 50.6643C102.923 50.5757 103.1 50.5757 103.189 50.4871V50.6643L105.049 49.2471C104.872 48.8042 104.694 48.4499 104.694 48.4499C103.897 47.0328 102.569 46.0585 101.063 45.6156C100.974 45.6156 100.797 45.527 100.709 45.527C100.354 45.527 100 45.7927 99.8229 46.147C99.7343 46.5013 99.8229 46.8556 100.177 47.0328C100.354 47.1213 100.531 47.2099 100.709 47.2985C101.329 47.4756 101.86 47.8299 102.303 48.3614C101.506 48.7157 100.709 49.07 99.8229 49.3357C95.9256 50.5757 91.8512 50.7529 87.9539 49.7786L87.7768 49.6014C87.3339 47.9185 87.2454 46.147 87.3339 44.3755C89.1054 44.1098 90.6112 43.7555 90.6112 43.7555C89.3711 35.2524 94.8627 32.1523 94.8627 32.1523C94.1541 29.4065 92.0283 27.1922 89.2826 26.4836C89.4597 25.8636 89.814 25.2436 90.1683 24.6236C92.4712 25.2436 96.7228 26.8379 97.6085 30.9123C97.6085 30.9123 98.8485 31.7095 98.4057 29.1408C98.1399 27.1922 95.0399 23.8264 92.4712 22.2321C94.4198 20.9034 96.6342 20.1063 99.0257 19.752L99.5571 19.6634L99.9114 19.3091C101.683 17.4491 103.632 15.9433 105.846 14.6147C104.606 18.7777 105.403 23.915 105.403 23.915C106.643 18.7777 111.072 15.1461 114.438 13.0204C118.423 11.426 126.926 12.2232 126.926 12.2232C117.803 12.4889 115.943 16.7405 115.943 16.7405C123.472 15.0576 126.926 16.209 128.609 17.6262C121.612 18.4234 116.829 22.0549 113.906 24.4464L114.172 24.8893C115.146 24.8007 116.209 24.8007 117.36 24.8007C121.435 24.8007 124.358 25.8636 126.129 27.9894C127.458 29.7608 127.989 32.0638 127.546 34.2781C127.635 34.6324 127.901 35.2524 128.432 35.2524C128.521 35.1639 128.787 34.3667 128.964 34.0124C129.407 32.9495 130.027 31.4437 131.621 31.4437C131.798 31.4437 131.975 31.4437 132.152 31.4437C133.481 31.178 134.81 31.4437 135.872 32.2409C136.758 33.1267 137.201 34.3667 137.112 35.6067C137.112 41.6298 134.278 42.6041 132.595 42.6041C131.178 42.4269 129.849 41.8069 128.875 40.8326C128.432 40.4783 127.901 40.124 127.369 39.8583V39.8583C127.458 40.3897 127.369 40.8326 127.281 41.364L131.975 47.4756C130.115 48.5385 128.078 49.2471 125.952 49.6014C130.027 51.55 134.455 52.6129 138.973 52.7901C140.567 52.5243 142.25 52.6129 143.756 53.0558C143.756 53.0558 150.576 55.4473 150.753 60.6732C148.627 58.9017 145.881 58.0159 143.047 58.1931C143.047 58.1931 145.261 61.2046 142.693 62.0018C138.353 61.8246 132.329 61.116 131.178 58.4588C130.647 60.9389 131.267 63.5961 132.861 65.5447C127.989 65.1019 121.612 63.7732 118.866 60.2303C118.866 61.5589 119.309 62.8875 120.106 64.039C118.866 65.1019 117.183 65.6333 115.589 65.5447L111.337 62.4446C110.275 61.6475 109.035 60.9389 107.883 60.3189M126.838 69.9734C125.686 70.5049 129.407 70.9477 133.924 73.1621L112.755 72.0992L112.666 71.7449C112.666 71.7449 122.586 69.8848 124.358 68.7334C124.358 68.7334 123.826 70.8592 122.941 71.302L126.838 69.9734ZM100.974 146.413C98.6714 148.096 100.443 156.422 100.443 156.422C95.7485 153.056 99.1143 142.073 99.1143 142.073C97.6085 142.25 96.8113 144.553 96.8113 144.553C95.5713 142.87 96.1913 140.124 96.9885 138.087C99.0257 138.353 101.151 138.618 103.277 138.795C103.366 142.604 103.72 146.413 104.517 150.221C102.037 150.753 100.974 146.413 100.974 146.413ZM105.314 168.291C105.314 168.291 108.503 177.679 110.806 180.602C110.717 180.602 101.151 175.819 105.314 168.291ZM64.3933 128.432C32.2409 120.815 12.1346 104.252 6.73162 98.1399H6.8202C6.02303 96.7228 6.99734 96.1027 7.88308 95.1284C14.2604 90.3454 31.0009 81.9309 62.1789 78.2108C67.4934 77.7679 79.8937 76.7936 90.434 76.3507C107.617 76.085 124.801 76.8822 141.895 78.6537C142.427 81.6652 143.224 84.4995 144.376 87.3339C148.804 99.1143 142.25 119.841 140.124 122.143C137.998 124.446 132.152 124.004 129.584 129.761C128.698 131.798 128.344 134.101 128.521 136.315C106.909 135.872 85.3853 133.215 64.3933 128.344M135.43 137.821C135.784 138.353 137.112 140.124 137.998 141.187C138.175 141.364 138.175 141.453 138.175 141.541C138.175 141.63 138.087 141.63 137.821 141.63C137.201 141.63 136.581 141.364 136.138 140.833C135.961 140.567 135.784 140.39 135.518 140.124C134.455 138.973 132.152 136.492 132.595 133.924C132.861 132.418 133.924 131.089 135.784 129.849C134.898 131.444 133.481 134.721 135.43 137.821ZM119.841 194.508C123.206 192.825 122.498 184.942 122.498 184.942C128.875 192.205 119.841 194.508 119.841 194.508ZM152.701 192.56L145.261 194.154C146.944 189.814 153.322 190.434 153.322 190.434C155.536 191.851 154.65 192.294 152.524 192.737M132.064 153.499L135.518 155.979C135.518 155.979 144.818 159.965 148.184 167.228C151.55 174.491 149.69 177.325 156.333 185.385C158.99 187.334 144.996 185.208 143.667 194.42H142.338H129.052C129.761 193.18 129.584 191.763 129.584 190.345C129.584 187.422 126.926 187.422 129.229 185.12C110.009 152.967 132.064 153.499 132.064 153.499ZM150.753 147.476C151.816 149.07 156.687 150.221 156.687 150.221C153.587 154.207 141.63 148.184 141.63 148.184C138.707 149.07 142.25 152.436 142.25 152.436C139.593 151.816 137.024 150.841 134.721 149.336V149.424L133.127 148.184V148.096C131.089 146.501 129.495 144.287 128.698 141.807L130.204 141.718C132.418 145.261 137.112 148.007 145.704 147.387C144.11 146.501 143.844 143.933 143.844 143.933C143.844 143.933 150.221 147.83 158.37 143.933C158.37 143.933 154.473 143.136 152.79 141.718C152.524 141.541 152.436 141.275 152.436 141.01L161.913 142.25C158.99 147.298 150.664 147.476 150.753 147.476ZM162.71 159.876C162.179 157.396 165.899 159.433 165.899 159.433C167.228 158.37 167.671 156.599 167.05 155.093C169.088 155.536 170.593 165.545 170.062 166.165C169.531 166.785 166.519 163.685 166.519 163.685C165.545 165.102 170.239 173.516 170.239 173.516C164.216 170.948 163.242 162.445 162.71 159.876ZM256.51 125.244C220.372 130.381 187.068 134.898 154.916 136.05C154.916 135.784 155.004 135.607 155.004 135.341C155.004 131.709 155.624 125.509 162.002 125.421C162.002 125.421 164.393 125.775 164.925 127.724C164.925 127.724 175.642 115.323 177.325 106.554C177.325 106.554 179.717 107.795 180.071 110.097C180.071 110.097 183.082 104.34 181.577 98.8485C181.577 98.8485 184.322 100.797 184.765 103.809C184.765 103.809 187.422 96.8999 186.891 90.5226C186.625 88.4854 186.005 86.5368 185.208 84.6767C206.997 88.574 231.532 94.0655 258.99 101.594C259.167 101.771 260.585 102.214 260.585 102.391C260.673 103.012 260.496 103.632 259.965 104.074C259.167 104.694 258.459 105.226 257.75 105.669C254.739 107.883 251.019 109.3 250.841 112.577C250.31 116.032 252.081 118.689 254.916 121.346C255.447 121.789 257.396 122.409 257.927 122.941C258.282 123.384 258.459 123.915 258.547 124.446C258.902 125.244 256.776 125.066 256.51 125.244Z" fill="#F3F4F6"/>
</g>
<defs>
<clipPath id="clip0_2_431">
<rect width="265.722" height="200" fill="white"/>
</clipPath>
</defs>
</svg>
