<svg width="196" height="200" viewBox="0 0 196 200" fill="none" xmlns="http://www.w3.org/2000/svg">
<g clip-path="url(#clip0_3_31)">
<path d="M161.01 180.9C161.07 180.86 161.13 180.81 161.2 180.77C161.21 180.86 161.24 180.95 161.24 181.04C161.24 181.08 161.17 181.11 161.14 181.15C161.1 181.07 161.06 180.98 161.02 180.9" fill="#111827"/>
<path d="M24.33 157.26C23.68 156.98 22.78 156.87 22.44 156.38C21.58 155.15 19.83 154.41 20.13 152.44C20.16 152.24 19.28 151.91 18.82 151.64C18.79 152.06 18.59 152.59 18.76 152.9C19.99 155.03 21.47 157.03 22.53 159.24C23.44 161.13 25.79 161.96 26 164.39C26.05 164.99 27.32 165.43 27.95 166.04C29.21 167.28 30.38 168.61 31.65 169.84C32.24 170.41 32.99 170.83 33.67 171.31C33.79 171.17 33.92 171.04 34.04 170.91C33.44 170.17 32.88 169.4 32.24 168.71C31.27 167.67 30.21 166.71 29.28 165.65C29.07 165.41 29.28 164.84 29.15 164.48C28.96 163.99 28.61 163.57 28.35 163.16C30.11 162.42 30.55 165.91 32.66 164.37C32.44 164.05 32.29 163.7 32.02 163.46C28.99 160.78 26.9 157.31 24.31 154.27C21.07 150.45 18.71 146.13 16.34 141.8C15.43 140.14 14.92 138.28 14.11 136.56C13.14 134.51 11.81 132.6 11.06 130.48C9.48999 126.06 7.99999 121.59 6.82999 117.06C4.93999 109.75 4.52999 102.23 4.41999 94.72C4.37999 92.03 4.73999 89.33 5.06999 86.65C5.52999 82.95 6.03999 79.25 6.70999 75.59C7.01999 73.85 7.74999 72.19 8.27999 70.5C8.72999 69.05 9.08999 67.57 9.64999 66.16C10.32 64.45 11.11 62.77 11.93 61.12C12.95 59.06 14.09 57.06 15.12 55C17.8 49.67 20.68 44.49 24.56 39.9C26.78 37.28 28.77 34.43 31.19 32.02C33.05 30.17 35.44 28.85 37.57 27.26C40.37 25.16 43.06 22.92 45.93 20.93C48.94 18.85 52.1 16.99 55.2 15.04L55.5 15.48C52.88 17.35 50.21 19.16 47.65 21.11C44.97 23.14 42.27 25.17 39.81 27.46C37.41 29.69 35.3 32.23 33.06 34.63C33.21 34.82 33.37 35.02 33.52 35.21C34.06 34.88 34.68 34.63 35.12 34.2C41.63 27.84 48.96 22.58 56.86 18.1C61.01 15.74 65.11 13.29 69.29 10.98C70.96 10.06 72.8 9.44999 74.55 8.65999C75.75 8.10999 76.98 7.58999 78.1 6.88999C81.84 4.54999 85.89 3.97999 90.2 4.48999C91.65 4.65999 93.14 4.57999 94.61 4.57999C98.19 4.56999 101.77 4.54999 105.35 4.49999C106.09 4.49999 106.83 4.33999 107.56 4.04999C102.95 2.86999 98.29 2.57999 93.55 2.80999C96.73 1.80999 100.05 1.95999 103.35 2.01999C103.35 1.83999 103.35 1.64999 103.35 1.46999C102.94 1.29999 102.54 1.11999 102.01 0.899994C102.42 0.599994 102.74 0.179994 103.08 0.149994C104.24 0.0599943 105.41 0.129994 106.58 0.119994C108.03 0.119994 109.5 -0.0300057 110.93 0.0999942C112.94 0.289994 114.98 0.519994 116.93 1.02999C120.68 2.00999 124.37 3.20999 128.14 4.32999C128.19 4.07999 128.26 3.71999 128.37 3.18999C129.18 3.30999 129.97 3.41999 130.75 3.53999C130.43 4.08999 130.15 4.56999 129.74 5.24999C131.29 5.54999 132.6 5.80999 134.37 6.14999C133.87 5.37999 133.66 5.04999 133.37 4.59999C134.25 4.59999 135.13 4.37999 135.84 4.63999C137.96 5.42999 140.12 6.20999 142.05 7.35999C145.02 9.12999 147.82 11.2 150.68 13.16C152.21 14.21 153.74 15.26 155.2 16.4C155.65 16.75 155.83 17.42 156.18 17.9C156.43 18.24 156.84 18.81 157.06 18.75C159.34 18.21 160.42 20.15 161.72 21.2C164.24 23.23 166.33 25.79 168.76 27.95C172.55 31.32 174.92 35.66 177.3 40C180.33 45.54 183.26 51.13 186.22 56.7C186.47 57.17 186.58 57.7 186.57 58.31C181.62 49.58 177.14 40.54 169.46 33.77C169.3 33.86 169.15 33.95 168.99 34.05C169.44 34.79 169.82 35.58 170.34 36.26C175.63 43.04 179.83 50.47 183.23 58.34C185.74 64.14 188.02 70.04 190.37 75.9C191.46 78.63 192.83 81.32 193.42 84.16C194.1 87.39 194.62 90.75 193.53 94.11C193.12 95.39 193.12 96.81 192.97 98.17C192.57 101.89 192.19 105.6 191.79 109.41C193.03 109.69 193.19 108.77 193.28 107.99C193.83 103.33 194.34 98.66 194.76 94.94C194.82 96.3 195.06 98.66 195.01 101.03C194.96 103.38 194.62 105.72 194.38 108.4C194.92 107.92 195.24 107.63 195.76 107.16C196.02 111.71 195.66 116.03 194.21 120.13C192.76 124.24 190.88 128.2 189.17 132.27H190.34C190.25 132.66 190.19 133.02 190.08 133.37C189.13 136.28 188.32 139.24 187.17 142.07C186.52 143.66 185.35 145.06 184.32 146.48C184.02 146.9 183.4 147.09 182.75 147.49C181.7 150.2 180.65 153.21 177.79 155.14C176.71 155.87 175.79 156.82 174.83 157.71C174.63 157.89 174.5 158.26 174.51 158.54C174.54 159.49 174.45 160.31 173.57 160.97C173.07 161.34 172.68 161.99 172.47 162.6C171.62 165.04 169.55 166.18 167.54 167.4C167.07 167.68 166.65 168.06 166.15 168.27C165.93 168.37 165.58 168.12 165.29 168.12C164.94 168.12 164.42 168.07 164.25 168.27C163.49 169.19 162.86 170.21 162.12 171.15C161.6 171.81 161.09 172.71 160.39 172.97C158.22 173.77 156.47 174.98 155.05 176.82C154.65 177.35 153.78 177.67 153.08 177.78C151.49 178.03 151.48 177.95 150.49 179.77C150.9 180 151.31 180.23 151.87 180.54C150.92 181.38 149.98 182.2 148.73 183.3C149.57 183.54 149.99 183.66 150.4 183.78C150.4 183.87 150.43 184.03 150.37 184.08C149.33 184.96 148.52 185.9 148.05 187.28C147.83 187.92 146.2 188.72 145.65 188.47C143.69 187.6 142.4 189.04 140.87 189.49C135.87 190.99 130.9 192.64 125.94 194.26C125.44 194.42 125.01 194.81 124.64 195.34C128.63 196.05 132.28 194.33 136.09 194.08C117.35 200.65 98.29 201.89 78.86 197.48C59.31 193.04 42.45 183.78 28.17 169.7C13.96 155.69 4.85999 138.86 0.019989 119.6C0.749989 120.57 1.76999 121.15 1.95999 122.73C2.16999 124.48 3.36999 126.12 4.16999 127.79C5.36999 130.31 6.59999 132.82 7.79999 135.34C8.61999 137.07 9.38999 138.83 10.26 140.54C10.46 140.94 10.96 141.2 11.59 141.77C11.48 140.67 11.41 140 11.34 139.32C11.42 139.29 11.51 139.26 11.59 139.23C11.93 139.82 12.22 140.46 12.63 141C13.32 141.91 14.16 142.72 14.8 143.66C16.68 146.38 18.47 149.17 20.34 151.89C21.62 153.75 23 155.54 24.33 157.36L24.36 157.34L24.33 157.26ZM186.09 99.66C186.09 51.45 146.66 11.99 98.64 11.72C49.92 11.43 9.18999 51.07 9.78999 101.13C10.36 147.66 47.99 188.04 98 188.1C146.76 188.16 186.09 148.61 186.09 99.66M13.21 144.05H12.65C12.54 144.6 12.16 145.28 12.36 145.65C13.08 146.97 13.44 148.66 15.52 149.51C14.63 147.4 13.92 145.73 13.21 144.05Z" fill="#111827"/>
<path d="M97.96 184.94C50.55 184.89 12.38 145.94 12.96 98.83C13.53 52.92 51.16 14.74 98.31 14.9C145.46 15.06 183.83 53.97 182.97 101.51C182.15 147.13 144.81 184.86 97.96 184.94ZM97.81 179.61C141 179.76 176.75 145.17 177.66 101.62C178.59 57.12 143.02 20.53 98.56 20.22C54.62 19.91 19.4 54.86 18.3 97.79C17.14 143.21 53.73 179.6 97.81 179.6" fill="#111827"/>
<path fill-rule="evenodd" clip-rule="evenodd" d="M175.73 101.45C176.64 58.13 142.04 22.79 98.23 22.11C55.39 22.18 21.26 56.27 20.24 97.95C19.18 141.19 53.43 176.23 95.31 177.63C138.58 179.08 174.82 144.83 175.73 101.45ZM74.83 81.96C76.11 82.63 77.08 83.62 77.72 84.89L77.71 84.9C78.35 86.16 78.61 87.73 78.49 89.58C78.33 92.04 77.75 94.66 76.78 97.36C75.81 100.05 74.5 102.75 72.89 105.41C71.28 108.06 69.34 110.69 67.13 113.23C64.92 115.77 62.44 118.16 59.76 120.33C57.08 122.5 54.16 124.46 51.08 126.15C47.99 127.84 44.72 129.19 41.36 130.17C40.17 130.51 38.99 130.76 37.84 130.92C37.32 130.99 36.8 131.04 36.29 131.08C34.59 131.2 33.07 131.05 31.76 130.62C30.38 130.17 29.3 129.37 28.53 128.25C27.74 127.11 27.45 125.55 27.65 123.64C27.74 122.85 28.03 121.98 28.56 120.97C29.05 120.03 29.73 119.03 30.56 118.02C31.38 117.02 32.38 116 33.53 114.97C34.69 113.94 35.99 112.96 37.4 112.05C38.82 111.15 40.38 110.32 42.04 109.59C43.57 108.92 45.21 108.38 46.92 107.98C47.67 106.68 48.39 105.45 49.08 104.29C49.084 104.282 49.0895 104.276 49.0947 104.27C49.1027 104.261 49.11 104.252 49.11 104.24C48.4 104.3 47.67 104.31 46.94 104.26C46.03 104.2 45.2 104 44.47 103.66C43.71 103.31 43.08 102.78 42.6 102.09C42.09 101.36 41.87 100.39 41.92 99.2C41.95 98.43 42.19 97.51 42.63 96.49C43.06 95.5 43.7 94.44 44.54 93.35C45.37 92.28 46.42 91.17 47.65 90.05C48.88 88.93 50.35 87.83 52.02 86.79C53.68 85.75 55.58 84.77 57.66 83.87C59.75 82.97 62.1 82.19 64.66 81.56C66.72 81.06 68.62 80.83 70.33 80.89C72.08 80.95 73.59 81.31 74.83 81.96ZM49.71 118.6C49.32 118.92 48.89 119.26 48.11 119.69L48.09 119.73C46.13 120.8 45.22 120.74 44.59 120.47C44.006 120.22 43.7915 118.646 43.6996 117.971C43.6923 117.918 43.6858 117.871 43.68 117.83C43.6 117.27 43.54 115.87 43.84 114.61C43.96 114.14 44.14 113.61 44.37 113.03C44.38 113.02 44.38 113 44.38 113C43.22 113.46 42.15 113.98 41.19 114.55C39.74 115.4 38.51 116.28 37.53 117.18C36.57 118.06 35.83 118.91 35.34 119.72C34.89 120.46 34.66 121.08 34.64 121.56C34.62 122.2 34.75 122.7 35.05 123.09C35.36 123.5 35.8 123.8 36.38 123.99C37.01 124.2 37.78 124.27 38.69 124.22C39.63 124.16 40.69 123.96 41.83 123.63C43.53 123.13 45.28 122.4 47.04 121.45C48.82 120.49 50.61 119.36 52.36 118.08C54.11 116.8 55.85 115.37 57.52 113.82C59.2 112.26 60.8 110.63 62.28 108.98C63.77 107.32 65.15 105.62 66.41 103.91C67.66 102.21 68.77 100.54 69.7 98.94C70.62 97.36 71.36 95.84 71.9 94.42C72.42 93.04 72.72 91.81 72.78 90.75C72.83 89.83 72.63 89.17 72.18 88.71C71.67 88.2 71.01 87.87 70.16 87.71C69.25 87.53 68.23 87.51 67.11 87.64C65.96 87.77 64.85 87.99 63.82 88.27C61.51 88.93 59.38 89.76 57.51 90.75C55.63 91.74 54 92.78 52.67 93.83C51.36 94.86 50.33 95.87 49.6 96.81C48.77 97.88 48.53 98.5 48.43 98.83C48.33 99.15 48.26 99.38 48.33 99.64C48.36 99.74 48.44 99.87 48.5 99.96C48.52 99.99 48.62 100.12 48.94 100.25C49.15 100.34 49.59 100.44 50.34 100.54C50.76 100.59 51.11 100.62 51.42 100.62C51.4676 100.558 51.4767 100.551 51.4839 100.545C51.4919 100.538 51.4976 100.533 51.55 100.46C52.42 99.21 53.38 97.92 54.41 96.61C55.43 95.32 56.17 94.42 57.51 92.94C57.51 92.94 58.92 91.5 60.48 91.28C61.41 91.15 63.96 90.85 64.44 91.18C64.78 91.41 63.86 92.65 62.13 94.82C61.9543 95.0401 61.7808 95.2566 61.61 95.47C60.8179 96.4589 60.0816 97.3781 59.44 98.25C58.66 99.3 57.91 100.38 57.2 101.45C56.49 102.52 55.8 103.64 55.13 104.8C54.765 105.431 54.3827 106.114 53.9787 106.836C53.8513 107.064 53.7218 107.295 53.59 107.53C54.15 107.59 54.67 107.69 55.14 107.8C55.95 107.99 56.64 108.22 57.19 108.46C57.6173 108.639 57.7013 108.753 57.8291 108.926C57.8508 108.955 57.8738 108.987 57.9 109.02C58.46 109.72 56.33 111.98 55.77 112.29C55.39 112.5 54.75 112.26 54.75 112.26C54.07 112.08 53.39 111.93 52.72 111.84C52.5447 111.816 52.3246 111.773 52.0976 111.729C51.7676 111.665 51.4229 111.598 51.18 111.58C51 111.98 50.93 112.16 50.79 112.53C50.58 113.07 50.43 113.6 50.33 114.09L50.31 114.16C50.24 114.4 50.2 114.66 50.18 114.92C50.16 115.21 50.16 115.49 50.18 115.75C50.2 116.04 50.23 116.3 50.27 116.56C50.31 116.78 50.35 116.97 50.4 117.1L50.43 117.18C50.6024 117.889 50.3346 118.102 49.7847 118.54C49.7604 118.56 49.7355 118.58 49.71 118.6ZM161.35 108.34C162.17 107.51 162.81 106.75 163.27 106.08L163.29 106.07C163.76 105.39 163.82 105.08 163.5 105.13C163.296 105.163 162.164 105.322 160.094 105.614C159.63 105.679 159.119 105.751 158.56 105.83C155.52 106.26 151.57 106.82 146.73 107.52C144.717 107.807 143.692 107.956 142.743 108.093C141.41 108.286 140.228 108.458 136.67 108.96C132.528 109.538 128.326 110.13 124.07 110.73C122.068 111.012 120.055 111.295 118.03 111.58C116.727 111.763 115.429 111.945 114.137 112.126C109.142 112.827 104.228 113.517 99.39 114.2C93.3 115.06 87.86 115.82 83.08 116.48C78.29 117.14 74.37 117.68 71.3 118.08C68.23 118.48 66.57 118.7 66.33 118.74C65.76 118.83 64.97 119.25 63.98 120C62.98 120.75 62.04 121.57 61.15 122.47C60.6353 122.991 60.4818 123.143 60.3471 123.311C60.249 123.433 60.1608 123.563 59.95 123.85C59.45 124.53 59.92 124.54 60.33 124.48C62.65 124.09 65.7 123.58 69.49 122.96C73.28 122.34 77.53 121.67 82.24 120.94C86.95 120.21 91.99 119.45 97.36 118.68C102.73 117.91 108.13 117.14 113.57 116.38C114.315 116.276 115.058 116.172 115.8 116.068C120.476 115.415 125.092 114.77 129.64 114.14C134.91 113.4 139.79 112.74 144.27 112.15C146.708 111.829 147.12 111.795 147.547 111.76C147.905 111.731 148.273 111.701 149.85 111.5C153.31 111.06 155.99 110.76 157.88 110.58C158.53 110.49 159.3 110.08 160.2 109.37C160.649 109.011 160.732 108.96 160.804 108.897C160.877 108.833 160.939 108.756 161.35 108.34ZM83.51 87.69C83.28 88.36 83.19 88.97 83.23 89.52V89.53C83.23 89.79 83.33 90.07 83.52 90.34C83.71 90.61 83.96 90.85 84.28 91.05C84.6 91.25 84.96 91.4 85.36 91.5C85.76 91.6 86.18 91.62 86.61 91.56C87.11 91.49 87.6 91.29 88.09 90.94C88.57 90.59 89.01 90.18 89.41 89.7C89.8 89.23 90.15 88.7 90.44 88.14C90.74 87.58 90.94 87.04 91.05 86.54C91.16 86.05 91.09 85.62 90.84 85.23C90.59 84.84 90.27 84.51 89.86 84.26C89.46 84 89.01 83.82 88.52 83.71C88.04 83.6 87.59 83.58 87.2 83.63C86.7 83.7 86.21 83.94 85.73 84.35C85.25 84.76 84.82 85.25 84.43 85.83C84.04 86.4 83.74 87.02 83.51 87.69ZM78.48 108.48C78.48 108.48 77.44 109.79 78.62 109.48L78.64 109.47C79.17 109.26 79.73 108.99 80.32 108.6C80.9 108.21 81.5 107.75 82.11 107.22C82.72 106.69 83.3 106.15 83.85 105.61C84.4 105.06 84.9 104.55 85.36 104.06C85.69 103.71 85.96 103.42 86.2 103.15C86.3103 103.025 86.4354 102.883 86.5763 102.722C86.8189 102.446 87.1085 102.116 87.45 101.73C88.09 101.02 88.78 100.22 89.51 99.34L89.65 98.72C89.83 97.87 90.23 96.94 90.83 95.93C91.43 94.92 92.1 93.98 92.82 93.1C93.54 92.22 94.26 91.47 94.98 90.86C95.7 90.25 96.27 89.91 96.71 89.85C96.79 89.83 96.94 89.89 97.14 90.02C97.35 90.15 97.56 90.32 97.8 90.53C98.03 90.74 98.27 90.98 98.5 91.25C98.73 91.52 98.93 91.78 99.09 92.05C99.25 92.32 99.37 92.56 99.43 92.77C99.49 92.98 99.47 93.15 99.36 93.28L95.83 97.05C95.77 97.86 95.75 98.78 95.75 99.82V102.88C95.74 103.88 95.72 104.81 95.7 105.66C95.67 106.51 95.62 107.15 95.52 107.59C95.37 108.3 95.01 109.02 94.44 109.73C93.88 110.44 93.22 111.1 92.48 111.69C91.73 112.28 90.98 112.77 90.21 113.17C89.44 113.57 88.78 113.8 88.22 113.88C87.26 114.02 86.46 113.97 85.82 113.75C85.18 113.53 84.67 113.22 84.3 112.84C83.93 112.45 83.68 112.02 83.53 111.54C83.43 111.19 83.37 110.87 83.36 110.58L83 110.94C82.34 111.58 81.7 112.17 81.06 112.7C80.42 113.24 79.81 113.68 79.23 114.04C78.65 114.4 78.16 114.61 77.77 114.66C77.48 114.7 77.04 114.6 76.45 114.36C75.86 114.11 75.28 113.8 74.71 113.41C74.14 113.02 73.66 112.6 73.27 112.14C72.88 111.68 72.72 111.27 72.8 110.9C72.92 110.33 73.16 109.58 73.5 108.65C73.84 107.72 74.24 106.72 74.71 105.64C75.18 104.56 75.68 103.45 76.21 102.31C76.74 101.17 77.26 100.08 77.78 99.04C78.3 97.99 78.78 97.06 79.22 96.23C79.66 95.4 80.04 94.75 80.34 94.29C80.46 94.1 80.69 93.99 81.04 93.96C81.39 93.94 81.77 93.98 82.2 94.1C82.63 94.22 83.06 94.39 83.49 94.61C83.92 94.83 84.31 95.07 84.66 95.32C85 95.57 85.26 95.83 85.42 96.1C85.58 96.36 85.61 96.6 85.5 96.82C85.22 97.35 84.86 98.02 84.4 98.83C84.3137 98.9819 84.2268 99.1352 84.139 99.29C83.7586 99.9606 83.3625 100.659 82.94 101.39C82.42 102.29 81.9 103.19 81.37 104.1C80.84 105.01 80.36 105.82 79.92 106.52C79.73 106.84 79.51 107.17 79.25 107.52C78.99 107.87 78.73 108.19 78.48 108.48ZM84.67 109.21C84.6225 109.26 84.575 109.31 84.53 109.36H84.54C84.54 109.36 85.57 110.21 87.55 110.27C87.55 110.27 88.99 110.65 89.1 109.17C89.1076 109.037 89.1223 108.892 89.1383 108.735C89.1644 108.477 89.1938 108.187 89.2 107.87V106.13V104.13C88.7846 104.582 88.3861 105.009 87.9969 105.426L87.9 105.53C87.52 105.94 87.16 106.32 86.81 106.67C86.66 106.87 86.49 107.09 86.29 107.34C85.86 107.86 85.37 108.44 84.81 109.06C84.765 109.11 84.7175 109.16 84.67 109.21ZM103.67 105.17C103.02 105.57 102.42 105.88 101.86 106.06L101.87 106.07C100.6 106.48 101.72 105.09 101.72 105.09C101.99 104.78 102.25 104.46 102.51 104.11C102.77 103.76 102.98 103.43 103.15 103.12C103.69 102.11 104.4 100.76 105.28 99.08C106.16 97.4 107.1 95.62 108.09 93.75L110.73 93.38C110.86 93.36 110.95 93.16 111 92.77C111.05 92.38 111.07 91.95 111.05 91.49C111.03 91.02 110.98 90.6 110.9 90.22C110.82 89.84 110.72 89.66 110.6 89.68L110.23 89.73C110.424 89.3652 110.614 89.0046 110.8 88.6502C111.017 88.2373 111.23 87.8329 111.44 87.44C111.619 87.1044 111.792 86.7815 111.958 86.4723C112.153 86.1088 112.337 85.7642 112.51 85.44C112.83 84.84 113.11 84.32 113.36 83.87C113.61 83.43 113.8 83.08 113.93 82.84C114.09 82.57 114.1 82.28 113.98 81.98C113.85 81.68 113.66 81.38 113.39 81.08C113.13 80.78 112.81 80.5 112.43 80.24C112.05 79.98 111.69 79.77 111.34 79.62C110.99 79.47 110.67 79.38 110.38 79.37C110.09 79.35 109.9 79.43 109.8 79.6C109.55 80.03 109.22 80.63 108.81 81.39C108.695 81.6027 108.576 81.8232 108.452 82.052C108.133 82.6408 107.784 83.2843 107.41 83.99C106.89 84.96 106.32 86.03 105.72 87.18C105.12 88.33 104.5 89.53 103.87 90.78C103.45 90.8552 103.073 90.9186 102.737 90.9752C102.537 91.0089 102.352 91.0401 102.18 91.07C101.73 91.15 101.06 91.25 100.96 91.26C100.77 91.31 100.65 91.52 100.61 91.89C100.57 92.26 100.58 92.66 100.64 93.07C100.7 93.48 100.79 93.85 100.92 94.18C101.05 94.51 101.19 94.66 101.36 94.64L101.96 94.56C101.32 95.83 100.7 97.08 100.1 98.31C99.5 99.54 98.95 100.71 98.46 101.81C97.97 102.92 97.53 103.93 97.15 104.85C96.76 105.77 96.47 106.56 96.27 107.21C96.19 107.47 96.22 107.75 96.37 108.05C96.52 108.35 96.73 108.66 97.02 108.96C97.3 109.27 97.63 109.57 98 109.86C98.36 110.15 98.73 110.41 99.11 110.62C99.48 110.84 99.83 111.01 100.16 111.13C100.49 111.25 100.74 111.3 100.93 111.27C101.33 111.21 101.83 111 102.44 110.64C103.05 110.27 103.7 109.82 104.38 109.28C105 108.79 105.64 108.24 106.29 107.66C106.32 107.75 106.39 107.85 106.5 107.97C106.68 108.15 106.91 108.36 107.18 108.59C107.46 108.82 107.75 109.04 108.08 109.25C108.41 109.46 108.72 109.63 109.01 109.77C109.3 109.91 109.55 109.99 109.77 110C109.99 110.01 110.11 109.94 110.15 109.78C110.18 109.66 110.26 109.4 110.4 108.99C110.433 108.893 110.468 108.791 110.506 108.683C110.626 108.333 110.767 107.924 110.92 107.45C111.047 107.081 111.181 106.68 111.325 106.25C111.419 105.968 111.517 105.675 111.62 105.37C111.88 104.601 112.15 103.791 112.429 102.952L112.43 102.95C112.906 102.075 113.405 101.141 113.939 100.14C114.022 99.9849 114.106 99.8282 114.19 99.67C114.82 98.49 115.45 97.29 116.08 96.07C116.46 95.94 116.89 95.79 117.34 95.59C117.8 95.39 118.27 95.17 118.77 94.92C120.245 94.8507 119.819 95.7914 119.383 96.7516L119.37 96.78C119.37 96.78 118.08 99.82 122.99 98.02C123.498 97.7829 124.107 96.6995 124.597 95.8267C124.686 95.6688 124.77 95.5178 124.85 95.38C125.129 94.8879 125.402 94.4108 125.667 93.947C125.887 93.5625 126.102 93.1871 126.31 92.82C126.77 92.01 127.13 91.34 127.41 90.81C127.52 90.6 127.49 90.36 127.33 90.09C127.17 89.82 126.92 89.56 126.57 89.31C126.22 89.06 125.83 88.83 125.4 88.61C124.97 88.39 124.54 88.22 124.11 88.1C123.983 88.0668 123.891 88.0373 123.815 88.0127C123.638 87.9559 123.544 87.926 123.3 87.94C122.82 87.97 120.26 90.23 120.26 90.23C120.094 90.371 119.93 90.5115 119.766 90.651C119.269 91.0753 118.782 91.4911 118.3 91.89C118.687 91.1457 119.045 90.4636 119.372 89.8416C119.585 89.4357 119.784 89.0554 119.97 88.7C120.031 88.5835 120.089 88.4722 120.144 88.366C120.517 87.6523 120.768 87.1725 120.89 86.92C121.11 86.49 120.43 85.92 120.43 85.92C120.2 85.7 119.93 85.48 119.62 85.26C119.3 85.03 118.99 84.84 118.69 84.67C118.38 84.5 118.1 84.38 117.83 84.32C117.56 84.26 117.36 84.28 117.21 84.39C117.07 84.5 116.85 84.73 116.55 85.07C116.26 85.41 115.93 85.82 115.56 86.31C115.2 86.8 114.82 87.33 114.43 87.92C114.04 88.51 113.67 89.08 113.33 89.64C112.99 90.2 112.69 90.73 112.44 91.23C112.19 91.73 112.03 92.15 111.95 92.5C111.89 92.77 111.93 93.09 112.07 93.45C112.21 93.81 112.41 94.16 112.68 94.5C112.197 95.4794 111.705 96.4678 111.207 97.4682C110.963 97.9591 110.717 98.4529 110.47 98.95C110.38 99.12 110.3 99.28 110.22 99.45C109.94 99.76 109.59 100.13 109.15 100.57C108.66 101.06 108.11 101.58 107.51 102.13C106.91 102.68 106.28 103.22 105.62 103.76C104.96 104.3 104.31 104.77 103.67 105.17ZM134.72 78.57C134.33 79.14 134.03 79.76 133.8 80.43C133.57 81.1 133.48 81.71 133.52 82.26V82.28C133.52 82.54 133.62 82.82 133.81 83.09C134 83.36 134.25 83.6 134.57 83.8C134.89 84 135.25 84.15 135.65 84.25C136.05 84.35 136.47 84.37 136.9 84.31C137.4 84.24 137.89 84.04 138.38 83.69C138.86 83.34 139.3 82.93 139.7 82.45C140.09 81.98 140.44 81.45 140.73 80.89C141.03 80.32 141.23 79.79 141.34 79.28C141.45 78.79 141.38 78.36 141.13 77.97C140.88 77.58 140.56 77.25 140.15 77C139.75 76.74 139.3 76.56 138.81 76.45C138.33 76.34 137.88 76.32 137.49 76.37C136.99 76.44 136.5 76.68 136.02 77.09C135.54 77.5 135.11 77.99 134.72 78.57ZM160.11 97.26C159.47 97.67 158.86 97.96 158.3 98.15L158.26 98.23C156.87 98.7 158.11 97.25 158.11 97.25C158.38 96.94 158.64 96.62 158.9 96.27C159.16 95.92 159.37 95.59 159.54 95.28C160.08 94.27 160.79 92.92 161.67 91.24C162.55 89.56 163.49 87.78 164.48 85.91L169.95 85.15C170.08 85.13 170.17 84.93 170.22 84.54C170.27 84.15 170.29 83.72 170.27 83.26C170.25 82.79 170.2 82.37 170.12 81.99C170.04 81.61 169.94 81.43 169.82 81.45L166.62 81.9C166.814 81.5352 167.004 81.1747 167.19 80.8204C167.407 80.4074 167.62 80.0029 167.83 79.61C168.009 79.2741 168.183 78.9509 168.348 78.6414C168.543 78.2783 168.727 77.9339 168.9 77.61C169.22 77.01 169.5 76.49 169.75 76.04C169.803 75.9449 169.853 75.8547 169.9 75.7693C170.078 75.4507 170.217 75.1993 170.32 75.01C170.48 74.74 170.49 74.46 170.37 74.15C170.24 73.85 170.05 73.55 169.78 73.25C169.52 72.96 169.19 72.68 168.82 72.42C168.44 72.16 168.08 71.95 167.73 71.8C167.38 71.65 167.06 71.57 166.77 71.55C166.48 71.53 166.29 71.61 166.19 71.78C165.94 72.21 165.61 72.81 165.2 73.57L165.027 73.8907C164.659 74.5719 164.248 75.3338 163.8 76.17C163.28 77.14 162.71 78.21 162.11 79.36C161.51 80.51 160.89 81.71 160.26 82.96C159.994 83.0037 159.745 83.0459 159.513 83.0852C159.161 83.1448 158.847 83.1978 158.57 83.24C158.12 83.32 157.45 83.42 157.35 83.43C157.16 83.48 157.04 83.69 157 84.06C156.96 84.43 156.97 84.83 157.03 85.24C157.1 85.65 157.19 86.02 157.32 86.35C157.45 86.68 157.59 86.83 157.76 86.81L158.36 86.73C157.72 88 157.1 89.25 156.5 90.48C156.02 91.47 155.58 92.41 155.17 93.32C154.88 93.63 154.49 94.02 153.98 94.51C153.35 95.12 152.62 95.78 151.79 96.48C150.96 97.19 150.06 97.91 149.09 98.63C148.11 99.35 147.15 99.99 146.2 100.53C145.25 101.08 144.32 101.49 143.43 101.77C142.54 102.05 141.75 102.1 141.06 101.93C140.79 101.54 140.79 100.9 141.06 100.02C141.33 99.14 141.73 98.17 142.26 97.1C142.79 96.04 143.42 94.95 144.14 93.85C144.87 92.75 145.57 91.77 146.25 90.9C146.93 90.03 147.53 89.38 148.06 88.94C148.58 88.49 148.93 88.4 149.1 88.64C149.18 88.76 149.17 88.97 149.09 89.26C149 89.55 148.86 89.89 148.65 90.29C148.44 90.69 148.17 91.12 147.84 91.59C147.51 92.06 147.14 92.53 146.73 93.01C146.59 93.19 146.51 93.41 146.48 93.68C146.45 93.95 146.47 94.21 146.53 94.47C146.6 94.72 146.7 94.94 146.83 95.11C146.97 95.28 147.13 95.33 147.33 95.26C148.12 95.01 148.91 94.63 149.7 94.11C150.49 93.58 151.2 93.03 151.83 92.44C152.251 92.0459 152.551 91.7187 152.85 91.3928C152.999 91.2309 153.147 91.0693 153.31 90.9C153.787 90.3886 153.865 89.9934 153.933 89.6464C153.945 89.5863 153.957 89.5276 153.97 89.47C154.04 89.15 154.01 88.67 153.91 88.2C152.16 80.13 143.7 85.89 143.7 85.89C142.87 86.56 142.04 87.41 141.21 88.41C140.38 89.41 139.57 90.54 138.8 91.78C138.03 93.02 137.34 94.27 136.75 95.52C136.739 95.5464 136.729 95.5713 136.719 95.5953C136.704 95.6352 136.689 95.6726 136.67 95.71C136.38 96.03 136.03 96.41 135.6 96.87C135.14 97.36 134.64 97.87 134.09 98.42C133.54 98.96 132.96 99.5 132.35 100.03C131.75 100.56 131.15 101.02 130.56 101.41C129.97 101.81 129.41 102.09 128.88 102.28C127.18 102.89 128.74 101.28 128.74 101.28C129 100.99 129.25 100.67 129.51 100.32C129.77 99.97 129.99 99.64 130.18 99.32C130.62 98.62 131.1 97.81 131.63 96.9C132.16 95.99 132.68 95.09 133.2 94.19C133.479 93.6981 133.752 93.2211 134.017 92.7574C134.237 92.3727 134.451 91.9973 134.66 91.63C135.12 90.82 135.48 90.15 135.76 89.62C135.87 89.41 135.84 89.17 135.68 88.9C135.52 88.63 135.27 88.37 134.92 88.12C134.58 87.86 134.18 87.63 133.75 87.41C133.32 87.19 132.89 87.02 132.46 86.9C132.03 86.78 131.65 86.73 131.3 86.76C130.96 86.78 130.72 86.89 130.6 87.09C130.29 87.55 129.92 88.2 129.48 89.03C129.04 89.86 128.56 90.8 128.04 91.84C127.53 92.88 127 93.97 126.47 95.11C125.93 96.25 125.44 97.36 124.97 98.44C124.51 99.52 124.1 100.52 123.76 101.45C123.42 102.37 123.18 103.13 123.06 103.7C122.98 104.07 123.14 104.48 123.53 104.94C123.92 105.4 124.4 105.82 124.97 106.21C125.54 106.59 126.12 106.91 126.71 107.15C127.3 107.39 127.74 107.49 128.03 107.45C128.42 107.39 128.91 107.19 129.49 106.83C130.07 106.47 130.68 106.02 131.32 105.49C131.96 104.95 132.61 104.37 133.26 103.73C133.85 103.16 134.39 102.59 134.9 102.03C134.92 102.33 135.06 102.63 135.33 102.94C135.61 103.27 135.98 103.58 136.44 103.86C136.9 104.14 137.41 104.4 137.97 104.65C138.53 104.89 139.09 105.1 139.67 105.28C140.24 105.46 140.78 105.58 141.29 105.66C141.8 105.74 142.23 105.75 142.58 105.7C143.33 105.59 144.16 105.33 145.06 104.92C145.97 104.51 146.89 104.01 147.83 103.42C148.77 102.83 149.69 102.18 150.6 101.48C151.36 100.89 152.05 100.33 152.7 99.77C152.72 99.89 152.76 100.02 152.82 100.15C152.97 100.45 153.19 100.75 153.47 101.06C153.76 101.37 154.08 101.67 154.45 101.96C154.81 102.25 155.18 102.5 155.56 102.72C155.94 102.93 156.28 103.1 156.61 103.22C156.94 103.35 157.19 103.4 157.38 103.37C157.78 103.31 158.28 103.1 158.89 102.74C159.5 102.37 160.15 101.92 160.83 101.38C161.51 100.84 162.21 100.25 162.92 99.6C163.63 98.96 164.29 98.32 164.9 97.69C165.51 97.06 166.04 96.48 166.49 95.95C166.93 95.42 167.25 95 167.44 94.68C167.57 94.44 167.62 94.11 167.62 93.7C167.61 93.29 167.56 92.89 167.46 92.52C167.36 92.15 167.24 91.85 167.11 91.62C166.98 91.39 166.86 91.33 166.76 91.43C166.47 91.76 166.08 92.17 165.59 92.66C165.1 93.15 164.55 93.67 163.95 94.22C163.35 94.77 162.72 95.31 162.06 95.85C161.4 96.39 160.75 96.86 160.11 97.26Z" fill="#111827"/>
<path d="M59.77 133.65V128.94H61.73V129.59H60.72V130.87H61.44V131.54H60.72V132.99H61.73V133.64H59.77V133.65Z" fill="white"/>
<path d="M63.74 133.65L64.76 128.94H65.6L66.61 133.65H65.67L65.48 132.64H64.87L64.69 133.65H63.75H63.74ZM64.93 132.06H65.42L65.18 130.31L64.93 132.06Z" fill="white"/>
<path d="M69.15 133.65V129.65H68.46V128.94H70.78V129.65H70.1V133.65H69.15V133.65Z" fill="white"/>
<path d="M73.03 133.65V128.94H74.99V129.59H73.98V130.87H74.7V131.54H73.98V132.99H74.99V133.64H73.03V133.65Z" fill="white"/>
<path d="M77.25 133.65V128.94H78.29C78.53 128.94 78.73 128.96 78.91 129.01C79.09 129.06 79.25 129.12 79.38 129.22C79.51 129.32 79.62 129.44 79.69 129.6C79.76 129.76 79.79 129.95 79.79 130.18C79.79 130.28 79.79 130.36 79.78 130.44C79.78 130.52 79.76 130.6 79.73 130.7C79.71 130.8 79.67 130.88 79.63 130.96C79.59 131.04 79.52 131.11 79.44 131.18C79.36 131.25 79.26 131.31 79.15 131.36C79.43 132.26 79.68 133.01 79.89 133.63H78.9L78.36 131.46H78.2V133.63H77.25V133.65ZM78.2 130.9H78.47C78.54 130.9 78.61 130.88 78.66 130.83C78.71 130.78 78.75 130.72 78.77 130.64C78.79 130.57 78.81 130.5 78.82 130.43C78.82 130.37 78.83 130.31 78.83 130.25C78.83 130.19 78.83 130.14 78.82 130.08C78.81 130.02 78.8 129.95 78.78 129.88C78.76 129.81 78.73 129.75 78.68 129.7C78.63 129.65 78.58 129.63 78.51 129.63H78.19V130.89L78.2 130.9Z" fill="white"/>
<path d="M82.69 133.65V132.09L81.81 128.94H82.71L83.15 131.01C83.2 130.78 83.29 130.44 83.39 129.98C83.5 129.52 83.58 129.17 83.63 128.95H84.5L83.61 132.1V133.66H82.69V133.65Z" fill="white"/>
<path d="M92.37 132.96V133.71C92.32 133.72 92.27 133.73 92.21 133.73C92.01 133.73 91.77 133.6 91.49 133.34C91.38 133.47 91.24 133.57 91.09 133.63C90.94 133.7 90.77 133.73 90.6 133.73C90.28 133.73 90.03 133.63 89.85 133.42C89.67 133.21 89.58 132.95 89.58 132.63C89.58 132.17 89.78 131.72 90.18 131.28C89.9 130.66 89.76 130.2 89.76 129.9C89.76 129.6 89.84 129.35 90.01 129.15C90.18 128.95 90.41 128.85 90.71 128.85C91.01 128.85 91.27 128.94 91.46 129.12C91.65 129.3 91.75 129.54 91.75 129.85C91.75 130.13 91.69 130.4 91.56 130.64C91.43 130.88 91.25 131.12 91.02 131.36L91.51 132.18C91.58 131.99 91.62 131.72 91.62 131.37H92.34C92.34 131.69 92.31 131.95 92.25 132.15C92.19 132.35 92.09 132.55 91.95 132.76C92 132.82 92.06 132.86 92.14 132.9C92.22 132.94 92.29 132.96 92.37 132.97V132.96ZM91 132.83C90.78 132.48 90.62 132.2 90.52 132.01C90.49 132.04 90.46 132.11 90.43 132.22C90.41 132.33 90.39 132.44 90.39 132.57C90.39 132.71 90.41 132.83 90.45 132.93C90.49 133.03 90.54 133.08 90.62 133.08C90.74 133.08 90.87 133 90.99 132.84L91 132.83ZM90.74 130.76C90.83 130.64 90.9 130.5 90.95 130.34C91 130.18 91.03 130.04 91.03 129.89C91.03 129.79 91.01 129.7 90.97 129.62C90.93 129.54 90.87 129.5 90.78 129.5C90.63 129.5 90.56 129.63 90.56 129.89C90.56 130.15 90.62 130.45 90.75 130.75L90.74 130.76Z" fill="white"/>
<path d="M97.68 132.08V130.52C97.68 129.41 98.13 128.85 99.04 128.85C99.23 128.85 99.4 128.88 99.55 128.93C99.7 128.98 99.82 129.05 99.92 129.14C100.02 129.23 100.1 129.34 100.17 129.47C100.24 129.6 100.28 129.75 100.31 129.9C100.34 130.06 100.35 130.23 100.35 130.41V130.82H99.41V130.39C99.41 130.3 99.41 130.23 99.41 130.17C99.41 130.11 99.4 130.04 99.38 129.96C99.37 129.88 99.35 129.82 99.32 129.77C99.29 129.72 99.26 129.68 99.21 129.64C99.16 129.61 99.1 129.59 99.03 129.59C98.75 129.59 98.62 129.82 98.62 130.28V132.31C98.62 132.77 98.76 133 99.03 133C99.11 133 99.18 132.98 99.24 132.93C99.3 132.88 99.34 132.82 99.36 132.73C99.38 132.64 99.4 132.56 99.41 132.48C99.42 132.4 99.42 132.3 99.42 132.2V131.72H100.35V132.12C100.35 132.3 100.33 132.46 100.31 132.62C100.28 132.77 100.24 132.92 100.18 133.06C100.12 133.2 100.04 133.32 99.94 133.42C99.84 133.52 99.72 133.6 99.56 133.66C99.41 133.72 99.23 133.75 99.03 133.75C98.83 133.75 98.65 133.72 98.49 133.66C98.33 133.6 98.2 133.52 98.1 133.42C98 133.32 97.91 133.2 97.85 133.06C97.78 132.92 97.74 132.77 97.71 132.61C97.68 132.45 97.67 132.28 97.67 132.09L97.68 132.08Z" fill="white"/>
<path d="M102.73 133.65V128.94H103.77C104.01 128.94 104.21 128.96 104.39 129.01C104.57 129.06 104.73 129.12 104.86 129.22C104.99 129.32 105.1 129.44 105.17 129.6C105.24 129.76 105.27 129.95 105.27 130.18C105.27 130.28 105.27 130.36 105.26 130.44C105.26 130.52 105.24 130.6 105.21 130.7C105.19 130.8 105.15 130.88 105.11 130.96C105.07 131.04 105 131.11 104.92 131.18C104.84 131.25 104.74 131.31 104.63 131.36C104.91 132.26 105.16 133.01 105.37 133.63H104.38L103.84 131.46H103.68V133.63H102.73V133.65ZM103.68 130.9H103.95C104.02 130.9 104.09 130.88 104.14 130.83C104.19 130.78 104.23 130.72 104.25 130.64C104.27 130.57 104.29 130.5 104.3 130.43C104.3 130.37 104.31 130.31 104.31 130.25C104.31 130.19 104.31 130.14 104.3 130.08C104.29 130.02 104.28 129.95 104.26 129.88C104.24 129.81 104.21 129.75 104.16 129.7C104.11 129.65 104.06 129.63 103.99 129.63H103.67V130.89L103.68 130.9Z" fill="white"/>
<path d="M107.33 133.65L108.35 128.94H109.19L110.2 133.65H109.26L109.07 132.64H108.46L108.28 133.65H107.34H107.33ZM108.52 132.06H109.01L108.77 130.31L108.52 132.06Z" fill="white"/>
<path d="M112.43 133.65V128.94H114.39V129.59H113.38V130.87H114.1V131.54H113.38V133.64H112.43V133.65Z" fill="white"/>
<path d="M117.04 133.65V129.65H116.35V128.94H118.67V129.65H117.99V133.65H117.04V133.65Z" fill="white"/>
<path d="M123.85 132.08V130.52C123.85 129.41 124.3 128.85 125.21 128.85C125.4 128.85 125.57 128.88 125.72 128.93C125.87 128.98 125.99 129.05 126.09 129.14C126.19 129.23 126.27 129.34 126.34 129.47C126.41 129.6 126.45 129.75 126.48 129.9C126.51 130.06 126.52 130.23 126.52 130.41V130.82H125.58V130.39C125.58 130.3 125.58 130.23 125.58 130.17C125.58 130.11 125.57 130.04 125.55 129.96C125.54 129.88 125.52 129.82 125.49 129.77C125.46 129.72 125.43 129.68 125.38 129.64C125.33 129.61 125.27 129.59 125.2 129.59C124.92 129.59 124.79 129.82 124.79 130.28V132.31C124.79 132.77 124.93 133 125.2 133C125.28 133 125.35 132.98 125.41 132.93C125.47 132.88 125.51 132.82 125.53 132.73C125.55 132.64 125.57 132.56 125.58 132.48C125.59 132.4 125.59 132.3 125.59 132.2V131.72H126.52V132.12C126.52 132.3 126.5 132.46 126.48 132.62C126.45 132.77 126.41 132.92 126.35 133.06C126.29 133.2 126.21 133.32 126.11 133.42C126.01 133.52 125.89 133.6 125.73 133.66C125.58 133.72 125.4 133.75 125.2 133.75C125 133.75 124.82 133.72 124.66 133.66C124.5 133.6 124.37 133.52 124.27 133.42C124.17 133.32 124.08 133.2 124.02 133.06C123.95 132.92 123.91 132.77 123.88 132.61C123.85 132.45 123.84 132.28 123.84 132.09L123.85 132.08Z" fill="white"/>
<path d="M128.84 132.1V130.52C128.84 129.41 129.3 128.85 130.22 128.85C131.14 128.85 131.6 129.41 131.6 130.52V132.08C131.6 132.27 131.59 132.44 131.56 132.6C131.53 132.76 131.48 132.91 131.42 133.05C131.36 133.19 131.27 133.31 131.16 133.41C131.06 133.51 130.93 133.59 130.77 133.65C130.61 133.71 130.43 133.74 130.23 133.74C130.03 133.74 129.85 133.71 129.69 133.65C129.53 133.59 129.4 133.52 129.3 133.42C129.2 133.32 129.11 133.2 129.05 133.06C128.99 132.92 128.93 132.77 128.91 132.61C128.88 132.45 128.87 132.28 128.87 132.09L128.84 132.1ZM130.64 132.31V130.28C130.64 129.82 130.5 129.59 130.21 129.59C130.12 129.59 130.05 129.61 129.99 129.65C129.93 129.69 129.89 129.75 129.86 129.82C129.83 129.89 129.81 129.97 129.8 130.04C129.79 130.11 129.78 130.19 129.78 130.28V132.31C129.78 132.77 129.92 133 130.2 133C130.48 133 130.63 132.77 130.63 132.31H130.64Z" fill="white"/>
<path d="M133.96 132.08V130.52C133.96 129.41 134.41 128.85 135.32 128.85C135.51 128.85 135.68 128.88 135.83 128.93C135.98 128.98 136.1 129.05 136.2 129.14C136.3 129.23 136.38 129.34 136.45 129.47C136.52 129.6 136.56 129.75 136.59 129.9C136.62 130.06 136.63 130.23 136.63 130.41V130.82H135.69V130.39C135.69 130.3 135.69 130.23 135.69 130.17C135.69 130.11 135.68 130.04 135.66 129.96C135.65 129.88 135.63 129.82 135.6 129.77C135.57 129.72 135.54 129.68 135.49 129.64C135.44 129.61 135.38 129.59 135.31 129.59C135.03 129.59 134.9 129.82 134.9 130.28V132.31C134.9 132.77 135.04 133 135.31 133C135.39 133 135.46 132.98 135.52 132.93C135.58 132.88 135.62 132.82 135.64 132.73C135.66 132.64 135.68 132.56 135.69 132.48C135.7 132.4 135.7 132.3 135.7 132.2V131.72H136.63V132.12C136.63 132.3 136.61 132.46 136.59 132.62C136.56 132.77 136.52 132.92 136.46 133.06C136.4 133.2 136.32 133.32 136.22 133.42C136.12 133.52 136 133.6 135.84 133.66C135.69 133.72 135.51 133.75 135.31 133.75C135.11 133.75 134.93 133.72 134.77 133.66C134.61 133.6 134.48 133.52 134.38 133.42C134.28 133.32 134.19 133.2 134.13 133.06C134.06 132.92 134.02 132.77 133.99 132.61C133.96 132.45 133.95 132.28 133.95 132.09L133.96 132.08Z" fill="white"/>
<path d="M139.01 133.65V128.94H139.96V130.73L140.7 128.94H141.76L140.8 130.87L141.83 133.65H140.84L140.13 131.5L139.96 131.94V133.65H139.01Z" fill="white"/>
<path d="M144.38 133.65V129.65H143.69V128.94H146.01V129.65H145.33V133.65H144.38Z" fill="white"/>
<path d="M147.88 133.65L148.9 128.94H149.74L150.75 133.65H149.81L149.62 132.64H149.01L148.83 133.65H147.89H147.88ZM149.07 132.06H149.56L149.32 130.31L149.07 132.06Z" fill="white"/>
<path d="M152.98 133.65V128.94H153.93V133.65H152.98Z" fill="white"/>
<path d="M156.41 133.65V128.94H157.36V132.99H158.3V133.64H156.41V133.65Z" fill="white"/>
<path d="M160.36 132.3L161.32 132.12C161.32 132.22 161.32 132.3 161.32 132.37C161.32 132.44 161.33 132.52 161.35 132.61C161.37 132.7 161.39 132.77 161.41 132.82C161.44 132.88 161.47 132.92 161.52 132.96C161.57 133 161.62 133.02 161.68 133.02C161.87 133.02 161.96 132.9 161.96 132.66C161.96 132.33 161.77 132 161.4 131.68L161.1 131.43C161.01 131.35 160.93 131.29 160.88 131.23C160.82 131.18 160.76 131.11 160.68 131.02C160.6 130.93 160.54 130.85 160.5 130.76C160.46 130.68 160.42 130.58 160.39 130.46C160.36 130.34 160.34 130.22 160.34 130.09C160.34 129.71 160.46 129.41 160.7 129.18C160.94 128.96 161.26 128.85 161.66 128.85C161.99 128.85 162.28 128.97 162.51 129.21C162.74 129.45 162.86 129.73 162.86 130.07V130.1C162.86 130.1 162.86 130.15 162.86 130.18L161.88 130.32C161.88 130.32 161.88 130.27 161.88 130.23C161.88 130.19 161.88 130.16 161.88 130.13C161.88 130.07 161.88 130.01 161.87 129.95C161.87 129.89 161.85 129.83 161.83 129.78C161.81 129.73 161.78 129.68 161.74 129.64C161.7 129.61 161.65 129.59 161.59 129.59C161.49 129.59 161.41 129.63 161.35 129.71C161.29 129.79 161.27 129.89 161.27 130C161.27 130.1 161.29 130.19 161.32 130.27C161.35 130.35 161.4 130.44 161.46 130.51C161.52 130.58 161.58 130.65 161.63 130.69C161.68 130.73 161.75 130.8 161.84 130.87C161.93 130.94 161.99 130.99 162.03 131.03C162.16 131.15 162.28 131.26 162.37 131.36C162.46 131.46 162.55 131.58 162.63 131.71C162.71 131.84 162.77 131.98 162.81 132.13C162.85 132.28 162.87 132.45 162.87 132.62C162.87 132.95 162.75 133.22 162.52 133.43C162.29 133.64 162 133.74 161.66 133.74C161.44 133.74 161.25 133.7 161.08 133.62C160.91 133.54 160.77 133.43 160.67 133.29C160.57 133.15 160.49 133 160.43 132.83C160.37 132.66 160.34 132.48 160.33 132.29L160.36 132.3Z" fill="white"/>
</g>
<defs>
<clipPath id="clip0_3_31">
<rect width="195.81" height="200" fill="white"/>
</clipPath>
</defs>
</svg>
