<svg width="176" height="200" viewBox="0 0 176 200" fill="none" xmlns="http://www.w3.org/2000/svg">
<g clip-path="url(#clip0_3_156)">
<path d="M81.7639 196.767C75.2811 192.92 69.0091 188.721 63.0007 184.171C61.0857 182.994 59.7505 181.096 59.2762 178.9C58.0112 173.963 52.3718 163.422 46.8552 155.71C43.9916 151.651 39.6697 145.538 37.3155 142.059C35.9101 139.81 34.3113 137.702 32.5193 135.752C31.9571 135.752 32.3788 150.334 32.9761 153.97L33.3626 156.026L30.2179 152.846C24.6135 146.873 20.1862 137.561 17.6564 126.493C16.7955 122.048 16.4441 117.516 16.655 113.001C16.655 102.934 17.6564 97.8039 20.889 90.9346L22.5404 87.4209L23.2431 90.0562C26.0717 100.755 30.6395 110.928 36.7533 120.169C41.8833 127.67 46.0119 132.502 58.1342 145.063C62.0344 148.911 65.7238 152.987 69.1497 157.256C70.3619 159.171 70.6079 159.329 71.1174 158.433C71.5741 155.903 71.6795 153.32 71.4512 150.755C71.1701 143.289 71.4512 143.043 74.4202 148.401C78.6191 156.623 80.0422 165.97 78.461 175.07C77.9866 177.108 77.7934 178.742 78.0745 178.742C79.2516 178.742 87.1223 170.134 90.0387 165.618C95.0281 158.117 96.9079 152.635 97.3296 145.538L97.6634 139.652L99.3148 142.305C103.022 148.559 103.549 150.914 103.549 163.282C103.549 170.432 103.777 174.578 104.146 174.578C105.429 174.578 110.084 172.084 113.563 169.589C118.096 166.479 121.715 162.245 124.104 157.291C128.672 147.927 128.057 139.318 122.048 129.181C119.132 124.332 118.535 123.911 119.167 127.056C120.538 134.083 119.413 145.309 116.918 150.018L115.935 151.897L115.179 146.627C113.721 136.472 108.152 128.32 98.4364 121.785C96.0822 120.186 91.0928 117.182 87.3682 115.109C83.9951 113.264 80.7976 111.103 77.8285 108.661C74.9473 105.938 74.104 104.111 76.0717 104.849C81.1138 106.781 94.6592 106.167 101.985 103.637C102.46 103.496 100.914 102.126 98.2783 100.439C90.1792 95.1687 85.6641 89.5292 85.629 84.6275V82.7477L87.3858 85.0492C91.4266 90.636 97.9269 93.9916 107.291 95.3092C114.722 96.3282 120.924 94.3078 121.012 90.8819C121.012 89.7576 121.012 89.7927 121.873 91.1103C124.034 94.9227 122.611 96.7147 112.684 102.969C108.503 105.604 105.112 107.853 105.112 107.959C106.746 107.379 108.31 106.676 109.821 105.833C111.437 104.831 113.229 104.146 115.091 103.812C116.356 104.568 115.372 105.569 111.367 108.046C104.339 112.28 103.795 113.124 110.242 109.926C115.741 107.256 118.043 106.676 117.955 107.994C116.409 109.382 114.687 110.559 112.825 111.507C104.691 116.444 104.041 117.34 111.613 113.475L118.465 109.961H128.074C136.859 110.102 137.895 109.961 140.478 108.837C142.129 108.345 143.5 107.168 144.22 105.604C145.502 102.547 145.309 101.985 142.867 101.23C139.494 100.07 136.472 98.085 134.083 95.4498L132.871 93.6929L137.193 93.9916C139.459 94.1321 141.725 93.974 143.956 93.5172L146.311 92.8145L144.044 90.4076C142.814 89.09 137.93 84.9965 133.275 81.2895C121.838 72.2593 120.977 71.3106 120.977 69.2024C120.977 67.8848 120.309 66.8482 118.482 65.1089C115.214 62.2277 111.771 59.5397 108.169 57.0977C107.431 56.676 107.467 55.8327 108.31 50.0703C108.714 47.7864 108.942 45.4849 108.978 43.1658C108.45 42.5861 105.868 44.5713 102.108 48.4364C99.1918 51.4055 98.5945 51.8271 98.8229 50.65C100.58 43.1307 99.5257 37.0169 95.9417 33.0815C93.6402 30.4989 87.8074 27.3015 82.0274 25.4041C80.6571 25.0351 79.3219 24.4905 78.0745 23.8053C78.0745 23.2959 88.0358 24.2446 92.0415 25.123C95.9241 25.9136 99.5432 27.6528 102.583 30.1651C104.146 32.0977 105.183 34.4343 105.569 36.8939C105.569 37.9831 106.008 37.8953 111.033 35.7695C114.002 34.5573 116.497 33.6086 116.585 33.6613C116.673 33.714 115.935 37.6142 114.986 42.305C114.23 45.6079 113.633 48.9635 113.229 52.3366C113.229 53.5488 114.02 54.5503 116.901 56.799C122.962 61.6479 125.369 64.2305 125.791 66.5847C126.16 68.5172 127.284 69.5889 136.033 76.5636C151.089 88.598 153.602 91.8834 150.615 95.6957C150.07 97.5053 149.842 99.4027 149.965 101.3C149.965 105.253 149.736 106.465 148.507 108.538C147.822 109.838 146.908 110.98 145.784 111.929C144.606 112.684 144.501 113.018 145.081 114.986C145.415 116.655 145.502 118.377 145.309 120.063C144.413 126.265 140.583 131.658 135.014 134.557C131.711 136.314 131.377 136.771 131.658 138.071C131.852 138.862 132.186 141.444 132.414 143.798C132.414 145.257 132.677 146.715 133.169 148.085C133.925 148.085 141.778 136.753 145.467 130.394C159.909 104.954 166.374 75.773 164.037 46.6093L163.651 41.8131L160.365 41.4441C134.399 38.5278 112.93 31.1841 94.1848 18.7632L88.0007 14.6346L83.7316 17.305C80.9206 19.0443 77.9866 20.5727 74.9473 21.8728L70.4322 23.7526L73.4891 25.4041C77.6177 27.8812 81.1666 31.2544 83.837 35.2776L85.1019 37.5791L81.676 35.506C76.5812 32.6774 70.9592 30.9557 65.1616 30.4287C61.6655 29.7611 58.064 29.884 54.6205 30.7625C44.3605 32.8531 34.6275 36.9642 25.9838 42.8496C21.3282 46.0471 16.655 50.4744 18.728 49.7189C23.2256 48.9459 27.7758 48.7175 32.3261 49.0162C33.0815 49.2973 31.9923 50.0878 28.2326 51.9852C22.1539 55.0773 16.6198 59.1356 11.8588 64.0197C8.27477 68.2361 5.23542 72.9093 2.82853 77.8988C2.26634 79.357 1.6163 80.5341 1.37034 80.5341C-0.650035 80.5341 -0.386507 39.09 1.75685 31.6585C1.98524 30.903 3.21504 30.6219 8.04638 30.2881C37.1223 28.3205 60.9803 19.9403 81.8342 4.32186C83.837 2.74069 85.9276 1.30007 88.1061 0C89.494 0.755446 90.7941 1.66901 91.9712 2.72312C93.728 4.28672 97.8566 7.15039 100.914 9.17077C119.255 21.2228 139.722 27.8461 165.021 30.0597C168.025 30.1651 170.994 30.6044 173.911 31.3247C174.947 32.8883 175.896 46.7147 175.843 59.4343C176.019 66.8131 175.58 74.1919 174.526 81.5004C172.277 97.4526 167.481 112.93 160.313 127.354C156.448 135.664 151.704 143.517 146.153 150.808C134.241 166.62 119.712 180.288 103.215 191.216C95.3971 196.346 89.1602 200 87.8777 200C85.7344 199.139 83.6789 198.05 81.7639 196.767V196.767ZM136.086 127.337C139.143 124.701 140.9 119.062 139.758 115.671L139.108 113.651L129.55 113.317C119.536 113.036 118.833 113.176 119.536 115.531C120.098 117.463 121.89 119.044 126.265 121.451C131.008 124.086 132.66 125.826 132.66 128.32C132.66 130.253 132.8 130.2 136.174 127.337H136.086ZM84.487 141.778C79.884 134.803 73.8932 128.812 66.9185 124.209C65.4954 123.278 63.9845 122.505 62.4034 121.873C62.4912 123.138 62.7723 124.403 63.2467 125.58C65.4603 132.607 65.4076 136.121 63.2467 132.783C62.7723 132.027 59.241 128.162 55.4814 124.174C47.5931 115.952 44.0794 111.297 41.4968 106.36C36.7533 96.9958 36.4722 84.241 40.7414 75.6852C41.4968 74.1743 41.9185 72.9093 41.6901 72.9093C38.5278 74.5784 35.5762 76.6163 32.9058 78.9705C30.376 81.3774 30.5165 80.2003 33.5207 74.4554C35.3127 71.0295 37.6318 67.9023 40.39 65.1968C44.5713 60.9628 44.7294 60.7344 42.7442 61.4371C41.6198 61.8588 39.0372 63.0358 36.9993 64.0197C34.9614 65.0035 33.3802 65.6711 33.3802 65.39C34.3113 63.8089 35.4006 62.3155 36.6304 60.9628C47.5228 47.7864 65.3725 42.6212 81.6058 47.9796L86.5777 49.7365L81.3071 50.0703C78.4259 50.246 75.5798 50.7203 72.7864 51.4758L69.5538 52.6177L73.5945 53.3732C78.5313 54.4097 83.2045 56.4125 87.3682 59.241L89.3008 60.6992L85.26 63.5805C78.0042 68.6578 74.9122 73.9283 74.9122 81.149C74.754 88.2115 78.6894 94.747 85.0141 97.8918C88.071 99.4378 87.5088 99.6486 82.818 98.7878C75.3689 97.5053 68.974 92.8145 65.5306 86.0857C63.7737 82.1328 63.6507 74.7013 65.3549 71.8377C66.7604 69.1497 69.4835 67.4104 72.5053 67.2171C75.1757 66.9361 78.5664 64.8278 78.5664 63.4223C78.5664 62.4736 73.0675 59.4694 70.5727 59.0829C67.7442 58.6964 64.8805 59.0127 62.1926 59.9789C61.5777 60.3479 61.5425 60.7344 62.052 61.7358C62.5615 62.7372 62.3858 63.4926 61.0682 66.0225C58.6788 71.6796 58.5383 78.0394 60.6992 83.8018C61.3493 85.5587 58.5734 84.1356 55.6571 81.1666L52.8637 78.1799L51.6514 81.0963C49.0689 87.0169 48.5945 93.9389 50.3689 98.5067L51.0893 100.264L52.0731 97.9093C52.9164 95.4673 54.2164 93.201 55.8855 91.2333C56.5882 90.6184 56.8166 91.0928 57.3436 94.1497C58.6613 101.476 60.5411 104.304 71.9606 116.022C80.4287 124.666 82.7829 127.442 84.2586 130.552C86.2966 134.698 87.3331 139.248 87.2628 143.869L87.0871 146.311L84.487 141.778V141.778ZM118.306 82.045C114.248 79.7962 113.036 79.4273 110.207 79.4273C107.326 79.3746 104.498 78.5488 102.056 77.0028C100.387 76.3001 98.8229 75.4217 97.3472 74.3675C97.3472 73.4715 101.493 72.2066 104.691 72.1539C109.013 72.1539 109.065 71.7323 105.253 68.5348C103.742 67.305 102.706 66.1806 102.846 66.0401C104.427 66.2333 105.973 66.6725 107.414 67.3577C111.507 68.9037 115.601 71.8728 116.866 74.2797C117.393 75.2108 116.866 75.0703 114.178 73.5242C113.194 72.8391 112.087 72.3296 110.928 72.0309C110.928 73.4891 113.335 76.3176 117.516 79.7435C121.533 83.0347 123.431 84.6803 123.208 84.6803C122.874 84.6803 120.854 83.468 118.271 82.045H118.306V82.045Z" fill="#111827"/>
</g>
<defs>
<clipPath id="clip0_3_156">
<rect width="175.878" height="200" fill="white"/>
</clipPath>
</defs>
</svg>
