<svg width="200" height="99" viewBox="0 0 200 99" fill="none" xmlns="http://www.w3.org/2000/svg">
<path fill-rule="evenodd" clip-rule="evenodd" d="M0 12.4349H4.88458V36.5983H4.99577C5.773 35.2107 6.99385 33.9342 8.4927 33.1558C9.99728 32.2395 11.7268 31.7591 13.4885 31.7682C17.0954 31.7682 22.8684 33.9887 22.8684 43.2574V59.2432H17.9827V43.8146C17.9827 39.4292 16.375 35.8223 11.7672 35.8223C8.60274 35.8223 6.16103 38.0427 5.21701 40.7057C4.93902 41.3717 4.88458 42.0933 4.88458 43.0374V59.2444H0V12.4349ZM31.8604 32.3809L37.689 48.2567C38.3576 50.0619 38.95 51.8944 39.4646 53.7494H39.5758C40.0762 52.1405 40.6322 50.0868 41.2971 48.1432L46.6253 32.3809H51.7879L44.4604 51.5301C40.9635 60.7444 35.3133 75.7329 35.3133 75.7329L29.4893 75.7375C29.4893 75.7375 36.8017 58.7475 36.8017 58.4127C36.8017 58.1347 36.6917 57.7455 36.4148 57.193L26.5345 32.3809H31.8604ZM78.8725 12.4349V52.3073C78.8725 54.6922 78.9293 57.4108 79.0949 59.2432H74.7107L74.4883 54.581H74.3772C72.8783 57.5787 69.6582 59.8548 65.2752 59.8548C58.7806 59.8548 53.7303 54.3598 53.7303 46.2007C53.6747 37.2088 59.2798 31.7694 65.7744 31.7694C69.9374 31.7694 72.7127 33.7118 73.8779 35.8223H73.9891V12.4361L78.8725 12.4349ZM73.988 43.3142C73.988 42.6493 73.9324 41.8709 73.7667 41.2049C73.0451 38.1528 70.381 35.5999 66.7173 35.5999C61.6659 35.5999 58.6694 40.0397 58.6694 45.9239C58.6694 51.4189 61.3891 55.9143 66.6072 55.9143C69.8818 55.9143 72.8795 53.6949 73.7679 50.0868C73.9347 49.4219 73.9891 48.7548 73.9891 47.9787L73.988 43.3142ZM87.0316 40.7624C87.0316 37.5991 86.9772 34.8783 86.8104 32.3809H91.0834L91.3058 37.6536H91.4726C92.6934 34.0454 95.6911 31.7694 98.9657 31.7694C99.4661 31.7694 99.8553 31.825 100.298 31.9362V36.4871C99.7429 36.4315 99.2425 36.3771 98.5765 36.3771C95.1352 36.3771 92.6934 38.9856 92.0286 42.5926C91.9133 43.3644 91.8572 44.1439 91.8606 44.9242V59.2444H86.9772L87.0316 40.7624ZM115.729 59.8548C108.512 59.8548 102.852 54.5266 102.852 46.0327C102.852 37.042 108.79 31.7694 116.172 31.7694C123.889 31.7694 129.106 37.3756 129.106 45.5347C129.106 55.5274 122.168 59.8548 115.783 59.8548H115.729ZM115.897 56.1922C120.556 56.1922 124.055 51.8081 124.055 45.7003C124.055 41.1505 121.779 35.4319 116.006 35.4319C110.288 35.4319 107.793 40.7613 107.793 45.8671C107.793 51.7513 111.121 56.1922 115.84 56.1922H115.897Z" fill="#005B66"/>
<path fill-rule="evenodd" clip-rule="evenodd" d="M125.52 98.8967C117.438 98.8967 111.224 93.587 111.224 84.66C111.224 75.7329 117.101 70.0271 126.026 70.0271C134.447 70.0271 140.095 75.8453 140.095 84.2071C140.095 94.2658 132.919 98.8967 125.575 98.8967H125.52ZM125.69 92.738C129.079 92.738 131.169 89.4056 131.169 84.4329C131.169 80.365 129.585 76.1846 125.69 76.1846C121.62 76.1846 120.039 80.365 120.039 84.4897C120.039 89.1797 122.016 92.738 125.633 92.738H125.69ZM143.146 79.4603C143.146 76.0144 143.035 73.1325 142.922 70.6491H150.379L150.776 74.49H150.945C152.074 72.6808 154.842 70.0259 159.476 70.0259C165.125 70.0259 169.362 73.8113 169.362 81.9461V98.2759H160.774V82.9654C160.774 79.4047 159.532 76.9746 156.426 76.9746C154.052 76.9746 152.638 78.6148 152.018 80.1959C151.79 80.7611 151.736 81.5511 151.736 82.3434V98.277H143.146V79.4603ZM180.605 87.1457C180.888 90.7608 184.391 92.4554 188.403 92.4554C191.339 92.4554 193.713 92.0615 196.029 91.2704L197.159 97.0886C194.335 98.2759 190.888 98.8399 187.159 98.8399C177.779 98.8399 172.414 93.4168 172.414 84.7167C172.414 77.7101 176.821 69.9715 186.368 69.9715C195.295 69.9715 198.687 76.919 198.687 83.7553C198.687 85.2264 198.517 86.5248 198.404 87.2036L180.605 87.1457ZM190.717 81.2685C190.717 79.2345 189.815 75.6761 185.916 75.6761C182.244 75.6761 180.775 79.0109 180.547 81.2685H190.717Z" fill="#005B66"/>
<path fill-rule="evenodd" clip-rule="evenodd" d="M190.734 26.2767C191.087 32.9555 188.778 39.5717 183.739 44.3509C174.235 53.3648 158.714 52.4301 149.073 42.2636C139.433 32.0983 139.32 16.5492 148.828 7.53415C153.251 3.33993 158.98 1.32795 164.812 1.37196C155.754 -0.799859 146.435 1.05227 139.847 7.30017C128.696 17.8709 129.6 36.925 141.865 49.8575C154.131 62.7888 173.108 64.7047 184.256 54.1328C191.624 47.1459 193.695 36.4571 190.734 26.2767Z" fill="#005B66"/>
<path fill-rule="evenodd" clip-rule="evenodd" d="M149.374 18.1964L176.881 0.579682L186.408 5.07391L157.464 23.5894L149.374 18.1964ZM162.963 33.3134L190.471 15.6944L200 20.1898L171.054 38.7076L162.963 33.3134Z" fill="#005B66"/>
</svg>
