<svg width="200" height="99" viewBox="0 0 200 99" fill="none" xmlns="http://www.w3.org/2000/svg">
<path fill-rule="evenodd" clip-rule="evenodd" d="M0 11.9349H4.88458V36.0983H4.99577C5.773 34.7107 6.99385 33.4342 8.4927 32.6558C9.99728 31.7395 11.7268 31.2591 13.4885 31.2682C17.0954 31.2682 22.8684 33.4887 22.8684 42.7574V58.7432H17.9827V43.3146C17.9827 38.9292 16.375 35.3223 11.7672 35.3223C8.60274 35.3223 6.16103 37.5427 5.21701 40.2057C4.93902 40.8717 4.88458 41.5933 4.88458 42.5374V58.7444H0V11.9349ZM31.8604 31.8809L37.689 47.7567C38.3576 49.5619 38.95 51.3944 39.4646 53.2494H39.5758C40.0762 51.6405 40.6322 49.5868 41.2971 47.6432L46.6253 31.8809H51.7879L44.4604 51.0301C40.9635 60.2444 35.3133 75.2329 35.3133 75.2329L29.4893 75.2375C29.4893 75.2375 36.8017 58.2475 36.8017 57.9127C36.8017 57.6347 36.6917 57.2455 36.4148 56.693L26.5345 31.8809H31.8604ZM78.8725 11.9349V51.8073C78.8725 54.1922 78.9293 56.9108 79.0949 58.7432H74.7107L74.4883 54.081H74.3772C72.8783 57.0787 69.6582 59.3548 65.2752 59.3548C58.7806 59.3548 53.7303 53.8598 53.7303 45.7007C53.6747 36.7088 59.2798 31.2694 65.7744 31.2694C69.9374 31.2694 72.7127 33.2118 73.8779 35.3223H73.9891V11.9361L78.8725 11.9349ZM73.988 42.8142C73.988 42.1493 73.9324 41.3709 73.7667 40.7049C73.0451 37.6528 70.381 35.0999 66.7173 35.0999C61.6659 35.0999 58.6694 39.5397 58.6694 45.4239C58.6694 50.9189 61.3891 55.4143 66.6072 55.4143C69.8818 55.4143 72.8795 53.1949 73.7679 49.5868C73.9347 48.9219 73.9891 48.2548 73.9891 47.4787L73.988 42.8142ZM87.0316 40.2624C87.0316 37.0991 86.9772 34.3783 86.8104 31.8809H91.0834L91.3058 37.1536H91.4726C92.6934 33.5454 95.6911 31.2694 98.9657 31.2694C99.4661 31.2694 99.8552 31.325 100.298 31.4362V35.9871C99.7429 35.9315 99.2425 35.8771 98.5765 35.8771C95.1351 35.8771 92.6934 38.4856 92.0286 42.0926C91.9133 42.8644 91.8572 43.6439 91.8606 44.4242V58.7444H86.9772L87.0316 40.2624ZM115.729 59.3548C108.512 59.3548 102.852 54.0266 102.852 45.5327C102.852 36.542 108.79 31.2694 116.172 31.2694C123.889 31.2694 129.106 36.8756 129.106 45.0347C129.106 55.0274 122.168 59.3548 115.783 59.3548H115.729ZM115.897 55.6922C120.556 55.6922 124.055 51.3081 124.055 45.2003C124.055 40.6505 121.779 34.9319 116.006 34.9319C110.288 34.9319 107.793 40.2613 107.793 45.3671C107.793 51.2513 111.121 55.6922 115.84 55.6922H115.897Z" fill="#F3F4F6"/>
<path fill-rule="evenodd" clip-rule="evenodd" d="M125.52 98.3967C117.438 98.3967 111.224 93.087 111.224 84.16C111.224 75.2329 117.101 69.5271 126.026 69.5271C134.447 69.5271 140.095 75.3453 140.095 83.7071C140.095 93.7658 132.919 98.3967 125.575 98.3967H125.52ZM125.69 92.238C129.079 92.238 131.169 88.9056 131.169 83.9329C131.169 79.865 129.585 75.6846 125.69 75.6846C121.62 75.6846 120.039 79.865 120.039 83.9897C120.039 88.6797 122.016 92.238 125.633 92.238H125.69ZM143.146 78.9603C143.146 75.5144 143.035 72.6325 142.922 70.1491H150.379L150.776 73.99H150.945C152.074 72.1808 154.842 69.5259 159.476 69.5259C165.125 69.5259 169.362 73.3113 169.362 81.4461V97.7758H160.774V82.4654C160.774 78.9047 159.532 76.4746 156.426 76.4746C154.052 76.4746 152.638 78.1148 152.018 79.6959C151.79 80.2611 151.736 81.0511 151.736 81.8434V97.777H143.146V78.9603ZM180.605 86.6457C180.888 90.2608 184.391 91.9554 188.403 91.9554C191.339 91.9554 193.713 91.5615 196.029 90.7704L197.159 96.5886C194.335 97.7758 190.888 98.3399 187.159 98.3399C177.779 98.3399 172.414 92.9168 172.414 84.2167C172.414 77.2101 176.821 69.4715 186.368 69.4715C195.295 69.4715 198.687 76.419 198.687 83.2553C198.687 84.7264 198.517 86.0248 198.404 86.7036L180.605 86.6457ZM190.717 80.7685C190.717 78.7345 189.815 75.1761 185.916 75.1761C182.244 75.1761 180.775 78.5109 180.547 80.7685H190.717Z" fill="#F3F4F6"/>
<path fill-rule="evenodd" clip-rule="evenodd" d="M190.734 25.7767C191.087 32.4555 188.778 39.0717 183.739 43.8509C174.235 52.8648 158.714 51.9301 149.073 41.7636C139.433 31.5983 139.32 16.0492 148.828 7.03415C153.251 2.83993 158.98 0.827949 164.812 0.871965C155.754 -1.29986 146.435 0.552272 139.847 6.80017C128.696 17.3709 129.6 36.425 141.865 49.3575C154.131 62.2888 173.108 64.2047 184.256 53.6328C191.624 46.6459 193.695 35.9571 190.734 25.7767Z" fill="#F3F4F6"/>
<path fill-rule="evenodd" clip-rule="evenodd" d="M149.374 17.6964L176.881 0.0796819L186.408 4.57391L157.464 23.0894L149.374 17.6964ZM162.963 32.8134L190.471 15.1944L200 19.6898L171.054 38.2076L162.963 32.8134Z" fill="#F3F4F6"/>
</svg>
