<svg width="995" height="200" viewBox="0 0 995 200" fill="none" xmlns="http://www.w3.org/2000/svg">
<g clip-path="url(#clip0_3_208)">
<path d="M181.052 97.5879C181.192 98.0213 181.233 98.4803 181.173 98.9317C181.173 111.026 181.267 123.12 181.173 135.282C181.052 146.583 176.174 155.278 166.27 160.922C146.597 172.143 126.87 183.256 107.223 194.517C103.41 196.915 99.2009 198.617 94.7927 199.543C88.609 200.701 82.2158 199.508 76.8662 196.197C67.352 190.405 57.6497 184.909 48.0414 179.265C47.6341 179.106 47.2703 178.853 46.9798 178.526C46.5632 178.244 46.5632 177.8 46.5094 177.37C45.4881 169.065 44.3862 160.774 43.3783 152.469C43.2459 152.026 43.2744 151.55 43.459 151.125C44.0234 150.763 44.4534 151.125 44.8028 151.408C51.4681 155.143 58.1424 158.852 64.8256 162.534C71.7194 166.337 78.5863 170.181 85.4801 173.984L90.2506 176.671C90.5157 176.84 90.8234 176.929 91.1375 176.929C91.4517 176.929 91.7594 176.84 92.0245 176.671L118.901 161.701C127.676 156.823 136.37 151.905 145.24 147.054C148.424 145.293 151.596 143.519 154.754 141.678C156.382 140.728 157.57 139.173 158.06 137.351C158.46 136.046 158.655 134.686 158.637 133.32C158.637 127.622 158.718 121.924 158.637 116.227C158.812 115.407 159.524 115.031 160.075 114.574C166.66 109.077 173.285 103.648 179.843 98.1254C180.165 97.8701 180.515 97.5072 181.052 97.5879Z" fill="#111827"/>
<path d="M43.7814 151.125C43.4589 151.219 43.553 151.488 43.5799 151.703C44.7087 160.662 45.842 169.621 46.9797 178.58C46.5497 179.01 46.2541 178.58 45.9584 178.378C34.9391 172.008 23.6377 165.813 12.7259 159.108C9.53929 157.118 6.80801 154.478 4.71018 151.362C2.61236 148.245 1.19512 144.721 0.550911 141.02C-0.336007 136.706 0.107452 132.339 0.147767 127.998C0.26871 112.249 0.470283 96.4993 0.63154 80.7364C0.698731 75.0789 0.63154 69.4215 0.792798 63.764C1.075 52.6372 5.5499 43.9965 15.6554 38.5809C25.1696 33.4878 34.5897 28.2335 44.0502 23.0464C44.4265 22.8448 44.7759 22.6029 45.1521 22.3745C45.5284 22.146 46.0659 21.8773 46.4959 21.5144C46.8851 21.444 47.2863 21.531 47.6113 21.7563C54.8276 25.304 62.0708 28.7845 69.3274 32.265C69.7977 32.4934 70.4024 32.6144 70.5234 33.2863C70.5096 33.381 70.4763 33.4717 70.4253 33.5527C70.3744 33.6337 70.3071 33.7032 70.2277 33.7566L41.6582 50.2049C36.9549 52.8925 32.2515 55.6742 27.5482 58.2678C25.9979 59.0263 24.7057 60.2251 23.8333 61.7142C22.9609 63.2033 22.5469 64.9166 22.6432 66.6398C22.7149 89.0367 22.7149 111.407 22.6432 133.75C22.5613 135.194 22.9112 136.63 23.6483 137.874C24.3854 139.119 25.4764 140.116 26.7822 140.738C32.1574 143.775 37.5327 146.919 42.908 150.01C43.3111 150.252 43.7949 150.413 43.983 150.91C44.0368 151.112 43.9427 151.166 43.7814 151.125Z" fill="#111827"/>
<path d="M70.4159 33.2326C67.1908 31.6469 63.9656 30.0478 60.727 28.4755L47.7995 22.2133C47.3561 22.0117 46.9664 21.622 46.4557 21.7161C46.4277 21.6976 46.4062 21.6708 46.3942 21.6395C46.3821 21.6082 46.3802 21.5739 46.3885 21.5414C46.3885 21.4742 46.3885 21.4473 46.3885 21.4473L71.921 6.81319C74.1786 5.46938 76.4631 4.25995 78.6401 2.91613C82.8696 0.498933 87.7672 -0.48624 92.6023 0.107557C97.7315 0.602694 102.685 2.23714 107.102 4.89154C126.816 16.193 146.476 27.6289 166.311 38.6616C174.279 43.0962 178.512 49.6809 180.367 58.241C181.212 62.9163 181.523 67.6726 181.294 72.4182C181.205 80.8037 181.124 89.1935 181.052 97.5879L158.785 116.079C158.67 116.014 158.584 115.909 158.543 115.783C158.409 115.166 158.368 114.531 158.422 113.902C158.422 98.1881 158.422 82.4789 158.422 66.7742C158.549 64.3478 157.915 61.9424 156.608 59.8939C155.731 58.816 154.612 57.9598 153.343 57.3944L113.794 34.7108L92.4948 22.4821C92.1645 22.2686 91.7795 22.155 91.3862 22.155C90.9928 22.155 90.6079 22.2686 90.2775 22.4821C84.096 25.9357 77.9413 29.4296 71.7329 32.8295C71.3163 33.0579 70.9535 33.4207 70.4159 33.2326Z" fill="#111827"/>
<path d="M468.696 78.3578V80.7364C468.696 91.7691 468.696 102.802 468.696 113.835C468.696 115.178 468.387 115.608 466.962 115.582C462.138 115.474 457.314 115.514 452.489 115.582C451.428 115.582 451.146 115.286 451.146 114.238C451.146 91.796 451.146 69.3543 451.146 46.9126C451.146 45.8778 451.387 45.5687 452.489 45.5687C456.521 45.5687 460.646 45.6628 464.718 45.5687C465.914 45.5687 466.371 46.2138 466.922 46.9126L492.307 80.9514L493.65 82.7656V80.5348C493.65 69.4483 493.65 58.3484 493.65 47.262C493.65 45.8375 493.986 45.5016 495.384 45.5284C500.141 45.6225 504.912 45.6091 509.669 45.5284C510.918 45.5284 511.201 45.8644 511.201 47.0738C511.201 69.3991 511.201 91.7154 511.201 114.023C511.201 115.259 510.878 115.582 509.655 115.555C505.772 115.474 501.888 115.555 498.004 115.555C497.52 115.593 497.035 115.5 496.599 115.285C496.164 115.069 495.795 114.74 495.532 114.332C487.164 103.008 478.765 91.7109 470.335 80.4408C469.905 79.9032 469.475 79.3657 468.696 78.3578Z" fill="#111827"/>
<path d="M288.504 117.073C280.186 116.831 271.867 115.232 264.315 110.704C262.864 109.843 262.367 109.104 263.146 107.384C264.826 103.689 266.277 99.8858 267.715 96.0963C268.158 94.954 268.508 94.9406 269.502 95.5856C275.891 99.8849 283.5 102.002 291.191 101.619C292.883 101.565 294.55 101.201 296.11 100.544C296.973 100.252 297.734 99.7157 298.299 99.0002C298.864 98.2847 299.21 97.4208 299.295 96.5128C299.388 95.5709 299.192 94.6228 298.734 93.7947C298.275 92.9666 297.576 92.2976 296.728 91.8767C294.014 90.4455 291.102 89.4265 288.087 88.8531C284.188 87.9697 280.35 86.834 276.598 85.4532C268.924 82.3759 263.993 77.135 263.563 68.548C263.106 59.437 266.586 52.3282 274.716 47.7995C278.593 45.7249 282.877 44.5232 287.267 44.2787C296.082 43.4141 304.958 45.1471 312.8 49.2643C313.915 49.8556 314.305 50.3394 313.767 51.6697C312.195 55.5399 310.771 59.4773 309.373 63.4281C308.943 64.6375 308.607 64.9197 307.357 64.1941C302.011 60.8591 295.78 59.2195 289.485 59.4907C287.662 59.5632 285.876 60.0212 284.244 60.8346C283.301 61.2769 282.507 61.9835 281.958 62.8686C281.41 63.7536 281.13 64.779 281.153 65.8201C281.168 66.7692 281.464 67.6926 282.005 68.4727C282.546 69.2528 283.306 69.8544 284.19 70.2009C287.429 71.921 291.03 72.5123 294.537 73.4261C297.887 74.2051 301.178 75.2154 304.388 76.4497C311.402 79.3389 316.038 84.1766 316.751 92.0111C317.463 99.8455 314.963 106.793 308.392 111.604C302.627 115.864 295.881 116.912 288.504 117.073Z" fill="#111827"/>
<path d="M320.661 80.3736C320.661 69.3408 320.661 58.3081 320.661 47.2888C320.661 45.945 320.903 45.4881 322.354 45.5284C327.12 45.6359 331.882 45.6359 336.639 45.5284C338.171 45.5284 338.601 45.8241 338.601 47.4366C338.601 64.2209 338.601 81.032 338.507 97.8028C338.507 99.6035 339.045 99.9395 340.697 99.9261C349.419 99.8454 358.167 99.9261 366.835 99.8454C368.434 99.8454 368.797 100.329 368.77 101.848C368.662 105.879 368.689 109.991 368.77 114.063C368.77 115.192 368.528 115.555 367.332 115.555C352.227 115.555 337.123 115.555 322.018 115.555C320.675 115.555 320.675 115.004 320.675 114.009C320.684 102.802 320.679 91.5899 320.661 80.3736Z" fill="#111827"/>
<path d="M258.778 80.5483C258.778 91.6482 258.778 102.735 258.778 113.835C258.778 115.178 258.483 115.608 257.058 115.582C252.167 115.474 247.275 115.501 242.384 115.582C241.161 115.582 240.852 115.272 240.852 114.05C240.852 91.7333 240.852 69.417 240.852 47.1007C240.852 45.8913 241.121 45.5285 242.37 45.5553C247.262 45.5553 252.153 45.636 257.045 45.5553C258.389 45.5553 258.792 45.8644 258.792 47.2888C258.752 58.3619 258.778 69.4484 258.778 80.5483Z" fill="#111827"/>
<path d="M836.861 80.5483C836.861 69.4618 836.861 58.3619 836.861 47.262C836.861 45.8375 837.224 45.515 838.621 45.515C851.916 45.5867 865.206 45.5867 878.492 45.515C879.836 45.515 880.441 45.7703 880.239 47.2217C880.038 48.673 880.911 50.8096 879.876 51.6831C878.842 52.5566 877.014 51.9385 875.522 51.9385C865.43 51.9385 855.365 51.9385 845.246 51.9385C843.902 51.9385 843.566 52.1803 843.58 53.5376C843.643 60.8032 843.643 68.0777 843.58 75.3612C843.58 76.6109 843.929 76.8931 845.139 76.8797C854.922 76.8797 864.691 76.8797 874.474 76.8125C875.952 76.8125 876.369 77.1887 876.342 78.6669C876.248 83.1822 876.342 83.1822 871.76 83.1822C862.917 83.1822 854.075 83.1822 845.233 83.1822C843.889 83.1822 843.566 83.4509 843.58 84.7947C843.643 92.3918 843.643 99.9798 843.58 107.559C843.58 108.903 843.862 109.212 845.193 109.212C856.736 109.212 868.266 109.212 879.809 109.131C881.247 109.131 881.798 109.454 881.637 110.945C881.476 112.437 882.067 114.399 881.314 115.286C880.562 116.173 878.492 115.555 877.001 115.555C864.221 115.555 851.468 115.555 838.635 115.555C837.291 115.555 836.861 115.286 836.861 113.835C836.888 102.748 836.861 91.6482 836.861 80.5483Z" fill="#111827"/>
<path d="M950.145 101.539C953.192 104.515 956.844 106.802 960.853 108.245C964.862 109.687 969.134 110.25 973.379 109.897C976.138 109.802 978.848 109.134 981.334 107.935C983.323 107.042 985.002 105.578 986.155 103.728C987.309 101.878 987.885 99.7264 987.812 97.5475C987.812 92.9785 985.568 89.8609 981.67 87.7914C977.37 85.5069 972.627 84.5394 968.017 83.209C965.176 82.459 962.399 81.4839 959.712 80.2929C952.268 76.8124 948.828 71.3969 949.096 63.549C949.365 55.7011 953.544 49.3448 960.989 46.7513C965.836 44.9791 971.028 44.3541 976.158 44.9253C981.287 45.4966 986.214 47.2485 990.553 50.0436C991.628 50.6887 991.897 51.3068 991.346 52.4222C990.674 53.766 990.123 55.2711 989.532 56.6955C988.188 55.9833 986.965 55.2308 985.662 54.5454C979.45 51.1123 972.154 50.2028 965.289 52.0056C958.167 53.8869 954.445 59.9341 956.03 66.6666C956.44 68.2185 957.193 69.6589 958.232 70.8821C959.272 72.1052 960.572 73.0801 962.037 73.7351C965.95 75.5731 970.05 76.9833 974.266 77.9412C977.592 78.8094 980.848 79.9233 984.009 81.2739C990.929 84.405 994.585 89.6459 994.45 97.3997C994.316 105.153 990.795 110.65 983.807 113.915C973.419 118.78 957.132 116.307 948.962 108.768C947.887 107.774 947.497 106.954 948.317 105.597C949.002 104.279 949.612 102.925 950.145 101.539V101.539Z" fill="#111827"/>
<path d="M245.811 159.618C259.724 159.215 273.61 158.825 287.469 158.449C318.923 157.553 350.377 156.711 381.832 155.923C392.367 155.641 402.889 155.385 413.411 155.049C414.755 155.049 415.131 155.305 415.064 156.648C414.952 158.887 414.952 161.129 415.064 163.368C415.064 164.537 414.782 164.832 413.613 164.792C408.17 164.577 402.714 164.483 397.259 164.335L258.174 160.532L246.886 160.196C246.536 159.954 246.106 160.196 245.743 159.968C245.713 159.911 245.703 159.845 245.715 159.781C245.727 159.717 245.761 159.66 245.811 159.618V159.618Z" fill="#111827"/>
<path d="M986.508 160.25L913.015 162.239C882.241 163.081 851.477 163.95 820.721 164.846C818.759 164.846 818.141 164.443 818.329 162.467C818.477 160.468 818.477 158.46 818.329 156.46C818.262 155.264 818.638 155.009 819.781 155.049C835.261 155.506 850.738 155.927 866.21 156.313L916.589 157.656L987.704 159.618C987.741 159.651 987.768 159.694 987.782 159.741C987.796 159.789 987.797 159.839 987.785 159.887C987.785 159.981 987.785 160.021 987.785 160.021C987.287 160.196 986.857 160.008 986.508 160.25Z" fill="#111827"/>
<path d="M612.148 83.8675C612.148 93.7714 612.148 103.675 612.148 113.579C612.148 115.044 611.947 115.77 610.267 115.568C608.587 115.367 606.625 116.079 605.738 115.286C604.851 114.493 605.416 112.235 605.416 110.623C605.416 91.7019 605.416 72.7721 605.416 53.8332C605.416 52.2475 605.026 51.8981 603.48 51.925C597.218 52.0191 590.943 51.925 584.667 51.925C583.417 51.925 583.041 51.589 583.135 50.3796C583.27 48.8208 582.625 46.7379 583.404 45.8375C584.183 44.9372 586.454 45.5016 588.054 45.5016C602.835 45.5016 617.617 45.5016 632.399 45.5016C633.837 45.5016 634.442 45.7972 634.24 47.3157C634.039 48.8342 634.859 50.729 633.931 51.6562C633.004 52.5835 631.082 51.9116 629.591 51.925C624.216 51.925 618.934 51.9922 613.613 51.925C612.269 51.925 611.987 52.3147 612 53.5913C612.175 63.6834 612.148 73.7754 612.148 83.8675Z" fill="#111827"/>
<path d="M483.612 159.632C483.612 153.611 483.612 147.537 483.612 141.584C483.612 140.482 483.72 139.918 485.077 139.945C486.434 139.972 486.622 140.294 486.609 141.504C486.542 146.516 486.609 151.529 486.609 156.541C486.609 157.656 486.743 158.154 488.087 158.154C495.908 158.073 503.738 158.073 511.577 158.154C512.813 158.154 513.002 157.777 512.988 156.675C512.988 151.596 512.988 146.516 512.988 141.45C512.988 140.348 513.163 139.918 514.399 139.958C515.635 139.999 516.012 140.16 515.998 141.477C515.945 153.643 515.945 165.8 515.998 177.948C515.998 179.131 515.783 179.547 514.493 179.561C513.203 179.574 513.002 179.09 513.002 177.961C513.002 172.761 513.002 167.56 513.002 162.36C513.002 161.123 512.84 160.64 511.429 160.667C503.662 160.738 495.89 160.738 488.114 160.667C486.837 160.667 486.609 161.07 486.622 162.239C486.622 167.493 486.622 172.761 486.622 178.029C486.622 179.05 486.622 179.641 485.279 179.547C484.217 179.466 483.612 179.466 483.626 178.069C483.666 171.914 483.612 165.773 483.612 159.632Z" fill="#111827"/>
<path d="M729.907 159.833C729.907 165.786 729.907 171.74 729.907 177.693C729.907 178.942 729.826 179.561 728.267 179.561C726.493 179.561 726.923 178.526 726.923 177.625C726.923 172.479 726.923 167.345 726.923 162.212C726.923 161.016 726.668 160.64 725.405 160.653C717.638 160.725 709.87 160.725 702.103 160.653C700.679 160.653 700.517 161.15 700.531 162.36C700.531 167.56 700.531 172.774 700.531 177.975C700.531 179.131 700.329 179.561 699.039 179.561C697.749 179.561 697.534 179.09 697.534 177.935C697.534 165.786 697.534 153.629 697.534 141.463C697.534 140.12 698.031 140.012 699.147 139.958C700.262 139.905 700.491 140.388 700.491 141.463C700.491 146.53 700.491 151.609 700.491 156.689C700.491 157.818 700.706 158.167 701.834 158.154C709.669 158.154 717.503 158.086 725.338 158.154C726.682 158.154 726.802 157.63 726.802 156.528C726.802 151.636 726.802 146.758 726.802 141.867C726.802 140.805 726.561 139.891 728.321 139.918C730.081 139.945 729.745 140.98 729.745 141.974C729.862 147.923 729.916 153.876 729.907 159.833Z" fill="#111827"/>
<path d="M676.06 179.897C671.398 179.903 666.862 178.384 663.146 175.569C662.528 175.072 661.802 174.669 662.514 173.594C663.227 172.519 663.415 172.479 664.409 173.231C666.884 175.169 669.792 176.478 672.883 177.047C675.975 177.615 679.158 177.427 682.161 176.497C683.371 176.169 684.492 175.571 685.44 174.75C686.244 174.093 686.881 173.256 687.299 172.306C687.718 171.356 687.906 170.321 687.849 169.285C687.791 168.248 687.489 167.24 686.968 166.343C686.446 165.445 685.72 164.684 684.849 164.12C682.242 162.387 679.191 161.849 676.235 161.083C673.549 160.497 670.928 159.641 668.414 158.53C666.799 157.867 665.423 156.733 664.464 155.275C663.505 153.817 663.008 152.104 663.038 150.359C662.911 148.555 663.332 146.755 664.245 145.194C665.159 143.633 666.523 142.384 668.158 141.611C674.877 138.373 681.597 139.085 688.141 142.552C689.485 143.251 688.625 143.896 688.342 144.702C687.886 145.925 687.254 145.038 686.77 144.702C682.54 142.29 677.568 141.524 672.808 142.552C671.7 142.771 670.637 143.175 669.663 143.748C668.494 144.371 667.525 145.313 666.869 146.464C666.212 147.615 665.895 148.928 665.954 150.252C665.973 151.484 666.348 152.685 667.035 153.708C667.722 154.731 668.691 155.533 669.825 156.017C672.956 157.656 676.45 158.194 679.823 159.108C681.891 159.599 683.894 160.335 685.789 161.298C687.194 162.034 688.386 163.12 689.248 164.451C690.11 165.782 690.613 167.314 690.709 168.897C690.805 170.48 690.49 172.061 689.796 173.487C689.101 174.912 688.049 176.134 686.743 177.034C683.72 179.319 680.145 179.829 676.06 179.897Z" fill="#111827"/>
<path d="M462.272 179.897C457.558 179.951 452.959 178.438 449.197 175.596C448.727 175.234 447.853 174.911 448.324 173.997C448.794 173.083 449.049 172.17 450.514 173.298C455.768 177.33 461.735 178.19 468.105 176.51C469.253 176.203 470.324 175.658 471.249 174.911C472.098 174.262 472.777 173.417 473.228 172.448C473.678 171.479 473.888 170.416 473.837 169.348C473.787 168.281 473.479 167.242 472.939 166.319C472.4 165.397 471.644 164.619 470.738 164.053C468.172 162.387 465.189 161.849 462.299 161.097C459.525 160.515 456.822 159.636 454.236 158.476C452.698 157.813 451.386 156.717 450.46 155.321C449.534 153.925 449.035 152.29 449.022 150.615C448.907 148.883 449.272 147.153 450.078 145.616C450.885 144.079 452.101 142.796 453.591 141.907C458.899 138.561 469.166 138.964 474.246 142.592C475.455 143.466 474.515 144.097 474.246 144.796C473.802 145.938 473.211 145.011 472.808 144.796C468.585 142.364 463.609 141.588 458.846 142.619C457.673 142.84 456.549 143.268 455.527 143.882C454.394 144.508 453.458 145.437 452.822 146.564C452.186 147.691 451.875 148.972 451.925 150.265C451.931 151.495 452.293 152.697 452.968 153.725C453.643 154.753 454.602 155.563 455.728 156.057C458.873 157.71 462.367 158.248 465.726 159.161C467.862 159.662 469.928 160.42 471.881 161.419C473.247 162.16 474.404 163.234 475.244 164.542C476.083 165.851 476.578 167.35 476.681 168.901C476.784 170.452 476.493 172.004 475.835 173.412C475.176 174.82 474.172 176.038 472.915 176.954C469.838 179.278 466.21 179.802 462.272 179.897Z" fill="#111827"/>
<path d="M743.882 159.833C743.882 165.854 743.882 171.928 743.882 177.881C743.882 178.929 743.882 179.628 742.458 179.547C741.289 179.48 740.885 179.278 740.885 178.002C740.939 165.827 740.939 153.661 740.885 141.504C740.885 140.267 741.235 139.985 742.444 139.931C743.654 139.878 743.896 140.509 743.882 141.584C743.869 147.658 743.882 153.746 743.882 159.833Z" fill="#111827"/>
<path d="M46.3751 21.5011V21.7699C46.0319 22.1069 45.5974 22.3358 45.1254 22.4283C45.3135 21.7295 45.9451 21.7161 46.3751 21.5011Z" fill="#D9641F"/>
<path d="M990.258 159.618C989.445 159.929 988.567 160.031 987.704 159.914C987.698 159.807 987.698 159.699 987.704 159.591L990.258 159.618Z" fill="#111827"/>
<path d="M584.291 77.7128C583.821 69.9724 581.536 62.8368 576.349 56.8837C569.522 49.0627 560.573 45.8509 550.481 45.6359C540.644 45.4344 530.807 45.6359 520.917 45.5419C519.452 45.5419 519.197 45.945 519.21 47.3023C519.21 58.335 519.21 69.3543 519.21 80.387C519.21 91.4197 519.21 102.694 519.21 113.848C519.21 115.286 519.586 115.649 520.97 115.555C522.959 115.434 525.002 115.555 526.977 115.555C536.182 115.38 545.428 116.159 554.593 115.151C565.84 113.915 574.75 108.701 580.219 98.4747C583.517 92.08 584.929 84.8795 584.291 77.7128V77.7128ZM565.128 88.3155C564.168 91.4912 562.246 94.2906 559.627 96.3271C557.008 98.3635 553.822 99.5366 550.507 99.6842C546.476 99.8992 542.364 99.6842 538.292 99.8051C536.948 99.8051 537.163 99.0257 537.163 98.2329V80.3601C537.163 74.5414 537.163 68.7092 537.163 62.8905C537.163 61.708 537.405 61.2645 538.695 61.3048C542.337 61.4123 545.965 61.3048 549.607 61.3855C553.208 61.3522 556.716 62.5249 559.572 64.7167C562.429 66.9085 564.47 69.9934 565.37 73.4798C566.802 78.3342 566.718 83.5103 565.128 88.3155V88.3155Z" fill="#111827"/>
<path d="M446.684 114.56C437.645 91.9393 428.61 69.314 419.579 46.6841C419.475 46.3039 419.233 45.9763 418.9 45.7651C418.567 45.5539 418.167 45.4743 417.779 45.5419C412.901 45.5419 407.996 45.6225 403.118 45.5419C402.607 45.468 402.088 45.5886 401.662 45.8798C401.236 46.1711 400.936 46.6116 400.82 47.1141C391.951 69.5111 383.063 91.8632 374.158 114.171C373.997 114.56 373.527 114.977 373.93 115.514C379.493 115.514 385.084 115.514 390.66 115.514C391.695 115.514 392.004 115.084 392.34 114.171C393.684 110.529 395.028 106.9 396.291 103.245C396.614 102.345 396.95 101.901 398.092 101.901C406.155 101.964 414.182 101.964 422.173 101.901C422.594 101.843 423.022 101.95 423.365 102.201C423.709 102.452 423.941 102.826 424.014 103.245C425.358 106.9 426.702 110.529 427.965 114.171C428.207 114.842 428.328 115.514 429.416 115.514C435.235 115.514 441.054 115.514 447.007 115.514C446.872 115.125 446.792 114.842 446.684 114.56ZM416.583 87.4286C412.202 87.3211 407.821 87.4286 403.454 87.4286C402.607 87.4286 401.962 87.5092 402.419 86.2595C404.959 79.3791 407.445 72.4854 409.944 65.5782C410.683 65.8335 410.63 66.5188 410.804 67.0026C413.102 73.2513 415.346 79.5404 417.644 85.816C418.128 86.9314 418.222 87.4555 416.583 87.4286Z" fill="#111827"/>
<path d="M826.325 77.2694C825.264 58.7113 811.758 45.7569 793.16 45.5822C785.003 45.5016 776.86 45.5822 768.703 45.515C767.251 45.515 766.848 45.851 766.848 47.356C766.929 58.3888 766.848 69.4215 766.848 80.4542C766.848 91.4869 766.848 102.775 766.848 113.929C766.848 115.017 766.929 115.582 768.299 115.582C776.954 115.501 785.621 115.823 794.248 115.461C807.687 114.896 817.752 108.742 823.369 96.1903C825.876 90.2169 826.891 83.7228 826.325 77.2694V77.2694ZM811.409 102.036C806.523 106.647 800.039 109.181 793.321 109.104C787.247 109.239 781.16 109.104 775.086 109.104C773.809 109.104 773.567 108.728 773.581 107.546C773.581 98.5151 773.581 89.4981 773.581 80.4676C773.581 71.4372 773.581 62.5546 773.581 53.5913C773.581 52.2475 773.917 51.8309 775.314 51.8578C780.891 51.9519 786.468 51.8578 792.045 51.8578C807.955 51.8578 818.921 62.1918 819.808 78.116C820.292 87.2674 818.182 95.5318 811.409 102.036Z" fill="#111827"/>
<path d="M689.821 113.714L676.315 92.7232C675.899 92.0782 675.415 91.6079 676.611 91.1107C685.346 87.5227 689.377 80.6289 689.928 71.5044C690.385 64.0328 688.759 57.139 682.994 51.8444C678.022 47.2754 671.894 45.7032 665.35 45.5956C657.703 45.4747 650.057 45.5956 642.411 45.515C640.892 45.515 640.449 45.8241 640.449 47.4367C640.516 68.4271 640.449 89.4175 640.449 110.408C640.449 112.074 639.71 114.359 640.785 115.246C641.86 116.132 644.01 115.407 645.676 115.568C647.02 115.689 647.181 115.125 647.168 113.982C647.168 107.72 647.168 101.458 647.101 95.169C647.101 93.5295 647.571 93.2876 649.063 93.2742C655.513 93.2742 661.977 93.6102 668.414 93.0592C669.381 92.9786 669.569 93.6639 669.919 94.2014C673.345 99.5095 676.732 104.831 680.186 110.126C681.368 111.94 682.053 114.56 683.935 115.313C685.816 116.065 688.369 115.461 690.882 115.447L689.821 113.714ZM666.976 86.8373C660.727 87.1598 654.451 86.918 648.162 87.012C646.819 87.012 647.168 86.2192 647.168 85.5338C647.168 80.1586 647.168 74.7833 647.168 69.408C647.168 64.1403 647.168 58.886 647.168 53.6182C647.168 52.3954 647.329 51.8847 648.74 51.925C655.191 52.1535 661.654 51.5353 668.078 52.261C680.293 53.6048 684.405 62.6083 683.075 72.566C681.906 81.3008 676.168 86.4073 666.989 86.8642L666.976 86.8373Z" fill="#111827"/>
<path d="M941.866 113.714L928.374 92.7232C927.958 92.0782 927.461 91.5944 928.657 91.1107C937.405 87.5227 941.409 80.602 941.974 71.5178C942.444 64.0328 940.805 57.1524 935.04 51.8578C930.081 47.2888 923.94 45.7166 917.396 45.6091C909.749 45.4881 902.103 45.6091 894.47 45.5284C892.938 45.5284 892.495 45.8375 892.495 47.4501C892.562 68.5077 892.495 89.5518 892.495 110.609C892.495 112.222 891.782 114.345 892.831 115.272C893.879 116.2 895.814 115.393 897.359 115.582C898.905 115.77 899.254 115.111 899.227 113.62C899.146 107.478 899.227 101.337 899.227 95.1958C899.227 93.852 899.402 93.3145 900.988 93.3145C907.492 93.3145 914.009 93.6505 920.527 93.0995C921.481 93.0189 921.669 93.7042 922.018 94.2417C925.445 99.5498 928.845 104.871 932.285 110.166C933.468 111.98 934.153 114.601 936.048 115.353C937.942 116.106 940.469 115.501 942.982 115.487C942.525 114.748 942.202 114.224 941.866 113.714ZM918.901 86.8373C912.719 87.1195 906.511 86.9179 900.302 86.9986C899.079 86.9986 899.241 86.3267 899.241 85.5741C899.241 80.1989 899.241 74.8236 899.241 69.4483C899.241 64.0731 899.241 58.6978 899.241 53.3226C899.241 52.691 898.985 51.9788 900.154 51.9788C906.873 52.1669 913.593 51.5353 920.244 52.3147C932.204 53.6585 936.37 62.3933 935.147 72.351C934.072 81.247 928.213 86.4611 918.901 86.8776V86.8373Z" fill="#111827"/>
<path d="M760.116 113.875C751.327 92.6068 742.529 71.3028 733.723 49.963C731.895 45.5688 731.895 45.6494 727.179 45.515C725.62 45.515 725.069 46.0525 724.491 47.3829C717.208 65.1929 709.897 82.994 702.56 100.786C700.544 105.678 698.528 110.583 696.486 115.568C698.502 115.568 700.316 115.487 702.13 115.568C703.232 115.568 703.635 115.192 703.998 114.224C706.121 108.849 708.325 103.474 710.435 98.0985C710.552 97.6607 710.826 97.2815 711.206 97.0336C711.585 96.7856 712.043 96.6863 712.491 96.7547C723.241 96.7547 734.019 96.7547 744.823 96.7547C745.25 96.6981 745.683 96.8052 746.034 97.0545C746.386 97.3037 746.63 97.6767 746.718 98.0985C748.25 102.063 749.849 106 751.448 109.924C752.227 111.832 752.577 114.48 754.015 115.299C755.452 116.119 758.14 115.541 760.263 115.555C760.419 115.533 760.572 115.497 760.72 115.447C760.519 114.896 760.331 114.386 760.116 113.875ZM713.485 90.6672L728.603 53.2957L743.708 90.6672H713.485Z" fill="#111827"/>
<path d="M648.498 176.483C647.262 175.435 646.267 174.118 645.112 172.976C644.961 172.87 644.833 172.734 644.737 172.576C644.641 172.419 644.579 172.243 644.553 172.06C644.528 171.877 644.541 171.691 644.591 171.514C644.641 171.336 644.726 171.17 644.843 171.027C646 168.811 646.876 166.459 647.45 164.026C647.786 162.803 647.047 162.763 646.267 162.413C645.085 161.903 645.166 162.83 645.045 163.394C644.52 165.745 643.66 168.008 642.491 170.114C638.769 166.19 635.127 162.306 631.445 158.476C630.76 157.75 631.123 157.522 631.754 157.132C634.26 155.811 636.487 154.018 638.312 151.851C639.074 150.929 639.6 149.835 639.845 148.664C640.089 147.494 640.045 146.281 639.715 145.131C639.386 143.981 638.781 142.928 637.954 142.065C637.126 141.201 636.101 140.552 634.966 140.173C632.089 139.182 628.942 139.322 626.164 140.563C624.827 141.105 623.682 142.034 622.878 143.231C622.073 144.429 621.645 145.839 621.649 147.282C621.461 150.991 623.476 153.692 625.815 156.192C626.607 157.038 626.742 157.414 625.6 158.06C623.35 159.312 621.305 160.903 619.539 162.776C614.446 168.326 616.139 176.107 623.221 178.593C630.034 180.972 636.444 180.058 641.887 174.965C642.706 174.199 643.056 174.279 643.728 175.045C645.246 176.779 646.859 178.432 648.377 180.044C650.299 178.875 650.03 177.773 648.498 176.483ZM624.31 148.586C624.31 145.132 625.653 143.116 628.233 142.256C629.789 141.737 631.456 141.648 633.058 142.001C633.964 142.168 634.813 142.565 635.521 143.155C636.23 143.744 636.775 144.506 637.104 145.367C637.434 146.228 637.536 147.159 637.402 148.071C637.267 148.983 636.9 149.845 636.337 150.574C634.643 152.913 632.104 154.243 629.712 155.721C629.429 155.896 629.093 156.003 628.852 155.721C626.702 153.437 624.377 151.26 624.269 148.586H624.31ZM640.261 173.272C638.869 174.667 637.207 175.764 635.378 176.497C633.548 177.229 631.588 177.581 629.618 177.531C627.481 177.533 625.373 177.05 623.449 176.12C622.476 175.642 621.622 174.953 620.948 174.104C620.275 173.254 619.799 172.265 619.556 171.208C619.313 170.151 619.308 169.054 619.542 167.995C619.776 166.936 620.243 165.943 620.91 165.088C622.856 162.794 625.218 160.889 627.871 159.471C628.462 159.094 628.744 159.363 629.12 159.753C632.856 163.704 636.592 167.668 640.368 171.578C641 172.291 640.758 172.694 640.22 173.272H640.261Z" fill="#111827"/>
<path d="M543.748 139.609C531.976 139.609 523.174 148.169 523.12 159.659C523.067 171.148 531.909 179.816 543.761 179.816C555.614 179.816 564.308 171.296 564.376 159.78C564.443 148.263 555.614 139.609 543.748 139.609ZM543.681 177.236C541.357 177.298 539.045 176.888 536.884 176.03C534.724 175.172 532.761 173.883 531.113 172.244C529.466 170.604 528.169 168.646 527.3 166.49C526.432 164.333 526.012 162.023 526.063 159.699C526.063 149.634 533.683 142.229 543.909 142.229C546.208 142.244 548.481 142.712 550.599 143.605C552.716 144.499 554.638 145.801 556.252 147.437C557.867 149.073 559.144 151.011 560.009 153.14C560.875 155.269 561.313 157.548 561.298 159.847C561.283 162.145 560.816 164.418 559.922 166.536C559.029 168.654 557.727 170.575 556.091 172.19C554.455 173.805 552.517 175.081 550.388 175.947C548.258 176.813 545.979 177.251 543.681 177.236V177.236Z" fill="#111827"/>
<path d="M589.854 140.375C584.009 139.501 578.096 140.173 572.223 139.972C570.88 139.972 571.283 140.859 571.283 141.517C571.283 147.591 571.283 153.612 571.283 159.739C571.283 165.867 571.283 171.834 571.283 177.975C571.283 179.198 571.605 179.507 572.828 179.547C574.051 179.587 574.293 178.996 574.279 177.908C574.279 174.723 574.279 171.525 574.279 168.326C574.279 166.982 574.535 166.673 575.879 166.66C580.569 166.66 585.285 167.117 589.948 166.297C594.934 165.437 598.912 163.112 600.699 158.046C603.454 149.58 598.71 141.719 589.854 140.375ZM597.702 157.441C595.942 162.185 591.924 163.663 587.422 163.959C583.391 164.228 579.278 163.959 575.207 164.093C574.091 164.093 574.212 163.502 574.212 162.749C574.212 159.551 574.212 156.366 574.212 153.168C574.212 149.97 574.212 146.892 574.212 143.761C574.212 143.13 574.091 142.512 575.113 142.565C579.856 142.753 584.64 142.149 589.371 142.942C596.654 144.191 600.255 150.507 597.702 157.441Z" fill="#111827"/>
<path d="M774.656 140.617C771 139.69 767.305 140.093 764.107 139.985C760.908 139.878 758.61 139.985 756.044 139.985C755.063 139.985 754.7 140.227 754.767 141.235C754.767 153.58 754.767 165.921 754.767 178.257C754.767 179.682 755.506 179.48 756.393 179.601C757.28 179.722 757.804 179.413 757.737 178.257C757.656 175.247 757.737 172.237 757.737 169.24C757.737 166.741 757.737 166.781 760.129 166.727C764.577 166.633 769.025 167.077 773.446 166.351C780.165 165.249 784.519 160.667 784.801 154.337C785.178 147.134 781.63 142.444 774.656 140.617ZM781.375 157.213C779.655 162.145 775.529 163.677 770.866 163.932C766.835 164.187 762.803 163.932 758.839 164.053C757.804 164.053 757.764 163.596 757.777 162.817C757.777 159.618 757.777 156.42 757.777 153.222C757.777 150.024 757.777 146.96 757.777 143.815C757.777 143.251 757.508 142.471 758.597 142.565C763.354 142.754 768.138 142.149 772.868 142.928C780.071 144.151 783.767 150.319 781.388 157.226L781.375 157.213Z" fill="#111827"/>
<path d="M88.9069 149.163L86.0042 148.72C80.8037 146.113 75.8853 143.009 70.7922 140.214L70.2547 139.958C69.1724 139.752 68.1545 139.291 67.2849 138.615C62.7965 136.048 58.2813 133.535 53.8467 130.941C53.1067 130.579 52.434 130.093 51.8579 129.503C49.1964 127.632 47.2416 124.92 46.3079 121.803C46.071 120.809 45.9537 119.789 45.9585 118.766C45.9585 106.672 45.9585 94.5777 45.9585 82.5775C45.7709 80.16 46.3696 77.7467 47.6652 75.6971C47.838 75.4859 48.0219 75.2841 48.2161 75.0924C48.7134 75.4687 48.5521 76.0196 48.6058 76.5168C48.654 77.6529 48.9776 78.7603 49.5488 79.7435C50.12 80.7267 50.9217 81.5563 51.8848 82.1609C59.5983 86.6627 67.1908 91.3794 75.1193 95.5587C78.3637 97.3331 81.9735 98.3356 85.6683 98.4882C87.3389 98.5162 88.9966 98.1911 90.5329 97.5341C97.8298 94.6987 105.127 91.8229 112.437 89.0143C112.934 88.8262 113.66 88.329 113.942 88.8531C114.224 89.3772 113.405 89.7534 112.961 90.0625C107.586 93.8789 102.13 97.7894 96.5666 101.418C94.483 102.731 92.7823 104.57 91.6357 106.75C90.4892 108.93 89.9373 111.374 90.0357 113.835C89.955 125.002 90.0357 136.169 90.0357 147.322C90.0357 147.941 90.1969 148.666 89.6863 149.137L88.9069 149.163Z" fill="#6B7280"/>
<path fill-rule="evenodd" clip-rule="evenodd" d="M89.5922 113.687V149.163C92.4457 149.703 95.3975 149.288 97.991 147.981C98.2286 147.849 98.4823 147.775 98.738 147.701C99.0029 147.624 99.2699 147.547 99.523 147.403C109.378 141.661 119.232 135.976 129.087 130.35C130.721 129.438 132.131 128.172 133.212 126.644C134.294 125.116 135.019 123.366 135.336 121.521C135.527 120.877 135.6 120.203 135.551 119.532V94.6449V82.9C135.621 80.9276 135.413 78.9552 134.932 77.0409C134.841 76.797 134.752 76.5523 134.662 76.3077C134.358 75.4746 134.054 74.6426 133.669 73.8427C132.339 71.0475 129.866 69.7037 127.34 68.3599C123.636 66.3688 119.962 64.3245 116.289 62.2805C113.567 60.7654 110.844 59.2503 108.11 57.7572C106.837 57.0485 105.564 56.3318 104.291 55.6151C101.532 54.0622 98.774 52.5092 96.0156 51.0381C94.3833 50.2784 92.602 49.8928 90.8016 49.9093H89.6191C89.2199 49.8943 88.8231 49.9774 88.4634 50.1512C87.9688 50.3305 87.4571 50.4444 86.9453 50.5583C86.3448 50.6919 85.7442 50.8256 85.171 51.065C82.6731 52.2445 80.2577 53.5914 77.9413 55.0964C76.296 56.0332 74.6802 57.0128 73.0688 57.9899C71.0739 59.1994 69.0857 60.4049 67.0564 61.5199C66.9187 61.4955 66.7772 61.5022 66.6424 61.5394C66.5076 61.5766 66.3827 61.6434 66.277 61.7349C64.6757 62.7069 63.0612 63.656 61.4468 64.6051C58.4414 66.3719 55.4362 68.1386 52.5163 70.0531C50.9509 70.9808 49.6792 72.3316 48.8477 73.9502L48.2699 75.0521C48.1482 76.6549 48.4981 78.2584 49.2765 79.6648C50.0549 81.0712 51.2279 82.2192 52.6507 82.9672C56.0827 84.9185 59.4657 86.9244 62.8586 88.9362C64.793 90.0832 66.7306 91.2321 68.6824 92.3739C72.1949 94.6652 75.9832 96.5029 79.957 97.8432C83.3166 98.7973 86.6492 99.4423 90.0356 98.0985L108.849 90.7344L113.835 88.7993C113.782 89.0233 113.648 89.2197 113.458 89.3503C107.492 93.4713 101.525 97.6103 95.5587 101.767C94.7949 102.257 94.0874 102.829 93.4489 103.474C90.919 106.268 89.541 109.917 89.5922 113.687ZM88.8665 73.762L67.1101 86.582C67.6247 86.8294 68.1189 87.1169 68.5883 87.442C68.8298 87.6431 69.1341 87.7533 69.4483 87.7533C69.7626 87.7533 70.0669 87.6431 70.3084 87.442L86.9314 77.6321L103.675 67.8223C105.384 66.8197 107.087 65.8057 108.785 64.7951C109.704 64.2481 110.621 63.702 111.537 63.1593C111.284 62.8375 110.966 62.5732 110.604 62.3841C110.241 62.1949 109.843 62.0853 109.435 62.0624C109.026 62.0395 108.618 62.1039 108.237 62.2513C107.855 62.3988 107.51 62.6258 107.223 62.9174C106.579 63.3724 105.9 63.7767 105.194 64.1268C99.7559 67.352 94.3134 70.5637 88.8665 73.762Z" fill="#111827"/>
<path d="M89.619 50.0974C89.7772 49.9431 89.9893 49.8567 90.2103 49.8567C90.4312 49.8567 90.6434 49.9431 90.8016 50.0974H89.619Z" fill="#EF7500"/>
</g>
<defs>
<clipPath id="clip0_3_208">
<rect width="994.423" height="200" fill="white"/>
</clipPath>
</defs>
</svg>
