<svg width="995" height="200" viewBox="0 0 995 200" fill="none" xmlns="http://www.w3.org/2000/svg">
<g clip-path="url(#clip0_2_588)">
<path d="M181.052 97.5879C181.192 98.0213 181.233 98.4803 181.173 98.9317C181.173 111.026 181.267 123.12 181.173 135.282C181.052 146.583 176.174 155.278 166.27 160.922C146.597 172.143 126.87 183.256 107.223 194.517C103.41 196.915 99.2009 198.617 94.7927 199.543C88.609 200.701 82.2158 199.508 76.8662 196.197C67.352 190.405 57.6497 184.909 48.0414 179.265C47.6341 179.106 47.2703 178.853 46.9798 178.526C46.5632 178.244 46.5632 177.8 46.5094 177.37C45.4881 169.065 44.3862 160.774 43.3783 152.469C43.2459 152.026 43.2744 151.55 43.459 151.125C44.0234 150.763 44.4534 151.125 44.8028 151.408C51.4681 155.143 58.1424 158.852 64.8256 162.534C71.7194 166.337 78.5863 170.181 85.4801 173.984L90.2506 176.671C90.5157 176.84 90.8234 176.929 91.1375 176.929C91.4517 176.929 91.7594 176.84 92.0245 176.671L118.901 161.701C127.676 156.823 136.37 151.905 145.24 147.054C148.424 145.293 151.596 143.519 154.754 141.678C156.382 140.728 157.57 139.173 158.06 137.351C158.46 136.046 158.655 134.686 158.637 133.32C158.637 127.622 158.718 121.924 158.637 116.227C158.812 115.407 159.524 115.031 160.075 114.574C166.66 109.077 173.285 103.648 179.843 98.1254C180.165 97.8701 180.515 97.5072 181.052 97.5879Z" fill="#00AD1D"/>
<path d="M43.7815 151.125C43.459 151.219 43.5531 151.488 43.5799 151.703C44.7087 160.662 45.842 169.621 46.9798 178.58C46.5498 179.01 46.2541 178.58 45.9585 178.378C34.9392 172.008 23.6377 165.813 12.7259 159.108C9.53935 157.118 6.80807 154.478 4.71024 151.362C2.61242 148.245 1.19518 144.721 0.550972 141.02C-0.335946 136.706 0.107513 132.339 0.147828 127.998C0.268771 112.249 0.470344 96.4993 0.631601 80.7364C0.698792 75.0789 0.631601 69.4215 0.792859 63.764C1.07506 52.6372 5.54996 43.9965 15.6555 38.5809C25.1697 33.4878 34.5898 28.2335 44.0503 23.0464C44.4265 22.8448 44.7759 22.6029 45.1522 22.3745C45.5285 22.146 46.066 21.8773 46.496 21.5144C46.8852 21.444 47.2864 21.531 47.6114 21.7563C54.8277 25.304 62.0708 28.7845 69.3274 32.265C69.7978 32.4934 70.4025 32.6144 70.5234 33.2863C70.5097 33.381 70.4763 33.4717 70.4254 33.5527C70.3745 33.6337 70.3072 33.7032 70.2278 33.7566L41.6583 50.2049C36.9549 52.8925 32.2516 55.6742 27.5482 58.2678C25.998 59.0263 24.7058 60.2251 23.8334 61.7142C22.9609 63.2033 22.547 64.9166 22.6433 66.6398C22.715 89.0367 22.715 111.407 22.6433 133.75C22.5614 135.194 22.9113 136.63 23.6484 137.874C24.3855 139.119 25.4765 140.116 26.7822 140.738C32.1575 143.775 37.5328 146.919 42.908 150.01C43.3112 150.252 43.7949 150.413 43.9831 150.91C44.0368 151.112 43.9428 151.166 43.7815 151.125Z" fill="#0065DA"/>
<path d="M70.4159 33.2326C67.1908 31.6469 63.9656 30.0478 60.727 28.4755L47.7995 22.2133C47.3561 22.0117 46.9664 21.622 46.4557 21.7161C46.4277 21.6976 46.4062 21.6708 46.3942 21.6395C46.3821 21.6082 46.3802 21.5739 46.3885 21.5414C46.3885 21.4742 46.3885 21.4473 46.3885 21.4473L71.921 6.81319C74.1786 5.46938 76.4631 4.25995 78.6401 2.91613C82.8696 0.498933 87.7672 -0.48624 92.6023 0.107557C97.7315 0.602694 102.685 2.23714 107.102 4.89154C126.816 16.193 146.476 27.6289 166.311 38.6616C174.279 43.0962 178.512 49.6809 180.367 58.241C181.212 62.9163 181.523 67.6726 181.294 72.4182C181.205 80.8037 181.124 89.1935 181.052 97.5879L158.785 116.079C158.67 116.014 158.584 115.909 158.543 115.783C158.409 115.166 158.368 114.531 158.422 113.902C158.422 98.1881 158.422 82.4789 158.422 66.7742C158.549 64.3478 157.915 61.9424 156.608 59.8939C155.731 58.816 154.612 57.9598 153.343 57.3944L113.794 34.7108L92.4948 22.4821C92.1645 22.2686 91.7795 22.155 91.3862 22.155C90.9928 22.155 90.6079 22.2686 90.2775 22.4821C84.096 25.9357 77.9413 29.4296 71.7329 32.8295C71.3163 33.0579 70.9535 33.4207 70.4159 33.2326Z" fill="#FE5400"/>
<path d="M468.696 78.3578V80.7364C468.696 91.7691 468.696 102.802 468.696 113.835C468.696 115.178 468.387 115.608 466.962 115.582C462.138 115.474 457.314 115.514 452.489 115.582C451.428 115.582 451.146 115.286 451.146 114.238C451.146 91.796 451.146 69.3543 451.146 46.9126C451.146 45.8778 451.388 45.5687 452.489 45.5687C456.521 45.5687 460.646 45.6628 464.718 45.5687C465.914 45.5687 466.371 46.2138 466.922 46.9126L492.307 80.9514L493.651 82.7656V80.5348C493.651 69.4483 493.651 58.3484 493.651 47.262C493.651 45.8375 493.986 45.5016 495.384 45.5284C500.141 45.6225 504.912 45.6091 509.669 45.5284C510.919 45.5284 511.201 45.8644 511.201 47.0738C511.201 69.3991 511.201 91.7154 511.201 114.023C511.201 115.259 510.878 115.582 509.655 115.555C505.772 115.474 501.888 115.555 498.004 115.555C497.52 115.593 497.035 115.5 496.599 115.285C496.164 115.069 495.795 114.74 495.532 114.332C487.164 103.008 478.766 91.7109 470.335 80.4408C469.905 79.9032 469.475 79.3657 468.696 78.3578Z" fill="#F3F4F6"/>
<path d="M288.504 117.073C280.185 116.831 271.867 115.232 264.315 110.704C262.864 109.843 262.366 109.104 263.146 107.384C264.826 103.689 266.277 99.8858 267.715 96.0963C268.158 94.954 268.508 94.9406 269.502 95.5856C275.891 99.8849 283.5 102.002 291.191 101.619C292.883 101.565 294.55 101.201 296.11 100.544C296.973 100.252 297.734 99.7157 298.299 99.0002C298.864 98.2847 299.21 97.4208 299.294 96.5128C299.388 95.5709 299.192 94.6228 298.734 93.7947C298.275 92.9666 297.576 92.2976 296.728 91.8767C294.014 90.4455 291.101 89.4265 288.087 88.8531C284.188 87.9697 280.35 86.834 276.597 85.4532C268.924 82.3759 263.992 77.135 263.562 68.548C263.106 59.437 266.586 52.3282 274.716 47.7995C278.593 45.7249 282.877 44.5232 287.267 44.2787C296.082 43.4141 304.958 45.1471 312.8 49.2643C313.915 49.8556 314.305 50.3394 313.767 51.6697C312.195 55.5399 310.771 59.4773 309.373 63.4281C308.943 64.6375 308.607 64.9197 307.357 64.1941C302.011 60.8591 295.78 59.2195 289.485 59.4907C287.662 59.5632 285.876 60.0212 284.244 60.8346C283.301 61.2769 282.507 61.9835 281.958 62.8686C281.41 63.7536 281.13 64.779 281.153 65.8201C281.167 66.7692 281.464 67.6926 282.005 68.4727C282.546 69.2528 283.306 69.8544 284.19 70.2009C287.429 71.921 291.03 72.5123 294.537 73.4261C297.887 74.2051 301.178 75.2154 304.388 76.4497C311.402 79.3389 316.038 84.1766 316.751 92.0111C317.463 99.8455 314.963 106.793 308.392 111.604C302.627 115.864 295.881 116.912 288.504 117.073Z" fill="#F3F4F6"/>
<path d="M320.661 80.3736C320.661 69.3408 320.661 58.3081 320.661 47.2888C320.661 45.945 320.903 45.4881 322.354 45.5284C327.12 45.6359 331.882 45.6359 336.639 45.5284C338.171 45.5284 338.601 45.8241 338.601 47.4366C338.601 64.2209 338.601 81.032 338.507 97.8028C338.507 99.6035 339.045 99.9395 340.697 99.9261C349.419 99.8454 358.167 99.9261 366.835 99.8454C368.434 99.8454 368.797 100.329 368.77 101.848C368.662 105.879 368.689 109.991 368.77 114.063C368.77 115.192 368.528 115.555 367.332 115.555C352.227 115.555 337.123 115.555 322.018 115.555C320.675 115.555 320.675 115.004 320.675 114.009C320.684 102.802 320.679 91.5899 320.661 80.3736Z" fill="#F3F4F6"/>
<path d="M258.778 80.5483C258.778 91.6482 258.778 102.735 258.778 113.835C258.778 115.178 258.483 115.608 257.058 115.582C252.167 115.474 247.275 115.501 242.384 115.582C241.161 115.582 240.852 115.272 240.852 114.05C240.852 91.7333 240.852 69.417 240.852 47.1007C240.852 45.8913 241.121 45.5285 242.371 45.5553C247.262 45.5553 252.153 45.636 257.045 45.5553C258.389 45.5553 258.792 45.8644 258.792 47.2888C258.752 58.3619 258.778 69.4484 258.778 80.5483Z" fill="#F3F4F6"/>
<path d="M836.861 80.5483C836.861 69.4618 836.861 58.3619 836.861 47.262C836.861 45.8375 837.224 45.515 838.621 45.515C851.916 45.5867 865.206 45.5867 878.492 45.515C879.836 45.515 880.441 45.7703 880.239 47.2217C880.038 48.673 880.911 50.8096 879.876 51.6831C878.842 52.5566 877.014 51.9385 875.522 51.9385C865.43 51.9385 855.365 51.9385 845.246 51.9385C843.902 51.9385 843.566 52.1803 843.58 53.5376C843.643 60.8032 843.643 68.0777 843.58 75.3612C843.58 76.6109 843.929 76.8931 845.139 76.8797C854.922 76.8797 864.691 76.8797 874.474 76.8125C875.952 76.8125 876.369 77.1887 876.342 78.6669C876.248 83.1822 876.342 83.1822 871.76 83.1822C862.917 83.1822 854.075 83.1822 845.233 83.1822C843.889 83.1822 843.566 83.4509 843.58 84.7947C843.643 92.3918 843.643 99.9798 843.58 107.559C843.58 108.903 843.862 109.212 845.193 109.212C856.736 109.212 868.266 109.212 879.809 109.131C881.247 109.131 881.798 109.454 881.637 110.945C881.476 112.437 882.067 114.399 881.314 115.286C880.562 116.173 878.492 115.555 877.001 115.555C864.221 115.555 851.468 115.555 838.635 115.555C837.291 115.555 836.861 115.286 836.861 113.835C836.888 102.748 836.861 91.6482 836.861 80.5483Z" fill="#F3F4F6"/>
<path d="M950.145 101.539C953.192 104.515 956.844 106.802 960.853 108.245C964.862 109.687 969.134 110.25 973.379 109.897C976.138 109.802 978.848 109.134 981.334 107.935C983.323 107.042 985.002 105.578 986.155 103.728C987.309 101.878 987.885 99.7264 987.812 97.5475C987.812 92.9785 985.568 89.8609 981.67 87.7914C977.37 85.5069 972.627 84.5394 968.017 83.209C965.176 82.459 962.399 81.4839 959.712 80.2929C952.268 76.8124 948.828 71.3969 949.096 63.549C949.365 55.7011 953.544 49.3448 960.989 46.7513C965.836 44.9791 971.028 44.3541 976.158 44.9253C981.287 45.4966 986.214 47.2485 990.553 50.0436C991.628 50.6887 991.897 51.3068 991.346 52.4222C990.674 53.766 990.123 55.2711 989.532 56.6955C988.188 55.9833 986.965 55.2308 985.662 54.5454C979.45 51.1123 972.154 50.2028 965.289 52.0056C958.167 53.8869 954.445 59.9341 956.03 66.6666C956.44 68.2185 957.193 69.6589 958.232 70.8821C959.272 72.1052 960.572 73.0801 962.037 73.7351C965.95 75.5731 970.05 76.9833 974.266 77.9412C977.592 78.8094 980.848 79.9233 984.009 81.2739C990.929 84.405 994.585 89.6459 994.45 97.3997C994.316 105.153 990.795 110.65 983.807 113.915C973.419 118.78 957.132 116.307 948.962 108.768C947.887 107.774 947.497 106.954 948.317 105.597C949.002 104.279 949.612 102.925 950.145 101.539V101.539Z" fill="#F3F4F6"/>
<path d="M245.811 159.618C259.724 159.215 273.61 158.825 287.469 158.449C318.923 157.553 350.377 156.711 381.832 155.923C392.367 155.641 402.889 155.385 413.411 155.049C414.755 155.049 415.131 155.305 415.064 156.648C414.952 158.887 414.952 161.129 415.064 163.368C415.064 164.537 414.782 164.832 413.613 164.792C408.17 164.577 402.714 164.483 397.259 164.335L258.174 160.532L246.886 160.196C246.536 159.954 246.106 160.196 245.743 159.968C245.713 159.911 245.703 159.845 245.715 159.781C245.727 159.717 245.761 159.66 245.811 159.618V159.618Z" fill="#F3F4F6"/>
<path d="M986.508 160.25L913.015 162.239C882.241 163.081 851.477 163.95 820.722 164.846C818.76 164.846 818.141 164.443 818.33 162.467C818.477 160.468 818.477 158.46 818.33 156.46C818.262 155.264 818.639 155.009 819.781 155.049C835.262 155.506 850.738 155.927 866.21 156.313L916.589 157.656L987.704 159.618C987.741 159.651 987.768 159.694 987.782 159.741C987.796 159.789 987.797 159.839 987.785 159.887C987.785 159.981 987.785 160.021 987.785 160.021C987.287 160.196 986.857 160.008 986.508 160.25Z" fill="#F3F4F6"/>
<path d="M612.148 83.8675C612.148 93.7714 612.148 103.675 612.148 113.579C612.148 115.044 611.947 115.77 610.267 115.568C608.587 115.367 606.625 116.079 605.738 115.286C604.851 114.493 605.416 112.235 605.416 110.623C605.416 91.7019 605.416 72.7721 605.416 53.8332C605.416 52.2475 605.026 51.8981 603.48 51.925C597.218 52.0191 590.943 51.925 584.667 51.925C583.417 51.925 583.041 51.589 583.135 50.3796C583.27 48.8208 582.625 46.7379 583.404 45.8375C584.183 44.9372 586.454 45.5016 588.054 45.5016C602.835 45.5016 617.617 45.5016 632.399 45.5016C633.837 45.5016 634.442 45.7972 634.24 47.3157C634.039 48.8342 634.859 50.729 633.931 51.6562C633.004 52.5835 631.082 51.9116 629.591 51.925C624.216 51.925 618.934 51.9922 613.613 51.925C612.269 51.925 611.987 52.3147 612 53.5913C612.175 63.6834 612.148 73.7754 612.148 83.8675Z" fill="#F3F4F6"/>
<path d="M483.612 159.632C483.612 153.611 483.612 147.537 483.612 141.584C483.612 140.482 483.72 139.918 485.077 139.945C486.434 139.972 486.622 140.294 486.609 141.504C486.542 146.516 486.609 151.529 486.609 156.541C486.609 157.656 486.743 158.154 488.087 158.154C495.908 158.073 503.738 158.073 511.577 158.154C512.813 158.154 513.001 157.777 512.988 156.675C512.988 151.596 512.988 146.516 512.988 141.45C512.988 140.348 513.163 139.918 514.399 139.958C515.635 139.999 516.012 140.16 515.998 141.477C515.944 153.643 515.944 165.8 515.998 177.948C515.998 179.131 515.783 179.547 514.493 179.561C513.203 179.574 513.001 179.09 513.001 177.961C513.001 172.761 513.001 167.56 513.001 162.36C513.001 161.123 512.84 160.64 511.429 160.667C503.662 160.738 495.89 160.738 488.114 160.667C486.837 160.667 486.609 161.07 486.622 162.239C486.622 167.493 486.622 172.761 486.622 178.029C486.622 179.05 486.622 179.641 485.279 179.547C484.217 179.466 483.612 179.466 483.626 178.069C483.666 171.914 483.612 165.773 483.612 159.632Z" fill="#F3F4F6"/>
<path d="M729.907 159.833C729.907 165.786 729.907 171.74 729.907 177.693C729.907 178.942 729.826 179.561 728.267 179.561C726.493 179.561 726.923 178.526 726.923 177.625C726.923 172.479 726.923 167.345 726.923 162.212C726.923 161.016 726.668 160.64 725.405 160.653C717.638 160.725 709.87 160.725 702.103 160.653C700.679 160.653 700.517 161.15 700.531 162.36C700.531 167.56 700.531 172.774 700.531 177.975C700.531 179.131 700.329 179.561 699.039 179.561C697.749 179.561 697.534 179.09 697.534 177.935C697.534 165.786 697.534 153.629 697.534 141.463C697.534 140.12 698.031 140.012 699.147 139.958C700.262 139.905 700.491 140.388 700.491 141.463C700.491 146.53 700.491 151.609 700.491 156.689C700.491 157.818 700.706 158.167 701.834 158.154C709.669 158.154 717.503 158.086 725.338 158.154C726.682 158.154 726.802 157.63 726.802 156.528C726.802 151.636 726.802 146.758 726.802 141.867C726.802 140.805 726.561 139.891 728.321 139.918C730.081 139.945 729.745 140.98 729.745 141.974C729.862 147.923 729.916 153.876 729.907 159.833Z" fill="#F3F4F6"/>
<path d="M676.06 179.897C671.398 179.903 666.862 178.384 663.146 175.569C662.528 175.072 661.802 174.669 662.514 173.594C663.227 172.519 663.415 172.479 664.409 173.231C666.884 175.169 669.792 176.478 672.883 177.047C675.975 177.615 679.158 177.427 682.161 176.497C683.371 176.169 684.492 175.571 685.44 174.75C686.244 174.093 686.881 173.256 687.299 172.306C687.718 171.356 687.906 170.321 687.849 169.285C687.791 168.248 687.489 167.24 686.968 166.343C686.446 165.445 685.72 164.684 684.849 164.12C682.242 162.387 679.191 161.849 676.235 161.083C673.549 160.497 670.928 159.641 668.414 158.53C666.799 157.867 665.423 156.733 664.464 155.275C663.505 153.817 663.008 152.104 663.038 150.359C662.911 148.555 663.332 146.755 664.245 145.194C665.159 143.633 666.523 142.384 668.158 141.611C674.877 138.373 681.597 139.085 688.141 142.552C689.485 143.251 688.625 143.896 688.342 144.702C687.886 145.925 687.254 145.038 686.77 144.702C682.54 142.29 677.568 141.524 672.808 142.552C671.7 142.771 670.637 143.175 669.663 143.748C668.494 144.371 667.525 145.313 666.869 146.464C666.212 147.615 665.895 148.928 665.954 150.252C665.973 151.484 666.348 152.685 667.035 153.708C667.722 154.731 668.691 155.533 669.825 156.017C672.956 157.656 676.45 158.194 679.823 159.108C681.891 159.599 683.894 160.335 685.789 161.298C687.194 162.034 688.386 163.12 689.248 164.451C690.11 165.782 690.613 167.314 690.709 168.897C690.805 170.48 690.49 172.061 689.796 173.487C689.101 174.912 688.049 176.134 686.743 177.034C683.72 179.319 680.145 179.829 676.06 179.897Z" fill="#F3F4F6"/>
<path d="M462.272 179.897C457.558 179.951 452.959 178.438 449.197 175.596C448.727 175.234 447.853 174.911 448.324 173.997C448.794 173.083 449.049 172.17 450.514 173.298C455.768 177.33 461.735 178.19 468.105 176.51C469.253 176.203 470.324 175.658 471.249 174.911C472.098 174.262 472.777 173.417 473.228 172.448C473.678 171.479 473.888 170.416 473.837 169.348C473.787 168.281 473.479 167.242 472.939 166.319C472.4 165.397 471.644 164.619 470.738 164.053C468.172 162.387 465.189 161.849 462.299 161.097C459.525 160.515 456.822 159.636 454.236 158.476C452.698 157.813 451.386 156.717 450.46 155.321C449.534 153.925 449.035 152.29 449.022 150.615C448.907 148.883 449.272 147.153 450.078 145.616C450.885 144.079 452.101 142.796 453.591 141.907C458.899 138.561 469.166 138.964 474.246 142.592C475.455 143.466 474.515 144.097 474.246 144.796C473.802 145.938 473.211 145.011 472.808 144.796C468.585 142.364 463.609 141.588 458.846 142.619C457.673 142.84 456.549 143.268 455.527 143.882C454.394 144.508 453.458 145.437 452.822 146.564C452.186 147.691 451.875 148.972 451.925 150.265C451.931 151.495 452.293 152.697 452.968 153.725C453.643 154.753 454.602 155.563 455.728 156.057C458.873 157.71 462.367 158.248 465.726 159.161C467.862 159.662 469.928 160.42 471.881 161.419C473.247 162.16 474.404 163.234 475.244 164.542C476.083 165.851 476.578 167.35 476.681 168.901C476.784 170.452 476.493 172.004 475.835 173.412C475.176 174.82 474.172 176.038 472.915 176.954C469.838 179.278 466.21 179.802 462.272 179.897Z" fill="#F3F4F6"/>
<path d="M743.882 159.833C743.882 165.854 743.882 171.928 743.882 177.881C743.882 178.929 743.882 179.628 742.458 179.547C741.289 179.48 740.885 179.278 740.885 178.002C740.939 165.827 740.939 153.661 740.885 141.504C740.885 140.267 741.235 139.985 742.444 139.931C743.654 139.878 743.896 140.509 743.882 141.584C743.869 147.658 743.882 153.746 743.882 159.833Z" fill="#F3F4F6"/>
<path d="M46.375 21.5011V21.7699C46.0318 22.1069 45.5973 22.3358 45.1253 22.4283C45.3134 21.7295 45.945 21.7161 46.375 21.5011Z" fill="#D9641F"/>
<path d="M990.257 159.618C989.445 159.929 988.567 160.031 987.704 159.914C987.697 159.807 987.697 159.699 987.704 159.591L990.257 159.618Z" fill="#F3F4F6"/>
<path d="M158.731 115.917C158.737 115.971 158.737 116.025 158.731 116.079C158.881 116.612 158.945 117.165 158.92 117.718C158.92 123.093 158.92 128.321 158.92 133.629C159.025 136.181 158.188 138.683 156.568 140.657C155.753 141.463 154.802 142.118 153.759 142.592C144.173 147.967 134.583 153.343 124.988 158.718C118.363 162.413 111.711 166.069 105.086 169.764C100.706 172.201 96.3292 174.656 91.9573 177.128C91.7259 177.3 91.4456 177.392 91.1577 177.392C90.8698 177.392 90.5895 177.3 90.3581 177.128C82.8731 172.949 75.3612 168.823 67.8627 164.658L43.674 151.219C43.7453 151.192 43.8129 151.156 43.8756 151.112C44.1565 150.726 44.5666 150.454 45.0313 150.346C50.2587 148.182 55.4593 145.965 60.6733 143.802C61.368 143.428 62.0862 143.101 62.8234 142.821C63.3923 142.587 63.9965 142.451 64.6107 142.417C66.8414 143.439 68.9109 144.769 71.061 145.925C75.0924 148.048 78.8685 150.44 82.9672 152.321C86.4917 154.037 90.3933 154.832 94.3082 154.633C98.2231 154.433 102.024 153.245 105.355 151.179C114.009 146.234 122.677 141.329 131.237 136.222C134.411 134.487 137.164 132.074 139.3 129.154C141.182 126.297 142.332 123.02 142.646 119.613C143.107 114.457 143.273 109.28 143.143 104.105C143.143 103.527 142.995 102.909 143.479 102.426C143.936 102.224 144.218 102.546 144.514 102.802C146.422 104.441 148.223 106.202 150.091 107.895C152.698 110.247 155.211 112.679 157.858 114.99C158.202 115.245 158.497 115.559 158.731 115.917V115.917Z" fill="#00E94E"/>
<path d="M63.0115 142.969C59.0607 144.917 54.9486 146.436 50.9172 148.183C48.6461 149.164 46.3348 150.077 44.0368 151.018L26.9435 141.235C24.8337 140.026 22.9121 138.668 22.4955 136.048C22.424 135.54 22.3926 135.028 22.4014 134.516C22.4014 111.832 22.4014 89.1622 22.4014 66.492C22.3273 64.7335 22.7702 62.9919 23.6754 61.4824C24.5806 59.973 25.9084 58.762 27.4945 57.9991C37.0759 52.6238 46.5767 47.0067 56.1177 41.5105L69.0452 34.0523C69.4215 33.8373 69.8247 33.6895 70.2144 33.5013C70.3483 33.7129 70.4355 33.9506 70.4703 34.1985C70.5051 34.4465 70.4865 34.699 70.4159 34.9392C69.8784 40.3145 69.1393 45.6897 68.5346 51.065C68.4916 51.4947 68.4015 51.9183 68.2658 52.3282C68.1696 52.6856 68.0005 53.0193 67.7693 53.3084C67.5381 53.5974 67.2496 53.8356 66.922 54.008C62.4337 56.6956 57.8916 59.2623 53.4839 62.0708C50.6649 63.7647 48.1337 65.8967 45.9854 68.3868C42.9922 72.121 41.2608 76.7084 41.0401 81.489C40.4757 88.7859 40.8923 96.1097 40.7982 103.42C40.7982 107.451 40.7311 111.483 40.7982 115.514C40.8331 118.236 41.1986 120.944 41.8867 123.577C43.249 128.266 46.2668 132.301 50.3797 134.933C53.6451 137.217 57.2197 138.964 60.7001 140.993C61.2511 141.302 61.8155 141.598 62.3396 141.947C62.8637 142.297 63.1593 142.444 63.0115 142.969Z" fill="#0094FE"/>
<path d="M67.9701 52.5029L70.1874 33.5014L70.4159 33.2326C77.0723 29.5147 83.7197 25.7923 90.3581 22.0655C90.6633 21.8581 91.0238 21.7472 91.3928 21.7472C91.7619 21.7472 92.1224 21.8581 92.4276 22.0655C101.754 27.4408 111.089 32.816 120.433 38.1913C127.152 42.0883 134.005 45.9316 140.778 49.8153C145.553 52.5029 150.31 55.2398 155.049 58.026C157.253 59.3698 158.019 61.5065 158.503 63.8313C158.763 65.6104 158.844 67.4112 158.745 69.2065C158.745 84.7948 158.745 100.388 158.745 115.985C155.627 113.391 152.751 110.542 149.741 107.814L143.802 102.439C143.21 102.17 142.606 101.888 142.458 101.095C142.552 94.6853 142.579 88.2753 142.458 81.8653C142.412 78.7675 141.744 75.7105 140.496 72.8751C138.717 69.038 135.798 65.8425 132.137 63.7238C127.058 60.5792 121.736 57.8647 116.522 54.9486C111.537 52.1132 106.565 49.2106 101.377 46.7379C98.6764 45.4061 95.731 44.6423 92.7232 44.4938C88.2649 44.4334 83.879 45.6253 80.0645 47.9339C76.4631 49.9228 73.0095 52.167 69.408 54.1692C68.8839 54.4649 68.3867 54.9621 67.6745 54.5858C67.1907 53.7526 67.997 53.2151 67.9701 52.5029Z" fill="#FE8500"/>
<path d="M584.291 77.7128C583.82 69.9724 581.536 62.8368 576.349 56.8837C569.522 49.0627 560.572 45.8509 550.48 45.6359C540.644 45.4344 530.807 45.6359 520.917 45.5419C519.452 45.5419 519.196 45.945 519.21 47.3023C519.21 58.335 519.21 69.3543 519.21 80.387C519.21 91.4197 519.21 102.694 519.21 113.848C519.21 115.286 519.586 115.649 520.97 115.555C522.959 115.434 525.002 115.555 526.977 115.555C536.182 115.38 545.428 116.159 554.593 115.151C565.84 113.915 574.75 108.701 580.219 98.4747C583.517 92.08 584.929 84.8795 584.291 77.7128V77.7128ZM565.128 88.3155C564.168 91.4912 562.246 94.2906 559.627 96.3271C557.008 98.3635 553.822 99.5366 550.507 99.6842C546.476 99.8992 542.364 99.6842 538.292 99.8051C536.948 99.8051 537.163 99.0257 537.163 98.2329V80.3601C537.163 74.5414 537.163 68.7092 537.163 62.8905C537.163 61.708 537.405 61.2645 538.695 61.3048C542.337 61.4123 545.965 61.3048 549.607 61.3855C553.207 61.3522 556.716 62.5249 559.572 64.7167C562.429 66.9085 564.47 69.9934 565.37 73.4798C566.802 78.3342 566.718 83.5103 565.128 88.3155V88.3155Z" fill="#F3F4F6"/>
<path d="M446.684 114.56C437.645 91.9393 428.61 69.314 419.579 46.6841C419.475 46.3039 419.233 45.9763 418.9 45.7651C418.567 45.5539 418.167 45.4743 417.779 45.5419C412.901 45.5419 407.996 45.6225 403.118 45.5419C402.607 45.468 402.088 45.5886 401.662 45.8798C401.236 46.1711 400.936 46.6116 400.82 47.1141C391.951 69.5111 383.063 91.8632 374.158 114.171C373.997 114.56 373.527 114.977 373.93 115.514C379.493 115.514 385.084 115.514 390.66 115.514C391.695 115.514 392.004 115.084 392.34 114.171C393.684 110.529 395.028 106.9 396.291 103.245C396.614 102.345 396.95 101.901 398.092 101.901C406.155 101.964 414.182 101.964 422.173 101.901C422.594 101.843 423.022 101.95 423.365 102.201C423.709 102.452 423.941 102.826 424.014 103.245C425.358 106.9 426.702 110.529 427.965 114.171C428.207 114.842 428.328 115.514 429.416 115.514C435.235 115.514 441.054 115.514 447.007 115.514C446.872 115.125 446.792 114.842 446.684 114.56ZM416.583 87.4286C412.202 87.3211 407.821 87.4286 403.454 87.4286C402.607 87.4286 401.962 87.5092 402.419 86.2595C404.959 79.3791 407.445 72.4854 409.944 65.5782C410.683 65.8335 410.63 66.5188 410.804 67.0026C413.102 73.2513 415.346 79.5404 417.644 85.816C418.128 86.9314 418.222 87.4555 416.583 87.4286Z" fill="#F3F4F6"/>
<path d="M826.325 77.2694C825.264 58.7113 811.758 45.7569 793.16 45.5822C785.003 45.5016 776.86 45.5822 768.703 45.515C767.251 45.515 766.848 45.851 766.848 47.356C766.929 58.3888 766.848 69.4215 766.848 80.4542C766.848 91.4869 766.848 102.775 766.848 113.929C766.848 115.017 766.929 115.582 768.299 115.582C776.954 115.501 785.621 115.823 794.248 115.461C807.687 114.896 817.752 108.742 823.369 96.1903C825.876 90.2169 826.891 83.7228 826.325 77.2694V77.2694ZM811.409 102.036C806.523 106.647 800.039 109.181 793.321 109.104C787.247 109.239 781.16 109.104 775.086 109.104C773.809 109.104 773.567 108.728 773.581 107.546C773.581 98.5151 773.581 89.4981 773.581 80.4676C773.581 71.4372 773.581 62.5546 773.581 53.5913C773.581 52.2475 773.917 51.8309 775.314 51.8578C780.891 51.9519 786.468 51.8578 792.045 51.8578C807.955 51.8578 818.921 62.1918 819.808 78.116C820.292 87.2674 818.182 95.5318 811.409 102.036Z" fill="#F3F4F6"/>
<path d="M689.821 113.714L676.315 92.7232C675.899 92.0782 675.415 91.6079 676.611 91.1107C685.346 87.5227 689.377 80.6289 689.928 71.5044C690.385 64.0328 688.759 57.139 682.994 51.8444C678.022 47.2754 671.894 45.7032 665.35 45.5956C657.703 45.4747 650.057 45.5956 642.411 45.515C640.892 45.515 640.449 45.8241 640.449 47.4367C640.516 68.4271 640.449 89.4175 640.449 110.408C640.449 112.074 639.71 114.359 640.785 115.246C641.86 116.132 644.01 115.407 645.676 115.568C647.02 115.689 647.181 115.125 647.168 113.982C647.168 107.72 647.168 101.458 647.101 95.169C647.101 93.5295 647.571 93.2876 649.063 93.2742C655.513 93.2742 661.977 93.6102 668.414 93.0592C669.381 92.9786 669.569 93.6639 669.919 94.2014C673.345 99.5095 676.732 104.831 680.186 110.126C681.368 111.94 682.053 114.56 683.935 115.313C685.816 116.065 688.369 115.461 690.882 115.447L689.821 113.714ZM666.976 86.8373C660.727 87.1598 654.451 86.918 648.162 87.012C646.819 87.012 647.168 86.2192 647.168 85.5338C647.168 80.1586 647.168 74.7833 647.168 69.408C647.168 64.1403 647.168 58.886 647.168 53.6182C647.168 52.3954 647.329 51.8847 648.74 51.925C655.191 52.1535 661.654 51.5353 668.078 52.261C680.293 53.6048 684.405 62.6083 683.075 72.566C681.906 81.3008 676.168 86.4073 666.989 86.8642L666.976 86.8373Z" fill="#F3F4F6"/>
<path d="M941.867 113.714L928.375 92.7232C927.958 92.0782 927.461 91.5944 928.657 91.1107C937.405 87.5227 941.41 80.602 941.974 71.5178C942.444 64.0328 940.805 57.1524 935.04 51.8578C930.081 47.2888 923.94 45.7166 917.396 45.6091C909.749 45.4881 902.103 45.6091 894.47 45.5284C892.938 45.5284 892.495 45.8375 892.495 47.4501C892.562 68.5077 892.495 89.5518 892.495 110.609C892.495 112.222 891.783 114.345 892.831 115.272C893.879 116.2 895.814 115.393 897.359 115.582C898.905 115.77 899.254 115.111 899.227 113.62C899.147 107.478 899.227 101.337 899.227 95.1958C899.227 93.852 899.402 93.3145 900.988 93.3145C907.492 93.3145 914.009 93.6505 920.527 93.0995C921.481 93.0189 921.669 93.7042 922.018 94.2417C925.445 99.5498 928.845 104.871 932.285 110.166C933.468 111.98 934.153 114.601 936.048 115.353C937.943 116.106 940.469 115.501 942.982 115.487C942.525 114.748 942.203 114.224 941.867 113.714ZM918.901 86.8373C912.719 87.1195 906.511 86.9179 900.302 86.9986C899.079 86.9986 899.241 86.3267 899.241 85.5741C899.241 80.1989 899.241 74.8236 899.241 69.4483C899.241 64.0731 899.241 58.6978 899.241 53.3226C899.241 52.691 898.985 51.9788 900.154 51.9788C906.874 52.1669 913.593 51.5353 920.245 52.3147C932.204 53.6585 936.37 62.3933 935.147 72.351C934.072 81.247 928.213 86.4611 918.901 86.8776V86.8373Z" fill="#F3F4F6"/>
<path d="M760.116 113.875C751.327 92.6068 742.529 71.3028 733.723 49.963C731.895 45.5688 731.895 45.6494 727.179 45.515C725.62 45.515 725.069 46.0525 724.491 47.3829C717.208 65.1929 709.897 82.994 702.56 100.786C700.544 105.678 698.528 110.583 696.486 115.568C698.502 115.568 700.316 115.487 702.13 115.568C703.232 115.568 703.635 115.192 703.998 114.224C706.121 108.849 708.325 103.474 710.435 98.0985C710.552 97.6607 710.826 97.2815 711.206 97.0336C711.585 96.7856 712.043 96.6863 712.491 96.7547C723.241 96.7547 734.019 96.7547 744.823 96.7547C745.25 96.6981 745.683 96.8052 746.034 97.0545C746.386 97.3037 746.63 97.6767 746.718 98.0985C748.25 102.063 749.849 106 751.448 109.924C752.227 111.832 752.577 114.48 754.015 115.299C755.452 116.119 758.14 115.541 760.263 115.555C760.419 115.533 760.572 115.497 760.72 115.447C760.519 114.896 760.331 114.386 760.116 113.875ZM713.485 90.6672L728.603 53.2957L743.708 90.6672H713.485Z" fill="#F3F4F6"/>
<path d="M648.498 176.483C647.262 175.435 646.268 174.118 645.112 172.976C644.961 172.87 644.833 172.734 644.737 172.576C644.641 172.419 644.579 172.243 644.553 172.06C644.528 171.877 644.541 171.691 644.591 171.514C644.641 171.336 644.727 171.17 644.843 171.027C646 168.811 646.876 166.459 647.45 164.026C647.786 162.803 647.047 162.763 646.268 162.413C645.085 161.903 645.166 162.83 645.045 163.394C644.521 165.745 643.661 168.008 642.491 170.114C638.769 166.19 635.127 162.306 631.445 158.476C630.76 157.75 631.123 157.522 631.754 157.132C634.261 155.811 636.487 154.018 638.312 151.851C639.074 150.929 639.6 149.835 639.845 148.664C640.089 147.494 640.045 146.281 639.716 145.131C639.386 143.981 638.781 142.928 637.954 142.065C637.126 141.201 636.101 140.552 634.966 140.173C632.089 139.182 628.943 139.322 626.164 140.563C624.827 141.105 623.683 142.034 622.878 143.231C622.073 144.429 621.645 145.839 621.649 147.282C621.461 150.991 623.476 153.692 625.815 156.192C626.608 157.038 626.742 157.414 625.6 158.06C623.35 159.312 621.306 160.903 619.539 162.776C614.446 168.326 616.139 176.107 623.221 178.593C630.034 180.972 636.444 180.058 641.887 174.965C642.706 174.199 643.056 174.279 643.728 175.045C645.246 176.779 646.859 178.432 648.377 180.044C650.299 178.875 650.03 177.773 648.498 176.483ZM624.31 148.586C624.31 145.132 625.653 143.116 628.234 142.256C629.789 141.737 631.456 141.648 633.058 142.001C633.964 142.168 634.813 142.565 635.521 143.155C636.23 143.744 636.775 144.506 637.104 145.367C637.434 146.228 637.536 147.159 637.402 148.071C637.267 148.983 636.901 149.845 636.337 150.574C634.644 152.913 632.104 154.243 629.712 155.721C629.43 155.896 629.094 156.003 628.852 155.721C626.702 153.437 624.377 151.26 624.269 148.586H624.31ZM640.261 173.272C638.869 174.667 637.207 175.764 635.378 176.497C633.548 177.229 631.588 177.581 629.618 177.531C627.482 177.533 625.373 177.05 623.45 176.12C622.476 175.642 621.622 174.953 620.948 174.104C620.275 173.254 619.799 172.265 619.556 171.208C619.313 170.151 619.308 169.054 619.542 167.995C619.776 166.936 620.244 165.943 620.91 165.088C622.856 162.794 625.218 160.889 627.871 159.471C628.462 159.094 628.744 159.363 629.121 159.753C632.856 163.704 636.592 167.668 640.368 171.578C641 172.291 640.758 172.694 640.22 173.272H640.261Z" fill="#F3F4F6"/>
<path d="M543.748 139.609C531.976 139.609 523.174 148.169 523.12 159.659C523.067 171.148 531.909 179.816 543.761 179.816C555.614 179.816 564.308 171.296 564.376 159.78C564.443 148.263 555.614 139.609 543.748 139.609ZM543.681 177.236C541.357 177.298 539.045 176.888 536.884 176.03C534.724 175.172 532.761 173.883 531.113 172.244C529.466 170.604 528.169 168.646 527.3 166.49C526.432 164.333 526.012 162.023 526.063 159.699C526.063 149.634 533.683 142.229 543.909 142.229C546.208 142.244 548.481 142.712 550.599 143.605C552.716 144.499 554.638 145.801 556.252 147.437C557.867 149.073 559.144 151.011 560.009 153.14C560.875 155.269 561.313 157.548 561.298 159.847C561.283 162.145 560.816 164.418 559.922 166.536C559.029 168.654 557.727 170.575 556.091 172.19C554.455 173.805 552.517 175.081 550.388 175.947C548.258 176.813 545.979 177.251 543.681 177.236V177.236Z" fill="#F3F4F6"/>
<path d="M589.854 140.375C584.009 139.501 578.096 140.173 572.223 139.972C570.88 139.972 571.283 140.859 571.283 141.517C571.283 147.591 571.283 153.612 571.283 159.739C571.283 165.867 571.283 171.834 571.283 177.975C571.283 179.198 571.605 179.507 572.828 179.547C574.051 179.587 574.293 178.996 574.279 177.908C574.279 174.723 574.279 171.525 574.279 168.326C574.279 166.982 574.535 166.673 575.879 166.66C580.569 166.66 585.285 167.117 589.948 166.297C594.934 165.437 598.912 163.112 600.699 158.046C603.454 149.58 598.71 141.719 589.854 140.375ZM597.702 157.441C595.942 162.185 591.924 163.663 587.422 163.959C583.391 164.228 579.278 163.959 575.207 164.093C574.091 164.093 574.212 163.502 574.212 162.749C574.212 159.551 574.212 156.366 574.212 153.168C574.212 149.97 574.212 146.892 574.212 143.761C574.212 143.13 574.091 142.512 575.113 142.565C579.856 142.753 584.64 142.149 589.371 142.942C596.654 144.191 600.255 150.507 597.702 157.441Z" fill="#F3F4F6"/>
<path d="M774.656 140.617C771 139.69 767.305 140.093 764.107 139.985C760.908 139.878 758.61 139.985 756.044 139.985C755.063 139.985 754.7 140.227 754.767 141.235C754.767 153.58 754.767 165.921 754.767 178.257C754.767 179.682 755.506 179.48 756.393 179.601C757.28 179.722 757.804 179.413 757.737 178.257C757.656 175.247 757.737 172.237 757.737 169.24C757.737 166.741 757.737 166.781 760.129 166.727C764.577 166.633 769.025 167.077 773.446 166.351C780.165 165.249 784.519 160.667 784.801 154.337C785.178 147.134 781.63 142.444 774.656 140.617ZM781.375 157.213C779.655 162.145 775.529 163.677 770.866 163.932C766.835 164.187 762.803 163.932 758.839 164.053C757.804 164.053 757.764 163.596 757.777 162.817C757.777 159.618 757.777 156.42 757.777 153.222C757.777 150.024 757.777 146.96 757.777 143.815C757.777 143.251 757.508 142.471 758.597 142.565C763.354 142.754 768.138 142.149 772.868 142.928C780.071 144.151 783.767 150.319 781.388 157.226L781.375 157.213Z" fill="#F3F4F6"/>
<path d="M142.606 101.176L143.788 102.358C143.399 102.708 143.546 103.178 143.546 103.595C143.546 106.753 143.667 109.924 143.546 113.082C143.501 116.106 143.214 119.121 142.686 122.099C142.129 124.749 141.043 127.26 139.494 129.481C137.944 131.702 135.964 133.588 133.669 135.027C129.208 138.01 124.451 140.496 119.828 143.224C115.205 145.952 110.677 148.492 106.094 151.125C101.645 153.911 96.4276 155.214 91.1913 154.848C87.1501 154.339 83.2547 153.013 79.742 150.951C75.9256 148.881 72.1629 146.718 68.3868 144.595L64.6375 142.444C64.6375 141.988 65.0407 141.907 65.3363 141.746C66.1291 141.558 66.7742 140.926 67.6477 140.993C73.1728 144.488 78.9134 147.63 84.8351 150.4C91.3794 153.329 97.8163 152.644 103.998 149.204C112.437 144.527 120.796 139.676 129.1 134.758C132.087 133.178 134.725 131.012 136.854 128.388C139.106 125.238 140.403 121.506 140.59 117.638C140.993 112.397 140.832 107.129 140.859 101.875C140.859 101.283 140.644 100.531 141.504 100.276C141.762 100.281 142.01 100.373 142.21 100.536C142.409 100.699 142.549 100.924 142.606 101.176V101.176Z" fill="#00E14B"/>
<path d="M65.39 142.028L64.6375 142.498L63.0115 142.968C61.5844 141.79 60.0017 140.813 58.3081 140.066C54.8093 138.249 51.4615 136.155 48.2967 133.804C44.2456 130.558 41.603 125.874 40.9192 120.728C40.5631 117.952 40.4015 115.155 40.4354 112.356C40.4354 102.95 40.4354 93.5429 40.4354 84.1362C40.4261 80.5445 41.0963 76.9835 42.4108 73.641C43.9934 69.8883 46.5668 66.6367 49.8555 64.2343C54.7873 60.4716 60.297 57.784 65.4438 54.4513C66.3307 53.8869 67.5805 53.7257 67.9702 52.5028L67.8089 54.626C68.1852 55.177 67.9567 55.6473 67.6342 56.1177C64.2478 58.2275 60.7673 60.1491 57.3809 62.3127C54.4781 64.0242 51.7739 66.0523 49.318 68.3598C45.8971 71.762 43.7199 76.2159 43.1365 81.0051C42.8236 83.5148 42.671 86.0418 42.6796 88.5708C42.5855 96.3246 42.5721 104.078 42.6796 111.832C42.6086 114.991 42.9017 118.147 43.553 121.239C44.3101 124.364 45.8501 127.245 48.0279 129.611C51.4144 133.306 55.728 135.645 60.0013 138.037C61.5198 138.883 63.0652 139.703 64.5569 140.603C65.0675 140.912 65.8469 141.101 65.39 142.028Z" fill="#0090F8"/>
<path d="M67.4998 56.0506L67.8089 54.6261C70.7787 53.1748 73.547 51.3472 76.3959 49.6675C79.4474 47.6969 82.734 46.1168 86.1788 44.9641C89.901 43.8554 93.8657 43.8554 97.5878 44.9641C101.617 46.3675 105.479 48.2107 109.104 50.4603C112.975 52.597 116.845 54.7202 120.701 56.8703C124.975 59.2489 129.383 61.399 133.427 64.1538C135.887 65.7208 137.97 67.811 139.528 70.2756C141.087 72.7401 142.083 75.5182 142.444 78.4117C142.74 80.4725 142.888 82.5517 142.888 84.6335C142.888 89.74 142.888 94.8465 142.888 99.9396C142.888 100.356 143.049 100.827 142.673 101.176L141.732 100.464C141.097 100.13 140.535 99.6736 140.079 99.1199C139.968 98.9785 139.882 98.8195 139.824 98.6495C139.726 98.1044 139.694 97.5494 139.73 96.9966C139.73 92.2798 139.824 87.5899 139.73 82.8597C139.804 78.3038 138.326 73.8584 135.537 70.2547C133.313 67.786 130.641 65.7614 127.662 64.2882C119.895 59.8536 112.034 55.5937 104.213 51.2532C102.339 50.2218 100.394 49.3237 98.3941 48.5655C95.9441 47.6354 93.3243 47.237 90.7085 47.3969C88.0928 47.5567 85.5409 48.2712 83.2225 49.4928C78.4385 51.8176 74.0039 54.7336 69.408 57.3944C69.0049 57.6363 68.6017 57.8782 68.1717 58.0932C67.7417 58.3082 67.3386 58.0932 67.2445 57.596C67.1802 57.3345 67.1697 57.0627 67.2136 56.7971C67.2575 56.5314 67.3549 56.2775 67.4998 56.0506V56.0506Z" fill="#FE7F00"/>
<path d="M67.4998 56.0505V57.6228C67.4609 57.8071 67.3929 57.984 67.2983 58.1469C66.1062 59.0663 64.8333 59.8759 63.4953 60.5658C59.7295 62.6649 56.1108 65.0175 52.6641 67.6073C50.4341 69.3315 48.5838 71.4972 47.2289 73.9689C45.8739 76.4407 45.0434 79.1654 44.7894 81.9727C44.4803 84.9157 44.3997 87.8855 44.3593 90.8419C44.2653 97.0369 44.2787 103.259 44.3593 109.467C44.3593 112.303 44.4803 115.138 44.7894 117.974C45.0208 120.582 45.8027 123.112 47.0837 125.396C48.3647 127.68 50.1155 129.666 52.2207 131.224C55.8701 133.802 59.6859 136.136 63.6431 138.211C64.745 138.843 65.8873 139.407 66.9489 140.079C67.3117 140.308 67.7283 140.482 67.8224 140.98C67.8181 141.011 67.8069 141.041 67.7897 141.068C67.7724 141.094 67.7494 141.117 67.7225 141.134C67.6955 141.15 67.6652 141.161 67.6336 141.164C67.6021 141.168 67.5702 141.165 67.5402 141.154L65.3901 142.028C65.3901 141.141 64.6375 141.007 64.0462 140.684C60.4179 138.601 56.6821 136.653 53.1882 134.408C50.0961 132.478 47.4672 129.89 45.4882 126.829C43.9835 124.458 43.0625 121.764 42.8005 118.968C41.8464 108.392 42.3974 97.7894 42.3705 87.2002C42.2405 83.8952 42.6258 80.5901 43.5127 77.4038C44.3972 74.4041 45.919 71.6308 47.9742 69.2737C51.5084 65.3229 56.0371 62.7159 60.4986 60.0282L66.062 56.6821C66.4931 56.3755 66.9824 56.1606 67.4998 56.0505Z" fill="#008CF0"/>
<path d="M67.5402 141.101L67.7552 141.007C67.8906 140.785 68.0969 140.615 68.3407 140.525C68.5846 140.434 68.8517 140.429 69.099 140.509C73.0498 142.7 76.9469 144.957 80.9246 147.094C84.5 149.235 88.5171 150.531 92.6695 150.884C95.4611 150.97 98.236 150.423 100.786 149.284C104.69 147.464 108.481 145.413 112.141 143.143C117.302 140.2 122.435 137.257 127.542 134.234C129.718 133.021 131.758 131.579 133.629 129.934C136.459 127.339 138.349 123.88 139.004 120.097C139.378 117.566 139.53 115.008 139.461 112.45C139.461 108.419 139.461 104.388 139.461 100.356C139.461 99.8455 139.139 99.0123 140.214 99.0123C140.781 99.3983 141.277 99.8804 141.678 100.437C140.953 100.571 141.195 101.162 141.195 101.579C141.195 105.18 141.289 108.782 141.195 112.33C141.225 115.414 140.946 118.493 140.361 121.521C139.273 126.251 136.399 130.377 132.339 133.038C128.025 135.967 123.416 138.413 118.901 141.033C115.098 143.264 111.241 145.414 107.425 147.632C103.608 149.849 99.7649 151.891 95.3303 152.429C91.5236 152.833 87.6797 152.167 84.2303 150.507C78.8551 148.035 73.7083 144.917 68.4808 142.055C68.0952 141.817 67.7726 141.49 67.5402 141.101V141.101Z" fill="#00D949"/>
<path d="M67.2848 57.9587L67.4864 57.6228C67.5939 58.3887 67.9567 57.8781 68.1852 57.7437C71.4103 55.8355 74.622 53.9004 77.8606 52.0325C80.8611 50.1241 84.107 48.6322 87.5092 47.5979C91.5504 46.5699 95.8225 46.9686 99.6036 48.7267C105.409 51.2262 110.771 54.5857 116.294 57.6496C120.54 59.9879 124.8 62.3261 129.006 64.7315C132.769 66.8817 136.061 69.529 137.916 73.6007C139.196 76.4041 139.882 79.4421 139.931 82.5237C140.012 87.8989 139.931 93.3683 139.931 98.7838C139.528 98.972 139.327 98.636 139.071 98.4613C138.86 98.267 138.686 98.0345 138.561 97.776C138.511 97.6653 138.479 97.5473 138.467 97.4266C138.386 93.7445 138.467 90.0625 138.467 86.3938C138.572 83.5165 138.323 80.6372 137.728 77.8203C136.751 73.7042 134.274 70.1006 130.78 67.7148C127.474 65.5244 124.061 63.6834 120.554 61.7348C116.522 59.4369 112.491 57.1524 108.325 55.0158C105.626 53.3708 102.835 51.8813 99.9664 50.5543C97.5918 49.5655 95.0904 48.9141 92.5351 48.6192C90.356 48.5229 88.1822 48.9036 86.1654 49.7346C83.4109 50.7322 80.7746 52.0301 78.3041 53.6048C75.0252 55.6608 71.585 57.4346 68.3196 59.5444C67.9702 59.7729 67.5401 60.0148 67.1504 59.5444C67.0269 59.2928 66.9742 59.0123 66.9978 58.7329C67.0215 58.4536 67.1207 58.186 67.2848 57.9587V57.9587Z" fill="#F77900"/>
<path d="M139.286 98.2598L139.985 98.7839L140.2 99.0392C139.501 99.2139 139.757 99.7917 139.757 100.222C139.757 104.455 139.757 108.674 139.757 112.907C139.921 116.358 139.499 119.811 138.507 123.12C137.327 126.538 135.104 129.499 132.151 131.586C127.367 135.013 122.139 137.714 117.073 140.671C112.921 143.089 108.768 145.508 104.562 147.847C101.665 149.528 98.4716 150.637 95.1556 151.112C91.5559 151.472 87.9264 150.84 84.6604 149.284C79.4628 146.825 74.3986 144.093 69.4887 141.101C69.2956 140.971 69.1195 140.817 68.9646 140.644V140.469C69.1525 140.251 69.3858 140.077 69.6481 139.958C69.9104 139.84 70.1954 139.78 70.4831 139.784C73.4395 141.208 76.1943 142.968 79.0432 144.568C81.4486 145.911 83.8675 147.255 86.2326 148.599C86.6358 149.19 87.2808 149.271 87.8855 149.459C93.5564 151.179 98.851 149.97 103.837 147.148C111.577 142.78 119.304 138.373 126.937 133.831C130.065 132.197 132.852 129.981 135.147 127.3C137.251 124.458 138.476 121.061 138.668 117.53C139.152 111.644 138.789 105.758 138.91 99.8723C138.964 99.4423 138.789 98.7435 139.286 98.2598Z" fill="#00D246"/>
<path d="M67.2848 57.9587V59.6116C67.2816 59.6983 67.2609 59.7835 67.2239 59.862C67.187 59.9405 67.1346 60.0107 67.0698 60.0685C62.913 62.3889 58.8815 64.8973 54.9755 67.5939C53.0351 68.8828 51.3229 70.486 49.9093 72.3376C49.5174 72.8364 49.2378 73.414 49.0896 74.0308C48.9301 74.5185 48.6843 74.9737 48.3639 75.3746C46.8833 77.466 46.1798 80.009 46.3751 82.564C46.2945 94.6583 46.3079 106.659 46.3751 118.713C46.3749 120.385 46.7348 122.038 47.4305 123.56C48.1261 125.081 49.1411 126.434 50.4065 127.528C50.9575 128.039 51.5219 128.536 52.0325 129.087C52.8024 130.137 53.7991 131.001 54.9486 131.613C58.2275 133.857 61.7618 135.645 65.2288 137.647C66.3173 138.265 67.4327 138.856 68.4943 139.528C68.8571 139.757 69.4215 139.945 69.099 140.576V140.671L67.8896 141.074C65.9611 139.749 63.9299 138.581 61.8155 137.58C58.2898 135.727 54.9034 133.621 51.6832 131.277C49.6035 129.701 47.8824 127.701 46.6337 125.41C45.3851 123.119 44.6373 120.589 44.44 117.987C43.5799 108.325 43.9697 98.636 44.0368 88.974C43.896 85.6279 44.1805 82.2774 44.8834 79.0029C45.6685 75.7292 47.2364 72.6949 49.4524 70.1606C52.906 66.3038 57.3944 63.8581 61.7215 61.1973C63.5894 60.082 65.4438 59.0338 67.2848 57.9587Z" fill="#0087E7"/>
<path d="M67.0564 59.8535L67.258 59.6116C68.0642 59.6116 68.5211 58.9935 69.099 58.6306C72.0688 56.7762 75.1999 55.177 78.1429 53.2554C80.6241 51.7037 83.2584 50.4113 86.0042 49.3986C89.7263 48.0077 93.8254 48.0077 97.5475 49.3986C100.764 50.5458 103.86 52.004 106.793 53.7526C108.728 54.8814 110.824 55.8221 112.719 56.8837C114.95 58.1066 117.14 59.3966 119.344 60.6464C121.548 61.8961 123.376 62.9443 125.539 64.0328C127.703 65.1213 129.692 66.7204 131.761 68.0642C135.174 70.3084 136.76 73.7082 137.902 77.3634C138.473 79.2382 138.709 81.1986 138.601 83.1553C138.52 84.6738 138.83 86.2057 138.803 87.7511C138.803 91.03 138.803 94.3089 138.803 97.6013C138.225 97.7357 138.01 97.2384 137.674 96.9428C137.523 96.7539 137.418 96.5334 137.365 96.2978C137.23 93.1264 137.365 89.9684 137.365 86.797C137.534 83.4798 137.185 80.1565 136.33 76.9468C135.593 74.2579 134.073 71.8489 131.963 70.0262C128.254 67.2718 124.31 64.8481 120.177 62.783C116.952 60.9913 113.754 59.1995 110.583 57.4078C108.836 56.3999 107.035 55.4861 105.207 54.5454C103.06 53.2613 100.813 52.1513 98.4882 51.2262C95.6756 50.032 92.5989 49.5965 89.5653 49.963C89.2134 50.0102 88.8749 50.1291 88.5709 50.3124C87.5708 50.6628 86.5525 50.9589 85.5204 51.1993C83.7391 51.9451 82.026 52.8443 80.4005 53.887C76.369 56.2924 72.3376 58.7919 68.1986 61.1436C67.8089 61.372 67.3923 61.8692 66.8548 61.3451C66.7585 61.1 66.7264 60.8342 66.7617 60.5731C66.797 60.3121 66.8984 60.0644 67.0564 59.8535V59.8535Z" fill="#EF7500"/>
<path d="M137.862 96.9025L138.789 97.6281V97.8431C138.789 104.643 139.139 111.443 138.574 118.229C138.371 121.026 137.494 123.733 136.017 126.117C134.54 128.502 132.508 130.494 130.095 131.922C125.069 135.147 119.828 137.996 114.668 140.993C111.084 143.08 107.501 145.145 103.917 147.188C100.104 149.517 95.642 150.559 91.1913 150.158C90.3716 150.064 89.3637 150.158 88.8799 149.137C89.078 148.956 89.3381 148.86 89.6056 148.868C92.3885 149.29 95.234 148.903 97.8029 147.752C99.8777 147.434 101.864 146.688 103.635 145.562C108.406 142.78 113.243 140.106 118 137.298C121.669 135.134 125.499 133.266 129.006 130.78C131.332 129.2 133.339 127.193 134.919 124.867C135.779 123.535 136.351 122.039 136.599 120.473C137.091 117.516 137.316 114.521 137.271 111.523C137.271 107.133 137.271 102.744 137.271 98.3538C137.311 97.8431 137.069 97.1309 137.862 96.9025Z" fill="#00CA44"/>
<path d="M88.9068 149.163C92.7306 150.418 96.8915 150.143 100.517 148.397C105.218 146.137 109.794 143.625 114.224 140.872C117.584 138.95 120.943 137.029 124.289 135.134C127.584 133.433 130.657 131.334 133.441 128.885C135.979 126.465 137.602 123.241 138.037 119.761C139.004 112.961 138.305 106.108 138.52 99.281C138.52 98.7972 138.305 98.2463 138.789 97.8431L139.246 98.2597C139.246 103.366 139.246 108.473 139.246 113.579C139.303 116.731 138.849 119.871 137.902 122.878C136.5 126.738 133.84 130.014 130.35 132.178C125.727 135.268 120.822 137.875 116.038 140.697C111.738 143.251 107.371 145.71 102.977 148.088C99.4456 150.057 95.4077 150.927 91.3794 150.588C89.8154 150.416 88.2772 150.06 86.797 149.526C86.4073 149.405 86.0579 149.204 86.0445 148.72C86.521 148.551 87.032 148.503 87.5316 148.58C88.0313 148.658 88.5038 148.858 88.9068 149.163V149.163Z" fill="#00D146"/>
<path d="M88.9068 149.163L86.0042 148.72C80.8036 146.113 75.8852 143.009 70.7922 140.214L70.2546 139.958C69.1723 139.752 68.1544 139.291 67.2848 138.615C62.7965 136.048 58.2813 133.535 53.8467 130.941C53.1066 130.579 52.434 130.093 51.8578 129.503C49.1963 127.632 47.2416 124.92 46.3079 121.803C46.0709 120.809 45.9536 119.789 45.9585 118.766C45.9585 106.672 45.9585 94.5777 45.9585 82.5775C45.7709 80.16 46.3695 77.7467 47.6651 75.6971C47.8379 75.4859 48.0219 75.2841 48.2161 75.0924C48.7133 75.4687 48.552 76.0196 48.6058 76.5168C48.6539 77.6529 48.9776 78.7603 49.5488 79.7435C50.12 80.7267 50.9216 81.5563 51.8847 82.1609C59.5982 86.6627 67.1907 91.3794 75.1193 95.5587C78.3636 97.3331 81.9735 98.3356 85.6682 98.4882C87.3388 98.5162 88.9965 98.1911 90.5328 97.5341C97.8297 94.6987 105.127 91.8229 112.437 89.0143C112.934 88.8262 113.66 88.329 113.942 88.8531C114.224 89.3772 113.405 89.7534 112.961 90.0625C107.586 93.8789 102.13 97.7894 96.5665 101.418C94.4829 102.731 92.7822 104.57 91.6357 106.75C90.4891 108.93 89.9372 111.374 90.0356 113.835C89.955 125.002 90.0356 136.169 90.0356 147.322C90.0356 147.941 90.1969 148.666 89.6862 149.137L88.9068 149.163Z" fill="#C77000"/>
<path d="M51.8578 129.45L70.3084 139.958L68.9646 140.563C68.9646 140.052 68.548 139.958 68.2121 139.757C63.6162 137.069 58.8054 134.704 54.3842 131.694C53.457 131.009 52.3282 130.579 51.8578 129.45Z" fill="#0084E2"/>
<path d="M89.5922 149.163C89.5922 137.338 89.5922 125.512 89.5922 113.687C89.541 109.917 90.919 106.268 93.4489 103.474C94.0874 102.829 94.7949 102.257 95.5587 101.767C101.525 97.6103 107.492 93.4713 113.458 89.3503C113.648 89.2197 113.782 89.0233 113.835 88.7993L108.849 90.7344C102.578 93.1891 96.3068 95.6438 90.0356 98.0985C86.6492 99.4423 83.3166 98.7973 79.957 97.8432C75.9832 96.5029 72.1949 94.6652 68.6824 92.3739C63.3072 89.2293 58.0394 86.0311 52.6507 82.9672C51.2279 82.2192 50.0549 81.0712 49.2765 79.6648C48.4981 78.2584 48.1482 76.6549 48.2699 75.0521L48.8477 73.9502C49.6792 72.3316 50.9509 70.9807 52.5163 70.0531C57.0047 67.1101 61.6946 64.5166 66.277 61.7349C66.3827 61.6434 66.5076 61.5766 66.6424 61.5394C66.7772 61.5022 66.9187 61.4955 67.0564 61.5199C70.725 59.5041 74.2592 57.1928 77.9413 55.0964C80.2577 53.5914 82.6731 52.2445 85.171 51.065C86.2326 50.6215 87.3883 50.5409 88.4634 50.1512C88.8231 49.9774 89.2199 49.8943 89.6191 49.9093C90.0088 49.9093 90.4119 49.9093 90.8016 49.9093C92.602 49.8928 94.3833 50.2784 96.0156 51.0381C100.047 53.1882 104.078 55.513 108.11 57.7572C114.533 61.2645 120.89 64.8928 127.34 68.3599C129.866 69.7037 132.339 71.0475 133.669 73.8427C134.167 74.8774 134.529 75.9659 134.933 77.0409C135.413 78.9552 135.621 80.9276 135.551 82.9C135.551 86.8105 135.551 90.7344 135.551 94.6449C135.551 102.936 135.551 111.228 135.551 119.532C135.6 120.203 135.527 120.877 135.336 121.521C135.019 123.366 134.294 125.116 133.212 126.644C132.131 128.172 130.721 129.438 129.087 130.35C119.232 135.976 109.378 141.661 99.523 147.403C99.0258 147.685 98.4748 147.712 97.991 147.981C95.3975 149.288 92.4457 149.703 89.5922 149.163Z" fill="#FEAE00"/>
<path d="M67.0161 61.5064C63.4146 63.67 59.8401 65.8873 56.2655 68.0105C53.419 69.4724 50.8855 71.4764 48.8074 73.9098C49.0379 72.7839 49.6445 71.7698 50.5275 71.0341C52.1449 69.3368 53.9479 67.8267 55.9027 66.5323C59.0338 64.4091 62.3127 62.5008 65.511 60.512C65.9941 60.2539 66.4922 60.0251 67.0026 59.8267L67.0161 61.5064Z" fill="#0082DF"/>
<path d="M97.9507 147.981L109.749 141.101C116.227 137.365 122.704 133.642 129.181 129.933C130.664 129.072 131.95 127.909 132.957 126.52C133.963 125.132 134.668 123.548 135.027 121.871C135.752 119.453 136.087 116.935 136.021 114.412C136.115 108.903 136.021 103.38 136.021 97.8566C135.983 97.2676 136.019 96.6761 136.128 96.0962C136.169 95.9621 136.237 95.8383 136.33 95.7334C137.015 95.5318 137.298 96.0021 137.553 96.4993L137.835 96.9293C137.405 97.3056 137.58 97.8163 137.58 98.2732C137.58 103.407 137.58 108.553 137.58 113.687C137.606 116.151 137.367 118.611 136.868 121.024C136.378 123.299 135.287 125.401 133.71 127.111C130.811 130.015 127.479 132.449 123.833 134.328C121.521 135.672 119.196 136.894 116.952 138.359C115.272 139.434 113.458 140.281 111.738 141.275C109.749 142.431 107.787 143.627 105.799 144.796C103.728 146.073 101.53 147.132 99.2407 147.954C98.8136 148.017 98.3801 148.026 97.9507 147.981Z" fill="#00C341"/>
<path d="M137.58 96.4725L136.666 95.6797C136.561 95.5854 136.479 95.4688 136.426 95.3385C136.372 95.2083 136.349 95.0677 136.357 94.9271C136.357 92.0917 136.357 89.2428 136.357 86.3939C136.357 81.6368 136.209 76.8797 133.159 72.8214C131.652 70.9015 129.785 69.2946 127.662 68.0911C122.422 65.0004 117.046 62.138 111.725 59.2085C109.037 57.7572 106.511 56.2118 103.863 54.8143C101.377 53.3804 98.7522 52.2009 96.029 51.2935C94.3595 50.6098 92.5889 50.2058 90.7881 50.0975C90.6012 50.0176 90.4001 49.9765 90.1969 49.9765C89.9936 49.9765 89.7925 50.0176 89.6056 50.0975H88.423C89.5923 49.4481 90.9461 49.2114 92.2663 49.4255C94.5176 49.6412 96.7237 50.1938 98.8107 51.065C101.606 52.0997 104.011 53.7526 106.645 55.0965C109.279 56.4403 112.02 57.9319 114.574 59.4235C117.127 60.9152 119.519 62.259 122.032 63.6028C124.545 64.9466 127.206 66.5323 129.718 68.118C132.11 69.5592 134.062 71.6272 135.362 74.098C136.706 76.7431 137.45 79.6522 137.539 82.6178C137.768 87.1599 137.593 91.8229 137.58 96.4725Z" fill="#E57000"/>
<path d="M67.1101 86.582L88.8665 73.762C94.3134 70.5637 99.7559 67.352 105.194 64.1268C105.9 63.7767 106.579 63.3724 107.223 62.9174C107.51 62.6258 107.855 62.3988 108.237 62.2513C108.618 62.1039 109.026 62.0395 109.435 62.0624C109.843 62.0853 110.241 62.1949 110.604 62.3841C110.966 62.5732 111.284 62.8375 111.537 63.1593C108.93 64.7046 106.309 66.2769 103.675 67.8223L86.9314 77.6321L70.3084 87.442C70.0669 87.6431 69.7626 87.7533 69.4483 87.7533C69.1341 87.7533 68.8298 87.6431 68.5883 87.442C68.1189 87.1169 67.6247 86.8294 67.1101 86.582V86.582Z" fill="#B76700"/>
<path d="M96.0425 51.2935C97.5392 51.382 98.9898 51.844 100.262 52.6373C102.117 53.4839 103.917 54.4649 105.637 55.4458C107.357 56.4268 109.427 57.6363 111.335 58.6979C113.243 59.7595 114.789 60.5658 116.495 61.5199C118.484 62.6084 120.433 63.8044 122.462 64.8122C124.491 65.8201 126.104 66.7876 127.837 67.8761C131.64 70.2547 134.771 73.2514 135.9 77.8338C136.409 79.8908 136.658 82.0038 136.639 84.1229C136.559 87.9662 136.639 91.8229 136.639 95.6797H136.411C136.088 95.6125 135.981 95.3706 135.94 95.075C136.076 91.0414 135.982 87.0034 135.658 82.9806C135.624 81.1303 135.399 79.2885 134.986 77.4844C134.906 77.1619 134.825 76.8663 134.502 76.7184C133.548 72.9423 131.089 70.5772 127.689 68.7631C118.377 63.7909 109.172 58.6038 99.9261 53.4973L96.0425 51.2935Z" fill="#DF6D00"/>
<path d="M136.169 95.263L136.438 95.6527C136.438 102.076 136.438 108.513 136.438 114.936C136.439 116.897 136.181 118.849 135.672 120.742C135.564 121.145 135.537 121.629 135.067 121.844C135.51 116.939 135.188 112.007 135.255 107.062C135.255 102.882 135.255 98.7032 135.255 94.5239C135.86 94.403 135.927 94.9539 136.169 95.263Z" fill="#00BC3D"/>
<path d="M136.169 95.263L135.255 94.5508C135.255 89.9953 135.255 85.4263 135.255 80.8708C135.246 79.4582 135.01 78.0562 134.556 76.7184C135.322 76.4899 135.161 77.135 135.255 77.4844C135.846 79.5474 136.153 81.6812 136.169 83.8272C136.169 87.1329 136.599 90.4387 136.451 93.7579C136.405 94.2675 136.31 94.7714 136.169 95.263Z" fill="#DD6C00"/>
<path d="M89.619 50.0974C89.7772 49.9431 89.9893 49.8567 90.2103 49.8567C90.4312 49.8567 90.6434 49.9431 90.8016 50.0974H89.619Z" fill="#EF7500"/>
</g>
<defs>
<clipPath id="clip0_2_588">
<rect width="994.423" height="200" fill="white"/>
</clipPath>
</defs>
</svg>
