<svg width="418" height="200" viewBox="0 0 418 200" fill="none" xmlns="http://www.w3.org/2000/svg">
<g clip-path="url(#clip0_2_271)">
<path d="M378.33 97.3642C377.356 98.5604 376.382 99.7705 375.395 100.967C360.665 118.937 344.141 134.794 324.084 146.617C313.708 152.737 302.664 157.285 290.702 158.898C273.037 161.277 257.055 156.868 242.812 146.144C229.543 136.129 219.751 123.18 211.392 109.006C205.354 98.6114 200.064 87.7998 195.563 76.6535C195.243 75.8745 194.881 75.1095 194.325 73.8716C193.977 74.8314 193.755 75.2625 193.602 75.8189C188.559 93.2241 179.333 109.131 166.729 122.15C154.168 135.175 137.999 144.146 120.3 147.91C116.128 148.8 111.955 149.412 107.782 149.983C112.108 148.592 116.517 147.201 120.746 145.573C136.477 139.231 149.371 129.035 160.108 116.016C170.407 103.437 178.365 89.1102 183.601 73.7186C187.078 63.7179 189.818 53.4529 192.781 43.6609C194.297 47.5694 195.966 52.0759 197.775 56.513C204.543 73.7409 213.142 90.1924 223.423 105.585C231.769 117.811 241.338 128.994 254.023 137.103C263.454 143.139 273.677 146.464 284.971 145.685C293.92 144.905 302.557 142.017 310.175 137.256C318.878 131.833 326.829 125.285 333.82 117.783C348.896 102.103 363.069 85.5806 376.271 68.294C389.415 51.297 402.184 34.0357 412.963 15.4392C414.265 12.9591 415.705 10.5537 417.275 8.23422C400.046 72.1608 382.808 136.083 365.561 200H365.241L378.761 97.7537L378.33 97.3642Z" fill="#111827"/>
<path d="M35.6909 86.988C38.5748 114.445 41.4632 141.901 44.3564 169.358H44.1477L0 3.40775H0.222547C3.12956 8.55414 5.93922 13.7701 8.9436 18.8887C17.9082 34.1634 27.7395 48.9127 38.3893 63.0642C46.86 74.3028 55.5532 85.3189 64.6638 96.0985C74.5114 107.671 85.6805 117.894 99.2698 125.085C106.057 128.688 113.179 131.038 121.01 130.76C115.717 131.892 110.268 132.104 104.903 131.386C86.5568 129.133 71.521 119.883 57.6813 108.408C50.3593 102.337 43.6211 95.5939 37.5548 88.2676C37.1514 87.7669 36.6924 87.3218 36.2473 86.8767L35.6909 86.988Z" fill="#111827"/>
<path d="M266.806 57.8065C257.612 69.1147 249.6 81.0905 234.94 85.2354C254.83 65.3453 268.558 42.3256 272.495 13.9648C272.495 16.1903 272.495 18.4157 272.495 20.6273C272.495 22.8389 272.495 25.12 272.662 27.3733C273.593 45.6638 275.638 63.8014 281.508 81.2713C285.569 93.3723 291.244 104.541 301.203 113.151C296.85 111.941 288.407 105.557 283.399 99.701C278.441 93.9333 274.529 87.3431 271.841 80.2281C269.216 72.9988 267.524 65.4641 266.806 57.8065V57.8065Z" fill="#111827"/>
<path d="M139.565 79.1988C128.521 75.6659 122.248 66.6806 115.182 57.8065C114.834 60.0459 114.556 61.8819 114.25 63.704C111.997 76.8482 106.433 88.1563 95.862 96.627C93.7756 98.2961 91.4389 99.6731 89.2134 101.175L88.6432 100.536C89.5594 99.867 90.4371 99.1472 91.272 98.3796C98.3379 91.0634 102.399 82.1337 105.362 72.5502C108.277 62.5864 110.022 52.3173 110.564 41.9501C110.787 38.2641 110.94 34.5782 111.246 30.8227C114.194 50.8102 124.014 66.6667 139.565 79.1988Z" fill="#111827"/>
<path d="M308.784 54.6491C323.555 48.0562 331.303 35.5658 338.229 22.4355C340.928 17.303 343.153 11.9341 345.393 7.13541C345.031 10.4597 344.335 14.2847 344.266 18.1237C344.189 22.0786 344.44 26.0331 345.017 29.9465C345.626 33.8474 346.509 37.7006 347.66 41.4772C348.773 45.2326 350.289 48.8629 351.749 52.8688C348.328 50.2993 345.72 46.7981 344.238 42.7846C342.625 39.0013 341.331 35.065 339.732 30.7532C333.069 43.5218 323.694 52.4237 308.784 54.6491Z" fill="#111827"/>
<path d="M211.795 47.2912C206.472 45.3654 201.823 41.9345 198.414 37.4157C195.013 32.7944 192.568 27.5408 191.223 21.9626C187.357 28.4164 184.13 34.8564 177.314 38.2641C185.534 26.8586 190.778 14.4377 190.737 0C192.614 11.0161 195.007 21.7261 199.833 31.7407C202.501 37.8169 206.607 43.1536 211.795 47.2912Z" fill="#111827"/>
<path d="M84.9155 30.7671C81.007 28.792 78.9067 25.2034 76.2223 21.3923C74.6366 28.6529 71.5627 34.4391 64.6359 38.0833C72.6754 29.7378 74.0942 19.4311 75.4573 10.0563C76.3819 13.5871 77.5246 17.0572 78.8789 20.4465C80.6935 23.9985 82.7089 27.4443 84.9155 30.7671V30.7671Z" fill="#111827"/>
</g>
<defs>
<clipPath id="clip0_2_271">
<rect width="417.275" height="200" fill="white"/>
</clipPath>
</defs>
</svg>
