<svg width="405" height="200" viewBox="0 0 405 200" fill="none" xmlns="http://www.w3.org/2000/svg">
<g clip-path="url(#clip0_2_386)">
<path d="M140.919 81.5414C140.919 95.5403 136.028 100.296 125.721 100.296C115.414 100.296 110.402 95.5403 110.402 81.5414V23.1474C110.402 9.14846 115.427 4.39233 125.721 4.39233C136.015 4.39233 140.919 9.14846 140.919 23.1474V42.5626H129.817V21.827C129.817 16.5454 128.631 14.8208 125.721 14.8208C122.811 14.8208 121.49 16.5454 121.49 21.827V82.8618C121.49 88.1433 122.811 89.8679 125.721 89.8679C128.631 89.8679 129.817 88.1433 129.817 82.8618V63.3118H140.919V81.5414Z" fill="#F3F4F6"/>
<path d="M178.038 23.1474V81.5414C178.038 95.5403 173.026 100.296 162.854 100.296C152.681 100.296 147.534 95.5403 147.534 81.5414V23.1474C147.534 9.14846 152.546 4.39233 162.854 4.39233C173.161 4.39233 178.038 9.14846 178.038 23.1474ZM166.95 21.827C166.95 16.5454 165.764 14.8208 162.854 14.8208C159.943 14.8208 158.623 16.5454 158.623 21.827V82.8618C158.623 88.1433 159.687 89.8679 162.854 89.8679C165.629 89.8679 166.95 88.1568 166.95 82.8618V21.827Z" fill="#F3F4F6"/>
<path d="M215.292 5.18729V81.5414C215.292 95.5403 210.28 100.296 200.108 100.296C189.935 100.296 184.788 95.5403 184.788 81.5414V5.18729H195.891V82.8618C195.891 88.1434 196.942 89.868 200.121 89.868C202.897 89.868 204.217 88.1434 204.217 82.8618V5.18729H215.306H215.292Z" fill="#F3F4F6"/>
<path d="M233.131 67.7984V99.5015H222.029V5.18729H235.637C246.739 5.18729 252.546 10.7384 252.546 26.7179V47.1975C252.546 58.0302 249.38 63.972 243.694 66.3568C246.066 67.8119 247.4 70.8434 248.451 76.0038C249.245 79.4395 253.207 99.515 253.207 99.515H241.444L236.163 67.8119H233.131V67.7984ZM233.131 15.7505V58.0302H235.637C239.868 58.0302 241.444 54.9852 241.444 47.8577V26.4619C241.444 19.4557 240.124 15.764 235.637 15.764H233.131V15.7505Z" fill="#F3F4F6"/>
<path d="M276.192 15.7505V99.515H265.104V15.7505H255.322V5.18729H285.974V15.7505H276.192Z" fill="#F3F4F6"/>
<path d="M319.523 81.5414C319.523 95.1495 313.312 100.296 304.46 100.296C294.153 100.296 289.006 95.0148 289.006 82.0668V68.5934H300.108V83.1312C300.108 88.2781 301.563 89.8679 304.338 89.8679C307.505 89.8679 308.434 87.0924 308.434 82.2015V78.1056C308.434 71.0994 307.114 68.4586 299.313 56.9658C292.967 47.3188 289.41 39.5311 289.41 29.3587V24.3465C289.41 10.6036 294.961 4.39233 304.729 4.39233C313.581 4.39233 319.658 7.69333 319.658 24.3465V36.8903H308.825V23.1474C308.825 17.4616 307.895 14.8208 304.729 14.8208C301.563 14.8208 300.364 17.0709 300.364 23.1474V27.2433C300.364 35.8259 302.479 40.1913 308.812 49.7036C316.074 60.5362 319.51 66.0873 319.51 76.7852V81.5414H319.523Z" fill="#F3F4F6"/>
<path d="M336.836 5.18729H325.734V99.515H336.836V5.18729Z" fill="#F3F4F6"/>
<path d="M404.204 99.515H380.827V5.18729H404.204V15.6157H391.916V46.5373H402.614V55.9149H391.916V89.073H404.204V99.515Z" fill="#F3F4F6"/>
<path d="M355.457 5.18729H343.573V99.5015H354.702L354.77 77.8766C354.77 77.8766 357.33 71.7192 354.837 68.4047C352.452 65.2115 350.121 65.9122 350.121 60.7249C350.121 60.5093 350.121 60.2803 350.135 60.0377C350.337 54.0825 352.008 28.2808 352.142 26.5562C352.277 24.8316 352.978 24.8316 352.978 26.5562C352.978 28.2808 353.045 53.8804 352.978 55.6184C352.978 57.1409 354.918 57.1409 354.945 55.6184C354.985 54.0959 355.699 28.2943 355.74 26.5562C355.767 24.8316 356.535 24.8316 356.562 26.5562C356.602 28.2943 357.087 54.0959 357.114 55.6184C357.141 57.1409 359.256 57.1409 359.297 55.6184C359.364 53.3414 359.647 28.2943 359.714 26.5562C359.782 24.8316 360.509 24.7912 360.577 26.5562C360.644 28.3212 361.304 53.9477 361.331 55.5376C361.372 57.1275 363.339 57.1275 363.339 55.605C363.271 53.5301 363.339 28.2808 363.339 26.5427C363.339 24.8046 364.201 24.7777 364.309 26.4349C364.417 28.0922 365.899 54.069 366.182 60.159C366.182 60.3207 366.182 60.4689 366.182 60.6171V60.8596C366.128 66.2086 362.369 65.7505 360.913 68.7416C359.391 71.854 360.496 75.6669 360.846 76.7718L361.196 77.8766V98.9625C369.159 97.1706 374.091 90.6898 374.091 76.6505V28.3077C374.091 11.5333 368.149 5.18729 355.47 5.18729" fill="#F3F4F6"/>
<path d="M20.3988 0H66.9361C78.2269 0 87.3349 9.09458 87.3349 20.3988V177.769C87.3349 189.073 78.2404 198.168 66.9361 198.168H20.3988C9.10806 198.168 0 189.073 0 177.769V20.3988C0 9.09458 9.09458 0 20.3988 0Z" fill="white"/>
<path d="M55.3759 36.3244L55.4433 36.9981C56.8445 37.8335 57.5856 38.4937 59.0137 39.4233C62.7863 41.8216 67.4077 46.0658 66.8283 60.644C67.9197 63.8372 68.3913 70.062 69.3479 72.0426C71.3015 75.9634 72.6354 78.5233 73.2148 82.1881C73.2148 82.1881 73.7941 87.9278 74.5217 88.3455C78.4155 89.2347 77.2972 89.6254 77.8362 90.3261C78.4425 91.094 80.706 91.0536 80.706 93.169C81.5009 94.2199 82.1072 95.2708 82.5249 96.4295V20.5605C82.5249 11.8836 75.5052 4.86392 66.8553 4.86392H51.8863C54.2846 5.72622 55.6588 6.75021 56.4538 8.34007C58.367 8.50176 60.6306 12.8133 57.087 19.2266C58.65 20.318 57.4373 21.9078 56.319 23.7268C55.9687 24.3061 55.6184 25.3571 54.5675 25.2897C53.1663 28.2 51.536 30.9351 50.2964 31.0967C49.9461 31.5414 49.6901 32.7944 50.229 33.3603C52.048 34.1956 54.2441 35.2735 55.3624 36.3244" fill="#C8202F"/>
<path d="M69.3614 193.102L69.1997 193.129C76.0577 188.952 71.8135 181.029 70.5066 176.368L70.7626 175.573C71.1129 174.939 70.3719 173.43 70.3719 173.43C69.5096 172.73 69.3209 168.836 68.8763 167.044C68.1487 164.134 70.1832 159.068 70.1832 157.343C70.1832 155.618 68.8763 153.261 66.5185 150.256C65.9391 149.582 64.2145 134.869 62.692 131.137C60.5497 126.004 59.9165 126.826 57.3565 120.668C55.4163 116.357 56.9388 110.011 52.533 95.2573L53.5166 94.3277C53.5166 94.3277 50 81.5009 48.8548 77.9844C47.7365 74.4678 45.6615 74.2522 45.6615 74.2522L45.7828 72.4333C45.9445 71.8944 50.0539 61.1964 50.4042 60.8461C50.4311 60.6306 56.346 56.575 56.4403 57.1813C56.9119 59.7952 59.2158 73.107 60.2129 75.2223C61.1964 77.3646 64.6187 83.8723 66.1816 87.9278C60.0781 89.4233 55.5241 94.9475 55.5241 101.496C55.5241 109.216 61.7758 115.508 69.5096 115.508C75.4109 115.508 80.5174 111.843 82.5653 106.669L82.5384 177.621C82.5384 185.476 76.893 191.956 69.3614 193.102" fill="#C8202F"/>
<path d="M46.9819 4.85043C41.8755 6.83103 41.1749 9.02721 40.9863 16.1142C40.124 16.2086 38.332 15.3732 38.9383 19.6847C38.9383 19.6847 39.2617 22.5546 40.4069 22.083C39.5042 28.3347 40.2183 29.9111 36.0684 30.3557C35.1792 30.45 34.0878 30.5174 32.754 30.5847L32.3363 31.1641C26.6505 31.703 23.8345 31.3393 20.1698 36.1762C18.7685 38.0221 17.2595 40.6494 15.4136 44.3816C15.4136 44.3816 13.716 48.5583 13.204 50.2829C11.5737 53.6917 7.58556 61.2638 6.41337 66.1142C6.02264 67.7715 5.29507 68.2835 6.346 70.6817C7.90892 74.131 5.32202 75.0202 14.201 74.7642V76.8122C14.201 76.8122 11.8432 78.8601 11.3312 80.0727C10.8461 81.3123 9.48531 87.4158 9.53921 90.3126C9.70089 97.8712 15.8583 104.19 17.6772 111.735L21.8001 112.315C24.0366 117.448 33.8049 131.299 36.0684 133.535C36.0954 133.562 36.1358 133.603 36.1628 133.63C36.6748 134.937 39.1943 136.567 40.6629 138.197C41.5521 139.06 45.675 143.533 51.1587 147.777C53.1797 149.34 55.3355 150.876 57.6125 152.183C57.5451 152.156 58.9464 154.958 59.6605 157.262C56.8445 159.526 62.3147 163.676 63.972 170.547C64.0663 171.477 62.3686 172.393 64.9016 174.67C64.74 185.044 61.5872 190.474 66.8822 193.344H20.1698C11.6815 193.155 4.8235 186.19 4.8235 177.674V20.5605C4.8235 11.9644 11.6815 5.03906 20.1698 4.85043H46.9819Z" fill="#2E4488"/>
<path fill-rule="evenodd" clip-rule="evenodd" d="M16.2355 154.581V182.296H19.2266C19.2266 175.155 19.4018 167.987 18.9572 160.94L22.4064 182.296H26.7044V154.581H23.7402C23.6863 161.924 23.9423 169.173 24.4408 176.341L20.8569 154.581H16.2355V154.581Z" fill="white"/>
<path fill-rule="evenodd" clip-rule="evenodd" d="M42.1989 154.568L39.2482 182.309H42.913L43.398 176.704H45.7963L46.2813 182.309H49.9326L47.0763 154.568H42.2123H42.1989ZM44.5971 162.396L45.5268 173.444H43.6809L44.6106 162.396H44.5971Z" fill="white"/>
<path d="M29.0218 154.581V182.282H34.3843C35.26 182.282 38.2511 181.514 38.2511 177.674V172.137C38.2511 171.558 38.2511 169.725 36.6613 168.647C37.6583 168.647 38.2511 166.707 38.2511 164.956V159.027C38.2511 156.71 36.8095 154.581 33.9127 154.581H29.0218V154.581ZM32.3228 158.125H33.9531C34.6942 158.125 34.9501 158.946 34.9501 159.58V166.033C34.9501 167.138 34.5864 167.219 33.8319 167.219H32.3228V158.125ZM32.3228 170.237H33.9531C34.6942 170.237 34.9501 171.059 34.9501 171.692V177.459C34.9501 178.213 34.5729 178.779 33.8319 178.779H32.3228V170.237V170.237Z" fill="white"/>
<path d="M117.718 146.389V166.559H110.657V106.562H119.307C126.368 106.562 130.059 110.092 130.059 120.264V133.293C130.059 140.178 128.038 143.964 124.427 145.473C125.936 146.403 126.785 148.329 127.459 151.603C127.957 153.786 130.49 166.559 130.49 166.559H123.013L119.644 146.389H117.718V146.389ZM117.718 113.285V140.178H119.321C122.016 140.178 123.013 138.251 123.013 133.711V120.102C123.013 115.643 122.177 113.298 119.321 113.298H117.718V113.285Z" fill="#F3F4F6"/>
<path d="M157.559 166.559H142.684V106.548H157.559V113.191H149.744V132.862H156.548V138.817H149.744V159.916H157.559V166.559Z" fill="#F3F4F6"/>
<path d="M187.726 155.133C187.726 163.783 183.778 167.071 178.146 167.071C171.584 167.071 168.31 163.702 168.31 155.47V146.901H175.371V156.144C175.371 159.418 176.3 160.428 178.065 160.428C180.086 160.428 180.666 158.663 180.666 155.551V152.951C180.666 148.491 179.83 146.82 174.872 139.504C170.843 133.374 168.566 128.416 168.566 121.935V118.742C168.566 109.997 172.096 106.05 178.321 106.05C183.953 106.05 187.82 108.151 187.82 118.742V126.731H180.935V117.987C180.935 114.376 180.342 112.692 178.335 112.692C176.327 112.692 175.559 114.12 175.559 117.987V120.587C175.559 126.058 176.906 128.82 180.935 134.883C185.556 141.768 187.739 145.298 187.739 152.115V155.147L187.726 155.133Z" fill="#F3F4F6"/>
<path d="M211.762 113.271V166.559H204.702V113.271H198.477V106.548H217.974V113.271H211.762Z" fill="#F3F4F6"/>
<path d="M238.655 153.948H233.104L232.175 166.559H225.115L231.083 106.562H241.175L246.888 166.559H239.491L238.655 153.948ZM233.616 147.305H238.157L237.483 137.726C237.065 133.266 236.311 119.146 235.799 111.25C235.3 119.065 234.546 133.023 234.29 137.726L233.616 147.305V147.305Z" fill="#F3F4F6"/>
<path d="M277.055 106.548V155.12C277.055 164.026 273.862 167.057 267.394 167.057C260.927 167.057 257.653 164.039 257.653 155.12V106.548H264.713V155.969C264.713 159.337 265.387 160.428 267.408 160.428C269.173 160.428 270.008 159.337 270.008 155.969V106.548H277.068H277.055Z" fill="#F3F4F6"/>
<path d="M296.807 146.389V166.559H289.747V106.562H298.397C305.457 106.562 309.148 110.092 309.148 120.264V133.293C309.148 140.178 307.127 143.964 303.517 145.473C305.026 146.403 305.874 148.329 306.548 151.603C307.047 153.786 309.58 166.559 309.58 166.559H302.102L298.733 146.389H296.807V146.389ZM296.807 113.285V140.178H298.41C301.105 140.178 302.102 138.251 302.102 133.711V120.102C302.102 115.643 301.266 113.298 298.41 113.298H296.807V113.285Z" fill="#F3F4F6"/>
<path d="M333.104 153.948H327.553L326.624 166.559H319.563L325.532 106.562H335.624L341.337 166.559H333.94L333.104 153.948ZM328.065 147.305H332.606L331.932 137.726C331.514 133.266 330.76 119.146 330.248 111.25C329.749 119.065 328.995 133.023 328.739 137.726L328.065 147.305V147.305Z" fill="#F3F4F6"/>
<path d="M358.394 166.559H352.088V106.562H361.749L369.146 158.165C368.23 147.332 367.044 129.345 367.044 120.763V106.562H373.349V166.559H364.268L357.383 116.977C357.976 127.149 358.394 139.747 358.394 146.133V166.559Z" fill="#F3F4F6"/>
<path d="M397.723 113.271V166.559H390.663V113.271H384.452V106.548H403.948V113.271H397.723Z" fill="#F3F4F6"/>
<path d="M200.377 181.157V180.22H206.923V181.157H204.179V188.947H203.122V181.157H200.377Z" fill="#F3F4F6"/>
<path d="M222.487 184.583C222.487 185.504 222.321 186.299 221.988 186.97C221.656 187.64 221.2 188.157 220.62 188.521C220.041 188.884 219.379 189.066 218.634 189.066C217.89 189.066 217.228 188.884 216.649 188.521C216.069 188.157 215.613 187.64 215.281 186.97C214.948 186.299 214.782 185.504 214.782 184.583C214.782 183.663 214.948 182.867 215.281 182.197C215.613 181.526 216.069 181.009 216.649 180.646C217.228 180.282 217.89 180.1 218.634 180.1C219.379 180.1 220.041 180.282 220.62 180.646C221.2 181.009 221.656 181.526 221.988 182.197C222.321 182.867 222.487 183.663 222.487 184.583ZM221.464 184.583C221.464 183.828 221.338 183.19 221.085 182.67C220.835 182.15 220.495 181.757 220.066 181.49C219.64 181.222 219.163 181.089 218.634 181.089C218.106 181.089 217.627 181.222 217.198 181.49C216.772 181.757 216.433 182.15 216.18 182.67C215.93 183.19 215.805 183.828 215.805 184.583C215.805 185.339 215.93 185.977 216.18 186.497C216.433 187.017 216.772 187.41 217.198 187.677C217.627 187.944 218.106 188.078 218.634 188.078C219.163 188.078 219.64 187.944 220.066 187.677C220.495 187.41 220.835 187.017 221.085 186.497C221.338 185.977 221.464 185.339 221.464 184.583ZM224.264 188.947V180.22H227.213C227.894 180.22 228.454 180.336 228.892 180.569C229.329 180.799 229.653 181.116 229.863 181.519C230.073 181.923 230.179 182.382 230.179 182.896C230.179 183.41 230.073 183.866 229.863 184.264C229.653 184.661 229.33 184.974 228.896 185.201C228.461 185.426 227.906 185.538 227.23 185.538H224.843V184.583H227.196C227.661 184.583 228.036 184.515 228.321 184.379C228.607 184.242 228.815 184.049 228.943 183.799C229.073 183.546 229.139 183.245 229.139 182.896C229.139 182.546 229.073 182.241 228.943 181.98C228.812 181.718 228.603 181.517 228.316 181.374C228.029 181.23 227.65 181.157 227.179 181.157H225.321V188.947H224.264ZM228.372 185.026L230.519 188.947H229.292L227.179 185.026H228.372ZM239.303 184.583C239.303 185.504 239.137 186.299 238.805 186.97C238.472 187.64 238.016 188.157 237.437 188.521C236.857 188.884 236.195 189.066 235.451 189.066C234.707 189.066 234.045 188.884 233.465 188.521C232.886 188.157 232.43 187.64 232.097 186.97C231.765 186.299 231.599 185.504 231.599 184.583C231.599 183.663 231.765 182.867 232.097 182.197C232.43 181.526 232.886 181.009 233.465 180.646C234.045 180.282 234.707 180.1 235.451 180.1C236.195 180.1 236.857 180.282 237.437 180.646C238.016 181.009 238.472 181.526 238.805 182.197C239.137 182.867 239.303 183.663 239.303 184.583ZM238.28 184.583C238.28 183.828 238.154 183.19 237.901 182.67C237.651 182.15 237.312 181.757 236.883 181.49C236.457 181.222 235.979 181.089 235.451 181.089C234.922 181.089 234.444 181.222 234.015 181.49C233.589 181.757 233.249 182.15 232.996 182.67C232.746 183.19 232.621 183.828 232.621 184.583C232.621 185.339 232.746 185.977 232.996 186.497C233.249 187.017 233.589 187.41 234.015 187.677C234.444 187.944 234.922 188.078 235.451 188.078C235.979 188.078 236.457 187.944 236.883 187.677C237.312 187.41 237.651 187.017 237.901 186.497C238.154 185.977 238.28 185.339 238.28 184.583Z" fill="#F3F4F6"/>
<path d="M273.243 180.22V188.947H272.22L267.464 182.095H267.379V188.947H266.322V180.22H267.345L272.118 187.089H272.203V180.22H273.243Z" fill="#F3F4F6"/>
<path d="M283.441 181.157V180.22H289.987V181.157H287.242V188.947H286.186V181.157H283.441Z" fill="#F3F4F6"/>
<path d="M305.551 184.583C305.551 185.504 305.384 186.299 305.052 186.97C304.72 187.64 304.264 188.157 303.684 188.521C303.105 188.884 302.443 189.066 301.698 189.066C300.954 189.066 300.292 188.884 299.713 188.521C299.133 188.157 298.677 187.64 298.345 186.97C298.012 186.299 297.846 185.504 297.846 184.583C297.846 183.663 298.012 182.867 298.345 182.197C298.677 181.526 299.133 181.009 299.713 180.646C300.292 180.282 300.954 180.1 301.698 180.1C302.443 180.1 303.105 180.282 303.684 180.646C304.264 181.009 304.72 181.526 305.052 182.197C305.384 182.867 305.551 183.663 305.551 184.583ZM304.528 184.583C304.528 183.828 304.401 183.19 304.149 182.67C303.899 182.15 303.559 181.757 303.13 181.49C302.704 181.222 302.227 181.089 301.698 181.089C301.17 181.089 300.691 181.222 300.262 181.49C299.836 181.757 299.497 182.15 299.244 182.67C298.994 183.19 298.869 183.828 298.869 184.583C298.869 185.339 298.994 185.977 299.244 186.497C299.497 187.017 299.836 187.41 300.262 187.677C300.691 187.944 301.17 188.078 301.698 188.078C302.227 188.078 302.704 187.944 303.13 187.677C303.559 187.41 303.899 187.017 304.149 186.497C304.401 185.977 304.528 185.339 304.528 184.583Z" fill="#F3F4F6"/>
<path d="M403.948 182.431H322.42V185.947H403.948V182.431Z" fill="#F3F4F6"/>
<path d="M192.185 182.431H110.657V185.947H192.185V182.431Z" fill="#F3F4F6"/>
</g>
<defs>
<clipPath id="clip0_2_386">
<rect width="404.204" height="200" fill="white"/>
</clipPath>
</defs>
</svg>
