<svg width="405" height="200" viewBox="0 0 405 200" fill="none" xmlns="http://www.w3.org/2000/svg">
<g clip-path="url(#clip0_3_164)">
<path d="M140.919 81.5414C140.919 95.5403 136.028 100.296 125.721 100.296C115.414 100.296 110.401 95.5403 110.401 81.5414V23.1474C110.401 9.14846 115.427 4.39233 125.721 4.39233C136.015 4.39233 140.919 9.14846 140.919 23.1474V42.5626H129.817V21.827C129.817 16.5454 128.631 14.8208 125.721 14.8208C122.811 14.8208 121.49 16.5454 121.49 21.827V82.8618C121.49 88.1433 122.811 89.8679 125.721 89.8679C128.631 89.8679 129.817 88.1433 129.817 82.8618V63.3118H140.919V81.5414Z" fill="#111827"/>
<path d="M178.038 23.1474V81.5414C178.038 95.5403 173.026 100.296 162.854 100.296C152.681 100.296 147.534 95.5403 147.534 81.5414V23.1474C147.534 9.14846 152.546 4.39233 162.854 4.39233C173.161 4.39233 178.038 9.14846 178.038 23.1474ZM166.95 21.827C166.95 16.5454 165.764 14.8208 162.854 14.8208C159.943 14.8208 158.623 16.5454 158.623 21.827V82.8618C158.623 88.1433 159.687 89.8679 162.854 89.8679C165.629 89.8679 166.95 88.1568 166.95 82.8618V21.827Z" fill="#111827"/>
<path d="M215.292 5.18726V81.5413C215.292 95.5403 210.28 100.296 200.108 100.296C189.935 100.296 184.788 95.5403 184.788 81.5413V5.18726H195.891V82.8617C195.891 88.1433 196.942 89.8679 200.121 89.8679C202.897 89.8679 204.217 88.1433 204.217 82.8617V5.18726H215.306H215.292Z" fill="#111827"/>
<path d="M233.131 67.7984V99.5015H222.029V5.18726H235.637C246.739 5.18726 252.546 10.7383 252.546 26.7178V47.1975C252.546 58.0302 249.38 63.972 243.694 66.3568C246.066 67.8119 247.4 70.8434 248.451 76.0037C249.245 79.4395 253.207 99.5149 253.207 99.5149H241.444L236.163 67.8119H233.131V67.7984ZM233.131 15.7504V58.0302H235.637C239.868 58.0302 241.444 54.9852 241.444 47.8577V26.4618C241.444 19.4556 240.124 15.7639 235.637 15.7639H233.131V15.7504Z" fill="#111827"/>
<path d="M276.192 15.7504V99.5149H265.104V15.7504H255.322V5.18726H285.974V15.7504H276.192Z" fill="#111827"/>
<path d="M319.523 81.5414C319.523 95.1495 313.312 100.296 304.46 100.296C294.152 100.296 289.006 95.0148 289.006 82.0668V68.5934H300.108V83.1312C300.108 88.2781 301.563 89.8679 304.338 89.8679C307.505 89.8679 308.434 87.0924 308.434 82.2015V78.1056C308.434 71.0994 307.114 68.4586 299.313 56.9658C292.967 47.3188 289.41 39.5311 289.41 29.3587V24.3465C289.41 10.6036 294.961 4.39233 304.729 4.39233C313.581 4.39233 319.658 7.69333 319.658 24.3465V36.8903H308.825V23.1474C308.825 17.4616 307.895 14.8208 304.729 14.8208C301.563 14.8208 300.364 17.0709 300.364 23.1474V27.2433C300.364 35.8259 302.479 40.1913 308.812 49.7036C316.074 60.5362 319.51 66.0873 319.51 76.7852V81.5414H319.523Z" fill="#111827"/>
<path d="M336.836 5.18726H325.734V99.5149H336.836V5.18726Z" fill="#111827"/>
<path d="M404.204 99.5149H380.827V5.18726H404.204V15.6157H391.916V46.5373H402.614V55.9148H391.916V89.073H404.204V99.5149Z" fill="#111827"/>
<path d="M355.457 5.18726H343.573V99.5015H354.702L354.77 77.8766C354.77 77.8766 357.33 71.7192 354.837 68.4047C352.452 65.2115 350.121 65.9121 350.121 60.7248C350.121 60.5093 350.121 60.2802 350.135 60.0377C350.337 54.0824 352.007 28.2808 352.142 26.5562C352.277 24.8316 352.978 24.8316 352.978 26.5562C352.978 28.2808 353.045 53.8803 352.978 55.6184C352.978 57.1409 354.918 57.1409 354.945 55.6184C354.985 54.0959 355.699 28.2942 355.74 26.5562C355.767 24.8316 356.535 24.8316 356.562 26.5562C356.602 28.2942 357.087 54.0959 357.114 55.6184C357.141 57.1409 359.256 57.1409 359.297 55.6184C359.364 53.3414 359.647 28.2942 359.714 26.5562C359.782 24.8316 360.509 24.7911 360.577 26.5562C360.644 28.3212 361.304 53.9477 361.331 55.5376C361.372 57.1274 363.339 57.1274 363.339 55.6049C363.271 53.53 363.339 28.2808 363.339 26.5427C363.339 24.8046 364.201 24.7777 364.309 26.4349C364.417 28.0921 365.899 54.069 366.182 60.159C366.182 60.3206 366.182 60.4689 366.182 60.6171V60.8596C366.128 66.2085 362.369 65.7504 360.913 68.7416C359.391 71.8539 360.496 75.6669 360.846 76.7717L361.196 77.8766V98.9625C369.159 97.1705 374.09 90.6898 374.09 76.6505V28.3077C374.09 11.5333 368.149 5.18726 355.47 5.18726" fill="#111827"/>
<path d="M55.3759 36.3244L55.4433 36.9981C56.8445 37.8334 57.5855 38.4936 59.0137 39.4233C62.7863 41.8216 67.4077 46.0657 66.8283 60.644C67.9197 63.8372 68.3913 70.062 69.3479 72.0425C71.3015 75.9633 72.6354 78.5233 73.2148 82.1881C73.2148 82.1881 73.7941 87.9278 74.5217 88.3454C78.4155 89.2347 77.2972 89.6254 77.8361 90.326C78.4425 91.094 80.706 91.0536 80.706 93.1689C81.5009 94.2199 82.1072 95.2708 82.5249 96.4295V20.5605C82.5249 11.8836 75.5052 4.86389 66.8553 4.86389H51.8863C54.2845 5.72619 55.6588 6.75018 56.4538 8.34004C58.367 8.50173 60.6305 12.8132 57.087 19.2266C58.6499 20.3179 57.4373 21.9078 56.319 23.7267C55.9687 24.3061 55.6184 25.357 54.5675 25.2897C53.1662 28.1999 51.536 30.935 50.2964 31.0967C49.9461 31.5413 49.6901 32.7944 50.229 33.3603C52.0479 34.1956 54.2441 35.2735 55.3624 36.3244" fill="#111827"/>
<path d="M69.3613 193.102L69.1997 193.129C76.0577 188.952 71.8135 181.029 70.5066 176.368L70.7626 175.573C71.1129 174.939 70.3719 173.43 70.3719 173.43C69.5095 172.73 69.3209 168.836 68.8763 167.044C68.1487 164.134 70.1832 159.068 70.1832 157.343C70.1832 155.618 68.8763 153.261 66.5184 150.256C65.9391 149.582 64.2145 134.869 62.692 131.137C60.5497 126.004 59.9164 126.826 57.3565 120.668C55.4163 116.357 56.9388 110.011 52.533 95.2573L53.5166 94.3277C53.5166 94.3277 50 81.5009 48.8547 77.9844C47.7364 74.4678 45.6615 74.2522 45.6615 74.2522L45.7828 72.4333C45.9445 71.8944 50.0539 61.1964 50.4042 60.8461C50.4311 60.6306 56.346 56.575 56.4403 57.1813C56.9119 59.7952 59.2158 73.107 60.2129 75.2223C61.1964 77.3646 64.6187 83.8723 66.1816 87.9278C60.0781 89.4233 55.5241 94.9475 55.5241 101.496C55.5241 109.216 61.7758 115.508 69.5095 115.508C75.4109 115.508 80.5174 111.843 82.5653 106.669L82.5384 177.621C82.5384 185.476 76.893 191.956 69.3613 193.102" fill="#111827"/>
<path d="M46.9819 4.85043C41.8755 6.83103 41.1749 9.02721 40.9862 16.1142C40.1239 16.2086 38.332 15.3732 38.9383 19.6847C38.9383 19.6847 39.2616 22.5546 40.4069 22.083C39.5042 28.3347 40.2183 29.9111 36.0684 30.3557C35.1792 30.45 34.0878 30.5174 32.754 30.5847L32.3363 31.1641C26.6505 31.703 23.8345 31.3393 20.1698 36.1762C18.7685 38.0221 17.2595 40.6494 15.4136 44.3816C15.4136 44.3816 13.716 48.5583 13.204 50.2829C11.5737 53.6917 7.58555 61.2638 6.41335 66.1142C6.02262 67.7715 5.29506 68.2835 6.34599 70.6817C7.90891 74.131 5.322 75.0202 14.201 74.7642V76.8122C14.201 76.8122 11.8432 78.8601 11.3312 80.0727C10.8461 81.3123 9.4853 87.4158 9.5392 90.3126C9.70088 97.8712 15.8582 104.19 17.6772 111.735L21.8 112.315C24.0366 117.448 33.8049 131.299 36.0684 133.535C36.0954 133.562 36.1358 133.603 36.1627 133.63C36.6747 134.937 39.1943 136.567 40.6629 138.197C41.5521 139.06 45.675 143.533 51.1587 147.777C53.1797 149.34 55.3355 150.876 57.6125 152.183C57.5451 152.156 58.9464 154.958 59.6605 157.262C56.8445 159.526 62.3147 163.676 63.972 170.547C64.0663 171.477 62.3686 172.393 64.9016 174.67C64.7399 185.044 61.5872 190.474 66.8822 193.344H20.1698C11.6815 193.155 4.82349 186.19 4.82349 177.674V20.5605C4.82349 11.9644 11.6815 5.03906 20.1698 4.85043H46.9819Z" fill="#111827"/>
<path fill-rule="evenodd" clip-rule="evenodd" d="M16.2355 154.581V182.296H19.2266C19.2266 175.155 19.4018 167.987 18.9571 160.94L22.4063 182.296H26.7044V154.581H23.7402C23.6863 161.924 23.9423 169.173 24.4408 176.341L20.8569 154.581H16.2355V154.581Z" fill="white"/>
<path fill-rule="evenodd" clip-rule="evenodd" d="M42.1989 154.568L39.2482 182.309H42.913L43.398 176.704H45.7963L46.2813 182.309H49.9326L47.0762 154.568H42.2123H42.1989ZM44.5971 162.396L45.5268 173.444H43.6809L44.6106 162.396H44.5971Z" fill="white"/>
<path d="M29.0218 154.581V182.282H34.3843C35.26 182.282 38.2511 181.514 38.2511 177.674V172.137C38.2511 171.558 38.2511 169.725 36.6613 168.647C37.6583 168.647 38.2511 166.707 38.2511 164.956V159.027C38.2511 156.71 36.8095 154.581 33.9127 154.581H29.0218V154.581ZM32.3228 158.124H33.9531C34.6941 158.124 34.9501 158.946 34.9501 159.58V166.033C34.9501 167.138 34.5864 167.219 33.8318 167.219H32.3228V158.124ZM32.3228 170.237H33.9531C34.6941 170.237 34.9501 171.059 34.9501 171.692V177.459C34.9501 178.213 34.5729 178.779 33.8318 178.779H32.3228V170.237V170.237Z" fill="white"/>
<path d="M117.718 146.389V166.559H110.657V106.562H119.307C126.368 106.562 130.059 110.092 130.059 120.264V133.293C130.059 140.178 128.038 143.964 124.427 145.473C125.936 146.403 126.785 148.329 127.459 151.603C127.957 153.786 130.49 166.559 130.49 166.559H123.013L119.644 146.389H117.718V146.389ZM117.718 113.285V140.178H119.321C122.016 140.178 123.013 138.251 123.013 133.711V120.102C123.013 115.643 122.177 113.298 119.321 113.298H117.718V113.285Z" fill="#111827"/>
<path d="M157.559 166.559H142.684V106.548H157.559V113.191H149.744V132.862H156.548V138.817H149.744V159.916H157.559V166.559Z" fill="#111827"/>
<path d="M187.726 155.133C187.726 163.783 183.778 167.071 178.146 167.071C171.584 167.071 168.31 163.702 168.31 155.47V146.901H175.371V156.144C175.371 159.418 176.3 160.428 178.065 160.428C180.086 160.428 180.666 158.663 180.666 155.551V152.951C180.666 148.491 179.83 146.82 174.872 139.504C170.843 133.374 168.566 128.416 168.566 121.935V118.742C168.566 109.997 172.096 106.05 178.321 106.05C183.953 106.05 187.82 108.151 187.82 118.742V126.731H180.935V117.987C180.935 114.376 180.342 112.692 178.335 112.692C176.327 112.692 175.559 114.12 175.559 117.987V120.587C175.559 126.058 176.906 128.82 180.935 134.883C185.556 141.768 187.739 145.298 187.739 152.115V155.147L187.726 155.133Z" fill="#111827"/>
<path d="M211.762 113.271V166.559H204.702V113.271H198.477V106.548H217.974V113.271H211.762Z" fill="#111827"/>
<path d="M238.655 153.948H233.104L232.175 166.559H225.115L231.083 106.562H241.175L246.888 166.559H239.491L238.655 153.948ZM233.616 147.305H238.157L237.483 137.726C237.065 133.266 236.311 119.146 235.799 111.25C235.3 119.065 234.546 133.023 234.29 137.726L233.616 147.305V147.305Z" fill="#111827"/>
<path d="M277.055 106.548V155.12C277.055 164.026 273.861 167.057 267.394 167.057C260.927 167.057 257.653 164.039 257.653 155.12V106.548H264.713V155.969C264.713 159.337 265.387 160.428 267.408 160.428C269.173 160.428 270.008 159.337 270.008 155.969V106.548H277.068H277.055Z" fill="#111827"/>
<path d="M296.807 146.389V166.559H289.747V106.562H298.397C305.457 106.562 309.148 110.092 309.148 120.264V133.293C309.148 140.178 307.127 143.964 303.517 145.473C305.026 146.403 305.874 148.329 306.548 151.603C307.047 153.786 309.58 166.559 309.58 166.559H302.102L298.733 146.389H296.807V146.389ZM296.807 113.285V140.178H298.41C301.105 140.178 302.102 138.251 302.102 133.711V120.102C302.102 115.643 301.266 113.298 298.41 113.298H296.807V113.285Z" fill="#111827"/>
<path d="M333.104 153.948H327.553L326.624 166.559H319.563L325.532 106.562H335.624L341.337 166.559H333.94L333.104 153.948ZM328.065 147.305H332.606L331.932 137.726C331.514 133.266 330.76 119.146 330.248 111.25C329.749 119.065 328.995 133.023 328.739 137.726L328.065 147.305V147.305Z" fill="#111827"/>
<path d="M358.394 166.559H352.088V106.562H361.749L369.146 158.165C368.23 147.332 367.044 129.345 367.044 120.763V106.562H373.349V166.559H364.268L357.383 116.977C357.976 127.149 358.394 139.747 358.394 146.133V166.559Z" fill="#111827"/>
<path d="M397.723 113.271V166.559H390.663V113.271H384.452V106.548H403.948V113.271H397.723Z" fill="#111827"/>
<path d="M208.58 181.21V180.273H215.125V181.21H212.381V189H211.324V181.21H208.58ZM230.956 184.636C230.956 185.557 230.79 186.352 230.458 187.023C230.125 187.693 229.669 188.21 229.09 188.574C228.51 188.938 227.848 189.119 227.104 189.119C226.36 189.119 225.698 188.938 225.118 188.574C224.539 188.21 224.083 187.693 223.75 187.023C223.418 186.352 223.252 185.557 223.252 184.636C223.252 183.716 223.418 182.92 223.75 182.25C224.083 181.58 224.539 181.062 225.118 180.699C225.698 180.335 226.36 180.153 227.104 180.153C227.848 180.153 228.51 180.335 229.09 180.699C229.669 181.062 230.125 181.58 230.458 182.25C230.79 182.92 230.956 183.716 230.956 184.636ZM229.934 184.636C229.934 183.881 229.807 183.243 229.554 182.723C229.304 182.203 228.965 181.81 228.536 181.543C228.11 181.276 227.633 181.142 227.104 181.142C226.576 181.142 226.097 181.276 225.668 181.543C225.242 181.81 224.902 182.203 224.65 182.723C224.4 183.243 224.275 183.881 224.275 184.636C224.275 185.392 224.4 186.03 224.65 186.55C224.902 187.07 225.242 187.463 225.668 187.73C226.097 187.997 226.576 188.131 227.104 188.131C227.633 188.131 228.11 187.997 228.536 187.73C228.965 187.463 229.304 187.07 229.554 186.55C229.807 186.03 229.934 185.392 229.934 184.636ZM239.933 189V180.273H242.882C243.564 180.273 244.124 180.389 244.561 180.622C244.999 180.852 245.323 181.169 245.533 181.572C245.743 181.976 245.848 182.435 245.848 182.949C245.848 183.463 245.743 183.919 245.533 184.317C245.323 184.714 245 185.027 244.565 185.254C244.131 185.479 243.575 185.591 242.899 185.591H240.513V184.636H242.865C243.331 184.636 243.706 184.568 243.99 184.432C244.277 184.295 244.485 184.102 244.612 183.852C244.743 183.599 244.808 183.298 244.808 182.949C244.808 182.599 244.743 182.294 244.612 182.033C244.482 181.771 244.273 181.57 243.986 181.428C243.699 181.283 243.32 181.21 242.848 181.21H240.99V189H239.933ZM244.041 185.08L246.189 189H244.962L242.848 185.08H244.041ZM262.173 184.636C262.173 185.557 262.007 186.352 261.674 187.023C261.342 187.693 260.886 188.21 260.306 188.574C259.727 188.938 259.065 189.119 258.321 189.119C257.576 189.119 256.914 188.938 256.335 188.574C255.755 188.21 255.299 187.693 254.967 187.023C254.634 186.352 254.468 185.557 254.468 184.636C254.468 183.716 254.634 182.92 254.967 182.25C255.299 181.58 255.755 181.062 256.335 180.699C256.914 180.335 257.576 180.153 258.321 180.153C259.065 180.153 259.727 180.335 260.306 180.699C260.886 181.062 261.342 181.58 261.674 182.25C262.007 182.92 262.173 183.716 262.173 184.636ZM261.15 184.636C261.15 183.881 261.024 183.243 260.771 182.723C260.521 182.203 260.181 181.81 259.752 181.543C259.326 181.276 258.849 181.142 258.321 181.142C257.792 181.142 257.313 181.276 256.884 181.543C256.458 181.81 256.119 182.203 255.866 182.723C255.616 183.243 255.491 183.881 255.491 184.636C255.491 185.392 255.616 186.03 255.866 186.55C256.119 187.07 256.458 187.463 256.884 187.73C257.313 187.997 257.792 188.131 258.321 188.131C258.849 188.131 259.326 187.997 259.752 187.73C260.181 187.463 260.521 187.07 260.771 186.55C261.024 186.03 261.15 185.392 261.15 184.636ZM278.07 180.273V189H277.048L272.292 182.148H272.207V189H271.15V180.273H272.173L276.945 187.142H277.03V180.273H278.07ZM286.908 181.21V180.273H293.453V181.21H290.709V189H289.652V181.21H286.908ZM309.285 184.636C309.285 185.557 309.118 186.352 308.786 187.023C308.454 187.693 307.998 188.21 307.418 188.574C306.838 188.938 306.177 189.119 305.432 189.119C304.688 189.119 304.026 188.938 303.446 188.574C302.867 188.21 302.411 187.693 302.079 187.023C301.746 186.352 301.58 185.557 301.58 184.636C301.58 183.716 301.746 182.92 302.079 182.25C302.411 181.58 302.867 181.062 303.446 180.699C304.026 180.335 304.688 180.153 305.432 180.153C306.177 180.153 306.838 180.335 307.418 180.699C307.998 181.062 308.454 181.58 308.786 182.25C309.118 182.92 309.285 183.716 309.285 184.636ZM308.262 184.636C308.262 183.881 308.135 183.243 307.883 182.723C307.633 182.203 307.293 181.81 306.864 181.543C306.438 181.276 305.961 181.142 305.432 181.142C304.904 181.142 304.425 181.276 303.996 181.543C303.57 181.81 303.231 182.203 302.978 182.723C302.728 183.243 302.603 183.881 302.603 184.636C302.603 185.392 302.728 186.03 302.978 186.55C303.231 187.07 303.57 187.463 303.996 187.73C304.425 187.997 304.904 188.131 305.432 188.131C305.961 188.131 306.438 187.997 306.864 187.73C307.293 187.463 307.633 187.07 307.883 186.55C308.135 186.03 308.262 185.392 308.262 184.636Z" fill="#111827"/>
<path d="M403.948 182.431H322.42V185.947H403.948V182.431Z" fill="#111827"/>
<path d="M192.185 182.431H110.658V185.947H192.185V182.431Z" fill="#111827"/>
</g>
<defs>
<clipPath id="clip0_3_164">
<rect width="404.204" height="200" fill="white"/>
</clipPath>
</defs>
</svg>
