<svg width="877" height="836" viewBox="0 0 877 836" fill="none" xmlns="http://www.w3.org/2000/svg">
<g clip-path="url(#clip0_3_281)">
<path d="M435.67 96C257.78 96 113.58 240.23 113.58 418.11C113.58 595.99 257.78 740.2 435.67 740.2C613.56 740.2 757.75 596 757.75 418.11C757.75 240.22 613.55 96 435.67 96ZM435.67 729.12C263.89 729.12 124.67 589.87 124.67 418.12C124.67 246.37 263.93 107.12 435.67 107.12C607.41 107.12 746.67 246.37 746.67 418.12C746.67 589.87 607.44 729.14 435.67 729.14V729.12Z" fill="#111827"/>
<path d="M36.8377 309.988L91.0589 321.444L89.7165 327.798L40.9018 348.349L40.7899 348.879L83.362 357.874L81.9748 364.439L27.7536 352.984L29.0961 346.629L78.039 325.994L78.1509 325.465L35.4729 316.448L36.8377 309.988Z" fill="#111827"/>
<path d="M60.8035 244.917L111.234 268.193L108.415 274.299L57.9849 251.024L60.8035 244.917Z" fill="#111827"/>
<path d="M143.134 212.957L138.842 218.515L107.474 168.634L111.7 163.162L167.893 180.891L163.601 186.449L116.645 171.075L116.381 171.417L143.134 212.957ZM127.616 197.699L144.915 175.296L149.618 178.928L132.319 201.331L127.616 197.699Z" fill="#111827"/>
<path d="M204.054 97.9165C202.46 96.8644 200.835 96.0775 199.181 95.5558C197.529 95.0088 195.864 94.7481 194.185 94.7737C192.52 94.7882 190.866 95.1044 189.222 95.7225C187.577 96.3405 185.974 97.2703 184.413 98.5118C181.852 100.547 180.049 103.06 179.003 106.049C177.958 109.038 177.84 112.312 178.648 115.872C179.457 119.431 181.349 123.082 184.324 126.825C187.299 130.568 190.436 133.229 193.735 134.809C197.034 136.388 200.279 136.989 203.469 136.612C206.659 136.234 209.591 134.983 212.265 132.858C214.741 130.89 216.503 128.628 217.549 126.074C218.599 123.495 218.88 120.815 218.391 118.034C217.906 115.228 216.612 112.503 214.509 109.857L216.382 108.92L203.38 119.255L199.689 114.611L216.152 101.525L219.843 106.169C222.673 109.729 224.374 113.428 224.946 117.267C225.532 121.095 225.071 124.791 223.564 128.354C222.059 131.892 219.59 135.026 216.157 137.755C212.33 140.797 208.251 142.57 203.92 143.073C199.604 143.564 195.317 142.793 191.06 140.758C186.816 138.713 182.882 135.41 179.258 130.851C176.54 127.432 174.554 123.994 173.299 120.537C172.046 117.055 171.498 113.679 171.655 110.409C171.811 107.139 172.634 104.074 174.126 101.212C175.617 98.3508 177.748 95.8184 180.52 93.615C182.8 91.8031 185.199 90.459 187.717 89.5826C190.237 88.681 192.77 88.2412 195.313 88.2632C197.859 88.2599 200.34 88.7099 202.757 89.6129C205.163 90.5019 207.396 91.8381 209.457 93.6215L204.054 97.9165Z" fill="#111827"/>
<path d="M276.009 98.2423L269.584 101.107L265.602 42.2057L271.929 39.3848L313.081 81.7137L306.655 84.5787L272.533 48.7146L272.138 48.8909L276.009 98.2423ZM269.567 77.4129L295.467 65.8649L297.892 71.3021L271.991 82.8501L269.567 77.4129Z" fill="#111827"/>
<path d="M356.631 69.3242L347.236 14.7081L365.69 11.5338C369.957 10.7999 373.585 10.9263 376.574 11.9132C379.559 12.8824 381.927 14.516 383.677 16.8143C385.427 19.1126 386.579 21.8707 387.132 25.0886C387.686 28.3066 387.519 31.2732 386.631 33.9885C385.744 36.7038 384.062 39.0066 381.587 40.8968C379.108 42.7692 375.753 44.0693 371.522 44.7971L356.588 47.366L355.56 41.3923L370.281 38.8602C373.197 38.3587 375.47 37.5283 377.101 36.3691C378.75 35.2069 379.84 33.7747 380.371 32.0725C380.916 30.3496 381.001 28.3947 380.625 26.2079C380.249 24.0211 379.511 22.1803 378.412 20.6853C377.313 19.1903 375.789 18.1528 373.841 17.5728C371.889 16.9749 369.437 16.9298 366.486 17.4375L354.859 19.4375L363.244 68.1866L356.631 69.3242ZM378.118 40.3676L395.779 62.5902L388.099 63.9113L370.651 41.652L378.118 40.3676Z" fill="#111827"/>
<path d="M447.083 60.8682L440.067 60.3419L464.505 6.60119L471.413 7.11938L487.559 63.9045L480.543 63.3782L467.519 15.6192L467.087 15.5869L447.083 60.8682ZM451.293 39.4755L479.572 41.5968L479.127 47.5332L450.848 45.4119L451.293 39.4755Z" fill="#111827"/>
<path d="M583.324 92.6074L608.207 43.0897L637.898 58.0099L635.225 63.3292L611.53 51.4222L603.123 68.1538L624.593 78.9429L621.92 84.2622L600.45 73.4731L589.32 95.6206L583.324 92.6074Z" fill="#111827"/>
<path d="M650.875 132.635L645.457 128.132L696.594 98.4831L701.928 102.917L682.129 158.612L676.711 154.109L693.816 107.589L693.483 107.312L650.875 132.635ZM666.729 117.628L688.566 135.778L684.756 140.362L662.919 122.212L666.729 117.628Z" fill="#111827"/>
<path d="M712.546 192.199L756.881 158.948L760.907 164.316L721.335 193.995L736.792 214.604L732.029 218.176L712.546 192.199Z" fill="#111827"/>
<path d="M756.015 259.833L806.446 237.111L809.197 243.218L764.184 263.499L774.746 286.941L769.328 289.382L756.015 259.833Z" fill="#111827"/>
<path d="M830.054 357.121C832.68 356.267 834.51 354.559 835.545 351.998C836.58 349.438 836.769 346.512 836.114 343.221C835.634 340.815 834.825 338.787 833.687 337.138C832.553 335.506 831.204 334.322 829.641 333.585C828.081 332.866 826.434 332.679 824.7 333.024C823.25 333.313 822.071 333.907 821.165 334.805C820.28 335.717 819.601 336.79 819.13 338.025C818.676 339.256 818.348 340.517 818.146 341.808C817.961 343.095 817.836 344.27 817.772 345.331L817.386 351.147C817.296 352.637 817.097 354.313 816.788 356.178C816.482 358.06 815.922 359.91 815.107 361.727C814.313 363.56 813.145 365.172 811.601 366.565C810.058 367.958 808.012 368.908 805.464 369.416C802.527 370.001 799.72 369.76 797.043 368.693C794.369 367.644 792.041 365.791 790.058 363.132C788.078 360.492 786.673 357.084 785.841 352.908C785.065 349.016 785.021 345.521 785.71 342.422C786.402 339.341 787.709 336.763 789.632 334.687C791.558 332.63 793.986 331.198 796.916 330.394L798.269 337.188C796.252 337.773 794.692 338.802 793.587 340.273C792.503 341.758 791.819 343.495 791.535 345.483C791.271 347.485 791.355 349.565 791.785 351.724C792.286 354.236 793.142 356.411 794.354 358.248C795.584 360.081 797.05 361.435 798.751 362.31C800.47 363.182 802.32 363.42 804.301 363.025C806.106 362.666 807.474 361.869 808.405 360.635C809.336 359.401 809.992 357.891 810.372 356.104C810.752 354.318 811.017 352.416 811.167 350.4L811.745 343.332C812.119 338.842 813.192 335.134 814.963 332.205C816.734 329.277 819.451 327.448 823.113 326.719C826.156 326.112 828.974 326.406 831.566 327.6C834.18 328.808 836.393 330.685 838.206 333.23C840.041 335.789 841.303 338.803 841.994 342.27C842.692 345.773 842.685 349.012 841.972 351.987C841.276 354.958 840.008 357.455 838.167 359.478C836.329 361.518 834.048 362.855 831.323 363.49L830.054 357.121Z" fill="#111827"/>
<path d="M83.5956 521.105L81.9687 514.594C83.7452 513.741 85.222 512.656 86.3991 511.339C87.5805 510.04 88.482 508.588 89.1035 506.982C89.7468 505.389 90.108 503.709 90.1869 501.942C90.2659 500.174 90.0823 498.398 89.6362 496.612C88.8228 493.357 87.2633 490.614 84.9577 488.382C82.6566 486.168 79.71 484.682 76.118 483.925C72.5303 483.185 68.4088 483.397 63.7533 484.56C59.0979 485.723 55.3612 487.475 52.5433 489.816C49.7297 492.174 47.8283 494.871 46.8392 497.907C45.8544 500.961 45.7688 504.116 46.5822 507.371C47.0283 509.156 47.7019 510.81 48.6031 512.333C49.5042 513.856 50.6044 515.17 51.9038 516.277C53.225 517.398 54.7125 518.253 56.3663 518.844C58.042 519.448 59.8555 519.711 61.8069 519.632L63.4338 526.143C60.5636 526.339 57.8815 526.061 55.3877 525.308C52.8939 524.556 50.6451 523.407 48.6414 521.862C46.6552 520.313 44.9687 518.438 43.582 516.237C42.1996 514.054 41.1695 511.606 40.4916 508.893C39.3458 504.308 39.4469 499.95 40.795 495.82C42.143 491.689 44.6264 488.085 48.2451 485.005C51.8638 481.925 56.5084 479.677 62.1789 478.26C67.8494 476.843 73.0057 476.642 77.6478 477.657C82.2899 478.673 86.1771 480.686 89.3095 483.697C92.4418 486.707 94.581 490.505 95.7268 495.091C96.4047 497.803 96.6472 500.448 96.4544 503.025C96.266 505.62 95.651 508.07 94.6094 510.376C93.5853 512.677 92.15 514.746 90.3035 516.584C88.4744 518.417 86.2384 519.924 83.5956 521.105Z" fill="#111827"/>
<path d="M60.3727 566.052L110.355 542.116L118.443 559.004C120.313 562.909 121.181 566.434 121.047 569.578C120.929 572.715 120.003 575.439 118.269 577.749C116.535 580.059 114.196 581.92 111.251 583.33C108.306 584.74 105.406 585.389 102.552 585.276C99.6976 585.163 97.0235 584.173 94.5297 582.307C92.0522 580.433 89.8862 577.56 88.0317 573.688L81.4865 560.021L86.9533 557.403L93.405 570.875C94.6829 573.543 96.1019 575.504 97.6621 576.757C99.23 578.026 100.905 578.684 102.688 578.73C104.494 578.785 106.398 578.334 108.399 577.375C110.4 576.417 111.97 575.205 113.109 573.74C114.247 572.274 114.83 570.525 114.856 568.492C114.899 566.452 114.274 564.081 112.98 561.38L107.884 550.739L63.2713 572.105L60.3727 566.052ZM94.0927 578.826L77.5305 601.879L74.1644 594.851L90.8201 571.993L94.0927 578.826Z" fill="#111827"/>
<path d="M102.505 640.784L98.2134 635.156L154.961 617.63L159.186 623.172L127.265 673.256L122.973 667.628L150.192 625.922L149.928 625.576L102.505 640.784ZM121.408 629.657L138.707 652.344L133.944 655.976L116.645 633.289L121.408 629.657Z" fill="#111827"/>
<path d="M154.312 701.717L191.214 660.372L216.004 682.499L212.04 686.94L192.256 669.282L179.787 683.252L197.714 699.253L193.75 703.694L175.823 687.694L159.318 706.186L154.312 701.717Z" fill="#111827"/>
<path d="M234.868 703.794L237.905 698.675L273.649 719.872L270.613 724.992L255.626 716.104L230.399 758.644L224.628 755.222L249.855 712.682L234.868 703.794Z" fill="#111827"/>
<path d="M342.065 803.327L325.38 799.575L337.535 745.507L354.96 749.424C360.205 750.603 364.449 752.694 367.694 755.698C370.943 758.684 373.108 762.416 374.191 766.894C375.278 771.354 375.192 776.382 373.934 781.979C372.667 787.611 370.574 792.235 367.654 795.849C364.737 799.446 361.115 801.905 356.788 803.225C352.464 804.527 347.557 804.561 342.065 803.327ZM333.233 795.239L342.949 797.423C347.419 798.428 351.318 798.399 354.645 797.335C357.972 796.271 360.715 794.308 362.875 791.447C365.034 788.586 366.608 784.955 367.597 780.555C368.579 776.19 368.711 772.272 367.993 768.801C367.28 765.312 365.696 762.405 363.242 760.078C360.793 757.734 357.456 756.087 353.231 755.137L342.777 752.787L333.233 795.239Z" fill="#111827"/>
<path d="M421.683 758.6L419.449 813.973L412.744 813.702L414.978 758.329L421.683 758.6Z" fill="#111827"/>
<path d="M498.53 768.444C497.88 765.769 496.321 763.819 493.853 762.596C491.385 761.373 488.49 760.963 485.168 761.365C482.739 761.66 480.662 762.31 478.935 763.317C477.227 764.321 475.947 765.573 475.096 767.071C474.262 768.568 473.952 770.191 474.164 771.941C474.341 773.406 474.842 774.623 475.666 775.592C476.506 776.541 477.522 777.297 478.714 777.859C479.903 778.404 481.132 778.826 482.401 779.125C483.667 779.406 484.826 779.619 485.876 779.764L491.63 780.589C493.104 780.79 494.757 781.116 496.587 781.564C498.435 782.011 500.232 782.708 501.978 783.656C503.74 784.584 505.254 785.869 506.522 787.509C507.79 789.149 508.58 791.256 508.892 793.827C509.251 796.792 508.799 799.565 507.536 802.146C506.29 804.726 504.27 806.901 501.476 808.671C498.701 810.439 495.205 811.578 490.99 812.089C487.061 812.566 483.582 812.344 480.553 811.424C477.542 810.503 475.078 809.007 473.16 806.938C471.259 804.867 470.02 802.345 469.442 799.37L476.3 798.539C476.73 800.589 477.634 802.219 479.013 803.429C480.408 804.619 482.083 805.431 484.038 805.864C486.009 806.278 488.084 806.353 490.263 806.089C492.799 805.781 495.026 805.094 496.945 804.028C498.861 802.944 500.319 801.59 501.318 799.964C502.315 798.321 502.692 796.5 502.45 794.499C502.229 792.678 501.54 791.257 500.384 790.238C499.227 789.218 497.775 788.452 496.028 787.939C494.28 787.425 492.409 787.018 490.416 786.716L483.431 785.605C478.995 784.893 475.389 783.545 472.612 781.562C469.834 779.579 468.221 776.739 467.773 773.042C467.401 769.97 467.907 767.191 469.291 764.703C470.69 762.196 472.724 760.137 475.392 758.527C478.076 756.897 481.168 755.87 484.668 755.446C488.204 755.017 491.425 755.27 494.329 756.205C497.23 757.122 499.617 758.572 501.489 760.556C503.378 762.538 504.535 764.908 504.96 767.665L498.53 768.444Z" fill="#111827"/>
<path d="M526.17 755.049L524.384 749.394L563.87 736.925L565.656 742.58L549.101 747.808L563.94 794.8L557.565 796.813L542.725 749.821L526.17 755.049Z" fill="#111827"/>
<path d="M597.75 720.624L623.271 769.816L617.314 772.907L591.793 723.715L597.75 720.624Z" fill="#111827"/>
<path d="M670.129 741.814L636.878 697.479L642.246 693.453L671.925 733.025L692.534 717.568L696.106 722.331L670.129 741.814Z" fill="#111827"/>
<path d="M726.734 693.817L685.889 656.363L690.424 651.417L726.882 684.847L744.292 665.861L748.68 669.884L726.734 693.817Z" fill="#111827"/>
<path d="M773.772 636.426L726.826 606.977L744.599 578.644L749.642 581.808L735.436 604.456L751.298 614.406L764.585 593.225L769.628 596.389L756.341 617.57L772.295 627.578L786.732 604.563L791.776 607.727L773.772 636.426Z" fill="#111827"/>
<path d="M810.702 569.838L759.024 549.824L765.786 532.362C767.35 528.325 769.323 525.278 771.706 523.222C774.071 521.159 776.69 519.968 779.561 519.648C782.432 519.328 785.389 519.758 788.434 520.937C791.479 522.116 793.938 523.784 795.811 525.941C797.684 528.098 798.795 530.724 799.144 533.819C799.476 536.907 798.867 540.454 797.317 544.457L791.844 558.588L786.192 556.399L791.586 542.47C792.655 539.711 793.111 537.334 792.955 535.339C792.805 533.328 792.137 531.657 790.95 530.326C789.752 528.973 788.119 527.895 786.05 527.094C783.981 526.293 782.022 525.979 780.175 526.154C778.328 526.328 776.655 527.102 775.155 528.475C773.639 529.842 772.341 531.922 771.259 534.714L766.999 545.716L813.125 563.58L810.702 569.838ZM796.908 536.522L825.048 532.795L822.233 540.062L794.171 543.587L796.908 536.522Z" fill="#111827"/>
<path d="M801.262 453.702C798.513 453.5 796.177 454.386 794.253 456.361C792.329 458.336 791.049 460.967 790.411 464.256C789.945 466.66 789.926 468.839 790.354 470.793C790.786 472.73 791.585 474.334 792.751 475.605C793.92 476.859 795.371 477.654 797.104 477.99C798.553 478.271 799.867 478.168 801.043 477.681C802.206 477.172 803.238 476.437 804.14 475.475C805.024 474.509 805.804 473.467 806.479 472.351C807.136 471.231 807.695 470.193 808.156 469.237L810.71 464.009C811.356 462.666 812.174 461.192 813.164 459.587C814.157 457.963 815.374 456.466 816.814 455.094C818.239 453.701 819.928 452.653 821.881 451.949C823.833 451.245 826.082 451.14 828.628 451.634C831.563 452.203 834.066 453.486 836.136 455.483C838.211 457.463 839.662 460.056 840.489 463.261C841.32 466.449 841.331 470.129 840.523 474.301C839.768 478.191 838.488 481.437 836.681 484.04C834.877 486.625 832.695 488.513 830.135 489.704C827.577 490.878 824.793 491.283 821.782 490.919L823.098 484.13C825.183 484.351 827.014 483.991 828.591 483.049C830.153 482.086 831.441 480.74 832.455 479.011C833.455 477.26 834.164 475.306 834.582 473.15C835.069 470.639 835.099 468.306 834.674 466.151C834.23 463.992 833.388 462.187 832.146 460.736C830.888 459.281 829.268 458.362 827.288 457.978C825.485 457.628 823.92 457.847 822.593 458.636C821.266 459.424 820.09 460.572 819.064 462.079C818.038 463.586 817.075 465.243 816.174 467.049L812.969 473.362C810.927 477.368 808.534 480.39 805.791 482.426C803.049 484.462 799.848 485.126 796.188 484.416C793.147 483.827 790.655 482.49 788.711 480.407C786.752 478.304 785.416 475.733 784.702 472.697C783.975 469.639 783.947 466.377 784.618 462.912C785.297 459.412 786.528 456.422 788.311 453.943C790.076 451.46 792.192 449.632 794.657 448.46C797.126 447.269 799.739 446.895 802.496 447.338L801.262 453.702Z" fill="#111827"/>
<path d="M0 417.7H93.54" stroke="#111827" stroke-width="6" stroke-miterlimit="10"/>
<path d="M783.04 417.7H876.58" stroke="#111827" stroke-width="6" stroke-miterlimit="10"/>
<path d="M272.855 395.01H263.268C262.701 392.252 261.709 389.83 260.291 387.742C258.9 385.655 257.199 383.902 255.188 382.485C253.204 381.042 251.001 379.959 248.578 379.238C246.155 378.516 243.63 378.155 241.001 378.155C236.208 378.155 231.865 379.367 227.973 381.789C224.108 384.212 221.028 387.781 218.734 392.497C216.466 397.213 215.332 402.999 215.332 409.855C215.332 416.71 216.466 422.496 218.734 427.212C221.028 431.928 224.108 435.497 227.973 437.92C231.865 440.343 236.208 441.554 241.001 441.554C243.63 441.554 246.155 441.193 248.578 440.471C251.001 439.75 253.204 438.68 255.188 437.263C257.199 435.82 258.9 434.054 260.291 431.967C261.709 429.853 262.701 427.431 263.268 424.699H272.855C272.133 428.745 270.819 432.366 268.912 435.562C267.005 438.758 264.634 441.477 261.799 443.719C258.964 445.935 255.781 447.623 252.25 448.783C248.746 449.943 244.996 450.522 241.001 450.522C234.249 450.522 228.244 448.873 222.987 445.574C217.729 442.275 213.593 437.585 210.577 431.503C207.562 425.421 206.055 418.205 206.055 409.855C206.055 401.504 207.562 394.288 210.577 388.206C213.593 382.124 217.729 377.434 222.987 374.135C228.244 370.836 234.249 369.187 241.001 369.187C244.996 369.187 248.746 369.767 252.25 370.926C255.781 372.086 258.964 373.787 261.799 376.029C264.634 378.245 267.005 380.951 268.912 384.147C270.819 387.317 272.133 390.938 272.855 395.01Z" fill="#111827"/>
<path d="M637.729 449.44H613.297V370.269H638.811C646.491 370.269 653.063 371.854 658.527 375.024C663.99 378.168 668.178 382.691 671.09 388.593C674.002 394.469 675.459 401.504 675.459 409.7C675.459 417.947 673.99 425.047 671.052 431C668.114 436.928 663.836 441.489 658.217 444.685C652.599 447.855 645.77 449.44 637.729 449.44ZM622.884 440.935H637.11C643.656 440.935 649.081 439.672 653.385 437.147C657.689 434.621 660.898 431.026 663.011 426.361C665.124 421.697 666.181 416.143 666.181 409.7C666.181 403.309 665.137 397.806 663.049 393.193C660.962 388.554 657.844 384.998 653.694 382.524C649.545 380.024 644.378 378.774 638.193 378.774H622.884V440.935Z" fill="#111827"/>
<path d="M398.06 539.17C398.06 539.17 359.15 512.93 327.47 508.4C307.62 505.57 301.99 520.86 300.55 532.67C299.329 541.816 300.949 551.116 305.19 559.31C308.92 566.31 315.25 573.57 325.66 574.47C339.54 575.68 346.66 565.76 350.75 556.47C353.94 549.16 354.41 540.47 354.41 535.36L355.49 284C355.642 275.464 352.64 267.171 347.06 260.71C344.741 258.035 341.871 255.893 338.647 254.431C335.423 252.969 331.92 252.221 328.38 252.24C308.01 252.01 299.88 267.63 300.1 283.92C300.32 300.21 311.18 322.83 334.71 346.36C358.24 369.89 401.12 393.63 407.57 397.05C448.52 418.77 462.32 419.22 494.45 440.49C526.58 461.76 573.87 514.7 574.55 541.4C575.07 562.21 564.82 572.73 549.55 573.3C536.97 573.77 523.87 567.64 522.06 547.73C520.43 529.73 521.75 321.73 522.06 281.9C522.012 274.666 524.338 267.616 528.68 261.83C531.092 258.536 534.256 255.865 537.909 254.041C541.562 252.216 545.597 251.29 549.68 251.34C571.85 251.34 577.9 273.45 576.68 287.54C575.18 304.73 566.98 316.09 549.46 316.95C521.81 318.31 485.88 289.35 485.88 289.35" stroke="#111827" stroke-width="10" stroke-miterlimit="10"/>
<path d="M372.72 354.85C386.508 367.598 402.444 377.805 419.79 385" stroke="#111827" stroke-width="10" stroke-miterlimit="10"/>
<path d="M335.92 609C335.92 609 338.79 678.54 394.29 678.54C425.52 678.54 439.99 663.93 446.68 651.16C450.509 643.623 452.461 635.273 452.37 626.82V432.08" stroke="#111827" stroke-width="10" stroke-miterlimit="10"/>
<path d="M352.21 608.86C352.21 608.86 352.37 663.8 395.8 663.16C436.68 662.56 436.23 622.16 436.23 622.16L437.23 420.64" stroke="#111827" stroke-width="10" stroke-miterlimit="10"/>
<path d="M437.29 397.09V219.65C437.199 209.402 439.353 199.257 443.6 189.93C449.4 177.47 460.25 164.19 480.12 164.19C517.53 164.19 524.77 208.24 524.77 226.94" stroke="#111827" stroke-width="10" stroke-miterlimit="10"/>
<path d="M508 434C508 434 497.37 417.1 468.12 405.14L457.27 400.54C456.163 400.087 455.203 399.336 454.497 398.371C453.79 397.405 453.366 396.262 453.27 395.07C453.27 394.67 453.27 394.26 453.27 393.85L453.47 230.59C453.59 223.1 453.62 217.59 453.92 215.59C455.3 206.42 461.02 186.52 481.09 184.71C509 184 510 225 510 225" stroke="#111827" stroke-width="10" stroke-miterlimit="10"/>
</g>
<defs>
<clipPath id="clip0_3_281">
<rect width="876.58" height="835.61" fill="white"/>
</clipPath>
</defs>
</svg>
