<svg width="180" height="46" viewBox="0 0 180 46" fill="none" xmlns="http://www.w3.org/2000/svg">
<path d="M12.5 11.15C4.575 11.15 0 15.875 0 23.325C0 30.775 4.55 35.475 12.475 35.475C20.4 35.475 24.975 30.75 24.975 23.3C24.975 15.825 20.425 11.15 12.5 11.15ZM18.15 29.2C16.775 30.625 14.825 31.375 12.5 31.375C10.15 31.375 8.2 30.625 6.825 29.175C5.45 27.75 4.75 25.7 4.75 23.25C4.75 20.825 5.475 18.775 6.825 17.35C8.2 15.925 10.15 15.175 12.475 15.175C14.825 15.175 16.775 15.925 18.15 17.375C19.525 18.8 20.225 20.85 20.225 23.275C20.225 25.75 19.525 27.775 18.15 29.2Z" fill="#111827"/>
<path d="M41.1497 35.0499V24.625C41.1497 21.925 39.7497 20.2999 37.3997 20.2999C35.0247 20.2999 33.5497 21.95 33.5497 24.625V35.0499H29.0997V17.0499H33.5497V19.5999C34.8747 18.0999 36.5747 16.7 39.4747 16.7C43.3247 16.7 45.5747 19.25 45.5747 23.375V35.0249H41.1497V35.0499V35.0499Z" fill="#111827"/>
<path d="M60.1256 34.4249C59.2756 34.9499 58.0506 35.3499 56.3256 35.3499C53.2006 35.3499 51.0756 34.1 51.0756 29.95V20.575H48.9256V17.0499H51.0756V12.45H55.5256V17.0499H59.9256V20.575H55.5256V29.0999C55.5256 30.6499 56.3506 31.5 57.8506 31.5C58.6756 31.5 59.6506 31.2999 60.1256 30.9749V34.4249Z" fill="#111827"/>
<path d="M71.0497 16.85C68.1497 16.85 66.2247 17.375 64.3497 18.175L65.3497 21.25C66.6497 20.775 68.3747 20.3 70.3997 20.3C73.3497 20.3 75.0497 21.75 75.0497 24.3V24.65C73.6497 24.25 71.9747 24 69.9747 24C65.7997 24 62.8497 25.875 62.8497 29.925V30C62.8497 33.55 65.5747 35.425 68.8747 35.425C71.5997 35.425 73.5247 34.525 74.9247 33.425V35.1H79.0747V24.65C79.0747 19.725 76.6247 16.85 71.0497 16.85ZM74.9747 28.825C74.9747 30.95 73.0747 32.475 70.4497 32.475C68.4497 32.475 67.0997 31.4 67.0997 29.8V29.725C67.0997 27.9 68.6497 26.75 71.1497 26.75C72.3747 26.75 73.6247 26.975 74.5497 27.35L74.9497 27.5L74.9747 28.825Z" fill="#111827"/>
<path d="M83.6503 35.05V17.05H88.0003V20.675C89.1503 18.2 90.6503 16.575 94.0253 16.7V20.625H93.9253C92.3003 20.65 90.9753 21.1 89.9753 21.975C88.6503 23.15 88.0003 25.025 88.0003 27.575V35.025H83.6503V35.05V35.05Z" fill="#111827"/>
<path d="M102.424 10.525V14.4H97.6994V10.525H102.424L102.324 10.625L102.424 10.525ZM102.199 17.15L102.299 17.05H97.8494V35.05H102.299V17.05L102.199 17.15Z" fill="#111827"/>
<path d="M116.074 16.725C109.974 16.725 106.324 20.35 106.324 26.125C106.324 31.875 109.949 35.475 116.049 35.475C122.174 35.475 125.824 31.85 125.824 26.1C125.799 20.3 122.174 16.725 116.074 16.725ZM119.999 30.225C119.074 31.225 117.699 31.75 116.074 31.75C114.449 31.75 113.099 31.225 112.149 30.2C111.199 29.2 110.699 27.775 110.699 26.05C110.699 24.325 111.199 22.9 112.124 21.9C113.049 20.9 114.424 20.375 116.049 20.375C117.674 20.375 119.024 20.9 119.974 21.925C120.924 22.925 121.424 24.35 121.424 26.075C121.424 27.825 120.924 29.25 119.999 30.225Z" fill="#111827"/>
<path fill-rule="evenodd" clip-rule="evenodd" d="M134.824 23C134.824 7.36 142.024 0 157.324 0C172.624 0 179.824 7.36 179.824 23C179.824 38.64 172.624 46 157.324 46C142.024 46 134.824 38.64 134.824 23ZM157.324 12.8998C161.949 9.79979 167.674 9.37479 172.674 11.7748L172.849 11.8998L172.824 12.0748C172.649 14.3998 171.949 16.6748 170.799 18.6748C169.424 21.0248 167.474 22.9748 165.124 24.3248H165.099C164.981 24.384 164.863 24.4471 164.743 24.5111C164.559 24.6091 164.371 24.709 164.174 24.7998C164.549 30.3498 162.049 35.5248 157.474 38.6498L157.324 38.7498L157.174 38.6498C155.249 37.3498 153.624 35.5998 152.474 33.5998C151.124 31.2248 150.424 28.5498 150.424 25.8498V25.8248C150.424 25.4998 150.449 25.1498 150.474 24.7998C145.499 22.3498 142.274 17.5998 141.849 12.0748L141.824 11.8998L141.974 11.8248C144.074 10.7998 146.399 10.2748 148.699 10.2748C151.424 10.2748 154.074 10.9998 156.424 12.3498H156.449C156.749 12.5248 157.024 12.6998 157.324 12.8998ZM163.124 21.2498C164.849 20.2498 166.324 18.8498 167.399 17.0248C167.899 16.1498 168.274 15.2498 168.549 14.3998C165.724 13.7498 162.874 14.1748 160.299 15.5748C160.524 15.8748 160.674 16.1998 160.824 16.6248C160.974 17.0498 160.999 17.6248 160.874 18.0998C160.824 18.2998 160.724 18.4998 160.624 18.6998C160.124 19.5498 159.074 20.1748 157.774 20.5748C158.274 19.0248 157.474 17.6498 156.474 16.7748C155.974 16.3248 155.399 15.9498 154.824 15.5998C153.099 14.6248 151.124 14.0498 149.024 14.0248C148.024 14.0248 147.049 14.1498 146.124 14.3748C146.999 17.1498 148.774 19.3998 151.274 20.9248C151.424 20.5748 151.624 20.2998 151.924 19.9498C152.224 19.5998 152.699 19.2998 153.174 19.1748C153.399 19.1248 153.599 19.0998 153.824 19.0998C154.799 19.0998 155.874 19.6998 156.874 20.6248C155.299 20.9748 154.499 22.3498 154.249 23.6498C154.124 24.3248 154.049 24.9998 154.049 25.6748C154.049 27.6498 154.524 29.6498 155.574 31.4748C156.049 32.3248 156.674 33.1248 157.324 33.7998C159.299 31.6498 160.349 28.9748 160.424 26.0498C160.024 26.0998 159.699 26.0498 159.249 25.9748C158.799 25.8998 158.299 25.5998 157.949 25.2748C157.799 25.1248 157.649 24.9498 157.549 24.7498C157.049 23.8748 157.049 22.6498 157.349 21.3248C158.449 22.5248 160.024 22.5498 161.274 22.0998C161.924 21.8748 162.524 21.5998 163.124 21.2498Z" fill="#111827"/>
</svg>
