<svg width="212" height="200" viewBox="0 0 212 200" fill="none" xmlns="http://www.w3.org/2000/svg">
<g clip-path="url(#clip0_3_133)">
<path d="M0 0V199.99H31.83V190.95H9.05V9.05H202.78V190.95H179.77V199.99H211.82V0H0Z" fill="#111827"/>
<path d="M84.84 143.01C78.27 143.13 71.82 141.28 66.32 137.68C61.05 134.22 56.63 129.63 53.36 124.25V175.28H42.54V58.6H52.24V74.68C55.61 69.52 60.13 65.2 65.44 62.06C70.76 58.85 76.87 57.17 83.09 57.21C88.55 57.15 93.94 58.38 98.84 60.79C103.55 63.13 107.76 66.37 111.24 70.32C114.78 74.37 117.55 79.03 119.42 84.07C121.36 89.2 122.35 94.64 122.33 100.12C122.36 105.73 121.45 111.31 119.63 116.62C117.94 121.62 115.33 126.25 111.92 130.29C108.63 134.18 104.57 137.34 99.99 139.59C95.27 141.89 90.08 143.06 84.83 143L84.84 143.01ZM81.81 133.47C86.04 133.52 90.21 132.53 93.97 130.59C97.57 128.73 100.76 126.16 103.35 123.04C105.97 119.87 108 116.26 109.32 112.36C110.69 108.4 111.38 104.23 111.38 100.04C111.4 95.69 110.59 91.37 109 87.32C107.48 83.4 105.26 79.78 102.46 76.64C99.72 73.58 96.4 71.09 92.69 69.32C88.89 67.51 84.73 66.59 80.53 66.62C77.57 66.66 74.64 67.22 71.87 68.29C68.87 69.38 66.04 70.88 63.44 72.73C60.88 74.54 58.63 76.75 56.76 79.27C54.99 81.57 53.81 84.27 53.34 87.13V112.56C54.6 115.51 56.23 118.29 58.19 120.83C60.1 123.33 62.35 125.55 64.87 127.43C67.32 129.26 70.03 130.73 72.9 131.8C75.74 132.88 78.76 133.43 81.8 133.45L81.81 133.47Z" fill="#111827"/>
<path d="M169.03 137.15C168.35 137.49 167.35 137.93 166.04 138.52C164.73 139.11 163.22 139.65 161.52 140.23C159.61 140.85 157.66 141.36 155.7 141.76C153.46 142.22 151.19 142.45 148.9 142.44C146.48 142.45 144.06 142.11 141.74 141.42C139.55 140.78 137.52 139.71 135.76 138.26C134.02 136.79 132.62 134.96 131.66 132.89C130.6 130.53 130.07 127.96 130.13 125.38V61.71H117.87V52.5H130.21V22.45H141.86V52.54H162.25V61.75H141.77V122.18C141.75 125.01 143.04 127.68 145.27 129.43C147.38 130.97 149.92 131.78 152.53 131.74C155.52 131.81 158.5 131.25 161.27 130.11C162.92 129.45 164.52 128.69 166.06 127.81L169.06 137.15H169.03Z" fill="#111827"/>
<path d="M40.9 199.75V182.92H47.87C48.57 182.92 49.25 183.07 49.88 183.38C50.47 183.68 51.01 184.09 51.45 184.59C51.92 185.09 52.29 185.67 52.55 186.31C52.8 186.93 52.93 187.59 52.93 188.25C52.92 188.91 52.79 189.57 52.55 190.19C52.33 190.81 52 191.39 51.58 191.89C51.14 192.39 50.6 192.81 50 193.1C49.4 193.4 48.73 193.55 48.06 193.55H42.57V199.76H40.91L40.9 199.75ZM42.56 192.06H47.96C48.43 192.06 48.89 191.96 49.3 191.74C49.7 191.53 50.05 191.24 50.33 190.89C50.62 190.52 50.84 190.1 50.99 189.66C51.15 189.19 51.24 188.7 51.23 188.2C51.23 187.69 51.14 187.19 50.97 186.72C50.8 186.27 50.55 185.86 50.23 185.5C49.93 185.16 49.56 184.88 49.14 184.68C48.73 184.48 48.29 184.38 47.83 184.38H42.55V192.07L42.56 192.06Z" fill="#111827"/>
<path d="M60.44 200C59.59 200 58.74 199.83 57.96 199.48C57.23 199.15 56.57 198.67 56.02 198.08C55.46 197.48 55.01 196.78 54.71 196.01C54.4 195.22 54.24 194.37 54.26 193.52C54.26 192.68 54.41 191.85 54.71 191.07C55.01 190.33 55.44 189.64 55.99 189.06C58.26 186.62 62.08 186.49 64.52 188.76C64.62 188.86 64.73 188.96 64.82 189.06C65.37 189.65 65.79 190.33 66.08 191.08C66.38 191.85 66.53 192.67 66.53 193.5V193.88C66.53 193.97 66.53 194.05 66.53 194.14H55.92C55.97 194.79 56.13 195.43 56.41 196.02C56.65 196.56 56.97 197.05 57.38 197.48C57.78 197.89 58.27 198.22 58.8 198.45C59.34 198.69 59.91 198.8 60.5 198.8C60.9 198.8 61.3 198.74 61.68 198.64C62.06 198.53 62.42 198.38 62.77 198.19C63.1 198 63.41 197.77 63.67 197.49C63.93 197.23 64.14 196.92 64.28 196.58L65.69 196.96C65.49 197.42 65.22 197.84 64.88 198.2C64.52 198.58 64.11 198.9 63.67 199.17C63.2 199.45 62.69 199.66 62.16 199.81C61.59 199.95 61.01 200.02 60.42 200.01L60.44 200ZM64.99 192.95C64.92 191.73 64.4 190.58 63.53 189.72C63.13 189.31 62.65 188.98 62.13 188.75C61.59 188.53 61.01 188.42 60.43 188.42C59.84 188.42 59.26 188.53 58.72 188.75C57.63 189.21 56.77 190.09 56.34 191.19C56.08 191.76 55.94 192.37 55.9 193L64.98 192.96L64.99 192.95Z" fill="#111827"/>
<path d="M75.2 188.83C74.18 188.83 73.19 189.15 72.36 189.73C71.55 190.31 70.95 191.13 70.65 192.08V199.76H69.06V187.41H70.57V190.37C70.98 189.48 71.62 188.71 72.41 188.14C73.14 187.62 74.01 187.34 74.9 187.33C75 187.32 75.11 187.32 75.21 187.33L75.19 188.81L75.2 188.83Z" fill="#111827"/>
<path d="M77.94 199.76V188.68H76.23V187.41H77.94V187.07C77.87 185.81 78.21 184.56 78.91 183.51C79.52 182.66 80.52 182.17 81.57 182.2C82.05 182.2 82.53 182.28 83 182.41C83.42 182.54 83.82 182.73 84.18 182.98L83.68 184.15C83.44 183.96 83.16 183.82 82.86 183.74C82.54 183.65 82.22 183.61 81.89 183.6C81.2 183.56 80.53 183.89 80.15 184.47C79.71 185.24 79.5 186.12 79.56 187V187.39H82.98V188.66H79.56V199.74H77.94V199.76Z" fill="#111827"/>
<path d="M89.89 200C89.04 200 88.19 199.83 87.41 199.48C86.68 199.15 86.02 198.67 85.47 198.08C84.91 197.49 84.47 196.79 84.16 196.03C83.85 195.23 83.7 194.39 83.7 193.54C83.7 192.7 83.85 191.87 84.16 191.09C84.46 190.35 84.89 189.66 85.44 189.08C85.99 188.5 86.65 188.03 87.38 187.7C88.96 187.03 90.74 187.03 92.32 187.7C93.06 188.02 93.72 188.5 94.26 189.09C94.81 189.68 95.23 190.36 95.52 191.11C95.82 191.88 95.97 192.7 95.97 193.53V193.91C95.98 194 95.98 194.08 95.97 194.17H85.39C85.43 194.8 85.59 195.42 85.86 196C86.09 196.54 86.42 197.03 86.83 197.46C87.65 198.29 88.77 198.76 89.94 198.77C90.34 198.77 90.74 198.71 91.12 198.61C91.5 198.5 91.87 198.35 92.21 198.15C92.54 197.97 92.85 197.73 93.11 197.45C93.37 197.19 93.58 196.88 93.73 196.54L95.13 196.92C94.94 197.38 94.67 197.8 94.32 198.16C93.96 198.54 93.55 198.86 93.11 199.13C92.64 199.41 92.13 199.62 91.6 199.77C91.04 199.93 90.46 200.01 89.89 200.02V200ZM94.45 192.94C94.37 191.72 93.85 190.57 92.98 189.71C92.58 189.3 92.11 188.97 91.58 188.74C91.04 188.52 90.46 188.4 89.88 188.41C89.3 188.41 88.72 188.52 88.18 188.74C87.65 188.97 87.17 189.3 86.76 189.71C86.35 190.12 86.02 190.61 85.79 191.14C85.54 191.71 85.39 192.32 85.35 192.95H94.44L94.45 192.94Z" fill="#111827"/>
<path d="M97.63 193.54C97.63 192.7 97.78 191.86 98.08 191.07C98.37 190.32 98.8 189.63 99.35 189.04C99.9 188.46 100.56 188 101.29 187.68C102.08 187.34 102.94 187.17 103.8 187.19C104.87 187.16 105.93 187.44 106.86 187.97C107.7 188.49 108.37 189.23 108.8 190.12L107.23 190.62C106.89 190 106.39 189.49 105.77 189.14C105.14 188.78 104.42 188.6 103.69 188.62C103.08 188.62 102.48 188.74 101.92 189C101.39 189.25 100.9 189.6 100.5 190.03C100.07 190.48 99.74 191.02 99.53 191.6C99.29 192.22 99.17 192.88 99.18 193.54C99.18 194.2 99.3 194.86 99.54 195.48C99.76 196.07 100.09 196.61 100.51 197.08C100.92 197.52 101.41 197.88 101.95 198.15C102.49 198.41 103.09 198.54 103.7 198.54C104.49 198.54 105.27 198.32 105.95 197.91C106.26 197.73 106.55 197.5 106.8 197.24C107.02 197.01 107.19 196.73 107.29 196.43L108.88 196.91C108.7 197.36 108.44 197.77 108.11 198.12C107.77 198.5 107.38 198.83 106.94 199.09C106.47 199.37 105.97 199.58 105.44 199.73C104.89 199.88 104.31 199.95 103.74 199.95C102.05 199.95 100.44 199.25 99.3 198.01C98.74 197.42 98.3 196.72 98.01 195.96C97.72 195.18 97.58 194.36 97.6 193.53L97.63 193.54Z" fill="#111827"/>
<path d="M111.03 194.08V192.58H117.96V194.08H111.03Z" fill="#111827"/>
<path d="M131.88 184.37H125.88V199.74H124.22V184.37H118.22V182.9H131.88V184.37Z" fill="#111827"/>
<path d="M136.61 200C135.76 200 134.92 199.83 134.14 199.48C133.41 199.15 132.75 198.68 132.2 198.09C131.65 197.5 131.22 196.81 130.93 196.05C130.63 195.27 130.48 194.45 130.48 193.61C130.48 192.77 130.63 191.93 130.95 191.14C131.24 190.38 131.68 189.69 132.23 189.09C132.78 188.5 133.44 188.03 134.17 187.69C134.93 187.34 135.77 187.16 136.61 187.17C137.46 187.17 138.29 187.34 139.06 187.69C140.54 188.37 141.7 189.61 142.28 191.14C142.59 191.92 142.75 192.76 142.75 193.61C142.75 194.44 142.6 195.27 142.3 196.05C142.01 196.81 141.58 197.5 141.03 198.09C140.48 198.68 139.82 199.15 139.09 199.48C138.31 199.83 137.46 200.01 136.6 200H136.61ZM132.14 193.64C132.14 194.3 132.25 194.96 132.49 195.58C132.72 196.15 133.05 196.68 133.46 197.15C133.86 197.59 134.34 197.95 134.89 198.2C135.43 198.45 136.03 198.58 136.63 198.58C137.23 198.58 137.83 198.45 138.38 198.19C138.92 197.93 139.41 197.57 139.82 197.12C140.23 196.66 140.56 196.13 140.79 195.55C141.26 194.3 141.26 192.92 140.79 191.67C140.56 191.09 140.24 190.55 139.82 190.08C139.41 189.64 138.92 189.28 138.38 189.01C137.83 188.75 137.24 188.62 136.63 188.62C136.03 188.62 135.44 188.75 134.9 189.01C134.36 189.28 133.87 189.65 133.47 190.1C132.61 191.08 132.14 192.35 132.16 193.65H132.14V193.64Z" fill="#111827"/>
<path d="M155.85 199.75H154.23V192.85C154.31 191.75 154.09 190.64 153.58 189.66C153.14 189 152.37 188.63 151.58 188.69C151.09 188.69 150.61 188.78 150.15 188.95C149.68 189.12 149.24 189.37 148.84 189.69C148.43 190.01 148.06 190.39 147.76 190.82C147.44 191.24 147.21 191.72 147.07 192.23V199.79H145.46V187.41H146.93V190.2C147.45 189.29 148.2 188.54 149.11 188.02C150.04 187.47 151.1 187.18 152.18 187.19C152.78 187.17 153.37 187.3 153.91 187.57C154.38 187.81 154.78 188.18 155.06 188.64C155.36 189.16 155.57 189.73 155.67 190.32C155.8 191.05 155.87 191.78 155.86 192.52V199.76L155.85 199.75Z" fill="#111827"/>
<path d="M164.63 200C163.77 200 162.93 199.83 162.14 199.48C161.41 199.15 160.75 198.67 160.2 198.08C159.64 197.49 159.2 196.79 158.89 196.03C158.58 195.23 158.43 194.39 158.43 193.54C158.43 192.7 158.58 191.87 158.89 191.09C159.19 190.35 159.62 189.66 160.17 189.08C160.72 188.5 161.38 188.03 162.11 187.7C163.69 187.03 165.47 187.03 167.05 187.7C167.79 188.02 168.45 188.5 168.99 189.09C169.54 189.68 169.96 190.36 170.25 191.11C170.55 191.88 170.7 192.7 170.7 193.53V193.91C170.71 194 170.71 194.08 170.7 194.17H160.12C160.16 194.8 160.32 195.42 160.59 196C160.82 196.54 161.15 197.03 161.56 197.46C161.96 197.87 162.44 198.2 162.97 198.43C163.51 198.66 164.08 198.78 164.67 198.78C165.07 198.78 165.47 198.72 165.85 198.62C166.23 198.51 166.6 198.36 166.94 198.17C167.27 197.99 167.58 197.75 167.84 197.47C168.1 197.21 168.31 196.9 168.46 196.56L169.86 196.94C169.67 197.4 169.4 197.82 169.05 198.18C168.69 198.56 168.28 198.88 167.84 199.15C167.37 199.43 166.86 199.64 166.33 199.79C165.77 199.94 165.2 200.01 164.62 200.01L164.63 200ZM169.18 192.95C169.1 191.73 168.58 190.58 167.71 189.72C167.31 189.31 166.84 188.98 166.31 188.75C165.78 188.53 165.2 188.42 164.62 188.42C164.03 188.42 163.45 188.53 162.91 188.75C162.38 188.98 161.9 189.31 161.49 189.72C161.08 190.13 160.75 190.62 160.52 191.15C160.27 191.72 160.12 192.33 160.08 192.96H169.17L169.18 192.95Z" fill="#111827"/>
</g>
<defs>
<clipPath id="clip0_3_133">
<rect width="211.83" height="200" fill="white"/>
</clipPath>
</defs>
</svg>
