<svg width="180" height="46" viewBox="0 0 180 46" fill="none" xmlns="http://www.w3.org/2000/svg">
<path d="M12.5 10.65C4.575 10.65 0 15.375 0 22.825C0 30.275 4.55 34.975 12.475 34.975C20.4 34.975 24.975 30.25 24.975 22.8C24.975 15.325 20.425 10.65 12.5 10.65ZM18.15 28.7C16.775 30.125 14.825 30.875 12.5 30.875C10.15 30.875 8.2 30.125 6.825 28.675C5.45 27.25 4.75 25.2 4.75 22.75C4.75 20.325 5.475 18.275 6.825 16.85C8.2 15.425 10.15 14.675 12.475 14.675C14.825 14.675 16.775 15.425 18.15 16.875C19.525 18.3 20.225 20.35 20.225 22.775C20.225 25.25 19.525 27.275 18.15 28.7Z" fill="white"/>
<path d="M41.1497 34.55V24.125C41.1497 21.425 39.7497 19.8 37.3997 19.8C35.0247 19.8 33.5497 21.45 33.5497 24.125V34.55H29.0997V16.55H33.5497V19.1C34.8747 17.6 36.5747 16.2 39.4747 16.2C43.3247 16.2 45.5747 18.75 45.5747 22.875V34.525H41.1497V34.55V34.55Z" fill="white"/>
<path d="M60.1256 33.925C59.2756 34.45 58.0506 34.85 56.3256 34.85C53.2006 34.85 51.0756 33.6 51.0756 29.45V20.075H48.9256V16.55H51.0756V11.95H55.5256V16.55H59.9256V20.075H55.5256V28.6C55.5256 30.15 56.3506 31 57.8506 31C58.6756 31 59.6506 30.8 60.1256 30.475V33.925Z" fill="white"/>
<path d="M71.0497 16.35C68.1497 16.35 66.2247 16.875 64.3497 17.675L65.3497 20.75C66.6497 20.275 68.3747 19.8 70.3997 19.8C73.3497 19.8 75.0497 21.25 75.0497 23.8V24.15C73.6497 23.75 71.9747 23.5 69.9747 23.5C65.7997 23.5 62.8497 25.375 62.8497 29.425V29.5C62.8497 33.05 65.5747 34.925 68.8747 34.925C71.5997 34.925 73.5247 34.025 74.9247 32.925V34.6H79.0747V24.15C79.0747 19.225 76.6247 16.35 71.0497 16.35ZM74.9747 28.325C74.9747 30.45 73.0747 31.975 70.4497 31.975C68.4497 31.975 67.0997 30.9 67.0997 29.3V29.225C67.0997 27.4 68.6497 26.25 71.1497 26.25C72.3747 26.25 73.6247 26.475 74.5497 26.85L74.9497 27L74.9747 28.325Z" fill="white"/>
<path d="M83.6503 34.55V16.55H88.0003V20.175C89.1503 17.7 90.6503 16.075 94.0253 16.2V20.125H93.9253C92.3003 20.15 90.9753 20.6 89.9753 21.475C88.6503 22.65 88.0003 24.525 88.0003 27.075V34.525H83.6503V34.55V34.55Z" fill="white"/>
<path d="M102.424 10.025V13.9H97.6994V10.025H102.424L102.324 10.125L102.424 10.025ZM102.199 16.65L102.299 16.55H97.8494V34.55H102.299V16.55L102.199 16.65Z" fill="white"/>
<path d="M116.074 16.225C109.974 16.225 106.324 19.85 106.324 25.625C106.324 31.375 109.949 34.975 116.049 34.975C122.174 34.975 125.824 31.35 125.824 25.6C125.799 19.8 122.174 16.225 116.074 16.225ZM119.999 29.725C119.074 30.725 117.699 31.25 116.074 31.25C114.449 31.25 113.099 30.725 112.149 29.7C111.199 28.7 110.699 27.275 110.699 25.55C110.699 23.825 111.199 22.4 112.124 21.4C113.049 20.4 114.424 19.875 116.049 19.875C117.674 19.875 119.024 20.4 119.974 21.425C120.924 22.425 121.424 23.85 121.424 25.575C121.424 27.325 120.924 28.75 119.999 29.725Z" fill="white"/>
<path d="M157.324 0C142.024 0 134.824 7.36 134.824 23C134.824 38.64 142.024 46 157.324 46C172.624 46 179.824 38.64 179.824 23C179.824 7.36 172.624 0 157.324 0Z" fill="white"/>
<path d="M172.674 11.7748C167.674 9.37479 161.949 9.79979 157.324 12.8998C157.024 12.6998 156.749 12.5248 156.449 12.3498H156.424C154.074 10.9998 151.424 10.2748 148.699 10.2748C146.399 10.2748 144.074 10.7998 141.974 11.8248L141.824 11.8998L141.849 12.0748C142.274 17.5998 145.499 22.3498 150.474 24.7998C150.449 25.1498 150.424 25.4998 150.424 25.8248V25.8498C150.424 28.5498 151.124 31.2248 152.474 33.5998C153.624 35.5998 155.249 37.3498 157.174 38.6498L157.324 38.7498L157.474 38.6498C162.049 35.5248 164.549 30.3498 164.174 24.7998C164.499 24.6498 164.799 24.4748 165.099 24.3248H165.124C167.474 22.9748 169.424 21.0248 170.799 18.6748C171.949 16.6748 172.649 14.3998 172.824 12.0748L172.849 11.8998L172.674 11.7748ZM167.399 17.0248C166.324 18.8498 164.849 20.2498 163.124 21.2498C162.524 21.5998 161.924 21.8748 161.274 22.0998C160.024 22.5498 158.449 22.5248 157.349 21.3248C157.049 22.6498 157.049 23.8748 157.549 24.7498C157.649 24.9498 157.799 25.1248 157.949 25.2748C158.299 25.5998 158.799 25.8998 159.249 25.9748C159.699 26.0498 160.024 26.0998 160.424 26.0498C160.349 28.9748 159.299 31.6498 157.324 33.7998C156.674 33.1248 156.049 32.3248 155.574 31.4748C154.524 29.6498 154.049 27.6498 154.049 25.6748C154.049 24.9998 154.124 24.3248 154.249 23.6498C154.499 22.3498 155.299 20.9748 156.874 20.6248C155.874 19.6998 154.799 19.0998 153.824 19.0998C153.599 19.0998 153.399 19.1248 153.174 19.1748C152.699 19.2998 152.224 19.5998 151.924 19.9498C151.624 20.2998 151.424 20.5748 151.274 20.9248C148.774 19.3998 146.999 17.1498 146.124 14.3748C147.049 14.1498 148.024 14.0248 149.024 14.0248C151.124 14.0498 153.099 14.6248 154.824 15.5998C155.399 15.9498 155.974 16.3248 156.474 16.7748C157.474 17.6498 158.274 19.0248 157.774 20.5748C159.074 20.1748 160.124 19.5498 160.624 18.6998C160.724 18.4998 160.824 18.2998 160.874 18.0998C160.999 17.6248 160.974 17.0498 160.824 16.6248C160.674 16.1998 160.524 15.8748 160.299 15.5748C162.874 14.1748 165.724 13.7498 168.549 14.3998C168.274 15.2498 167.899 16.1498 167.399 17.0248Z" fill="#0B713D"/>
</svg>
