<svg width="180" height="47" viewBox="0 0 180 47" fill="none" xmlns="http://www.w3.org/2000/svg">
<path d="M12.5 11.15C4.575 11.15 0 15.875 0 23.325C0 30.775 4.55 35.475 12.475 35.475C20.4 35.475 24.975 30.75 24.975 23.3C24.975 15.825 20.425 11.15 12.5 11.15ZM18.15 29.2C16.775 30.625 14.825 31.375 12.5 31.375C10.15 31.375 8.2 30.625 6.825 29.175C5.45 27.75 4.75 25.7 4.75 23.25C4.75 20.825 5.475 18.775 6.825 17.35C8.2 15.925 10.15 15.175 12.475 15.175C14.825 15.175 16.775 15.925 18.15 17.375C19.525 18.8 20.225 20.85 20.225 23.275C20.225 25.75 19.525 27.775 18.15 29.2Z" fill="#111827"/>
<path d="M41.1497 35.05V24.625C41.1497 21.925 39.7497 20.3 37.3997 20.3C35.0247 20.3 33.5497 21.95 33.5497 24.625V35.05H29.0997V17.05H33.5497V19.6C34.8747 18.1 36.5747 16.7 39.4747 16.7C43.3247 16.7 45.5747 19.25 45.5747 23.375V35.025H41.1497V35.05V35.05Z" fill="#111827"/>
<path d="M60.1256 34.425C59.2756 34.95 58.0506 35.35 56.3256 35.35C53.2006 35.35 51.0756 34.1 51.0756 29.95V20.575H48.9256V17.05H51.0756V12.45H55.5256V17.05H59.9256V20.575H55.5256V29.1C55.5256 30.65 56.3506 31.5 57.8506 31.5C58.6756 31.5 59.6506 31.3 60.1256 30.975V34.425Z" fill="#111827"/>
<path d="M71.0497 16.85C68.1497 16.85 66.2247 17.375 64.3497 18.175L65.3497 21.25C66.6497 20.775 68.3747 20.3 70.3997 20.3C73.3497 20.3 75.0497 21.75 75.0497 24.3V24.65C73.6497 24.25 71.9747 24 69.9747 24C65.7997 24 62.8497 25.875 62.8497 29.925V30C62.8497 33.55 65.5747 35.425 68.8747 35.425C71.5997 35.425 73.5247 34.525 74.9247 33.425V35.1H79.0747V24.65C79.0747 19.725 76.6247 16.85 71.0497 16.85ZM74.9747 28.825C74.9747 30.95 73.0747 32.475 70.4497 32.475C68.4497 32.475 67.0997 31.4 67.0997 29.8V29.725C67.0997 27.9 68.6497 26.75 71.1497 26.75C72.3747 26.75 73.6247 26.975 74.5497 27.35L74.9497 27.5L74.9747 28.825Z" fill="#111827"/>
<path d="M83.6503 35.05V17.05H88.0003V20.675C89.1503 18.2 90.6503 16.575 94.0253 16.7V20.625H93.9253C92.3003 20.65 90.9753 21.1 89.9753 21.975C88.6503 23.15 88.0003 25.025 88.0003 27.575V35.025H83.6503V35.05V35.05Z" fill="#111827"/>
<path d="M102.424 10.525V14.4H97.6994V10.525H102.424L102.324 10.625L102.424 10.525ZM102.199 17.15L102.299 17.05H97.8494V35.05H102.299V17.05L102.199 17.15Z" fill="#111827"/>
<path d="M116.074 16.725C109.974 16.725 106.324 20.35 106.324 26.125C106.324 31.875 109.949 35.475 116.049 35.475C122.174 35.475 125.824 31.85 125.824 26.1C125.799 20.3 122.174 16.725 116.074 16.725ZM119.999 30.225C119.074 31.225 117.699 31.75 116.074 31.75C114.449 31.75 113.099 31.225 112.149 30.2C111.199 29.2 110.699 27.775 110.699 26.05C110.699 24.325 111.199 22.9 112.124 21.9C113.049 20.9 114.424 20.375 116.049 20.375C117.674 20.375 119.024 20.9 119.974 21.925C120.924 22.925 121.424 24.35 121.424 26.075C121.424 27.825 120.924 29.25 119.999 30.225Z" fill="#111827"/>
<path d="M157.324 0.5C142.024 0.5 134.824 7.86 134.824 23.5C134.824 39.14 142.024 46.5 157.324 46.5C172.624 46.5 179.824 39.14 179.824 23.5C179.824 7.86 172.624 0.5 157.324 0.5Z" fill="white"/>
<path d="M172.674 12.2748C167.674 9.87479 161.949 10.2998 157.324 13.3998C157.024 13.1998 156.749 13.0248 156.449 12.8498H156.424C154.074 11.4998 151.424 10.7748 148.699 10.7748C146.399 10.7748 144.074 11.2998 141.974 12.3248L141.824 12.3998L141.849 12.5748C142.274 18.0998 145.499 22.8498 150.474 25.2998C150.449 25.6498 150.424 25.9998 150.424 26.3248V26.3498C150.424 29.0498 151.124 31.7248 152.474 34.0998C153.624 36.0998 155.249 37.8498 157.174 39.1498L157.324 39.2498L157.474 39.1498C162.049 36.0248 164.549 30.8498 164.174 25.2998C164.499 25.1498 164.799 24.9748 165.099 24.8248H165.124C167.474 23.4748 169.424 21.5248 170.799 19.1748C171.949 17.1748 172.649 14.8998 172.824 12.5748L172.849 12.3998L172.674 12.2748ZM167.399 17.5248C166.324 19.3498 164.849 20.7498 163.124 21.7498C162.524 22.0998 161.924 22.3748 161.274 22.5998C160.024 23.0498 158.449 23.0248 157.349 21.8248C157.049 23.1498 157.049 24.3748 157.549 25.2498C157.649 25.4498 157.799 25.6248 157.949 25.7748C158.299 26.0998 158.799 26.3998 159.249 26.4748C159.699 26.5498 160.024 26.5998 160.424 26.5498C160.349 29.4748 159.299 32.1498 157.324 34.2998C156.674 33.6248 156.049 32.8248 155.574 31.9748C154.524 30.1498 154.049 28.1498 154.049 26.1748C154.049 25.4998 154.124 24.8248 154.249 24.1498C154.499 22.8498 155.299 21.4748 156.874 21.1248C155.874 20.1998 154.799 19.5998 153.824 19.5998C153.599 19.5998 153.399 19.6248 153.174 19.6748C152.699 19.7998 152.224 20.0998 151.924 20.4498C151.624 20.7998 151.424 21.0748 151.274 21.4248C148.774 19.8998 146.999 17.6498 146.124 14.8748C147.049 14.6498 148.024 14.5248 149.024 14.5248C151.124 14.5498 153.099 15.1248 154.824 16.0998C155.399 16.4498 155.974 16.8248 156.474 17.2748C157.474 18.1498 158.274 19.5248 157.774 21.0748C159.074 20.6748 160.124 20.0498 160.624 19.1998C160.724 18.9998 160.824 18.7998 160.874 18.5998C160.999 18.1248 160.974 17.5498 160.824 17.1248C160.674 16.6998 160.524 16.3748 160.299 16.0748C162.874 14.6748 165.724 14.2498 168.549 14.8998C168.274 15.7498 167.899 16.6498 167.399 17.5248Z" fill="#0B713D"/>
</svg>
