<svg width="808" height="300" viewBox="0 0 808 300" fill="none" xmlns="http://www.w3.org/2000/svg">
<path fill-rule="evenodd" clip-rule="evenodd" d="M239.032 191.43C239.032 171.843 248.562 151.51 267.622 130.43C286.682 109.35 297.168 90.2633 299.082 73.17C302.962 114.603 294.815 143 274.642 158.36C254.468 173.72 242.599 184.743 239.032 191.43Z" fill="#F3F4F6"/>
<path fill-rule="evenodd" clip-rule="evenodd" d="M288.562 44.27C286.042 52.27 279.042 59.35 267.562 65.51C255.567 71.8893 242.379 75.7099 228.832 76.73C242.561 69.8593 253.367 58.2871 259.282 44.12C264.902 30.3533 263.569 15.6467 255.282 0C249.442 23.5 234.972 34.09 211.872 31.77C177.232 28.29 104.042 13.44 61.2719 31.77C18.5019 50.1 -0.898144 85.4 0.0318557 88.31C4.11186 99.44 35.0319 150.76 37.3219 149.23C45.7952 143.743 56.5219 136 69.5019 126L37.3219 153L44.8219 173.1L43.0819 205.88C42.7231 207.975 43.0091 210.129 43.902 212.058C44.7949 213.986 46.2525 215.598 48.0819 216.68C51.8819 219.14 58.5885 220.24 68.2019 219.98C72.8817 221.077 77.3439 222.954 81.4019 225.53C84.8197 227.86 87.6616 230.938 89.7119 234.53L90.4019 240.92C92.6151 244.055 95.3558 246.782 98.5019 248.98C102.262 257.883 104.145 267.466 104.032 277.13C103.549 285.094 101.446 292.876 97.8519 300C134.479 295.06 164.105 283.53 186.732 265.41C209.359 247.29 224.125 218.82 231.032 180C234.272 169.407 236.762 161.95 238.502 157.63C240.719 152.462 243.284 147.45 246.182 142.63C239.905 144.402 233.768 146.638 227.822 149.32C222.998 151.983 218.463 155.14 214.292 158.74C212.292 156.46 217.522 149.95 229.982 139.21C248.582 123 265.502 116.8 278.452 96C287.132 82 290.502 64.7567 288.562 44.27ZM46.2019 156.27C46.5319 150.37 55.0319 146 61.7119 142.81C66.2125 140.711 70.8995 139.037 75.7119 137.81L64.0119 146.81L75.7119 144.71C72.1119 149.75 69.2819 153.61 67.2219 156.29C65.2219 158.96 63.2219 161.39 61.2219 163.55C51.1819 162.52 46.2019 160.12 46.2019 156.28V156.27ZM162.492 215.66C156.192 230 135.885 239 101.572 242.66C97.1319 236.21 96.2319 232.25 98.5719 230.93C100.912 229.61 111.472 229.93 120.712 228.71C125.662 227.96 134.622 224.96 137.292 215.66C139.092 209.42 137.685 199.42 133.072 185.66L98.1519 211C97.6245 211.269 97.0572 211.451 96.4719 211.54C95.7351 211.649 94.9841 211.612 94.2617 211.431C93.5393 211.25 92.8597 210.928 92.2616 210.484C91.6636 210.04 91.1588 209.483 90.7763 208.844C90.3937 208.205 90.1407 207.497 90.0319 206.76L100.562 193.47V181.14C102.865 179.923 105.427 179.275 108.032 179.25C111.706 179.428 115.344 180.063 118.862 181.14C114.89 177.397 109.8 175.061 104.372 174.49C98.8948 174.243 93.4849 175.776 88.9519 178.86C90.1714 180.385 91.1805 182.066 91.9519 183.86C92.6626 185.398 93.0701 187.058 93.1519 188.75C92.5537 190.534 91.523 192.142 90.1519 193.43C87.4113 195.652 84.5026 197.658 81.4519 199.43C80.7598 201.463 79.5865 203.298 78.0319 204.78C76.0186 206.401 73.733 207.65 71.2819 208.47C67.9105 208.09 64.5693 207.479 61.2819 206.64C58.0119 205.8 56.1819 205.14 56.1819 204.64C56.7709 195.488 57.923 186.381 59.6319 177.37C61.3119 168.483 66.0285 168.483 73.7819 177.37V170.63C76.1024 170.627 78.3974 170.146 80.5239 169.217C82.6504 168.287 84.5628 166.93 86.1419 165.23C87.3585 163.862 88.0307 162.096 88.0307 160.265C88.0307 158.434 87.3585 156.668 86.1419 155.3C86.6222 156.823 86.6222 158.457 86.1419 159.98C85.7219 160.82 84.6118 161.45 82.8718 161.45C81.3347 160.969 80.0102 159.973 79.1218 158.63C78.7608 158.15 78.5656 157.566 78.5656 156.965C78.5656 156.364 78.7608 155.78 79.1218 155.3C82.5418 151.49 85.7819 149.87 88.7819 150.38C91.7819 150.89 95.0719 153.65 98.5919 158.63C106.032 157 111.032 150.16 113.452 138C115.852 126 122.052 118.61 132.052 115.83C129.571 127.228 129.033 138.963 130.462 150.54C131.502 160.579 134.79 170.256 140.082 178.85C140.749 157.617 142.219 148.81 144.492 152.43C147.492 157.66 171.912 194.13 162.492 215.67V215.66ZM134.232 207.86C134.232 210.35 129.232 215.66 120.922 218.21C114.077 219.92 106.917 219.92 100.072 218.21L128.212 197.54L132.352 201.32L120.922 210C129.802 206.92 134.239 206.21 134.232 207.87V207.86ZM168.702 151.17C173.522 135.837 174.722 125.527 172.302 120.24C169.882 114.953 163.692 114.483 153.732 118.83C154.932 109.57 158.082 104.203 163.182 102.73C170.862 100.54 184.182 109.65 184.182 125.49C184.182 136.057 179.022 144.62 168.702 151.18V151.17Z" fill="#F3F4F6"/>
<path d="M350.021 61.1265V37.2628H444.836V61.1265H412.023V146.354H382.833V61.1265H350.021Z" fill="#F3F4F6"/>
<path d="M485.599 37.2628V146.354H455.982V37.2628H485.599Z" fill="#F3F4F6"/>
<path d="M496.651 61.1265V37.2628H591.467V61.1265H558.654V146.354H529.464V61.1265H496.651Z" fill="#F3F4F6"/>
<path d="M617.181 146.354H585.221L621.23 37.2628H661.713L697.721 146.354H665.761L641.897 67.3054H641.045L617.181 146.354Z" fill="#F3F4F6"/>
<path d="M802.617 37.2628V146.354H777.901L738.484 89.0384H737.845V146.354H708.228V37.2628H733.37L772.149 94.3651H773.001V37.2628H802.617Z" fill="#F3F4F6"/>
<path d="M411.314 198.604C410.917 196.985 410.291 195.565 409.436 194.343C408.581 193.091 407.512 192.038 406.229 191.183C404.977 190.297 403.511 189.64 401.831 189.213C400.182 188.755 398.365 188.526 396.38 188.526C392.104 188.526 388.455 189.549 385.431 191.595C382.439 193.641 380.148 196.588 378.56 200.436C377.003 204.284 376.224 208.926 376.224 214.362C376.224 219.859 376.972 224.563 378.468 228.472C379.965 232.381 382.194 235.374 385.157 237.45C388.119 239.527 391.799 240.565 396.197 240.565C400.075 240.565 403.297 240 405.863 238.87C408.458 237.74 410.398 236.137 411.68 234.06C412.963 231.984 413.604 229.541 413.604 226.731L418.002 227.189H396.563V209.048H438.158V222.058C438.158 230.609 436.341 237.924 432.707 244.001C429.103 250.048 424.125 254.69 417.773 257.927C411.451 261.134 404.198 262.737 396.014 262.737C386.882 262.737 378.865 260.798 371.963 256.919C365.061 253.041 359.671 247.513 355.793 240.336C351.945 233.16 350.021 224.624 350.021 214.729C350.021 206.972 351.196 200.1 353.548 194.114C355.93 188.129 359.228 183.074 363.443 178.951C367.657 174.798 372.528 171.668 378.056 169.56C383.584 167.423 389.509 166.354 395.83 166.354C401.389 166.354 406.55 167.148 411.314 168.736C416.109 170.293 420.338 172.523 424.003 175.424C427.699 178.295 430.676 181.7 432.936 185.64C435.196 189.579 436.57 193.901 437.059 198.604H411.314Z" fill="#F3F4F6"/>
<path d="M450.035 261.455V167.636H490.53C497.493 167.636 503.586 168.904 508.808 171.439C514.031 173.973 518.092 177.623 520.994 182.387C523.895 187.151 525.346 192.862 525.346 199.52C525.346 206.239 523.849 211.904 520.856 216.515C517.894 221.127 513.725 224.608 508.35 226.96C503.006 229.312 496.76 230.487 489.614 230.487H465.427V210.698H484.483C487.476 210.698 490.026 210.331 492.134 209.598C494.271 208.835 495.905 207.628 497.035 205.979C498.196 204.33 498.776 202.177 498.776 199.52C498.776 196.832 498.196 194.649 497.035 192.969C495.905 191.259 494.271 190.007 492.134 189.213C490.026 188.388 487.476 187.976 484.483 187.976H475.505V261.455H450.035ZM505.006 218.394L528.461 261.455H500.792L477.887 218.394H505.006Z" fill="#F3F4F6"/>
<path d="M627.089 214.546C627.089 224.99 625.058 233.801 620.996 240.978C616.934 248.124 611.453 253.545 604.551 257.24C597.649 260.905 589.953 262.737 581.462 262.737C572.911 262.737 565.185 260.89 558.283 257.194C551.411 253.468 545.945 248.032 541.883 240.886C537.852 233.709 535.836 224.929 535.836 214.546C535.836 204.101 537.852 195.305 541.883 188.159C545.945 180.982 551.411 175.562 558.283 171.897C565.185 168.201 572.911 166.354 581.462 166.354C589.953 166.354 597.649 168.201 604.551 171.897C611.453 175.562 616.934 180.982 620.996 188.159C625.058 195.305 627.089 204.101 627.089 214.546ZM600.886 214.546C600.886 208.926 600.138 204.193 598.641 200.345C597.175 196.466 594.992 193.534 592.09 191.549C589.22 189.533 585.677 188.526 581.462 188.526C577.248 188.526 573.69 189.533 570.789 191.549C567.918 193.534 565.735 196.466 564.238 200.345C562.772 204.193 562.039 208.926 562.039 214.546C562.039 220.165 562.772 224.914 564.238 228.792C565.735 232.64 567.918 235.572 570.789 237.588C573.69 239.573 577.248 240.565 581.462 240.565C585.677 240.565 589.22 239.573 592.09 237.588C594.992 235.572 597.175 232.64 598.641 228.792C600.138 224.914 600.886 220.165 600.886 214.546Z" fill="#F3F4F6"/>
<path d="M694.395 167.636H719.865V227.739C719.865 234.885 718.155 241.069 714.734 246.292C711.344 251.483 706.611 255.499 700.533 258.34C694.456 261.149 687.401 262.554 679.369 262.554C671.276 262.554 664.191 261.149 658.113 258.34C652.036 255.499 647.302 251.483 643.913 246.292C640.553 241.069 638.873 234.885 638.873 227.739V167.636H664.344V225.54C664.344 228.441 664.985 231.037 666.268 233.327C667.55 235.587 669.322 237.359 671.582 238.641C673.872 239.924 676.468 240.565 679.369 240.565C682.301 240.565 684.897 239.924 687.157 238.641C689.417 237.359 691.188 235.587 692.471 233.327C693.753 231.037 694.395 228.441 694.395 225.54V167.636Z" fill="#F3F4F6"/>
<path d="M731.97 261.455V167.636H772.466C779.429 167.636 785.522 169.011 790.744 171.759C795.966 174.508 800.028 178.371 802.929 183.349C805.831 188.327 807.281 194.145 807.281 200.803C807.281 207.521 805.785 213.339 802.792 218.256C799.829 223.173 795.661 226.96 790.286 229.617C784.941 232.274 778.696 233.602 771.55 233.602H747.362V213.813H766.419C769.412 213.813 771.962 213.293 774.069 212.255C776.207 211.186 777.841 209.674 778.971 207.72C780.131 205.765 780.712 203.46 780.712 200.803C780.712 198.115 780.131 195.825 778.971 193.931C777.841 192.007 776.207 190.541 774.069 189.533C771.962 188.495 769.412 187.976 766.419 187.976H757.44V261.455H731.97Z" fill="#F3F4F6"/>
</svg>
