<svg width="200" height="41" viewBox="0 0 200 41" fill="none" xmlns="http://www.w3.org/2000/svg">
<path d="M21.288 0L22.518 0.147274C24.6727 0.407325 26.7684 1.02488 28.718 1.97427C31.9668 3.53629 34.7309 5.94305 36.718 8.93995C36.764 9.00762 36.806 9.07927 36.874 9.18674C36.594 9.21261 36.346 9.23849 36.098 9.25839C35.0313 9.3433 33.9647 9.42556 32.898 9.50517C32.8049 9.50721 32.7122 9.49307 32.624 9.46338C31.28 9.09121 29.936 8.72103 28.596 8.33494C28.4477 8.2887 28.3177 8.19755 28.224 8.07422C26.5015 5.63105 24.222 3.62865 21.572 2.23101C19.952 1.36382 18.2034 0.759172 16.392 0.439833C16.326 0.427892 16.26 0.406 16.124 0.370176C16.324 0.326392 16.464 0.292559 16.604 0.266686C16.744 0.240814 16.888 0.216931 17.03 0.20101C17.548 0.149265 18.06 0.0975195 18.574 0.0417941C18.6309 0.03186 18.6871 0.0178931 18.742 0H21.288Z" fill="#F3F4F6"/>
<path d="M0 18.6501C0.052 18.2083 0.098 17.7665 0.16 17.3266C0.171129 17.2112 0.214034 17.101 0.284 17.0082C2.82476 14.0531 5.83703 11.5343 9.2 9.55293C9.22536 9.54526 9.25154 9.54059 9.278 9.539C9.27452 9.60976 9.2665 9.68022 9.254 9.74996C8.90591 11.0857 8.71991 12.4581 8.7 13.8378C8.7 14.5025 8.718 15.1693 8.754 15.828C8.766 16.027 8.648 16.0708 8.522 16.1345C7.02944 16.8988 5.5991 17.7778 4.244 18.7636C2.694 19.9019 1.26 21.1558 0.2 22.8872L0 21.1319V18.6501Z" fill="#F3F4F6"/>
<path d="M28.33 11.8695C28.478 12.59 28.622 13.2885 28.77 14.011C28.17 14.1901 27.57 14.3652 26.97 14.5443C22.6 15.8539 18.314 17.3943 14.238 19.4621C11.93 20.6323 9.696 21.928 7.716 23.6057C7.066 24.155 6.516 24.7998 5.916 25.4148C5.84117 25.4814 5.79307 25.5727 5.78058 25.6718C5.76808 25.7709 5.79203 25.8712 5.848 25.9541C8.158 30.7306 11.88 33.7935 17.104 34.7767C22.862 35.8613 27.818 34.1796 31.77 29.8251C33.734 27.6617 34.898 25.0824 35.37 22.1947C35.5785 20.8256 35.6275 19.4372 35.516 18.057C35.504 17.9018 35.436 17.858 35.294 17.858C34.668 17.8361 34.04 17.7943 33.414 17.7864C32.176 17.7685 30.936 17.7227 29.7 17.7704C28.152 17.8321 26.602 17.9356 25.062 18.0949C23.838 18.2222 22.624 18.461 21.384 18.6521C22.074 18.3297 22.746 17.9934 23.434 17.6948C26.4613 16.4082 29.6039 15.4087 32.82 14.7095C34.22 14.3931 35.62 14.1125 37.02 13.8697C37.642 13.7602 38.284 13.7642 38.948 13.7144C39.184 14.6439 39.426 15.5454 39.64 16.4529C39.9271 17.7038 40.0567 18.9854 40.026 20.2681C39.928 25.4208 38.15 29.9206 34.626 33.7059C31.8341 36.7422 28.1554 38.8304 24.108 39.6765C22.2493 40.0764 20.3419 40.2044 18.446 40.0566C14.9195 39.8176 11.5249 38.6281 8.626 36.6156C5.11854 34.2321 2.47933 30.7841 1.102 26.786C0.73 25.7332 0.958 24.7421 1.464 23.8007C2.026 22.7459 2.844 21.9001 3.736 21.1279C5.674 19.4482 7.858 18.1426 10.162 17.0341C14.55 14.9165 19.172 13.5035 23.948 12.576C25.334 12.3074 26.734 12.1083 28.128 11.8775C28.1951 11.8708 28.2626 11.8682 28.33 11.8695Z" fill="#F3F4F6"/>
<path d="M163.094 27.6358C158.666 27.6657 154.346 24.1351 154.41 18.9188C154.464 14.6379 157.904 10.361 163.09 10.361C164.24 10.3595 165.378 10.5855 166.44 11.0257C167.501 11.4659 168.464 12.1116 169.272 12.9253C170.08 13.7389 170.718 14.7043 171.148 15.7653C171.579 16.8263 171.793 17.9618 171.778 19.1059C171.728 23.7291 167.948 27.6756 163.094 27.6358ZM163.106 13.7503C162.061 13.7444 161.038 14.047 160.166 14.6198C159.294 15.1926 158.612 16.0099 158.207 16.9682C157.802 17.9266 157.692 18.983 157.89 20.0039C158.088 21.0247 158.586 21.9641 159.321 22.7031C160.056 23.4422 160.995 23.9478 162.019 24.156C163.042 24.3641 164.105 24.2655 165.072 23.8725C166.04 23.4796 166.868 22.8099 167.453 21.9484C168.038 21.0868 168.353 20.0719 168.358 19.0322C168.358 16.1465 165.974 13.7503 163.106 13.7503Z" fill="#F3F4F6"/>
<path d="M173.904 10.548H180.848C182.096 10.571 183.296 11.0319 184.236 11.8493C185.176 12.6668 185.796 13.7883 185.986 15.016C186.154 16.1043 185.972 17.2176 185.466 18.1964C184.959 19.1753 184.154 19.9695 183.166 20.4652L183.066 20.5229L188.05 27.4587C187.954 27.4587 187.89 27.4726 187.828 27.4726C186.59 27.4726 185.35 27.4726 184.112 27.4726C184.042 27.4774 183.972 27.4627 183.91 27.43C183.847 27.3973 183.796 27.3479 183.76 27.2876C182.324 25.2708 180.887 23.2548 179.45 21.2394C179.409 21.1681 179.349 21.1099 179.276 21.0715C179.203 21.0331 179.12 21.0161 179.038 21.0224C178.462 21.0383 177.886 21.0224 177.28 21.0224V27.4468H173.904V10.548ZM177.286 17.6411C178.43 17.6411 179.55 17.6709 180.666 17.6252C181.062 17.5917 181.444 17.4677 181.784 17.2629C182.047 17.1114 182.265 16.893 182.415 16.6301C182.566 16.3673 182.643 16.0694 182.64 15.767C182.637 15.4645 182.553 15.1684 182.397 14.9088C182.241 14.6492 182.018 14.4355 181.752 14.2896C181.298 14.041 180.786 13.9173 180.268 13.9314C179.352 13.9314 178.436 13.9314 177.52 13.9314C177.446 13.9314 177.372 13.9314 177.286 13.9453V17.6411Z" fill="#F3F4F6"/>
<path d="M69.494 20.5209L74.476 27.4527C74.378 27.4527 74.316 27.4667 74.252 27.4667C73.014 27.4667 71.774 27.4667 70.536 27.4667C70.4659 27.4711 70.396 27.456 70.3341 27.4229C70.2723 27.3898 70.221 27.3402 70.186 27.2796C68.758 25.2801 67.3307 23.2806 65.904 21.2812C65.8547 21.1959 65.7821 21.1264 65.6947 21.0806C65.6072 21.0348 65.5085 21.0146 65.41 21.0224C64.852 21.0403 64.292 21.0224 63.704 21.0224V27.4647H60.33V10.548H67.354C69.726 10.548 72.004 12.4805 72.366 14.821C72.714 17.06 71.982 18.8651 70.098 20.1766C69.918 20.3 69.718 20.3915 69.494 20.5209ZM63.714 17.6411C64.804 17.6411 65.866 17.663 66.926 17.6291C67.2882 17.6096 67.6438 17.5254 67.976 17.3804C68.3007 17.2607 68.5795 17.0427 68.7732 16.7571C68.967 16.4715 69.0659 16.1326 69.056 15.7882C69.0744 15.4453 68.9818 15.1056 68.7917 14.819C68.6016 14.5323 68.3241 14.314 68 14.1961C67.6596 14.0475 67.2951 13.9612 66.924 13.9413C65.89 13.9055 64.854 13.9254 63.818 13.9234C63.7829 13.9273 63.7481 13.9339 63.714 13.9433V17.6411Z" fill="#F3F4F6"/>
<path d="M21.624 4.90981C18.024 4.89986 14.602 5.66807 11.24 7.08708C11.418 6.63531 11.562 6.24523 11.724 5.86311C12.4895 4.0872 13.4679 2.4099 14.638 0.867725C14.7682 0.734189 14.93 0.635393 15.1086 0.580441C15.2872 0.525488 15.4768 0.516146 15.66 0.553274C19.0797 1.61843 22.1942 3.48122 24.744 5.98651C26.0103 7.23775 27.1142 8.6418 28.03 10.1659C28.056 10.2077 28.08 10.2515 28.126 10.3331C21.852 11.1749 15.8 12.7372 10.018 15.3981C10.018 14.6936 9.998 14.0289 10.018 13.3661C10.0755 11.8578 10.2989 10.3602 10.684 8.90015C10.6995 8.82801 10.7318 8.76051 10.7783 8.70311C10.8249 8.64571 10.8844 8.60004 10.952 8.56978C14.0721 6.97731 17.3962 5.81625 20.832 5.11878C21.088 5.06505 21.342 5.00733 21.598 4.9516C21.6 4.94961 21.61 4.93767 21.624 4.90981Z" fill="#F3F4F6"/>
<path d="M111.7 10.548H115.088V10.8665C115.088 14.0335 115.088 17.2006 115.088 20.3677C115.061 21.0606 115.19 21.7508 115.466 22.3877C116.03 23.5818 117.218 24.3341 118.442 24.2585C119.099 24.2207 119.727 23.9801 120.24 23.5703C120.753 23.1604 121.125 22.6017 121.304 21.9718C121.435 21.5365 121.502 21.0847 121.504 20.6304C121.522 17.3784 121.514 14.1264 121.514 10.8784V10.558H124.914V10.7948C124.914 14.2657 124.944 17.7386 124.914 21.2095C124.882 24.2625 123.052 26.7442 120.084 27.4249C117.764 27.9563 115.594 27.606 113.76 25.982C112.618 24.973 112.002 23.6654 111.796 22.1708C111.726 21.6017 111.694 21.0286 111.7 20.4552C111.692 17.263 111.692 14.0707 111.7 10.8784V10.548Z" fill="#F3F4F6"/>
<path d="M145.096 21.0284V27.4527H141.714V10.548H148.696C151.086 10.548 153.316 12.3989 153.752 14.7454C154.031 16.0979 153.761 17.5052 153.002 18.6607C152.242 19.8163 151.055 20.6265 149.698 20.915C149.309 20.997 148.912 21.0383 148.514 21.0384C147.478 21.0563 146.444 21.0384 145.408 21.0384L145.096 21.0284ZM145.114 13.9314V17.6331C145.151 17.64 145.188 17.6446 145.226 17.6471C146.244 17.6471 147.262 17.6471 148.28 17.6471C148.792 17.6466 149.292 17.4904 149.712 17.1993C150.06 16.9581 150.307 16.5986 150.406 16.1887C150.506 15.7787 150.451 15.3467 150.252 14.9742C150.1 14.6987 149.882 14.4653 149.616 14.2953C149.351 14.1253 149.047 14.0242 148.732 14.001C148.15 13.9476 147.566 13.925 146.982 13.9334C146.364 13.9174 145.746 13.9314 145.114 13.9314Z" fill="#F3F4F6"/>
<path d="M85.432 21.0284V27.4488H82.05V10.548H89C90.3198 10.5684 91.5839 11.0812 92.5417 11.985C93.4996 12.8888 94.0814 14.1176 94.172 15.4281C94.2626 16.7385 93.8552 18.035 93.0307 19.0608C92.2062 20.0865 91.0246 20.7668 89.72 20.9667C89.427 21.0125 89.1306 21.0345 88.834 21.0324C87.798 21.0324 86.764 21.0324 85.728 21.0324L85.432 21.0284ZM85.432 17.6291C85.4776 17.638 85.5237 17.644 85.57 17.6471C86.57 17.6471 87.57 17.6471 88.57 17.6471C89.0785 17.6489 89.5761 17.5007 90 17.2212C90.2042 17.0875 90.3776 16.9122 90.5087 16.707C90.6399 16.5018 90.7259 16.2713 90.7611 16.0306C90.7962 15.7899 90.7797 15.5445 90.7127 15.3107C90.6456 15.0768 90.5295 14.8597 90.372 14.6737C90.1588 14.4365 89.8963 14.2482 89.6028 14.1217C89.3093 13.9953 88.9917 13.9337 88.672 13.9413C87.654 13.9095 86.636 13.9274 85.618 13.9254C85.559 13.9292 85.5002 13.9366 85.442 13.9473L85.432 17.6291Z" fill="#F3F4F6"/>
<path d="M127.88 27.4527V10.548H134.832C136.153 10.5673 137.419 11.0801 138.378 11.9849C139.337 12.8897 139.919 14.1202 140.009 15.4322C140.099 16.7442 139.689 18.0418 138.862 19.0674C138.035 20.093 136.851 20.7717 135.544 20.9687C135.217 21.0158 134.887 21.0371 134.556 21.0324C133.47 21.0324 132.384 21.0324 131.26 21.0324V27.4567L127.88 27.4527ZM131.28 13.9194V17.6311C131.346 17.6311 131.394 17.6471 131.444 17.6471C132.412 17.6471 133.378 17.6471 134.346 17.6471C134.625 17.6412 134.903 17.6011 135.172 17.5276C136.246 17.2351 136.822 16.2977 136.54 15.2907C136.453 14.969 136.273 14.6801 136.021 14.4605C135.769 14.2409 135.458 14.1004 135.126 14.0567C134.524 13.9696 133.916 13.9283 133.308 13.9334C132.638 13.9115 131.968 13.9314 131.278 13.9314L131.28 13.9194Z" fill="#F3F4F6"/>
<path d="M109.43 12.3153L107.372 14.8847C106.772 14.5861 106.228 14.2717 105.648 14.0209C104.911 13.6991 104.082 13.6517 103.312 13.8876C102.572 14.1045 102.188 14.614 102.202 15.3265C102.202 15.5058 102.251 15.6818 102.342 15.8364C102.434 15.991 102.565 16.1186 102.722 16.2062C103.289 16.5378 103.879 16.8291 104.488 17.0779C105.622 17.5276 106.758 17.9675 107.774 18.6521C108.704 19.279 109.458 20.0572 109.744 21.1717C110.326 23.4345 109.428 25.7213 107.22 26.8895C105.194 27.9602 103.112 27.8508 101.042 26.9791C99.914 26.5034 98.992 25.7452 98.152 24.8257L100.686 22.4892C101.359 23.18 102.179 23.7113 103.086 24.0435C103.473 24.1955 103.887 24.2677 104.303 24.2558C104.719 24.2438 105.128 24.1479 105.506 23.9739C105.775 23.8645 106.008 23.6845 106.182 23.4531C106.356 23.2217 106.463 22.9477 106.492 22.6604C106.517 22.514 106.503 22.3638 106.453 22.2242C106.402 22.0847 106.315 21.9607 106.202 21.8643C105.872 21.5628 105.506 21.3028 105.112 21.0901C104.222 20.6622 103.298 20.294 102.394 19.896C101.444 19.4741 100.548 18.9685 99.84 18.1864C98.976 17.2291 98.682 16.0967 98.792 14.8369C98.8681 13.7976 99.2936 12.814 100 12.0447C100.804 11.1697 101.893 10.6058 103.074 10.4525C105.406 10.1082 107.44 10.8784 109.308 12.2019C109.351 12.2369 109.392 12.2748 109.43 12.3153Z" fill="#F3F4F6"/>
<path d="M195.306 13.9115V27.4448H191.892V13.9314H187.184V10.548H199.93V13.9115H195.306Z" fill="#F3F4F6"/>
<path d="M53.8 27.4647H50.4V13.9314H45.704V10.548H58.448V13.9154H53.8V27.4647Z" fill="#F3F4F6"/>
<path d="M8.284 25.566C8.96963 24.9072 9.72853 24.3283 10.546 23.8405C12.4524 22.6718 14.5821 21.9101 16.8 21.6036C18.0307 21.4606 19.272 21.432 20.508 21.518C22.276 21.6016 24.046 21.717 25.816 21.7309C27.386 21.7429 28.938 21.4822 30.472 21.1578C31.4 20.9587 32.316 20.7279 33.238 20.5129C33.3322 20.4866 33.4318 20.4866 33.526 20.5129C33.326 20.7836 33.138 21.0662 32.926 21.3229C30.798 23.8206 28.078 25.3292 24.892 26.0457C23.4907 26.3563 22.0484 26.4416 20.62 26.2984C19.536 26.1969 18.504 25.8666 17.46 25.578C16.4892 25.2825 15.5005 25.0485 14.5 24.8774C13.7173 24.7931 12.9281 24.7865 12.144 24.8575C10.8355 24.9551 9.54136 25.1926 8.284 25.566Z" fill="#F3F4F6"/>
<path d="M75.8 27.4527V10.56H79.14V27.4527H75.8Z" fill="#F3F4F6"/>
<path d="M0.572 15.229C1.958 8.89219 7.268 2.75244 14.508 0.81598C14.2 1.10456 13.894 1.3792 13.6 1.68171C12.0203 3.35797 10.7875 5.3272 9.972 7.47716C9.94351 7.55906 9.89871 7.63441 9.84029 7.6987C9.78188 7.76298 9.71103 7.81489 9.632 7.85132C7.02589 9.16732 4.65115 10.8946 2.6 12.9661C1.966 13.609 1.4 14.3075 0.786 14.9822C0.72 15.0558 0.656 15.1255 0.572 15.229Z" fill="#F3F4F6"/>
<path d="M32.134 24.7003C32.027 25.5134 31.7349 26.2914 31.28 26.9751C30.248 28.5891 28.788 29.6917 27.038 30.4301C25.8154 30.931 24.5192 31.2315 23.2 31.3197C20.58 31.5307 18.11 30.9475 15.7 29.9863C14.5 29.5086 13.282 29.0728 12.072 28.621C11.4733 28.3828 10.8298 28.2769 10.186 28.3105C10.7325 28.011 11.3221 27.7968 11.934 27.6756C13.578 27.3234 15.176 27.5722 16.774 27.9961C17.988 28.3205 19.216 28.609 20.454 28.8399C21.825 29.08 23.224 29.1176 24.606 28.9514C26.0496 28.8148 27.4539 28.4061 28.744 27.7473C30.1026 27.0737 31.2485 26.0409 32.056 24.762C32.064 24.7461 32.082 24.7381 32.134 24.7003Z" fill="#F3F4F6"/>
<path d="M132.266 39.8855C131.69 37.4674 131.114 35.0573 130.532 32.6213C130.622 32.6213 130.694 32.5994 130.764 32.5994C131.206 32.5994 131.648 32.5994 132.088 32.5994C132.268 32.5994 132.336 32.6472 132.368 32.8283C132.666 34.5438 132.968 36.2594 133.284 37.9729C133.285 37.9784 133.286 37.9837 133.289 37.9884C133.292 37.9932 133.296 37.9974 133.3 38.0008C133.632 36.3668 133.97 34.7189 134.3 33.0711C134.394 32.6034 134.39 32.6034 134.862 32.6034H136.18C136.502 34.3587 136.824 36.1101 137.156 37.9232C137.212 37.6107 137.254 37.346 137.304 37.0833C137.571 35.645 137.847 34.2068 138.132 32.7686C138.145 32.7299 138.167 32.6952 138.197 32.6677C138.228 32.6402 138.264 32.6208 138.304 32.6113C138.81 32.5974 139.318 32.6113 139.864 32.6113C139.75 33.0691 139.644 33.499 139.534 33.9269C139.042 35.8255 138.546 37.7222 138.062 39.6208C138.006 39.8397 137.918 39.9134 137.686 39.9034C137.188 39.8815 136.686 39.9034 136.156 39.9034C135.83 38.1759 135.506 36.4604 135.2 34.8344C134.858 36.4046 134.498 38.0565 134.142 39.7084C134.116 39.8238 134.094 39.9074 133.942 39.9074C133.4 39.8795 132.842 39.8855 132.266 39.8855Z" fill="#F3F4F6"/>
<path d="M120.866 32.6113H122.412V39.8835C121.858 39.8835 121.302 39.8835 120.746 39.8835C120.688 39.8835 120.618 39.79 120.582 39.7223C119.697 38.0558 118.813 36.3881 117.93 34.7189C117.914 34.6919 117.896 34.666 117.876 34.6413V39.8636H116.4V32.5994H117.12C117.442 32.5994 117.764 32.5994 118.086 32.5994C118.16 32.59 118.235 32.6057 118.3 32.644C118.364 32.6822 118.413 32.7408 118.44 32.8104C119.316 34.4025 120.296 35.921 120.968 37.6027C120.928 35.9469 120.898 34.295 120.866 32.6113Z" fill="#F3F4F6"/>
<path d="M86.582 32.6909C87.796 32.5656 88.996 32.4183 90.182 32.7049C90.5817 32.8076 90.952 33.0011 91.264 33.2701C91.4305 33.4242 91.561 33.6127 91.6462 33.8225C91.7313 34.0323 91.7692 34.2581 91.757 34.4841C91.7447 34.71 91.6828 34.9305 91.5755 35.13C91.4682 35.3294 91.3182 35.503 91.136 35.6384C90.9695 35.7537 90.7973 35.8607 90.62 35.9588C90.8098 36.042 90.9947 36.1357 91.174 36.2395C92.348 36.9917 92.26 38.7252 91.014 39.4636C90.4973 39.7596 89.9122 39.9173 89.316 39.9213C88.472 39.9452 87.626 39.8974 86.78 39.8875C86.618 39.8875 86.562 39.8338 86.562 39.6666C86.562 37.3978 86.562 35.1276 86.562 32.8561C86.566 32.8163 86.574 32.7745 86.582 32.6909ZM88.24 38.775C88.6979 38.7394 89.1533 38.6776 89.604 38.5899C89.7948 38.5382 89.9625 38.4237 90.0794 38.265C90.1964 38.1063 90.2558 37.9128 90.248 37.7162C90.2539 37.5208 90.1961 37.3288 90.0833 37.1688C89.9704 37.0088 89.8086 36.8895 89.622 36.8286C89.178 36.6455 88.716 36.6853 88.24 36.6992V38.775ZM88.24 35.4732C88.706 35.4732 89.156 35.5309 89.58 35.326C89.7352 35.2653 89.8659 35.1553 89.952 35.0132C90.038 34.8711 90.0746 34.7047 90.056 34.5398C90.0596 34.3765 90.003 34.2175 89.8969 34.0928C89.7908 33.9682 89.6425 33.8865 89.48 33.8632C89.0688 33.8079 88.6548 33.7754 88.24 33.7656V35.4732Z" fill="#F3F4F6"/>
<path d="M99.644 36.2215C99.5695 36.7356 99.464 37.2446 99.328 37.746C98.876 39.1093 97.752 39.9134 96.264 39.9969C94.248 40.1104 92.822 38.8944 92.586 36.8664C92.456 35.7419 92.648 34.6911 93.35 33.7816C94.15 32.7487 95.256 32.3884 96.526 32.5098C98.516 32.6969 99.602 34.2891 99.582 36.2096L99.644 36.2215ZM94.314 36.2872C94.2933 36.8922 94.4579 37.4891 94.786 37.9988C94.9271 38.2113 95.1193 38.3853 95.3452 38.5051C95.5711 38.6249 95.8235 38.6866 96.0794 38.6846C96.3354 38.6826 96.5868 38.617 96.8107 38.4938C97.0347 38.3705 97.2242 38.1935 97.362 37.9789C97.962 37.0833 97.974 35.4653 97.376 34.5577C97.2393 34.3272 97.0438 34.1368 96.8092 34.0058C96.5746 33.8748 96.3093 33.8079 96.0404 33.812C95.7714 33.816 95.5083 33.8908 95.2778 34.0288C95.0473 34.1668 94.8576 34.363 94.728 34.5975C94.4358 35.1133 94.2925 35.6995 94.314 36.2912V36.2872Z" fill="#F3F4F6"/>
<path d="M107.124 35.9947C107.124 37.2644 106.866 38.2416 106.098 39.0257C105.531 39.5951 104.774 39.9372 103.97 39.987C103.312 40.0689 102.643 39.9712 102.036 39.7044C101.576 39.4936 101.174 39.1773 100.861 38.7815C100.548 38.3857 100.334 37.9217 100.236 37.4276C99.942 36.2016 100.054 35.0215 100.774 33.9607C101.562 32.7984 102.718 32.3924 104.084 32.5158C106.022 32.6909 107.158 34.2891 107.124 35.9947ZM105.382 35.9947C105.303 35.5988 105.195 35.209 105.06 34.8284C104.952 34.5348 104.758 34.2809 104.501 34.1004C104.245 33.9199 103.939 33.8215 103.625 33.8182C103.311 33.815 103.004 33.9071 102.744 34.0822C102.484 34.2574 102.284 34.5073 102.17 34.7986C102.021 35.146 101.924 35.5135 101.882 35.8892C101.8 36.6952 101.896 37.4813 102.438 38.1341C102.583 38.3083 102.765 38.448 102.972 38.5429C103.178 38.6378 103.403 38.6854 103.631 38.6824C103.858 38.6793 104.082 38.6256 104.285 38.5252C104.489 38.4249 104.668 38.2803 104.808 38.1023C105.248 37.555 105.338 36.9002 105.382 36.0046V35.9947Z" fill="#F3F4F6"/>
<path d="M126.334 40.0168C124.614 39.987 123.574 38.568 123.352 37.0773C123.178 35.9091 123.322 34.8005 124.052 33.8333C124.852 32.7626 125.978 32.3884 127.28 32.5158C129.28 32.7148 130.404 34.3468 130.318 36.4066C130.27 37.5828 129.898 38.6257 128.904 39.3581C128.26 39.8337 127.516 40.0029 126.334 40.0168ZM128.552 36.2215C128.573 35.6249 128.41 35.0361 128.086 34.5339C127.947 34.3135 127.752 34.1326 127.522 34.0089C127.292 33.8852 127.033 33.8229 126.772 33.8279C126.51 33.8329 126.254 33.9051 126.029 34.0375C125.804 34.1699 125.617 34.358 125.486 34.5836C125.207 35.0489 125.06 35.5804 125.06 36.122C125.012 36.7231 125.14 37.325 125.428 37.8555C125.56 38.1133 125.762 38.3284 126.012 38.4757C126.262 38.6231 126.55 38.6965 126.84 38.6874C127.127 38.686 127.407 38.603 127.648 38.4482C127.889 38.2934 128.081 38.0732 128.2 37.8137C128.451 37.3211 128.572 36.7733 128.552 36.2215Z" fill="#F3F4F6"/>
<path d="M113.864 32.5994C113.026 33.6721 112.23 34.6911 111.432 35.716L113.974 39.8835C113.316 39.8835 112.7 39.8835 112.086 39.8835C112.024 39.8835 111.95 39.776 111.908 39.7024C111.394 38.8108 110.886 37.9112 110.376 37.0216L110.24 36.7868C110.04 37.0176 109.864 37.2246 109.702 37.4495C109.655 37.5374 109.634 37.6368 109.642 37.7361C109.642 38.4426 109.642 39.1511 109.642 39.8755H107.99V32.6014C108.5 32.6014 109.016 32.6014 109.53 32.6113C109.568 32.6113 109.636 32.7606 109.636 32.8402C109.636 33.7179 109.636 34.5956 109.636 35.4732V35.7757C110.07 35.1309 110.47 34.5398 110.87 33.9507C111.14 33.5527 111.406 33.1547 111.692 32.7566C111.768 32.6659 111.876 32.6087 111.994 32.5974C112.6 32.5914 113.2 32.5994 113.864 32.5994Z" fill="#F3F4F6"/>
<path d="M42.3 11.1829L30.37 13.6129C30.144 12.4745 29.928 11.374 29.702 10.2296C30.244 10.3789 30.75 10.5142 31.256 10.6555C31.646 10.765 32.032 10.8903 32.426 10.9819C32.614 11.0211 32.8067 11.0325 32.998 11.0157C33.758 10.966 34.518 10.9043 35.276 10.8446C36.034 10.7849 36.794 10.7132 37.554 10.6635C38.534 10.5978 39.514 10.5301 40.496 10.4963C41.064 10.4784 41.974 10.8505 42.3 11.1829Z" fill="#F3F4F6"/>
<path d="M199.948 32.7029C199.948 32.1058 199.948 31.5088 199.948 30.9117V30.6689H141.698V40.7234C141.698 40.8149 141.698 40.9085 141.686 41H197.046C197.503 40.8978 197.952 40.7648 198.39 40.602C198.792 40.4429 199.147 40.1855 199.423 39.8537C199.699 39.5218 199.886 39.1262 199.968 38.7033C199.968 38.6894 199.99 38.6794 200 38.6675V32.9934C199.974 32.8983 199.957 32.8011 199.948 32.7029ZM150.164 36.4842C149.541 36.7317 148.869 36.8358 148.2 36.7888H147.904V39.4059H146.234V39.1312C146.234 36.8863 146.234 34.6413 146.234 32.3984C146.234 32.1596 146.304 32.072 146.544 32.064C147.33 32.0421 148.116 31.9725 148.902 31.9804C149.316 31.9901 149.726 32.0626 150.118 32.1954C150.525 32.323 150.883 32.572 151.144 32.9087C151.404 33.2454 151.554 33.6537 151.574 34.0781C151.61 35.2623 151.138 36.0723 150.164 36.4902V36.4842ZM156.388 39.4158C156.343 39.4055 156.302 39.3845 156.267 39.3547C156.232 39.3249 156.205 39.2872 156.188 39.2447C156.022 38.7332 155.876 38.2137 155.71 37.7023C155.686 37.6266 155.59 37.5192 155.526 37.5172C154.856 37.5032 154.186 37.5172 153.498 37.5172C153.318 38.156 153.142 38.7849 152.962 39.4218H151.248C151.39 38.9561 151.524 38.5003 151.664 38.0466C152.256 36.1161 152.848 34.1849 153.44 32.2531C153.445 32.2171 153.456 32.1825 153.475 32.1512C153.493 32.12 153.518 32.0928 153.547 32.0714C153.577 32.05 153.61 32.0348 153.646 32.0267C153.681 32.0185 153.718 32.0177 153.754 32.0242C154.398 32.0362 155.044 32.0242 155.712 32.0242C156.478 34.4821 157.244 36.936 158.02 39.4278C157.456 39.4297 156.92 39.4357 156.388 39.4218V39.4158ZM163.188 32.7765C162.56 33.8831 161.928 34.9896 161.306 36.1021C161.231 36.2411 161.189 36.396 161.186 36.5539C161.174 37.4057 161.186 38.2595 161.186 39.1113V39.4059H159.518V39.1412C159.518 38.3053 159.518 37.4694 159.518 36.6335C159.517 36.468 159.476 36.305 159.4 36.1579C158.716 34.8682 158.022 33.5845 157.33 32.2989C157.288 32.2193 157.25 32.1377 157.194 32.0222C157.808 32.0222 158.394 32.0222 158.97 32.0322C159.036 32.0322 159.124 32.1456 159.158 32.2312C159.558 33.16 159.95 34.0887 160.334 35.0175L160.43 35.2444C160.612 34.8005 160.776 34.3926 160.946 33.9846C161.192 33.3875 161.444 32.8044 161.684 32.2113C161.701 32.1468 161.741 32.0907 161.796 32.0539C161.852 32.0171 161.92 32.0023 161.986 32.0123C162.516 32.0123 163.048 32.0123 163.624 32.0123L163.188 32.7765ZM170.886 39.4059H166.26V32.0421H167.908V38.0346H170.886V39.4059ZM176.35 39.4059C176.286 39.4059 176.19 39.3024 176.166 39.2307C176.003 38.7358 175.851 38.2369 175.71 37.7341C175.662 37.5629 175.594 37.4893 175.4 37.4933C174.84 37.5092 174.28 37.5052 173.72 37.4933C173.684 37.4858 173.646 37.4861 173.61 37.4943C173.574 37.5024 173.54 37.5181 173.51 37.5403C173.481 37.5625 173.456 37.5908 173.439 37.6232C173.421 37.6556 173.411 37.6914 173.408 37.7281C173.266 38.2874 173.102 38.8426 172.944 39.4039H171.228C171.438 38.7133 171.646 38.0326 171.854 37.352C172.374 35.6563 172.898 33.9686 173.412 32.2611C173.47 32.062 173.548 31.9964 173.758 32.0023C174.394 32.0183 175.03 32.0023 175.694 32.0023C176.46 34.4642 177.228 36.9241 178 39.4059C177.434 39.4297 176.892 39.4357 176.35 39.4218V39.4059ZM183.022 33.3776H181V39.4059H179.322V33.3955H177.334V32.0421H183.018L183.022 33.3776ZM188.456 39.3999H183.758V32.0421H188.31V33.3457C188.212 33.3457 188.122 33.3577 188.032 33.3577C187.232 33.3577 186.432 33.3577 185.632 33.3577C185.448 33.3577 185.376 33.3995 185.382 33.5965C185.396 34.0323 185.382 34.4682 185.382 34.9339H188.114V36.2832H185.414V38.0565H188.456V39.3999ZM193.412 39.3999C193.356 39.3999 193.274 39.2845 193.252 39.2009C193.1 38.6934 192.944 38.1879 192.822 37.6724C192.574 36.6335 192.212 36.3728 191.1 36.4942V39.4059H189.422V39.169C189.422 36.9062 189.422 34.6433 189.422 32.3825C189.422 32.1655 189.482 32.0799 189.7 32.072C190.5 32.0441 191.3 31.9705 192.1 31.9864C192.572 32.0005 193.04 32.0843 193.488 32.2352C194.278 32.4939 194.688 33.093 194.742 33.9089C194.796 34.7249 194.424 35.3697 193.694 35.7837C193.65 35.8096 193.604 35.8315 193.56 35.8534L193.402 35.9369C194.002 36.2196 194.248 36.7191 194.402 37.2783C194.602 37.9809 194.802 38.6854 195.002 39.4238C194.47 39.4277 193.94 39.4337 193.412 39.4198V39.3999Z" fill="#F3F4F6"/>
<path d="M192.434 33.2741C191.997 33.1682 191.543 33.1547 191.1 33.2343V35.3837C191.563 35.3407 192.022 35.2689 192.476 35.1687C192.668 35.0918 192.831 34.9585 192.945 34.7867C193.059 34.6149 193.117 34.4127 193.113 34.207C193.108 34.0013 193.041 33.8018 192.92 33.6352C192.798 33.4685 192.629 33.3426 192.434 33.2741Z" fill="#F3F4F6"/>
<path d="M173.734 36.2653H175.384C175.1 35.2603 174.82 34.2751 174.528 33.2482C174.258 34.2791 174 35.2682 173.734 36.2653Z" fill="#F3F4F6"/>
<path d="M153.762 36.2693H155.412C155.128 35.2583 154.848 34.2692 154.558 33.2442C154.288 34.2692 154.028 35.2563 153.762 36.2693Z" fill="#F3F4F6"/>
<path d="M149.01 33.2542C148.64 33.2341 148.27 33.2341 147.9 33.2542C147.9 33.9905 147.9 34.6811 147.9 35.3717C147.9 35.4235 147.972 35.517 148.016 35.519C148.454 35.5429 148.896 35.5787 149.308 35.3678C149.526 35.2519 149.701 35.0706 149.809 34.8496C149.916 34.6287 149.951 34.3796 149.908 34.1378C149.883 33.9102 149.78 33.698 149.617 33.5371C149.453 33.3761 149.239 33.2762 149.01 33.2542Z" fill="#F3F4F6"/>
</svg>
