<svg width="200" height="86" viewBox="0 0 200 86" fill="none" xmlns="http://www.w3.org/2000/svg">
<g clip-path="url(#clip0_2_214)">
<path d="M95.7794 7.5701C95.911 7.60456 96.0395 7.64216 96.1711 7.67663C96.1711 8.03696 96.2243 8.40356 96.1648 8.75449C94.7955 16.6097 93.4138 24.465 92.032 32.3202C91.5682 34.9522 91.07 37.5779 90.6658 40.2225C90.6063 40.611 90.9854 41.0684 91.1609 41.4946C91.6372 41.2345 92.1855 41.0465 92.5678 40.6862C92.8028 40.4637 92.7965 39.9749 92.8748 39.6021C94.9428 29.4188 97.0014 19.2355 99.0819 9.05529C99.1885 8.53829 99.4611 8.05576 99.6553 7.55756L100.038 7.6641C100.038 8.10276 100.097 8.55396 100.028 8.98322C99.1571 14.5574 98.261 20.1285 97.3837 25.7026C96.6317 30.481 95.8922 35.2593 95.1559 40.0407C94.9929 41.1061 95.4817 41.8017 96.2463 41.4789C96.7664 41.2596 97.2834 40.6235 97.4495 40.0689C97.8286 38.8156 97.9915 37.4996 98.2391 36.2087C99.9467 27.2066 101.648 18.2046 103.375 9.20569C103.487 8.61976 103.776 8.07143 103.982 7.5043C104.117 7.54816 104.252 7.5889 104.39 7.63276C104.39 8.09023 104.449 8.55709 104.38 9.00202C103.174 17.1017 101.952 25.1982 100.733 33.2947C100.392 35.5601 100 37.8192 99.7462 40.094C99.6961 40.5389 100.166 41.0403 100.395 41.5165C100.859 41.1687 101.347 40.846 101.773 40.4575C101.896 40.3478 101.842 40.0533 101.88 39.8433C102.541 36.0833 103.196 32.3233 103.867 28.5665C105.035 22.0116 106.204 15.4535 107.398 8.90176C107.492 8.39103 107.761 7.91163 107.949 7.4197C108.09 7.45416 108.231 7.48863 108.369 7.5231C108.397 8.00563 108.488 8.49443 108.441 8.97069C108.291 10.4904 108.09 12.0069 107.909 13.5234C106.74 23.2148 105.461 32.8936 104.446 42.6038C103.992 46.9622 102.798 50.5938 98.5931 52.7338C96.9043 53.5923 95.9329 55.2843 95.5444 57.1111C95.1872 58.7937 95.159 60.5452 94.9867 62.2685C94.8989 63.1458 95.2812 63.5218 96.1742 63.4184C98.3237 63.1709 100.483 63.008 102.623 62.6978C113.523 61.1186 121.194 55.0055 125.806 45.2577C129.604 37.2301 131.057 28.5853 130.287 19.7086C129.691 12.8403 126.878 7.1189 120.523 3.67538C117.161 1.85491 113.476 1.14052 109.723 1.09665C99.4015 0.974451 89.0772 1.01518 78.7529 0.961918C77.9571 0.958785 77.6751 1.21572 77.5403 2.00845C76.851 6.1507 76.0865 10.2804 75.3564 14.4133C73.0127 27.6986 70.669 40.9839 68.3284 54.266C67.7988 57.2615 67.285 60.2601 66.7617 63.2586C67.003 63.3276 67.122 63.3934 67.2411 63.3934C74.2096 63.3996 81.175 63.409 88.1435 63.384C88.4537 63.384 88.93 63.1552 89.0428 62.9046C91.2142 58.12 91.7876 54.7015 87.8834 51.5275C86.5831 50.4716 86.1476 49.0522 86.298 47.4322C86.3638 46.7147 86.4484 45.994 86.6144 45.2922C89.4626 33.1975 92.3234 21.1061 95.1966 9.01769C95.3157 8.51636 95.5757 8.04949 95.7731 7.56696L95.7794 7.5701ZM199.997 17.556C199.884 16.757 199.809 16.1272 199.709 15.5005C198.402 7.3445 193.511 2.08365 185.339 0.814652C180.843 0.115921 176.221 0.00938798 171.656 -1.19893e-05C163.942 -0.0156786 156.575 1.63872 150.302 6.36063C137.036 16.3465 132.364 30.011 134.692 46.0128C136.093 55.6384 142.259 61.5008 151.869 63.4968C159.254 65.029 166.643 64.7438 174.003 63.3119C181.031 61.9458 187.225 58.5963 193.342 55.0619C194.134 54.6044 194.451 54.0216 194.595 53.1819C195.754 46.4954 196.939 39.812 198.114 33.1255C198.418 31.3959 198.7 29.6632 199.004 27.8709H169.218C168.466 32.1635 167.721 36.4061 166.943 40.8303H179.84C179.517 42.6257 179.261 44.2582 178.913 45.875C178.828 46.2729 178.549 46.768 178.214 46.9528C173.762 49.3874 169.112 51.0575 163.907 50.7943C158.035 50.4966 154.106 47.0688 153.564 41.2533C152.937 34.5104 154.147 28.0119 157.324 22.0335C160.326 16.3873 165.198 13.4858 171.665 13.6111C176.378 13.702 179.815 15.6823 180.771 20.6047C180.783 20.6768 180.874 20.7332 180.981 20.8523C187.26 19.765 193.558 18.6746 199.994 17.5591L199.997 17.556ZM7.6641 1.04965C7.61084 1.26585 7.56384 1.42252 7.53564 1.57918C5.75591 11.6497 3.98558 21.717 2.19645 31.7844C1.26899 37.0077 0.28826 42.187 0.845992 47.5732C1.60426 54.8676 6.44211 61.1969 13.5955 62.8826C17.6907 63.8477 21.974 64.1986 26.1946 64.418C32.0382 64.7219 37.8913 64.2331 43.2806 61.7578C53.0754 57.2583 58.7247 49.3718 60.7363 38.9253C62.751 28.4694 64.4838 17.9633 66.3387 7.4761C66.7116 5.36424 67.0625 3.24924 67.426 1.13425C67.1659 1.05905 67.0468 0.993251 66.9278 0.993251C60.9807 0.983851 55.0305 0.993251 49.0835 0.961918C48.25 0.958785 48.1529 1.40998 48.0401 2.06171C45.9282 14.1375 43.7788 26.2102 41.6701 38.2892C40.329 45.9658 35.6635 50.1112 28.4944 49.9201C23.9762 49.7979 21.0089 47.7769 20.2131 44.02C19.9123 42.5975 19.8527 41.034 20.0909 39.6021C21.3881 31.7781 22.8137 23.973 24.1924 16.1617C25.076 11.1578 25.9564 6.1507 26.8557 1.05278H7.6641V1.04965ZM168.447 75.3282C167.789 78.5399 167.122 81.7954 166.455 85.0509C167.376 85.4018 167.796 85.1606 167.877 84.3052C167.912 83.9292 168.031 83.5594 168.109 83.1866C168.529 81.175 168.952 79.1665 169.431 76.8667C170.6 79.6177 171.612 82.0805 172.712 84.5026C172.865 84.841 173.436 85.0948 173.852 85.1637C174.022 85.1919 174.42 84.6561 174.495 84.3271C174.958 82.2623 175.363 80.1817 175.779 78.1043C175.967 77.1737 176.14 76.24 176.315 75.3345C175.41 75.0055 175.087 75.2499 174.946 76.0301C174.495 78.4835 173.971 80.9212 173.448 83.5124C172.314 80.9275 171.224 78.5085 170.202 76.0614C169.851 75.2217 169.369 74.9679 168.451 75.3282H168.447ZM185.844 82.0179C185.051 81.5917 184.64 81.8017 184.286 82.5286C183.722 83.6848 182.707 84.302 181.423 84.3114C180.389 84.3177 179.539 83.8884 179.016 82.9265C177.894 80.8679 179.01 77.4432 181.134 76.428C182.792 75.6384 184.108 76.1115 185.042 77.7127C185.204 77.9915 185.797 78.0197 186.367 78.2265C185.825 75.6948 183.976 74.5981 181.651 75.0963C178.8 75.7073 176.889 78.8062 177.402 81.974C177.819 84.5308 179.919 85.8938 182.438 85.2483C184.136 84.8096 185.204 83.7004 185.85 82.021L185.844 82.0179ZM165.96 75.3C165.016 75.0399 164.678 75.2311 164.534 76.0395C164.142 78.2422 163.638 80.4261 163.187 82.6163C163.021 83.4247 162.876 84.2394 162.723 85.0509C162.817 85.1418 162.911 85.2295 163.002 85.3204C163.34 85.1324 163.923 85.0039 163.979 84.7532C164.681 81.6325 165.305 78.4929 165.96 75.3V75.3ZM187.323 85.1042C188.447 85.477 188.629 84.8692 188.639 84.0263C187.73 83.7788 187.122 83.8853 187.323 85.1042Z" fill="#F3F4F6"/>
<path d="M95.7794 7.5701C95.5851 8.05263 95.3219 8.5195 95.2029 9.02083C92.3296 21.1092 89.472 33.2007 86.6207 45.2953C86.4546 45.994 86.3732 46.7178 86.3042 47.4354C86.1538 49.0553 86.5894 50.4716 87.8897 51.5306C91.7938 54.7015 91.2173 58.1231 89.049 62.9077C88.9362 63.1584 88.4568 63.3871 88.1498 63.3871C81.1813 63.4122 74.2159 63.4028 67.2474 63.3965C67.1283 63.3965 67.0092 63.3307 66.768 63.2618C67.2912 60.2632 67.8082 57.2646 68.3346 54.2691C70.6752 40.9839 73.019 27.6986 75.3627 14.4164C76.0927 10.2804 76.8541 6.1507 77.5466 2.01158C77.6782 1.21885 77.9602 0.961922 78.7592 0.965055C89.0835 1.01519 99.4047 0.977588 109.729 1.09979C113.483 1.14365 117.167 1.85805 120.53 3.67851C126.884 7.12203 129.698 12.8435 130.293 19.7117C131.064 28.5884 129.607 37.2333 125.812 45.2608C121.2 55.0117 113.53 61.1217 102.629 62.7009C100.489 63.0111 98.3299 63.1709 96.1805 63.4216C95.2906 63.525 94.9084 63.149 94.993 62.2717C95.1622 60.5483 95.1904 58.7968 95.5507 57.1142C95.9392 55.2875 96.9105 53.5955 98.5994 52.7369C102.804 50.5969 103.998 46.9685 104.452 42.6069C105.468 32.8999 106.746 23.2179 107.915 13.5265C108.097 12.01 108.297 10.4935 108.447 8.97383C108.494 8.49756 108.404 8.00876 108.375 7.52623C108.234 7.49177 108.093 7.4573 107.956 7.42283C107.768 7.9179 107.495 8.39416 107.404 8.9049C106.21 15.4567 105.042 22.0116 103.873 28.5696C103.202 32.3265 102.547 36.0896 101.886 39.8465C101.849 40.0564 101.902 40.3509 101.78 40.4606C101.35 40.8491 100.865 41.1719 100.401 41.5197C100.172 41.0434 99.7023 40.5421 99.7525 40.0971C100.009 37.8223 100.401 35.5632 100.739 33.2978C101.958 25.2013 103.18 17.1048 104.387 9.00516C104.452 8.5571 104.396 8.09336 104.396 7.6359C104.261 7.59203 104.127 7.5513 103.989 7.50743C103.782 8.07456 103.491 8.6229 103.381 9.20883C101.654 18.2077 99.953 27.2098 98.2453 36.2118C98.0009 37.5027 97.8349 38.8219 97.4557 40.0721C97.2865 40.6267 96.7695 41.2627 96.2525 41.4821C95.4849 41.8048 94.9961 41.1092 95.1621 40.0439C95.8985 35.2624 96.6379 30.4841 97.3899 25.7058C98.2673 20.1316 99.1634 14.5605 100.034 8.98636C100.1 8.5571 100.044 8.10903 100.044 7.66723L99.6616 7.5607C99.4673 8.0589 99.1947 8.54143 99.0882 9.05843C97.0077 19.2386 94.9491 29.4219 92.8811 39.6052C92.8059 39.9781 92.809 40.4669 92.574 40.6893C92.1918 41.0497 91.6434 41.2377 91.1672 41.4977C90.9917 41.0716 90.6126 40.6141 90.6721 40.2256C91.0763 37.5842 91.5745 34.9585 92.0382 32.3234C93.42 24.4681 94.8018 16.6129 96.1711 8.75763C96.2306 8.40983 96.1773 8.0401 96.1773 7.67977C96.0457 7.6453 95.9173 7.6077 95.7857 7.57323L95.7794 7.5701Z" fill="#F3F4F6"/>
<path d="M200 17.556C193.564 18.6715 187.263 19.7619 180.987 20.8491C180.88 20.7269 180.79 20.6705 180.777 20.6016C179.818 15.6823 176.384 13.6989 171.672 13.608C165.204 13.4858 160.332 16.3841 157.33 22.0304C154.153 28.0088 152.944 34.5073 153.57 41.2502C154.109 47.0656 158.039 50.4935 163.914 50.7912C169.118 51.0544 173.768 49.3843 178.22 46.9497C178.556 46.7648 178.834 46.2698 178.919 45.8718C179.264 44.2582 179.524 42.6226 179.846 40.8272H166.95C167.727 36.3998 168.469 32.1604 169.225 27.8678H199.01C198.706 29.6632 198.421 31.3959 198.12 33.1223C196.948 39.8089 195.761 46.4922 194.601 53.1787C194.457 54.0185 194.141 54.6013 193.348 55.0587C187.232 58.5931 181.037 61.9426 174.009 63.3088C166.649 64.7376 159.261 65.0258 151.875 63.4936C142.265 61.4977 136.099 55.6353 134.698 46.0097C132.37 30.011 137.042 16.3434 150.309 6.3575C156.575 1.63872 163.942 -0.0156786 171.656 -1.1989e-05C176.221 0.00938798 180.843 0.115921 185.342 0.814652C193.511 2.08365 198.402 7.3445 199.712 15.5005C199.812 16.1272 199.89 16.757 200 17.556Z" fill="#F3F4F6"/>
<path d="M7.66411 1.04967H26.8557C25.9565 6.14759 25.076 11.1515 24.1924 16.1586C22.8137 23.9699 21.3881 31.775 20.0909 39.5989C19.8527 41.0309 19.9123 42.5944 20.2131 44.0169C21.0089 47.7738 23.9731 49.7948 28.4944 49.917C35.6635 50.1112 40.3321 45.9627 41.6701 38.2861C43.7788 26.2071 45.9283 14.1376 48.0401 2.0586C48.1529 1.40687 48.25 0.952538 49.0835 0.958804C55.0306 0.987004 60.9807 0.980738 66.9278 0.990138C67.0468 0.990138 67.1659 1.05594 67.426 1.13114C67.0656 3.24613 66.7116 5.36112 66.3387 7.47298C64.4869 17.9602 62.7511 28.4662 60.7363 38.9221C58.7247 49.3686 53.0754 57.2552 43.2806 61.7547C37.8913 64.23 32.0382 64.7188 26.1946 64.4149C21.974 64.1955 17.6907 63.8446 13.5955 62.8795C6.44212 61.1938 1.60427 54.8645 0.846001 47.5701C0.285136 42.1839 1.26587 37.0014 2.19646 31.7813C3.98559 21.7171 5.75592 11.6497 7.53565 1.58234C7.56385 1.42254 7.61084 1.269 7.66411 1.0528V1.04967Z" fill="#F3F4F6"/>
<path d="M19.906 85.2232C20.4324 82.6195 20.8993 80.2162 21.4069 77.8223C21.9709 75.1559 21.9865 75.159 24.747 75.159C25.0008 75.159 25.2577 75.1559 25.5115 75.159C26.6959 75.1903 27.8458 75.3219 28.3503 76.6285C28.8046 77.8098 28.3628 78.8501 26.956 79.9342C28.1748 80.705 28.6887 81.7735 28.0965 83.1365C27.498 84.512 26.392 85.2076 24.8817 85.217C23.2806 85.2264 21.6795 85.217 19.906 85.217V85.2232ZM21.3818 84.277C22.9391 84.1579 24.3397 84.1579 25.6901 83.9073C26.674 83.7255 27.1283 82.867 27.0343 81.8706C26.9309 80.7771 26.0912 80.5671 25.1794 80.5515C24.1705 80.5327 23.1615 80.5483 22.1275 80.5483C21.8769 81.8017 21.6544 82.914 21.3818 84.277V84.277ZM22.3719 79.5582C23.7099 79.4705 24.8065 79.4673 25.8812 79.3075C26.8745 79.1603 27.3821 78.4145 27.1784 77.4683C27.0813 77.0077 26.511 76.3434 26.1162 76.3121C25.0822 76.2337 24.0263 76.4531 22.9798 76.5659C22.9453 76.569 22.9171 76.7163 22.9015 76.7977C22.7417 77.6187 22.585 78.4427 22.3751 79.5551L22.3719 79.5582Z" fill="#F3F4F6"/>
<path d="M18.3456 85.0384C17.3523 85.3737 16.9011 85.1825 16.616 84.4149C16.2776 83.5062 15.8891 82.5975 15.3689 81.786C15.0869 81.3442 14.5198 80.9118 14.0153 80.8147C12.0476 80.4387 11.8565 80.6173 11.4366 82.6038C11.3144 83.1835 11.1578 83.76 11.0888 84.3459C10.9823 85.2295 10.5342 85.3862 9.67256 85.0447C10.3337 81.8142 10.9948 78.59 11.6654 75.3126C13.6926 75.3126 15.7199 75.1778 17.7064 75.3972C18.2641 75.4598 18.9441 76.4938 19.1477 77.2019C19.4548 78.2829 18.9723 79.3138 17.979 79.9311C17.415 80.282 16.7476 80.4637 16.1397 80.7175C16.8416 82.0899 17.5748 83.525 18.3487 85.0447L18.3456 85.0384ZM12.057 79.765C13.7145 79.6115 15.2217 79.5833 16.6787 79.295C17.5654 79.1195 18.0667 78.2986 17.9289 77.3492C17.7816 76.3434 16.992 76.1805 16.1147 76.2056C15.2311 76.2306 14.3412 76.168 13.4607 76.24C13.1725 76.262 12.7401 76.5408 12.668 76.7883C12.4142 77.6625 12.2889 78.5743 12.0539 79.7681L12.057 79.765Z" fill="#F3F4F6"/>
<path d="M118.02 85.0384C118.681 81.8079 119.342 78.5837 120.013 75.3063C122.04 75.3063 124.067 75.1715 126.057 75.3909C126.614 75.4535 127.294 76.4875 127.495 77.1957C127.802 78.2767 127.316 79.3075 126.323 79.9248C125.759 80.2757 125.092 80.4574 124.487 80.7081C125.189 82.0805 125.919 83.5187 126.668 84.9851C125.653 85.4708 125.22 85.1136 124.91 84.2926C124.581 83.4247 124.221 82.5505 123.716 81.7797C123.428 81.3379 122.867 80.9055 122.363 80.8115C120.392 80.4387 120.207 80.611 119.784 82.6038C119.662 83.1834 119.505 83.76 119.436 84.3459C119.329 85.2295 118.878 85.383 118.023 85.0384H118.02ZM120.404 79.765C122.065 79.6083 123.575 79.5801 125.032 79.2919C125.919 79.1164 126.42 78.2923 126.279 77.3429C126.129 76.3371 125.336 76.1773 124.459 76.2024C123.575 76.2275 122.685 76.1648 121.805 76.2369C121.52 76.2588 121.087 76.5408 121.015 76.7883C120.761 77.6625 120.636 78.5743 120.404 79.765V79.765Z" fill="#F3F4F6"/>
<path d="M74.335 83.5156C74.8645 80.9149 75.3909 78.5242 75.817 76.1115C75.9643 75.2749 76.2807 74.9992 77.2427 75.3063C76.5878 78.5681 75.9361 81.8236 75.2875 85.0478C74.2284 85.4896 73.7584 85.0572 73.3981 84.161C72.455 81.8079 71.4429 79.483 70.3337 76.8573C69.7666 79.5363 69.2276 81.9301 68.767 84.3396C68.6198 85.1167 68.297 85.3517 67.3821 85.076C67.5764 84.0608 67.7581 83.0424 67.968 82.0304C68.366 80.0783 68.7576 78.1263 69.2088 76.1867C69.2966 75.817 69.6506 75.5099 69.8825 75.1715C70.2773 75.4598 70.857 75.6635 71.0387 76.052C72.1479 78.4271 73.1694 80.8429 74.335 83.5156V83.5156Z" fill="#F3F4F6"/>
<path d="M88.554 83.5125C89.0804 80.9055 89.6036 78.4647 90.0548 76.0113C90.2021 75.2185 90.5405 75.0086 91.4335 75.3376C91.0763 77.1643 90.7191 79.013 90.3494 80.8617C90.1175 82.0241 89.8982 83.1929 89.5974 84.3397C89.5128 84.6655 89.1148 85.1919 88.9456 85.1606C88.532 85.0854 87.968 84.8253 87.8145 84.4838C86.8024 82.2466 85.8844 79.9687 84.9319 77.7033C84.8535 77.5153 84.7501 77.3335 84.5339 76.9043C84.0671 79.1195 83.6503 81.0967 83.2336 83.0707C83.1459 83.4843 83.0205 83.8978 82.9829 84.3146C82.9046 85.2013 82.4346 85.3423 81.5541 85.0791C82.2309 81.7797 82.9015 78.5211 83.5563 75.3219C84.4963 74.9491 84.9663 75.2436 85.311 76.0677C86.323 78.4835 87.4009 80.8742 88.554 83.5093V83.5125Z" fill="#F3F4F6"/>
<path d="M168.447 75.3282C169.365 74.9679 169.848 75.2185 170.199 76.0614C171.22 78.5085 172.314 80.9274 173.445 83.5124C173.968 80.9212 174.492 78.4835 174.943 76.0301C175.087 75.2499 175.407 75.0055 176.312 75.3345C176.137 76.24 175.964 77.1737 175.776 78.1043C175.36 80.1817 174.955 82.2591 174.492 84.3271C174.416 84.6561 174.018 85.1919 173.849 85.1637C173.433 85.0948 172.862 84.841 172.709 84.5026C171.609 82.0805 170.597 79.6177 169.428 76.8667C168.946 79.1665 168.526 81.1781 168.106 83.1866C168.028 83.5594 167.909 83.9292 167.874 84.3052C167.793 85.1606 167.376 85.4018 166.452 85.0509C167.119 81.7985 167.786 78.543 168.444 75.3282H168.447Z" fill="#F3F4F6"/>
<path d="M41.8142 76.8949C41.2847 79.4924 40.8147 81.8016 40.3384 84.1078C40.1974 84.7877 40.0877 85.5272 38.8877 85.0509C39.0255 84.3334 39.1665 83.5688 39.3232 82.8043C39.7713 80.6016 40.2068 78.3957 40.7019 76.2055C40.7865 75.8295 41.1468 75.5162 41.3818 75.1715C41.7829 75.4567 42.3751 75.6541 42.5537 76.0395C43.5689 78.2297 44.4807 80.4669 45.4332 82.6884C45.5053 82.8607 45.593 83.0268 45.8468 83.572C46.3888 80.846 46.8557 78.4991 47.3257 76.1523C47.5294 75.1433 47.5325 75.1433 48.7576 75.3313C48.1372 78.3989 47.5356 81.4632 46.8776 84.5182C46.8181 84.7877 46.3888 85.1982 46.182 85.17C45.8029 85.1167 45.2734 84.8723 45.1324 84.559C44.1893 82.4753 43.3307 80.3509 42.4409 78.2422C42.2842 77.8693 42.0993 77.5059 41.8142 76.8949V76.8949Z" fill="#F3F4F6"/>
<path d="M116.873 77.9633C116.478 78.0699 116.162 78.1545 115.873 78.2297C115.77 78.1419 115.67 78.1012 115.651 78.0354C114.952 75.5162 111.719 75.5726 110.13 77.2646C108.783 78.6965 108.432 80.4606 108.845 82.3531C109.074 83.4059 109.804 83.9981 110.863 84.2268C113.207 84.7344 114.72 83.713 114.918 81.316H112.201C112.117 81.1938 112.029 81.0685 111.944 80.9463C112.198 80.6831 112.439 80.2099 112.712 80.1911C113.887 80.1065 115.071 80.1535 116.491 80.1535C116.227 81.5197 116.002 82.7416 115.748 83.9605C115.72 84.1046 115.557 84.2331 115.428 84.3365C114.065 85.4488 110.929 85.7089 109.344 84.8504C107.89 84.0639 107.225 82.3844 107.501 80.1911C107.893 77.0578 110.309 74.8739 113.235 74.9992C115.14 75.0807 116.234 75.9361 116.873 77.9633V77.9633Z" fill="#F3F4F6"/>
<path d="M101.554 80.1535C101.285 81.4695 101.072 82.6289 100.799 83.7725C100.739 84.0169 100.504 84.2895 100.276 84.4117C98.8187 85.1794 97.2865 85.5961 95.6227 85.2797C93.9966 84.9726 92.9438 84.0263 92.6085 82.4001C92.1385 80.1159 92.737 78.0793 94.382 76.45C95.7826 75.0619 97.5309 74.6859 99.4423 75.2154C100.793 75.5883 101.617 76.4468 101.905 78.261C101.313 78.026 100.746 77.9821 100.561 77.6939C99.2543 75.651 96.6379 75.4724 94.9992 77.415C93.9339 78.6746 93.5516 80.1911 93.749 81.8173C93.8838 82.9453 94.4352 83.8289 95.6071 84.1548C97.0045 84.5433 98.3707 84.2801 99.4485 83.4091C99.8935 83.0519 99.8684 82.1119 100.1 81.2784H97.1612C97.0829 81.1562 97.0045 81.0371 96.9262 80.9149C97.2082 80.6611 97.4745 80.2068 97.7722 80.188C98.9848 80.1034 100.207 80.1535 101.56 80.1535H101.554Z" fill="#F3F4F6"/>
<path d="M53.0378 85.2233C53.6676 82.2403 54.3412 79.4861 54.7956 76.6975C55.0118 75.369 55.5945 74.9836 56.8009 75.1528C57.133 75.1998 57.4777 75.159 57.8192 75.159C61.6325 75.1653 63.3213 77.4777 62.2215 81.1844C61.4664 83.7318 59.6553 85.1449 56.992 85.217C55.7324 85.2515 54.4728 85.2233 53.0409 85.2233H53.0378ZM54.57 84.0044C58.5085 84.7595 60.7614 83.3025 61.2001 79.812C61.5071 77.3806 60.4857 76.2181 58.0291 76.2087C57.4432 76.2087 56.8541 76.2087 56.2181 76.2087C55.6541 78.8783 55.112 81.4413 54.5668 84.0044H54.57Z" fill="#F3F4F6"/>
<path d="M138.305 79.4642C138.321 82.3249 136.66 84.5997 134.084 85.242C131.44 85.9032 129.099 84.2488 128.842 81.5353C128.563 78.6057 130.071 76.0363 132.521 75.253C135.657 74.2535 138.286 76.1679 138.308 79.4611L138.305 79.4642ZM137.061 79.4203C137.055 76.9607 135.121 75.4943 132.916 76.2745C130.606 77.0923 129.268 80.6486 130.456 82.7949C131.051 83.8696 132.333 84.4712 133.58 84.2582C135.595 83.9135 137.064 81.8706 137.061 79.4203Z" fill="#F3F4F6"/>
<path d="M37.3743 85.0196C36.4123 85.4394 36.1366 85.1136 35.9956 84.2958C35.6541 82.3218 35.6008 82.4784 33.608 82.2842C31.8784 82.115 30.9666 82.7479 30.3588 84.2832C29.9577 85.2922 29.8543 85.2483 28.5508 85.0728C29.2527 83.8195 29.9264 82.6163 30.6 81.4162C31.5526 79.718 32.5051 78.0229 33.4576 76.3246C33.9214 75.4974 34.6995 75.1486 35.792 75.2781C36.3089 78.4741 36.8353 81.7139 37.368 85.0164L37.3743 85.0196ZM32.0821 81.2784H35.4818C35.2436 79.6741 35.0212 78.1764 34.7486 76.3403C33.7678 78.1576 32.972 79.6303 32.0821 81.2784V81.2784Z" fill="#F3F4F6"/>
<path d="M142.679 75.3877C142.265 77.2834 141.855 79.1759 141.441 81.0716C141.021 82.9986 141.325 83.7913 142.629 84.183C144.202 84.653 145.794 83.9354 146.276 82.3124C146.878 80.2883 147.313 78.214 147.736 76.1429C147.918 75.2593 148.278 74.9773 149.218 75.3313C148.698 77.6437 148.281 79.9718 147.639 82.2372C146.881 84.9099 144.412 86.0442 141.808 85.0854C140.495 84.6028 139.734 83.4592 139.987 82.1056C140.376 80.0251 140.833 77.9571 141.344 75.9047C141.432 75.5569 141.943 75.3157 142.259 75.0274C142.397 75.1496 142.538 75.2687 142.676 75.3909L142.679 75.3877Z" fill="#F3F4F6"/>
<path d="M9.26524 75.3125C8.74824 77.6155 8.33151 79.9029 7.71425 82.1369C6.96538 84.8473 4.59032 86.0128 1.94893 85.1167C0.510737 84.6279 -0.225594 83.4717 0.0626719 81.9552C0.441804 79.9593 0.930602 77.9853 1.31913 75.9925C1.47267 75.2091 1.8424 75.0086 2.71346 75.3439C2.32806 77.1675 1.94893 79.013 1.551 80.8523C1.07787 83.0393 1.32853 83.7913 2.6978 84.1861C4.36472 84.6686 5.92825 83.854 6.43272 82.0523C6.98105 80.1003 7.39778 78.1075 7.78318 76.1115C7.96178 75.1872 8.38164 75.0149 9.26524 75.3094V75.3125Z" fill="#F3F4F6"/>
<path d="M149.553 85.0823C150.183 81.9897 150.775 78.9629 151.455 75.9549C151.527 75.629 152.098 75.228 152.467 75.1966C153.561 75.0964 154.667 75.1496 155.77 75.1622C157.738 75.1841 158.556 75.7575 158.728 77.2145C158.928 78.8908 157.992 80.4481 156.381 80.7927C155.278 81.0309 154.109 81.1155 152.984 81.0497C151.888 80.9839 151.446 81.3849 151.346 82.4127C151.283 83.0425 151.095 83.6566 151.004 84.2833C150.888 85.0791 150.503 85.3956 149.553 85.0791V85.0823ZM152.637 76.2087C152.383 77.5435 152.157 78.7247 151.916 79.9906C153.166 79.9906 154.228 80.0846 155.262 79.953C155.845 79.8809 156.591 79.577 156.885 79.1289C157.258 78.5618 157.49 77.6719 157.318 77.0516C157.205 76.6505 156.284 76.3246 155.685 76.2432C154.733 76.1116 153.752 76.2087 152.64 76.2087H152.637Z" fill="#F3F4F6"/>
<path d="M185.844 82.0179C185.198 83.7005 184.13 84.8097 182.431 85.2452C179.912 85.8938 177.813 84.5277 177.396 81.9709C176.882 78.8031 178.794 75.7042 181.645 75.0932C183.97 74.595 185.819 75.6917 186.361 78.2234C185.794 78.0166 185.198 77.9884 185.035 77.7095C184.102 76.1084 182.786 75.6322 181.128 76.4249C179 77.4401 177.888 80.8648 179.01 82.9234C179.533 83.8822 180.382 84.3146 181.416 84.3083C182.704 84.2989 183.716 83.6817 184.28 82.5255C184.634 81.7985 185.045 81.5886 185.837 82.0147L185.844 82.0179Z" fill="#F3F4F6"/>
<path d="M66.8495 75.347C66.2259 78.3769 65.593 81.3975 64.9914 84.4243C64.8347 85.217 64.4399 85.3831 63.5971 85.0353C64.0608 82.7417 64.5245 80.4324 64.9914 78.1231C65.1261 77.4589 65.3204 76.8009 65.405 76.1304C65.5178 75.2217 65.9377 74.9616 66.8463 75.3439L66.8495 75.347Z" fill="#F3F4F6"/>
<path d="M165.96 75.3C165.305 78.4929 164.681 81.6325 163.979 84.7533C163.923 85.0039 163.34 85.1355 163.002 85.3204C162.908 85.2295 162.814 85.1418 162.723 85.0509C162.876 84.2394 163.021 83.4247 163.187 82.6163C163.638 80.423 164.142 78.2422 164.534 76.0395C164.678 75.2311 165.016 75.04 165.96 75.3V75.3Z" fill="#F3F4F6"/>
<path d="M81.0653 75.3188C80.4136 78.4866 79.7932 81.5917 79.1039 84.678C79.0412 84.9569 78.5179 85.1355 78.2077 85.358C78.0824 85.2734 77.9571 85.1888 77.8349 85.1042C77.9821 84.2989 78.1106 83.4937 78.2767 82.6947C78.7341 80.4606 79.2449 78.2359 79.6522 75.9925C79.8026 75.1559 80.1943 75.0525 81.0685 75.3188H81.0653Z" fill="#F3F4F6"/>
<path d="M187.323 85.101C187.122 83.8822 187.73 83.7757 188.639 84.0232C188.629 84.866 188.447 85.4739 187.323 85.101Z" fill="#F3F4F6"/>
</g>
<defs>
<clipPath id="clip0_2_214">
<rect width="200" height="85.4206" fill="white"/>
</clipPath>
</defs>
</svg>
