<svg width="307" height="103" viewBox="0 0 307 103" fill="none" xmlns="http://www.w3.org/2000/svg">
<path d="M150.368 8.29512C150.155 8.82807 149.866 9.34371 149.735 9.89741C146.579 23.2487 143.44 36.6034 140.308 49.9616C140.125 50.7333 140.036 51.5327 139.96 52.3252C139.795 54.1144 140.273 55.6786 141.702 56.8483C145.99 60.3505 145.357 64.1296 142.975 69.414C142.851 69.6909 142.325 69.9435 141.987 69.9435C134.333 69.9712 126.681 69.9608 119.027 69.9539C118.896 69.9539 118.765 69.8812 118.5 69.8051C119.075 66.4932 119.643 63.1813 120.221 59.8729C122.792 45.1997 125.367 30.5265 127.941 15.8567C128.743 11.2886 129.579 6.72744 130.34 2.15589C130.485 1.28035 130.794 0.996571 131.672 1.00003C143.013 1.0554 154.351 1.01387 165.692 1.14884C169.815 1.19729 173.863 1.98632 177.556 3.99697C184.536 7.80025 187.627 14.1194 188.281 21.7052C189.128 31.5093 187.527 41.0573 183.359 49.9235C178.293 60.6931 169.867 67.4414 157.892 69.1856C155.542 69.5282 153.17 69.7047 150.809 69.9816C149.832 70.0958 149.412 69.6805 149.505 68.7115C149.69 66.8081 149.721 64.8736 150.117 63.0152C150.544 60.9977 151.611 59.1289 153.466 58.1807C158.085 55.817 159.397 51.8096 159.896 46.9923C161.011 36.2712 162.415 25.5777 163.699 14.8739C163.899 13.1989 164.119 11.5239 164.284 9.8455C164.336 9.31948 164.236 8.77962 164.205 8.24667C164.05 8.20861 163.895 8.17054 163.744 8.13247C163.537 8.67926 163.238 9.20528 163.138 9.76937C161.827 17.0056 160.543 24.2453 159.259 31.4885C158.522 35.6379 157.803 39.7941 157.077 43.9435C157.035 44.1753 157.094 44.5006 156.96 44.6218C156.488 45.0509 155.955 45.4073 155.445 45.7915C155.194 45.2655 154.678 44.7117 154.733 44.2203C155.015 41.7079 155.445 39.2127 155.817 36.7107C157.156 27.7683 158.498 18.8259 159.823 9.88011C159.896 9.38523 159.834 8.87305 159.834 8.3678C159.686 8.31935 159.538 8.27436 159.386 8.22591C159.159 8.85229 158.839 9.45791 158.719 10.1051C156.822 20.0441 154.953 29.9866 153.077 39.9291C152.809 41.3549 152.626 42.8118 152.21 44.1926C152.024 44.8052 151.456 45.5077 150.888 45.7499C150.045 46.1064 149.508 45.3381 149.69 44.1615C150.499 38.8805 151.312 33.603 152.138 28.3255C153.101 22.1689 154.086 16.0159 155.043 9.85935C155.115 9.38523 155.053 8.89036 155.053 8.4024L154.633 8.28474C154.42 8.83499 154.12 9.36793 154.003 9.93894C151.718 21.1827 149.456 32.4298 147.185 43.677C147.102 44.0888 147.106 44.6287 146.847 44.8744C146.428 45.2724 145.825 45.48 145.302 45.7673C145.109 45.2966 144.693 44.7913 144.758 44.3622C145.202 41.4449 145.749 38.5448 146.259 35.6344C147.777 26.9585 149.295 18.2826 150.799 9.60672C150.864 9.22258 150.806 8.81422 150.806 8.41625C150.661 8.37818 150.52 8.33665 150.375 8.29858L150.368 8.29512Z" fill="#111827"/>
<path d="M263.5 19.3197C256.368 20.5472 249.385 21.7472 242.431 22.9437C242.313 22.8092 242.212 22.7471 242.198 22.6713C241.135 17.2578 237.33 15.0751 232.108 14.9751C224.941 14.8407 219.542 18.0301 216.215 24.2436C212.695 30.8225 211.354 37.9738 212.049 45.3941C212.646 51.7938 217 55.566 223.511 55.8935C229.278 56.1832 234.431 54.3453 239.365 51.6662C239.736 51.4627 240.045 50.9179 240.139 50.48C240.521 48.7043 240.809 46.9044 241.167 44.9286H226.875C227.736 40.0565 228.559 35.3912 229.396 30.6674H262.403C262.066 32.6431 261.75 34.5499 261.417 36.4498C260.118 43.808 258.802 51.1628 257.517 58.521C257.358 59.4451 257.007 60.0864 256.129 60.5898C249.351 64.4793 242.486 68.1653 234.698 69.6686C226.542 71.2409 218.354 71.5582 210.17 69.8721C199.521 67.6756 192.688 61.2243 191.136 50.6318C188.556 33.0258 193.733 17.9853 208.434 6.99628C215.379 1.80347 223.542 -0.0171193 232.09 0.00012114C237.149 0.0104654 242.271 0.1277 247.257 0.896622C256.309 2.2931 261.729 8.08243 263.181 17.0578C263.292 17.7474 263.378 18.4405 263.5 19.3197Z" fill="#111827"/>
<path d="M51.1368 1.10018H72.1272C71.1437 6.7167 70.1807 12.2297 69.2143 17.7461C67.7064 26.3521 66.1471 34.9512 64.7283 43.571C64.4679 45.1486 64.533 46.8712 64.862 48.4384C65.7324 52.5775 68.9744 54.804 73.9195 54.9387C81.7605 55.1527 86.8667 50.5822 88.3301 42.1246C90.6364 28.8169 92.9874 15.5195 95.2972 2.21175C95.4205 1.49372 95.5268 0.993166 96.4383 1.00007C102.943 1.03114 109.451 1.02424 115.955 1.03459C116.085 1.03459 116.216 1.10708 116.5 1.18993C116.106 3.52008 115.719 5.85023 115.311 8.17693C113.285 19.731 111.387 31.3058 109.183 42.8254C106.983 54.3346 100.804 63.0234 90.0915 67.9806C84.1971 70.7077 77.7955 71.2463 71.4041 70.9114C66.788 70.6698 62.1032 70.2831 57.6242 69.2199C49.8003 67.3627 44.509 60.3895 43.6797 52.3531C43.0663 46.419 44.1389 40.7092 45.1567 34.9581C47.1136 23.87 49.0498 12.7785 50.9963 1.68703C51.0272 1.51098 51.0786 1.34183 51.1368 1.10363V1.10018Z" fill="#111827"/>
<path d="M274.14 86.5734C273.069 91.8002 271.983 97.0983 270.897 102.396C272.396 102.968 273.079 102.575 273.212 101.183C273.268 100.571 273.462 99.9692 273.589 99.3624C274.272 96.0886 274.961 92.82 275.741 89.0771C277.643 93.5543 279.29 97.5623 281.08 101.504C281.33 102.055 282.258 102.468 282.936 102.58C283.212 102.626 283.859 101.754 283.982 101.219C284.736 97.8581 285.394 94.4722 286.072 91.0914C286.378 89.5769 286.659 88.0573 286.944 86.5836C285.471 86.0482 284.945 86.4459 284.716 87.7156C283.982 91.7084 283.13 95.6756 282.278 99.8927C280.432 95.6858 278.658 91.7492 276.995 87.7666C276.424 86.4 275.639 85.987 274.145 86.5734H274.14ZM302.451 97.4604C301.161 96.7669 300.493 97.1085 299.917 98.2915C298.999 100.173 297.347 101.178 295.256 101.193C293.573 101.203 292.192 100.505 291.34 98.9392C289.514 95.5889 291.33 90.0154 294.787 88.3632C297.485 87.0782 299.626 87.8482 301.146 90.4539C301.411 90.9078 302.375 90.9537 303.303 91.2902C302.421 87.17 299.412 85.3853 295.628 86.196C290.988 87.1904 287.877 92.2336 288.714 97.389C289.392 101.55 292.809 103.768 296.908 102.718C299.672 102.004 301.411 100.199 302.462 97.4655L302.451 97.4604ZM270.091 86.5275C268.556 86.1043 268.005 86.4153 267.771 87.7309C267.133 91.3157 266.312 94.8699 265.578 98.4343C265.308 99.7499 265.073 101.076 264.823 102.396C264.976 102.544 265.129 102.687 265.277 102.835C265.828 102.529 266.776 102.32 266.868 101.912C268.01 96.8331 269.025 91.7237 270.091 86.5275ZM304.858 102.483C306.689 103.09 306.985 102.101 307 100.729C305.521 100.326 304.532 100.5 304.858 102.483Z" fill="white"/>
<path d="M32.3947 102.677C33.2514 98.4394 34.0112 94.5283 34.8373 90.6324C35.7552 86.2929 35.7807 86.298 40.2732 86.298C40.6863 86.298 41.1044 86.2929 41.5175 86.298C43.445 86.349 45.3165 86.5632 46.1375 88.6896C46.8769 90.612 46.1579 92.305 43.8683 94.0693C45.8519 95.3238 46.6882 97.0626 45.7244 99.2808C44.7504 101.519 42.9504 102.651 40.4925 102.667C37.8867 102.682 35.2809 102.667 32.3947 102.667V102.677ZM34.7965 101.137C37.3309 100.943 39.6103 100.943 41.8081 100.535C43.4093 100.239 44.1487 98.8423 43.9957 97.2207C43.8275 95.441 42.4608 95.0994 40.9769 95.0739C39.3349 95.0433 37.6929 95.0688 36.0102 95.0688C35.6022 97.1085 35.2402 98.9188 34.7965 101.137ZM36.4079 93.4574C38.5853 93.3146 40.3701 93.3095 42.1192 93.0495C43.7357 92.8098 44.5618 91.5962 44.2303 90.0562C44.0722 89.3066 43.1441 88.2256 42.5016 88.1746C40.8188 88.0471 39.1004 88.404 37.3972 88.5876C37.3411 88.5927 37.2952 88.8324 37.2697 88.965C37.0096 90.301 36.7547 91.6421 36.413 93.4523L36.4079 93.4574Z" fill="#111827"/>
<path d="M29.8552 102.376C28.2387 102.922 27.5044 102.611 27.0404 101.361C26.4897 99.8825 25.8573 98.4037 25.0108 97.083C24.5519 96.364 23.6289 95.6603 22.8079 95.5022C19.6055 94.8903 19.2945 95.181 18.6112 98.4139C18.4123 99.3573 18.1573 100.296 18.0451 101.249C17.8718 102.687 17.1425 102.942 15.7402 102.386C16.8162 97.1289 17.8922 91.8818 18.9834 86.5479C22.2827 86.5479 25.582 86.3286 28.815 86.6856C29.7227 86.7876 30.8292 88.4703 31.1607 89.6228C31.6604 91.382 30.8751 93.0597 29.2586 94.0642C28.3407 94.6354 27.2546 94.9311 26.2653 95.3442C27.4075 97.5776 28.6008 99.9131 29.8603 102.386L29.8552 102.376ZM19.6208 93.794C22.3184 93.5441 24.7712 93.4982 27.1424 93.0291C28.5855 92.7435 29.4014 91.4075 29.177 89.8624C28.9374 88.2256 27.6523 87.9604 26.2245 88.0012C24.7865 88.042 23.3383 87.94 21.9053 88.0573C21.4362 88.093 20.7325 88.5468 20.6152 88.9497C20.2022 90.3724 19.9982 91.8563 19.6157 93.7991L19.6208 93.794Z" fill="#111827"/>
<path d="M192.071 102.376C193.147 97.1187 194.223 91.8715 195.314 86.5377C198.613 86.5377 201.913 86.3184 205.151 86.6754C206.058 86.7774 207.165 88.4601 207.491 89.6126C207.991 91.3718 207.201 93.0495 205.584 94.054C204.666 94.6252 203.58 94.9209 202.596 95.3289C203.738 97.5623 204.926 99.9029 206.145 102.289C204.493 103.08 203.789 102.498 203.284 101.162C202.749 99.7499 202.162 98.3272 201.341 97.0728C200.872 96.3538 199.959 95.6501 199.138 95.4971C195.931 94.8903 195.63 95.1708 194.942 98.4139C194.743 99.3573 194.488 100.296 194.376 101.249C194.202 102.687 193.468 102.937 192.076 102.376H192.071ZM195.951 93.794C198.654 93.539 201.112 93.4931 203.483 93.024C204.926 92.7384 205.742 91.3973 205.513 89.8522C205.268 88.2154 203.978 87.9553 202.55 87.9961C201.112 88.0369 199.664 87.9349 198.231 88.0522C197.767 88.0879 197.063 88.5468 196.946 88.9497C196.533 90.3724 196.329 91.8563 195.951 93.794Z" fill="#111827"/>
<path d="M120.976 99.8978C121.837 95.6654 122.694 91.7747 123.388 87.8482C123.627 86.4867 124.142 86.038 125.708 86.5377C124.642 91.846 123.581 97.1442 122.526 102.391C120.802 103.11 120.037 102.407 119.451 100.948C117.916 97.1187 116.269 93.335 114.464 89.0618C113.541 93.4217 112.664 97.3176 111.914 101.239C111.674 102.504 111.149 102.886 109.66 102.437C109.976 100.785 110.272 99.1278 110.614 97.4807C111.261 94.3039 111.899 91.127 112.633 87.9706C112.776 87.3689 113.352 86.8691 113.729 86.3184C114.372 86.7876 115.315 87.119 115.611 87.7513C117.416 91.6166 119.079 95.5481 120.976 99.8978Z" fill="#111827"/>
<path d="M144.116 99.8927C144.973 95.6501 145.825 91.6778 146.559 87.685C146.799 86.3949 147.349 86.0533 148.803 86.5887C148.221 89.5616 147.64 92.5702 147.038 95.5787C146.661 97.4706 146.304 99.3726 145.815 101.239C145.677 101.769 145.029 102.626 144.754 102.575C144.081 102.453 143.163 102.029 142.913 101.473C141.266 97.8326 139.772 94.1254 138.222 90.4387C138.094 90.1327 137.926 89.8369 137.574 89.1383C136.814 92.7435 136.136 95.9612 135.458 99.1737C135.315 99.8468 135.111 100.52 135.05 101.198C134.922 102.641 134.157 102.871 132.725 102.442C133.826 97.0728 134.917 91.7696 135.983 86.5632C137.513 85.9564 138.278 86.4357 138.839 87.7768C140.486 91.7084 142.24 95.5991 144.116 99.8876V99.8927Z" fill="#111827"/>
<path d="M274.14 86.5734C275.634 85.987 276.419 86.3949 276.99 87.7666C278.653 91.7492 280.432 95.6858 282.273 99.8927C283.125 95.6756 283.976 91.7084 284.711 87.7156C284.945 86.4459 285.465 86.0482 286.939 86.5836C286.654 88.0573 286.373 89.5769 286.067 91.0914C285.389 94.4722 284.731 97.853 283.976 101.219C283.854 101.754 283.206 102.626 282.931 102.58C282.253 102.468 281.325 102.055 281.075 101.504C279.285 97.5623 277.638 93.5543 275.736 89.0771C274.951 92.82 274.267 96.0937 273.584 99.3624C273.456 99.9692 273.263 100.571 273.207 101.183C273.074 102.575 272.396 102.968 270.891 102.396C271.978 97.1034 273.064 91.8053 274.135 86.5734L274.14 86.5734Z" fill="#111827"/>
<path d="M68.0494 89.123C67.1876 93.3503 66.4227 97.1085 65.6476 100.862C65.4181 101.968 65.2397 103.172 63.2866 102.396C63.511 101.229 63.7404 99.9845 63.9954 98.7403C64.7246 95.1555 65.4334 91.5656 66.2391 88.0012C66.3768 87.3893 66.9632 86.8793 67.3457 86.3184C67.9984 86.7825 68.9622 87.1037 69.2528 87.7309C70.905 91.2953 72.3889 94.9362 73.9391 98.5516C74.0564 98.832 74.1992 99.1023 74.6123 99.9896C75.4945 95.5532 76.2543 91.7339 77.0192 87.9145C77.3506 86.2725 77.3557 86.2725 79.3496 86.5785C78.3399 91.5707 77.3608 96.5578 76.2899 101.53C76.1931 101.968 75.4944 102.636 75.1579 102.59C74.5409 102.504 73.6791 102.106 73.4496 101.596C71.9147 98.2048 70.5175 94.7475 69.0693 91.3157C68.8143 90.7089 68.5134 90.1174 68.0494 89.123Z" fill="#111827"/>
<path d="M190.204 90.8619C189.562 91.0353 189.047 91.1729 188.578 91.2953C188.409 91.1525 188.246 91.0863 188.216 90.9792C187.079 86.8794 181.816 86.9711 179.231 89.7247C177.038 92.0551 176.467 94.926 177.14 98.006C177.512 99.7193 178.7 100.683 180.424 101.055C184.238 101.881 186.701 100.219 187.022 96.3181H182.601C182.464 96.1192 182.321 95.9153 182.183 95.7164C182.596 95.2881 182.989 94.5181 183.432 94.4875C185.345 94.3498 187.272 94.4263 189.582 94.4263C189.154 96.6496 188.787 98.6383 188.374 100.622C188.328 100.856 188.063 101.066 187.854 101.234C185.635 103.044 180.531 103.467 177.951 102.07C175.585 100.79 174.504 98.057 174.952 94.4875C175.59 89.3882 179.521 85.834 184.284 86.038C187.384 86.1706 189.164 87.5627 190.204 90.8619Z" fill="#111827"/>
<path d="M165.274 94.4263C164.835 96.568 164.488 98.4547 164.045 100.316C163.948 100.714 163.565 101.157 163.193 101.356C160.822 102.606 158.328 103.284 155.621 102.769C152.974 102.269 151.261 100.729 150.715 98.0825C149.95 94.3651 150.924 91.0506 153.601 88.3989C155.881 86.14 158.726 85.528 161.837 86.3898C164.035 86.9966 165.376 88.3938 165.845 91.3463C164.881 90.9639 163.958 90.8925 163.657 90.4234C161.531 87.0986 157.273 86.808 154.606 89.9695C152.872 92.0194 152.25 94.4875 152.571 97.134C152.79 98.9697 153.688 100.408 155.595 100.938C157.869 101.57 160.093 101.142 161.847 99.7244C162.571 99.1431 162.53 97.6133 162.908 96.2569H158.124C157.997 96.058 157.869 95.8643 157.742 95.6654C158.201 95.2524 158.634 94.513 159.119 94.4824C161.092 94.3447 163.081 94.4263 165.284 94.4263H165.274Z" fill="#111827"/>
<path d="M86.3153 102.677C87.3403 97.8224 88.4366 93.3401 89.176 88.8018C89.5279 86.6397 90.4763 86.0125 92.4396 86.2878C92.9801 86.3643 93.5411 86.298 94.0969 86.298C100.303 86.3082 103.051 90.0715 101.261 96.104C100.033 100.25 97.0851 102.549 92.7507 102.667C90.7007 102.723 88.6508 102.677 86.3204 102.677H86.3153ZM88.8089 100.693C95.2187 101.922 98.8852 99.5511 99.5991 93.8705C100.099 89.9134 98.4364 88.0216 94.4385 88.0063C93.485 88.0063 92.5263 88.0063 91.4911 88.0063C90.5732 92.3509 89.691 96.5221 88.8038 100.693H88.8089Z" fill="#111827"/>
<path d="M225.084 93.3044C225.109 97.9601 222.407 101.662 218.215 102.708C213.911 103.783 210.102 101.091 209.684 96.6751C209.23 91.9072 211.683 87.7258 215.671 86.451C220.775 84.8243 225.053 87.94 225.089 93.2993L225.084 93.3044ZM223.06 93.2331C223.049 89.2301 219.903 86.8437 216.313 88.1134C212.555 89.4443 210.377 95.232 212.31 98.725C213.279 100.474 215.365 101.453 217.394 101.106C220.673 100.545 223.065 97.2207 223.06 93.2331Z" fill="#111827"/>
<path d="M60.8236 102.345C59.2581 103.029 58.8094 102.498 58.5799 101.168C58.0241 97.955 57.9374 98.2099 54.6942 97.8938C51.8793 97.6184 50.3954 98.6485 49.4062 101.147C48.7534 102.789 48.5852 102.718 46.4638 102.432C47.6061 100.392 48.7025 98.4343 49.7988 96.4813C51.349 93.7175 52.8992 90.9588 54.4494 88.195C55.2041 86.8488 56.4705 86.281 58.2484 86.4918C59.0898 91.6931 59.9465 96.9657 60.8134 102.34L60.8236 102.345ZM52.2108 96.2569H57.7436C57.356 93.6461 56.994 91.2086 56.5504 88.2205C54.9543 91.178 53.659 93.5747 52.2108 96.2569Z" fill="#111827"/>
<path d="M232.203 86.6703C231.53 89.7553 230.862 92.8353 230.188 95.9204C229.505 99.0564 230 100.347 232.121 100.984C234.681 101.749 237.271 100.581 238.057 97.9397C239.036 94.6456 239.745 91.2698 240.433 87.8992C240.729 86.4612 241.315 86.0023 242.845 86.5785C241.999 90.3418 241.32 94.1305 240.275 97.8173C239.041 102.167 235.023 104.013 230.785 102.453C228.648 101.667 227.409 99.806 227.822 97.6031C228.455 94.2172 229.199 90.8517 230.03 87.5117C230.173 86.9456 231.004 86.553 231.519 86.0839C231.744 86.2827 231.973 86.4765 232.198 86.6754L232.203 86.6703Z" fill="#111827"/>
<path d="M15.0773 86.5479C14.2359 90.2959 13.5577 94.0184 12.5531 97.6541C11.3344 102.065 7.46907 103.962 3.17032 102.504C0.829713 101.708 -0.368635 99.8264 0.100506 97.3584C0.717528 94.1101 1.51303 90.8976 2.14535 87.6544C2.39522 86.3796 2.99694 86.0533 4.41456 86.5989C3.78734 89.5667 3.17032 92.5702 2.5227 95.5634C1.7527 99.1227 2.16064 100.347 4.38906 100.989C7.10192 101.774 9.6465 100.449 10.4675 97.5164C11.3599 94.3396 12.0381 91.0965 12.6653 87.8482C12.956 86.3439 13.6393 86.0635 15.0773 86.5428V86.5479Z" fill="#111827"/>
<path d="M243.391 102.447C244.416 97.4145 245.379 92.4886 246.486 87.5933C246.603 87.0629 247.531 86.4102 248.133 86.3592C249.913 86.196 251.713 86.2827 253.508 86.3031C256.71 86.3388 258.041 87.272 258.322 89.6432C258.648 92.3713 257.123 94.9056 254.502 95.4665C252.707 95.8541 250.805 95.9918 248.974 95.8847C247.19 95.7776 246.471 96.4303 246.307 98.1029C246.206 99.1278 245.9 100.127 245.752 101.147C245.563 102.442 244.936 102.957 243.391 102.442V102.447ZM248.408 88.0063C247.995 90.1786 247.628 92.101 247.236 94.1611C249.27 94.1611 250.999 94.3141 252.682 94.0999C253.63 93.9826 254.844 93.488 255.323 92.7588C255.93 91.8358 256.307 90.3877 256.027 89.378C255.843 88.7253 254.344 88.195 253.37 88.0624C251.82 87.8482 250.224 88.0063 248.414 88.0063H248.408Z" fill="#111827"/>
<path d="M302.451 97.4604C301.401 100.199 299.662 102.004 296.898 102.713C292.798 103.768 289.382 101.545 288.704 97.3839C287.867 92.2285 290.978 87.1853 295.618 86.191C299.402 85.3802 302.411 87.1649 303.293 91.2851C302.37 90.9486 301.401 90.9027 301.136 90.4488C299.616 87.8431 297.474 87.068 294.777 88.3581C291.314 90.0103 289.504 95.5838 291.33 98.934C292.181 100.494 293.563 101.198 295.246 101.188C297.342 101.173 298.989 100.168 299.907 98.2864C300.483 97.1034 301.151 96.7618 302.441 97.4553L302.451 97.4604Z" fill="#111827"/>
<path d="M108.793 86.604C107.778 91.535 106.748 96.4507 105.769 101.377C105.514 102.667 104.872 102.937 103.5 102.371C104.255 98.6383 105.01 94.8801 105.769 91.122C105.989 90.0409 106.305 88.9701 106.442 87.8788C106.626 86.4 107.309 85.9768 108.788 86.5989L108.793 86.604Z" fill="#111827"/>
<path d="M270.091 86.5275C269.025 91.7237 268.01 96.8331 266.868 101.912C266.776 102.32 265.828 102.534 265.277 102.835C265.124 102.687 264.971 102.544 264.823 102.396C265.073 101.076 265.308 99.7499 265.578 98.4343C266.312 94.8648 267.133 91.3157 267.771 87.7309C268.005 86.4153 268.556 86.1043 270.091 86.5275Z" fill="#111827"/>
<path d="M131.929 86.5581C130.868 91.7135 129.859 96.7669 128.737 101.79C128.635 102.243 127.783 102.534 127.278 102.896C127.074 102.759 126.87 102.621 126.672 102.483C126.911 101.173 127.12 99.8621 127.391 98.5618C128.135 94.926 128.966 91.3055 129.629 87.6544C129.874 86.2929 130.511 86.1247 131.934 86.5581H131.929Z" fill="#111827"/>
<path d="M304.858 102.478C304.532 100.494 305.521 100.321 307 100.724C306.985 102.096 306.689 103.085 304.858 102.478Z" fill="#111827"/>
</svg>
