<svg width="169" height="200" viewBox="0 0 169 200" fill="none" xmlns="http://www.w3.org/2000/svg">
<g clip-path="url(#clip0_2_655)">
<path d="M1.55143 89.6459C3.30522 89.3086 3.97976 89.3086 4.51939 89.1062C33.3221 76.6948 62.1248 64.2158 90.9949 51.9393C94.0978 50.5902 93.7605 48.9713 92.7487 46.543C88.3642 35.683 84.1147 24.7555 79.7976 13.828C78.1113 9.4435 76.425 5.05901 74.4688 0.0674438C49.9831 30.1518 26.1046 59.4941 1.55143 89.6459Z" fill="#F3F4F6"/>
<path d="M106.779 110.894L106.442 109.815C71.0961 107.454 35.7504 105.228 0.337268 102.934L0 104.013C17.5379 120.202 35.0759 136.391 53.0185 152.917C71.0287 138.82 88.9039 124.857 106.779 110.894Z" fill="#F3F4F6"/>
<path d="M5.59865 95.7841L5.73356 96.8634C40.9443 99.1568 76.1551 101.45 112.108 103.744C106.644 87.4874 101.45 72.2428 96.1889 56.661C65.6324 69.882 35.6155 82.833 5.59865 95.7841Z" fill="#F3F4F6"/>
<path d="M57.6054 157.234C73.1872 171.535 88.2293 185.43 104.148 200.067C107.049 171.062 109.882 143.339 112.782 114.334C93.7605 129.039 76.0202 142.867 57.6054 157.234Z" fill="#F3F4F6"/>
<path d="M121.147 103.406C126.745 102.867 131.13 101.99 135.514 102.192C144.148 102.597 149.949 98.8196 154.739 91.8718C158.786 86.0034 163.777 80.8094 168.634 74.941C156.762 69.6796 145.7 64.7555 134.03 59.5616C129.781 74.199 125.599 88.3643 121.147 103.406Z" fill="#F3F4F6"/>
<path d="M47.9595 156.762C32.0405 142.125 16.661 127.96 1.28162 113.794L0.472176 114.469C9.3086 133.693 18.2125 152.917 27.3187 172.749C34.5363 167.218 41.0793 162.159 47.9595 156.762Z" fill="#F3F4F6"/>
<path d="M31.3659 177.538C52.0742 184.621 71.7032 191.366 91.2648 198.111L91.8044 197.032C78.7858 185.093 65.7673 173.086 52.6138 161.012C45.4637 166.61 38.8533 171.737 31.3659 177.538Z" fill="#F3F4F6"/>
<path d="M115.953 94.5025L117.032 94.4351C120.337 83.2378 123.238 71.973 127.015 60.9781C129.106 54.7723 127.15 49.9157 124.722 44.317C117.976 47.2175 111.501 49.9157 105.16 52.9511C104.216 53.4233 103.137 55.6492 103.474 56.661C107.386 69.3423 111.703 81.9561 115.953 94.5025Z" fill="#F3F4F6"/>
<path d="M111.433 189.612L112.445 189.882C119.056 178.28 125.666 166.745 132.074 155.076C132.951 153.39 133.019 150.624 132.344 148.87C128.836 140.506 124.857 132.344 121.012 124.115C120.54 123.103 119.798 122.159 118.583 120.202C116.088 144.148 113.794 166.88 111.433 189.612Z" fill="#F3F4F6"/>
<path d="M94.1653 7.41989H93.0186C92.0742 10.6577 89.7133 14.3002 90.4553 17.0658C93.1535 27.3187 96.9309 37.3018 100.438 47.6897C106.172 45.1265 111.298 42.833 117.302 40.1349C115.211 39.1906 114.132 38.516 112.917 38.2462C107.319 36.8971 104.148 33.5919 102.395 27.9258C100.169 20.9106 96.9309 14.2327 94.1653 7.41989Z" fill="#F3F4F6"/>
</g>
<defs>
<clipPath id="clip0_2_655">
<rect width="168.634" height="200" fill="white"/>
</clipPath>
</defs>
</svg>
