<?xml version="1.0" encoding="utf-8"?>
<!-- Generator: Adobe Illustrator 27.3.1, SVG Export Plug-In . SVG Version: 6.00 Build 0)  -->
<svg version="1.1" id="Layer_1" xmlns="http://www.w3.org/2000/svg" xmlns:xlink="http://www.w3.org/1999/xlink" x="0px" y="0px"
	 viewBox="0 0 750 60.1" style="enable-background:new 0 0 750 60.1;" xml:space="preserve">
<style type="text/css">
	.st0{fill:#FFFFFF;}
</style>
<g>
	<path class="st0" d="M82.6,27c0,0.1-0.1,0.2-0.1,0.2c0,3.5,0,6.9,0,10.4c0,0.5,0.1,0.6,0.6,0.6c3.1,0,6.2,0,9.4,0
		c0.5,0,0.7,0.1,0.7,0.7c0,3.1,0,6.2,0,9.3c0,0.5,0.1,0.6,0.6,0.6c3.3,0,6.6,0,9.9,0c0.5,0,0.7-0.1,0.7-0.7c0-6.8,0-13.6,0-20.3
		c0-0.2,0-0.5,0-0.8C97.3,27,90,27,82.6,27z"/>
	<path d="M85.5,0c-1,0.1-2,0.2-3,0.4c8.4-0.1,15.3,3.3,21.4,8.8c-0.2,0.2-0.4,0.4-0.5,0.6c-2.6,2.6-5.2,5.2-7.8,7.7
		c-0.3,0.3-0.4,0.2-0.7,0c-1-0.9-2-1.8-3-2.7c-2.5-2.1-5.4-2.9-8.6-3.4c-8.5-1.2-16.3,3.8-19.2,10.9c-2.3,5.6-2.3,11.3,0.6,16.7
		c3,5.4,7.6,8.6,13.7,9.6c1.2,0.2,2.3,0.2,3.5,0.2c0.4,0,0.6,0.1,0.6,0.6c0,3.3,0,6.6,0,9.9c0,0.6-0.2,0.8-0.8,0.8
		c-7.9-0.2-15.1-2.4-21.3-7.4c-5.4-4.4-9.1-10.1-10.4-17C48,24.6,51.6,15.3,60,7.9c4.5-4,9.8-6.3,15.8-7.3c0.9-0.1,1.9-0.1,2.9-0.1
		c0.4,0,0.8-0.1,1.2-0.2c-0.7,0-1.5-0.1-2.2-0.1C77.4,0.1,77.2,0,77,0C79.8,0,82.7,0,85.5,0z"/>
	<path d="M0,1.1c0.7,0,1.4,0,2.1,0c3.1,0,6.2,0,9.3,0c0.4,0,0.7,0,1.2,0c0,0.3,0,0.6,0,0.8c0,15,0,29.9,0,44.9c0,0.9,0,0.9,0.8,0.9
		c9.9,0,19.8,0,29.7,0c0.8,0,0.8,0,0.8,0.8c0,3.2,0,6.4,0,9.5c0,0.6-0.2,0.8-0.8,0.8c-14.2,0-28.3,0-42.5,0c-0.2,0-0.4,0-0.6,0
		C0,39.6,0,20.4,0,1.1z"/>
	<path d="M82.6,27c7.3,0,14.6,0,21.9,0c0,0.3,0,0.5,0,0.8c0,6.8,0,13.6,0,20.3c0,0.6-0.2,0.7-0.7,0.7c-3.3,0-6.6,0-9.9,0
		c-0.5,0-0.6-0.2-0.6-0.6c0-3.1,0-6.2,0-9.3c0-0.6-0.2-0.7-0.7-0.7c-3.1,0-6.2,0-9.4,0c-0.5,0-0.6-0.1-0.6-0.6c0-3.5,0-6.9,0-10.4
		C82.6,27.2,82.6,27.1,82.6,27z"/>
	<path d="M125.8,1.2c0.5,0,0.9,0,1.4,0c0,19.2,0,38.4,0,57.7c-0.5,0-0.9,0-1.4,0C125.8,39.6,125.8,20.4,125.8,1.2z"/>
</g>
<g>
	<path d="M307.5,28.5c0.6,0.3,1.1,0.6,1.6,0.9c3.4,1.9,6.2,4.4,7.7,8.1c2.5,5.9,0.8,12.4-4.3,16.4c-2.6,2-5.6,3.2-8.9,3.6
		c-1.9,0.2-3.8,0.4-5.7,0.4c-9,0-18,0-27,0c-0.8,0-0.8,0-0.8-0.8c0-18.1,0-36.1,0-54.2c0-0.5,0.2-0.7,0.7-0.7c1,0.1,2,0.3,3,0.3
		c2.4,0,4.9,0,7.3,0c5.4,0,10.8,0,16.3,0c1.1,0,2.1-0.3,3.1-0.2c5.2,0.5,9.8,2.3,12.9,6.7c1.9,2.6,2.3,5.6,2,8.8
		c-0.6,4.8-3.3,8-7.4,10.3C307.8,28.3,307.7,28.4,307.5,28.5z M289.9,47.8C289.9,47.8,289.9,47.8,289.9,47.8c2.3,0,4.6,0,6.8,0
		c1.5,0,3.1-0.1,4.6-0.7c2.6-1.1,4.2-2.9,4.3-5.7c0.1-2.7-1.1-4.8-3.5-6.2c-1.4-0.8-2.9-1.1-4.4-1.1c-4.3,0-8.6,0-12.9,0
		c-0.7,0-1.5,0.1-2.2,0c-0.6-0.1-0.7,0.1-0.7,0.6c0,4.1,0,8.2,0,12.3c0,0.8,0,0.8,0.8,0.8C285.2,47.8,287.6,47.8,289.9,47.8z
		 M289.1,24.7C289.1,24.7,289.1,24.7,289.1,24.7c1,0,2.1,0,3.1,0c1,0,2.1,0.1,3.1,0c1.2-0.1,2.5-0.2,3.7-0.6
		c2.3-0.7,4.3-3.1,4.2-5.9c-0.1-2.3-1.4-3.8-3.3-4.9c-1.8-1-3.8-1.1-5.7-1.1c-3.8,0-7.7,0-11.5,0c-0.6,0-0.7,0.2-0.7,0.7
		c0,3.7,0,7.4,0,11c0,0.6,0.2,0.7,0.7,0.7C284.9,24.7,287,24.7,289.1,24.7z"/>
	<path d="M568.2,57.8c-0.5,0-0.8,0-1.1,0c-3.8,0-7.7,0-11.5,0c-0.6,0-1-0.2-1.3-0.7c-3.4-4.8-6.7-9.5-10.1-14.3
		c-0.6-0.9-1.2-1.8-1.9-2.7c-0.2-0.3-0.6-0.5-1-0.5c-2.6,0-5.2,0.1-7.7,0c-0.7,0-0.8,0.2-0.8,0.8c0,5.5,0,11,0,16.5
		c0,0.6-0.1,0.8-0.8,0.8c-3.5,0-7,0-10.5,0c-0.8,0-0.8,0-0.7-0.8c0-0.4,0.1-0.9,0.1-1.3c0-16.9,0-33.8,0-50.8c0-0.7-0.1-1.3-0.1-2
		c0-0.8,0.1-0.9,0.9-0.8c7.6,0.8,15.3,0.2,22.9,0.3c1.2,0,2.4-0.3,3.6-0.2c6.8,0.6,12.5,3.2,16.2,9c2.2,3.4,3.1,7.3,2.7,11.4
		c-0.4,4.4-2.3,8.2-5.4,11.3c-2,1.9-4.3,3.3-6.9,4.2c-0.1,0-0.2,0.1-0.4,0.2C558.9,44.8,563.5,51.3,568.2,57.8z M532.8,21
		c0,2.4,0,4.9,0,7.3c0,0.5,0.1,0.6,0.6,0.6c2.6,0,5.2,0,7.7,0c2,0,4.1,0,6.1-0.2c2.5-0.2,4.6-1.2,6.2-3.2c2.6-3.2,2.3-9.1-3.1-11.5
		c-2-0.9-4-1-6.1-1c-3.6,0-7.2,0-10.7,0c-0.6,0-0.7,0.1-0.7,0.6C532.8,16.1,532.8,18.5,532.8,21z"/>
	<path d="M428.2,57.8c-0.3,0-0.5,0-0.6,0c-4,0-8,0-12,0c-0.6,0-1-0.2-1.3-0.7c-4-5.6-8-11.3-12-16.9c-0.3-0.4-0.5-0.6-1-0.6
		c-2.5,0-5.1,0.1-7.6,0.1c-0.9,0-0.9,0-0.9,0.9c0,5.5,0,11,0,16.5c0,0.6-0.2,0.7-0.7,0.7c-3.5,0-7,0-10.4,0c-0.6,0-0.7-0.2-0.7-0.7
		c0-17.7,0-35.5,0-53.2c0-1.8,0-2,1.9-1.7c3.6,0.6,7.3,0.2,10.9,0.3c3.7,0.1,7.3,0,11,0c1.2,0,2.3-0.3,3.5-0.2
		c6.8,0.6,12.6,3.2,16.4,9.2c1.5,2.4,2.3,5,2.6,7.9c0.5,5.4-1.2,10.1-4.9,14c-2,2.2-4.5,3.7-7.2,4.7c-0.6,0.2-0.6,0.3-0.2,0.9
		c4.1,5.7,8.1,11.4,12.2,17.1C427.4,56.6,427.8,57.2,428.2,57.8z M392.9,28.8c0.1,0,0.1,0.1,0.1,0.1c4.4,0,8.8,0,13.1,0
		c1.7,0,3.3-0.5,4.8-1.3c2.4-1.3,3.8-3.2,4-6c0.2-3.1-1-5.4-3.6-7c-2.1-1.3-4.5-1.6-6.9-1.6c-3.5,0-7.1,0.1-10.6,0.1c-1,0-1,0-1,1
		c0,4.8,0,9.6,0,14.3C392.8,28.5,392.9,28.7,392.9,28.8z"/>
	<path d="M602.9,1.3c12.8-0.1,24.7,8.5,28.5,20.9c0.9,3,1.3,6,1.2,9.1c-0.3,5.9-2.4,11.2-6.1,15.9c-4.8,6.1-11.1,9.9-18.9,11.2
		c-9.3,1.5-17.5-1.1-24.6-7.2c-4.8-4.1-7.9-9.3-9.3-15.5c-0.4-1.8-0.7-3.6-0.7-5.4c0-4.6,1.1-8.9,3.3-13c3.6-6.6,8.9-11.2,15.9-14
		C595.7,1.9,599.2,1.2,602.9,1.3z M620.5,30.2c-0.1-1.3-0.2-2.6-0.4-3.9c-0.7-3.6-2.4-6.8-5.1-9.3c-2.8-2.6-5.9-4.5-9.8-4.9
		c-1.9-0.2-3.8-0.3-5.7,0.1c-6.5,1.6-10.9,5.6-13.1,12c-1.1,3.1-1.3,6.2-0.7,9.4c1.6,7.7,8.3,13.7,14.9,14.3
		c2.8,0.3,5.5,0.1,8.1-0.8C615.6,44.5,620.6,37.5,620.5,30.2z"/>
	<path d="M509.8,10.4c-3,2.6-5.8,5.2-8.6,7.6c-1-0.8-1.8-1.7-2.8-2.4c-2.7-1.9-5.6-3.1-8.9-3.5c-5.2-0.7-9.7,0.7-13.6,3.9
		c-3.5,2.9-5.6,6.7-6.3,11.2c-1.5,9.1,4.5,18.2,13.5,20.3c5.3,1.2,10.2,0.2,14.6-2.8c0.2-0.1,0.3-0.4,0.3-0.5c0-2.7,0-5.4,0-8.2
		c0,0,0-0.1-0.1-0.2c-0.2,0-0.5,0-0.7,0c-3.9,0-7.7,0-11.6,0c-0.6,0-0.7-0.2-0.7-0.7c0-2.6,0-5.2,0-7.9c0-0.5,0.1-0.8,0.7-0.7
		c0.7,0.1,1.4-0.1,2,0.3c0.2,0.1,0.4,0.1,0.7,0.1c6.2,0,12.4,0,18.7,0c0.7,0,1.3-0.2,2-0.3c0.6-0.1,0.7,0.2,0.7,0.7c0,7,0,14,0,21
		c0,0.8-0.2,1.3-0.9,1.9c-4.5,4.2-9.8,6.8-15.9,7.9c-11.3,2-21-1.3-28.7-9.8c-3.4-3.7-5.6-8-6.6-12.9c-1.5-7.1-0.2-13.8,3.7-19.9
		c4.5-7.1,11-11.6,19.3-13.5c3.7-0.9,7.4-0.9,11.2-0.3c5,0.8,9.6,2.6,13.7,5.4C507,8.1,508.3,9.2,509.8,10.4z"/>
	<path d="M339.3,34.8c0,0.7,0,1.3,0,1.9c0,3.3,0,6.6,0,9.9c0,0.6,0.2,0.7,0.7,0.7c6.8,0,13.6,0,20.4,0c3.1,0,6.2,0,9.3,0
		c0.6,0,0.8,0.1,0.8,0.7c0,3.1,0,6.2,0,9.2c0,0.5-0.1,0.7-0.7,0.7c-14,0-28,0-42,0c-0.5,0-0.6-0.2-0.6-0.7c0-18.1,0-36.1,0-54.2
		c0-0.8,0.1-0.9,0.9-0.8c6.5,0.7,12.9,0.3,19.4,0.3c6.5,0.1,12.9,0,19.4,0c0.9,0,1.8-0.2,2.8-0.3c0.6-0.1,0.8,0.1,0.8,0.8
		c0,3,0,6,0,9c0,0.8,0,0.8-0.8,0.8c-9.9,0-19.8,0-29.7,0c-0.5,0-0.6,0.2-0.6,0.6c0,3.3,0,6.7,0,10c0,0.4,0.1,0.6,0.6,0.7
		c5.9,0.7,11.8,0.2,17.6,0.3c2.2,0.1,4.3,0,6.5,0c0.9,0,1.8-0.2,2.8-0.3c0.6-0.1,0.7,0.2,0.7,0.7c0,3.1,0,6.2,0,9.3
		c0,0.5-0.2,0.7-0.7,0.7c-8.9,0-17.8,0-26.6,0C339.9,34.8,339.6,34.8,339.3,34.8z"/>
	<path d="M216.2,30c0-9,0-18,0-27c0-0.8,0-0.9,0.8-0.8c3.2,0.5,6.4,0.3,9.7,0.3c9.7,0,19.3,0,29,0c1,0,2-0.2,2.9-0.3
		c0.6-0.1,0.8,0.2,0.8,0.7c0,3.1,0,6.2,0,9.2c0,0.6-0.2,0.7-0.7,0.7c-9.9,0-19.9,0-29.8,0c-0.5,0-0.7,0.1-0.7,0.6c0,3.3,0,6.7,0,10
		c0,0.4,0.1,0.6,0.6,0.7c8.1,0.7,16.3,0.1,24.4,0.3c0.9,0,1.8-0.2,2.6-0.3c0.5-0.1,0.7,0.1,0.7,0.7c0,3.1,0,6.2,0,9.3
		c0,0.6-0.2,0.7-0.7,0.7c-9,0-18,0-27,0c-0.5,0-0.6,0.2-0.6,0.6c0,3.7,0,7.4,0,11c0,0.8,0,0.8,0.8,0.8c9.8,0,19.7,0,29.5,0
		c0.9,0,0.9,0,0.9,0.9c0,3,0,6,0,9c0,0.6-0.2,0.8-0.8,0.8c-13.9,0-27.8,0-41.7,0c-0.6,0-0.8-0.2-0.8-0.8C216.2,48,216.2,39,216.2,30
		z"/>
	<path d="M703.7,30c0-9,0-18,0-27.1c0-0.6,0.1-0.8,0.7-0.7c0.9,0.1,1.7,0.3,2.6,0.3c7.1,0,14.2,0,21.2,0c1,0,2-0.3,3-0.2
		c7.9,0.9,14.2,4.2,17.4,11.7c1.4,3.3,1.7,6.8,1,10.4c-1.3,6.7-5.4,11.1-11.7,13.6c-2.5,1-5.2,1.6-7.9,1.6
		c-4.4,0.1-8.8,0.1-13.1,0.1c-1.6,0-1.4-0.2-1.4,1.4c0,5.3,0,10.6,0,15.8c0,0.8,0,0.8-0.8,0.8c-3.4,0-6.9,0-10.3,0
		c-0.6,0-0.7-0.2-0.7-0.8C703.7,48.1,703.7,39,703.7,30C703.7,30,703.7,30,703.7,30z M715.5,21C715.5,21,715.5,21,715.5,21
		c0,2.5,0,4.9,0,7.4c0,0.3-0.1,0.6,0.5,0.6c4.1,0,8.1,0,12.2,0c1.8,0,3.5-0.3,5-1.1c3.7-1.7,4.9-4.9,4.3-8.4c-0.4-2.5-2-4.1-4.2-5.3
		c-2-1-4.3-1.2-6.5-1.2c-3.5,0-7.1,0-10.6,0c-0.6,0-0.8,0.1-0.8,0.7C715.5,16.1,715.5,18.5,715.5,21z"/>
	<path d="M692,18.6c0,4.8,0,9.5,0,14.3c0,3.2-0.3,6.4-1.3,9.4c-1.9,5.2-5,9.5-9.7,12.5c-3.2,2-6.7,3.2-10.4,3.7
		c-4,0.5-7.8,0.3-11.7-0.8c-5.9-1.7-10.6-5-13.8-10.3c-1.8-3-3-6.2-3.4-9.6c-0.2-2-0.4-4.1-0.4-6.1c0-9.6,0-19.2,0-28.9
		c0-0.6,0.2-0.8,0.7-0.7c0.7,0,1.4,0.2,2.1,0.3c2.2,0.2,4.4,0.1,6.5,0.1c0.5,0,1.1-0.3,1.6-0.3c0.8,0,0.9,0,0.9,0.9
		c0,9.9,0,19.9,0,29.8c0,3.3,0.6,6.4,2.4,9.2c1.9,3,4.6,5,8.2,5.7c3.7,0.7,7.2,0.3,10.3-1.8c3-2,4.8-4.9,5.6-8.4
		c0.3-1.3,0.5-2.6,0.5-3.9c0-10.2,0-20.5,0-30.7c0-0.6,0.1-0.9,0.8-0.8c0.9,0.1,1.9,0.3,2.8,0.3c1.7,0.1,3.4,0,5.2,0
		c0.8,0,1.6-0.3,2.4-0.3c0.8-0.1,0.8,0,0.8,0.8C692,8.2,692,13.4,692,18.6z"/>
	<path d="M145.7,30.1c0-9,0-18,0-27c0-0.9,0-1.1,0.9-0.9c2.6,0.5,5.2,0.3,7.8,0.3c0.8,0,1.6-0.3,2.5-0.3c0.9-0.1,0.9,0,0.9,0.9
		c0,13.6,0,27.2,0,40.8c0,0.9,0,1.7,0,2.6c0,0.7,0,0.8,0.7,0.8c7.4,0,14.9,0,22.3,0c1.4,0,2.8,0,4.2,0c0.6,0,0.8,0.2,0.8,0.7
		c0,0.2,0,0.4,0,0.6c0,2.8,0,5.6,0,8.4c0,0.9,0,0.9-0.9,0.9c-6.6,0-13.3,0-19.9,0c-6.2,0-12.4,0-18.5,0c-0.6,0-0.8-0.2-0.8-0.8
		C145.7,48.1,145.7,39.1,145.7,30.1z"/>
	<path d="M204.3,30c0,9.1,0,18.1,0,27.2c0,0.5-0.2,0.7-0.7,0.7c-3.5,0-7,0-10.5,0c-0.8,0-0.8,0-0.8-0.8c0-16.6,0.1-33.3,0.1-49.9
		c0-1.4-0.1-2.9-0.1-4.3c0-0.5,0.2-0.7,0.7-0.7c0.7,0.1,1.4,0.2,2.1,0.3c0.2,0,0.5,0,0.7,0c1.8,0,3.6,0,5.4,0c0.8,0,1.6-0.2,2.4-0.3
		c0.6-0.1,0.7,0.2,0.7,0.7C204.3,11.9,204.3,21,204.3,30z"/>
</g>
</svg>
