<?xml version="1.0" encoding="utf-8"?>
<!-- Generator: Adobe Illustrator 27.3.1, SVG Export Plug-In . SVG Version: 6.00 Build 0)  -->
<svg version="1.1" id="Layer_1" xmlns="http://www.w3.org/2000/svg" xmlns:xlink="http://www.w3.org/1999/xlink" x="0px" y="0px"
	 viewBox="0 0 234 216" style="enable-background:new 0 0 234 216;" xml:space="preserve">
<style type="text/css">
	.st0{fill:none;stroke:#000000;stroke-width:3;stroke-miterlimit:10;}
	.st1{fill:none;stroke:#000000;stroke-width:2;stroke-miterlimit:10;}
</style>
<path d="M116.2,191.5c-47.5,0-85.9-38.3-85.9-85.5c0-47.2,38.5-85.5,85.9-85.5c47.5,0,85.9,38.3,85.9,85.5S163.7,191.5,116.2,191.5z
	 M116.2,23.4c-45.8,0-83,37-83,82.6c0,45.6,37.2,82.6,83,82.6c45.8,0,83-37,83-82.6C199.2,60.4,162.1,23.4,116.2,23.4L116.2,23.4z"
	/>
<path d="M9.8,134.7l14.5-3l-0.4-1.7l-13-5.5l0-0.1l11.4-2.4l-0.4-1.7l-14.5,3l0.4,1.7l13.1,5.5l0,0.1L9.5,133L9.8,134.7z"/>
<path d="M16.2,152l13.5-6.2l-0.8-1.6l-13.5,6.2L16.2,152z"/>
<path d="M38.2,160.4L37,159l-8.4,13.2l1.1,1.5l15-4.7l-1.1-1.5l-12.5,4.1l-0.1-0.1L38.2,160.4z M34.1,164.5l4.6,5.9l1.3-1l-4.6-5.9
	L34.1,164.5z"/>
<path d="M54.4,191c-0.4,0.3-0.9,0.5-1.3,0.6c-0.4,0.1-0.9,0.2-1.3,0.2c-0.4,0-0.9-0.1-1.3-0.3c-0.4-0.2-0.9-0.4-1.3-0.7
	c-0.7-0.5-1.2-1.2-1.4-2c-0.3-0.8-0.3-1.7-0.1-2.6c0.2-0.9,0.7-1.9,1.5-2.9c0.8-1,1.6-1.7,2.5-2.1c0.9-0.4,1.7-0.6,2.6-0.5
	c0.9,0.1,1.6,0.4,2.3,1c0.7,0.5,1.1,1.1,1.4,1.8c0.3,0.7,0.4,1.4,0.2,2.1c-0.1,0.7-0.5,1.5-1,2.2l0.5,0.2l-3.5-2.7l-1,1.2l4.4,3.5
	l1-1.2c0.8-0.9,1.2-1.9,1.4-2.9c0.2-1,0-2-0.4-2.9c-0.4-0.9-1.1-1.8-2-2.5c-1-0.8-2.1-1.3-3.3-1.4c-1.2-0.1-2.3,0.1-3.4,0.6
	c-1.1,0.5-2.2,1.4-3.1,2.6c-0.7,0.9-1.3,1.8-1.6,2.7c-0.3,0.9-0.5,1.8-0.4,2.7c0,0.9,0.3,1.7,0.7,2.4c0.4,0.8,1,1.4,1.7,2
	c0.6,0.5,1.2,0.8,1.9,1.1c0.7,0.2,1.3,0.4,2,0.4c0.7,0,1.3-0.1,2-0.4c0.6-0.2,1.2-0.6,1.8-1.1L54.4,191z"/>
<path d="M73.6,190.9l-1.7-0.8l-1.1,15.6l1.7,0.7l11-11.2l-1.7-0.8l-9.1,9.5l-0.1,0L73.6,190.9z M71.9,196.4l6.9,3.1l0.6-1.4
	l-6.9-3.1L71.9,196.4z"/>
<path d="M95.2,198.6l-2.5,14.5l4.9,0.8c1.1,0.2,2.1,0.2,2.9-0.1c0.8-0.3,1.4-0.7,1.9-1.3c0.5-0.6,0.8-1.3,0.9-2.2
	c0.1-0.9,0.1-1.6-0.1-2.4c-0.2-0.7-0.7-1.3-1.3-1.8c-0.7-0.5-1.6-0.8-2.7-1l-4-0.7l-0.3,1.6l3.9,0.7c0.8,0.1,1.4,0.4,1.8,0.7
	c0.4,0.3,0.7,0.7,0.9,1.1c0.1,0.5,0.2,1,0.1,1.6c-0.1,0.6-0.3,1.1-0.6,1.5s-0.7,0.7-1.2,0.8c-0.5,0.2-1.2,0.2-2,0l-3.1-0.5l2.2-12.9
	L95.2,198.6z M100.9,206.3l4.7-5.9l-2-0.4l-4.7,5.9L100.9,206.3z"/>
<path d="M119.3,200.8l-1.9,0.1l6.5,14.3l1.8-0.1l4.3-15.1l-1.9,0.1l-3.5,12.7l-0.1,0L119.3,200.8z M120.4,206.5l7.5-0.6l-0.1-1.6
	l-7.5,0.6L120.4,206.5z"/>
<path d="M155.6,192.4l6.6,13.1l7.9-4l-0.7-1.4l-6.3,3.2l-2.2-4.4l5.7-2.9l-0.7-1.4l-5.7,2.9l-3-5.9L155.6,192.4z"/>
<path d="M173.7,181.8l-1.4,1.2l13.6,7.9l1.4-1.2l-5.3-14.8l-1.4,1.2l4.6,12.4l-0.1,0.1L173.7,181.8z M177.9,185.8l5.8-4.8l-1-1.2
	l-5.8,4.8L177.9,185.8z"/>
<path d="M190.1,166l11.8,8.8l1.1-1.4l-10.6-7.9l4.1-5.5l-1.3-0.9L190.1,166z"/>
<path d="M201.7,148l13.5,6l0.7-1.6l-12-5.4l2.8-6.2l-1.4-0.6L201.7,148z"/>
<path d="M221.5,122.2c0.7,0.2,1.2,0.7,1.5,1.4s0.3,1.5,0.2,2.3c-0.1,0.6-0.3,1.2-0.6,1.6c-0.3,0.4-0.7,0.7-1.1,0.9
	c-0.4,0.2-0.9,0.2-1.3,0.1c-0.4-0.1-0.7-0.2-0.9-0.5c-0.2-0.2-0.4-0.5-0.5-0.9c-0.1-0.3-0.2-0.7-0.3-1c-0.1-0.3-0.1-0.7-0.1-0.9
	l-0.1-1.5c0-0.4-0.1-0.8-0.2-1.3c-0.1-0.5-0.2-1-0.4-1.5c-0.2-0.5-0.5-0.9-0.9-1.3c-0.4-0.4-1-0.6-1.6-0.8c-0.8-0.2-1.5-0.1-2.2,0.2
	c-0.7,0.3-1.3,0.8-1.9,1.5c-0.5,0.7-0.9,1.6-1.1,2.7c-0.2,1-0.2,2,0,2.8c0.2,0.8,0.5,1.5,1,2.1c0.5,0.5,1.2,0.9,1.9,1.1l0.4-1.8
	c-0.5-0.2-1-0.4-1.2-0.8c-0.3-0.4-0.5-0.9-0.5-1.4c-0.1-0.5,0-1.1,0.1-1.7c0.1-0.7,0.4-1.2,0.7-1.7c0.3-0.5,0.7-0.8,1.2-1.1
	c0.5-0.2,1-0.3,1.5-0.2c0.5,0.1,0.8,0.3,1.1,0.6c0.2,0.3,0.4,0.7,0.5,1.2c0.1,0.5,0.2,1,0.2,1.5l0.2,1.9c0.1,1.2,0.4,2.2,0.9,3
	c0.5,0.8,1.2,1.3,2.2,1.5c0.8,0.2,1.6,0.1,2.3-0.2c0.7-0.3,1.3-0.8,1.8-1.5c0.5-0.7,0.8-1.5,1-2.4c0.2-0.9,0.2-1.8,0-2.6
	c-0.2-0.8-0.5-1.5-1-2c-0.5-0.5-1.1-0.9-1.8-1.1L221.5,122.2z"/>
<path d="M22.3,78.6l-0.4,1.7c0.5,0.2,0.9,0.5,1.2,0.9c0.3,0.3,0.6,0.7,0.7,1.2c0.2,0.4,0.3,0.9,0.3,1.3c0,0.5,0,0.9-0.1,1.4
	c-0.2,0.9-0.6,1.6-1.2,2.2c-0.6,0.6-1.4,1-2.4,1.2c-1,0.2-2.1,0.1-3.3-0.2c-1.2-0.3-2.2-0.8-3-1.4c-0.8-0.6-1.3-1.3-1.5-2.1
	c-0.3-0.8-0.3-1.6-0.1-2.5c0.1-0.5,0.3-0.9,0.5-1.3c0.2-0.4,0.5-0.8,0.9-1c0.4-0.3,0.7-0.5,1.2-0.7c0.4-0.2,0.9-0.2,1.5-0.2l0.4-1.7
	c-0.8-0.1-1.5,0-2.1,0.2c-0.7,0.2-1.3,0.5-1.8,0.9c-0.5,0.4-1,0.9-1.4,1.5c-0.4,0.6-0.6,1.2-0.8,2c-0.3,1.2-0.3,2.4,0.1,3.5
	c0.4,1.1,1,2.1,2,2.9c1,0.8,2.2,1.4,3.7,1.8c1.5,0.4,2.9,0.4,4.1,0.2c1.2-0.3,2.3-0.8,3.1-1.6c0.8-0.8,1.4-1.8,1.7-3
	c0.2-0.7,0.2-1.4,0.2-2.1c-0.1-0.7-0.2-1.3-0.5-2c-0.3-0.6-0.7-1.2-1.1-1.6C23.6,79.3,23,78.9,22.3,78.6z"/>
<path d="M16.1,66.7L29.4,73l2.2-4.5c0.5-1,0.7-2,0.7-2.8c0-0.8-0.3-1.6-0.7-2.2c-0.5-0.6-1.1-1.1-1.9-1.5c-0.8-0.4-1.6-0.5-2.3-0.5
	c-0.8,0-1.5,0.3-2.1,0.8c-0.7,0.5-1.2,1.3-1.7,2.3l-1.7,3.6l1.5,0.7l1.7-3.6c0.3-0.7,0.7-1.2,1.1-1.6c0.4-0.3,0.9-0.5,1.3-0.5
	c0.5,0,1,0.1,1.5,0.4c0.5,0.3,1,0.6,1.3,1c0.3,0.4,0.5,0.9,0.5,1.4c0,0.5-0.2,1.2-0.5,1.9l-1.4,2.8l-11.9-5.7L16.1,66.7z M25.1,63.3
	l-4.4-6.1L19.8,59l4.4,6.1L25.1,63.3z"/>
<path d="M27.4,46.8l-1.1,1.5L41.3,53l1.1-1.5L34,38.2l-1.1,1.5l7.3,11.1L40,50.9L27.4,46.8z M32.4,49.8l4.6-6l-1.3-1l-4.6,6
	L32.4,49.8z"/>
<path d="M41.2,30.7l9.8,11l6.6-5.9l-1.1-1.2l-5.3,4.7L48,35.6l4.8-4.2l-1.1-1.2l-4.8,4.2l-4.4-4.9L41.2,30.7z"/>
<path d="M62.7,30.1l0.8,1.4l9.5-5.6l-0.8-1.4l-4,2.4l-6.7-11.3l-1.5,0.9l6.7,11.3L62.7,30.1z"/>
<path d="M91.3,3.7l-4.5,1L90.1,19l4.6-1c1.4-0.3,2.5-0.9,3.4-1.7c0.9-0.8,1.4-1.8,1.7-3c0.3-1.2,0.3-2.5-0.1-4
	c-0.3-1.5-0.9-2.7-1.7-3.7c-0.8-1-1.7-1.6-2.9-2C94,3.4,92.7,3.3,91.3,3.7z M88.9,5.8l2.6-0.6c1.2-0.3,2.2-0.3,3.1,0
	c0.9,0.3,1.6,0.8,2.2,1.6c0.6,0.8,1,1.7,1.3,2.9c0.3,1.2,0.3,2.2,0.1,3.1c-0.2,0.9-0.6,1.7-1.3,2.3c-0.7,0.6-1.5,1.1-2.7,1.3
	l-2.8,0.6L88.9,5.8z"/>
<path d="M112.5,15.6l-0.6-14.7l-1.8,0.1l0.6,14.7L112.5,15.6z"/>
<path d="M133,12.9c-0.2,0.7-0.6,1.2-1.2,1.6c-0.7,0.3-1.4,0.4-2.3,0.3c-0.6-0.1-1.2-0.3-1.7-0.5c-0.5-0.3-0.8-0.6-1-1
	c-0.2-0.4-0.3-0.8-0.2-1.3c0-0.4,0.2-0.7,0.4-1c0.2-0.3,0.5-0.5,0.8-0.6c0.3-0.1,0.6-0.3,1-0.3c0.3-0.1,0.6-0.1,0.9-0.2l1.5-0.2
	c0.4-0.1,0.8-0.1,1.3-0.3c0.5-0.1,1-0.3,1.4-0.6c0.5-0.2,0.9-0.6,1.2-1c0.3-0.4,0.5-1,0.6-1.7c0.1-0.8,0-1.5-0.4-2.2
	c-0.3-0.7-0.9-1.3-1.6-1.7c-0.7-0.5-1.7-0.8-2.8-0.9c-1-0.1-2-0.1-2.8,0.2c-0.8,0.2-1.5,0.6-2,1.2c-0.5,0.5-0.8,1.2-1,2l1.8,0.2
	c0.1-0.5,0.4-1,0.7-1.3c0.4-0.3,0.8-0.5,1.3-0.6c0.5-0.1,1.1-0.1,1.7-0.1c0.7,0.1,1.3,0.3,1.8,0.5c0.5,0.3,0.9,0.6,1.2,1.1
	c0.3,0.4,0.4,0.9,0.3,1.5c-0.1,0.5-0.2,0.9-0.6,1.1c-0.3,0.3-0.7,0.5-1.2,0.6c-0.5,0.1-1,0.2-1.5,0.3L129,8.4
	c-1.2,0.2-2.1,0.5-2.9,1.1c-0.7,0.5-1.2,1.3-1.3,2.3c-0.1,0.8,0,1.6,0.4,2.2c0.4,0.7,0.9,1.2,1.6,1.6c0.7,0.4,1.5,0.7,2.5,0.8
	c0.9,0.1,1.8,0,2.6-0.2c0.8-0.2,1.4-0.6,1.9-1.2c0.5-0.5,0.8-1.2,0.9-1.9L133,12.9z"/>
<path d="M140.4,16.5l-0.5,1.5l10.5,3.3l0.5-1.5l-4.4-1.4l4-12.5l-1.7-0.5l-4,12.5L140.4,16.5z"/>
<path d="M159.5,25.6l6.8-13.1l-1.6-0.8l-6.8,13.1L159.5,25.6z"/>
<path d="M178.8,20l-8.9,11.8l1.4,1.1l7.9-10.5l5.5,4.1l1-1.3L178.8,20z"/>
<path d="M193.9,32.8L183,42.7l1.2,1.3l9.7-8.9l4.6,5l1.2-1.1L193.9,32.8z"/>
<path d="M206.5,48l-12.5,7.8l4.7,7.5l1.3-0.8l-3.8-6l4.2-2.6l3.5,5.6l1.3-0.8l-3.5-5.6l4.3-2.7l3.9,6.1l1.3-0.8L206.5,48z"/>
<path d="M216.3,65.7L202.5,71l1.8,4.6c0.4,1.1,0.9,1.9,1.6,2.4c0.6,0.5,1.3,0.9,2.1,0.9c0.8,0.1,1.6,0,2.4-0.3
	c0.8-0.3,1.5-0.8,2-1.3c0.5-0.6,0.8-1.3,0.9-2.1c0.1-0.8-0.1-1.8-0.5-2.8l-1.5-3.8l-1.5,0.6l1.4,3.7c0.3,0.7,0.4,1.4,0.4,1.9
	c0,0.5-0.2,1-0.5,1.3c-0.3,0.4-0.8,0.6-1.3,0.9s-1.1,0.3-1.6,0.2c-0.5,0-0.9-0.3-1.3-0.6c-0.4-0.4-0.8-0.9-1-1.7l-1.1-2.9l12.3-4.7
	L216.3,65.7z M212.6,74.5l7.5,1l-0.8-1.9l-7.5-0.9L212.6,74.5z"/>
<path d="M213.8,96.5c-0.7,0.1-1.4-0.2-1.9-0.7c-0.5-0.5-0.9-1.2-1-2.1c-0.1-0.6-0.1-1.2,0-1.7c0.1-0.5,0.3-0.9,0.6-1.3
	c0.3-0.3,0.7-0.5,1.2-0.6c0.4-0.1,0.7,0,1.1,0.1c0.3,0.1,0.6,0.3,0.8,0.6c0.2,0.3,0.4,0.5,0.6,0.8c0.2,0.3,0.3,0.6,0.4,0.8l0.7,1.4
	c0.2,0.4,0.4,0.7,0.7,1.2c0.3,0.4,0.6,0.8,1,1.2c0.4,0.4,0.8,0.6,1.4,0.8c0.5,0.2,1.1,0.2,1.8,0.1c0.8-0.2,1.5-0.5,2-1
	c0.6-0.5,0.9-1.2,1.2-2.1c0.2-0.8,0.2-1.8,0-2.9c-0.2-1-0.5-1.9-1-2.6c-0.5-0.7-1.1-1.2-1.7-1.5c-0.7-0.3-1.4-0.4-2.2-0.3l0.4,1.8
	c0.6-0.1,1,0,1.5,0.3c0.4,0.3,0.8,0.6,1,1.1c0.3,0.5,0.5,1,0.6,1.6c0.1,0.7,0.1,1.3,0,1.9c-0.1,0.6-0.3,1.1-0.7,1.4
	c-0.3,0.4-0.8,0.6-1.3,0.7c-0.5,0.1-0.9,0-1.3-0.2c-0.4-0.2-0.7-0.5-0.9-0.9c-0.3-0.4-0.5-0.8-0.8-1.3l-0.9-1.7
	c-0.5-1.1-1.2-1.9-1.9-2.4c-0.7-0.5-1.6-0.7-2.6-0.5c-0.8,0.2-1.5,0.5-2,1.1c-0.5,0.6-0.9,1.2-1.1,2c-0.2,0.8-0.2,1.7,0,2.6
	c0.2,0.9,0.5,1.7,1,2.4c0.5,0.7,1,1.1,1.7,1.5c0.7,0.3,1.4,0.4,2.1,0.3L213.8,96.5z"/>
<path class="st0" d="M0,106.1h25"/>
<path class="st0" d="M208.9,106.1h25"/>
<path d="M72.8,112.1h-2.6c-0.2,0.7-0.4,1.4-0.8,1.9c-0.4,0.6-0.8,1-1.4,1.4c-0.5,0.4-1.1,0.7-1.8,0.9c-0.6,0.2-1.3,0.3-2,0.3
	c-1.3,0-2.4-0.3-3.5-1c-1-0.6-1.9-1.6-2.5-2.8c-0.6-1.3-0.9-2.8-0.9-4.6c0-1.8,0.3-3.4,0.9-4.6c0.6-1.3,1.4-2.2,2.5-2.8
	c1-0.6,2.2-1,3.5-1c0.7,0,1.4,0.1,2,0.3c0.6,0.2,1.2,0.5,1.8,0.9c0.5,0.4,1,0.9,1.4,1.4c0.4,0.6,0.6,1.2,0.8,1.9h2.6
	c-0.2-1.1-0.5-2-1.1-2.9c-0.5-0.8-1.1-1.6-1.9-2.2c-0.8-0.6-1.6-1-2.5-1.3c-0.9-0.3-1.9-0.5-3-0.5c-1.8,0-3.4,0.4-4.8,1.3
	c-1.4,0.9-2.5,2.1-3.3,3.7c-0.8,1.6-1.2,3.5-1.2,5.7c0,2.2,0.4,4.1,1.2,5.7c0.8,1.6,1.9,2.9,3.3,3.7c1.4,0.9,3,1.3,4.8,1.3
	c1.1,0,2.1-0.2,3-0.5c0.9-0.3,1.8-0.8,2.5-1.4c0.8-0.6,1.4-1.3,1.9-2.2C72.3,114.1,72.6,113.2,72.8,112.1z"/>
<path d="M170.2,97.7h-6.5v21h6.8c2,0,3.8-0.4,5.3-1.3c1.5-0.8,2.6-2,3.4-3.6c0.8-1.6,1.2-3.4,1.2-5.6c0-2.2-0.4-4.1-1.2-5.7
	c-0.8-1.6-1.9-2.8-3.4-3.6C174.1,98.1,172.3,97.7,170.2,97.7z M166.2,99.9h3.8c1.7,0,3.2,0.3,4.3,1c1.1,0.7,2,1.6,2.6,2.9
	c0.6,1.2,0.8,2.7,0.8,4.4c0,1.7-0.3,3.2-0.8,4.4c-0.6,1.2-1.4,2.2-2.5,2.8c-1.1,0.7-2.5,1-4.1,1h-4.1V99.9z"/>
<path class="st1" d="M106.2,73.8c0,0-10.4,7-18.8,8.2c-5.3,0.8-6.8-3.3-7.2-6.4c-0.3-2.4,0.1-4.9,1.2-7.1c1-1.9,2.7-3.8,5.5-4
	c3.7-0.3,5.6,2.3,6.7,4.8c0.9,1.9,1,4.2,1,5.6l0.3,66.7c0,2.3-0.8,4.5-2.2,6.2c-0.6,0.7-1.4,1.3-2.2,1.7s-1.8,0.6-2.7,0.6
	c-5.4,0.1-7.6-4.1-7.5-8.4c0.1-4.3,3-10.3,9.2-16.6c6.3-6.2,17.7-12.6,19.4-13.5c10.9-5.8,14.6-5.9,23.2-11.5
	c8.6-5.6,21.2-19.7,21.4-26.8c0.1-5.5-2.6-8.3-6.7-8.5c-3.4-0.1-6.9,1.5-7.3,6.8c-0.4,4.8-0.1,60,0,70.6c0,1.9,0.6,3.8,1.8,5.3
	c0.6,0.9,1.5,1.6,2.5,2.1c1,0.5,2.1,0.7,3.1,0.7c5.9,0,7.5-5.9,7.2-9.6c-0.4-4.6-2.6-7.6-7.3-7.8c-7.4-0.4-17,7.3-17,7.3"/>
<path class="st1" d="M99.4,122.8c3.7-3.4,7.9-6.1,12.6-8"/>
<path class="st1" d="M89.6,55.3c0,0,0.8-18.5,15.6-18.5c8.3,0,12.2,3.9,14,7.3c1,2,1.5,4.2,1.5,6.5v51.7"/>
<path class="st1" d="M94,55.3c0,0,0-14.6,11.6-14.4c10.9,0.2,10.8,10.9,10.8,10.9l0.3,53.5"/>
<path class="st1" d="M116.7,111.6v47.1c0,2.7,0.5,5.4,1.7,7.9c1.5,3.3,4.4,6.8,9.7,6.8c10,0,11.9-11.7,11.9-16.7"/>
<path class="st1" d="M135.5,101.8c0,0-2.8,4.5-10.6,7.7l-2.9,1.2c-0.3,0.1-0.6,0.3-0.7,0.6c-0.2,0.3-0.3,0.6-0.3,0.9
	c0,0.1,0,0.2,0,0.3l0.1,43.4c0,2,0,3.5,0.1,4c0.4,2.4,1.9,7.7,7.2,8.2c7.4,0.2,7.7-10.7,7.7-10.7"/>
</svg>
