<?xml version="1.0" encoding="utf-8"?>
<!-- Generator: Adobe Illustrator 27.3.1, SVG Export Plug-In . SVG Version: 6.00 Build 0)  -->
<svg version="1.1" id="Layer_1" xmlns="http://www.w3.org/2000/svg" xmlns:xlink="http://www.w3.org/1999/xlink" x="0px" y="0px"
	 viewBox="0 0 574.2 180.9" style="enable-background:new 0 0 574.2 180.9;" xml:space="preserve">
<g>
	<path d="M154,49.9c1.9-0.3,3.6-0.7,5.3-0.8c5.3-0.4,10.5,0.1,15.4,2.2c0.3,0.1,1,0.1,1.2-0.1c6.7-7.3,15.3-11.5,24.8-13.7
		c10-2.3,19.7-1.3,29.1,2.7c5,2.1,8.9,5.4,11.7,10c1.4,2.3,1.9,4.9,2.1,7.5c0.4,5.3,0.9,10.6,1,16c0.1,6.1-0.2,12.3-0.3,18.4
		c0,0.3-0.1,0.6,0,0.9c0.2,0.4,0.5,0.7,0.7,1.1c0.3-0.3,0.9-0.4,1-0.8c0.4-1.1,0.8-2.2,0.8-3.3c0-7.3-0.1-14.7-0.2-22
		c0-2.5,0.1-5-0.1-7.5c-0.2-4.8-0.6-9.6-0.9-14.4c-0.1-1.6,0-3.1-0.1-4.7c-0.1-2.2-0.1-4.5-0.4-6.7c-0.1-0.7-0.5-1.5-1-2
		c-0.8-0.8-1.8-1.5-2.9-1.9c-0.7-0.3-1.8,0-2.6,0.3c-2.2,0.8-2.6,0.6-3.3-1.6c-0.2-0.6-0.3-1.3-0.5-1.9c-0.2-1.1,0.1-2.1,0.9-3
		c6.1-6.9,13.8-11.1,22.2-14.4c4.5-1.8,9.1-2.5,13.8-2.8c6.8-0.4,12.8,3.3,13.8,11.2c0.4,2.8,0.3,5.6,0.2,8.4
		c-0.1,3.6-0.1,7.1,0.7,10.5c8-4.3,16.3-5,24.8-1.6c3.5,1.4,5.8,4.3,8.2,7.1c0.2,0.2,0.4,0.5,0.8,1.1c0.2-1.1,0.4-2,0.4-2.8
		c0.1-2.6,0.1-5.1,0.1-7.7c0-2-0.8-3.7-2.1-5.2c-1.9-2.1-4.3-1.9-6.7-1.2c-0.8,0.2-1.5,0.5-2.3,0.6c-2.3,0.4-3.3-0.7-2.8-3
		c2.7-11,9.8-18.1,19.8-22.7c2.4-1.1,5-1.9,7.7-1.9c3.8,0,7.7-0.1,11.4,0.5c2.3,0.3,4.7,1.5,6.7,2.7c5,2.9,6.9,7.6,7.4,13.1
		c0.4,4.7,0.8,9.3,1.3,14c0.1,0.9,0.6,1.8,0.8,2.6c2.5-0.7,4.7-1.5,7.1-1.9c7.1-1.3,13.7,0.1,19.9,3.6c1,0.6,2,1.4,2.8,2.2
		c0.5,0.5,0.9,0.4,1.4,0.1c0.4-0.3,0.7-0.6,1.1-0.8c6.7-5.6,14.6-7.9,23.3-8.2c4.3-0.2,8.7-0.1,12.6,1.9c2.5,1.3,4,1,6.1-0.8
		c3.9-3.4,8.6-5.6,13.7-6.7c5.5-1.1,10.9-1.3,16.1,1c1.3,0.6,2.6,1.3,4,2.1c0.4-0.8,0.8-1.6,1.1-2.4c1.7-3.7,3.7-7.3,6.5-10.4
		c6-6.7,17.5-8.8,26.6-3.3c5.4,3.3,8.6,8.1,10,14.2c0.6,2.4,1.1,4.9,1.7,7.4c0.2-0.1,0.4-0.1,0.6-0.3c6.5-4.2,13.8-5.3,21.3-5.1
		c9.6,0.4,18.1,3.6,25.5,9.7c3.2,2.7,5.7,6,6.2,10.3c0.7,6.6-0.8,12.5-5.6,17.3c-0.3,0.3-0.5,0.5-0.8,0.9c0.2,0.3,0.4,0.6,0.6,0.8
		c3.5,2.8,5,6.7,5.9,10.9c1.4,5.8,1.4,11.6-0.8,17.2c-5,12.5-14.3,20-27.4,22.9c-7.3,1.6-14.3,0.8-21.1-1.9c-4.5-1.7-9-3.4-13.1-6.1
		c-9.5-6.4-13.2-16.7-11.5-27.2c0.7-4,3.2-6.8,6.5-9c0.7-0.5,1.4-0.9,2.3-1.5c-3.7-4.2-4.9-9.2-4.8-14.9c-1.4,0.7-2.6,1.2-3.7,1.8
		c-2.1,1.2-4.4,2-6.8,2.1c-3.5,0.3-5.7-0.9-7-4.1c-0.9-2.1-1.5-4.4-2.2-6.6c-0.1-0.3,0.2-0.8,0.4-1.1c0.1-0.2,0.4-0.2,0.6-0.4
		c1.4-0.8,1.5-1.2,0.3-2.3c-0.7-0.6-1.5-1.1-2.2-1.7c-0.2,0.1-0.3,0.1-0.5,0.2c-0.2,2.9-0.4,5.8-0.4,8.7c0,4.1,0.3,8.2,0.2,12.3
		c-0.2,13.2-0.4,26.4-0.8,39.5c-0.4,10.1-1.5,20.2-4.9,29.8c-2.4,6.7-5.5,13-10.5,18.2c-5.5,5.7-11.1,11.4-18,15.6
		c-2.9,1.8-6,3.2-9.1,4.5c-4.3,1.8-8.5,3.7-13,5.1c-6.3,2-13,2.7-19.6,3.4c-9.9,1.1-19.8,0.9-29.6,0.8c-5,0-10-0.6-14.9-1.1
		c-11.8-1.3-23.2-4.2-34-9c-3.3-1.5-6.7-3-9.5-5.1c-2.8-2.1-5.2-4.8-7.3-7.6c-3.4-4.5-4.9-9.7-4.5-15.4c0.3-4.7,1.6-9.2,4.1-13.3
		c0.4-0.6,0.6-1.3,1-2.3c-0.9,0.1-1.6,0.1-2.2,0.3c-4.6,1.5-9.2,2.9-13.7,4.5c-13.7,4.7-26.8,10.8-39.6,17.6
		c-10.8,5.7-21.5,11.6-32.5,17.1c-4,2-8.4,3-12.7,4.4c-8.7,2.7-17.5,3.1-26.5,2.3c-7.6-0.7-15-2.2-21.9-5.5
		c-9-4.3-17-10.2-23.6-17.8c-1.7-2-3.1-4.3-4.6-6.5c-0.2-0.3-0.5-0.6-0.8-1.1c-1.7,1.3-3.3,2.5-4.8,3.7c-8.2,6.4-17.6,10-27.7,12
		c-6.1,1.2-12.3,1.6-18.6,1.5c-7.7-0.1-15-2.2-22.1-5.1c-5.1-2.1-9.9-4.6-14.2-8.2c-8-6.8-14-15-18.3-24.5
		c-3.4-7.3-5.9-14.9-8.2-22.6c-2-6.6-5.7-12.3-11.6-16.3c-1.1-0.7-2.3-1.3-3.5-1.8c-0.7-0.3-1-0.6-1-1.4c0.1-1.1-0.3-2.4,0.2-3.1
		c0.5-0.7,1.9-0.6,2.9-1c1.4-0.5,2.9-1,4.2-1.8c4.1-2.4,7.8-5.3,10.5-9.2c1.7-2.4,2.8-5.2,4.1-7.9c3.7-7.6,7.1-15.4,11-22.9
		c3.5-6.9,8-13.2,13.8-18.5C54.8,8.1,64.1,3.9,74.6,1.8c10.6-2.1,20.6-0.6,30.5,3.3c3.4,1.4,6.6,3.1,9.6,5.2c1.5,1,2.8,1.2,4.4,0.3
		c3.4-1.9,7.2-2.5,11-2.9c5.4-0.6,10.7-0.1,15.9,1.5c3.9,1.2,7,3.5,9.9,6.5c-0.4,0.3-0.7,0.6-1.1,0.9c-2.1,1.5-4.1,3.3-5.5,5.5
		c-1.2,1.9-1.7,3.9-1.1,6.1c0.7,2.5,1.4,5,2.4,7.4C152.4,40.2,154.4,44.6,154,49.9z M175.7,56.4c-2.2-2-4.8-3.2-7.5-3.8
		c-7-1.4-13.6-0.6-19.7,3.5c-0.9,0.6-1.4,0.3-1.6-0.5c-0.1-0.5,0-1.3,0.4-1.7c3.2-3.7,3.6-7.8,1.8-12.2c-1.1-2.6-2.2-5.2-3.2-7.8
		c-1.9-5.5-1.9-10.7,2.6-15.2c1.7-1.8,1.1-4.1-1.1-5.2c-3.9-2-8.1-2.8-12.5-2.9c-3.3-0.1-6.6,0.1-9.7,1.4c-2.2,0.9-4.4,1.8-6.6,2.9
		c-0.9,0.4-1.5,0.4-2.2-0.2c-3.7-3-7.9-4.9-12.3-6.7c-6.1-2.4-12.5-4.1-19.1-4C81.3,4,77.5,4.9,73.8,5.6C63.2,7.7,54,12.4,47,20.8
		c-6.8,8.1-12.1,17.1-16,26.9c-2.4,6.1-5.1,12.2-8.7,17.7c-3.6,5.5-7.9,10.1-14.5,12c-0.4,0.1-0.8,0.7-0.8,1.1
		c-0.1,0.8-0.4,1.7,0.8,2.3c2.7,1.3,4.8,3.3,6.4,5.8c1.7,2.6,3.4,5.4,4.5,8.3c2.4,6,4.3,12.2,6.5,18.2c3,8.1,6.7,16,12.2,22.8
		c4.4,5.4,9.2,10.2,15.8,12.9c3.5,1.4,6.9,3,10.3,4.3c5.2,2.1,10.6,3.2,16.2,3.5c8.6,0.5,16.9-0.6,25-3.5
		c9.1-3.3,17.5-7.8,24.3-14.9c1.6-1.7,3.2-1.5,4.3,0.5c2.7,4.8,5.8,9.3,9.8,13.1c5.2,5.1,10.7,9.8,17.6,12.4
		c4.9,1.8,9.8,3.7,14.9,4.9c7.7,1.8,15.5,1.1,23.2-0.2c4.9-0.8,9.8-2.3,14.5-3.8c9.2-3,17.9-7.4,26.3-12.1
		c15.3-8.6,30.6-17.3,47.3-23.1c9-3.1,18.1-5.6,27.3-7.7c1.9-0.4,3.9-0.6,5.7,0.3c0.5,0.2,0.9,0.8,1.3,1.2c-0.5,0.3-0.9,0.8-1.4,1
		c-1.1,0.5-2.3,0.8-3.3,1.4c-8.1,5.2-10.3,12.5-8.6,21.3c1.3,6.3,4.5,11.6,10.3,14.8c4.2,2.3,8.4,4.6,12.7,6.5
		c11.5,5,23.6,7.3,36,8.1c11.1,0.7,22.2,1.3,33.3-0.2c4.1-0.5,8.2-0.7,12.3-1.3c8.3-1.2,16.2-3.7,23.4-7.9c3.6-2.1,7.1-4.4,10.6-6.7
		c2.6-1.7,5.3-3.4,7.7-5.5c8.4-7.2,14.6-16.1,17.7-26.8c1-3.5,1.4-7.1,1.8-10.8c0.7-6.4,1.4-12.8,1.6-19.3
		c0.4-18.6-0.4-37.2,0.6-55.8c0.1-1.9,0.2-3.9,0.5-5.8c0.1-0.6,0.7-1.3,1.2-1.6c0.3-0.1,1.1,0.4,1.4,0.8c0.8,0.9,1.5,1.9,2.1,2.9
		c0.7,1.3,1.8,2.1,3.2,2.6c1.3,0.5,2.6,1,3.9,1.7c1.1,0.6,1.2,1.2,0.4,2.2c-0.8,1-1.9,1.8-2.7,2.8c-0.4,0.5-0.7,1.3-0.5,1.8
		c0.5,1.4,1.2,2.7,2,4c0.2,0.4,0.9,0.8,1.4,0.8c1.3,0,2.7,0,4-0.3c3.7-1,7-2.5,9.5-5.5c0.5-0.6,1.3-1.1,2.1-1.4
		c0.5-0.2,1.5,0,1.6,0.3c0.3,0.5,0,1.3,0,2c0,0.2-0.3,0.3-0.4,0.5c-0.5,1-1.2,2-1.3,3c-0.2,2.7-0.2,5.4,0.8,7.9
		c1.5,3.6,3.3,6.9,6.2,9.6c0.4,0.4,0.5,1.2,0.7,1.8c-0.6,0.2-1.3,0.5-1.8,0.4c-3.7-0.7-6.2,1.1-8.5,3.6c-1.7,1.9-2,4.3-2.1,6.7
		c-0.3,4.1-0.1,8.2,2.1,11.8c1.8,2.8,3.8,5.5,6.4,7.6c6.9,5.5,14.9,8.7,23.7,9.4c5.3,0.4,10.5,0.3,15.6-1.6
		c8.2-3.1,13.8-9.1,17.9-16.5c2.2-3.9,3-8.2,3-12.8c0-4.7-1.2-8.8-4-12.5c-1.2-1.7-2.5-3.2-4.3-4.2c-0.5-0.3-1-0.5-1.7-0.9
		c3.6-1.5,5.5-4.3,7.2-7.2c3.5-5.9,2-14.2-3.2-18.8c-3.5-3-7.4-5.5-11.9-6.7c-3.5-0.9-7-2-10.6-2.5c-4.3-0.6-8.7,0.2-12.9,1.4
		c-6.5,1.8-12,4.9-15.7,10.8c-0.1,0.2-0.3,0.2-0.4,0.4c-0.9-0.5-1.2-1.2-0.9-2.1c0.7-2,1.3-4.1,1.9-6.1c1-2.9,1.1-6,0.5-9
		c-1.3-6.5-5.3-11-11.3-13.8c-2.8-1.3-5.7-1.9-8.7-1.4c-9.5,1.7-17.5,10.7-18.3,20.3c-0.1,0.8-0.3,1.7-0.4,2.7
		c-0.6-0.4-1-0.7-1.4-0.9c-1.3-1-2.6-2-3.9-2.9c-2.3-1.6-4.9-3-7.7-3.3c-5-0.5-9.9,0.1-14.6,2.3c-4.1,1.9-7.8,4.3-10.8,7.9
		c-0.6,0.7-1.1,0.8-1.9,0.3c-1-0.6-2.1-1.1-3.1-1.5c-7.6-3.2-15.4-4-23-0.2c-3.7,1.8-7.1,4.1-10.6,6.3c-1.2,0.7-2.3,1.6-3.4,2.4
		c-0.2-0.1-0.3-0.2-0.4-0.3c-3.2-4.7-8.5-6.1-13.3-8.2c-3.3,0.1-6.7-0.2-9.9,0.4c-3.3,0.6-6.4,2.1-9.5,3.2c-0.8,0.3-1.5,0.6-2.4,1
		c0-0.7-0.1-1.2-0.1-1.6c0-2.4,0.1-4.8,0-7.2c-0.1-4.3-0.1-8.5-0.6-12.8c-0.7-6.1-3.8-10.5-9.8-12.6c-3.4-1.2-6.8-1.7-10.3-1.3
		c-2.4,0.3-4.8,0.8-7,1.8c-2.7,1.2-5.3,2.8-7.8,4.5c-5.1,3.3-8,8.2-9.5,13.9c0,0.2,0,0.4,0.1,0.6c0.7-0.1,1.2-0.2,1.8-0.3
		c6.1-1.2,10.5,3.6,10.9,7.5c0.3,2.5,0.2,5,0.1,7.6c-0.1,2.3-0.6,4.7-0.8,7c-0.3,3.6,0.3,7.1,1.1,10.6c0.2,0.8,0.4,1.7,0.1,2.4
		c-0.3,0.8-1,1.7-1.7,1.9c-1,0.2-1-1-1.2-1.7c-1.1-3.3-1.8-6.8-3.3-9.9c-5.1-10.5-12.6-12-21.8-10.9c-4.1,0.5-7.9,2.1-11.4,4.2
		c-3.1,1.8-3.3,0.6-3.4-2c-0.1-7-0.3-14-0.3-21c0-3.6-2-5.8-4.9-7.3c-3.8-1.9-7.9-1.7-11.8-0.8c-7.7,1.8-14.4,5.6-20.7,10.2
		c-2,1.5-3.6,3.4-5.1,5.7c0.6,0.1,1,0.1,1.4,0.2c1.1,0.3,2.4,0.3,3.3,0.9c3,1.9,4.5,4.8,4.6,8.3c0.2,9.4,0.3,18.9,0.5,28.3
		c0.1,6.2,0.4,12.3,0.4,18.5c0,3.9-0.5,7.8-0.9,11.7c-0.2,2-2,3.4-3.9,3.3c-1.5-0.1-3.2-1.9-3.3-3.6c-0.2-2.8-0.5-5.6-0.5-8.4
		c0-9-0.1-18.1-0.8-27.1c-0.2-2.9-0.9-5.5-2.5-8c-3.1-4.7-7.7-7.4-12.9-8.9c-3.3-0.9-6.8-1.5-10.3-1.9c-6.5-0.8-12.9-0.1-19,2.2
		C188.4,45.6,181.5,50,175.7,56.4z"/>
	<path d="M574.1,113.7c0.6,3.9-3.3,7.9-7.7,7.8c-4.9-0.1-7.9-3.8-7.9-8.1c0.1-3.9,3.4-7.5,7.2-7.5
		C571,105.9,574.1,108.8,574.1,113.7z M572.6,113.6c0-3.5-2.8-6.3-6.2-6.3c-3.3,0-6.3,3.1-6.3,6.3c0,3.7,2.7,6.4,6.5,6.3
		C570.2,119.8,572.6,117.6,572.6,113.6z"/>
	<path d="M446.4,87.7c-1,0.9-2,1.6-2.9,2.4c-2.4,2.2-4.9,4.2-7.9,5.6c-5.2,2.3-10.5,2.9-15.9,1.3c-4.5-1.4-8.1-4.2-10.7-8.2
		c-1.2-1.9-1.6-4-1.6-6.2c0-6.8,0-13.5,0-20.3c0-4.6,0-9.1,0-13.7c0-3.1-1.2-4.4-4.3-4.8c-1.5-0.2-1.9-0.6-1.4-2
		c0.5-1.2,1.3-2.3,2.3-3.1c2.4-2,5.3-3.2,8.4-3.9c3.7-0.8,7.4-1.2,11.1,0c1.9,0.6,3.6,1.6,5.3,2.7c0.7,0.4,1.3,1.3,1.6,2.1
		c1.3,2.9,2,6,2,9.2c-0.1,6.2-0.3,12.3-0.4,18.5c0,3.3,0.1,6.6,0.2,9.9c0.1,2.4,0.9,4.5,2.9,6.1c1.3,1.1,2.8,1.2,4.3,0.9
		c0.9-0.2,1.8-0.5,2.6-0.8c2.7-1.1,4.2-2.9,4.6-5.9c1-8.3,1.1-16.6,0.5-24.9c-0.2-2.6-0.2-5.1-0.4-7.7c-0.1-1.1-0.5-2.3-0.9-3.3
		c-0.7-1.5-1.7-2.5-3.7-2.4c-2.1,0.1-2.5-0.8-1.5-2.6c0.4-0.6,0.9-1.2,1.5-1.6c4.2-2.9,8.8-4.8,14-5c3.4-0.1,6.8,0.2,9.9,1.7
		c4.2,2.1,7,5.4,7,10.4c0.1,9,0.4,18,0.3,27c0,6.1-0.6,12.2-0.9,18.4c-0.2,3.5-0.1,7-0.3,10.4c-0.4,5.6-1.3,11.2-1.6,16.8
		c-0.6,12-6.6,21.4-14.1,30c-4.3,5-9.8,8.9-15.6,12.2c-8.7,4.9-17.9,8.8-27.8,10.5c-7,1.2-14.1,2.1-21.3,2.5
		c-6.3,0.4-12.5,0-18.8-0.4c-5.5-0.3-11.1-1.2-16.6-1.6c-7.8-0.6-15.2-2.9-22.6-5.3c-6.1-2-11.6-5-16-9.7c-2.4-2.5-4.3-5.4-4.8-8.9
		c-0.4-2.5,0.2-4.8,1.6-6.9c1.8-2.8,4.2-5,7.3-6.4c10.2-4.4,20.2-4.2,30,1.1c2.8,1.5,4.4,4.1,5.3,7.1c0.3,1.2,0,2.2-0.8,2.9
		c-1.3,1.1-2.8,2-4.3,2.9c-1.6,0.9-3.4,1.4-5,2.3c-1.5,0.9-2.8,2.1-2.5,4.1c0.1,1.1,0.7,1.8,1.8,1.9c4.2,0.2,8.4,0.2,12.4-1.5
		c2.2-0.9,4.4-2,6.4-3.3c3.7-2.5,5.3-6.3,6.3-10.4c1.3-5.2,0.2-9.6-4-13.4c-3.7-3.3-7.9-5-12.6-6.2c-8.9-2.3-17.9-2.4-27-2.2
		c-16.6,0.4-32.3,4.5-47.6,10.6c-9.1,3.7-18.2,7.7-27.1,12c-6.4,3-12.5,6.5-18.6,10.1c-7.9,4.6-16.3,7.7-25.1,10
		c-4.6,1.2-9.2,2.2-13.9,3c-5.1,0.8-10.2,0.1-15.2-0.8c-5.9-1.1-11.6-2.6-17.1-4.9c-1.4-0.6-2.8-1.3-4-2.2c-4.7-3.7-9.5-7.4-14-11.3
		c-4.2-3.6-7.5-8-10.1-12.9c-0.2-0.4-0.5-0.7-0.8-1.3c-1.5,1.1-3,2-4.4,3c-8,6-16.3,11.5-25.9,14.6c-4.5,1.5-9.3,2.3-13.9,3.1
		c-3.1,0.6-6.3,0.8-9.5,1c-1.5,0.1-3.2-0.1-4.7-0.5c-7.2-2.2-14.2-4.5-20.7-8.3c-6.4-3.8-11.6-8.7-15.8-14.9
		c-4.2-6.1-8.1-12.3-10.4-19.4c-1.8-5.5-3.1-11.1-4.6-16.7c-0.9-3.2-1.9-6.3-4.4-8.7c-1.3-1.2-2.6-2.2-4.4-2.5c-0.4,0-0.7-0.4-1-0.6
		c0.2-0.3,0.3-0.8,0.6-1c1.1-0.6,2.2-1,3.3-1.6c0.9-0.4,1.8-0.9,2.5-1.5c3.6-3.3,6.1-7.5,8.2-11.8c2.8-5.7,5.4-11.6,8-17.3
		c2.6-5.7,5.4-11.2,9.3-16.1c3.6-4.7,8.1-8.5,13.1-11.7c9.3-6,19.5-8.3,30.4-8.3c9.2,0,17.3,3,25,7.6c1.6,1,3.3,1.9,4.9,2.9
		c0.8,0.5,1.4,0.5,2.1-0.1c4.1-3.5,8.9-5,14.2-4.3c2.5,0.3,5,1.4,7.5,2.3c0.5,0.2,0.8,0.9,1.2,1.4c-0.5,0.3-1,0.6-1.5,1
		c-0.6,0.4-1.3,0.6-1.6,1.2c-1.6,2.5-2.3,5.3-1.4,8.2c1.1,3.5,2.5,6.8,3.7,10.3c0.4,1.2,0.8,2.4,1.2,3.7c1.4,4.8-0.1,9-3.2,12.7
		c-3.9,4.7-8.8,7.8-14.9,8.7c-2.8,0.4-5.7,0.3-8.2-1.3c-2.4-1.6-4.9-3.2-7.1-5c-2.8-2.3-4.2-5.5-4.5-9c-0.7-7.4,1.5-13.7,7.8-18.1
		c0.8-0.6,1-1.2,0.4-1.9c-0.7-0.9-1.4-1.7-2.3-2.4c-1.3-1-2.9-1.6-4.3-2.6c-4.6-3.2-9.8-3.9-15.3-3.7c-5.2,0.2-9.9,1.9-13.8,5.4
		c-6.2,5.5-10.4,12.1-11.4,20.6c-0.6,5.7-1.1,11.3-0.5,17c0.6,4.9,2.7,9.1,6.5,12.3c0.5,0.4,1.1,0.6,1.6,1c-0.1,0.2-0.3,0.4-0.4,0.6
		c-0.5,0.2-1,0.6-1.5,0.7c-1.7,0.1-2.7,1.1-3.7,2.3c-3.8,4.8-5.8,10.2-6,16.4c-0.3,8.2,1.5,16,4.7,23.6c3.1,7.5,8.7,12.4,16.7,14.4
		c4.7,1.1,8.9-0.2,13.2-2.3c6.5-3.2,9.3-8.9,11-15.3c1-3.9,1.4-8.1,1.9-12.1c0.2-1.2,0-2.4-0.7-3.6c-0.6-0.8-1.2-1.1-2.1-1
		c-4.6,0.7-8.5-1-11.5-4.2c-2.3-2.4-3.9-5.4-5.8-8.1c-0.6-0.8-0.4-1.4,0.8-1.4c1.1,0,2.2,0,3.3,0c4.9-0.2,9.6-0.8,13.9-3.4
		c4.5-2.8,9-5.8,13.5-8.6c5.5-3.4,11-6.8,16.7-9.9c4.4-2.3,9-4.3,13.7-5.9c5.5-1.8,11.2-2,16.9-0.7c1.1,0.2,2.1,1.1,3,1.9
		c0.5,0.4,0.5,1.1-0.4,1.3c-9,1.7-13.2,8.2-16.2,15.9c-1.8,4.8-3.5,9.6-4.2,14.6c-1.3,8.8-0.6,17.5,2.7,25.9
		c1.4,3.7,2.8,7.5,4.9,10.9c1.8,3,4.3,5.6,6.8,8c6.1,6,13.4,10.3,21.5,13.1c3.5,1.2,7.2,1.4,10.8,1c7.9-0.8,15-3.7,21-8.8
		c3.5-3,4.6-6.8,3.7-11.3c-0.5-2.3-1.4-3.1-4-3.2c-0.9,0-1.9,0-2.8,0c-0.1-0.1-0.2-0.3-0.2-0.4c1-0.8,1.9-1.8,3-2.3
		c5.5-2.4,11.1-2.7,16.7-0.5c3,1.2,4.1,3.7,4.3,6.5c0.2,2.1,0,4.3,0,6.4c0,0.1,0,0.3,0,0.2c3.5-1.8,7-3.8,10.6-5.4
		c8.6-3.9,17.2-7.9,26-11.2c10-3.8,20.4-6.6,31-8.3c6.6-1,13.2-2.2,19.8-3c4.5-0.6,9.1-0.8,13.7-1c4.6-0.2,9.3-0.4,13.9-0.3
		c8,0.2,16,1.1,23.8,2.7c8.4,1.7,16.5,4.3,24.2,7.9c1.4,0.6,2.6,1.6,3.8,2.6c1.4,1.2,2.7,2.7,4.1,4c3.7,3.7,4.6,8.1,3.4,13
		c-1.3,5.2-4.6,8.9-9,11.6c-3,1.9-6.3,3.3-9.5,5c-0.7,0.4-1.4,0.8-2.3,1.3c1.7,1.7,3.5,2.7,5.8,2.9c7.7,0.6,14.4-2.2,21-5.7
		c8.8-4.8,15.7-11.4,20.2-20.5c2.6-5.2,3.9-10.7,4.1-16.5c0.3-9.1,0.6-18.1,0.9-27.2c0-0.3,0-0.6-0.1-0.9
		C446.6,88.2,446.5,88.1,446.4,87.7z"/>
	<path d="M279.8,50.2c1.1-0.9,2.1-1.7,3.1-2.4c3.7-2.9,7.7-5.2,12.4-5.9c10-1.6,20,5.2,23.1,13.4c2.7,7.1,3.2,14.5,2.2,22.1
		c-0.9,6.4-3.5,11.9-6.6,17.4c-1.9,3.3-4.6,5.7-8.1,7.2c-3.6,1.5-7.3,2.6-11.3,2.7c-6.1,0.1-11.5-1.8-16.4-5.3
		c-0.3-0.2-0.5-0.4-0.9-0.6c-0.2,0.2-0.4,0.4-0.6,0.7c-1.7,3.3-4.7,5-8.1,6.2c-5,1.7-10.1,2.2-15-0.5c-1.6-0.9-2.9-2.2-4.3-3.3
		c-0.4-0.3-0.6-0.8-0.8-1.3c-0.4-1.1,0-1.6,1.1-1.5c0.4,0,0.7,0.1,1.1,0.2c2.4,0.3,3.4-0.1,3.6-2.5c0.4-3.4,0.4-6.8,0.4-10.3
		c0-3.8-0.4-7.5-0.4-11.3c0-14.6,0-29.3,0-43.9c0-1.7-0.5-3.1-1.5-4.3c-0.4-0.4-1.1-0.7-1.6-0.7c-0.9-0.1-1.9,0.2-2.8,0.2
		c-0.7,0.1-1-0.3-1-0.9c-0.1-1.3,0.4-2.4,1.3-3.4c2.9-3,6.5-4.9,10.4-6.2c4.2-1.4,8.4-2,12.7-1c4.1,0.9,6.3,3.5,6.5,7.6
		c0.2,4.2,0.5,8.3,0.6,12.5c0.1,3.2-0.1,6.4-0.1,9.6c0,1.6,0.2,3.2,0.3,4.8C279.3,49.7,279.5,49.8,279.8,50.2z M279.6,75.2
		C279.6,75.2,279.5,75.2,279.6,75.2c-0.2,4.2-0.4,8.4-0.5,12.7c0,1.3,0.2,2.7,0.5,4c0.4,1.8,1.9,2.7,3.7,2.7c1.7,0,3.3-0.1,5,0
		c2,0.1,3.3-0.9,4.3-2.4c3.5-5.9,4.8-12.4,5-19.1c0-1.3-0.2-2.6-0.5-3.9c-0.6-2.7-0.7-5.6-2-7.9c-3-4.9-7.3-6.9-12.7-5.7
		c-2.3,0.5-2.6,0.9-2.7,3.3c0,0.1,0,0.2,0,0.4C279.6,64.6,279.6,69.9,279.6,75.2z"/>
	<path d="M353.4,94.1c0,0.1-0.1,0.1-0.1,0.1c-2,5-6.4,6.3-11.1,7.1c-4.4,0.8-8.5-0.1-12.6-1.9c-2.9-1.3-4.7-3.4-5.8-6.4
		c0.2-0.1,0.5-0.3,0.8-0.4c3-0.7,4.4-2.8,5.2-5.6c1.3-4.8,1.2-9.7,1.2-14.5c0-5.3-0.1-10.7-0.2-16c-0.1-8.2-0.2-16.4-0.3-24.6
		c0-1-0.1-1.9,0-2.9c0.3-2.6-0.6-4.9-1.6-7.2c-0.7-1.6-1.8-2.3-3.5-2.4c-0.3,0-0.7,0-1-0.1c-2.1,0-2.5-0.5-1.7-2.4
		c0.6-1.4,1.5-2.9,2.7-3.9c4.9-4.2,10.7-6.1,17.2-5c4.2,0.7,7.6,3,10.3,6.3c0.3,0.3,0.4,0.8,0.4,1.2c0.2,7,0.3,14,0.4,21
		c0,2.8,0,5.7,0,8.8c2.4-1.4,4.5-2.6,6.5-3.8c3.3-1.9,6.7-3.4,10.6-3.8c6.7-0.6,12.7,1.1,17.8,5.7c5.6,5,8,11.4,8.3,18.7
		c0.4,11.1-2.9,21.2-9.6,30c-2.7,3.6-6.3,6.5-10.9,7c-4.2,0.5-8.5,0.3-12.8-0.7C360.1,97.7,356.6,96.2,353.4,94.1z M354.2,74.8
		c0,0-0.1,0-0.1,0c0.1,3.5,0.2,6.9,0.4,10.4c0.1,2.6,1.4,4.1,3.9,4.5c3.9,0.6,6.8-0.5,8.9-3.7c3.5-5.3,5.1-11.2,5.2-17.5
		c0.1-4-0.1-7.9-1.5-11.7c-1.1-2.8-2.9-4.6-5.9-5.6c-2.1-0.7-4.2-0.6-6.3-0.6c-3.1,0-4.6,1.2-4.6,4.3
		C354.2,61.6,354.2,68.2,354.2,74.8z"/>
	<path d="M246.2,100.1c-1.3,6.1-4,10.8-8.8,14c-7.3,4.8-14.4,3.4-21-1.2c-2.1,1.8-4.2,3.7-6.3,5.4c-5.4,4.2-11.5,4.9-18.1,4
		c-3.3-0.4-6.4-1.2-9.4-2.7c-5.5-2.8-8.6-7.2-9.6-13.2c-0.9-5.3-0.8-10.6,0.9-15.7c2-6.1,5.6-11.1,11.4-14.4
		c0.9-0.5,2.1-0.8,3.1-1.2c-0.1-0.1-0.3-0.4-0.5-0.5c-3.7-2.3-4.8-5.8-4.7-9.8c0.1-6.9,3.5-11.7,9.5-14.9c8-4.2,16.4-5.1,25.2-3.5
		c3.4,0.6,6.8,1.2,9.9,2.7c3,1.4,5.6,3.5,7.6,6.1c1.2,1.7,1.9,3.5,2.2,5.6c1.4,11,0.8,22.1,0.9,33.1c0,1.3,0,2.6,0.3,3.8
		c0.2,0.9,0.7,1.7,1.2,2.4c0.5,0.8,1.3,1,2.3,0.7C243.3,100.6,244.6,100.4,246.2,100.1z M215.8,95.2c0,0,0.1,0,0.1,0
		c-0.3-5.2-0.6-10.3-0.9-15.5c0-0.8-0.4-1.1-1.2-1.4c-6-1.7-12,1.7-13.1,7.9c-0.9,5.1-0.5,10.2,0.9,15.2c0.9,3.1,3.3,5,6.5,5.1
		c0.7,0,1.3,0,2,0c2,0.2,3.4-0.7,4.2-2.3c0.6-1.3,1.1-2.8,1.3-4.2C215.9,98.5,215.8,96.8,215.8,95.2z M214.8,71.8
		c0.2-2.1,0.4-4,0.7-5.9c0.7-3.5-0.1-6.8-1.5-10c-0.9-1.9-2.3-3.3-4.5-3.8c-2.8-0.6-5.5,0-8.1,0.5c-1.3,0.3-2.1,1.5-2.1,2.6
		c0,1.9,0.5,2.6,2.1,3.2c0.7,0.3,1.5,0.8,2.1,1.3c2.2,2.2,3,6.9,1.6,10.1c-0.1,0.3-0.3,0.6-0.4,1.1C208,71.2,211.4,71.5,214.8,71.8z
		"/>
	<path d="M531.7,105.4c-7.2-0.9-14.6-3-20.7-8.7c-3.2-3.1-4.4-7-4.5-11.2c0-4.6,4.3-8.8,9.3-9.6c2.7-0.4,5.3-0.2,7.7,0.8
		c5.3,2.2,7,6.6,5.3,11.9c-0.2,0.5-0.5,0.9-0.9,1.3c-0.6,0.6-1.2,1.2-1.8,1.7c-2.7,2.5-2.4,5.4,0.9,7.1c2.9,1.5,6,1.7,9.2,0.8
		c0.5-0.1,1-0.4,1.4-0.8c3.4-3.2,5.8-8.2,4.3-13.2c-0.4-1.4-1.1-2.7-2.4-3.5c-5.8-3.6-11.6-7.2-17.4-10.8c-1.2-0.7-2.3-1.4-3.6-2
		c-5.4-2.7-7.7-7.1-7.7-13c0-9.4,4.3-16,12.7-20c4.7-2.2,9.6-3.8,14.8-3.2c6.4,0.7,12.6,2.2,18.2,5.5c3.2,1.9,5.5,4.5,6.2,8.3
		c0.9,4.7-1.7,9.3-6.2,10.8c-2.7,0.9-5.4,1.2-8.2,0.2c-3.5-1.3-5-4-5.4-7.4c-0.2-1.8-0.1-3.7,1.3-5.2c2.2-2.5,0.4-5.2-2.5-5.5
		c-3-0.3-5.9,0.5-8.4,2.1c-2.5,1.6-3.4,5.7-1.9,8.4c1.8,3.2,4.5,5.4,7.8,6.9c3.5,1.6,7.2,2.7,10.7,4.3c6.5,3,11.4,7.6,13.1,14.8
		c0.9,3.9,0.5,7.7-1.3,11.4c-2.9,6-6.8,11.1-12.7,14.4c-3.5,1.9-7.3,2.7-11.2,3.1C536.2,105.2,534.4,105.3,531.7,105.4z"/>
	<path d="M510.4,27.6c0.6,9.2-8.2,18.4-15.3,20.8c-1,0.3-2,0.7-3,0.9c-1.1,0.3-1.8-0.5-1.4-1.6c0.4-0.9,0.9-1.7,1.5-2.4
		c0.8-0.9,1.7-1.7,2.6-2.5c0.8-0.7,0.9-1.6,0.6-2.6c-0.3-1-1.1-0.9-1.8-1c-1.9-0.5-3.9-0.7-5.6-1.5c-3.4-1.5-4.9-4.7-5.4-8.1
		c-1-6.7,1.9-12.8,8.8-15.2c8.3-2.9,16.6,2,18.4,8.9C510.1,24.7,510.2,26.2,510.4,27.6z"/>
	<path d="M420.4,146.5c0.7-1.8,1.3-3.2,1.8-4.6c1.7-5.2,2-10.4-0.4-15.5c-1.5-3.1-3.9-5.4-6.6-7.5c-7-5.5-15.2-8.7-23.6-11.5
		c-2.4-0.8-4.8-1.2-7.3-1c-0.9,0.1-1.8,0-2.7,0c-0.1-0.1-0.1-0.2-0.2-0.4c0.7-0.6,1.3-1.3,2.1-1.8c6.1-4.3,10.6-9.7,13.5-16.5
		c0.3-0.7,0.5-1.5,0.8-2.2c0.2-0.3,0.6-0.8,0.9-0.8c0.5,0,1,0.3,1.3,0.7c0.3,0.4,0.3,0.9,0.4,1.4c1.2,6.6,5.3,11.4,10.5,15.3
		c1.5,1.1,3,2,4.6,3c1.7,1.1,3.5,1.5,5.5,1.6c6.3,0.3,11.7-2.1,17-5.1c0.4-0.2,0.8-0.5,1.5-1c0.1,0.7,0.3,1.2,0.3,1.7
		c0.3,5.6-0.6,11-1.5,16.5c-0.8,5.5-2.7,10.6-5.3,15.5c-1.8,3.5-4.3,6.4-7.4,8.7c-1.1,0.8-2.2,1.7-3.4,2.5
		C421.9,145.9,421.3,146.1,420.4,146.5z M389.6,103.4c1.6,0.5,2.8,1,4.1,1.4c9.7,3.3,18.8,7.5,26.1,14.9c2.7,2.8,4.9,5.8,5.8,9.6
		c0.6,2.5,1.4,5,2.1,7.5c5.7-9.4,8.4-19.7,8.7-31c-0.6,0.3-1,0.4-1.3,0.6c-4.7,3.2-10,3.8-15.4,2.6c-9.7-2-16.9-7.6-21.6-16.3
		c-0.1-0.2-0.3-0.4-0.3-0.3C395.2,96.1,392.5,99.7,389.6,103.4z"/>
	<path d="M96.3,80.9c-7.5,0.2-12.8-3.6-17.1-9.2c-2.5-3.3-4.4-7-4.9-11.1c-0.4-3.2-0.3-6.4-0.3-9.7c0-4.5,1.1-8.7,3.1-12.6
		c3.5-6.9,9.4-10.5,16.9-12.1c3.2-0.7,6.3-0.3,9.1,1.3c0.8,0.4,1.5,1,2.1,1.7c1,1.1,0.9,2-0.1,3.1c-3.7,3.8-5.1,8.5-5.2,13.7
		c-0.2,9.4,4.3,16.1,12.2,20.7c1.4,0.8,3,1.2,4.5,1.9c0.5,0.2,1.1,0.7,1.3,1.2c0.3,0.7,0,1.4-0.8,1.9c-1,0.7-1.9,1.6-2.9,2.5
		c-3.6,3.5-7.9,5.5-12.9,6.2C99.7,80.6,98,80.7,96.3,80.9z M76.8,50.1c-0.4,7.7,1.2,14.2,5.3,20c2.9,4.1,6.7,7.2,11.9,7.8
		c4.7,0.5,9.1-0.4,13.2-2.7c1.4-0.8,2.7-1.9,4-2.9c0.9-0.7,0.9-1.5-0.1-2.1c-1.6-1-3.1-2-4.8-2.9c-2.2-1.1-3.8-2.7-5.1-4.8
		c-3.3-5.1-5-10.7-5.3-16.6c-0.2-3.8,0.4-7.6,2.7-10.9c0.6-0.9,1-2,1.5-3c0.4-0.8,0.2-1.2-0.6-1.7c-1.8-0.9-3.7-0.9-5.6-0.5
		c-5.1,0.9-9.2,3.6-12.5,7.6C78.4,41.3,76.3,45.6,76.8,50.1z"/>
	<path d="M69.3,100.9c0.6-4,0.9-8,1.8-11.9c0.9-4.2,4-7,7.9-8.3c3.1-1,4.3-0.5,5,2.6c0.7,3.1,1,6.3,2,9.3
		c2.1,6.2,6.3,10.5,12.3,13.1c1.7,0.7,3.4,1.2,5.1,1.8c0.4,0.1,1,0.6,0.9,0.9c-0.4,4.1-0.4,8.3-2.3,12.2c-2.6,5.3-8.3,8.9-14.2,8.2
		c-5-0.6-9-3.3-12-7.3c-3.5-4.7-5.4-9.9-5.9-15.7c-0.1-1.6-0.3-3.3-0.4-4.9C69.5,100.9,69.4,100.9,69.3,100.9z M71.9,97.4
		c0.4,8.6,2.4,15.6,6.4,22.1c3.3,5.3,7.1,7,13.2,6.1c2.1-0.3,3.5-1.3,4.8-2.8c2.7-3.1,4-6.8,4.7-10.8c0.4-2.2,0.1-2.8-2-3.4
		c-4-1.1-7.3-3.4-10.2-6.2c-4.1-4-7.3-8.5-6.8-14.7c0-0.1,0-0.2,0-0.2c-0.8-3-2.2-4.3-5.1-2.3c-1.6,1.1-2.9,2.6-3.3,4.5
		C72.8,92.6,72.3,95.5,71.9,97.4z"/>
	<path d="M436.3,43.6c1.4,0.1,2.6,0.1,3.8,0.2c1.6,0.2,2.6,1.2,2.8,2.7c0.2,1.7,0.4,3.5,0.4,5.2c0,6.5,0,13.1,0,19.6
		c0,1.5-0.1,3-0.3,4.5c-0.2,2-1.8,3.5-3.6,3.4c-1.7-0.1-3-1.5-3-3.6c-0.1-4.7-0.1-9.4-0.1-14.1c0-5.4,0-10.8,0-16.1
		C436.3,44.8,436.3,44.3,436.3,43.6z M439.6,74.7c0.1,0,0.3,0,0.4,0c0.1-0.3,0.3-0.6,0.3-0.9c0.1-1,0.2-2.1,0.3-3.1
		c0.1-3.7,0.2-7.4,0.2-11.1c0-3.6-0.2-7.2-0.4-10.8c0-0.3-0.4-0.6-0.5-0.9c-0.1,0.3-0.4,0.7-0.4,1c0,8.1,0,16.2,0,24.4
		C439.4,73.7,439.5,74.2,439.6,74.7z"/>
	<path d="M534.2,83.7c2,1.1,3.3,2.7,3.8,4.7c0.4,1.8-0.8,3.4-2.1,4.5c-0.9,0.7-2.1,1.1-3.3,1.3c-1.2,0.2-1.9-0.9-1.1-1.8
		C533.7,89.8,534.7,87,534.2,83.7z"/>
	<path d="M540.8,44c-2.5,2-2,4.7-1.7,7.3c-2.1-0.4-4.1-3-3.7-5c0.3-1.5,1.7-2,2.9-2.4c0.7-0.2,1.5-0.1,2.2-0.2
		C540.6,43.8,540.7,43.9,540.8,44z"/>
	<path d="M563.1,109.3c1.6,0,3.2-0.1,4.7,0c2,0.2,2.9,2.1,1.7,3.7c-0.4,0.6-0.3,1-0.1,1.7c0.3,1.1,0.5,2.2,0.7,3.3
		c-1.4,0.4-1.7-0.3-1.9-1.2c-0.4-1.7-1.2-2.2-3-1.8c0,0.6,0,1.3,0,2c0,0.6-0.1,1.2-0.9,1.1c-0.8,0-1-0.5-1-1.1
		C563.1,114.5,563.1,112,563.1,109.3z M565.1,113.3c0.6,0,1.1,0.1,1.4,0c0.6-0.3,1-0.8,1.6-1.2c-0.4-0.4-0.7-0.9-1.1-1
		c-1.7-0.6-1.8-0.5-1.8,1.3C565.1,112.5,565.1,112.8,565.1,113.3z"/>
	<path d="M282,75.7c0.2-5.5,0.4-10,0.6-14.6c0-1.1,0.6-1.6,1.6-1.8c4.3-0.9,8.8,2.1,9.5,5.7c1.1,5.5,1.2,10.9,0,16.4
		c-0.5,2.3-1.3,4.5-2.1,6.7c-0.4,1.2-1.3,1.9-2.6,2.1c-1.5,0.2-3.1,0.3-4.6,0.1c-1.6-0.2-2-1.7-2.4-3.1c-0.2-0.7-0.1-1.6-0.1-2.3
		C282,81.5,282,78.2,282,75.7z M291.6,74c0-2.4,0-4.1,0-5.9c-0.1-3.1-1.7-5.1-4.4-5.7c-1.6-0.3-2.6,0.4-2.6,1.8c0,7.1,0,14.2,0,21.2
		c0,0.5,0.6,1.2,1.1,1.4c2.7,0.9,4.3-0.1,4.9-2.9C291.5,80.5,291.9,76.9,291.6,74z"/>
	<path d="M356.5,70.1c0-3.9,0-7.7,0-11.6c0-3.1,1-4,4-4c4.7-0.1,7.3,2.5,7.9,7.5c0.6,4.8,0.5,9.7-0.1,14.5c-0.3,2.9-1.7,5.6-3.6,7.8
		c-1.5,1.7-3.7,2.1-5.8,1.5c-1.4-0.4-2.2-1.5-2.3-3.1c0-4.2,0-8.4,0-12.5C356.6,70.2,356.5,70.1,356.5,70.1z M358.8,69.4
		C358.8,69.4,358.8,69.4,358.8,69.4c0,1.2,0,2.4,0,3.6c0,2.6,0,5.2,0.2,7.8c0,0.6,0.5,1.5,1.1,1.7c1.2,0.6,2.9,0.1,3.6-1.2
		c0.8-1.5,1.7-3.1,1.9-4.8c0.8-5.3,0.8-10.7,0-16.1c-0.4-2.6-3.2-4.1-5.7-3.1c-0.4,0.2-0.7,0.7-0.8,1.1c-0.2,0.8-0.2,1.6-0.2,2.5
		C358.8,63.8,358.8,66.6,358.8,69.4z"/>
	<path d="M212.7,90.9c0,2.3,0,4.4,0,6.5c0,1.4-0.5,2.7-1.7,3.6c-1.8,1.4-4.5,0.9-5.4-1.1c-1.7-4.3-2.5-8.8-0.9-13.3
		c0.8-2.3,3.5-4.2,5.4-4.1c1.6,0.1,2.1,0.6,2.2,2.2C212.5,86.8,212.6,88.9,212.7,90.9z M210.9,94.5c-0.2-3-0.4-5.4-0.6-7.8
		c-0.1-1.2-0.7-1.5-1.8-1c-1.6,0.7-2.5,2.1-2.7,3.8c-0.3,2.7-0.4,5.5,0.8,8c0.3,0.6,1.1,1.3,1.6,1.4c0.6,0,1.6-0.5,1.8-1.1
		C210.6,96.6,210.7,95.2,210.9,94.5z"/>
	<path d="M204.5,56.1c3.1-1.7,6-0.7,6.6,2.1c0.6,2.6,0.5,5.4,0.6,8.1c0,0.9-0.9,0.9-1.5,0.8c-0.7,0-1.1-0.4-1.1-1.2
		c0.1-0.9,0-1.8,0.1-2.7c0.1-2.6-1.2-4.6-3.1-6.2C205.5,56.7,205,56.4,204.5,56.1z"/>
</g>
</svg>
