<?xml version="1.0" encoding="UTF-8"?>
<svg id="Layer_1" xmlns="http://www.w3.org/2000/svg" xmlns:xlink="http://www.w3.org/1999/xlink" version="1.1" viewBox="0 0 199 48">
  <!-- Generator: Adobe Illustrator 29.2.1, SVG Export Plug-In . SVG Version: 2.1.0 Build 116)  -->
  <defs>
    <style>
      .st0, .st1 {
        fill: none;
      }

      .st2 {
        fill: #cd1543;
      }

      .st3 {
        fill: #231f20;
      }

      .st1 {
        stroke: #231f20;
        stroke-width: 1.2px;
      }

      .st4 {
        fill: #fff;
      }

      .st5 {
        fill: #ffd74f;
      }

      .st6 {
        clip-path: url(#clippath);
      }
    </style>
    <clipPath id="clippath">
      <rect class="st0" width="198.4" height="47.3"/>
    </clipPath>
  </defs>
  <g class="st6">
    <g>
      <path class="st4" d="M20.5,47.3l-.5-.2c-5.4-2.5-9.8-6.1-12.6-10.5C.6,26.1.3,15.3,0,3.8c0-.9,0-1.7,0-2.6V0s40.9,0,40.9,0v1.2c0,.9,0,1.8,0,2.6-.2,11.5-.5,22.3-7.3,32.8-2.8,4.4-7.2,8-12.6,10.5l-.5.2Z"/>
      <path class="st4" d="M46.1,16.3h4.3l3.7,12.3,4.1-12.3h3.4l4.1,12.3,3.8-12.3h4.2l-6.2,18.2h-3.5l-4.1-11.8-4.1,11.8h-3.5l-6.2-18.2Z"/>
      <path class="st4" d="M84.1,27l-2.4-5.9-2.4,5.9h4.8ZM79.9,16.3h3.7l7.8,18.2h-4.2l-1.7-4.1h-7.7l-1.7,4.1h-4.1l7.8-18.2Z"/>
      <path class="st4" d="M95.7,20.1h-5.5v-3.7h15v3.7h-5.5v14.4h-4v-14.4Z"/>
      <path class="st4" d="M108.2,16.5h13.7v3.5h-9.7v3.7h8.5v3.5h-8.5v3.8h9.8v3.5h-13.8v-18.1Z"/>
      <path class="st4" d="M134.3,25.3c1.9,0,3.1-1,3.1-2.6h0c0-1.8-1.2-2.6-3.1-2.6h-4v5.2h4ZM126.2,16.5h8.3c2.3,0,4.1.6,5.3,1.8,1,1,1.6,2.4,1.6,4.1h0c0,3-1.6,4.8-3.9,5.7l4.4,6.5h-4.7l-3.9-5.8h-3.1v5.8h-4v-18.1h0Z"/>
      <path class="st4" d="M145.7,16.5h4v14.5h8.5v3.6h-12.5v-18.1Z"/>
      <path class="st4" d="M173.9,25.6h0c0-3.2-2.3-5.7-5.5-5.7s-5.4,2.5-5.4,5.6h0c0,3.2,2.3,5.7,5.5,5.7s5.4-2.5,5.4-5.6ZM158.8,25.6h0c0-5.2,4.1-9.4,9.7-9.4s9.6,4.2,9.6,9.3h0c0,5.2-4.1,9.4-9.6,9.4s-9.6-4.2-9.6-9.3Z"/>
      <path class="st4" d="M194.3,25.6h0c0-3.2-2.3-5.7-5.5-5.7s-5.4,2.5-5.4,5.6h0c0,3.2,2.3,5.7,5.5,5.7s5.4-2.5,5.4-5.6ZM179.2,25.6h0c0-5.2,4.1-9.4,9.6-9.4s9.6,4.2,9.6,9.3h0c0,5.2-4.1,9.4-9.6,9.4-5.6,0-9.6-4.2-9.6-9.3Z"/>
      <path class="st4" d="M56.2,7.3V2.5h1.8v4.7c0,1.4.7,2.1,1.8,2.1s1.8-.7,1.8-2V2.5h1.8v4.7c0,2.5-1.4,3.8-3.7,3.8s-3.6-1.2-3.6-3.7Z"/>
      <path class="st4" d="M68.4,2.5h1.7l3.9,5.1V2.5h1.8v8.3h-1.6l-4-5.3v5.3h-1.8V2.5h0Z"/>
      <path class="st4" d="M81,2.5h1.8v8.3h-1.8V2.5Z"/>
      <path class="st4" d="M87.3,2.5h2l2.2,5.9,2.2-5.9h2l-3.4,8.4h-1.6l-3.4-8.4Z"/>
      <path class="st4" d="M100.1,2.5h6.3v1.6h-4.5v1.7h3.9v1.6h-3.9v1.8h4.5v1.6h-6.3V2.5h0Z"/>
      <path class="st4" d="M111.2,2.5h3.8c1.1,0,1.9.3,2.4.8.5.5.7,1.1.7,1.9h0c0,1.4-.7,2.2-1.8,2.6l2,3h-2.1l-1.8-2.7h-1.4v2.7h-1.8V2.5h0ZM114.9,6.6c.9,0,1.4-.5,1.4-1.2h0c0-.8-.5-1.2-1.4-1.2h-1.8v2.4h1.9Z"/>
      <path class="st4" d="M122.4,9.7l1.1-1.3c.8.6,1.5,1,2.5,1s1.2-.3,1.2-.8h0c0-.5-.3-.7-1.7-1.1-1.7-.4-2.8-.9-2.8-2.5h0c0-1.5,1.2-2.5,2.9-2.5s2.3.4,3.1,1.1l-1,1.4c-.7-.5-1.5-.8-2.2-.8s-1.1.3-1.1.7h0c0,.6.4.8,1.8,1.1,1.7.4,2.6,1.1,2.6,2.5h0c0,1.7-1.3,2.6-3.1,2.6-1.3,0-2.5-.4-3.5-1.3Z"/>
      <path class="st4" d="M133.8,2.5h1.8v8.3h-1.8V2.5Z"/>
      <path class="st4" d="M142.8,4.2h-2.5v-1.7h6.9v1.7h-2.5v6.6h-1.8v-6.6h0Z"/>
      <path class="st4" d="M154.1,7.6l-3.2-5.1h2.1l2,3.3,2-3.3h2.1l-3.2,5v3.3h-1.8v-3.3Z"/>
      <path class="st4" d="M169.6,6.7h0c0-2.4,1.9-4.3,4.4-4.3s4.4,1.9,4.4,4.3h0c0,2.4-1.9,4.3-4.4,4.3s-4.4-1.9-4.4-4.3ZM176.5,6.7h0c0-1.5-1-2.6-2.5-2.6s-2.5,1.2-2.5,2.6h0c0,1.5,1.1,2.6,2.5,2.6s2.5-1.2,2.5-2.6Z"/>
      <path class="st4" d="M182.4,2.5h6.4v1.7h-4.5v1.8h4v1.7h-4v3.2h-1.8V2.5Z"/>
      <path class="st5" d="M36.3,27.2l-15.9-12-15.7,12.4C1.9,19.3,2,10.7,1.7,1.8h37.5c-.2,8.7-.1,17.2-2.9,25.4Z"/>
      <path class="st5" d="M34.2,32.3c-.6,1.1-1.2,2.2-1.9,3.3-2.9,4.4-7.1,7.6-11.8,9.8-4.7-2.2-8.9-5.4-11.8-9.8-.6-.9-1.2-1.9-1.7-2.8l13.5-11.3,13.7,10.9Z"/>
      <path class="st1" d="M20.5,45.4c-4.7-2.2-8.9-5.4-11.8-9.8C1.7,24.9,2,13.6,1.7,1.8h37.5c-.3,11.8,0,23.1-7,33.8-2.9,4.4-7.1,7.6-11.8,9.8Z"/>
      <path class="st2" d="M9.5,8.2c-1.9-.4-3.6-1.8-3.2-3.6,0,0,0-.5-.2-.5,0,0,0,0,0,0,0,0-.1,0-.2,0,0,0-.1,0-.1,0,0,0,0,.1,0,.2,0,0,0,0,0,0,0,0,0,0,0,0-.1.1,0,.4,0,.5,0,0,0,0,0,.1,0,0,0,0,0,0,0,0,0,0,0,0,0,0-.1,0-.2,0,0,0,0,0,0,0,0,0,0-.2-.1-.3,0,0,0-.1,0-.2,0-.1-.3-.3-.2-.2,0,0,0,0-.2,0-.1,0-.2,0-.3,0,0,0,0,0,0,0-.1,0-.2.2-.4.2,0,0,0,0,0,0,0,0,0,.2,0,.3,0,.1.1.2.2.3,0,0,.2,0,.3,0,0,0,.1,0,0,.2-.3.3-.5,0-.8.5.3-.1.4.3.5.4.6,0,1.1.2,1.4.8.2.4-.4.4.2.5.3,0,.4.2.6.4.1.2.2.5.3.6.1.1.1.2.3.3,0,0,.2,0,.3.1,0,0,.1,0,.2,0,0,0,.1,0,.2.1,0,0,.2,0,.2.1,0,.1,0,.2,0,.3,0,0,0,0,.1,0,0,0,.1,0,.1,0,.1,0,.2,0,.2,0,.1,0,.1,0,.3,0,0,0,0,0,.1,0s0,0,.1,0c0-.2.1-.3.2-.5.1-.2,0-.2.2-.4,0,0,.2-.1.2-.1Z"/>
      <path class="st2" d="M4.8,8.5c.6.3.5,1,1,1.3.9.4,2,.7,2.9.2-.2.7,0,1.2,0,1.3-.3.2-1.2,0-1.8-.3-.4-.2-.7.4-1.2.4,0,0,0-.2,0-.3,0-.2-.1-.3-.5-.2-.2,0-.1.2-.5.4-.1,0-.4-.2-.5,0,0,.1-.3-.4-.2-.5.2-.4.3-.5.3-.6,0-.1-.5-.3-.6-.2-.2.3-.6-.9.7-.8-.4-.2-.3-.3-.2-.5,0,0-.1-.2-.2,0,0-.1,0-.2.1-.2.2,0,.4,0,.7,0Z"/>
      <path class="st2" d="M7.4,5.7c.8.2,2-.9,2.7.4-.5-.2-2,.6-2.7-.4Z"/>
      <path class="st2" d="M14.2,7.5c0,1-1.1,2.2-.2,3.2-.4,0-.8-.1-1-.3-.1-.1-.1.5,0,.6,0,.1-.7-.6-.9-.5-.7.5-1,.7-2.1.8-.3,0-.5.3-.5.5-.2-.5,0-1.6,0-2.1.4-1.4,1.8-1.8,2.9-2.5.8-.5,1.1-1.4,1.1-2.3.6.7.9,1.7.9,2.6Z"/>
      <path class="st2" d="M9,19.3c.1,0,0,.1,0,.2-.1,0-.2.2-.3.3,0,0,0,.2,0,.3,0,0,0,.1,0,.2,0,0,0,0,0,0,0,0,0,0,0,0,0-.1.1-.2.2-.2.7.4.7-.4,1.1-.7.2-.1.6,0,.5.4.4-.2.5-.8.9-1.1.7-.8,1.7-1.3,2.7-1.7-.3-.4-.8-.7-1.1-1.1-.1-.2-.3-.6,0-.5,1.2.3,1.8-.4,1.9-1.3,1.7.2,2.2-1.4,2.4-2.6.1-.6.4-.7,0-1.7-.1-.4.8-.6.6-1.3,0-.2-.3-.4-.4-.4.1.4-.5.5-.6.7-.1.3-.3.5-.3.7-.6-.8-.1-1.7.4-2.4.8-1.1,2.4-.5,3,.2,0-.3-.3-.8-.5-1,.6,0,1.3.3,2.2-.1.5-.3,1-.5,1.2-1.1-1,.1-2.5-.7-3.4-.8-1.8-.3-2.9.9-3.6,2.3-.6,1.4-.2,2.5.5,3.6.2.3-.6,0-.9.3-.3.2-.4.5-.4.8.4-.4,1.4-.2,1.5.5.1.9-.8,2.3-1.7,1.9-1-.4-1.5-1.5-1.8-2.6-.8.7-2.4.1-3.1.8-.7.7,1.1,1.1,1.7,1.4.2.1.5.4.5.7-1.1-.6-2.3,0-2.3,1.2,0,.8,1.1,1.4,1.9,1.4.4,0,.6.4.1.7-.8.5-1.6,1-2.4.1-.1-.1-.6,0-.7.2,0,.1,0,.3,0,.5,0,0,0-.2.2-.2,0,0,.2,0,.2.2,0,.4-.6.2-.8.5,0,0,0,0,0,0,0,0,0,0,0,0-.1.2-.3.4,0,.5,0,0,.1.2.1.2,0-.2.2-.2.2-.2h.1s.1,0,.1,0Z"/>
      <path class="st2" d="M5.5,15.3c-.1,0-.2,0-.3,0,0,0-.2,0-.2,0,0,0,0,0,0,.1,0,0,0,0,0,0-.1,0-.3-.1-.4-.2,0,0,0,0,0-.1,0,0,0,0,0,0,0,0,0,0,0-.1,0,0,0-.2,0-.3,0,0,0,0,0-.1,0,0,0,0,0,0,0,0,.2-.1.3-.2.1,0,.3,0,.4,0,.1,0,.2,0,.4,0,0,0,.2-.2,0-.2-.4,0-.4-.2-.5-.6,0,0-.1,0-.2,0,0-.7.8-.7,1.2-.5.5.4.1,1.2.8,1.4.3.1.7.2,1,0,.6-.3,0-.9.2-1.4.4-1.1,1.3-1.1,2.3,0-.9.3-1.4,1.6-.9,2.4-.8-.3-1.9.2-2.5.6.5-.5-.2-1-.4-.9l-.2.2c-.1.1-.1.3-.3.4,0,0-.1,0-.2.1-.1,0-.2,0-.3,0,0,0,0,0-.1,0,0,0,0,.1,0,.2,0,0,0,0-.1,0,0,0-.2-.1-.2-.2,0,0,0-.3,0-.4,0-.1.2-.1.2-.2,0,0,0-.2,0-.2"/>
      <path class="st2" d="M25.7,6.1c0,0,0,.2,0,.2-.1,0-.2,0-.3,0-.4.1-.4,1.1-.3,1,0-.1.4,0,.5,0,.3,0,.5-.6.7-.5.5,0,.9.6,1.1,1,0,0-.2,0-.2.3.6,0,1.2.4,1.7.7.2-.4.5-.6.7-.9-1-.9-2.9-1.2-2.6-3,0-.2-.2-.4-.3-.5-.1-.1-.4-.1-.6-.2.2.4-.1.4-.1,1,0,0,0,0,0,0-.1,0-.2-.1-.3-.2-.1,0-.2,0-.3,0,0,0-.1,0-.2,0,0,0-.1.2-.2.2,0,0,0,0,0,0,0,0,0,0,0,.1,0,0,.2,0,.2,0,0,0,0,.2.1.2,0,0,.1,0,.2.1.2,0,.3,0,.5,0"/>
      <path class="st2" d="M28.2,5.4c.6,0,1.2-.5,1.9.3-.1,0-.3,0-.3,0-.7.6-1.6.4-2.1-.3.2,0,.4.1.6,0Z"/>
      <path class="st2" d="M30.8,7.6c1-.5,2-.9,2.4-2.2,0-.2.3.4.3.4.5,1.5-.5,3-.3,4.6-.4-.2-.8-.4-1.1-.4-1.4,0-1.7.8-1.8.7-.4-.4-1.5-.7-1.4-.6-.6-.6,1.2-2.2,1.9-2.5Z"/>
      <path class="st2" d="M28.1,17.6c.1.2,0-.1.1.2.7-.3,1.5-.6,2.3-.3-.4-1.6.8-2,.9-2.3.1-.4-.6-1.2-1.2-.9-.8.3-.4,1.2-.6,1.9,0,.4-.5.6-.9.5-.6-.2-.9-.8-1-1.5-.1-.4-1-.5-1.1-.1-.5,1,.3-.1.3.7,0,.1-.6,0-.7.5,0,.3.2.5.6.6,0,0,0-.2,0-.2,0,0,.3.1.3.1-.4.2-.5.7.2,1,0,0,0-.2,0-.2.5-.4,1,0,1,0"/>
      <path class="st2" d="M17.2,27.9c.6.3.8,0,1.6-.1.1,0,.6.3.7.4-.8.1-1.8.8-2.3-.3Z"/>
      <path class="st2" d="M16.9,28.5s0,0-.1,0c0,0-.1,0-.2,0,0,0-.1,0-.1,0,0,0,0,.1,0,.1,0,0,0,0-.1.1,0,0,0,0,0,0,0,0,0,.1,0,.2,0,0,0,.1,0,.2,0,0,0,.1,0,.1,0,0,0,.1,0,0,.1.1,0,0,.2.2,0,0,0,.2-.1.2-.5-.1-.5-.7-1-.8-.3-.1-.8.1-.8.6.1,0,.2,0,.2,0,.1.5.8.2.8.5,0,.2-.5,0-.7.1-.3.2-.3.7,0,1,.3-.2.6.1.8,0,.2-.1.2-.3.4-.4.5-.2.7.3.6.7.3-.1,1-.3,1.1-.3.3,0,.3-.7.6-1-.5,0-1.1-.2-1.2-.7,0,0,0-.1,0-.2,0-.2,0-.4,0-.5,0,0,0,0,0,0,0,0,0,0,0,0,0,0-.1,0-.2-.1,0,0,0,0,0,0"/>
      <path class="st2" d="M13.3,31.9c.2.4-.8-.2-1.2.4-.1.2,0,.6,0,.9.2-.2.5.2.9-.2,0,0,.1,0,0,.1-.2.2-.3.4-.2.6,0,.1.4.4.4.4,0-.3.5,0,.6-.5,0-.2,0-.6.4-.5.3.1.3.4.3.8.5-.2,1.3-.6,1.8-.3.6.5,1.7.7,2.5.9-.5-.3-.7-1.3-.6-1.9-1.2.2-2.5.2-3.6-.3-.3-.1-.3-.5-.4-.8-.1-.3-.5-.6-.9-.6-.2,0-.7.4-.6.5,0,0,0,0,0,0,0,0,.2,0,.2,0,0,0,0,.1.1.2,0,0,.2,0,.2.2Z"/>
      <path class="st2" d="M16.2,38.5c.2-.3.4-.1.5-.1.2,0,.2.4.2.6,1-.5,1.9-1.1,3-.9-.7-.7-.4-2.1.5-2.3,0,0-.6,0-.7-.1-.8-.5-1.8-1-2.3,0-.3.5.2,1,.6,1.4,0,0,0,.1-.1.1-.9.2-2.5.4-2.6-1,0-.1-.3-.2-.6-.2-.6,0-.6.8-.6.8.1-.1.6,0,.5.3,0,.3-.7-.2-.9.1-.2.3-.2.7,0,1,0-.1,0-.2.2-.2.7-.1.7.1.5.8,0,0,.2.5.3.5,0,0,0,0,0-.1,0,0,0,0,0,0,0,0,.1,0,.2,0,0,0,0,0,0,0,0,0,0,0,.1-.1.2-.2.3-.5.6-.5.1,0,.2,0,.3.1"/>
      <path class="st2" d="M23.1,41.5c.6-.6,1.1-1.4,1.7-2-.7-.4-1.6-.9-1.7-1.8,0,0,.1-.1.1-.1,1,.6,2.4.6,3.1-.4.6-.8.8-2.2,2-2.2-.4-.7,0-1.6.7-2-.2,0-.5-.3-.7-.2-.3,0-.4.4-.7.5.5-1.7-.5-4.2-2.4-4.1-.4,0-.8.3-.9.7-.1.4-.2.8.1,1.1.6.7,1.1,1.6.9,2.6.4-.4.9-1,.8-1.6,0-.2.3,0,.3-.1.5-.8-.3-1.2-.8-1.7-.1-.1.2-.3.2-.3,1.6.5,1.8,2.5,1.1,3.8-.2-.2-.9-.2-1.1-.2.8.4.6.4.5.6,0,.2-.7.1-.9.3-.2.3-.4.4-.4,1.4.3-.3.7-.9,1.2-.6,1,.5,0,2.2-1,2.4-.8.2-1.5,0-2-.7-.7-1-.2-2.2-.7-3.2-.4,0-.3.6-.5.5-.8-.4-1.2-1.2-1.7-1.8-.2,0-.3.3-.5.3-.3,0-.9-.1-1.1,0-.1.2-.3,1.6,1.1,2.1.9.3,1.6.6,2.2,1.4-.4,0-.5-.2-.8-.2-.3,0-.5.1-.7.2-.2.1-.5.6-.4.9.2,1.7,2.2,1.7,3.1,2.7.2.2-.2.9-.6,1.2-.3.3-1.1-.4-.9-.9.1-.4-.9-.7-1.3-.2.1,0,.2,0,.2.1,0,.4.4.4.4.6,0,.3-.3-.1-.4-.2-.4,0-.8,0-1.1.4,0,0-.2.3-.2.4.3-.2.5.3.8.2.2,0,.3-.3.5-.2,0,0,.2.1,0,.2-.6.4-1,.9-.6,1.5,0-.1.1-.2.2-.3.2,0,.4,0,.6,0,.3,0,.1-.4.2-.5.2-.3.7-.8,1-.4,0,0,0,.3-.2.3.2,0,.3.2.5.1,0,0,0,0,.1,0,0,0,0,0,0,0,0,0,.1-.1.2-.2.1,0,.3,0,.4,0,0-.1.2-.2.3-.3"/>
      <path class="st2" d="M20.3,29.4c1.1-.3,2.3-.9,2.5-2.1.3.2.4.6.4.9,0,1.5-.6,2.8-.3,4.3,0,.2.4.7.2.7-.2,0-.6-.4-.8-.3-.3.2-.2.5-.4.5-.5-.3-1-.7-1.2-1.3,0-.2,0-.6-.1-.6-.4.4-1.1.5-1.6.6.1-.1.2-.6.2-.6-.4-.2-1,.5-1,.4,0-.2,0-.3,0-.4.3-.9.9-1.9,2-2.2Z"/>
      <path class="st2" d="M12.4,4c.3,0,.5-.2.7-.4,0,.2.2.4.1.5-.1.2-.4.3-.4.5-.1.4.2.8,0,1.2-.7,1.2-2.2.8-3.2,1,0-.1,0-.3,0-.4.5,0,1.1,0,1.2-.4.1-.4.2-.7,0-1.1-.3-.6-1-.3-1.5-.1,0-.4.3-.6.4-.6.5-.1,1-.4,1.5-.6.4-.2.8.2,1.3.2ZM11.6,4.6s0,0,0,0c-.4-.5-.9-.5-1.1,0-.1.3.6.2,1,0Z"/>
      <path class="st2" d="M32.2,6.2c-.1.1-.4.1-.6.2-.1,0-.2.1-.3.2,0,0-.2,0-.2.1-.2,0-.1,0-.3,0,0,0-.1,0-.2,0s-.3,0-.4,0c-.2,0-.2,0-.4,0-.1,0-.2,0-.3,0,0,0-.1,0-.2,0,0,0,0-.2,0-.2,0,0,0,0,.2,0,0,0,.2,0,.2,0,0,0,0,0,0,0,0,0,0,0,.1,0,0,0,.1,0,.2,0,0,0,0,0,0,0,0,0,0,0,.1,0,.1-.1.2-.3.2-.4,0-.1,0-.3,0-.4,0,0,0,0,0,0,0-.1,0-.2-.1-.3-.3-.6-1,0-1.5,0,0-.1,0-.3,0-.4.4-.5.9-.2,1.2-.4.9-.7,1.2-.2,2.2,0,.3,0,.7-.1,1-.2,0,0,0,.4,0,.5-.1.3-.4.3-.6.6-.2.4-.2,1-.6,1.2M31.5,4.4s0,0,0,0c-.4-.2-1-.5-1.2,0-.1.4.8.1,1.2,0Z"/>
      <path class="st2" d="M21.7,26.4c.4.1.9.1,1.2-.3.1.6-.4.7-.5,1-.2.4-.1.9-.6,1.1-.8.5-1.9,1-2.9,1.1,0-.1,0-.3,0-.3.3,0,.6-.3.7-.5.1-.3,0-1-.3-1.1-.3-.2-.6,0-.8.2-.1-.3.4-.8,1.1-.8,0,0,.4-.4.3-.4.5-.3,1-.2,1.7,0ZM20.4,27.2c.2,0,.7-.2.9-.3,0,0,0,0,.1-.1,0,0,0,0,0,0-.1,0-.3,0-.4,0-.1,0-.2,0-.3-.1,0,0,0,0,0,0,0,0,0,0,0,0,0,0-.1,0-.2,0,0,0,0,0-.1.1,0,0,0,.2,0,.2,0,0,0,0,.1,0Z"/>
      <path class="st2" d="M34.9,22.3c0-.1.3-.6.4-.9,0-1.1.7-1.6.7-2.7,0-.3-1.2-.6-1.3-1.2,0-.3-.1-.8.2-.8.4,0,.8,0,1.1-.3,1.3-1.1.2-2.7,0-4.1,0-.3.5-.9.5-1.2,0-1.2-.3-2.2.1-3.4-.3.3-.4.8-.7,1-.1.1-.2-.1-.2-.2.2-1,.6-1.9,1-2.8.6-1.1.3-2.1-.7-2.4-.9-.3-1.8.6-1.9,1.5,0,.8.2,1.8.4,2.5,0,.2,0,.4,0,.6.2-.7.2-1.4.2-2.1,0-.2.1-.4.3-.5.6-.2.9.3.9.6-.1,1.1-.4,1.9-.6,3-.3,1.2.1,2.4.3,3.6-.5-.3-1-.3-1.2.4,0,.4.2.8.4,1.1,0-.5.4-1.1.9-.8.5.3.5,2,.4,2.2-.3.5-.7.8-1.3.7-.3,0-.2-.6-.4-.8-1-1.1-1.5-2.4-1.6-3.9,0-.2.1-.8,0-.8-1.4-.6-2,0-2.6.8,0-.2-.6-.6-.7-.5-.3.5-.2,1.3.2,1.7,1,.9,2.1,1.5,2.7,2.8-.6,0-1.2.3-1.5.9-.3.7-.2,1.6.6,1.9.6.2,1.6,0,1.8,0,.6,0,1.3.6,1.2,1.2,0,0-.3,1.4-.9,1.1-.3-.2-.1-.9-.6-1.1-.7-.2-.8.8-.7.7.2-.2.4.1.8.4-1.4-.3-1,1-.9.8,0-.2.3,0,.8,0,0,0-.1.1-.1.1,0,.1-.1.2-.2.3,0,0,0,.1,0,.2,0,0,0,.1,0,.2,0,0,0,0,0,0,0,0,0,0,0,0,0,0,0,0,0-.1,0,0,0,0,0,0,0,0,0,0,.1,0,0,0,0,0,.1,0,0,0,.1,0,.2,0,0,0,.1,0,.2,0,0,0,0,0,0,0,0-.2.1-.1.2-.2.1-.3.3-.3.6-.3,0,0,0,0,.1.1,0,0,0,.2,0,.1,0,.1.1.2.1.3Z"/>
      <path class="st2" d="M24.9,9.4c0,0-.1-.2-.2-.2,0,0,0,0,0,0,0,0,0,0,0-.1,0-.2,0-.4.2-.6,0,0,0,0,0,0,0,0,0,0,0,0,0,0,0,0,0,0,0,0,0,0,0,0,0,0,0-.1,0-.2,0,0,.1,0,.2,0,0,0,0,0,0,0,.2,0,.5.1.6.4h0c.2.6.2,1.9,1.4,2.2.7.2,1.3.4,2,.4-.2.7-.2,1.5.4,2-.8-.4-1.3-.3-1.9-1-.3-.3-1-.7-1.3-.6-.1,0,.2-.4-.1-.5-.2,0-.7,0-.8,0-.4.7-.9.7-1.1.8.2-.2-.7-.9.4-1.3.1,0,.1-.3,0-.3-.2-.1-.4,0-.6.2-.2.1-.3-.4-.7-.2,0-1.2.9-1.3,1.6-.5,0,0,.2,0,.1,0v-.2Z"/>
      <path class="st3" d="M4.6,26.7l15.9-12.7,16,12.3-.7,2-15.3-11.7-15.2,12.2-.8-2.1Z"/>
      <path class="st3" d="M6.6,32l13.9-11.4,14,10.8-1,1.9-13-10-12.9,10.5-1-1.8Z"/>
    </g>
  </g>
  <metadata>
    <sfw xmlns="http://ns.adobe.com/SaveForWeb/1.0/">
      <slices/>
      <sliceSourceBounds x="0" y="0.66" width="198.41" height="47.34" bottomLeftOrigin="true"/>
    </sfw>
  </metadata>
</svg>