<svg width="199" height="48" viewBox="0 0 199 48" fill="none" xmlns="http://www.w3.org/2000/svg">
<g clip-path="url(#clip0_5_53)">
<path d="M20.498 47.335L20.011 47.109C14.605 44.607 10.239 40.97 7.388 36.596C0.552 26.107 0.326 15.271 0.088 3.8C0.069 2.93 0.049 2.06 0.03 1.185L0 0H40.973L40.945 1.186C40.923 2.066 40.905 2.942 40.887 3.819C40.645 15.283 40.419 26.112 33.585 36.597C30.74 40.965 26.385 44.598 20.985 47.11L20.498 47.335Z" fill="white"/>
<path d="M46.126 16.332H50.396L54.142 28.587L58.204 16.279H61.615L65.675 28.587L69.425 16.332H73.589L67.405 34.559H63.944L59.862 22.721L55.773 34.559H52.308L46.126 16.332Z" fill="#231F20"/>
<path d="M84.084 26.982L81.682 21.113L79.279 26.982H84.084ZM79.893 16.328H83.569L91.322 34.558H87.162L85.508 30.496H77.854L76.198 34.558H72.136L79.893 16.328Z" fill="#231F20"/>
<path d="M95.662 20.131H90.156V16.46H105.156V20.131H99.651V34.559H95.662V20.131Z" fill="#231F20"/>
<path d="M108.185 16.46H121.837V19.996H112.142V23.671H120.677V27.217H112.142V31.018H121.966V34.559H108.185V16.46Z" fill="#231F20"/>
<path d="M134.265 25.252C136.208 25.252 137.32 24.217 137.32 22.692V22.638C137.32 20.932 136.127 20.05 134.187 20.05H130.234V25.251H134.265V25.252ZM126.25 16.46H134.527C136.826 16.46 138.611 17.104 139.802 18.297C140.81 19.303 141.353 20.721 141.353 22.428V22.481C141.353 25.407 139.779 27.243 137.474 28.097L141.894 34.559H137.238L133.361 28.768H130.234V34.559H126.25V16.46V16.46Z" fill="#231F20"/>
<path d="M145.746 16.46H149.726V30.941H158.203V34.559H145.746V16.46Z" fill="#231F20"/>
<path d="M173.892 25.561V25.507C173.892 22.408 171.619 19.819 168.412 19.819C165.205 19.819 162.98 22.353 162.98 25.457V25.507C162.98 28.611 165.255 31.201 168.464 31.201C171.667 31.201 173.892 28.668 173.892 25.561ZM158.814 25.561V25.507C158.814 20.365 162.875 16.147 168.464 16.147C174.046 16.147 178.058 20.311 178.058 25.458V25.508C178.058 30.658 173.996 34.872 168.412 34.872C162.828 34.872 158.814 30.707 158.814 25.561Z" fill="#231F20"/>
<path d="M194.253 25.561V25.507C194.253 22.408 191.976 19.819 188.767 19.819C185.564 19.819 183.337 22.353 183.337 25.457V25.507C183.337 28.611 185.614 31.201 188.817 31.201C192.025 31.201 194.253 28.668 194.253 25.561ZM179.175 25.561V25.507C179.175 20.365 183.234 16.147 188.818 16.147C194.406 16.147 198.414 20.311 198.414 25.458V25.508C198.414 30.658 194.353 34.872 188.768 34.872C183.183 34.871 179.175 30.707 179.175 25.561Z" fill="#231F20"/>
<path d="M56.23 7.301V2.533H58.067V7.252C58.067 8.609 58.744 9.311 59.864 9.311C60.983 9.311 61.664 8.631 61.664 7.313V2.533H63.5V7.239C63.5 9.765 62.079 11.003 59.841 11.003C57.6 11.003 56.23 9.754 56.23 7.301Z" fill="#231F20"/>
<path d="M68.378 2.533H70.069L73.978 7.669V2.533H75.789V10.875H74.227L70.188 5.572V10.875H68.377V2.533H68.378Z" fill="#231F20"/>
<path d="M81.007 2.533H82.842V10.875H81.007V2.533Z" fill="#231F20"/>
<path d="M87.346 2.533H89.369L91.551 8.408L93.731 2.533H95.709L92.339 10.931H90.717L87.346 2.533Z" fill="#231F20"/>
<path d="M100.128 2.533H106.419V4.166H101.95V5.857H105.882V7.49H101.95V9.243H106.477V10.875H100.127V2.533H100.128Z" fill="#231F20"/>
<path d="M111.246 2.533H115.058C116.119 2.533 116.939 2.83 117.488 3.381C117.953 3.845 118.203 4.5 118.203 5.285V5.31C118.203 6.654 117.476 7.501 116.416 7.896L118.453 10.875H116.308L114.523 8.203H113.08V10.875H111.246V2.533V2.533ZM114.939 6.586C115.832 6.586 116.343 6.107 116.343 5.404V5.38C116.343 4.596 115.796 4.19 114.904 4.19H113.08V6.586H114.939V6.586Z" fill="#231F20"/>
<path d="M122.421 9.658L123.505 8.361C124.255 8.98 125.042 9.374 125.993 9.374C126.745 9.374 127.198 9.076 127.198 8.586V8.562C127.198 8.099 126.911 7.861 125.516 7.502C123.838 7.074 122.752 6.607 122.752 4.952V4.93C122.752 3.416 123.969 2.414 125.672 2.414C126.887 2.414 127.924 2.795 128.77 3.475L127.817 4.858C127.079 4.345 126.352 4.036 125.647 4.036C124.946 4.036 124.575 4.356 124.575 4.763V4.786C124.575 5.335 124.934 5.515 126.376 5.882C128.067 6.322 129.021 6.932 129.021 8.384V8.409C129.021 10.064 127.757 10.994 125.959 10.994C124.695 10.993 123.419 10.551 122.421 9.658Z" fill="#231F20"/>
<path d="M133.833 2.533H135.667V10.875H133.833V2.533Z" fill="#231F20"/>
<path d="M142.83 4.225H140.291V2.533H147.201V4.224H144.662V10.874H142.83V4.225V4.225Z" fill="#231F20"/>
<path d="M154.087 7.585L150.884 2.533H153.027L155.017 5.881L157.042 2.533H159.126L155.923 7.549V10.875H154.087V7.585Z" fill="#231F20"/>
<path d="M169.552 6.728V6.707C169.552 4.332 171.425 2.391 173.999 2.391C176.569 2.391 178.417 4.309 178.417 6.68V6.707C178.417 9.076 176.546 11.017 173.972 11.017C171.4 11.017 169.552 9.101 169.552 6.728ZM176.498 6.728V6.707C176.498 5.275 175.449 4.083 173.973 4.083C172.497 4.083 171.471 5.252 171.471 6.68V6.707C171.471 8.135 172.522 9.325 174 9.325C175.474 9.325 176.498 8.158 176.498 6.728Z" fill="#231F20"/>
<path d="M182.359 2.533H188.709V4.201H184.191V5.976H188.171V7.645H184.191V10.874H182.359V2.533Z" fill="#231F20"/>
<path d="M36.349 27.186L20.495 15.216L4.772 27.607C1.852 19.311 1.964 10.674 1.749 1.812H39.225C39.012 10.524 39.117 19.018 36.349 27.186Z" fill="#FFD74F"/>
<path d="M34.178 32.316C33.608 33.42 32.974 34.513 32.263 35.605C29.407 39.992 25.161 43.236 20.497 45.405C15.81 43.236 11.568 39.992 8.712 35.605C8.098 34.666 7.54 33.723 7.036 32.774L20.495 21.43L34.178 32.316Z" fill="#FFD74F"/>
<path d="M20.497 45.405C15.81 43.236 11.568 39.992 8.712 35.605C1.746 24.918 2.035 13.564 1.749 1.812H39.225C38.938 13.564 39.228 24.917 32.263 35.605C29.406 39.992 25.161 43.236 20.497 45.405Z" stroke="#231F20" stroke-width="1.1523"/>
<path d="M9.534 8.232C7.635 7.829 5.944 6.42 6.354 4.627C6.358 4.609 6.28 4.163 6.118 4.103C6.104 4.097 6.077 4.049 6.048 4.04C5.976 4.022 5.916 3.989 5.855 3.945C5.834 3.932 5.746 3.9 5.746 3.869C5.711 3.942 5.72 4.012 5.671 4.076C5.65 4.101 5.623 4.139 5.596 4.152C5.562 4.168 5.559 4.201 5.533 4.225C5.39 4.368 5.467 4.585 5.489 4.748C5.496 4.79 5.513 4.842 5.462 4.852C5.401 4.861 5.45 4.833 5.38 4.79C5.364 4.779 5.339 4.753 5.322 4.745C5.291 4.73 5.174 4.714 5.152 4.684C5.132 4.654 5.142 4.645 5.113 4.62C5.047 4.561 5.041 4.442 4.993 4.32C4.984 4.299 4.965 4.194 4.965 4.168C4.965 4.049 4.655 3.854 4.776 3.953C4.818 3.986 4.77 3.904 4.603 3.863C4.499 3.836 4.378 3.841 4.26 3.859C4.236 3.861 4.213 3.879 4.196 3.891C4.077 3.986 3.963 4.1 3.806 4.106C3.832 4.087 3.846 4.12 3.859 4.136C3.934 4.23 3.879 4.351 3.923 4.456C3.967 4.561 4.044 4.64 4.131 4.712C4.218 4.778 4.369 4.689 4.437 4.807C4.437 4.807 4.577 4.841 4.438 4.98C4.184 5.239 3.899 5.031 3.687 5.508C4.007 5.37 4.044 5.858 4.179 5.877C4.791 5.959 5.257 6.066 5.592 6.688C5.797 7.066 5.225 7.084 5.742 7.172C6.006 7.216 6.182 7.352 6.313 7.536C6.454 7.73 6.472 7.995 6.624 8.178C6.731 8.309 6.772 8.334 6.903 8.444C6.962 8.492 7.149 8.54 7.222 8.558C7.292 8.578 7.334 8.614 7.4 8.639C7.471 8.664 7.546 8.69 7.607 8.739C7.659 8.782 7.789 8.827 7.818 8.885C7.872 8.989 7.828 9.094 7.885 9.2C7.903 9.227 7.985 9.203 8.016 9.214C8.048 9.227 8.121 9.232 8.141 9.227C8.266 9.198 8.295 9.188 8.388 9.178C8.53 9.162 8.513 9.207 8.696 9.198C8.736 9.198 8.75 9.227 8.803 9.227C8.837 9.227 8.9 9.264 8.91 9.232C8.966 9.059 9.058 8.889 9.158 8.72C9.262 8.551 9.252 8.533 9.382 8.356C9.367 8.361 9.551 8.234 9.534 8.232Z" fill="#CD1543"/>
<path d="M4.797 8.453C5.354 8.752 5.279 9.491 5.777 9.73C6.671 10.155 7.734 10.446 8.682 9.98C8.47 10.638 8.703 11.191 8.612 11.267C8.316 11.503 7.411 11.22 6.831 10.99C6.432 10.832 6.108 11.426 5.668 11.375C5.689 11.32 5.74 11.17 5.711 11.074C5.641 10.859 5.584 10.8 5.229 10.842C4.999 10.866 5.095 11.054 4.75 11.225C4.613 11.145 4.322 11.054 4.279 11.312C4.258 11.433 4.016 10.894 4.066 10.802C4.293 10.395 4.337 10.301 4.322 10.215C4.295 10.08 3.806 9.903 3.744 10.016C3.588 10.281 3.14 9.153 4.466 9.227C4.11 8.997 4.151 8.957 4.233 8.686C4.243 8.647 4.109 8.509 4.02 8.604C3.99 8.498 4.06 8.386 4.142 8.375C4.362 8.343 4.575 8.333 4.797 8.453Z" fill="#CD1543"/>
<path d="M7.432 5.725C8.236 5.911 9.438 4.874 10.134 6.096C9.62 5.908 8.098 6.724 7.432 5.725Z" fill="#CD1543"/>
<path d="M14.153 7.502C14.138 8.549 13.052 9.679 13.933 10.678C13.572 10.672 13.146 10.547 12.896 10.346C12.756 10.234 12.788 10.844 12.807 10.971C12.823 11.077 12.139 10.325 11.882 10.506C11.155 11.029 10.84 11.244 9.762 11.284C9.463 11.295 9.307 11.537 9.222 11.798C8.978 11.298 9.158 10.161 9.299 9.657C9.681 8.271 11.072 7.861 12.188 7.197C12.987 6.723 13.33 5.792 13.29 4.884C13.858 5.598 14.167 6.611 14.153 7.502Z" fill="#CD1543"/>
<path d="M9.047 19.293C9.183 19.324 9.081 19.436 9.027 19.472C8.919 19.546 8.839 19.636 8.771 19.746C8.718 19.83 8.68 19.917 8.702 20.02C8.714 20.095 8.739 20.159 8.767 20.231C8.786 20.272 8.824 20.295 8.854 20.331C8.87 20.344 8.918 20.404 8.919 20.411C8.89 20.306 9.037 20.199 9.071 20.218C9.761 20.62 9.802 19.807 10.217 19.531C10.392 19.412 10.789 19.55 10.688 19.909C11.1 19.687 11.221 19.134 11.543 18.786C12.252 18.016 13.249 17.502 14.194 17.085C13.851 16.724 13.348 16.416 13.093 16.001C12.967 15.794 12.816 15.39 13.095 15.465C14.258 15.767 14.909 15.06 15.036 14.144C16.758 14.369 17.207 12.741 17.438 11.512C17.55 10.914 17.877 10.861 17.521 9.847C17.372 9.421 18.283 9.282 18.127 8.547C18.084 8.344 17.834 8.142 17.687 8.119C17.827 8.515 17.165 8.612 17.091 8.775C16.98 9.03 16.816 9.232 16.795 9.495C16.235 8.721 16.688 7.786 17.215 7.059C17.982 6.001 19.575 6.556 20.246 7.238C20.259 6.896 19.992 6.463 19.775 6.252C20.402 6.171 21.082 6.554 21.938 6.102C22.431 5.837 22.929 5.613 23.16 5.03C22.111 5.174 20.687 4.366 19.741 4.2C17.978 3.893 16.795 5.097 16.163 6.532C15.534 7.966 15.935 9.035 16.619 10.107C16.792 10.378 16.014 10.201 15.707 10.359C15.409 10.513 15.287 10.88 15.355 11.207C15.73 10.804 16.728 11.052 16.818 11.744C16.94 12.674 16 14.033 15.091 13.627C14.119 13.19 13.568 12.164 13.245 11.012C12.412 11.727 10.878 11.136 10.163 11.834C9.484 12.499 11.222 12.949 11.896 13.264C12.145 13.382 12.394 13.635 12.354 13.95C11.295 13.33 10.019 14.033 10.08 15.165C10.129 16.011 11.165 16.536 12.025 16.608C12.385 16.638 12.601 17.036 12.164 17.309C11.4 17.788 10.546 18.323 9.721 17.456C9.583 17.311 9.09 17.404 8.991 17.666C8.946 17.795 8.929 17.99 8.948 18.117C8.994 18.041 9.046 17.929 9.115 17.937C9.196 17.949 9.296 18.036 9.285 18.095C9.214 18.518 8.656 18.245 8.483 18.574C8.48 18.581 8.471 18.589 8.465 18.597C8.455 18.623 8.441 18.646 8.427 18.671C8.315 18.894 8.16 19.037 8.437 19.21C8.431 19.169 8.575 19.389 8.573 19.428C8.586 19.222 8.799 19.228 8.799 19.228L8.923 19.242L9.047 19.293Z" fill="#CD1543"/>
<path d="M5.462 15.31C5.354 15.277 5.239 15.317 5.131 15.367C5.062 15.395 4.979 15.364 4.937 15.433C4.914 15.477 4.896 15.524 4.911 15.571C4.917 15.598 4.929 15.645 4.951 15.662C4.805 15.649 4.67 15.552 4.557 15.452C4.522 15.421 4.498 15.382 4.463 15.348C4.442 15.324 4.443 15.281 4.431 15.25C4.414 15.213 4.42 15.176 4.42 15.141C4.416 15.041 4.414 14.938 4.459 14.846C4.48 14.803 4.499 14.761 4.531 14.723C4.554 14.693 4.579 14.67 4.606 14.644C4.679 14.572 4.762 14.518 4.862 14.489C5.004 14.446 5.16 14.458 5.296 14.518C5.404 14.566 5.537 14.56 5.65 14.591C5.711 14.608 5.825 14.433 5.744 14.41C5.382 14.324 5.384 14.227 5.248 13.859C5.186 13.789 5.102 13.872 5.067 13.908C5.065 13.208 5.897 13.161 6.245 13.439C6.759 13.852 6.373 14.664 7.005 14.886C7.334 15.001 7.683 15.091 8.022 14.948C8.634 14.688 8.024 14.073 8.221 13.556C8.62 12.506 9.503 12.452 10.554 13.461C9.613 13.773 9.174 15.019 9.688 15.84C8.859 15.512 7.812 16.063 7.229 16.434C7.772 15.892 7.011 15.454 6.818 15.549L6.589 15.71C6.479 15.852 6.468 15.994 6.332 16.131C6.255 16.203 6.213 16.216 6.111 16.242C5.973 16.28 5.888 16.27 5.765 16.19C5.743 16.175 5.671 16.207 5.655 16.224C5.588 16.307 5.653 16.347 5.651 16.376C5.638 16.367 5.552 16.298 5.54 16.288C5.46 16.229 5.371 16.177 5.323 16.096C5.274 16.019 5.24 15.815 5.295 15.701C5.352 15.593 5.46 15.557 5.534 15.481C5.603 15.413 5.521 15.304 5.436 15.291" fill="#CD1543"/>
<path d="M25.655 6.061C25.732 6.111 25.65 6.245 25.564 6.268C25.462 6.299 25.321 6.255 25.233 6.289C24.838 6.435 24.837 7.408 24.891 7.295C24.951 7.169 25.244 7.252 25.431 7.287C25.736 7.351 25.967 6.728 26.168 6.746C26.644 6.791 27.088 7.383 27.27 7.769C27.301 7.841 27.071 7.843 27.052 8.081C27.701 8.019 28.249 8.44 28.715 8.825C28.944 8.429 29.173 8.183 29.433 7.927C28.461 6.978 26.526 6.687 26.823 4.958C26.862 4.737 26.612 4.542 26.502 4.433C26.377 4.314 26.088 4.306 25.913 4.263C26.098 4.646 25.764 4.683 25.811 5.292C25.811 5.312 25.755 5.298 25.736 5.29C25.621 5.239 25.52 5.167 25.411 5.098C25.309 5.036 25.216 5.055 25.104 5.068C25.038 5.078 24.976 5.109 24.919 5.15C24.827 5.215 24.78 5.302 24.715 5.393C24.703 5.41 24.691 5.43 24.676 5.446C24.655 5.468 24.615 5.531 24.611 5.566C24.663 5.562 24.819 5.574 24.846 5.615C24.891 5.685 24.893 5.765 24.948 5.834C25.013 5.92 25.068 5.922 25.167 5.964C25.318 6.027 25.452 6.055 25.619 6.043" fill="#CD1543"/>
<path d="M28.172 5.366C28.78 5.322 29.383 4.855 30.056 5.643C29.932 5.583 29.786 5.564 29.711 5.622C28.968 6.222 28.065 6.018 27.589 5.276C27.782 5.248 28.017 5.379 28.172 5.366Z" fill="#CD1543"/>
<path d="M30.803 7.571C31.801 7.066 32.812 6.661 33.222 5.421C33.301 5.18 33.488 5.782 33.5 5.817C34.027 7.329 32.975 8.831 33.192 10.374C32.839 10.159 32.442 10.011 32.057 9.999C30.686 9.96 30.361 10.793 30.285 10.716C29.908 10.334 28.829 10.011 28.908 10.081C28.267 9.487 30.115 7.923 30.803 7.571Z" fill="#CD1543"/>
<path d="M28.073 17.635C28.21 17.846 28.028 17.515 28.182 17.873C28.908 17.57 29.655 17.227 30.453 17.548C30.1 15.924 31.288 15.529 31.382 15.285C31.532 14.894 30.739 14.119 30.141 14.335C29.379 14.607 29.696 15.57 29.551 16.244C29.473 16.619 29.011 16.889 28.628 16.758C27.997 16.539 27.742 15.952 27.589 15.291C27.484 14.854 26.629 14.801 26.443 15.16C25.917 16.18 26.756 15.041 26.701 15.815C26.692 15.947 26.088 15.851 25.953 16.307C25.86 16.619 26.158 16.83 26.53 16.938C26.6 16.96 26.458 16.785 26.552 16.746C26.62 16.723 26.895 16.867 26.862 16.885C26.502 17.105 26.41 17.614 27.052 17.837C27.057 17.838 27.005 17.652 27.052 17.617C27.557 17.242 28.081 17.646 28.081 17.635" fill="#CD1543"/>
<path d="M17.199 27.916C17.801 28.194 17.993 27.895 18.786 27.768C18.894 27.748 19.34 28.04 19.471 28.187C18.678 28.312 17.713 29 17.199 27.916Z" fill="#CD1543"/>
<path d="M16.879 28.549C16.841 28.509 16.788 28.49 16.739 28.472C16.691 28.45 16.637 28.434 16.58 28.424C16.568 28.42 16.468 28.399 16.452 28.393C16.449 28.43 16.494 28.522 16.468 28.543C16.406 28.603 16.384 28.588 16.331 28.664C16.313 28.693 16.293 28.724 16.287 28.756C16.273 28.827 16.241 28.904 16.232 28.985C16.23 29.025 16.248 29.12 16.255 29.157C16.26 29.177 16.304 29.26 16.315 29.283C16.315 29.283 16.411 29.387 16.405 29.382C16.518 29.495 16.427 29.431 16.564 29.565C16.633 29.632 16.532 29.75 16.463 29.727C15.998 29.593 15.933 29.054 15.51 28.888C15.203 28.771 14.758 29.01 14.711 29.479C14.815 29.449 14.924 29.491 14.943 29.577C15.057 30.049 15.75 29.767 15.766 30.099C15.779 30.316 15.247 30.063 15.037 30.2C14.761 30.387 14.722 30.918 14.967 31.23C15.22 30.989 15.533 31.339 15.779 31.165C15.951 31.043 16.011 30.869 16.187 30.793C16.72 30.558 16.877 31.048 16.759 31.54C17.045 31.406 17.723 31.269 17.876 31.223C18.157 31.15 18.171 30.501 18.515 30.263C18.028 30.26 17.425 30.049 17.288 29.574C17.276 29.523 17.31 29.464 17.315 29.407C17.327 29.225 17.31 29.051 17.242 28.884C17.236 28.866 17.218 28.847 17.204 28.825C17.183 28.798 17.169 28.77 17.149 28.741C17.1 28.675 17.029 28.645 16.96 28.599C16.931 28.581 16.892 28.576 16.868 28.543" fill="#CD1543"/>
<path d="M13.299 31.903C13.511 32.318 12.462 31.656 12.068 32.267C11.942 32.464 12.009 32.909 12.009 33.157C12.251 32.939 12.491 33.354 12.942 32.957C12.992 33.002 13.046 33.029 12.976 33.1C12.81 33.268 12.717 33.476 12.805 33.678C12.86 33.811 13.235 34.074 13.237 34.055C13.276 33.782 13.737 34.055 13.81 33.522C13.84 33.301 13.905 32.94 14.222 33.071C14.511 33.19 14.571 33.519 14.503 33.842C14.965 33.69 15.774 33.219 16.26 33.569C16.91 34.039 17.979 34.231 18.74 34.467C18.234 34.117 18.074 33.203 18.159 32.607C16.961 32.841 15.7 32.802 14.59 32.287C14.285 32.147 14.327 31.794 14.236 31.506C14.133 31.181 13.722 30.882 13.35 30.907C13.149 30.923 12.669 31.345 12.762 31.364C12.731 31.356 12.732 31.426 12.716 31.454C12.805 31.398 12.919 31.454 12.96 31.553C12.989 31.619 13.019 31.695 13.075 31.749C13.143 31.817 13.262 31.832 13.299 31.903Z" fill="#CD1543"/>
<path d="M16.174 38.455C16.404 38.169 16.598 38.321 16.699 38.324C16.941 38.332 16.926 38.676 16.901 38.893C17.855 38.433 18.763 37.775 19.881 38.015C19.229 37.333 19.46 35.869 20.38 35.691C20.383 35.691 19.787 35.593 19.724 35.554C18.923 35.047 17.945 34.562 17.407 35.625C17.14 36.152 17.631 36.579 17.999 37.018C18.065 37.098 17.957 37.142 17.872 37.166C16.995 37.39 15.383 37.522 15.31 36.212C15.303 36.081 14.965 35.97 14.748 35.977C14.099 35.998 14.108 36.824 14.182 36.767C14.325 36.658 14.758 36.695 14.706 37.03C14.657 37.339 14.052 36.865 13.812 37.176C13.609 37.435 13.615 37.863 13.757 38.151C13.732 38.044 13.852 37.966 13.918 37.955C14.59 37.844 14.628 38.076 14.429 38.73C14.414 38.779 14.626 39.188 14.77 39.226C14.757 39.221 14.759 39.132 14.779 39.102C14.8 39.07 14.832 39.047 14.866 39.037C14.938 39.01 15.013 39.016 15.088 38.998C15.122 38.984 15.148 38.964 15.182 38.941C15.234 38.91 15.271 38.863 15.31 38.816C15.466 38.619 15.603 38.365 15.867 38.341C15.99 38.329 16.068 38.384 16.171 38.45" fill="#CD1543"/>
<path d="M23.127 41.494C23.74 40.883 24.187 40.069 24.844 39.473C24.123 39.048 23.231 38.605 23.135 37.654C23.127 37.59 23.237 37.518 23.26 37.53C24.262 38.093 25.614 38.136 26.336 37.113C26.919 36.287 27.171 34.942 28.31 34.869C27.932 34.139 28.358 33.301 28.98 32.918C28.77 32.838 28.5 32.665 28.264 32.709C27.976 32.758 27.853 33.147 27.525 33.209C28.041 31.475 27.046 29.052 25.134 29.092C24.777 29.098 24.313 29.387 24.195 29.78C24.085 30.148 24.028 30.613 24.295 30.929C24.921 31.677 25.372 32.493 25.175 33.485C25.622 33.099 26.032 32.533 26.018 31.93C26.015 31.777 26.288 31.886 26.33 31.826C26.853 31.058 25.999 30.585 25.547 30.102C25.421 29.971 25.74 29.77 25.782 29.786C27.419 30.272 27.574 32.292 26.872 33.604C26.685 33.37 25.991 33.448 25.757 33.368C26.525 33.755 26.325 33.809 26.291 33.937C26.236 34.167 25.547 34.066 25.414 34.237C25.184 34.53 25.011 34.661 24.993 35.635C25.311 35.293 25.727 34.771 26.179 35.002C27.144 35.5 26.131 37.168 25.221 37.444C24.444 37.677 23.725 37.433 23.244 36.754C22.547 35.775 23.052 34.589 22.559 33.597C22.146 33.697 22.24 34.237 22.025 34.141C21.267 33.789 20.837 32.979 20.288 32.299C20.06 32.382 19.961 32.592 19.741 32.583C19.416 32.568 18.804 32.465 18.674 32.632C18.524 32.82 18.413 34.196 19.753 34.696C20.663 35.035 21.381 35.337 21.954 36.048C21.57 36.078 21.436 35.893 21.124 35.879C20.813 35.868 20.619 35.99 20.386 36.109C20.162 36.226 19.902 36.662 19.947 37.011C20.155 38.679 22.113 38.697 23.013 39.755C23.168 39.933 22.777 40.655 22.409 40.95C22.095 41.201 21.342 40.573 21.463 40.04C21.563 39.615 20.534 39.331 20.176 39.815C20.318 39.801 20.355 39.895 20.341 39.963C20.277 40.354 20.764 40.368 20.748 40.568C20.727 40.841 20.489 40.449 20.299 40.418C19.887 40.332 19.473 40.477 19.231 40.811C19.16 40.911 18.996 41.072 19.067 41.241C19.384 41.087 19.549 41.579 19.844 41.429C20.026 41.335 20.171 41.177 20.389 41.232C20.475 41.255 20.563 41.372 20.485 41.425C19.909 41.793 19.446 42.312 19.863 42.904C19.876 42.765 19.984 42.67 20.072 42.644C20.24 42.598 20.464 42.711 20.628 42.659C20.896 42.568 20.758 42.3 20.861 42.111C21.02 41.81 21.565 41.31 21.874 41.674C21.931 41.738 21.886 41.981 21.722 41.987C21.89 41.98 22.042 42.147 22.186 42.114C22.227 42.11 22.27 42.11 22.307 42.092C22.338 42.075 22.375 42.068 22.401 42.042C22.468 41.973 22.546 41.901 22.557 41.793C22.681 41.804 22.838 41.814 22.919 41.71C22.997 41.605 23.095 41.522 23.183 41.442" fill="#CD1543"/>
<path d="M20.336 29.44C21.409 29.14 22.602 28.582 22.859 27.389C23.184 27.585 23.287 28.031 23.289 28.304C23.313 29.796 22.661 31.087 22.978 32.654C23.012 32.832 23.335 33.385 23.189 33.32C23.01 33.242 22.631 32.884 22.425 33.049C22.166 33.251 22.182 33.575 22.056 33.499C21.584 33.214 21.086 32.788 20.858 32.243C20.77 32.036 20.806 31.595 20.748 31.655C20.39 32.047 19.655 32.13 19.112 32.212C19.235 32.102 19.347 31.658 19.327 31.566C18.899 31.351 18.284 32.084 18.296 31.99C18.317 31.756 18.343 31.679 18.366 31.615C18.686 30.68 19.285 29.729 20.336 29.44Z" fill="#CD1543"/>
<path d="M12.359 3.989C12.637 3.981 12.842 3.81 13.02 3.622C13.006 3.778 13.236 4 13.151 4.168C13.046 4.377 12.774 4.505 12.724 4.699C12.612 5.095 12.934 5.486 12.7 5.881C12.01 7.049 10.506 6.663 9.478 6.918C9.55 6.795 9.461 6.607 9.383 6.556C9.838 6.614 10.447 6.516 10.57 6.17C10.717 5.746 10.793 5.431 10.593 5.081C10.266 4.502 9.581 4.771 9.067 4.974C8.987 4.616 9.324 4.397 9.517 4.348C10.061 4.204 10.553 3.969 11.062 3.779C11.505 3.613 11.906 4 12.359 3.989ZM11.598 4.569C11.644 4.548 11.666 4.517 11.661 4.512C11.272 3.966 10.804 4.022 10.605 4.507C10.47 4.836 11.252 4.73 11.598 4.569Z" fill="#CD1543"/>
<path d="M32.216 6.188C32.069 6.314 31.822 6.308 31.656 6.425C31.554 6.497 31.462 6.569 31.356 6.634C31.307 6.662 31.159 6.728 31.106 6.745C30.955 6.782 30.987 6.764 30.849 6.782C30.767 6.794 30.728 6.798 30.645 6.798C30.563 6.798 30.308 6.806 30.228 6.804C30.033 6.8 29.999 6.814 29.802 6.783C29.691 6.764 29.583 6.734 29.476 6.696C29.406 6.675 29.33 6.661 29.254 6.661C29.262 6.58 29.272 6.498 29.334 6.443C29.416 6.375 29.433 6.437 29.55 6.426C29.556 6.426 29.72 6.439 29.726 6.439C29.752 6.437 29.786 6.437 29.817 6.435C29.866 6.426 29.911 6.415 29.956 6.394C30.017 6.365 30.079 6.348 30.133 6.307C30.15 6.288 30.172 6.277 30.192 6.255C30.231 6.22 30.284 6.202 30.32 6.157C30.431 6.019 30.515 5.887 30.525 5.714C30.537 5.583 30.546 5.449 30.525 5.316C30.519 5.295 30.516 5.275 30.515 5.254C30.507 5.15 30.455 5.056 30.405 4.959C30.107 4.391 29.392 4.945 28.901 4.921C28.901 4.815 28.89 4.613 28.946 4.543C29.296 4.091 29.836 4.314 30.118 4.106C31.06 3.406 31.311 3.91 32.299 4.183C32.594 4.265 33.018 4.079 33.296 3.959C33.366 3.931 33.364 4.376 33.33 4.465C33.213 4.778 32.888 4.763 32.775 5.042C32.609 5.455 32.583 6.035 32.148 6.24M31.534 4.361C31.577 4.338 31.5 4.395 31.534 4.359C31.109 4.147 30.555 3.869 30.361 4.433C30.218 4.852 31.165 4.562 31.534 4.361Z" fill="#CD1543"/>
<path d="M21.692 26.396C22.128 26.5 22.604 26.511 22.885 26.129C23.025 26.722 22.482 26.796 22.383 27.084C22.23 27.524 22.239 27.964 21.814 28.193C20.965 28.646 19.902 29.19 18.928 29.266C18.936 29.148 18.854 28.929 19.01 28.92C19.35 28.906 19.616 28.652 19.694 28.45C19.799 28.168 19.679 27.488 19.424 27.355C19.13 27.199 18.873 27.437 18.604 27.556C18.491 27.256 18.957 26.763 19.687 26.804C19.667 26.803 20.048 26.39 20.03 26.402C20.509 26.076 21.031 26.24 21.692 26.396ZM20.395 27.159C20.563 27.221 21.064 26.945 21.246 26.844C21.289 26.821 21.321 26.776 21.355 26.74C21.358 26.737 21.352 26.727 21.344 26.727C21.2 26.696 21.072 26.684 20.93 26.666C20.826 26.655 20.746 26.586 20.64 26.564C20.614 26.558 20.587 26.562 20.56 26.572C20.52 26.589 20.504 26.617 20.473 26.633C20.422 26.655 20.351 26.655 20.303 26.695C20.257 26.739 20.216 26.779 20.203 26.841C20.182 26.909 20.199 27.01 20.248 27.07C20.285 27.118 20.342 27.141 20.395 27.159Z" fill="#CD1543"/>
<path d="M34.933 22.259C34.919 22.116 35.28 21.688 35.287 21.372C35.32 20.305 35.966 19.8 35.985 18.658C35.989 18.359 34.755 18.081 34.702 17.437C34.677 17.119 34.569 16.659 34.89 16.664C35.299 16.672 35.7 16.601 35.991 16.345C37.281 15.207 36.191 13.655 36.035 12.285C36 11.984 36.557 11.338 36.541 11.125C36.452 9.963 36.236 8.9 36.651 7.758C36.327 8.049 36.228 8.528 35.956 8.775C35.824 8.895 35.76 8.628 35.768 8.583C35.932 7.577 36.331 6.697 36.797 5.745C37.348 4.61 37.07 3.69 36.051 3.354C35.119 3.043 34.217 3.911 34.115 4.807C34.023 5.623 34.277 6.606 34.472 7.278C34.526 7.473 34.493 7.696 34.534 7.866C34.702 7.19 34.721 6.483 34.709 5.766C34.707 5.59 34.847 5.357 35.025 5.303C35.63 5.128 35.946 5.567 35.905 5.908C35.772 6.982 35.554 7.803 35.299 8.867C35.007 10.088 35.443 11.293 35.57 12.473C35.104 12.201 34.596 12.187 34.417 12.913C34.318 13.301 34.667 13.708 34.774 14.048C34.785 13.585 35.223 12.95 35.649 13.235C36.172 13.582 36.191 15.25 36.077 15.473C35.822 15.955 35.405 16.302 34.825 16.129C34.499 16.034 34.632 15.55 34.435 15.347C33.394 14.27 32.919 12.984 32.831 11.494C32.818 11.278 32.933 10.706 32.9 10.696C31.538 10.134 30.912 10.693 30.345 11.494C30.248 11.251 29.731 10.912 29.688 10.988C29.431 11.468 29.505 12.337 29.891 12.671C30.94 13.582 31.982 14.191 32.572 15.488C31.941 15.569 31.326 15.751 31.085 16.409C30.832 17.098 30.919 18.052 31.644 18.331C32.237 18.559 33.252 18.306 33.475 18.335C34.104 18.417 34.807 18.957 34.708 19.552C34.703 19.58 34.439 20.97 33.838 20.626C33.512 20.44 33.695 19.677 33.199 19.562C32.532 19.397 32.368 20.33 32.451 20.25C32.665 20.049 32.812 20.381 33.224 20.612C31.827 20.307 32.262 21.588 32.311 21.448C32.384 21.246 32.637 21.454 33.138 21.423C33.157 21.423 33.029 21.527 33.023 21.534C32.944 21.665 32.906 21.727 32.849 21.866C32.82 21.928 32.825 21.999 32.832 22.067C32.84 22.133 32.863 22.196 32.899 22.255C32.906 22.268 32.919 22.276 32.934 22.285C32.941 22.287 32.96 22.32 32.964 22.32C32.993 22.322 32.937 22.221 33.018 22.215C33.039 22.213 33.096 22.203 33.112 22.209C33.149 22.223 33.198 22.249 33.235 22.257C33.272 22.268 33.308 22.276 33.349 22.28C33.445 22.293 33.478 22.295 33.561 22.267C33.632 22.24 33.703 22.227 33.768 22.18C33.68 22.24 33.868 22.087 33.862 22.106C33.947 21.921 34.001 21.974 34.021 21.941C34.169 21.658 34.298 21.63 34.625 21.67C34.658 21.675 34.718 21.743 34.738 21.771C34.761 21.806 34.828 21.984 34.817 21.917C34.841 22.051 34.922 22.135 34.933 22.259Z" fill="#CD1543"/>
<path d="M24.851 9.388C24.767 9.332 24.737 9.203 24.677 9.15C24.662 9.13 24.646 9.11 24.627 9.088C24.598 9.059 24.583 9.016 24.573 8.975C24.514 8.775 24.544 8.537 24.724 8.407C24.733 8.401 24.73 8.391 24.733 8.384C24.743 8.364 24.77 8.357 24.775 8.34C24.781 8.323 24.809 8.323 24.8 8.3C24.812 8.307 24.813 8.288 24.818 8.284C24.854 8.239 24.856 8.155 24.787 8.132C24.844 8.137 24.902 8.133 24.961 8.149C24.983 8.154 25.009 8.16 25.029 8.163C25.25 8.191 25.528 8.291 25.587 8.516L25.664 8.6C25.894 9.137 25.816 10.45 27.096 10.765C27.763 10.929 28.433 11.137 29.116 11.125C28.952 11.79 28.954 12.635 29.48 13.118C28.713 12.699 28.203 12.786 27.533 12.155C27.237 11.874 26.543 11.486 26.207 11.543C26.068 11.569 26.398 11.101 26.092 11.01C25.889 10.949 25.35 10.963 25.257 11.101C24.815 11.767 24.349 11.764 24.193 11.897C24.375 11.744 23.469 11.006 24.592 10.608C24.698 10.569 24.738 10.323 24.606 10.263C24.386 10.159 24.204 10.311 23.987 10.437C23.738 10.587 23.681 10.045 23.291 10.247C23.21 9.092 24.239 8.991 24.853 9.714C24.896 9.767 25.068 9.701 24.997 9.638L24.851 9.388Z" fill="#CD1543"/>
<path d="M4.551 26.738L20.495 14.06L36.463 26.391L35.808 28.364L20.495 16.68L5.327 28.835L4.551 26.738Z" fill="#231F20"/>
<path d="M6.589 31.951L20.495 20.569L34.473 31.361L33.519 33.277L20.495 23.271L7.564 33.773L6.589 31.951Z" fill="#231F20"/>
</g>
<defs>
<clipPath id="clip0_5_53">
<rect width="198.414" height="47.335" fill="white"/>
</clipPath>
</defs>
</svg>
