<svg width="250" height="188" viewBox="0 0 250 188" fill="none" xmlns="http://www.w3.org/2000/svg">
<g clip-path="url(#clip0_1_46)">
<path d="M206.618 106.737C221.019 107.985 230.092 107.902 230.092 107.902C223.516 103.157 177.73 102.907 177.73 102.907C178.147 104.822 192.215 105.571 206.618 106.737Z" fill="black"/>
<path d="M112.465 96.4972L111.716 98.329C120.79 98.579 127.034 98.828 127.034 98.828C124.869 97.9963 119.541 97.1635 112.465 96.4972Z" fill="black"/>
<path d="M106.805 98.1626L110.052 98.2453L110.551 96.3308L107.471 96.0808C107.305 96.7472 107.055 97.4963 106.805 98.1626Z" fill="black"/>
<path d="M19.8126 92.5848C20.0623 93.2508 23.6419 93.9167 29.3027 94.4991L29.0529 92.7513L19.8126 92.5848Z" fill="black"/>
<path d="M66.4305 96.9135C76.6698 97.3299 94.8177 97.7463 103.725 98.079C103.975 97.4135 104.225 96.5808 104.557 95.9145C93.0693 95.0818 77.6688 94.3327 63.1007 93.8335L66.4305 96.9135Z" fill="black"/>
<path d="M58.5222 94.0837C57.2735 92.6681 46.5347 85.5089 45.952 85.1759C45.7855 85.0927 45.7855 85.0927 45.619 85.1759C45.4525 85.2591 45.4525 85.2591 45.4525 85.4257L46.0352 89.8377C44.1206 89.1717 42.0395 88.4225 40.0415 87.6733C37.7939 86.8408 35.5462 85.9251 33.3819 85.2591C33.2986 85.2591 33.132 85.2591 33.0489 85.2591C32.6326 85.4257 32.3829 85.8418 32.2996 86.2581C32.2163 86.7576 33.465 93.001 34.2143 96.7472C34.2143 96.9135 34.3808 97.0799 34.5473 97.0799C39.7918 98.1626 45.3693 99.2444 50.1975 100.493L51.1132 100.66L51.8625 100.826H51.9458C52.0289 100.826 52.1955 100.826 52.3619 100.826C52.5285 100.826 53.2776 100.992 53.1944 100.826C53.0279 99.9934 51.8625 98.579 51.4462 97.7463C51.1965 97.1635 50.9468 96.5808 50.697 95.9981C63.4337 99.8271 63.4337 99.8271 63.6835 99.4107C63.6835 99.328 63.6835 99.1617 63.7667 99.2444C63.4337 98.7453 63.0175 98.329 62.6012 97.9126C62.3515 97.4963 58.9384 94.5827 58.5222 94.0837Z" fill="black"/>
<path d="M110.801 34.146C110.884 33.9795 110.967 33.813 111.051 33.7298C111.55 33.3135 111.966 32.6476 112.133 31.9816C112.633 31.2323 112.549 30.1502 111.883 29.4842C111.467 28.735 110.717 28.069 109.885 27.8193C109.469 27.6528 109.053 27.6528 108.636 27.6528C108.304 27.6528 108.054 27.6528 107.721 27.736C106.972 27.6528 106.555 27.9025 105.889 28.6517C104.89 29.6507 103.975 30.7329 104.057 31.8983L107.138 32.2313L105.889 34.2292L106.222 34.3957C107.887 35.0617 110.384 34.9785 110.801 34.146Z" fill="black"/>
<path d="M164.412 148.859L166.409 149.193C166.409 149.193 162.414 139.119 163.246 131.544C190.467 129.796 217.605 126.383 244.411 121.388C244.743 121.305 244.993 121.222 245.243 121.055C246.742 120.223 247.741 118.724 247.991 117.059C248.073 115.977 247.907 114.228 245.993 112.48C245.493 111.981 244.911 111.482 244.411 110.982C242.164 108.901 241.081 107.819 241.247 106.737C241.247 106.653 241.247 106.487 241.247 106.404C241.247 105.405 242.496 104.489 244.911 102.741C245.576 102.242 246.325 101.742 247.074 101.159C249.239 99.4944 249.739 97.829 249.739 96.6635C249.655 95.0818 248.906 93.5838 247.574 92.5848C247.324 92.4183 247.074 92.2518 246.742 92.1686C224.848 86.0916 198.875 79.8481 171.653 75.0198C168.491 69.2759 163.912 63.1989 160.249 60.7848C157.502 58.7036 154.256 57.3717 150.926 56.7889C150.509 48.4643 139.687 40.0565 139.604 39.9732L138.854 39.3905L139.188 38.558C139.521 37.7256 139.687 36.8099 139.604 35.8942L140.187 36.4769C142.767 35.5612 144.515 32.3979 144.515 32.3979C145.181 32.5643 144.765 35.2282 144.765 35.2282C150.343 31.9816 149.427 24.4062 149.427 24.4062C150.926 24.7392 151.758 28.9015 151.758 28.9015C155.171 20.9931 149.593 13.8339 149.593 13.8339C150.842 13.9171 154.088 17.0806 154.088 17.0806C151.924 5.84228 144.682 6.25851 144.349 6.09201C146.43 5.25955 149.593 5.59254 149.843 5.5093C145.514 0.181538 137.024 2.26269 137.024 2.26269C137.523 1.51348 138.023 0.847508 138.605 0.181538C125.286 -0.650925 126.035 8.83914 126.035 8.83914C124.786 7.84019 124.537 4.67684 124.537 4.67684C123.204 6.00877 122.455 7.84019 122.621 9.75481C118.709 8.5894 114.713 8.08993 110.634 8.25642C108.137 6.09201 102.06 1.76322 95.5668 3.67788C95.5668 3.67788 91.9038 0.930754 91.1546 1.67997C90.4054 2.42919 89.1567 11.7527 92.8196 15.8318C92.653 15.9983 92.4866 16.1648 92.2368 16.3313C89.573 16.9973 82.83 19.4114 81.2483 24.9057C74.9217 28.2355 74.9217 40.3895 76.2535 41.6382C76.753 42.0543 77.9185 42.1376 79.3337 42.0543C79.0007 46.7162 80.7488 54.9575 89.6561 56.0398C89.7394 56.0398 98.2303 56.9555 103.308 60.7848C101.311 62.6162 99.4794 64.7806 98.0639 67.1115C85.2441 66.7785 72.341 67.1947 59.6043 68.5267C19.3964 72.8555 3.16339 84.9261 0.333019 89.255C-0.0832125 89.8377 -0.166459 90.6701 0.166526 91.3361C2.49742 96.0808 17.565 111.981 54.4431 122.47C64.4326 125.301 74.5887 127.465 84.8279 128.88C84.2451 131.711 84.4117 134.624 85.3274 137.371C85.3274 137.371 84.9111 137.538 86.9923 137.121C85.2441 144.78 86.7426 152.855 91.1546 159.431C91.1546 159.431 100.645 171.836 101.311 175.248C101.477 176.081 86.4096 174.083 84.9944 182.408C83.6624 182.408 82.164 182.408 80.5824 182.491C78.8342 182.574 77.5855 182.657 76.6698 182.741C73.9227 182.907 71.1755 182.907 68.4284 182.741C63.7666 182.657 59.1048 182.907 54.4431 183.573C54.3598 183.573 54.2765 183.656 54.1933 183.656C54.1933 183.74 54.1933 183.822 54.1933 183.822C54.3598 184.072 55.5252 185.321 66.6802 185.321C71.1755 185.321 75.1714 185.404 78.418 185.57C80.8321 185.654 82.83 185.737 84.4117 185.737H85.6604C86.4928 186.903 88.3243 188.151 92.3201 187.985C92.3201 187.985 90.5719 186.653 92.986 185.404C95.4004 184.156 105.473 185.987 113.964 185.404C114.963 185.321 115.962 185.238 116.878 185.071C118.293 185.071 121.54 185.238 121.872 185.154C123.954 184.821 129.947 184.821 135.025 184.905C135.442 185.821 136.191 187.236 137.773 187.236C137.773 187.236 139.354 182.907 143.932 185.904C143.932 185.904 144.931 188.235 151.924 185.238C155.587 185.154 158.917 185.071 159.749 184.905C160.083 184.821 160.249 184.821 160.499 184.821C161.747 185.321 162.83 185.654 164.162 184.905C165.161 184.905 166.493 184.988 168.324 184.988C171.238 184.988 173.818 185.154 176.316 185.321C179.562 185.654 182.808 185.737 186.055 185.488C187.97 185.238 189.968 185.154 191.883 185.071C193.298 185.071 194.796 184.988 196.794 184.905C198.792 184.821 199.624 184.489 199.79 183.989C200.04 183.323 198.875 182.657 198.709 182.574C198.625 182.574 198.542 182.491 198.542 182.491C194.546 182.823 190.551 182.823 186.472 182.491C185.639 182.408 185.139 182.408 184.806 182.324C184.806 182.241 184.806 182.158 184.39 182.158C183.891 182.074 182.726 182.074 180.228 181.992C175.899 181.908 174.318 181.908 172.57 181.992C171.238 182.074 169.739 182.074 166.909 182.074C173.901 174.998 158.917 153.688 164.412 148.859ZM77.419 40.2229C76.5033 40.6392 76.8363 38.8078 77.2525 37.8088C77.419 37.3926 77.8353 37.7256 77.8353 37.7256C78.5012 38.9743 78.751 39.557 77.419 40.2229ZM89.8227 184.571C89.8227 184.571 84.495 181.075 89.4897 179.078C94.4841 177.08 96.7322 178.079 96.7322 179.493C96.7322 179.493 90.4887 181.075 89.8227 184.571ZM149.094 59.7025C151.758 59.7025 153.589 60.2021 154.505 61.1178C154.921 61.4508 155.171 62.0335 155.171 62.5329C154.006 62.0335 150.093 60.4518 147.096 61.534C145.098 62.1999 143.85 63.8649 143.35 66.4455C143.101 66.5288 142.767 66.5288 142.518 66.4455C142.434 66.4455 142.434 66.3622 142.434 66.1125C142.434 65.8628 142.434 65.6131 142.434 65.4465C142.184 63.8649 141.852 60.4518 149.094 59.7025ZM146.68 81.1801C147.262 81.4298 147.762 81.8461 148.261 82.2623C146.93 81.7628 144.931 81.1801 143.766 81.4298C143.6 81.4298 143.433 81.5963 143.35 81.7628C143.267 81.9293 143.35 82.1791 143.433 82.2623C144.849 83.6775 146.347 85.0094 147.929 86.1748C146.846 86.2581 145.68 86.1748 144.599 85.8418C144.349 85.7587 144.016 85.8419 143.932 86.0917C143.85 86.3414 143.932 86.5911 144.1 86.7576C145.514 87.59 146.597 88.7555 147.429 90.1707C146.68 89.921 145.848 89.8377 145.098 90.0041C144.849 90.0874 144.682 90.3371 144.765 90.6701C144.765 90.7534 146.263 95.9981 144.599 98.6617C144.266 97.9126 143.6 97.3299 142.767 97.1635C142.601 97.0799 142.434 97.1636 142.268 97.2463C142.102 97.3299 142.018 97.4963 142.102 97.7463C142.102 97.829 142.851 102.907 141.185 105.405C141.185 102.907 141.102 96.9972 141.352 91.3361C141.435 89.255 140.602 86.3414 139.687 83.3445C138.023 77.6838 136.191 71.3571 138.854 67.1115C138.189 70.6911 138.189 77.8502 146.68 81.1801ZM136.524 12.0857C136.524 12.0857 134.359 13.2512 133.943 14.7496C133.943 14.7496 138.105 12.9182 141.602 14.1669C141.602 14.1669 137.024 16.581 137.19 17.7464C137.19 17.7464 141.602 16.248 143.766 19.4114C141.935 19.4114 140.02 19.6611 138.272 19.9941C138.272 19.9941 143.35 20.5769 144.349 22.991C144.349 22.991 139.853 21.7423 138.272 22.2417C139.687 22.991 140.77 24.3229 141.269 25.9046C141.269 25.9046 137.606 23.9067 135.442 23.657C136.94 24.7392 137.855 26.3209 138.023 28.1523C137.356 27.6527 136.607 27.2366 135.858 26.8203C134.11 24.4894 132.112 22.325 129.947 20.3271L127.949 18.3292L127.117 18.8287C126.701 18.6622 126.368 18.6622 125.951 18.7454C126.035 18.7454 129.198 12.2523 136.524 12.0857ZM93.9017 8.17317C94.5677 9.25537 95.7331 10.0046 97.0649 10.0046C97.0649 10.0046 94.9004 6.67474 98.1476 5.84228C98.8967 7.17422 100.145 8.25642 101.56 8.83914C101.56 8.83914 97.2312 10.837 96.4822 12.6684L96.2322 12.835C95.5668 12.6684 93.652 11.6695 93.9017 8.17317ZM81.4981 40.2229C81.3316 40.3062 81.2484 40.3062 81.0818 40.3062C80.9154 40.3062 80.7488 40.2229 80.5824 40.1397C80.4158 39.9732 79.9997 39.6402 80.9154 37.7256C80.9986 37.559 81.1651 37.3926 81.4148 37.3926C81.5813 37.3926 81.8311 37.4759 81.9143 37.6423C82.2473 38.3083 82.9133 39.557 81.4981 40.2229ZM101.394 56.5392C103.142 56.0398 104.807 55.3738 106.305 54.5413C103.392 55.3738 96.8985 54.5413 92.986 53.9586C91.2379 53.6256 90.0724 53.4591 89.9891 53.4591C87.3253 53.2926 84.9111 51.7942 83.5793 49.4633C86.2431 49.6298 88.907 49.4633 91.5709 49.1303C93.319 48.9638 95.0668 48.3811 96.6485 47.6319C96.7322 47.5486 96.8985 47.5486 96.9822 47.4653V47.6319L98.7303 46.2999C98.5639 45.8837 98.3967 45.5507 98.3967 45.5507C97.6476 44.2188 96.3995 43.3031 94.9841 42.8869C94.9004 42.8869 94.7341 42.8036 94.6514 42.8036C94.3177 42.8036 93.985 43.0533 93.8185 43.3863C93.7353 43.7193 93.8185 44.0523 94.1514 44.2188C94.3177 44.302 94.4841 44.3853 94.6514 44.4685C95.2341 44.635 95.7331 44.968 96.1495 45.4675C95.4004 45.8005 94.6514 46.1335 93.8185 46.3832C90.1557 47.5486 86.3264 47.7151 82.6635 46.7994L82.497 46.6329C82.0808 45.0512 81.9975 43.3863 82.0808 41.7213C83.7457 41.4716 85.1609 41.1386 85.1609 41.1386C83.9954 33.147 89.1567 30.2334 89.1567 30.2334C88.4907 27.6527 86.4928 25.5716 83.9122 24.9057C84.0787 24.3229 84.4117 23.7402 84.7447 23.1575C86.9091 23.7402 90.9049 25.2386 91.7374 29.068C91.7374 29.068 92.9028 29.8172 92.4866 27.403C92.2368 25.5716 89.3232 22.4083 86.9091 20.9099C88.7404 19.6611 90.8217 18.9119 93.0693 18.579L93.5687 18.4957L93.9017 18.1627C95.5668 16.4146 97.3985 14.9994 99.4794 13.7507C98.3139 17.6633 99.063 22.4916 99.063 22.4916C100.228 17.6633 104.391 14.2501 107.555 12.2523C111.3 10.7538 119.291 11.503 119.291 11.503C110.717 11.7527 108.969 15.7486 108.969 15.7486C116.045 14.1669 119.291 15.2491 120.873 16.581C114.297 17.3303 109.802 20.7433 107.055 22.991L107.305 23.4072C108.22 23.324 109.219 23.324 110.301 23.324C114.131 23.324 116.878 24.3229 118.542 26.3209C119.791 27.9857 120.29 30.1502 119.874 32.2313C119.958 32.5643 120.208 33.147 120.707 33.147C120.79 33.0638 121.04 32.3146 121.207 31.9816C121.623 30.9826 122.206 29.5674 123.704 29.5674C123.87 29.5674 124.037 29.5674 124.203 29.5674C125.452 29.3177 126.701 29.5674 127.699 30.3166C128.532 31.1492 128.948 32.3146 128.865 33.48C128.865 39.1408 126.201 40.0565 124.619 40.0565C123.288 39.89 122.039 39.3072 121.123 38.3916C120.707 38.0586 120.208 37.7256 119.708 37.4759C119.791 37.9753 119.708 38.3916 119.625 38.891L124.037 44.635C122.289 45.6339 120.374 46.2999 118.376 46.6329C122.206 48.4643 126.368 49.4633 130.614 49.6298C132.112 49.38 133.694 49.4633 135.109 49.8795C135.109 49.8795 141.519 52.1272 141.685 57.0387C139.687 55.3738 137.106 54.5413 134.443 54.7078C134.443 54.7078 136.524 57.5382 134.11 58.2874C130.031 58.1209 124.369 57.4549 123.288 54.9575C122.789 57.2885 123.371 59.7858 124.869 61.6172C120.29 61.201 114.297 59.9523 111.716 56.6225C111.716 57.8712 112.133 59.1198 112.882 60.2021C111.716 61.201 110.134 61.7005 108.636 61.6172L104.64 58.7036C103.642 57.9544 102.477 57.2885 101.394 56.7057M119.209 65.7795C118.126 66.2791 121.623 66.6952 125.868 68.7764L105.973 67.7775L105.889 67.4445C105.889 67.4445 115.212 65.6963 116.878 64.6141C116.878 64.6141 116.378 66.612 115.546 67.0282L119.209 65.7795ZM94.9004 137.621C92.7363 139.203 94.4014 147.028 94.4014 147.028C89.9891 143.865 93.1526 133.542 93.1526 133.542C91.7374 133.709 90.9881 135.873 90.9881 135.873C89.8227 134.291 90.4054 131.711 91.1546 129.796C93.0693 130.045 95.0668 130.295 97.0649 130.461C97.1485 134.041 97.4812 137.621 98.2303 141.2C95.8995 141.7 94.9004 137.621 94.9004 137.621ZM98.9794 158.183C98.9794 158.183 101.977 167.007 104.141 169.754C104.057 169.754 95.0668 165.258 98.9794 158.183ZM60.5201 120.722C30.3016 113.563 11.4047 97.9963 6.32675 92.2518H6.40999C5.66077 90.9199 6.57649 90.3371 7.40895 89.4214C13.4027 84.9261 29.1362 77.0178 58.4389 73.5214C63.4337 73.1052 75.0881 72.1895 84.9944 71.7732C101.144 71.5235 117.294 72.2728 133.36 73.9377C133.86 76.7681 134.609 79.4319 135.692 82.0958C139.853 93.1676 133.694 112.648 131.696 114.811C129.697 116.976 124.203 116.56 121.79 121.971C120.957 123.885 120.624 126.05 120.79 128.131C100.478 127.714 80.2494 125.217 60.5201 120.639M127.284 129.546C127.617 130.046 128.865 131.711 129.697 132.71C129.864 132.876 129.864 132.96 129.864 133.042C129.864 133.126 129.781 133.126 129.531 133.126C128.948 133.126 128.366 132.876 127.949 132.377C127.783 132.127 127.617 131.961 127.367 131.711C126.368 130.629 124.203 128.297 124.619 125.883C124.869 124.468 125.868 123.219 127.617 122.054C126.784 123.553 125.452 126.633 127.284 129.546ZM112.633 182.823C115.795 181.242 115.13 173.833 115.13 173.833C121.123 180.659 112.633 182.823 112.633 182.823ZM143.516 180.992L136.524 182.491C138.105 178.412 144.1 178.994 144.1 178.994C146.18 180.326 145.348 180.742 143.35 181.159M124.12 144.281L127.367 146.612C127.367 146.612 136.107 150.358 139.271 157.184C142.434 164.01 140.686 166.674 146.93 174.249C149.427 176.081 136.274 174.083 135.025 182.741H133.776H121.29C121.956 181.575 121.79 180.243 121.79 178.911C121.79 176.164 119.291 176.164 121.456 174C103.392 143.781 124.12 144.281 124.12 144.281ZM141.685 138.62C142.684 140.118 147.262 141.2 147.262 141.2C144.349 144.946 133.111 139.286 133.111 139.286C130.364 140.118 133.694 143.282 133.694 143.282C131.196 142.699 128.782 141.783 126.618 140.368V140.451L125.119 139.286V139.203C123.204 137.704 121.706 135.623 120.957 133.292L122.372 133.209C124.453 136.539 128.865 139.119 136.94 138.537C135.442 137.704 135.192 135.29 135.192 135.29C135.192 135.29 141.185 138.953 148.844 135.29C148.844 135.29 145.181 134.541 143.6 133.209C143.35 133.042 143.267 132.792 143.267 132.543L152.174 133.709C149.427 138.453 141.602 138.62 141.685 138.62ZM152.923 150.274C152.424 147.944 155.92 149.858 155.92 149.858C157.169 148.859 157.585 147.195 157.002 145.779C158.917 146.195 160.332 155.602 159.833 156.185C159.334 156.768 156.503 153.854 156.503 153.854C155.587 155.186 159.999 163.094 159.999 163.094C154.338 160.68 153.423 152.689 152.923 150.274ZM241.081 117.726C207.117 122.554 175.816 126.799 145.598 127.882C145.598 127.632 145.68 127.465 145.68 127.215C145.68 123.802 146.263 117.975 152.258 117.892C152.258 117.892 154.505 118.225 155.005 120.056C155.005 120.056 165.077 108.401 166.659 100.16C166.659 100.16 168.907 101.326 169.24 103.49C169.24 103.49 172.07 98.079 170.655 92.9178C170.655 92.9178 173.235 94.7491 173.651 97.5799C173.651 97.5799 176.149 91.0864 175.649 85.0927C175.399 83.178 174.817 81.3465 174.068 79.5984C194.546 83.2613 217.605 88.4225 243.412 95.4981C243.578 95.6645 244.911 96.0808 244.911 96.2472C244.993 96.8308 244.827 97.4135 244.328 97.829C243.578 98.4117 242.913 98.9117 242.246 99.328C239.416 101.409 235.92 102.741 235.753 105.821C235.254 109.068 236.918 111.565 239.583 114.062C240.082 114.478 241.914 115.061 242.413 115.561C242.746 115.977 242.913 116.477 242.995 116.976C243.329 117.726 241.331 117.558 241.081 117.726Z" fill="black"/>
</g>
<defs>
<clipPath id="clip0_1_46">
<rect width="250" height="187.97" fill="white" transform="translate(0 0.0150452)"/>
</clipPath>
</defs>
</svg>
