<?xml version="1.0" encoding="UTF-8"?>
<svg id="Capa_1" data-name="Capa 1" xmlns="http://www.w3.org/2000/svg" viewBox="0 0 250 250">
  <defs>
    <style>
      .cls-1 {
        fill: #ffdf00;
      }
    </style>
  </defs>
  <path class="cls-1" d="M0,0H250V250H0V0Z"/>
  <path d="M167.94,195.31c5.04,8.22,11.59,14.27,23.17,14.27,9.73,0,15.95-4.87,15.95-11.59,0-8.06-6.39-10.91-17.1-15.6l-5.87-2.52c-16.95-7.22-28.21-16.27-28.21-35.4,0-17.62,13.42-31.03,34.4-31.03,14.94,0,25.67,5.2,33.41,18.81l-18.29,11.75c-4.03-7.22-8.37-10.07-15.12-10.07s-11.24,4.37-11.24,10.07c0,7.05,4.37,9.9,14.44,14.27l5.87,2.52c19.96,8.56,31.23,17.29,31.23,36.9,0,21.15-16.62,32.74-38.93,32.74s-35.91-10.4-42.81-24.02l19.09-11.09Zm-82.99,2.04c3.69,6.55,7.05,12.08,15.12,12.08s12.59-3.02,12.59-14.76V114.79h23.49v80.2c0,24.33-14.26,35.4-35.08,35.4-18.81,0-29.7-9.73-35.24-21.46l19.12-11.58Z"/>
</svg>