<?xml version="1.0" encoding="UTF-8"?>
<svg id="Layer_1" data-name="Layer 1" xmlns="http://www.w3.org/2000/svg" viewBox="0 0 112.29 250">
  <defs>
    <style>
      .cls-1 {
        fill: #c2bfbf;
      }

      .cls-2 {
        fill: #6cac48;
      }

      .cls-3 {
        fill: #599636;
      }
    </style>
  </defs>
  <path class="cls-3" d="M55.36,.68l6.67,12.53c1.5,2.31,3.12,4.36,5.04,6.27,5.59,5.59,10.89,11.44,15.66,17.7,11.3,14.84,18.93,31.33,24.37,49.15,3.27,10.89,5.04,22.06,5.17,33.36,.55,33.77-11.03,62.77-34.37,86.87-3.81,3.81-7.89,7.34-12.26,10.48-2.31,0-3.41-1.77-4.36-3.41-1.77-2.99-2.86-6.41-3.41-9.8-.82-4.09-1.36-8.17-1.09-12.39v-1.91c-.19-.41-2.23-187.89-1.41-188.85Z"/>
  <path class="cls-2" d="M55.36,.27c-.27-.55-.55-.13-.82,.13,.13,2.73-.82,5.17-2.31,7.5-1.64,2.31-3.81,4.09-5.99,5.99-12.11,10.48-21.64,23.15-29.27,37.31C6.81,70.26,1.58,90.69,.09,112.2c-.68,7.76,2.45,35.13,4.9,43.03,6.67,20.97,18.65,38.54,34.18,53.79,3.81,3.67,7.89,7.08,12.11,10.35,1.23,0,1.36-1.09,1.64-1.91,.54-1.74,.95-3.51,1.23-5.31l2.73-20.42L55.36,.27Z"/>
  <path class="cls-1" d="M62.03,225.34c.27-3.12,1.77-5.72,3.41-8.3-1.64-.68-2.86-2.03-3.81-3.54-.82-1.36-1.5-2.99-2.03-4.49-1.91-5.72-2.31-11.72-2.86-17.56v-3.54c-.68,.55-.82,5.17-.82,5.86-.4,6.18-1.22,12.32-2.45,18.38-.41,2.45-.68,4.9-2.19,7.08,0,.27,0,.55,.13,.95,2.45,7.22,3.12,14.57,3.54,22.06v2.73c0,3.27-.13,2.58,2.58,3.67,1.09,.41,2.31,.55,3.41,1.36,.82,0,.95-.68,.95-1.23l-.41-4.49v-12.53c-.13-2.19,.27-4.36,.55-6.41h0Z"/>
</svg>