<?xml version="1.0" encoding="UTF-8"?>
<svg id="Layer_1" data-name="Layer 1" xmlns="http://www.w3.org/2000/svg" viewBox="0 0 250 250">
  <defs>
    <style>
      .cls-1 {
        fill: #fffffd;
      }

      .cls-2 {
        fill: #092e20;
      }
    </style>
  </defs>
  <rect class="cls-2" width="250" height="250" rx="27.34" ry="27.34"/>
  <path class="cls-1" d="M182.01,91.99v64.67c0,22.28-1.63,32.97-6.52,42.21-4.53,8.88-10.51,14.49-22.83,20.65l-25.91-12.32c12.32-5.8,18.3-10.87,22.1-18.66,3.99-7.97,5.26-17.21,5.26-41.49v-55.07h27.9Zm-44.38-43.08V178.04c-14.31,2.72-24.82,3.8-36.23,3.8-34.06,0-51.81-15.4-51.81-44.93s18.84-46.92,48.01-46.92c4.53,0,7.97,.36,12.14,1.45V48.91h27.9Zm-37.32,63.56c-14.13,0-22.28,8.7-22.28,23.91s7.79,23.01,22.1,23.01c3.08,0,5.62-.18,9.6-.72v-44.75c-3.26-1.09-5.98-1.45-9.42-1.45Zm81.7-63.41v28.62h-27.9v-28.62h27.9Z"/>
</svg>