<?xml version="1.0" encoding="UTF-8"?>
<svg id="Capa_1" data-name="Capa 1" xmlns="http://www.w3.org/2000/svg" viewBox="0 0 250 250">
  <defs>
    <style>
      .cls-1 {
        fill: #f2f2f2;
      }

      .cls-2 {
        fill: #cd6699;
      }
    </style>
  </defs>
  <path class="cls-1" d="M250,125c0,3.86-.17,7.68-.52,11.45-.27,2.98-.64,5.93-1.12,8.85-9.69,59.38-61.23,104.7-123.36,104.7-31.64,0-60.54-11.75-82.56-31.14-8.14-7.16-15.34-15.36-21.39-24.4C7.75,174.59,0,150.7,0,125,0,55.96,55.96,0,125,0s125,55.96,125,125Z"/>
  <path class="cls-2" d="M218.15,139.15c-3.79,1.43-3.64,1.46-5.64-2.19-2.56-4.65-3.92-9.55-4.04-14.87-.1-4.57,1.15-8.81,2.72-12.97,1.25-3.31-.38-4.48-3.25-4.78-2.09-.21-4.24-.19-6.33,.02-5.44,.56-5.97,1.03-7.42,6.31-.86,3.13-1.54,6.29-2.96,9.27-3.51,7.32-7.5,14.37-11.59,21.37-.73,1.26-1.34,2.62-2.38,3.69-2.96-4.44-4.08-9.34-4.33-14.48-.25-5.08,1.31-9.8,3.02-14.46,.58-1.57,.1-2.55-1.26-3.22-.6-.3-1.28-.58-1.93-.63-3.49-.28-6.97-.23-10.37,.72-1.53,.42-2.53,1.28-2.87,3-.66,3.36-1.7,6.63-3.1,9.77-3.88,8.7-7.73,17.42-11.6,26.13-3.37,7.57-6.68,15.15-10.67,22.42-.28,.52-.52,1.41-1.22,1.23-.71-.18-.46-1.06-.5-1.66-.23-4.29,.94-8.37,1.93-12.46,1.58-6.47,3.3-12.92,4.97-19.37,.48-1.85-.33-3.1-1.86-3.98-2.21-1.27-4.41-1.33-6.8,.45,.33-2.63,.47-4.94,.36-7.25-.25-5.15-2.64-8.5-6.8-9.28-3.04-.57-5.91,.32-8.62,1.6-6.33,3-11.41,7.51-15.69,12.99-.5,.64-1,1.22-1.73,1.62-8.03,4.37-16.05,8.75-24.05,13.16-.88,.49-1.44,.35-2.08-.33-4.03-4.32-8.71-7.89-13.34-11.5-6.47-5.06-13.17-9.86-18.76-15.96-3.27-3.57-5.99-7.48-7.35-12.21-2.22-7.72-.56-14.92,3.14-21.75,4.38-8.09,10.88-14.33,18.05-19.89,11.38-8.83,23.87-15.84,37.03-21.61,14.73-6.45,30.02-10.61,46.3-9.98,6.45,.25,12.71,1.37,18.45,4.53,4.07,2.23,6.76,5.46,7.52,10.2,.89,5.55-.44,10.68-2.9,15.54-5.5,10.86-14.25,18.56-24.6,24.58-8.61,5.02-17.9,8.2-27.73,9.87-5.43,.92-10.89,1.48-16.35,.65-6.27-.95-12.07-3.05-16.36-8.1-.5-.58-1.12-.98-1.96-.58-.86,.42-.8,1.18-.71,1.92,.06,.5,.2,1.02,.38,1.5,1.15,3.1,3.3,5.43,5.81,7.47,6.54,5.32,14.29,6.88,22.43,7.04,7.96,.16,15.81-.85,23.57-2.71,17.5-4.18,32.17-12.77,42.87-27.48,6.4-8.8,10.45-18.49,10.09-29.58-.23-7.04-2.6-13.25-7.72-18.3-6.1-6-13.66-9.01-21.78-10.82-9.04-2.01-18.17-2.3-27.4-1.19-8.03,.96-15.87,2.6-23.5,5.23-11.68,4.03-22.96,8.97-33.75,14.98-11.06,6.15-21.48,13.2-30.63,22.03-8.09,7.81-15.05,16.43-18.96,27.13-1.67,4.58-2.88,9.29-1.75,14.25,1.44,6.38,4.58,11.9,8.71,16.88,6.25,7.54,13.92,13.48,21.83,19.15,6.35,4.56,13,8.71,19.1,13.62,1.73,1.39,1.72,1.39-.32,2.45-2.38,1.24-4.78,2.43-7.12,3.75-9.42,5.33-18.53,11.1-25.96,19.13-3.66,3.95-6.14,8.39-7.3,13.32,6.05,9.04,13.25,17.25,21.39,24.4,13.88-1.08,24.51-8.31,32.36-20.25,3.79-5.77,5.57-12.3,6.23-19.19,.59-6.07-.03-11.95-1.82-17.75-.31-1.02-1.47-2.04-1.02-2.93,.42-.83,1.7-1.25,2.64-1.79,3.79-2.2,7.58-4.37,11.48-6.61,.17,.84-.16,1.33-.3,1.86-2.23,8.2-3.79,16.46-2.09,24.98,1.06,5.31,2.82,10.3,6.16,14.69,3.44,4.52,11.13,4,14.25-.12,2.96-3.92,4.93-8.34,6.97-12.73,1.12-2.41,2.15-4.86,3.22-7.29-.2,2.93-.19,5.79-.08,8.63,.11,2.81,.56,5.58,2.02,8.06,1.75,2.98,5.06,3.85,8.12,2.25,3.23-1.68,5.44-4.44,7.15-7.44,7.35-12.9,14.17-26.08,19.82-39.84,1.2-2.92,2.44-5.84,3.8-9.09,.21,1.07,.35,1.72,.47,2.37,1.25,6.56,3.49,12.76,6.72,18.59,.69,1.25,.62,2.11-.26,3.31-2.98,4.06-6.25,7.87-9.46,11.73-2.7,3.25-5.6,6.35-7.88,9.92-2.05,3.21-.87,6.5,2.54,7.23,1.05,.22,2.16,.29,3.23,.28,5.96-.07,11.47-1.85,16.6-4.77,6.9-3.93,11-9.7,10.81-17.91-.09-3.73-1.1-7.32-2.6-10.75-.33-.76-.35-1.31,.15-2.03,4.78-6.85,9-14.03,12.89-21.41,.69-1.3,1.17-2.75,2.29-4.02,.15,.52,.27,.84,.33,1.17,1.23,6.12,2.9,12.11,6.02,17.57,.86,1.5,.43,2.25-.75,3.25-4.08,3.46-7.52,7.5-10.21,12.13-2.1,3.6-3.54,7.45-3.53,11.67,.02,4.69,3.61,7.46,8.18,6.36,4.77-1.14,9.19-3.09,13.16-5.99,8.65-6.33,11.18-13.01,8.47-22.33-1.06-3.67-1.04-3.61,2.64-4.72,8.05-2.43,16.21-2.53,24.41-1.19,.93,.15,1.85,.33,2.75,.53,.48-2.91,.86-5.86,1.12-8.85-10.5-2.57-20.98-1.23-31.33,2.7ZM48.14,204.79c-2.33,.83-4.75,1.18-7.23,.98-3.09-.25-5.05-2.42-5.25-5.7-.22-3.78,.89-7.18,2.55-10.5,3-6.02,8.05-10.11,13.2-14.12,5-3.9,10.38-7.23,15.82-10.47,1.65-.98,1.67-.97,2.05,1,.49,2.52,.93,5.05,.77,7.34,.43,13.74-9.55,27.1-21.9,31.47Zm74.89-69.28c-.87,5.79-2.76,11.31-4.78,16.75-2.75,7.44-5.42,14.91-8.87,22.07-.79,1.65-1.62,3.29-2.9,4.63-1.21,1.27-2.28,1.12-3.12-.43-1.63-3.03-1.43-6.4-1.69-8.85,.08-12.29,4.2-22.33,10.99-31.35,1.9-2.52,4.32-4.56,7.53-5.38,2.18-.56,3.18,.32,2.84,2.57Zm47.55,36.37c-2.33,4.02-5.68,6.94-9.79,9.03-.44,.22-1,.61-1.4,.09-.38-.48,.23-.81,.5-1.11,4.09-4.46,8.12-8.96,11.76-13.81,.06-.08,.19-.09,.5-.22-.04,2.24-.53,4.21-1.58,6.02Zm28.22-.17c-.61,.29-1.31,.82-1.9,.36-.65-.5-.39-1.4-.19-2.08,.93-3.12,2.18-6.1,3.9-8.88,1.45-2.34,3.25-4.39,5.22-6.3,.8-.77,1.15-.67,1.42,.43,.28,1.13,.31,2.25,.33,3.4-.05,6.28-3.24,10.46-8.78,13.07Z"/>
</svg>