<?xml version="1.0" encoding="UTF-8"?>
<svg id="Layer_1" data-name="Layer 1" xmlns="http://www.w3.org/2000/svg" viewBox="0 0 227.02 250">
  <defs>
    <style>
      .cls-1 {
        fill: #8cc84b;
      }
    </style>
  </defs>
  <path class="cls-1" d="M103.22,2.67c6.27-3.55,14.28-3.57,20.39,0l93.68,52.81c5.86,3.29,9.78,9.83,9.73,16.58v105.89c.04,7.04-4.27,13.71-10.45,16.94l-93.18,52.57c-6.49,3.59-14.42,3.37-20.7-.57l-27.96-16.16c-1.91-1.14-4.05-2.04-5.4-3.88,1.19-1.6,3.31-1.8,5.04-2.51,3.89-1.24,7.45-3.14,11.03-5.15,.9-.63,2.01-.39,2.87,.17l23.84,13.79c1.7,.98,3.43-.31,4.89-1.14l91.49-51.63c1.13-.55,1.76-1.74,1.66-2.98V72.53c.13-1.41-.68-2.7-1.96-3.27L115.25,16.92c-1.1-.76-2.55-.76-3.65,0L18.79,69.36c-1.25,.57-2.12,1.84-1.96,3.26v104.87c-.11,1.24,.55,2.41,1.69,2.94l24.8,14c4.66,2.51,10.38,3.92,15.51,2.08,4.6-1.73,7.63-6.14,7.62-11.05l.02-104.24c-.11-1.55,1.35-2.82,2.85-2.67h11.92c1.57-.04,2.8,1.62,2.59,3.18l-.02,104.9c0,9.32-3.82,19.45-12.44,24.02-10.62,5.49-23.75,4.34-34.24-.94l-26.67-14.75C4.17,191.82-.04,185.05,0,178.02V72.13c.05-7.01,3.9-13.44,10.06-16.79L103.22,2.67Zm27.01,73.4c13.55-.78,28.05-.52,40.24,6.16,9.44,5.11,14.67,15.84,14.84,26.34-.27,1.41-1.74,2.2-3.09,2.09-3.92,0-7.86,.05-11.8-.02-1.67,.06-2.64-1.47-2.85-2.95-1.13-5.02-3.87-9.98-8.59-12.41-7.25-3.63-15.66-3.45-23.56-3.37-5.77,.31-11.98,.81-16.86,4.2-3.76,2.57-4.89,7.84-3.55,11.94,1.25,3,4.73,3.97,7.56,4.86,16.33,4.27,33.62,3.92,49.65,9.47,6.63,2.29,13.11,6.75,15.39,13.69,2.96,9.3,1.67,20.42-4.94,27.89-5.36,6.15-13.18,9.41-20.98,11.31-10.38,2.31-21.14,2.37-31.67,1.33-9.91-1.13-20.21-3.73-27.86-10.48-6.54-5.68-9.73-14.53-9.41-23.06,.08-1.44,1.51-2.45,2.9-2.33h11.77c1.58-.11,2.75,1.25,2.82,2.75,.73,4.71,2.53,9.8,6.7,12.55,8.05,5.19,18.14,4.83,27.35,4.98,7.63-.34,16.2-.44,22.43-5.49,3.29-2.88,4.26-7.69,3.37-11.83-.96-3.5-4.71-5.12-7.84-6.27-16.12-5.1-33.61-3.25-49.57-9.02-6.48-2.29-12.75-6.62-15.23-13.28-3.47-9.41-1.88-21.08,5.44-28.29,7.06-7.18,17.41-9.95,27.22-10.93l.14,.19Z"/>
</svg>