<?xml version="1.0" encoding="UTF-8"?>
<svg id="Capa_1" data-name="Capa 1" xmlns="http://www.w3.org/2000/svg" xmlns:xlink="http://www.w3.org/1999/xlink" viewBox="0 0 247.27 250">
  <defs>
    <style>
      .cls-1 {
        fill: url(#linear-gradient);
      }

      .cls-2 {
        fill: url(#linear-gradient-2);
      }
    </style>
    <linearGradient id="linear-gradient" x1="815.99" y1="-554.16" x2="1058.5" y2="-345.51" gradientTransform="translate(-465.38 322.03) scale(.56)" gradientUnits="userSpaceOnUse">
      <stop offset="0" stop-color="#5a9fd4"/>
      <stop offset="1" stop-color="#306998"/>
    </linearGradient>
    <linearGradient id="linear-gradient-2" x1="1152.06" y1="-219.22" x2="1065.47" y2="-341.74" gradientTransform="translate(-465.38 322.03) scale(.56)" gradientUnits="userSpaceOnUse">
      <stop offset="0" stop-color="#ffd43b"/>
      <stop offset="1" stop-color="#ffe873"/>
    </linearGradient>
  </defs>
  <g id="g2303">
    <path id="path1948" class="cls-1" d="M122.16,0c-10.2,.05-19.93,.92-28.5,2.43-25.24,4.46-29.82,13.79-29.82,31v22.73h59.64v7.58H41.46c-17.33,0-32.51,10.42-37.26,30.24-5.48,22.72-5.72,36.89,0,60.62,4.24,17.66,14.36,30.24,31.7,30.24h20.51v-27.25c0-19.69,17.03-37.05,37.26-37.05h59.57c16.58,0,29.82-13.65,29.82-30.31V33.44c0-16.16-13.64-28.31-29.82-31C142.99,.73,132.36-.05,122.16,0h0Zm-32.25,18.28c6.16,0,11.19,5.11,11.19,11.4s-5.03,11.33-11.19,11.33-11.19-5.07-11.19-11.33,5.01-11.4,11.19-11.4Z"/>
    <path id="path1950" class="cls-2" d="M190.49,63.75v26.48c0,20.53-17.41,37.81-37.26,37.81h-59.57c-16.32,0-29.82,13.97-29.82,30.31v56.79c0,16.16,14.06,25.67,29.82,30.31,18.88,5.55,36.98,6.55,59.57,0,15.02-4.35,29.82-13.1,29.82-30.31v-22.73h-59.57v-7.58h89.39c17.33,0,23.79-12.09,29.82-30.24,6.23-18.68,5.96-36.65,0-60.62-4.28-17.26-12.47-30.24-29.82-30.24h-22.38Zm-33.5,143.82c6.18,0,11.19,5.07,11.19,11.33s-5.01,11.4-11.19,11.4-11.19-5.11-11.19-11.4c0-6.26,5.03-11.33,11.19-11.33Z"/>
  </g>
</svg>