<?xml version="1.0" encoding="UTF-8"?>
<svg id="Layer_1" data-name="Layer 1" xmlns="http://www.w3.org/2000/svg" xmlns:xlink="http://www.w3.org/1999/xlink" viewBox="0 0 416.67 250">
  <defs>
    <style>
      .cls-1 {
        fill: url(#linear-gradient);
      }
    </style>
    <linearGradient id="linear-gradient" x1="195.52" y1="137.42" x2="197.2" y2="136.84" gradientTransform="translate(-50065 21187.12) scale(256 -153.6)" gradientUnits="userSpaceOnUse">
      <stop offset="0" stop-color="#2298bd"/>
      <stop offset="1" stop-color="#0ed7b5"/>
    </linearGradient>
  </defs>
  <path class="cls-1" d="M208.33,0c-55.56,0-90.28,27.78-104.17,83.33,20.83-27.78,45.14-38.19,72.92-31.25,15.85,3.96,27.18,15.46,39.72,28.19,20.43,20.73,44.07,44.73,95.7,44.73,55.56,0,90.28-27.78,104.17-83.33-20.83,27.78-45.14,38.19-72.92,31.25-15.85-3.96-27.18-15.46-39.72-28.19C283.61,24,259.97,0,208.33,0ZM104.17,125c-55.56,0-90.28,27.78-104.17,83.33,20.83-27.78,45.14-38.19,72.92-31.25,15.85,3.96,27.18,15.46,39.72,28.19,20.43,20.73,44.07,44.73,95.7,44.73,55.56,0,90.28-27.78,104.17-83.33-20.83,27.78-45.14,38.19-72.92,31.25-15.85-3.96-27.18-15.46-39.72-28.19-20.43-20.73-44.07-44.73-95.7-44.73Z"/>
</svg>