<?xml version="1.0" encoding="UTF-8"?>
<svg id="Capa_1" data-name="Capa 1" xmlns="http://www.w3.org/2000/svg" viewBox="0 0 250 250">
  <defs>
    <style>
      .cls-1 {
        fill: #f5655e;
      }

      .cls-2 {
        fill: #f2f2f2;
      }

      .cls-3 {
        fill: #ef0e13;
      }

      .cls-4 {
        fill: #9b0a0e;
      }

      .cls-5 {
        fill: #950c10;
      }
    </style>
  </defs>
  <path class="cls-2" d="M250,125c0,69.04-55.96,125-125,125-42.14,0-79.41-20.85-102.05-52.8h0c-5.75-8.12-10.57-16.96-14.27-26.36-1.87-4.75-3.46-9.64-4.75-14.65h0c-2.56-9.98-3.92-20.42-3.92-31.19C0,55.96,55.96,0,125,0c38.66,0,73.22,17.55,96.15,45.12,8.28,9.95,15.04,21.2,19.93,33.41,5.75,14.37,8.92,30.05,8.92,46.47Z"/>
  <path class="cls-4" d="M241.08,78.53c-.01,.1-.02,.2-.03,.3-.69,6.18-2.64,12.83-5.75,19.72h0s-53.82,136.94-53.82,136.94L37.33,201.69c-1.77-.35-3.49-.75-5.15-1.21-3.31-.9-6.39-2-9.23-3.29h0c-8.66-12.23-15.19-26.08-19.02-41.01,.43-1.79,1.12-4.56,2.03-7.95,3.5-13.11,10.3-35.57,18.47-47.38l.8,27.33,53.86,3.59,73-34.71,31.52-46.28-13.96-22.34c23.29,5.65,38.04,10.75,47.33,14.78,1.54,.66,2.93,1.3,4.18,1.9,9.33,4.5,11.12,7.25,11.12,7.25,3.08,2.59,5.38,5.63,6.79,9.11,2.04,5.05,2.68,10.81,2.02,17.05Z"/>
  <ellipse class="cls-3" cx="101.33" cy="77.88" rx="81.68" ry="36.21" transform="translate(-24.28 54.31) rotate(-26.92)"/>
  <g>
    <path class="cls-1" d="M147.06,180.23l34.41,55.27-90.65-35.58c17.9-3.69,37.11-10.23,56.24-19.69Z"/>
    <path class="cls-1" d="M24.42,100.85l.8,27.33-19.27,20.05c3.5-13.11,10.3-35.57,18.47-47.38Z"/>
  </g>
  <g>
    <path class="cls-5" d="M25.22,128.18l-16.55,42.66c-1.87-4.75-3.46-9.64-4.75-14.65h0c.43-1.8,1.12-4.56,2.03-7.95l19.27-20.06Z"/>
    <path class="cls-5" d="M183.6,50.79l57.45,28.05c-.69,6.18-2.64,12.83-5.75,19.73h0c-2.33,5.17-5.32,10.49-8.92,15.85l-42.77-63.62Z"/>
  </g>
  <g>
    <path class="cls-3" d="M235.29,98.56l-53.82,136.94,13.78-86.85c12.9-11.04,23.41-22.75,31.12-34.24,3.6-5.36,6.59-10.68,8.92-15.85Z"/>
    <polygon class="cls-3" points="183.6 50.79 226.37 114.41 152.08 97.06 183.6 50.79"/>
  </g>
  <path class="cls-1" d="M216.97,43.22l-33.37,7.57-13.96-22.34c23.29,5.65,38.04,10.75,47.33,14.78Z"/>
  <path class="cls-5" d="M152.08,97.06l43.17,51.59c-12.99,11.11-28.39,21.55-45.79,30.38-.8,.41-1.6,.81-2.4,1.2l5.02-83.17Z"/>
  <polygon class="cls-3" points="152.08 97.06 147.06 180.23 79.08 131.77 152.08 97.06"/>
  <path class="cls-5" d="M79.08,131.77l67.98,48.46c-19.12,9.46-38.34,15.99-56.24,19.69l-11.74-68.15Z"/>
  <polygon class="cls-1" points="79.08 131.77 32.18 200.49 25.22 128.18 79.08 131.77"/>
</svg>