<?xml version="1.0" encoding="UTF-8"?>
<svg id="Layer_1" data-name="Layer 1" xmlns="http://www.w3.org/2000/svg" viewBox="0 0 261.91 262">
  <defs>
    <style>
      .cls-1 {
        fill: none;
        stroke: #e91e63;
        stroke-miterlimit: 10;
        stroke-width: 12px;
      }

      .cls-2 {
        fill: #e91e63;
      }
    </style>
  </defs>
  <g id="Layer_2" data-name="Layer 2">
    <path class="cls-1" d="M165.74,96.33c22.82,22.82,40.74,47.29,51.22,68.77,12.63,25.88,14.42,47.77,5.32,56.87-9.48,9.48-32.7,7.61-60.23-6.22-20.81-10.45-44.09-28.32-65.74-49.98-22.21-22.21-40.69-45.77-51.1-66.98-13.16-26.84-14.4-49.7-5.1-59,9.02-9.02,30.3-7.69,55.9,4.67,21.63,10.45,46.7,28.82,69.73,51.86Z"/>
    <path class="cls-1" d="M118.29,83.63c31.16-8.37,61.31-11.67,85.16-10.01,28.73,1.99,48.58,11.38,51.92,23.8,3.48,12.95-9.75,32.13-35.47,49.07-19.45,12.81-46.56,24.04-76.14,31.99-30.33,8.14-59.98,12.39-83.55,10.8-29.83-2-50.24-12.35-53.65-25.06-3.31-12.33,8.47-30.09,31.98-46.09,19.86-13.52,48.3-26.05,79.76-34.5Z"/>
    <path class="cls-1" d="M83.57,118.4c8.31-31.18,20.51-58.95,33.85-78.78C133.5,15.73,151.55,3.21,163.98,6.53c12.96,3.45,22.97,24.49,24.8,55.24,1.38,23.25-2.42,52.34-10.31,81.94-8.09,30.34-19.22,58.15-32.36,77.78-16.63,24.84-35.8,37.36-48.5,33.97-12.33-3.29-21.84-22.37-23.96-50.72-1.8-23.96,1.55-54.85,9.94-86.33Z"/>
  </g>
  <g id="Layer_3" data-name="Layer 3">
    <path class="cls-2" d="M131.25,154.64c-.49,0-.9-.17-1.24-.51l-17.57-16.95c-.19-.15-.45-.39-.77-.73-.33-.34-.85-.95-1.56-1.84-.71-.89-1.35-1.81-1.91-2.74s-1.07-2.07-1.51-3.41c-.44-1.33-.66-2.63-.66-3.89,0-4.13,1.19-7.36,3.58-9.69,2.38-2.33,5.68-3.49,9.88-3.49,1.16,0,2.35,.2,3.56,.61,1.21,.4,2.34,.95,3.38,1.63,1.04,.69,1.94,1.33,2.69,1.93s1.46,1.24,2.14,1.91c.68-.68,1.39-1.31,2.14-1.91,.75-.6,1.65-1.24,2.69-1.93,1.04-.69,2.17-1.23,3.38-1.63,1.21-.4,2.4-.61,3.56-.61,4.21,0,7.5,1.16,9.88,3.49,2.38,2.33,3.58,5.56,3.58,9.69s-2.15,8.37-6.45,12.67l-17.54,16.89c-.34,.34-.75,.51-1.24,.51Z"/>
  </g>
</svg>