<?xml version="1.0" encoding="UTF-8"?>
<svg id="Layer_1" data-name="Layer 1" xmlns="http://www.w3.org/2000/svg" xmlns:xlink="http://www.w3.org/1999/xlink" viewBox="0 0 379.39 250">
  <defs>
    <style>
      .cls-1 {
        fill: url(#linear-gradient);
      }

      .cls-2 {
        fill: #fff;
      }

      .cls-3 {
        fill: #a52b00;
      }

      .cls-4 {
        fill: url(#linear-gradient-3);
      }

      .cls-5 {
        fill: url(#linear-gradient-2);
      }
    </style>
    <linearGradient id="linear-gradient" x1="169.45" y1="137.09" x2="186.47" y2="137.09" gradientTransform="translate(2482.65 2625.93) rotate(-95) scale(15.1 -15.1)" gradientUnits="userSpaceOnUse">
      <stop offset="0" stop-color="#f74c00"/>
      <stop offset=".33" stop-color="#f74c00"/>
      <stop offset="1" stop-color="#f49600"/>
    </linearGradient>
    <linearGradient id="linear-gradient-2" x1="156.35" y1="124.28" x2="173.36" y2="124.28" gradientTransform="translate(925.19 1081.77) rotate(-90) scale(5.34 -5.34)" gradientUnits="userSpaceOnUse">
      <stop offset="0" stop-color="#cc3a00"/>
      <stop offset=".15" stop-color="#cc3a00"/>
      <stop offset=".74" stop-color="#f74c00"/>
      <stop offset="1" stop-color="#f74c00"/>
    </linearGradient>
    <linearGradient id="linear-gradient-3" x1="153.08" y1="150.09" x2="170.1" y2="150.09" gradientTransform="translate(839.89 981.8) rotate(-90) scale(4.78 -4.78)" gradientUnits="userSpaceOnUse">
      <stop offset="0" stop-color="#cc3a00"/>
      <stop offset=".15" stop-color="#cc3a00"/>
      <stop offset=".74" stop-color="#f74c00"/>
      <stop offset="1" stop-color="#f74c00"/>
    </linearGradient>
  </defs>
  <g id="Layer-1">
    <path class="cls-3" d="M188.83,107.8c-41.25,0-78.74,4.96-106.48,13.04v69.04c27.75,8.08,65.23,13.04,106.48,13.04,47.22,0,89.49-6.5,117.88-16.74v-61.65c-28.39-10.24-70.66-16.74-117.88-16.74"/>
    <path class="cls-3" d="M349.23,163.89l-4.84-10.02c.02-.38,.04-.76,.04-1.14,0-11.36-11.81-21.82-31.68-30.2v60.41c9.27-3.91,16.79-8.27,22.17-12.97-1.58,6.37-7,19.24-11.31,28.3-7.09,12.95-9.66,24.23-9.33,24.79,.21,.35,2.63-3.38,6.2-9.43,8.31-11.83,24.04-34.43,27.19-40.18,3.56-6.52,1.56-9.54,1.56-9.54"/>
    <path class="cls-3" d="M36.29,153.39c0,2.19,.44,4.34,1.29,6.45l-2.9,5.16s-2.32,3.01,1.77,9.36c3.6,5.6,21.65,27.52,31.18,38.99,4.09,5.88,6.87,9.51,7.11,9.16,.38-.56-2.54-11.6-10.67-24.21-3.79-6.77-8.32-15.74-11.04-22.36,7.59,4.8,17.52,9.16,29.32,12.91V117.93c-28.43,9.03-46.05,21.58-46.05,35.46"/>
    <path class="cls-1" d="M183.63,2.71l-9.45,15.79c-1.54,.13-3.07,.27-4.61,.4l-12.28-13.63c-1.16-1.45-3.02-2.06-4.79-1.64-1.77,.41-3.19,1.83-3.83,3.43l-6.2,17.56c-1.51,.39-3.03,.78-4.26,1.4l-14.64-11.1c-1.37-.91-3.46-1.24-4.95-.6-1.72,.92-2.89,2.32-3.25,4.15l-3.02,18.58c-1.23,.62-2.45,1.5-3.94,2.15l-16.14-7.61c-1.63-.89-3.67-.71-5.12,.45-1.47,.9-2.34,2.78-2.43,4.6l.61,18.77c-.96,.86-2.15,1.99-3.36,2.87l-17.39-4.15c-1.86-.61-3.61,.06-5.03,1.47-1.19,1.14-1.78,3.25-1.37,5.02l4.17,18.2c-.93,1.11-1.87,2.23-2.78,3.6l-18.12-.74c-1.81-.1-3.54,.83-4.43,2.45-.89,1.63-1.22,3.72-.3,5.44l7.41,16.89c-.91,1.37-1.57,2.72-2.22,4.06l-17.53,3.08c-2.05,.18-3.47,1.59-4.1,3.2-.61,1.86-.43,3.91,.47,5.38l10.6,15.06c-.23,.28-.21,.53-.19,.79L1.43,169.53s-4.34,3.47,2.08,11.94c5.79,7.23,35.68,36.34,51.47,51.72,6.6,7.68,11.15,12.44,11.64,12.14,.7-.84-3.11-14.94-16.15-31.34-10.07-14.85-23.16-37.69-20.29-40.27,0,0,3.48-4.43,10.68-7.64h0q-.28-.23,0,0s148.08,68.29,285.35,1.08c15.73-2.92,25.24,5.53,25.24,5.53,3.27,2.03-5.25,25.48-12.14,41.04-9.55,17.6-10.92,31.39-10.11,31.83,.53,.21,3.95-4.99,8.88-13.42,12.2-16.8,34.92-48.96,39.13-56.81,4.89-8.94,.02-11.61,.02-11.61l-31.7-23.28c-.35-1-.69-2-.8-3.28l10.29-15.09c1.17-1.39,1.24-3.46,.58-5.21s-2.06-2.91-3.9-3.27l-17.81-3.08c-.62-1.23-1.27-2.73-1.89-3.96l7.27-17.14c.89-1.63,.71-3.67-.47-5.38-.9-1.47-2.53-2.36-4.32-2.2l-18.01,.54c-.88-1.21-2.02-2.4-2.9-3.62l4.09-18.15c.36-1.84-.08-3.86-1.22-5.05-1.41-1.42-3.27-2.03-5.04-1.62l-17.41,4.36c-1.11-.93-2.23-1.87-3.36-3.06l.44-18.61c.1-1.81-.83-3.54-2.22-4.71-1.65-1.15-3.46-1.24-5.19-.32l-16.1,7.6c-1.35-.66-2.72-1.57-4.06-2.22l-2.89-18.32c-.18-2.05-1.59-3.47-3.2-4.1-1.63-.89-3.67-.71-5.12,.45l-14.53,10.81c-1.32-.4-2.65-.8-4.23-1.18l-6.17-17.51c-.67-1.75-2.08-3.17-3.92-3.53-1.84-.36-3.58,.31-5.01,1.73l-12.21,13.71c-1.3-.14-2.88-.52-4.44-.64l-9.37-15.69c-.92-1.72-2.55-2.61-4.36-2.71-1.81-.1-3.52,1.08-4.41,2.71ZM40.85,166.08h0Z"/>
    <path d="M138.8,207.67c-.57-.48-.86-.77-.86-.77l48.5-3.97c-39.56-52.19-71.26-10.62-74.63-5.97v10.71h26.99Z"/>
    <path d="M239.79,207.1c.57-.48,.86-.77,.86-.77l-46.61-3.41c39.58-54.34,69.37-11.18,72.74-6.53v10.71h-27Z"/>
    <path class="cls-5" d="M314.29,155.28s-5.27,21.09-38.28,43.28l-9.18,2.18s-29.91-54.55-72.28,6.91c0,0,13.18-7.64,48.55,1.73,0,0-16.28,24.91-49.01,24.09,0,0,31.37,37.73,79.2-16.73,0,0,50.55-19.55,54.65-61.46h-13.64Z"/>
    <path d="M216.06,128.24s14.8-16.2,29.59,0c0,0,11.63,21.6,0,32.41,0,0-19.03,15.12-29.59,0,0,0-12.68-11.88,0-32.41"/>
    <path class="cls-2" d="M233.2,134.25c0,6.31-3.72,11.42-8.31,11.42s-8.3-5.11-8.3-11.42,3.72-11.42,8.3-11.42,8.31,5.12,8.31,11.42"/>
    <path d="M150.02,123.82s25.38-11.24,32.31,13.85c0,0,7.26,29.24-20.84,30.89,0,0-35.83-6.9-11.47-44.73"/>
    <path class="cls-2" d="M162.77,134.67c0,6.51-3.83,11.78-8.57,11.78s-8.56-5.28-8.56-11.78,3.84-11.78,8.56-11.78,8.57,5.28,8.57,11.78"/>
    <path class="cls-4" d="M111.92,220.16c46.36,59.45,68.32,11.71,68.32,11.71-26.03-2.93-44.49-20.25-44.49-20.25,31.23-3.99,49.29-4.31,49.29-4.31-41.8-55.14-75.72-5.21-75.72-5.21-8.46-3.09-17.16-14.88-23.59-25.78l-25.94-7.65c29.85,50.75,52.13,51.48,52.13,51.48Z"/>
  </g>
</svg>