<?xml version="1.0" encoding="UTF-8"?>
<svg id="Layer_1" data-name="Layer 1" xmlns="http://www.w3.org/2000/svg" viewBox="0 0 250 250">
  <path d="M116.81,.07c-.54,.05-2.25,.22-3.79,.34C77.52,3.61,44.26,22.77,23.19,52.21,11.46,68.58,3.96,87.15,1.12,106.82c-1,6.87-1.12,8.89-1.12,18.2s.12,11.34,1.12,18.2c6.79,46.94,40.2,86.38,85.51,100.99,8.11,2.61,16.67,4.4,26.39,5.47,3.79,.42,20.16,.42,23.95,0,16.79-1.86,31.01-6.01,45.04-13.17,2.15-1.1,2.57-1.39,2.27-1.64-.2-.15-9.36-12.44-20.36-27.29l-19.99-27-25.05-37.07c-13.78-20.38-25.12-37.04-25.22-37.04-.1-.02-.2,16.44-.24,36.55-.07,35.21-.1,36.63-.54,37.46-.64,1.2-1.12,1.69-2.15,2.22-.78,.39-1.47,.46-5.16,.46h-4.23l-1.12-.71c-.73-.46-1.27-1.08-1.64-1.78l-.51-1.1,.05-48.99,.07-49.02,.76-.95c.39-.51,1.22-1.17,1.81-1.49,1-.49,1.39-.54,5.62-.54,4.99,0,5.82,.2,7.11,1.61,.37,.39,13.93,20.82,30.16,45.42,16.23,24.61,38.42,58.2,49.32,74.7l19.79,29.98,1-.66c8.87-5.77,18.26-13.98,25.68-22.53,15.81-18.15,26-40.29,29.42-63.9,1-6.87,1.12-8.89,1.12-18.2s-.12-11.34-1.12-18.2c-6.79-46.94-40.2-86.38-85.51-100.99-7.99-2.59-16.5-4.37-26.03-5.45-2.35-.24-18.5-.51-20.53-.32h0Zm51.17,75.6c1.17,.59,2.13,1.71,2.47,2.88,.2,.64,.24,14.22,.2,44.84l-.07,43.93-7.75-11.88-7.77-11.88v-31.94c0-20.65,.1-32.25,.24-32.82,.39-1.37,1.25-2.44,2.42-3.08,1-.51,1.37-.56,5.21-.56,3.62,0,4.25,.05,5.06,.49Z"/>
</svg>