<?xml version="1.0" encoding="UTF-8"?>
<svg id="Layer_1" data-name="Layer 1" xmlns="http://www.w3.org/2000/svg" viewBox="0 0 222.5 250">
  <defs>
    <style>
      .cls-1 {
        fill: #e10098;
      }
    </style>
  </defs>
  <path class="cls-1" d="M20.25,190.53l-9.17-5.3L113.32,8.16l9.17,5.3L20.25,190.53Z"/>
  <path class="cls-1" d="M8.97,171.08H213.46v10.6H8.97v-10.6Z"/>
  <path class="cls-1" d="M115.3,236.1L13.02,177.05l5.3-9.17,102.28,59.05-5.3,9.17ZM204.15,82.18L101.87,23.14l5.3-9.17,102.28,59.05-5.29,9.16Z"/>
  <path class="cls-1" d="M18.35,82.15l-5.3-9.17L115.42,13.91l5.3,9.17L18.35,82.15Z"/>
  <path class="cls-1" d="M202.27,190.53L100.02,13.45l9.17-5.3,102.25,177.09-9.17,5.3ZM17.08,65.95h10.6v118.1h-10.6V65.95Zm177.74,0h10.6v118.1h-10.6V65.95Z"/>
  <path class="cls-1" d="M113.5,231.61l-4.63-8.02,88.96-51.36,4.63,8.02-88.96,51.36Z"/>
  <path class="cls-1" d="M219.46,187.5c-6.17,10.65-19.78,14.3-30.45,8.18-10.65-6.17-14.3-19.78-8.18-30.45,6.17-10.65,19.78-14.3,30.45-8.18,10.73,6.19,14.37,19.79,8.17,30.45M41.6,84.78c-6.17,10.65-19.78,14.3-30.45,8.18C.5,86.79-3.16,73.17,2.97,62.5c6.17-10.65,19.78-14.3,30.45-8.18,10.65,6.17,14.3,19.78,8.18,30.45M3.04,187.5c-6.13-10.67-2.47-24.29,8.18-30.45,10.67-6.13,24.29-2.47,30.45,8.18,6.13,10.67,2.47,24.29-8.18,30.45-10.73,6.13-24.33,2.5-30.45-8.17M180.9,84.79c-6.13-10.67-2.47-24.29,8.18-30.45,10.67-6.13,24.29-2.47,30.45,8.18,6.13,10.67,2.47,24.29-8.18,30.45-10.67,6.13-24.29,2.47-30.45-8.18M111.25,250c-12.31,0-22.28-9.98-22.28-22.28s9.98-22.28,22.28-22.28,22.28,9.98,22.28,22.28h0c-.03,12.3-9.99,22.26-22.28,22.28m0-205.44c-12.29,.02-22.27-9.93-22.28-22.22,0-.02,0-.04,0-.07,0-12.3,9.97-22.28,22.28-22.28s22.28,9.97,22.28,22.28c.01,12.29-9.94,22.26-22.23,22.28-.02,0-.03,0-.05,0"/>
</svg>