<svg xmlns="http://www.w3.org/2000/svg" xml:space="preserve" id="layer" x="0" y="0" style="enable-background:new 0 0 600 81.6" version="1.1" viewBox="0 0 600 81.6"><style>.st0{fill:#1a1a18}</style><path d="M0 1.5h30.9c14.7 0 21.5 7.8 21.5 19.6 0 8.3-3.6 15.8-12.3 17.6v.2c10.3 1 14.5 9.8 14.5 17.9C54.6 70.4 48 80 30.9 80H0V1.5zm20.5 30.8h5c4.2 0 6.5-3.7 6.5-7.9 0-4.4-2.3-8.1-6.5-8.1h-5v16zm0 33h5.7c3.7 0 7.2-3.3 7.2-9.7 0-6.1-3.5-9.4-7.2-9.4h-5.7v19.1zM88.5 0c20.9 0 28.1 11.4 28.1 40.8s-7.1 40.8-28.1 40.8c-20.9 0-28-11.4-28-40.8S67.6 0 88.5 0m0 67.7c6.3 0 7-5.7 7-27 0-21.2-.7-26.9-7-26.9s-6.9 5.7-6.9 26.9c0 21.3.7 27 6.9 27M124.3 1.5h29.2l8.3 46.5h.2l8.3-46.5h29.2V80h-19.1V21.5h-.2L169.3 80h-14.8l-10.8-58.5h-.3V80h-19.1zM208.5 1.5h30.9c14.6 0 21.5 7.8 21.5 19.6 0 8.3-3.6 15.8-12.3 17.6v.2c10.3 1 14.6 9.8 14.6 17.9 0 13.6-6.6 23.2-23.7 23.2h-30.9V1.5h-.1zM229 32.3h5c4.2 0 6.5-3.7 6.5-7.9 0-4.4-2.3-8.1-6.5-8.1h-5v16zm0 33h5.7c3.7 0 7.3-3.3 7.3-9.7 0-6.1-3.5-9.4-7.3-9.4H229v19.1zM283.4 1.5h25.7L328.2 80h-21.8l-2.1-13.8H288L285.9 80h-21.7l19.2-78.5zm12.9 16.1h-.2l-5.6 33.3H302l-5.7-33.3zM333.8 1.5h32c15.6 0 21.6 8.8 21.6 20.9 0 10.4-4.1 17.3-13.4 18.7v.2c9.9.9 12.8 7.1 12.8 17.6v6.7c0 4.1 0 9.3 1 10.9.6.9 1 1.8 2.3 2.4V80h-21.8c-2-4.2-2-11.7-2-14.9v-5.3c0-8.9-1.8-11.2-6.7-11.2h-5.4v31.5h-20.5V1.5h.1zm20.5 33.2h4.1c5.8 0 8.6-3.7 8.6-9.4 0-6.4-2.5-9.1-8.7-9.1h-3.9v18.5h-.1zM396.3 1.5H426c23.7 0 24.9 18.7 24.9 39.3 0 20.6-1.2 39.3-24.9 39.3h-29.7V1.5zm20.5 63.8h4.1c7.9 0 8.9-3.3 8.9-24.5s-1-24.5-8.9-24.5h-4.1v49zM459.1 1.5h20.4V80h-20.4zM488.8 1.5h46.5v16.7h-26.1v13.4h24.4v16.1h-24.4v15.6h27.1V80h-47.5zM543.7 1.5h32c15.6 0 21.5 8.8 21.5 20.9 0 10.4-4 17.3-13.4 18.7v.2c9.9.9 12.9 7.1 12.9 17.6v6.7c0 4.1 0 9.3 1 10.9.5.9 1 1.8 2.3 2.4V80h-21.8c-2-4.2-2-11.7-2-14.9v-5.3c0-8.9-1.8-11.2-6.7-11.2h-5.3v31.5h-20.5V1.5zm20.5 33.2h4.1c5.9 0 8.6-3.7 8.6-9.4 0-6.4-2.5-9.1-8.7-9.1h-4v18.5z" class="st0"/></svg>