<svg xmlns="http://www.w3.org/2000/svg" width="81.03" height="76.504" viewBox="0 0 81.03 76.504">
  <path id="Path_1" data-name="Path 1" d="M0,0V76.5H12.175V73.043H3.461V3.461H77.569V73.043h-8.8V76.5H81.03V0Z"/>
  <path id="Path_2" data-name="Path 2" d="M94.868,129.818a12.506,12.506,0,0,1-7.084-2.038,16.166,16.166,0,0,1-4.957-5.139V142.16H78.69V97.53H82.4v6.152a15.379,15.379,0,0,1,5.05-4.827A12.9,12.9,0,0,1,94.2,97a13.271,13.271,0,0,1,6.023,1.37,15.451,15.451,0,0,1,4.742,3.646,16.987,16.987,0,0,1,3.13,5.261,17.244,17.244,0,0,1,1.114,6.141,19.219,19.219,0,0,1-1.032,6.312,16.111,16.111,0,0,1-2.948,5.228,14.155,14.155,0,0,1-4.563,3.557A12.9,12.9,0,0,1,94.868,129.818Zm-1.158-3.65a9.873,9.873,0,0,0,4.652-1.1,11.511,11.511,0,0,0,3.587-2.889,12.947,12.947,0,0,0,2.284-4.084,14.358,14.358,0,0,0,.787-4.712,13.177,13.177,0,0,0-.91-4.864,13.467,13.467,0,0,0-2.5-4.084,11.882,11.882,0,0,0-3.739-2.8,10.653,10.653,0,0,0-4.652-1.032,9.536,9.536,0,0,0-3.312.639,13.513,13.513,0,0,0-3.223,1.7,11.4,11.4,0,0,0-2.555,2.5,6.684,6.684,0,0,0-1.307,3.008v9.728a14.506,14.506,0,0,0,1.857,3.164,13.151,13.151,0,0,0,2.555,2.525,12.29,12.29,0,0,0,3.071,1.671A9.754,9.754,0,0,0,93.709,126.168Z" transform="translate(-62.416 -75.114)"/>
  <path id="Path_3" data-name="Path 3" d="M175.861,105.063c-.26.13-.642.3-1.144.524s-1.077.434-1.73.653a21.034,21.034,0,0,1-2.228.587,12.662,12.662,0,0,1-2.6.26,9.512,9.512,0,0,1-2.74-.39,6.409,6.409,0,0,1-2.287-1.21,5.941,5.941,0,0,1-1.567-2.053,6.684,6.684,0,0,1-.587-2.874V76.206h-4.69V72.682h4.719V61.19h4.456V72.7h7.8v3.524h-7.835V99.338a3.507,3.507,0,0,0,1.337,2.774,4.6,4.6,0,0,0,2.777.884,8.294,8.294,0,0,0,3.342-.624,14.734,14.734,0,0,0,1.831-.88Z" transform="translate(-111.202 -52.602)"/>
  <path id="Path_4" data-name="Path 4" d="M77,232.948V226.51h2.666a1.72,1.72,0,0,1,.769.175,2.056,2.056,0,0,1,.6.464,2.164,2.164,0,0,1,.42.657,1.964,1.964,0,0,1,.145.743,2.146,2.146,0,0,1-.145.743,2.061,2.061,0,0,1-.371.65,1.957,1.957,0,0,1-.605.464,1.645,1.645,0,0,1-.743.171h-2.1v2.376Zm.635-2.937H79.7a1.087,1.087,0,0,0,.512-.122,1.237,1.237,0,0,0,.394-.327,1.552,1.552,0,0,0,.252-.472,1.656,1.656,0,0,0,.093-.557,1.608,1.608,0,0,0-.1-.568,1.56,1.56,0,0,0-.282-.468,1.261,1.261,0,0,0-.416-.312,1.154,1.154,0,0,0-.5-.115H77.635Z" transform="translate(-61.353 -156.538)"/>
  <path id="Path_5" data-name="Path 5" d="M93.125,235.77a2.261,2.261,0,0,1-.947-.2,2.347,2.347,0,0,1-.743-.535,2.484,2.484,0,0,1-.5-.791,2.536,2.536,0,0,1-.174-.954,2.483,2.483,0,0,1,.174-.939,2.428,2.428,0,0,1,.49-.769,2.309,2.309,0,0,1,3.379,0,2.4,2.4,0,0,1,.483.772,2.48,2.48,0,0,1,.171.925v.145a.544.544,0,0,1,0,.1H91.4a1.994,1.994,0,0,0,.189.72,1.927,1.927,0,0,0,.371.557,1.67,1.67,0,0,0,.542.371,1.589,1.589,0,0,0,.65.134,1.752,1.752,0,0,0,.453-.063,1.887,1.887,0,0,0,.416-.174,1.484,1.484,0,0,0,.345-.267,1.069,1.069,0,0,0,.234-.349l.538.145a1.659,1.659,0,0,1-.308.475,2.188,2.188,0,0,1-.464.371,2.385,2.385,0,0,1-.579.245,2.6,2.6,0,0,1-.665.078Zm1.741-2.7a1.883,1.883,0,0,0-.557-1.236,1.741,1.741,0,0,0-.535-.371,1.659,1.659,0,0,0-.65-.126,1.693,1.693,0,0,0-.653.126,1.667,1.667,0,0,0-.91.932,1.927,1.927,0,0,0-.167.691Z" transform="translate(-70.004 -159.267)"/>
  <path id="Path_6" data-name="Path 6" d="M108.35,231.616a1.916,1.916,0,0,0-1.088.345,1.738,1.738,0,0,0-.654.9V235.8H106v-4.723h.579v1.133a2.175,2.175,0,0,1,.705-.854,1.659,1.659,0,0,1,.954-.308.517.517,0,0,1,.119,0Z" transform="translate(-79.585 -159.386)"/>
  <path id="Path_7" data-name="Path 7" d="M114.053,232.482v-4.237H113.4v-.486h.654v-.13a2.228,2.228,0,0,1,.371-1.363,1.207,1.207,0,0,1,1.017-.5,1.942,1.942,0,0,1,.546.082,1.712,1.712,0,0,1,.453.219l-.193.446a.91.91,0,0,0-.312-.156,1.43,1.43,0,0,0-.371-.052.743.743,0,0,0-.665.334,1.745,1.745,0,0,0-.227.969v.149h1.307v.486h-1.307v4.237Z" transform="translate(-84.238 -156.071)"/>
  <path id="Path_8" data-name="Path 8" d="M123.471,235.808a2.276,2.276,0,0,1-.947-.2,2.332,2.332,0,0,1-.743-.535,2.492,2.492,0,0,1-.5-.783,2.6,2.6,0,0,1-.175-.954,2.559,2.559,0,0,1,.175-.939,2.428,2.428,0,0,1,.49-.769,2.343,2.343,0,0,1,.743-.527,2.41,2.41,0,0,1,1.89,0,2.228,2.228,0,0,1,.743.531,2.4,2.4,0,0,1,.483.772,2.48,2.48,0,0,1,.171.925v.145a.338.338,0,0,1,0,.1h-4.047a1.993,1.993,0,0,0,.178.7,1.857,1.857,0,0,0,.371.557,1.671,1.671,0,0,0,1.188.5,1.753,1.753,0,0,0,.453-.063,1.817,1.817,0,0,0,.416-.175,1.413,1.413,0,0,0,.345-.267,1.144,1.144,0,0,0,.238-.349l.535.145a1.586,1.586,0,0,1-.308.475,2.187,2.187,0,0,1-.464.371,2.385,2.385,0,0,1-.579.245A2.6,2.6,0,0,1,123.471,235.808Zm1.745-2.7a1.912,1.912,0,0,0-.561-1.236,1.7,1.7,0,0,0-.535-.371,1.648,1.648,0,0,0-.65-.126,1.675,1.675,0,0,0-.65.126,1.73,1.73,0,0,0-.542.371,1.774,1.774,0,0,0-.371.546,2.094,2.094,0,0,0-.167.691Z" transform="translate(-89.085 -159.304)"/>
  <path id="Path_9" data-name="Path 9" d="M135.439,233.337a2.6,2.6,0,0,1,.171-.943,2.392,2.392,0,0,1,.486-.776,2.227,2.227,0,0,1,.743-.52,2.377,2.377,0,0,1,.962-.189,2.227,2.227,0,0,1,1.17.3,1.971,1.971,0,0,1,.743.821l-.6.193a1.463,1.463,0,0,0-.557-.568,1.563,1.563,0,0,0-.795-.2,1.589,1.589,0,0,0-.676.145,1.738,1.738,0,0,0-.542.394,1.772,1.772,0,0,0-.371.6,2.043,2.043,0,0,0-.134.743,2.106,2.106,0,0,0,.137.743,1.991,1.991,0,0,0,.371.613,1.858,1.858,0,0,0,.55.408,1.519,1.519,0,0,0,.668.149,1.685,1.685,0,0,0,.861-.241,1.513,1.513,0,0,0,.327-.256.88.88,0,0,0,.189-.308l.609.182a1.507,1.507,0,0,1-.293.464,1.99,1.99,0,0,1-.446.371,2.4,2.4,0,0,1-.572.245,2.538,2.538,0,0,1-.65.085,2.3,2.3,0,0,1-1.7-.743,2.417,2.417,0,0,1-.494-.783A2.535,2.535,0,0,1,135.439,233.337Z" transform="translate(-98.094 -159.303)"/>
  <path id="Path_10" data-name="Path 10" d="M149.24,237.032v-.572h2.651v.572Z" transform="translate(-106.77 -162.793)"/>
  <path id="Path_11" data-name="Path 11" d="M161.874,227.051H159.58v5.878h-.635v-5.878H156.65v-.561h5.224Z" transform="translate(-111.429 -156.525)"/>
  <path id="Path_12" data-name="Path 12" d="M171.633,235.807a2.228,2.228,0,0,1-.943-.2,2.291,2.291,0,0,1-.743-.531,2.406,2.406,0,0,1-.486-.78,2.547,2.547,0,0,1-.171-.932,2.492,2.492,0,0,1,.178-.943,2.41,2.41,0,0,1,.49-.783,2.374,2.374,0,0,1,.743-.535,2.149,2.149,0,0,1,.932-.2,2.2,2.2,0,0,1,.939.2,2.388,2.388,0,0,1,1.233,1.318,2.491,2.491,0,0,1,.178.943,2.546,2.546,0,0,1-.171.932,2.406,2.406,0,0,1-.486.78,2.265,2.265,0,0,1-.743.531,2.291,2.291,0,0,1-.951.2Zm-1.708-2.432a2,2,0,0,0,.134.743,2.073,2.073,0,0,0,.371.6,1.664,1.664,0,0,0,.546.4,1.563,1.563,0,0,0,.665.145,1.517,1.517,0,0,0,.668-.149,1.855,1.855,0,0,0,.55-.408,2.073,2.073,0,0,0,.371-.6,2.132,2.132,0,0,0,0-1.485,2.012,2.012,0,0,0-.371-.609,1.856,1.856,0,0,0-.55-.408,1.57,1.57,0,0,0-.668-.149,1.537,1.537,0,0,0-.661.149,1.78,1.78,0,0,0-.546.416,2.016,2.016,0,0,0-.5,1.359Z" transform="translate(-119.375 -159.303)"/>
  <path id="Path_13" data-name="Path 13" d="M188.693,235.707h-.62v-2.64a2.283,2.283,0,0,0-.249-1.222.847.847,0,0,0-.765-.371,1.575,1.575,0,0,0-.546.1,1.762,1.762,0,0,0-.5.282,1.98,1.98,0,0,0-.412.431,1.582,1.582,0,0,0-.264.538v2.892h-.616v-4.734h.561v1.066a2.228,2.228,0,0,1,.832-.835,2.261,2.261,0,0,1,1.173-.316,1.393,1.393,0,0,1,.661.145,1.114,1.114,0,0,1,.438.408,1.9,1.9,0,0,1,.234.642,4.51,4.51,0,0,1,.074.843Z" transform="translate(-129.076 -159.297)"/>
  <path id="Path_14" data-name="Path 14" d="M200.455,235.808a2.291,2.291,0,0,1-.951-.2,2.332,2.332,0,0,1-.743-.535,2.491,2.491,0,0,1-.5-.783,2.6,2.6,0,0,1-.175-.954,2.558,2.558,0,0,1,.175-.939,2.428,2.428,0,0,1,.49-.769,2.343,2.343,0,0,1,.743-.527,2.41,2.41,0,0,1,1.89,0,2.229,2.229,0,0,1,.743.531,2.4,2.4,0,0,1,.483.772,2.481,2.481,0,0,1,.171.925v.145a.339.339,0,0,1,0,.1h-4.047a1.994,1.994,0,0,0,.178.7,1.857,1.857,0,0,0,.371.557,1.656,1.656,0,0,0,.538.371,1.6,1.6,0,0,0,.65.134,1.727,1.727,0,0,0,.453-.063,1.815,1.815,0,0,0,.416-.174,1.412,1.412,0,0,0,.345-.267,1.143,1.143,0,0,0,.238-.349l.535.145a1.587,1.587,0,0,1-.308.475,2.187,2.187,0,0,1-.464.371,2.384,2.384,0,0,1-.579.245,2.6,2.6,0,0,1-.653.085Zm1.741-2.7a1.912,1.912,0,0,0-.561-1.236,1.7,1.7,0,0,0-.535-.371,1.644,1.644,0,0,0-.646-.126,1.677,1.677,0,0,0-.654.126,1.729,1.729,0,0,0-.542.371,1.774,1.774,0,0,0-.371.546,2.093,2.093,0,0,0-.167.691Z" transform="translate(-137.482 -159.304)"/>
</svg>
