<svg width="235" height="136" viewBox="0 0 235 136" fill="none" xmlns="http://www.w3.org/2000/svg">
<g clip-path="url(#clip0_1_21)">
<path d="M234.764 64.7949C220.676 61.6475 207.219 58.6535 193.777 55.6289C169.211 50.0939 144.723 44.4745 120.165 39.0394C117.293 38.4099 116.172 37.458 116.226 34.3642C116.426 23.2559 116.303 12.14 116.303 0.471283C121.723 1.93755 126.713 3.25795 131.657 4.64745C164.613 13.8596 197.562 23.0717 230.549 32.138C233.834 33.0438 234.947 34.3642 234.825 37.8418C234.564 46.6394 234.764 55.4523 234.764 64.7949Z" fill="black"/>
<path d="M186.63 93.1531L177.226 92.3009V63.8507L157.182 62.2616V90.3588L116.603 86.3975V40.3368L230.365 66.4915L230.272 67.0749L186.63 64.3113V93.1531Z" fill="black"/>
<path d="M111.774 0.586441V38.1258L55.2727 53.8326C55.2727 45.3881 55.1883 37.5424 55.2727 29.6814C55.4033 20.6458 53.676 23.1408 62.0053 19.8321C77.29 13.7675 92.6433 7.88708 107.974 1.94523C109.172 1.4923 110.353 1.09311 111.774 0.586441Z" fill="black"/>
<path d="M116.541 88.5929V135.498H234.564V100.062L116.541 88.5929ZM180.097 132.42H171.085V97.0144L180.097 97.92V132.42ZM192.541 132.504H183.582V97.9666L192.541 98.964V132.504Z" fill="black"/>
<path d="M109.264 41.0814C78.5562 49.7945 47.9107 58.6074 17.1422 67.121C13.1733 68.2188 12.0218 69.7922 12.1216 73.8304C12.4133 85.9518 12.2291 98.0888 12.2291 110.457L-0.053772 112.759V135.506H111.705V40.498C110.715 40.736 109.985 40.8818 109.264 41.0814ZM106.523 132.389H17.764V112.614L106.523 104.238V132.389ZM17.718 109.527V89.5221L55.0348 82.2675V106.411L17.718 109.527ZM106.569 66.0079C106.569 66.7756 104.78 67.8964 103.667 68.1499C80.9129 73.3341 58.1387 78.4521 35.3438 83.5032C29.5172 84.8086 23.6751 86.0903 17.4723 87.4645C17.4723 82.5281 17.265 77.9301 17.6259 73.3773C17.7026 72.4029 19.6909 71.136 21.0113 70.7673C39.3357 65.7238 57.6832 60.7954 76.0002 55.8438L102.592 48.6968C103.79 48.3743 105.003 48.1056 106.684 47.6988C106.707 54.0705 106.815 60.0507 106.569 66.0079Z" fill="black"/>
</g>
<defs>
<clipPath id="clip0_1_21">
<rect width="235" height="135.057" fill="white" transform="translate(0 0.471283)"/>
</clipPath>
</defs>
</svg>
