<svg width="280" height="134" viewBox="0 0 280 134" fill="none" xmlns="http://www.w3.org/2000/svg">
<g clip-path="url(#clip0_1_209)">
<path d="M253.427 65.2344C252.774 66.0357 252.122 66.8463 251.461 67.6478C241.594 79.6851 230.525 90.307 217.09 98.2267C210.139 102.326 202.741 105.373 194.728 106.453C182.895 108.047 172.19 105.093 162.649 97.9099C153.761 91.2012 147.201 82.5273 141.602 73.0327C137.557 66.0699 134.014 58.8277 130.999 51.3612C130.785 50.8394 130.542 50.3269 130.17 49.4977C129.937 50.1407 129.788 50.4294 129.685 50.8021C126.307 62.4611 120.127 73.1165 111.684 81.8373C103.27 90.5622 92.4393 96.5715 80.5835 99.0928C77.7889 99.689 74.9936 100.099 72.1982 100.481C75.096 99.5497 78.0494 98.6179 80.8823 97.5274C91.4198 93.2791 100.057 86.4493 107.249 77.7284C114.149 69.3023 119.479 59.7054 122.986 49.3952C125.315 42.6962 127.151 35.8202 129.135 29.2609C130.151 31.879 131.269 34.8977 132.481 37.87C137.014 49.4102 142.774 60.4303 149.661 70.7411C155.252 78.9308 161.662 86.4218 170.159 91.8537C176.476 95.8969 183.324 98.1242 190.889 97.6024C196.884 97.0799 202.67 95.1454 207.772 91.9562C213.602 88.3235 218.928 83.9373 223.611 78.9121C233.71 68.4087 243.204 57.3411 252.047 45.7615C260.852 34.376 269.405 22.8134 276.626 10.3564C277.498 8.69509 278.462 7.08382 279.514 5.53011C267.973 48.3517 256.426 91.1704 244.873 133.986H244.659L253.715 65.4953L253.427 65.2344Z" fill="black"/>
<path d="M23.9078 58.2838C25.8396 76.6761 27.7744 95.0677 29.7124 113.46H29.5726L0 2.29706H0.149075C2.09636 5.7444 3.97842 9.23835 5.99093 12.6671C11.9959 22.8989 18.5815 32.7788 25.7153 42.2583C31.3895 49.7866 37.2127 57.1658 43.3155 64.3866C49.9119 72.1385 57.3936 78.9864 66.4965 83.8034C71.043 86.2168 75.8137 87.791 81.0593 87.6048C77.5138 88.3631 73.8637 88.5051 70.27 88.0241C57.9806 86.5149 47.9088 80.3188 38.6382 72.6322C33.7335 68.5655 29.2199 64.0485 25.1563 59.141C24.8861 58.8056 24.5786 58.5074 24.2805 58.2093L23.9078 58.2838Z" fill="black"/>
<path d="M178.722 38.7364C172.563 46.3113 167.196 54.3333 157.376 57.1098C170.699 43.7863 179.895 28.3664 182.532 9.36876C182.532 10.8595 182.532 12.3502 182.532 13.8317C182.532 15.3131 182.532 16.8411 182.644 18.3505C183.268 30.6025 184.638 42.7521 188.57 54.4545C191.29 62.5604 195.092 70.0418 201.763 75.8093C198.847 74.9988 193.191 70.7224 189.837 66.7997C186.515 62.9362 183.895 58.5217 182.094 53.7557C180.336 48.9131 179.203 43.8659 178.722 38.7364Z" fill="black"/>
<path d="M93.4887 53.0662C86.0908 50.6996 81.8888 44.6808 77.1556 38.7364C76.9225 40.2365 76.7363 41.4663 76.5313 42.6869C75.0221 51.4916 71.295 59.0664 64.214 64.7406C62.8164 65.8586 61.2511 66.781 59.7604 67.7871L59.3784 67.359C59.9921 66.9109 60.5801 66.4287 61.1393 65.9146C65.8725 61.0138 68.5928 55.0321 70.5776 48.6126C72.5302 41.9383 73.6991 35.0594 74.0622 28.1149C74.2116 25.6458 74.3141 23.1768 74.519 20.6611C76.4938 34.0499 83.0718 44.6715 93.4887 53.0662Z" fill="black"/>
<path d="M206.841 36.6214C216.735 32.2051 221.925 23.8383 226.565 15.0429C228.373 11.6049 229.863 8.00849 231.364 4.79405C231.121 7.02085 230.655 9.58305 230.609 12.1546C230.557 14.8038 230.725 17.4528 231.112 20.0742C231.52 22.6873 232.111 25.2683 232.882 27.7981C233.628 30.3137 234.643 32.7455 235.621 35.4289C233.33 33.7077 231.583 31.3624 230.59 28.6739C229.509 26.1396 228.643 23.5029 227.572 20.6146C223.108 29.1677 216.828 35.1307 206.841 36.6214Z" fill="black"/>
<path d="M141.872 31.6927C138.307 30.4027 135.192 28.1044 132.909 25.0775C130.631 21.9819 128.993 18.4627 128.092 14.7261C125.502 19.0493 123.341 23.3631 118.775 25.6458C124.281 18.0058 127.794 9.68554 127.766 0.0143509C129.024 7.39356 130.627 14.5677 133.859 21.2761C135.647 25.3462 138.397 28.9211 141.872 31.6927Z" fill="black"/>
<path d="M56.8813 20.6239C54.2632 19.3009 52.8563 16.897 51.0581 14.3441C49.9959 19.2077 47.9368 23.0836 43.2969 25.5247C48.6822 19.9344 49.6326 13.0304 50.5457 6.75063C51.165 9.11576 51.9305 11.4402 52.8376 13.7106C54.0532 16.0899 55.4032 18.3981 56.8813 20.6239Z" fill="black"/>
</g>
<defs>
<clipPath id="clip0_1_209">
<rect width="280" height="133.971" fill="white" transform="translate(0 0.0143509)"/>
</clipPath>
</defs>
</svg>
